# Blender 5.0.1
# www.blender.org
mtllib papir_stroj.mtl
o Cube.018
v -0.945488 -1.000000 0.945488
v -0.943299 -0.945488 1.000000
v -1.000000 -0.943798 0.943798
v -0.723739 0.950979 0.780631
v -0.702274 1.000000 0.702274
v -0.780631 0.950979 0.724172
v -1.000000 -0.943798 -0.943798
v -0.943798 -0.943798 -1.000000
v -0.945488 -1.000000 -0.945488
v -0.780631 0.950979 -0.724172
v -0.702274 1.000000 -0.702274
v -0.724172 0.950979 -0.780631
v 0.945488 -1.000000 0.945488
v 1.000000 -0.945488 0.943299
v 0.943299 -0.945488 1.000000
v 0.780631 0.950979 0.723739
v 0.702274 1.000000 0.702274
v 0.723739 0.950979 0.780631
v 0.943798 -0.943798 -1.000000
v 1.000000 -0.945488 -0.943299
v 0.945488 -1.000000 -0.945488
v 0.724172 0.950979 -0.780631
v 0.702274 1.000000 -0.702274
v 0.780631 0.950979 -0.723739
v -1.000000 0.500000 0.943662
v -0.943212 0.500000 1.000000
v -1.000000 0.500000 -0.943662
v -0.943662 0.500000 -1.000000
v 0.943662 0.500000 -1.000000
v 1.000000 0.500000 -0.943212
v 1.000000 0.500000 0.943212
v 0.943212 0.500000 1.000000
v -0.747188 -0.692676 -1.054512
v -0.692676 -0.747188 -1.054512
v -0.801700 -0.801700 -1.000000
v -0.747188 0.192676 -1.054512
v -0.801700 0.301700 -1.000000
v -0.692676 0.247188 -1.054512
v 0.692676 0.247188 -1.054512
v 0.801700 0.301700 -1.000000
v 0.747188 0.192676 -1.054512
v 0.692676 -0.747188 -1.054512
v 0.747188 -0.692676 -1.054512
v 0.801700 -0.801700 -1.000000
v -1.054512 -0.692676 0.747188
v -1.054512 -0.747188 0.692676
v -1.000000 -0.801700 0.801700
v -1.054512 0.192676 0.747188
v -1.000000 0.301700 0.801700
v -1.054512 0.247188 0.692676
v -1.054512 0.247188 -0.692676
v -1.000000 0.301700 -0.801700
v -1.054512 0.192676 -0.747188
v -1.054512 -0.747188 -0.692676
v -1.054512 -0.692676 -0.747188
v -1.000000 -0.801700 -0.801700
v -1.319648 -0.516981 0.571494
v -1.319648 -0.571494 0.516981
v -1.374161 -0.626006 0.626006
v -1.319648 0.016981 0.571494
v -1.374161 0.126006 0.626006
v -1.319648 0.071494 0.516981
v -1.319648 -0.571494 -0.516981
v -1.319648 -0.516981 -0.571494
v -1.374161 -0.626006 -0.626006
v -1.319648 0.071494 -0.516981
v -1.374161 0.126006 -0.626006
v -1.319648 0.016981 -0.571494
v -0.747188 0.192676 -1.345244
v -0.692676 0.247188 -1.345244
v -0.692676 0.192676 -1.399756
v -0.747188 -0.692676 -1.345244
v -0.692676 -0.692676 -1.399756
v -0.692676 -0.747188 -1.345244
v 0.692676 -0.747188 -1.345244
v 0.692676 -0.692676 -1.399756
v 0.747188 -0.692676 -1.345244
v 0.692676 0.247188 -1.345244
v 0.747188 0.192676 -1.345244
v 0.692676 0.192676 -1.399756
v -1.374161 -0.692676 0.692676
v -1.319648 -0.747188 0.692676
v -1.319648 -0.692676 0.747188
v -1.319648 0.192676 0.747188
v -1.319648 0.247188 0.692676
v -1.374161 0.192676 0.692676
v -1.374161 -0.692676 -0.692676
v -1.319648 -0.692676 -0.747188
v -1.319648 -0.747188 -0.692676
v -1.319648 0.247188 -0.692676
v -1.319648 0.192676 -0.747188
v -1.374161 0.192676 -0.692676
v -1.319648 -0.516981 0.571494
v -1.265136 -0.516981 0.516981
v -1.319648 -0.571494 0.516981
v -1.319648 0.016981 0.571494
v -1.319648 0.071494 0.516981
v -1.265136 0.016981 0.516981
v -1.319648 -0.571494 -0.516981
v -1.265136 -0.516981 -0.516981
v -1.319648 -0.516981 -0.571494
v -1.319648 0.071494 -0.516981
v -1.319648 0.016981 -0.571494
v -1.265136 0.016981 -0.516981
vn -0.0284 -0.9992 0.0276
vn -0.0284 -0.0358 0.9990
vn -0.9774 -0.1651 0.1321
vn -0.0271 0.5112 0.8590
vn -0.0324 0.9990 0.0324
vn -0.8590 0.5113 0.0274
vn -0.9775 -0.1653 -0.1310
vn -0.1310 -0.1653 -0.9775
vn -0.0285 -0.9992 -0.0284
vn -0.8590 0.5112 -0.0271
vn -0.0324 0.9990 -0.0323
vn -0.0271 0.5112 -0.8590
vn 0.0276 -0.9992 0.0276
vn 0.9989 -0.0358 0.0287
vn 0.0287 -0.0358 0.9989
vn 0.8590 0.5113 0.0273
vn 0.0324 0.9990 0.0324
vn 0.0273 0.5113 0.8590
vn 0.1321 -0.1652 -0.9774
vn 0.9990 -0.0358 -0.0284
vn 0.0276 -0.9992 -0.0284
vn 0.0273 0.5113 -0.8590
vn 0.0323 0.9990 -0.0324
vn 0.8590 0.5112 -0.0271
vn -0.9831 -0.0519 -0.1754
vn -0.0340 -0.9851 -0.1688
vn -0.0964 -0.1436 -0.9849
vn -0.9831 0.0519 -0.1754
vn -0.0826 0.1230 -0.9890
vn -0.0341 0.9851 -0.1688
vn 0.0340 0.9851 -0.1688
vn 0.0826 0.1230 -0.9890
vn 0.9831 0.0519 -0.1754
vn 0.0341 -0.9851 -0.1688
vn 0.9831 -0.0519 -0.1754
vn 0.0964 -0.1436 -0.9849
vn -0.1887 -0.0513 0.9807
vn -0.1817 -0.9828 0.0338
vn -0.9849 -0.1436 0.0964
vn -0.1887 0.0513 0.9807
vn -0.9890 0.1230 0.0826
vn -0.1817 0.9828 0.0337
vn -0.1817 0.9828 -0.0338
vn -0.9890 0.1230 -0.0826
vn -0.1887 0.0513 -0.9807
vn -0.1817 -0.9828 -0.0337
vn -0.1887 -0.0513 -0.9807
vn -0.9849 -0.1436 -0.0964
vn -0.7339 0.0276 -0.6787
vn -0.7229 0.6907 -0.0161
vn -0.9576 0.2501 -0.1433
vn -0.7339 -0.0276 -0.6787
vn -0.9576 -0.2500 -0.1433
vn -0.7229 -0.6908 -0.0161
vn -0.7229 0.6908 0.0161
vn -0.7339 0.0276 0.6787
vn -0.9576 0.2500 0.1433
vn -0.7229 -0.6907 0.0161
vn -0.9576 -0.2501 0.1433
vn -0.7339 -0.0276 0.6787
vn -0.9870 0.0529 -0.1520
vn -0.0345 0.9876 -0.1534
vn -0.0367 0.0568 -0.9977
vn -0.9870 -0.0529 -0.1520
vn -0.0367 -0.0568 -0.9977
vn -0.0344 -0.9876 -0.1534
vn 0.0345 -0.9876 -0.1534
vn 0.0367 -0.0568 -0.9977
vn 0.9870 -0.0529 -0.1520
vn 0.0344 0.9876 -0.1534
vn 0.9870 0.0529 -0.1520
vn 0.0367 0.0568 -0.9977
vn -0.9461 -0.2720 0.1757
vn -0.1654 -0.9856 0.0342
vn -0.1640 -0.0525 0.9851
vn -0.1639 0.0525 0.9851
vn -0.1654 0.9856 0.0342
vn -0.9461 0.2721 0.1757
vn -0.9461 -0.2721 -0.1757
vn -0.1639 -0.0525 -0.9851
vn -0.1654 -0.9856 -0.0342
vn -0.1654 0.9856 -0.0342
vn -0.1640 0.0525 -0.9851
vn -0.9461 0.2720 -0.1757
vn -0.7067 0.0343 -0.7067
vn -0.9948 0.0900 -0.0476
vn -0.7070 0.7070 -0.0181
vn -0.7067 -0.0343 -0.7067
vn -0.7070 -0.7070 -0.0181
vn -0.9948 -0.0900 -0.0476
vn -0.7070 0.7070 0.0181
vn -0.9948 0.0900 0.0476
vn -0.7067 0.0343 0.7067
vn -0.7070 -0.7070 0.0181
vn -0.7067 -0.0343 0.7067
vn -0.9948 -0.0900 0.0476
vn -0.0284 -0.9992 -0.0285
vn -0.9774 -0.1652 0.1321
vn -0.9775 -0.1652 -0.1310
vn -0.0296 0.1082 0.9937
vn -0.8590 0.5113 0.0273
vn -0.9598 0.2706 0.0745
vn -0.0324 0.9990 -0.0324
vn -0.0739 0.2706 -0.9599
vn -0.1309 -0.1652 -0.9775
vn -0.9599 0.2706 -0.0739
vn -0.1311 -0.1652 -0.9775
vn 0.0324 0.9990 -0.0324
vn -0.0272 0.5112 -0.8590
vn 0.9937 0.1082 -0.0295
vn 0.1320 -0.1653 -0.9774
vn 0.0745 0.2706 -0.9598
vn 0.0275 -0.9992 0.0275
vn 0.0276 -0.9992 -0.0285
vn 0.0324 0.9990 -0.0323
vn 0.0324 0.9990 0.0323
vn 0.8590 0.5112 -0.0272
vn 0.0298 0.1082 0.9937
vn 0.0286 -0.0358 0.9989
vn 0.9989 -0.0358 0.0286
vn 0.9937 0.1082 0.0298
vn 0.0276 -0.9992 0.0275
vn 0.0286 -0.0358 0.9990
vn 0.0323 0.9990 0.0324
vn -0.0323 0.9990 0.0324
vn 0.0274 0.5113 0.8590
vn -0.0295 0.1082 0.9937
vn -0.9774 -0.1652 0.1320
vn 0.9937 0.1082 -0.0296
vn -0.9832 0.0518 -0.1753
vn -0.9832 -0.0518 -0.1753
vn -0.0825 0.1230 -0.9890
vn 0.0963 -0.1436 -0.9849
vn -0.0963 -0.1436 -0.9849
vn -0.0340 -0.9851 -0.1687
vn 0.0340 -0.9851 -0.1687
vn -0.0825 0.1229 -0.9890
vn 0.0826 0.1229 -0.9890
vn 0.0340 0.9851 -0.1687
vn -0.0340 0.9851 -0.1687
vn 0.0825 0.1230 -0.9890
vn 0.9832 -0.0518 -0.1753
vn 0.9832 0.0518 -0.1753
vn -0.9890 0.1230 0.0825
vn -0.1887 0.0512 0.9807
vn -0.9849 -0.1436 -0.0963
vn -0.9849 -0.1436 0.0963
vn -0.1817 -0.9828 0.0337
vn -0.9890 0.1229 0.0825
vn -0.9890 0.1229 -0.0826
vn -0.1817 0.9828 -0.0337
vn -0.9890 0.1230 -0.0825
vn -0.1887 -0.0512 -0.9807
vn -0.1639 -0.0525 0.9851
vn -0.9461 0.2721 0.1758
vn -0.9461 -0.2721 0.1758
vn -0.9461 -0.2721 -0.1758
vn -0.9461 0.2721 -0.1758
vn -0.1639 0.0525 -0.9851
vn -0.1817 0.9828 0.0336
vn -0.1640 0.0525 0.9851
vn -0.1817 -0.9828 0.0336
vn -0.1817 -0.9828 -0.0336
vn -0.1640 -0.0525 -0.9851
vn -0.1817 0.9828 -0.0336
vn -0.0345 -0.9876 -0.1534
vn 0.0345 0.9876 -0.1534
vn 0.9831 0.0518 -0.1753
vn -0.9831 0.0518 -0.1753
vn -0.9831 -0.0518 -0.1753
vn 0.9831 -0.0518 -0.1753
vn -0.9576 0.2501 -0.1432
vn -0.9576 -0.2500 -0.1432
vn -0.9576 0.2501 0.1433
vn -0.9576 0.2500 -0.1432
vn -0.7229 0.6908 -0.0161
vn -0.9576 -0.2501 -0.1433
vn -0.9576 -0.2500 0.1432
vn -0.7229 -0.6908 0.0161
vn -0.9576 -0.2501 0.1432
vn -0.9576 0.2500 0.1432
vn -0.7070 0.7070 0.0182
vn -0.7070 0.7070 -0.0182
vn -0.7070 -0.7070 -0.0182
vn -0.7070 -0.7070 0.0182
vn -0.9849 -0.1435 0.0964
vn -0.9849 -0.1435 -0.0964
vn -0.0285 -0.9992 -0.0285
vn -0.0285 -0.9992 0.0276
vn -0.9598 0.2706 0.0746
vn 0.0299 0.1083 0.9937
vn -0.1310 -0.1652 -0.9775
vn -0.0739 0.2705 -0.9599
vn -0.0964 -0.1435 -0.9849
vn 0.0964 -0.1435 -0.9849
vn -0.9599 0.2705 -0.0738
vn -0.9890 0.1229 -0.0825
vn 0.8590 0.5113 0.0274
vn 0.9937 0.1083 0.0298
vn 0.0825 0.1229 -0.9890
vn -0.9599 0.2705 -0.0739
vn -0.9870 0.0530 -0.1520
vn 0.9870 -0.0530 -0.1520
vn -0.1816 -0.9828 -0.0337
vn -0.1816 -0.9828 0.0337
vn -0.1816 0.9828 0.0337
vn -0.1816 0.9828 -0.0337
vn -0.7067 -0.0343 -0.7066
vn -0.7067 0.0343 -0.7066
vn -0.9461 -0.2720 -0.1758
vn -0.9461 -0.2720 0.1758
vn -0.9461 0.2720 0.1758
vn -0.7230 0.6907 0.0160
vn -0.7230 0.6907 -0.0160
vn -0.7230 -0.6907 -0.0160
vn -0.7230 -0.6907 0.0160
vn -0.9461 0.2720 -0.1758
vn -0.7067 0.0343 0.7066
vn -0.7067 -0.0343 0.7066
vt 0.131814 0.743186
vt 0.132088 0.750000
vt 0.125000 0.742975
vt 0.621221 0.000000
vt 0.625000 0.009004
vt 0.618872 0.008297
vt 0.125000 0.507025
vt 0.132025 0.500000
vt 0.131814 0.506814
vt 0.618872 0.241703
vt 0.625000 0.246999
vt 0.619455 0.256223
vt 0.368186 0.743186
vt 0.380111 0.742912
vt 0.374863 0.753544
vt 0.619459 0.743727
vt 0.629502 0.750000
vt 0.618873 0.758364
vt 0.376405 0.495785
vt 0.380111 0.507088
vt 0.368186 0.506814
vt 0.618872 0.491703
vt 0.629502 0.500000
vt 0.619460 0.506273
vt 0.413416 0.281601
vt 0.406602 0.288416
vt 0.399787 0.274787
vt 0.524084 0.281601
vt 0.537713 0.274787
vt 0.530899 0.288416
vt 0.530899 0.461584
vt 0.537713 0.475213
vt 0.524084 0.468398
vt 0.406602 0.461584
vt 0.413416 0.468398
vt 0.399787 0.475213
vt 0.413416 0.031601
vt 0.406601 0.038416
vt 0.399787 0.024787
vt 0.524084 0.031601
vt 0.537713 0.024787
vt 0.530899 0.038416
vt 0.530899 0.211584
vt 0.537713 0.225213
vt 0.524084 0.218398
vt 0.406601 0.211584
vt 0.413416 0.218398
vt 0.399787 0.225213
vt 0.435377 0.053563
vt 0.428563 0.060377
vt 0.421749 0.046749
vt 0.502123 0.053563
vt 0.515751 0.046749
vt 0.508937 0.060377
vt 0.428563 0.189623
vt 0.435377 0.196437
vt 0.421749 0.203251
vt 0.508937 0.189623
vt 0.515751 0.203251
vt 0.502123 0.196437
vt 0.524085 0.288416
vt 0.413416 0.281601
vt 0.413416 0.288416
vt 0.406602 0.288416
vt 0.413416 0.461584
vt 0.413416 0.468399
vt 0.524085 0.468399
vt 0.524085 0.461584
vt 0.413416 0.038416
vt 0.406601 0.038416
vt 0.524084 0.031601
vt 0.524085 0.038416
vt 0.413416 0.211584
vt 0.406601 0.211584
vt 0.530899 0.211584
vt 0.524084 0.218398
vt 0.524085 0.211584
vt 0.435377 0.053563
vt 0.435377 0.060377
vt 0.428563 0.060377
vt 0.502123 0.053563
vt 0.502123 0.060377
vt 0.435377 0.189623
vt 0.435377 0.196437
vt 0.508937 0.189623
vt 0.502123 0.189623
vt 0.563672 0.000000
vt 0.562500 0.007042
vt 0.562500 0.257042
vt 0.382025 0.257025
vt 0.382025 0.242975
vt 0.562500 0.242958
vt 0.562500 0.507098
vt 0.562500 0.492958
vt 0.562500 0.757098
vt 0.562500 0.742902
vt 0.625000 0.990996
vt 0.618872 0.991636
vt 0.381814 0.000000
vt 0.382025 0.007025
vt 0.562500 0.992901
vt 0.381814 0.992912
vt 0.865996 0.509004
vt 0.865996 0.740996
s 0
f 1/1/1 2/2/2 3/3/3
f 4/4/4 5/5/5 6/6/6
f 7/7/7 8/8/8 9/9/9
f 10/10/10 11/11/11 12/12/12
f 13/13/13 14/14/14 15/15/15
f 16/16/16 17/17/17 18/18/18
f 19/19/19 20/20/20 21/21/21
f 22/22/22 23/23/23 24/24/24
f 33/25/25 34/26/26 35/27/27
f 36/28/28 37/29/29 38/30/30
f 39/31/31 40/32/32 41/33/33
f 42/34/34 43/35/35 44/36/36
f 45/37/37 46/38/38 47/39/39
f 48/40/40 49/41/41 50/42/42
f 51/43/43 52/44/44 53/45/45
f 54/46/46 55/47/47 56/48/48
f 57/49/49 58/50/50 59/51/51
f 60/52/52 61/53/53 62/54/54
f 63/55/55 64/56/56 65/57/57
f 66/58/58 67/59/59 68/60/60
f 69/28/61 70/30/62 71/61/63
f 72/62/64 73/63/65 74/64/66
f 75/34/67 76/65/68 77/66/69
f 78/31/70 79/67/71 80/68/72
f 81/69/73 82/70/74 83/37/75
f 84/71/76 85/42/77 86/72/78
f 87/73/79 88/47/80 89/74/81
f 90/75/82 91/76/83 92/77/84
f 93/78/85 94/79/86 95/80/87
f 96/81/88 97/54/89 98/82/90
f 99/55/91 100/83/92 101/84/93
f 102/85/94 103/60/95 104/86/96
f 9/9/97 1/1/1 3/3/98 7/7/99
f 26/87/100 4/4/4 6/6/101 25/88/102
f 5/5/5 11/11/103 10/10/10 6/6/6
f 28/89/104 8/90/105 7/91/7 27/92/106
f 21/21/21 9/9/9 8/8/107 19/19/19
f 11/11/103 23/23/108 22/22/22 12/12/109
f 30/93/110 20/20/20 19/19/111 29/94/112
f 13/13/113 21/21/114 20/20/20 14/14/14
f 23/23/115 17/17/116 16/16/16 24/24/117
f 32/95/118 15/15/119 14/14/120 31/96/121
f 1/1/1 13/13/122 15/15/123 2/2/2
f 17/17/124 5/97/125 4/98/4 18/18/126
f 2/99/2 26/87/127 25/88/102 3/100/128
f 12/12/12 28/89/104 27/92/106 10/10/10
f 24/24/24 30/93/129 29/94/112 22/22/22
f 18/18/18 32/95/118 31/96/121 16/16/16
f 36/28/130 33/25/131 35/27/27 37/29/132
f 44/36/133 35/27/134 34/26/135 42/34/136
f 37/29/137 40/32/138 39/31/139 38/30/140
f 40/32/141 44/36/36 43/35/142 41/33/143
f 47/39/39 49/41/144 48/40/145 45/37/37
f 56/48/146 47/39/147 46/38/148 54/46/46
f 49/41/149 52/44/150 51/43/151 50/42/42
f 52/44/152 56/48/48 55/47/153 53/45/45
f 83/37/154 84/71/76 86/72/155 81/69/73
f 89/74/81 82/70/74 81/69/156 87/73/157
f 85/42/77 90/75/82 92/77/158 86/72/155
f 91/76/159 88/47/80 87/73/157 92/77/84
f 50/42/160 85/42/77 84/71/161 48/40/40
f 82/70/74 46/38/162 45/37/37 83/37/154
f 54/46/163 89/74/81 88/47/164 55/47/47
f 90/75/82 51/43/165 53/45/45 91/76/159
f 71/61/63 73/63/65 72/62/64 69/28/61
f 75/34/67 74/64/166 73/63/65 76/65/68
f 70/30/62 78/31/167 80/68/72 71/61/63
f 79/67/71 77/66/69 76/65/68 80/68/72
f 41/33/168 79/67/71 78/31/167 39/31/139
f 69/28/61 36/28/169 38/30/140 70/30/62
f 74/64/166 34/26/135 33/25/170 72/62/64
f 42/34/136 75/34/67 77/66/69 43/35/171
f 59/51/172 61/53/173 60/52/52 57/49/49
f 65/57/174 59/51/175 58/50/176 63/55/55
f 61/53/177 67/59/178 66/58/179 62/54/54
f 67/59/180 65/57/181 64/56/56 68/60/60
f 93/78/85 96/81/88 98/82/90 94/79/86
f 99/55/182 95/80/183 94/79/86 100/83/92
f 97/54/184 102/85/185 104/86/96 98/82/90
f 103/60/95 101/84/93 100/83/92 104/86/96
f 68/60/60 103/60/95 102/85/185 66/58/179
f 96/81/88 60/52/52 62/54/54 97/54/184
f 95/80/183 58/50/176 57/49/49 93/78/85
f 63/55/55 99/55/182 101/84/93 64/56/56
f 7/91/99 3/100/98 47/39/186 56/48/187
f 9/9/188 21/21/114 13/13/13 1/1/189
f 15/15/15 32/95/118 26/101/100 2/102/2
f 3/100/98 25/88/190 49/41/149 47/39/186
f 32/95/191 18/18/126 4/98/4 26/101/100
f 25/88/102 6/6/101 10/10/10 27/92/106
f 23/23/108 11/103/103 5/104/5 17/17/17
f 8/90/192 28/89/193 37/29/137 35/27/194
f 19/19/19 8/90/192 35/27/194 44/36/195
f 27/92/196 7/91/99 56/48/187 52/44/197
f 28/89/104 12/12/12 22/22/22 29/94/112
f 20/20/20 30/93/129 31/96/121 14/14/120
f 30/93/129 24/24/24 16/16/198 31/96/199
f 29/94/112 19/19/19 44/36/195 40/32/200
f 25/88/102 27/92/201 52/44/197 49/41/149
f 28/89/193 29/94/112 40/32/200 37/29/137
f 33/25/170 36/28/169 69/28/202 72/62/64
f 42/34/136 34/26/135 74/64/166 75/34/67
f 38/30/140 39/31/139 78/31/167 70/30/62
f 41/33/168 43/35/171 77/66/203 79/67/71
f 54/46/204 46/38/205 82/70/74 89/74/81
f 45/37/37 48/40/145 84/71/76 83/37/154
f 50/42/206 51/43/207 90/75/82 85/42/77
f 53/45/45 55/47/153 88/47/80 91/76/159
f 57/49/49 60/52/52 96/81/208 93/78/209
f 59/51/175 65/57/181 87/73/210 81/69/211
f 61/53/173 59/51/175 81/69/211 86/72/212
f 63/55/213 58/50/214 95/80/87 99/55/182
f 62/54/215 66/58/216 102/85/94 97/54/184
f 67/59/178 61/53/173 86/72/212 92/77/217
f 65/57/181 67/59/178 92/77/217 87/73/210
f 68/60/60 64/56/56 101/84/218 103/60/219
f 73/63/65 71/61/63 80/68/72 76/65/68
f 94/79/86 98/82/90 104/86/96 100/83/92
