# Blender 5.0.1
# www.blender.org
mtllib stul.mtl
o Stul
v 0.296432 0.011529 0.784129
v 0.306432 0.001529 0.784129
v 0.306432 0.011529 0.794129
v 0.306432 0.549399 0.794129
v 0.306432 0.559399 0.784129
v 0.296432 0.549399 0.784129
v 0.306432 0.001529 0.734750
v 0.296432 0.011529 0.734750
v 0.306432 0.011529 0.724750
v 0.306432 0.559399 0.724750
v 0.296432 0.549399 0.724750
v 0.337569 0.001529 0.784129
v 0.347569 0.011529 0.784129
v 0.337569 0.011529 0.794129
v 0.347569 0.549399 0.784129
v 0.337569 0.559399 0.784129
v 0.337569 0.549399 0.794129
v 0.337569 0.001529 0.734750
v 0.337569 0.011529 0.724750
v 0.347569 0.011529 0.734750
v 0.347569 0.549399 0.724750
v 0.337569 0.559399 0.724750
v 0.306432 0.313222 0.794129
v 0.296432 0.313222 0.784129
v 0.306432 0.377264 0.794129
v 0.296432 0.377264 0.784129
v 0.296432 0.485460 0.784129
v 0.306432 0.485460 0.794129
v 0.296432 0.495460 0.734750
v 0.306432 0.485460 0.714750
v 0.306432 0.475460 0.724750
v 0.306432 0.387264 0.724750
v 0.306432 0.377264 0.714750
v 0.296432 0.367264 0.734750
v 0.306432 0.303222 0.724750
v 0.296432 0.323222 0.734750
v 0.306432 0.313222 0.714750
v 0.337569 0.475460 0.724750
v 0.337569 0.485460 0.714750
v 0.347569 0.495460 0.734750
v 0.337569 0.387264 0.724750
v 0.347569 0.367264 0.734750
v 0.337569 0.377264 0.714750
v 0.337569 0.303222 0.724750
v 0.337569 0.313222 0.714750
v 0.347569 0.323222 0.734750
v 0.337569 0.485460 0.794129
v 0.347569 0.485460 0.784129
v 0.337569 0.377264 0.794129
v 0.347569 0.377264 0.784129
v 0.337569 0.313222 0.794129
v 0.347569 0.313222 0.784129
v 0.306432 0.199324 0.724750
v 0.286432 0.209324 0.734750
v 0.296432 0.219324 0.734750
v 0.296432 0.138328 0.734750
v 0.286432 0.148328 0.734750
v 0.306432 0.158328 0.724750
v 0.347569 0.209324 0.734750
v 0.337569 0.209324 0.724750
v 0.337569 0.148328 0.724750
v 0.347569 0.148328 0.734750
v 0.337569 0.209324 0.794129
v 0.347569 0.209324 0.784129
v 0.347569 0.148328 0.784129
v 0.337569 0.148328 0.794129
v 0.306432 0.158328 0.794129
v 0.286432 0.148328 0.784129
v 0.296432 0.138328 0.784129
v 0.296432 0.219324 0.784129
v 0.286432 0.209324 0.784129
v 0.306432 0.199324 0.794129
v -0.296432 0.011529 0.784129
v -0.306432 0.001529 0.784129
v -0.306432 0.011529 0.794129
v -0.306432 0.549399 0.794129
v -0.306432 0.559399 0.784129
v -0.296432 0.549399 0.784129
v -0.306432 0.001529 0.734750
v -0.296432 0.011529 0.734750
v -0.306432 0.011529 0.724750
v -0.306432 0.559399 0.724750
v -0.296432 0.549399 0.724750
v -0.337569 0.001529 0.784129
v -0.347569 0.011529 0.784129
v -0.337569 0.011529 0.794129
v -0.347569 0.549399 0.784129
v -0.337569 0.559399 0.784129
v -0.337569 0.549399 0.794129
v -0.337569 0.001529 0.734750
v -0.337569 0.011529 0.724750
v -0.347569 0.011529 0.734750
v -0.347569 0.549399 0.724750
v -0.337569 0.559399 0.724750
v -0.306432 0.313222 0.794129
v -0.296432 0.313222 0.784129
v -0.306432 0.377264 0.794129
v -0.296432 0.377264 0.784129
v -0.296432 0.485460 0.784129
v -0.306432 0.485460 0.794129
v -0.296432 0.495460 0.734750
v -0.306432 0.485460 0.714750
v -0.306432 0.475460 0.724750
v -0.306432 0.387264 0.724750
v -0.306432 0.377264 0.714750
v -0.296432 0.367264 0.734750
v -0.306432 0.303222 0.724750
v -0.296432 0.323222 0.734750
v -0.306432 0.313222 0.714750
v -0.337569 0.475460 0.724750
v -0.337569 0.485460 0.714750
v -0.347569 0.495460 0.734750
v -0.337569 0.387264 0.724750
v -0.347569 0.367264 0.734750
v -0.337569 0.377264 0.714750
v -0.337569 0.303222 0.724750
v -0.337569 0.313222 0.714750
v -0.347569 0.323222 0.734750
v -0.337569 0.485460 0.794129
v -0.347569 0.485460 0.784129
v -0.337569 0.377264 0.794129
v -0.347569 0.377264 0.784129
v -0.337569 0.313222 0.794129
v -0.347569 0.313222 0.784129
v -0.306432 0.199324 0.724750
v -0.286432 0.209324 0.734750
v -0.296432 0.219324 0.734750
v -0.296432 0.138328 0.734750
v -0.286432 0.148328 0.734750
v -0.306432 0.158328 0.724750
v -0.347569 0.209324 0.734750
v -0.337569 0.209324 0.724750
v -0.337569 0.148328 0.724750
v -0.347569 0.148328 0.734750
v -0.337569 0.209324 0.794129
v -0.347569 0.209324 0.784129
v -0.347569 0.148328 0.784129
v -0.337569 0.148328 0.794129
v -0.306432 0.158328 0.794129
v -0.286432 0.148328 0.784129
v -0.296432 0.138328 0.784129
v -0.296432 0.219324 0.784129
v -0.286432 0.209324 0.784129
v -0.306432 0.199324 0.794129
v 0.296432 0.011529 -0.784129
v 0.306432 0.001529 -0.784129
v 0.306432 0.011529 -0.794129
v 0.306432 0.549399 -0.794129
v 0.306432 0.559399 -0.784129
v 0.296432 0.549399 -0.784129
v 0.306432 0.001529 -0.734750
v 0.296432 0.011529 -0.734750
v 0.306432 0.011529 -0.724750
v 0.306432 0.559399 -0.724750
v 0.296432 0.549399 -0.724750
v 0.337569 0.001529 -0.784129
v 0.347569 0.011529 -0.784129
v 0.337569 0.011529 -0.794129
v 0.347569 0.549399 -0.784129
v 0.337569 0.559399 -0.784129
v 0.337569 0.549399 -0.794129
v 0.337569 0.001529 -0.734750
v 0.337569 0.011529 -0.724750
v 0.347569 0.011529 -0.734750
v 0.347569 0.549399 -0.724750
v 0.337569 0.559399 -0.724750
v 0.306432 0.313222 -0.794129
v 0.296432 0.313222 -0.784129
v 0.306432 0.377264 -0.794129
v 0.296432 0.377264 -0.784129
v 0.296432 0.485460 -0.784129
v 0.306432 0.485460 -0.794129
v 0.296432 0.495460 -0.734750
v 0.306432 0.485460 -0.714750
v 0.306432 0.475460 -0.724750
v 0.306432 0.387264 -0.724750
v 0.306432 0.377264 -0.714750
v 0.296432 0.367264 -0.734750
v 0.306432 0.303222 -0.724750
v 0.296432 0.323222 -0.734750
v 0.306432 0.313222 -0.714750
v 0.337569 0.475460 -0.724750
v 0.337569 0.485460 -0.714750
v 0.347569 0.495460 -0.734750
v 0.337569 0.387264 -0.724750
v 0.347569 0.367264 -0.734750
v 0.337569 0.377264 -0.714750
v 0.337569 0.303222 -0.724750
v 0.337569 0.313222 -0.714750
v 0.347569 0.323222 -0.734750
v 0.337569 0.485460 -0.794129
v 0.347569 0.485460 -0.784129
v 0.337569 0.377264 -0.794129
v 0.347569 0.377264 -0.784129
v 0.337569 0.313222 -0.794129
v 0.347569 0.313222 -0.784129
v 0.306432 0.199324 -0.724750
v 0.286432 0.209324 -0.734750
v 0.296432 0.219324 -0.734750
v 0.296432 0.138328 -0.734750
v 0.286432 0.148328 -0.734750
v 0.306432 0.158328 -0.724750
v 0.347569 0.209324 -0.734750
v 0.337569 0.209324 -0.724750
v 0.337569 0.148328 -0.724750
v 0.347569 0.148328 -0.734750
v 0.337569 0.209324 -0.794129
v 0.347569 0.209324 -0.784129
v 0.347569 0.148328 -0.784129
v 0.337569 0.148328 -0.794129
v 0.306432 0.158328 -0.794129
v 0.286432 0.148328 -0.784129
v 0.296432 0.138328 -0.784129
v 0.296432 0.219324 -0.784129
v 0.286432 0.209324 -0.784129
v 0.306432 0.199324 -0.794129
v -0.296432 0.011529 -0.784129
v -0.306432 0.001529 -0.784129
v -0.306432 0.011529 -0.794129
v -0.306432 0.549399 -0.794129
v -0.306432 0.559399 -0.784129
v -0.296432 0.549399 -0.784129
v -0.306432 0.001529 -0.734750
v -0.296432 0.011529 -0.734750
v -0.306432 0.011529 -0.724750
v -0.306432 0.559399 -0.724750
v -0.296432 0.549399 -0.724750
v -0.337569 0.001529 -0.784129
v -0.347569 0.011529 -0.784129
v -0.337569 0.011529 -0.794129
v -0.347569 0.549399 -0.784129
v -0.337569 0.559399 -0.784129
v -0.337569 0.549399 -0.794129
v -0.337569 0.001529 -0.734750
v -0.337569 0.011529 -0.724750
v -0.347569 0.011529 -0.734750
v -0.347569 0.549399 -0.724750
v -0.337569 0.559399 -0.724750
v -0.306432 0.313222 -0.794129
v -0.296432 0.313222 -0.784129
v -0.306432 0.377264 -0.794129
v -0.296432 0.377264 -0.784129
v -0.296432 0.485460 -0.784129
v -0.306432 0.485460 -0.794129
v -0.296432 0.495460 -0.734750
v -0.306432 0.485460 -0.714750
v -0.306432 0.475460 -0.724750
v -0.306432 0.387264 -0.724750
v -0.306432 0.377264 -0.714750
v -0.296432 0.367264 -0.734750
v -0.306432 0.303222 -0.724750
v -0.296432 0.323222 -0.734750
v -0.306432 0.313222 -0.714750
v -0.337569 0.475460 -0.724750
v -0.337569 0.485460 -0.714750
v -0.347569 0.495460 -0.734750
v -0.337569 0.387264 -0.724750
v -0.347569 0.367264 -0.734750
v -0.337569 0.377264 -0.714750
v -0.337569 0.303222 -0.724750
v -0.337569 0.313222 -0.714750
v -0.347569 0.323222 -0.734750
v -0.337569 0.485460 -0.794129
v -0.347569 0.485460 -0.784129
v -0.337569 0.377264 -0.794129
v -0.347569 0.377264 -0.784129
v -0.337569 0.313222 -0.794129
v -0.347569 0.313222 -0.784129
v -0.306432 0.199324 -0.724750
v -0.286432 0.209324 -0.734750
v -0.296432 0.219324 -0.734750
v -0.296432 0.138328 -0.734750
v -0.286432 0.148328 -0.734750
v -0.306432 0.158328 -0.724750
v -0.347569 0.209324 -0.734750
v -0.337569 0.209324 -0.724750
v -0.337569 0.148328 -0.724750
v -0.347569 0.148328 -0.734750
v -0.337569 0.209324 -0.794129
v -0.347569 0.209324 -0.784129
v -0.347569 0.148328 -0.784129
v -0.337569 0.148328 -0.794129
v -0.306432 0.158328 -0.794129
v -0.286432 0.148328 -0.784129
v -0.296432 0.138328 -0.784129
v -0.296432 0.219324 -0.784129
v -0.286432 0.209324 -0.784129
v -0.306432 0.199324 -0.794129
v -0.401260 0.556754 -0.900061
v -0.411260 0.566754 -0.900061
v -0.401260 0.566754 -0.910061
v -0.401260 0.622146 -0.910061
v -0.411260 0.622146 -0.900061
v -0.401260 0.632146 -0.900061
v -0.401260 0.556754 0.900061
v -0.401260 0.566754 0.910061
v -0.411260 0.566754 0.900061
v -0.401260 0.632146 0.900061
v -0.411260 0.622146 0.900061
v -0.401260 0.622146 0.910061
v 0.401258 0.556754 -0.900061
v 0.401258 0.566754 -0.910061
v 0.411258 0.566754 -0.900061
v 0.401258 0.632146 -0.900061
v 0.411258 0.622146 -0.900061
v 0.401258 0.622146 -0.910061
v 0.401258 0.556754 0.900061
v 0.411258 0.566754 0.900061
v 0.401258 0.566754 0.910061
v 0.401258 0.632146 0.900061
v 0.401258 0.622146 0.910061
v 0.411258 0.622146 0.900061
vn -0.9832 -0.0654 0.1706
vn -0.2192 -0.9647 0.1457
vn -0.2245 -0.0572 0.9728
vn -0.2230 0.1169 0.9678
vn -0.2220 0.9671 0.1246
vn -0.9784 0.1411 0.1511
vn -0.2192 -0.9647 -0.1457
vn -0.9832 -0.0654 -0.1706
vn -0.2245 -0.0571 -0.9728
vn 0.2192 -0.9647 0.1457
vn 0.9850 -0.0618 0.1611
vn 0.2245 -0.0571 0.9728
vn 0.9784 0.1411 0.1511
vn 0.2220 0.9670 0.1246
vn 0.2230 0.1169 0.9678
vn 0.2192 -0.9647 -0.1457
vn 0.2245 -0.0571 -0.9728
vn 0.9850 -0.0617 -0.1611
vn -0.9902 -0.1392 -0.0109
vn -0.2395 -0.9709 -0.0059
vn -0.2811 -0.0825 -0.9561
vn -0.2811 0.0825 -0.9561
vn -0.2395 0.9709 -0.0059
vn -0.9868 0.1614 -0.0126
vn -0.2557 -0.0778 -0.9636
vn -0.9865 -0.1632 -0.0122
vn 0.2811 -0.0825 -0.9561
vn 0.2395 -0.9709 -0.0059
vn 0.9902 -0.1392 -0.0109
vn 0.2811 0.0825 -0.9561
vn 0.9868 0.1614 -0.0126
vn 0.2395 0.9709 -0.0059
vn 0.2557 -0.0777 -0.9636
vn 0.9867 -0.1622 -0.0122
vn -0.0291 0.1598 -0.9867
vn -0.0155 0.9849 -0.1722
vn -0.9802 0.0825 -0.1802
vn -0.9811 -0.0653 -0.1823
vn -0.0155 -0.9849 -0.1723
vn -0.0363 -0.1531 -0.9875
vn -0.0363 -0.1531 0.9875
vn -0.0155 -0.9849 0.1722
vn -0.9811 -0.0653 0.1823
vn -0.9802 0.0825 0.1802
vn -0.0155 0.9849 0.1723
vn -0.0289 0.1586 0.9869
vn -0.9832 -0.0653 -0.1705
vn -0.2362 -0.0000 0.9717
vn -0.9784 0.1412 0.1511
vn -0.9874 0.0002 0.1583
vn -0.2220 0.9670 0.1247
vn -0.2362 0.9717 -0.0002
vn -0.9881 0.1537 -0.0000
vn -0.0362 -0.1530 -0.9876
vn -0.2245 -0.0572 -0.9728
vn -0.9832 -0.0654 -0.1705
vn -0.9811 -0.0652 -0.1822
vn 0.2193 -0.9647 -0.1457
vn -0.2193 -0.9647 -0.1457
vn -0.2246 -0.0572 -0.9728
vn 0.9861 -0.0000 -0.1660
vn 0.9850 -0.0618 -0.1611
vn 0.2245 -0.0572 -0.9728
vn 0.2405 -0.0002 -0.9706
vn 0.2362 0.9717 -0.0000
vn 0.2220 0.9671 0.1246
vn 0.9881 0.1537 -0.0000
vn 0.2405 -0.0000 0.9706
vn 0.2245 -0.0572 0.9728
vn 0.9861 -0.0002 0.1660
vn -0.2193 -0.9647 0.1457
vn 0.2193 -0.9647 0.1457
vn 0.2246 -0.0572 0.9728
vn -0.2245 -0.0571 0.9728
vn -0.2220 0.9670 0.1246
vn -0.2231 0.1169 0.9678
vn -0.0288 0.1586 0.9869
vn -0.2313 -0.0000 0.9729
vn -0.9839 -0.0000 0.1790
vn -0.9802 0.0824 0.1802
vn -0.2362 -0.0002 0.9717
vn -0.9861 -0.0000 0.1660
vn -0.9874 -0.0000 0.1583
vn -0.2812 -0.0825 -0.9561
vn -0.2812 0.0824 -0.9561
vn -0.9868 0.1614 -0.0125
vn -0.9902 -0.1391 -0.0108
vn 0.9902 -0.1392 -0.0108
vn 0.9868 0.1614 -0.0125
vn 0.2812 0.0825 -0.9561
vn 0.2812 -0.0824 -0.9561
vn 0.2362 -0.0000 0.9717
vn 0.9874 -0.0000 0.1583
vn 0.9861 -0.0000 0.1660
vn 0.2313 -0.0000 0.9729
vn 0.9854 -0.0000 0.1701
vn 0.9861 -0.0003 0.1660
vn -0.2396 -0.9709 -0.0059
vn 0.2558 -0.0777 -0.9636
vn -0.2557 -0.0777 -0.9636
vn 0.2812 0.0824 -0.9561
vn 0.2396 0.9709 -0.0059
vn -0.2812 -0.0824 -0.9561
vn -0.2395 0.9709 0.0059
vn -0.9868 0.1613 0.0126
vn -0.9868 0.1613 -0.0125
vn 0.9868 0.1613 0.0125
vn 0.2395 0.9709 0.0059
vn 0.9868 0.1613 -0.0126
vn 0.2395 -0.9709 0.0059
vn 0.9902 -0.1392 0.0109
vn -0.2361 0.9717 -0.0000
vn 0.2361 0.9717 -0.0000
vn -0.9865 -0.1631 0.0122
vn -0.2395 -0.9709 0.0059
vn -0.9865 -0.1631 -0.0122
vn 0.9867 -0.1622 0.0121
vn 0.9867 -0.1622 -0.0121
vn -0.9902 -0.1391 0.0108
vn -0.9902 -0.1391 -0.0109
vn -0.2558 -0.0777 -0.9636
vn -0.0291 0.1599 -0.9867
vn -0.9802 0.0824 -0.1802
vn 0.9867 -0.1623 -0.0121
vn 0.9868 -0.0000 -0.1621
vn 0.2526 -0.0000 -0.9676
vn 0.2405 -0.0000 -0.9706
vn 0.2414 -0.0002 0.9704
vn 0.9868 -0.0000 0.1621
vn 0.2414 -0.0000 0.9704
vn 0.2405 0.0002 0.9706
vn -0.0362 -0.1530 0.9876
vn -0.9811 -0.0653 0.1822
vn -0.9832 -0.0654 0.1705
vn -0.0154 -0.9849 0.1723
vn -0.0154 -0.9849 -0.1722
vn -0.9811 -0.0652 0.1822
vn -0.9802 0.0824 0.1803
vn -0.0154 0.9849 -0.1723
vn -0.0154 0.9849 0.1722
vn 0.0154 -0.9849 -0.1722
vn 0.0363 -0.1530 -0.9876
vn -0.0363 -0.1530 -0.9876
vn 0.0291 0.1598 -0.9867
vn 0.0154 0.9849 0.1722
vn 0.0288 0.1585 0.9869
vn -0.0289 0.1585 0.9869
vn -0.0363 -0.1530 0.9876
vn 0.0363 -0.1530 0.9876
vn 0.0154 -0.9849 0.1722
vn -0.0154 -0.9849 0.1722
vn -0.9811 -0.0653 -0.1822
vn 0.2244 -0.0572 0.9728
vn 0.2361 -0.0000 0.9717
vn -0.2361 -0.0000 0.9717
vn -0.9874 -0.0000 0.1582
vn -0.2244 -0.0572 -0.9728
vn -0.9902 -0.1392 0.0108
vn -0.9902 -0.1392 -0.0108
vn 0.9861 -0.0000 -0.1661
vn 0.9861 -0.0000 0.1661
vn 0.9874 -0.0000 0.1582
vn -0.9839 -0.0000 0.1789
vn -0.9861 -0.0000 0.1661
vn -0.9868 0.1613 -0.0126
vn -0.2811 -0.0824 -0.9561
vn 0.2811 0.0824 -0.9561
vn 0.9902 -0.1392 0.0108
vn 0.0291 0.1598 0.9867
vn -0.0291 0.1598 0.9867
vn 0.0289 0.1585 0.9869
vn -0.0154 0.9849 -0.1722
vn 0.0154 0.9849 -0.1722
vn 0.9832 -0.0654 0.1706
vn 0.9832 -0.0654 -0.1706
vn -0.9850 -0.0617 0.1611
vn -0.9850 -0.0618 -0.1611
vn 0.9865 -0.1632 -0.0122
vn -0.9867 -0.1622 -0.0122
vn 0.9802 0.0825 -0.1802
vn 0.0155 0.9849 -0.1723
vn 0.9811 -0.0653 -0.1823
vn 0.0363 -0.1531 -0.9875
vn 0.0155 -0.9849 -0.1722
vn 0.0363 -0.1531 0.9875
vn 0.9811 -0.0653 0.1823
vn 0.0155 -0.9849 0.1723
vn 0.9802 0.0825 0.1802
vn 0.0155 0.9849 0.1722
vn 0.9832 -0.0653 0.1705
vn 0.9881 0.1537 -0.0002
vn 0.0362 -0.1530 -0.9876
vn 0.9811 -0.0653 -0.1822
vn 0.9832 -0.0654 -0.1705
vn -0.9861 -0.0002 -0.1660
vn -0.2405 -0.0000 -0.9706
vn -0.9850 -0.0618 0.1611
vn -0.2362 0.9717 -0.0000
vn -0.2405 -0.0000 0.9706
vn 0.0288 0.1584 0.9869
vn 0.9802 0.0824 0.1802
vn 0.9839 -0.0000 0.1790
vn 0.2313 0.0003 0.9729
vn -0.9854 -0.0000 0.1701
vn 0.9865 -0.1631 0.0122
vn 0.9865 -0.1631 -0.0122
vn -0.9867 -0.1622 -0.0121
vn -0.9867 -0.1622 0.0121
vn 0.9902 -0.1391 0.0109
vn 0.9902 -0.1391 -0.0108
vn 0.9802 0.0824 -0.1802
vn 0.0291 0.1599 -0.9867
vn -0.2526 -0.0000 -0.9676
vn -0.9868 -0.0000 -0.1621
vn -0.9868 -0.0003 -0.1621
vn -0.9861 -0.0000 -0.1660
vn -0.9868 -0.0000 0.1621
vn -0.2414 -0.0000 0.9704
vn 0.9832 -0.0654 0.1705
vn 0.9811 -0.0652 0.1822
vn 0.0362 -0.1530 0.9876
vn 0.9811 -0.0652 -0.1822
vn 0.0154 -0.9849 -0.1723
vn 0.0154 0.9849 0.1723
vn 0.9802 0.0824 -0.1803
vn 0.9811 -0.0653 0.1822
vn -0.9861 -0.0000 -0.1661
vn 0.9839 -0.0000 0.1789
vn -0.2230 0.1169 -0.9678
vn -0.9784 0.1411 -0.1511
vn -0.2220 0.9670 -0.1246
vn 0.9784 0.1411 -0.1511
vn 0.2230 0.1169 -0.9678
vn 0.2220 0.9671 -0.1246
vn -0.9902 -0.1392 0.0109
vn -0.2811 -0.0825 0.9561
vn -0.2811 0.0825 0.9561
vn -0.9868 0.1614 0.0126
vn -0.2557 -0.0777 0.9636
vn -0.9865 -0.1632 0.0122
vn 0.2811 -0.0825 0.9561
vn 0.2811 0.0825 0.9561
vn 0.9868 0.1614 0.0126
vn 0.2557 -0.0778 0.9636
vn 0.9867 -0.1622 0.0122
vn -0.0289 0.1585 -0.9869
vn -0.2362 -0.0000 -0.9717
vn -0.9874 -0.0000 -0.1583
vn -0.2220 0.9671 -0.1246
vn -0.9881 0.1537 0.0002
vn 0.2220 0.9670 -0.1247
vn 0.2220 0.9670 -0.1246
vn 0.2231 0.1169 -0.9678
vn -0.0288 0.1584 -0.9869
vn -0.9839 -0.0000 -0.1790
vn -0.2313 -0.0000 -0.9729
vn -0.2313 0.0003 -0.9729
vn -0.9861 -0.0003 -0.1660
vn -0.2812 -0.0824 0.9561
vn -0.9868 0.1614 0.0125
vn -0.2812 0.0825 0.9561
vn 0.9902 -0.1391 0.0108
vn 0.2812 -0.0825 0.9561
vn 0.2812 0.0824 0.9561
vn 0.9868 0.1614 0.0125
vn 0.9784 0.1412 -0.1511
vn 0.9874 -0.0000 -0.1583
vn 0.2362 -0.0000 -0.9717
vn 0.9854 -0.0000 -0.1701
vn 0.2313 -0.0000 -0.9729
vn -0.2558 -0.0777 0.9636
vn 0.2557 -0.0777 0.9636
vn 0.2396 -0.9709 0.0059
vn -0.2812 0.0824 0.9561
vn -0.2396 0.9709 0.0059
vn 0.2812 -0.0824 0.9561
vn -0.0291 0.1599 0.9867
vn 0.2558 -0.0777 0.9636
vn 0.2526 -0.0000 0.9676
vn 0.9868 -0.0003 0.1621
vn 0.2414 -0.0000 -0.9704
vn -0.0288 0.1585 -0.9869
vn 0.0289 0.1585 -0.9869
vn 0.2361 -0.0000 -0.9717
vn -0.2361 -0.0000 -0.9717
vn -0.9874 -0.0000 -0.1582
vn 0.9874 -0.0000 -0.1582
vn -0.9839 -0.0000 -0.1789
vn -0.2811 0.0824 0.9561
vn 0.2811 -0.0824 0.9561
vn 0.9868 0.1613 0.0126
vn 0.9865 -0.1632 0.0122
vn -0.9867 -0.1622 0.0122
vn 0.0289 0.1586 -0.9869
vn 0.9874 0.0002 -0.1583
vn 0.2362 0.9717 0.0002
vn -0.2405 -0.0002 0.9706
vn 0.0288 0.1586 -0.9869
vn 0.9839 -0.0000 -0.1790
vn 0.2362 -0.0002 -0.9717
vn -0.9854 -0.0000 -0.1701
vn 0.0291 0.1599 0.9867
vn -0.9867 -0.1623 0.0121
vn -0.2526 -0.0000 0.9676
vn -0.2414 -0.0002 -0.9704
vn -0.2414 -0.0000 -0.9704
vn -0.2405 0.0002 -0.9706
vn 0.9839 -0.0000 -0.1789
vn -0.0123 -0.9999 -0.0054
vn -0.9885 -0.1508 -0.0050
vn -0.0112 -0.1504 -0.9886
vn -0.0112 0.1504 -0.9886
vn -0.9885 0.1508 -0.0050
vn -0.0123 0.9999 -0.0054
vn -0.0123 -0.9999 0.0054
vn -0.0112 -0.1504 0.9886
vn -0.9885 -0.1508 0.0050
vn -0.0123 0.9999 0.0054
vn -0.9885 0.1508 0.0050
vn -0.0112 0.1504 0.9886
vn 0.0123 -0.9999 -0.0054
vn 0.0112 -0.1504 -0.9886
vn 0.9885 -0.1508 -0.0050
vn 0.0123 0.9999 -0.0054
vn 0.9885 0.1508 -0.0050
vn 0.0112 0.1504 -0.9886
vn 0.0123 -0.9999 0.0054
vn 0.9885 -0.1508 0.0050
vn 0.0112 -0.1504 0.9886
vn 0.0123 0.9999 0.0054
vn 0.0112 0.1504 0.9886
vn 0.9885 0.1508 0.0050
vn -0.9886 -0.1508 0.0050
vn -0.9886 -0.1508 -0.0051
vn -0.0122 -0.9999 -0.0055
vn -0.0122 -0.9999 0.0055
vn -0.9886 -0.1508 -0.0050
vn -0.9886 0.1508 -0.0050
vn -0.9886 0.1508 0.0051
vn -0.0122 0.9999 0.0055
vn -0.0122 0.9999 -0.0055
vn -0.9886 0.1508 0.0050
vn 0.0112 -0.1503 0.9886
vn -0.0112 -0.1503 0.9886
vn -0.0123 -0.9999 0.0055
vn 0.0123 -0.9999 0.0055
vn -0.0112 0.1503 0.9886
vn 0.0112 0.1503 0.9886
vn 0.0123 0.9999 0.0055
vn -0.0123 0.9999 0.0055
vn 0.9886 -0.1508 0.0050
vn 0.9886 0.1508 0.0050
vn 0.9886 -0.1508 -0.0050
vn 0.9886 -0.1508 0.0051
vn 0.0122 -0.9999 0.0055
vn 0.0122 -0.9999 -0.0055
vn 0.9886 0.1508 -0.0051
vn 0.0122 0.9999 -0.0055
vn 0.0122 0.9999 0.0055
vn 0.9886 0.1508 -0.0050
vn -0.0112 -0.1503 -0.9886
vn 0.0112 -0.1503 -0.9886
vn 0.0123 -0.9999 -0.0055
vn -0.0123 -0.9999 -0.0055
vn 0.0112 0.1503 -0.9886
vn -0.0112 0.1503 -0.9886
vn -0.0123 0.9999 -0.0055
vn 0.0123 0.9999 -0.0055
vt 0.917851 0.757369
vt 0.920234 0.761496
vt 0.915468 0.761496
vt 0.904975 0.958017
vt 0.904975 0.962783
vt 0.900847 0.960400
vt 0.936874 0.761496
vt 0.939257 0.757369
vt 0.941640 0.761496
vt 0.920234 0.771989
vt 0.920234 0.776755
vt 0.916106 0.774372
vt 0.919595 0.960400
vt 0.915468 0.962783
vt 0.915468 0.958017
vt 0.936874 0.771989
vt 0.941002 0.774372
vt 0.936874 0.776755
vt 0.765482 0.020594
vt 0.756999 0.023151
vt 0.756999 0.018036
vt 0.949465 0.545332
vt 0.949465 0.540217
vt 0.957948 0.542775
vt 0.975626 0.545332
vt 0.967143 0.542775
vt 0.975626 0.540217
vt 0.745736 0.018036
vt 0.745736 0.023151
vt 0.737253 0.020594
vt 0.938203 0.545332
vt 0.929720 0.542775
vt 0.938203 0.540217
vt 0.986889 0.545332
vt 0.986889 0.540217
vt 0.995372 0.542775
vt 0.440919 0.958924
vt 0.438319 0.951089
vt 0.443083 0.950957
vt 0.903000 0.804820
vt 0.898235 0.804820
vt 0.900618 0.796916
vt 0.900618 0.829364
vt 0.898235 0.821461
vt 0.903000 0.821460
vt 0.442623 0.934323
vt 0.437859 0.934455
vt 0.440023 0.926488
vt 0.920234 0.756730
vt 0.936874 0.756730
vt 0.532145 0.927083
vt 0.553685 0.926488
vt 0.553816 0.931253
vt 0.532277 0.931847
vt 0.904975 0.982794
vt 0.900209 0.982794
vt 0.900209 0.962783
vt 0.952133 0.826226
vt 0.952133 0.776755
vt 0.956899 0.776755
vt 0.956899 0.819486
vt 0.941640 0.771989
vt 0.936874 0.822856
vt 0.941640 0.776755
vt 0.941640 0.822856
vt 0.915468 0.982794
vt 0.920234 0.962783
vt 0.920234 0.982794
vt 0.915468 0.822856
vt 0.915468 0.776755
vt 0.920234 0.822856
vt 0.915468 0.771989
vt 0.435754 0.929745
vt 0.474123 0.928686
vt 0.474255 0.933450
vt 0.495697 0.928090
vt 0.495829 0.932854
vt 0.529499 0.953339
vt 0.499788 0.954159
vt 0.492920 0.949581
vt 0.536105 0.948389
vt 0.936874 0.939840
vt 0.936874 0.896638
vt 0.941640 0.903378
vt 0.941640 0.933100
vt 0.915468 0.936470
vt 0.920234 0.936470
vt 0.920234 0.958017
vt 0.915468 0.900008
vt 0.920234 0.900008
vt 0.915468 0.878426
vt 0.920234 0.878426
vt 0.949465 0.023151
vt 0.954580 0.015917
vt 0.954580 0.547451
vt 0.933087 0.015917
vt 0.938203 0.023151
vt 0.933087 0.547451
vt 0.827743 0.023151
vt 0.827743 0.540217
vt 0.822628 0.547451
vt 0.822628 0.015917
vt 0.786740 0.543834
vt 0.786740 0.019534
vt 0.798002 0.019534
vt 0.798002 0.543834
vt 0.970511 0.015917
vt 0.975626 0.023151
vt 0.970511 0.547451
vt 0.803118 0.019534
vt 0.803118 0.543834
vt 0.912041 0.540217
vt 0.912041 0.023151
vt 0.917156 0.015917
vt 0.917157 0.547451
vt 0.762114 0.547451
vt 0.756998 0.540217
vt 0.762114 0.015917
vt 0.471477 0.954941
vt 0.436477 0.955908
vt 0.478083 0.949991
vt 0.936874 0.881796
vt 0.936874 0.843412
vt 0.941640 0.843412
vt 0.941640 0.875056
vt 0.915468 0.843412
vt 0.920234 0.843412
vt 0.978306 0.776755
vt 0.978306 0.826226
vt 0.973540 0.819486
vt 0.973540 0.776755
vt 0.705180 0.884796
vt 0.698439 0.880030
vt 0.904975 0.880030
vt 0.898235 0.884796
vt 0.698439 0.866215
vt 0.904975 0.866215
vt 0.898235 0.844808
vt 0.705179 0.844808
vt 0.698439 0.840042
vt 0.904975 0.840042
vt 0.904975 0.826226
vt 0.698439 0.826226
vt 0.705179 0.821460
vt 0.904975 0.776755
vt 0.904975 0.936470
vt 0.554369 0.951256
vt 0.781624 0.019534
vt 0.781624 0.543834
vt 0.940244 0.958017
vt 0.904975 0.878426
vt 0.904975 0.900008
vt 0.529789 0.963828
vt 0.500078 0.964648
vt 0.695766 0.019534
vt 0.695766 0.543834
vt 0.690650 0.543834
vt 0.690650 0.019534
vt 0.745736 0.540217
vt 0.952133 0.840042
vt 0.952133 0.875056
vt 0.986889 0.023151
vt 0.303511 0.866576
vt 0.096976 0.866576
vt 0.103716 0.861810
vt 0.296771 0.861810
vt 0.898235 0.861449
vt 0.705179 0.861449
vt 0.705179 0.804820
vt 0.685563 0.757369
vt 0.687946 0.761496
vt 0.683180 0.761496
vt 0.698439 0.958017
vt 0.702567 0.960400
vt 0.698439 0.962783
vt 0.666540 0.761496
vt 0.661774 0.761496
vt 0.664157 0.757369
vt 0.683180 0.771989
vt 0.687308 0.774372
vt 0.683180 0.776755
vt 0.683819 0.960400
vt 0.687946 0.958017
vt 0.687946 0.962783
vt 0.666540 0.771989
vt 0.666540 0.776755
vt 0.662412 0.774372
vt 0.674507 0.542775
vt 0.666025 0.545333
vt 0.666025 0.540217
vt 0.865651 0.018036
vt 0.874134 0.020594
vt 0.865651 0.023151
vt 0.891812 0.018036
vt 0.891812 0.023151
vt 0.883329 0.020594
vt 0.654762 0.545333
vt 0.646279 0.542775
vt 0.654762 0.540217
vt 0.854388 0.018036
vt 0.854388 0.023151
vt 0.845905 0.020594
vt 0.903075 0.018036
vt 0.911558 0.020594
vt 0.903075 0.023151
vt 0.440919 0.893603
vt 0.443083 0.901569
vt 0.438319 0.901437
vt 0.700414 0.804820
vt 0.702797 0.796916
vt 0.702797 0.829364
vt 0.700414 0.821460
vt 0.442623 0.918203
vt 0.440023 0.926038
vt 0.437859 0.918072
vt 0.666540 0.756730
vt 0.683180 0.756730
vt 0.532145 0.925443
vt 0.532277 0.920679
vt 0.553816 0.921274
vt 0.553685 0.926038
vt 0.703205 0.962783
vt 0.703205 0.982794
vt 0.698439 0.982794
vt 0.651281 0.826226
vt 0.646515 0.819486
vt 0.646515 0.776755
vt 0.651281 0.776755
vt 0.661774 0.771989
vt 0.666540 0.822856
vt 0.661774 0.822856
vt 0.661774 0.776755
vt 0.687946 0.982794
vt 0.683180 0.982794
vt 0.683180 0.962783
vt 0.687946 0.822856
vt 0.683180 0.822856
vt 0.687946 0.776755
vt 0.687946 0.771989
vt 0.435754 0.922781
vt 0.474255 0.919077
vt 0.474123 0.923841
vt 0.495829 0.919673
vt 0.495697 0.924437
vt 0.529499 0.899188
vt 0.536105 0.904138
vt 0.492920 0.902945
vt 0.499788 0.898367
vt 0.666540 0.939840
vt 0.661774 0.933100
vt 0.661774 0.903378
vt 0.666540 0.896638
vt 0.683180 0.958017
vt 0.683180 0.936470
vt 0.687946 0.936470
vt 0.683180 0.900008
vt 0.687946 0.900008
vt 0.683180 0.878426
vt 0.687946 0.878426
vt 0.865651 0.540217
vt 0.870766 0.015917
vt 0.870766 0.547451
vt 0.849273 0.547451
vt 0.849273 0.015917
vt 0.854388 0.540217
vt 0.731654 0.547451
vt 0.731654 0.015917
vt 0.736769 0.023151
vt 0.736769 0.540217
vt 0.707028 0.019534
vt 0.707028 0.543834
vt 0.886697 0.547451
vt 0.886697 0.015917
vt 0.891812 0.540217
vt 0.712144 0.019534
vt 0.712144 0.543834
vt 0.833342 0.015917
vt 0.833342 0.547451
vt 0.828227 0.540217
vt 0.828227 0.023151
vt 0.671140 0.015917
vt 0.671140 0.547451
vt 0.666025 0.023151
vt 0.471477 0.897585
vt 0.478083 0.902536
vt 0.436477 0.896619
vt 0.666540 0.881796
vt 0.661774 0.875056
vt 0.661774 0.843412
vt 0.666540 0.843412
vt 0.683180 0.843412
vt 0.687946 0.843412
vt 0.625108 0.776755
vt 0.629874 0.776755
vt 0.629874 0.819486
vt 0.625108 0.826226
vt 0.698439 0.776755
vt 0.698439 0.936470
vt 0.554369 0.901271
vt 0.663170 0.958017
vt 0.698439 0.878426
vt 0.698439 0.900008
vt 0.500078 0.887878
vt 0.529789 0.888698
vt 0.654762 0.023151
vt 0.651281 0.840042
vt 0.651281 0.875056
vt 0.903075 0.540217
vt 0.084100 0.757730
vt 0.086483 0.761857
vt 0.081717 0.761857
vt 0.096976 0.958379
vt 0.101104 0.960762
vt 0.096976 0.963145
vt 0.065077 0.761857
vt 0.060311 0.761857
vt 0.062694 0.757730
vt 0.081717 0.772350
vt 0.085845 0.774733
vt 0.081717 0.777116
vt 0.082356 0.960762
vt 0.086483 0.958379
vt 0.086483 0.963145
vt 0.065077 0.772350
vt 0.065077 0.777116
vt 0.060949 0.774733
vt 0.765481 0.542775
vt 0.756998 0.545332
vt 0.949465 0.018036
vt 0.957948 0.020594
vt 0.975626 0.018036
vt 0.967143 0.020594
vt 0.745736 0.545332
vt 0.737253 0.542775
vt 0.938203 0.018036
vt 0.929720 0.020594
vt 0.986889 0.018036
vt 0.995372 0.020594
vt 0.440919 0.816382
vt 0.443083 0.824348
vt 0.438319 0.824216
vt 0.098950 0.805181
vt 0.101333 0.797278
vt 0.103716 0.805181
vt 0.101333 0.829725
vt 0.098950 0.821822
vt 0.103716 0.821822
vt 0.442623 0.840982
vt 0.440023 0.848817
vt 0.437859 0.840851
vt 0.065077 0.757091
vt 0.081717 0.757091
vt 0.532145 0.848222
vt 0.532277 0.843458
vt 0.553816 0.844053
vt 0.553685 0.848817
vt 0.101742 0.963145
vt 0.101742 0.983155
vt 0.096976 0.983155
vt 0.049818 0.826588
vt 0.045052 0.819848
vt 0.045052 0.777116
vt 0.049818 0.777116
vt 0.060311 0.772350
vt 0.065077 0.823218
vt 0.060311 0.823218
vt 0.060311 0.777116
vt 0.086483 0.983155
vt 0.081717 0.983155
vt 0.081717 0.963145
vt 0.086483 0.823218
vt 0.081717 0.823218
vt 0.086483 0.777116
vt 0.086483 0.772350
vt 0.435754 0.845560
vt 0.474255 0.841856
vt 0.474123 0.846620
vt 0.495829 0.842452
vt 0.495697 0.847216
vt 0.529499 0.821967
vt 0.536105 0.826917
vt 0.492920 0.825724
vt 0.499788 0.821146
vt 0.065077 0.940201
vt 0.060311 0.933461
vt 0.060311 0.903739
vt 0.065077 0.896999
vt 0.081717 0.958379
vt 0.081717 0.936831
vt 0.086483 0.936831
vt 0.081717 0.900369
vt 0.086483 0.900369
vt 0.081717 0.878787
vt 0.086483 0.878787
vt 0.471477 0.820364
vt 0.478083 0.825315
vt 0.436477 0.819398
vt 0.065077 0.882157
vt 0.060311 0.875417
vt 0.060311 0.843773
vt 0.065077 0.843773
vt 0.081717 0.843773
vt 0.086483 0.843773
vt 0.023645 0.777116
vt 0.028411 0.777116
vt 0.028411 0.819847
vt 0.023645 0.826588
vt 0.296771 0.885157
vt 0.103716 0.885157
vt 0.096976 0.880392
vt 0.303511 0.880391
vt 0.096976 0.840403
vt 0.303511 0.840403
vt 0.296771 0.845169
vt 0.103716 0.845169
vt 0.296771 0.821822
vt 0.303511 0.826588
vt 0.096976 0.826588
vt 0.096976 0.777116
vt 0.096976 0.936831
vt 0.554369 0.824050
vt 0.061707 0.958379
vt 0.096976 0.878787
vt 0.096976 0.900369
vt 0.500078 0.810657
vt 0.529789 0.811478
vt 0.049818 0.840403
vt 0.049818 0.875417
vt 0.296771 0.805181
vt 0.316388 0.757730
vt 0.318770 0.761857
vt 0.314005 0.761857
vt 0.303511 0.958379
vt 0.303511 0.963144
vt 0.299384 0.960762
vt 0.335411 0.761857
vt 0.337794 0.757730
vt 0.340177 0.761857
vt 0.318770 0.772350
vt 0.318770 0.777116
vt 0.314643 0.774733
vt 0.318132 0.960762
vt 0.314005 0.963144
vt 0.314005 0.958379
vt 0.335411 0.772350
vt 0.339539 0.774733
vt 0.335411 0.777116
vt 0.674507 0.020594
vt 0.666025 0.018036
vt 0.865651 0.545333
vt 0.874134 0.542775
vt 0.891812 0.545332
vt 0.883329 0.542775
vt 0.654762 0.018036
vt 0.646279 0.020594
vt 0.854388 0.545333
vt 0.845905 0.542775
vt 0.903075 0.545333
vt 0.911558 0.542775
vt 0.440919 0.881703
vt 0.438319 0.873868
vt 0.443083 0.873737
vt 0.301537 0.805181
vt 0.299154 0.797277
vt 0.299154 0.829725
vt 0.301537 0.821822
vt 0.442623 0.857102
vt 0.437859 0.857234
vt 0.440023 0.849267
vt 0.318770 0.757091
vt 0.335411 0.757091
vt 0.532145 0.849862
vt 0.553685 0.849268
vt 0.553816 0.854032
vt 0.532277 0.854626
vt 0.303511 0.983155
vt 0.298746 0.983155
vt 0.298746 0.963145
vt 0.350670 0.826587
vt 0.350670 0.777116
vt 0.355436 0.777116
vt 0.355436 0.819847
vt 0.340177 0.772350
vt 0.335411 0.823218
vt 0.340177 0.777116
vt 0.340177 0.823218
vt 0.314005 0.983155
vt 0.318771 0.963144
vt 0.318771 0.983155
vt 0.314005 0.823218
vt 0.314005 0.777116
vt 0.318771 0.823218
vt 0.314005 0.772350
vt 0.435754 0.852524
vt 0.474123 0.851465
vt 0.474255 0.856229
vt 0.495697 0.850869
vt 0.495829 0.855633
vt 0.529499 0.876118
vt 0.499788 0.876938
vt 0.492919 0.872360
vt 0.536105 0.871168
vt 0.335411 0.940201
vt 0.335411 0.896999
vt 0.340177 0.903739
vt 0.340177 0.933461
vt 0.314005 0.936831
vt 0.318771 0.936831
vt 0.318771 0.958379
vt 0.314005 0.900369
vt 0.318771 0.900369
vt 0.314005 0.878787
vt 0.318771 0.878787
vt 0.471477 0.877720
vt 0.436477 0.878687
vt 0.478083 0.872770
vt 0.335411 0.882157
vt 0.335411 0.843773
vt 0.340177 0.843773
vt 0.340177 0.875417
vt 0.314005 0.843773
vt 0.318771 0.843773
vt 0.376843 0.777116
vt 0.376843 0.826588
vt 0.372077 0.819847
vt 0.372077 0.777116
vt 0.303511 0.777116
vt 0.303511 0.936831
vt 0.554369 0.874035
vt 0.338781 0.958379
vt 0.303511 0.878787
vt 0.303511 0.900369
vt 0.529789 0.886607
vt 0.500078 0.887428
vt 0.350670 0.840403
vt 0.350670 0.875417
vt 0.640740 0.684321
vt 0.645795 0.684321
vt 0.643268 0.688700
vt 0.034496 0.688699
vt 0.031968 0.684321
vt 0.037024 0.684321
vt 0.640740 0.040776
vt 0.643268 0.036397
vt 0.645796 0.040776
vt 0.037024 0.040776
vt 0.031968 0.040776
vt 0.034496 0.036397
vt 0.353839 0.684321
vt 0.351311 0.688700
vt 0.348783 0.684321
vt 0.323924 0.684321
vt 0.328980 0.684321
vt 0.326452 0.688700
vt 0.353839 0.040776
vt 0.348783 0.040776
vt 0.351311 0.036397
vt 0.323925 0.040776
vt 0.326453 0.036397
vt 0.328980 0.040776
vt 0.012165 0.684321
vt 0.031968 0.689377
vt 0.012165 0.689377
vt 0.012165 0.040776
vt 0.012165 0.035720
vt 0.031968 0.035720
vt 0.353839 0.035720
vt 0.640740 0.035720
vt 0.037024 0.035720
vt 0.323925 0.035720
vt 0.328980 0.035720
vt 0.348783 0.035720
vt 0.348783 0.689377
vt 0.328980 0.689377
vt 0.640740 0.689377
vt 0.353839 0.689377
vt 0.323924 0.689377
vt 0.037024 0.689377
vt 0.323924 0.709179
vt 0.037023 0.709179
vt 0.037024 0.015917
vt 0.323925 0.015917
s 0
usemtl UV
f 1/1/1 2/2/2 3/3/3
f 4/4/4 5/5/5 6/6/6
f 7/7/7 8/8/8 9/9/9
f 12/10/10 13/11/11 14/12/12
f 15/13/13 16/14/14 17/15/15
f 18/16/16 19/17/17 20/18/18
f 29/19/19 30/20/20 31/21/21
f 32/22/22 33/23/23 34/24/24
f 35/25/25 36/26/26 37/27/20
f 38/28/27 39/29/28 40/30/29
f 41/31/30 42/32/31 43/33/32
f 44/34/33 45/35/28 46/36/34
f 53/37/35 54/38/36 55/39/37
f 56/40/38 57/41/39 58/42/40
f 67/43/41 68/44/42 69/45/43
f 70/46/44 71/47/45 72/48/46
f 7/7/7 2/2/2 1/49/1 8/50/47
f 28/51/48 4/52/4 6/53/49 27/54/50
f 5/5/51 10/55/52 11/56/53 6/57/6
f 58/58/54 9/59/55 8/60/56 56/61/57
f 18/16/58 7/7/59 9/9/60 19/62/17
f 62/63/61 20/18/62 19/64/63 61/65/64
f 12/10/10 18/16/16 20/18/62 13/11/11
f 22/66/65 16/14/66 15/67/13 21/68/67
f 66/69/68 14/70/69 13/11/11 65/71/70
f 2/2/71 12/10/72 14/72/73 3/3/74
f 16/14/14 5/5/75 4/4/76 17/15/15
f 72/73/77 23/74/78 24/75/79 70/46/80
f 23/74/78 25/76/81 26/77/82 24/75/79
f 25/76/48 28/51/48 27/54/83 26/77/82
f 31/78/84 32/79/85 34/80/86 29/81/87
f 40/82/88 42/83/89 41/84/90 38/85/91
f 17/15/15 47/86/92 48/87/93 15/88/13
f 47/86/92 49/89/92 50/90/94 48/87/93
f 49/89/92 51/91/95 52/92/96 50/90/97
f 37/27/98 45/35/28 44/34/99 35/25/100
f 32/22/85 41/31/101 43/33/102 33/23/23
f 30/20/98 39/29/28 38/28/91 31/21/103
f 177/93/104 178/94/105 34/95/106 33/23/23
f 186/96/107 187/97/108 43/33/32 42/98/109
f 39/99/28 183/100/110 184/101/111 40/102/88
f 154/103/112 10/104/112 22/105/113 166/106/113
f 180/107/114 181/108/115 37/27/20 36/109/116
f 21/110/67 165/111/67 166/106/65 22/105/65
f 45/112/28 189/113/110 190/114/117 46/115/118
f 173/116/119 174/117/115 30/20/20 29/118/120
f 35/119/121 53/120/122 55/39/123 36/121/116
f 46/122/124 59/123/125 60/124/126 44/125/99
f 59/123/125 62/63/61 61/65/127 60/124/126
f 51/91/95 63/126/128 64/127/129 52/92/96
f 63/126/130 66/69/131 65/71/94 64/127/129
f 3/128/3 67/129/132 69/130/133 1/131/134
f 68/44/135 57/41/136 56/40/57 69/45/137
f 70/46/138 55/39/123 54/38/139 71/47/140
f 129/132/141 130/133/142 58/134/143 57/135/136
f 125/136/144 53/137/35 58/134/143 130/133/142
f 71/138/140 143/139/145 144/140/146 72/141/147
f 67/142/148 139/143/149 140/144/150 68/44/151
f 1/131/1 69/130/137 56/61/152 8/60/8
f 7/7/7 18/16/16 12/10/10 2/2/2
f 14/70/153 66/69/68 67/142/148 3/145/3
f 47/86/154 17/15/15 4/4/4 28/146/155
f 27/54/156 6/53/6 11/147/53 29/81/87
f 22/66/113 10/55/112 5/5/5 16/14/66
f 9/59/157 58/58/143 61/65/127 19/64/63
f 173/116/158 29/118/159 11/148/53 155/149/53
f 180/107/114 36/109/116 34/95/106 178/94/105
f 20/18/62 62/63/160 65/71/161 13/11/11
f 40/82/88 21/150/67 15/88/13 48/87/162
f 186/96/107 42/98/109 46/115/118 190/114/117
f 70/46/80 24/75/163 36/121/116 55/39/123
f 63/126/130 51/91/95 23/151/78 72/141/147
f 24/75/163 26/77/164 34/80/165 36/121/116
f 51/91/95 49/89/154 25/152/155 23/151/78
f 26/77/164 27/54/156 29/81/159 34/80/165
f 49/89/154 47/86/154 28/146/155 25/152/155
f 32/79/22 31/78/166 38/153/27 41/154/167
f 226/155/65 82/156/65 83/157/67 227/158/67
f 165/111/67 21/110/67 40/102/88 184/101/168
f 183/159/110 39/29/28 30/20/20 174/117/115
f 53/160/35 35/161/100 44/125/33 60/124/126
f 177/93/104 33/23/23 43/33/32 187/97/108
f 42/83/109 40/82/88 48/87/162 50/90/161
f 189/162/110 45/35/28 37/27/20 181/108/115
f 46/122/118 42/83/109 50/90/161 52/92/96
f 59/123/125 46/122/34 52/92/96 64/127/129
f 58/58/143 53/160/35 60/124/126 61/65/127
f 269/163/169 197/164/170 198/165/140 270/166/145
f 139/143/149 67/142/148 72/141/147 144/140/171
f 143/139/145 71/138/140 54/167/172 126/168/173
f 62/63/160 59/123/125 64/127/129 65/71/161
f 66/69/68 63/126/130 72/141/147 67/142/148
f 129/169/141 57/41/136 68/44/151 140/144/150
f 73/170/174 75/171/12 74/172/10
f 76/173/15 78/174/13 77/175/14
f 79/176/16 81/177/63 80/178/175
f 84/179/2 86/180/3 85/181/176
f 87/182/6 89/183/4 88/184/5
f 90/185/7 92/186/177 91/187/9
f 101/188/29 103/189/27 102/190/28
f 104/191/30 106/192/31 105/193/32
f 107/194/33 109/195/28 108/196/178
f 110/197/21 112/198/19 111/199/20
f 113/200/22 115/201/23 114/202/24
f 116/203/25 118/204/179 117/205/20
f 125/206/144 127/207/180 126/208/181
f 128/209/182 130/210/183 129/169/184
f 139/211/185 141/212/186 140/144/187
f 142/213/188 144/214/171 143/215/189
f 79/176/16 80/216/175 73/217/190 74/172/10
f 100/218/92 99/219/93 78/220/13 76/221/15
f 77/175/66 78/222/13 83/223/191 82/224/65
f 130/225/192 128/226/193 80/227/194 81/228/63
f 90/185/59 91/229/60 81/177/17 79/176/58
f 134/230/195 133/231/196 91/232/55 92/186/177
f 84/179/2 85/181/197 92/186/177 90/185/7
f 94/233/198 93/234/53 87/235/6 88/184/51
f 138/236/199 137/237/82 85/181/197 86/238/3
f 74/172/72 75/171/73 86/239/74 84/179/71
f 88/184/75 89/183/76 76/173/15 77/175/14
f 144/240/200 142/213/201 96/241/202 95/242/95
f 95/242/203 96/241/202 98/243/97 97/244/92
f 97/244/92 98/243/94 99/219/93 100/218/92
f 103/245/91 101/246/88 106/247/89 104/248/90
f 112/249/87 110/250/84 113/251/85 114/252/86
f 89/183/4 87/253/49 120/254/83 119/255/48
f 119/255/48 120/254/83 122/256/82 121/257/48
f 121/257/48 122/256/82 124/258/204 123/259/78
f 109/195/28 107/194/99 116/203/100 117/205/98
f 104/191/101 105/193/102 115/201/23 113/200/85
f 102/190/28 103/189/91 110/197/103 111/199/98
f 249/260/108 105/193/32 106/261/109 250/262/107
f 258/263/105 114/264/106 115/201/23 259/265/104
f 112/266/19 256/267/158 255/268/115 111/269/20
f 226/155/113 238/270/112 94/271/112 82/156/113
f 252/272/205 108/273/206 109/195/28 253/274/110
f 94/271/198 238/270/198 237/275/53 93/276/53
f 118/277/207 262/278/208 261/279/115 117/280/20
f 245/281/209 101/282/210 102/190/28 246/283/110
f 107/284/99 108/285/178 127/207/211 125/286/212
f 118/287/207 116/288/121 132/289/213 131/290/214
f 131/290/215 132/289/213 133/231/196 134/230/216
f 123/259/78 124/258/204 136/291/217 135/292/218
f 135/292/218 136/291/217 137/237/82 138/236/199
f 75/293/69 73/294/219 141/295/220 139/296/221
f 140/144/150 141/212/220 128/209/222 129/169/223
f 142/213/201 143/215/224 126/208/173 127/207/225
f 73/294/174 80/227/175 128/226/222 141/295/226
f 79/176/16 74/172/10 84/179/2 90/185/7
f 86/238/3 75/297/153 139/143/149 138/236/199
f 119/255/155 100/298/154 76/173/15 89/183/4
f 99/219/162 101/246/88 83/299/67 78/220/13
f 94/233/112 88/184/5 77/175/66 82/224/113
f 81/228/63 91/232/157 133/231/196 130/225/142
f 245/281/168 227/158/67 83/157/67 101/282/88
f 252/272/205 250/262/107 106/261/109 108/273/206
f 92/186/177 85/181/197 137/237/164 134/230/227
f 112/249/87 120/254/156 87/253/6 93/300/53
f 258/263/105 262/278/208 118/277/207 114/264/106
f 142/213/201 127/207/211 108/285/206 96/241/228
f 135/292/218 144/140/171 95/301/95 123/259/78
f 96/241/228 108/285/206 106/247/109 98/243/161
f 123/259/78 95/301/95 97/302/154 121/257/155
f 98/243/161 106/247/109 101/246/88 99/219/162
f 121/257/155 97/302/154 100/298/154 119/255/155
f 104/248/167 113/303/22 110/304/166 103/245/27
f 125/136/144 126/168/173 54/167/172 53/137/35
f 237/275/53 256/267/158 112/266/159 93/276/53
f 255/305/115 246/283/110 102/190/28 111/199/20
f 125/306/144 132/289/213 116/288/100 107/307/33
f 249/260/108 259/265/104 115/201/23 105/193/32
f 114/252/165 122/256/164 120/254/156 112/249/159
f 261/308/115 253/274/110 109/195/28 117/205/20
f 118/287/207 124/258/204 122/256/164 114/252/165
f 131/290/214 136/291/217 124/258/204 118/287/207
f 130/225/142 133/231/196 132/289/213 125/306/144
f 134/230/227 137/237/164 136/291/217 131/290/214
f 138/236/199 139/143/149 144/140/171 135/292/218
f 145/309/8 147/310/9 146/311/7
f 148/312/229 150/313/230 149/314/231
f 151/315/2 153/316/3 152/317/1
f 156/318/16 158/319/63 157/320/18
f 159/321/232 161/322/233 160/323/234
f 162/324/10 164/325/11 163/326/12
f 173/327/235 175/328/236 174/117/115
f 176/329/237 178/330/238 177/93/104
f 179/331/239 181/108/115 180/332/240
f 182/333/241 184/334/111 183/159/110
f 185/335/242 187/97/108 186/336/243
f 188/337/244 190/338/245 189/162/110
f 197/339/170 199/340/44 198/341/45
f 200/342/43 202/343/41 201/344/42
f 211/345/40 213/346/38 212/347/39
f 214/348/37 216/349/246 215/350/36
f 151/315/2 152/351/1 145/352/47 146/311/7
f 172/353/247 171/354/248 150/355/230 148/356/229
f 149/314/249 150/357/230 155/358/250 154/359/198
f 202/360/132 200/361/133 152/362/134 153/363/3
f 162/324/72 163/364/73 153/316/74 151/315/71
f 206/365/70 205/366/68 163/367/69 164/325/11
f 156/318/16 157/320/62 164/325/11 162/324/10
f 166/368/65 165/369/67 159/370/232 160/323/251
f 210/371/127 209/372/61 157/320/62 158/373/63
f 146/311/59 147/310/60 158/374/17 156/318/58
f 160/323/252 161/322/253 148/312/229 149/314/231
f 216/375/254 214/348/123 168/376/255 167/377/256
f 167/377/257 168/376/255 170/378/258 169/379/247
f 169/379/247 170/378/216 171/354/248 172/353/247
f 175/380/259 173/381/158 178/382/260 176/383/261
f 184/384/262 182/385/263 185/386/264 186/387/265
f 161/322/233 159/388/266 192/389/267 191/390/268
f 191/390/268 192/389/267 194/391/61 193/392/268
f 193/392/268 194/391/61 196/393/269 195/394/270
f 181/108/115 179/331/271 188/337/272 189/162/273
f 176/329/274 177/93/275 187/97/108 185/335/264
f 174/117/115 175/328/259 182/333/276 183/159/273
f 179/395/271 180/396/240 199/340/80 197/397/277
f 190/398/117 188/399/278 204/400/279 203/401/129
f 203/401/280 204/400/279 205/366/68 206/365/94
f 195/394/270 196/393/269 208/402/125 207/403/281
f 207/403/281 208/402/125 209/372/61 210/371/127
f 147/404/55 145/405/56 213/406/57 211/407/54
f 212/347/136 213/346/57 200/342/137 201/344/135
f 214/348/123 215/350/139 198/341/140 199/340/138
f 273/408/150 201/409/151 202/410/148 274/411/149
f 269/163/169 274/411/149 202/410/148 197/164/170
f 216/412/282 288/413/283 287/414/173 215/415/172
f 212/347/136 284/416/141 283/417/142 211/418/143
f 145/405/8 152/362/1 200/361/137 213/406/152
f 151/315/2 146/311/7 156/318/16 162/324/10
f 158/373/63 147/419/157 211/418/143 210/371/127
f 191/390/284 172/420/285 148/312/229 161/322/233
f 171/354/286 173/381/158 155/421/53 150/355/230
f 166/368/113 160/323/234 149/314/249 154/359/112
f 153/363/3 163/367/153 205/366/68 202/360/148
f 164/325/11 157/320/62 209/372/160 206/365/161
f 184/384/262 192/389/287 159/388/232 165/422/67
f 214/348/123 199/340/80 180/396/114 168/376/288
f 207/403/281 216/412/246 167/423/256 195/394/270
f 168/376/288 180/396/114 178/382/105 170/378/227
f 195/394/270 167/423/256 169/424/285 193/392/284
f 170/378/227 178/382/105 173/381/158 171/354/286
f 193/392/284 169/424/285 172/420/285 191/390/284
f 176/383/289 185/425/242 182/426/290 175/380/236
f 197/427/170 204/400/279 188/399/272 179/428/239
f 186/387/291 194/391/160 192/389/287 184/384/168
f 190/398/117 196/393/269 194/391/160 186/387/291
f 203/401/129 208/402/125 196/393/269 190/398/117
f 202/360/148 205/366/68 204/400/279 197/427/170
f 283/417/142 288/413/283 216/412/246 211/418/143
f 287/414/173 270/166/145 198/165/140 215/415/172
f 206/365/161 209/372/160 208/402/125 203/401/129
f 210/371/127 211/418/143 216/412/246 207/403/281
f 273/429/150 284/416/141 212/347/136 201/344/151
f 217/430/175 218/431/16 219/432/63
f 220/433/233 221/434/234 222/435/232
f 223/436/10 224/437/174 225/438/12
f 228/439/7 229/440/177 230/441/9
f 231/442/230 232/443/231 233/444/229
f 234/445/2 235/446/74 236/447/176
f 245/448/111 246/283/110 247/449/241
f 248/450/242 249/260/108 250/451/243
f 251/452/244 252/453/292 253/274/110
f 254/454/236 255/305/115 256/455/235
f 257/456/237 258/457/238 259/265/104
f 260/458/239 261/308/115 262/459/293
f 269/460/169 270/461/189 271/462/188
f 272/463/186 273/429/187 274/464/185
f 283/465/183 284/416/184 285/466/182
f 286/467/180 287/468/181 288/469/294
f 223/436/10 218/431/16 217/470/175 224/471/190
f 244/472/268 220/473/233 222/474/266 243/475/295
f 221/434/251 226/476/296 227/477/67 222/478/232
f 274/479/221 225/480/69 224/481/219 272/482/220
f 234/445/71 223/436/72 225/438/73 235/483/74
f 278/484/82 236/447/197 235/485/3 277/486/297
f 228/439/7 234/445/2 236/447/197 229/440/177
f 238/487/198 232/443/249 231/488/230 237/489/53
f 282/490/196 230/491/55 229/440/177 281/492/195
f 218/431/58 228/439/59 230/493/60 219/432/17
f 232/443/231 221/434/252 220/433/253 233/444/229
f 288/494/298 239/495/270 240/496/299 286/467/211
f 239/495/270 241/497/300 242/498/61 240/496/299
f 241/497/268 244/472/268 243/475/267 242/498/61
f 247/499/263 248/500/264 250/501/265 245/502/262
f 256/503/158 258/504/260 257/505/261 254/506/259
f 233/444/229 263/507/247 264/508/248 231/509/230
f 263/507/247 265/510/247 266/511/216 264/508/248
f 265/510/247 267/512/256 268/513/301 266/511/258
f 253/274/273 261/308/115 260/458/271 251/452/272
f 248/450/264 257/456/274 259/265/275 249/260/108
f 246/283/273 255/305/115 254/454/259 247/449/276
f 251/514/278 269/515/302 271/462/201 252/516/205
f 262/517/303 275/518/217 276/519/304 260/520/271
f 275/518/217 278/484/82 277/486/199 276/519/304
f 267/512/256 279/521/305 280/522/214 268/513/301
f 279/521/306 282/490/307 281/492/216 280/522/214
f 219/523/63 283/524/192 285/525/193 217/526/194
f 284/416/223 273/429/150 272/463/220 285/466/222
f 286/467/225 271/462/201 270/461/224 287/468/173
f 217/526/175 285/525/222 272/482/226 224/481/174
f 223/436/10 234/445/2 228/439/7 218/431/16
f 230/491/157 282/490/196 283/417/142 219/527/63
f 263/507/285 233/444/229 220/433/233 244/528/284
f 243/475/287 222/474/232 227/529/67 245/502/262
f 238/487/112 226/476/113 221/434/234 232/443/249
f 225/480/153 274/479/149 277/486/199 235/485/3
f 236/447/197 278/484/164 281/492/227 229/440/177
f 256/503/158 237/530/53 231/509/230 264/508/286
f 286/467/211 240/496/308 252/516/205 271/462/201
f 279/521/306 267/512/256 239/531/270 288/413/283
f 240/496/308 242/498/160 250/501/291 252/516/205
f 267/512/256 265/510/285 241/532/284 239/531/270
f 242/498/160 243/475/287 245/502/168 250/501/291
f 265/510/285 263/507/285 244/528/284 241/532/284
f 248/500/242 247/499/290 254/533/236 257/534/289
f 269/535/169 251/536/272 260/520/239 276/519/304
f 258/504/105 256/503/158 264/508/286 266/511/227
f 262/517/208 258/504/105 266/511/227 268/513/301
f 275/518/217 262/517/293 268/513/301 280/522/214
f 274/479/149 269/535/169 276/519/304 277/486/199
f 278/484/164 275/518/217 280/522/214 281/492/227
f 282/490/196 279/521/306 288/413/283 283/417/142
f 154/103/198 155/149/53 11/148/53 10/104/198
f 289/537/309 290/538/310 291/539/311
f 292/540/312 293/541/313 294/542/314
f 295/543/315 296/544/316 297/545/317
f 298/546/318 299/547/319 300/548/320
f 301/549/321 302/550/322 303/551/323
f 304/552/324 305/553/325 306/554/326
f 307/555/327 308/556/328 309/557/329
f 310/558/330 311/559/331 312/560/332
f 297/545/333 290/538/334 289/537/335 295/543/336
f 290/561/337 293/541/338 292/562/312 291/563/311
f 293/541/338 299/547/339 298/546/340 294/542/341
f 299/547/342 297/564/333 296/565/316 300/566/320
f 309/567/343 296/568/344 295/543/345 307/555/346
f 300/569/347 311/570/348 310/558/349 298/546/350
f 311/571/331 309/572/329 308/556/351 312/560/352
f 303/551/353 308/556/354 307/555/355 301/549/356
f 312/560/352 305/553/357 304/552/358 310/558/359
f 305/553/360 303/551/353 302/573/322 306/574/326
f 291/575/361 302/576/362 301/549/363 289/537/364
f 306/577/365 292/578/366 294/542/367 304/552/368
f 295/543/345 289/537/364 301/549/363 307/555/346
f 290/561/337 297/564/333 299/547/342 293/541/338
f 302/579/362 291/580/361 292/578/366 306/577/365
f 310/558/349 304/552/368 294/542/367 298/546/350
f 296/581/344 309/582/343 311/570/348 300/569/347
f 308/556/351 303/551/353 305/553/360 312/560/352
