# Blender 5.0.1
# www.blender.org
mtllib zabradli.mtl
o zabradli
v 0.050302 0.373517 0.795623
v 0.036160 0.373517 0.801481
v 0.056160 0.373517 0.781481
v 0.050302 0.450451 0.795623
v 0.056160 0.450451 0.781481
v 0.036160 0.450451 0.801481
v 0.050302 0.580426 0.795623
v 0.056160 0.580426 0.781481
v 0.036160 0.580426 0.801481
v 0.050302 0.373517 0.739393
v 0.050302 0.379375 0.733535
v 0.047707 0.373517 0.733535
v 0.036160 0.367659 0.727678
v 0.056160 0.393517 0.753535
v 0.036160 0.373517 0.713535
v 0.036160 0.353517 0.733535
v 0.036160 0.456309 0.727678
v 0.050302 0.444593 0.733535
v 0.047707 0.450451 0.733535
v 0.050302 0.450451 0.739393
v 0.036160 0.450451 0.713535
v 0.056160 0.430451 0.753535
v 0.036160 0.470451 0.733535
v 0.050302 0.580426 0.739393
v 0.050302 0.586284 0.733535
v 0.047707 0.580426 0.733535
v 0.036160 0.574568 0.727678
v 0.056160 0.600426 0.753535
v 0.036160 0.580426 0.713535
v 0.036160 0.560426 0.733535
v -0.050303 0.373517 0.739393
v -0.036161 0.367659 0.727678
v -0.047708 0.373517 0.733535
v -0.050303 0.379375 0.733535
v -0.036161 0.353517 0.733535
v -0.036161 0.373517 0.713535
v -0.056161 0.393517 0.753535
v -0.050303 0.450451 0.739393
v -0.050303 0.444593 0.733535
v -0.047708 0.450451 0.733535
v -0.036161 0.456309 0.727678
v -0.056161 0.430451 0.753535
v -0.036161 0.450451 0.713535
v -0.036161 0.470451 0.733535
v -0.050303 0.580426 0.739393
v -0.036161 0.574568 0.727678
v -0.047708 0.580426 0.733535
v -0.050303 0.586284 0.733535
v -0.036161 0.560426 0.733535
v -0.036161 0.580426 0.713535
v -0.056161 0.600426 0.753535
v -0.050303 0.580426 0.795623
v -0.036161 0.580426 0.801481
v -0.056161 0.580426 0.781481
v -0.050303 0.450451 0.795623
v -0.056161 0.450451 0.781481
v -0.036161 0.450451 0.801481
v -0.050303 0.373517 0.795623
v -0.056161 0.373517 0.781481
v -0.036161 0.373517 0.801481
v 0.050302 0.663391 0.733535
v 0.036160 0.669249 0.733535
v 0.056160 0.649249 0.733535
v 0.050302 0.004939 0.753535
v 0.050302 0.019081 0.739393
v 0.047707 0.007534 0.741988
v 0.036160 0.004939 0.739393
v 0.056160 0.019081 0.753535
v 0.036160 0.019081 0.733535
v 0.036160 -0.000919 0.753535
v 0.050302 0.649249 0.795623
v 0.036160 0.663391 0.795623
v 0.047707 0.660796 0.793028
v 0.050302 0.663391 0.781481
v 0.036160 0.649249 0.801481
v 0.036160 0.669249 0.781481
v 0.056160 0.649249 0.781481
v 0.036160 0.004939 0.795623
v 0.050302 0.019081 0.795623
v 0.047707 0.007534 0.793028
v 0.050302 0.004939 0.781481
v 0.036160 0.019081 0.801481
v 0.056160 0.019081 0.781481
v 0.036160 -0.000919 0.781481
v -0.050303 0.663391 0.733535
v -0.056161 0.649249 0.733535
v -0.036161 0.669249 0.733535
v -0.036161 0.004939 0.739393
v -0.050303 0.019081 0.739393
v -0.047708 0.007534 0.741988
v -0.050303 0.004939 0.753535
v -0.036161 0.019081 0.733535
v -0.056161 0.019081 0.753535
v -0.036161 -0.000919 0.753535
v -0.050303 0.649249 0.795623
v -0.050303 0.663391 0.781481
v -0.047708 0.660796 0.793028
v -0.036161 0.663391 0.795623
v -0.056161 0.649249 0.781481
v -0.036161 0.669249 0.781481
v -0.036161 0.649249 0.801481
v -0.050303 0.019081 0.795623
v -0.036161 0.004939 0.795623
v -0.047708 0.007534 0.793028
v -0.050303 0.004939 0.781481
v -0.036161 0.019081 0.801481
v -0.036161 -0.000919 0.781481
v -0.056161 0.019081 0.781481
v 0.050302 0.373517 -0.795623
v 0.036160 0.373517 -0.801481
v 0.056160 0.373517 -0.781481
v 0.050302 0.450451 -0.795623
v 0.056160 0.450451 -0.781481
v 0.036160 0.450451 -0.801481
v 0.050302 0.580426 -0.795623
v 0.056160 0.580426 -0.781481
v 0.036160 0.580426 -0.801481
v 0.050302 0.373517 -0.739393
v 0.050302 0.379375 -0.733535
v 0.047707 0.373517 -0.733535
v 0.036160 0.367659 -0.727678
v 0.056160 0.393517 -0.753535
v 0.036160 0.373517 -0.713535
v 0.036160 0.353517 -0.733535
v 0.036160 0.456309 -0.727678
v 0.050302 0.444593 -0.733535
v 0.047707 0.450451 -0.733535
v 0.050302 0.450451 -0.739393
v 0.036160 0.450451 -0.713535
v 0.056160 0.430451 -0.753535
v 0.036160 0.470451 -0.733535
v 0.050302 0.580426 -0.739393
v 0.050302 0.586284 -0.733535
v 0.047707 0.580426 -0.733535
v 0.036160 0.574568 -0.727678
v 0.056160 0.600426 -0.753535
v 0.036160 0.580426 -0.713535
v 0.036160 0.560426 -0.733535
v -0.050303 0.373517 -0.739393
v -0.036161 0.367659 -0.727678
v -0.047708 0.373517 -0.733535
v -0.050303 0.379375 -0.733535
v -0.036161 0.353517 -0.733535
v -0.036161 0.373517 -0.713535
v -0.056161 0.393517 -0.753535
v -0.050303 0.450451 -0.739393
v -0.050303 0.444593 -0.733535
v -0.047708 0.450451 -0.733535
v -0.036161 0.456309 -0.727678
v -0.056161 0.430451 -0.753535
v -0.036161 0.450451 -0.713535
v -0.036161 0.470451 -0.733535
v -0.050303 0.580426 -0.739393
v -0.036161 0.574568 -0.727678
v -0.047708 0.580426 -0.733535
v -0.050303 0.586284 -0.733535
v -0.036161 0.560426 -0.733535
v -0.036161 0.580426 -0.713535
v -0.056161 0.600426 -0.753535
v -0.050303 0.580426 -0.795623
v -0.036161 0.580426 -0.801481
v -0.056161 0.580426 -0.781481
v -0.050303 0.450451 -0.795623
v -0.056161 0.450451 -0.781481
v -0.036161 0.450451 -0.801481
v -0.050303 0.373517 -0.795623
v -0.056161 0.373517 -0.781481
v -0.036161 0.373517 -0.801481
v 0.050302 0.663391 -0.733535
v 0.036160 0.669249 -0.733535
v 0.056160 0.649249 -0.733535
v 0.050302 0.004939 -0.753535
v 0.050302 0.019081 -0.739393
v 0.047707 0.007534 -0.741988
v 0.036160 0.004939 -0.739393
v 0.056160 0.019081 -0.753535
v 0.036160 0.019081 -0.733535
v 0.036160 -0.000919 -0.753535
v 0.050302 0.649249 -0.795623
v 0.036160 0.663391 -0.795623
v 0.047707 0.660796 -0.793028
v 0.050302 0.663391 -0.781481
v 0.036160 0.649249 -0.801481
v 0.036160 0.669249 -0.781481
v 0.056160 0.649249 -0.781481
v 0.036160 0.004939 -0.795623
v 0.050302 0.019081 -0.795623
v 0.047707 0.007534 -0.793028
v 0.050302 0.004939 -0.781481
v 0.036160 0.019081 -0.801481
v 0.056160 0.019081 -0.781481
v 0.036160 -0.000919 -0.781481
v -0.050303 0.663391 -0.733535
v -0.056161 0.649249 -0.733535
v -0.036161 0.669249 -0.733535
v -0.036161 0.004939 -0.739393
v -0.050303 0.019081 -0.739393
v -0.047708 0.007534 -0.741988
v -0.050303 0.004939 -0.753535
v -0.036161 0.019081 -0.733535
v -0.056161 0.019081 -0.753535
v -0.036161 -0.000919 -0.753535
v -0.050303 0.649249 -0.795623
v -0.050303 0.663391 -0.781481
v -0.047708 0.660796 -0.793028
v -0.036161 0.663391 -0.795623
v -0.056161 0.649249 -0.781481
v -0.036161 0.669249 -0.781481
v -0.036161 0.649249 -0.801481
v -0.050303 0.019081 -0.795623
v -0.036161 0.004939 -0.795623
v -0.047708 0.007534 -0.793028
v -0.050303 0.004939 -0.781481
v -0.036161 0.019081 -0.801481
v -0.036161 -0.000919 -0.781481
v -0.056161 0.019081 -0.781481
vn 0.9954 -0.0927 -0.0229
vn 0.9947 0.1025 -0.0106
vn 0.9905 -0.0000 0.1378
vn 0.9902 -0.0000 0.1400
vn 0.9958 0.0919 -0.0000
vn 0.9963 -0.0852 -0.0088
vn 0.9963 -0.0852 0.0088
vn 0.9920 -0.0000 0.1264
vn 0.9947 0.1025 0.0106
vn 0.9954 -0.0927 0.0229
vn 0.0687 -0.9976 0.0039
vn 0.0687 -0.9976 -0.0039
vn -0.0687 -0.9976 -0.0039
vn -0.0687 -0.9976 0.0039
vn -0.9963 -0.0852 0.0088
vn -0.9963 -0.0852 -0.0088
vn -0.9958 0.0919 -0.0000
vn -0.0687 0.9976 0.0039
vn -0.0687 0.9976 -0.0039
vn 0.0687 0.9976 -0.0039
vn 0.0687 0.9976 0.0039
vn -0.0824 0.0532 -0.9952
vn -0.0824 -0.0532 -0.9952
vn 0.0824 -0.0532 -0.9952
vn 0.0824 0.0532 -0.9952
vn 0.0676 -0.0000 0.9977
vn -0.0676 -0.0000 0.9977
vn -0.9905 -0.0000 0.1378
vn -0.9920 -0.0000 0.1264
vn -0.9947 0.1025 -0.0106
vn -0.9902 -0.0000 0.1400
vn -0.9954 -0.0927 -0.0229
vn -0.9954 -0.0927 0.0229
vn -0.9947 0.1025 0.0106
vn 0.9896 0.0854 0.1161
vn 0.9905 -0.0139 -0.1367
vn 0.9908 -0.0140 0.1343
vn -0.0676 0.9977 -0.0000
vn 0.0676 0.9977 -0.0000
vn 0.7122 -0.7019 0.0022
vn 0.7122 -0.7019 -0.0022
vn -0.0685 -0.0159 -0.9975
vn -0.0705 -0.0162 -0.9974
vn 0.0705 -0.0162 -0.9974
vn 0.0685 -0.0159 -0.9975
vn -0.0635 0.9939 0.0901
vn 0.0635 0.9939 0.0901
vn -0.9896 0.0854 0.1161
vn 0.0646 0.0674 0.9956
vn -0.0646 0.0674 0.9956
vn 0.0669 -0.0152 0.9976
vn -0.0669 -0.0152 0.9976
vn -0.0614 -0.9893 -0.1327
vn 0.0613 -0.9893 -0.1327
vn 0.0614 -0.9893 0.1327
vn -0.0613 -0.9893 0.1327
vn -0.9908 -0.0140 0.1343
vn -0.9905 -0.0139 -0.1367
vn 0.7071 0.7071 -0.0000
vn -0.7071 0.7071 -0.0000
vn 0.9947 0.1026 0.0106
vn 0.7123 0.7019 0.0022
vn 0.7123 0.7019 -0.0022
vn 0.9947 0.1026 -0.0106
vn -0.7122 -0.7019 0.0022
vn -0.7122 -0.7019 -0.0022
vn -0.7123 0.7019 0.0022
vn -0.9947 0.1026 0.0106
vn -0.9947 0.1026 -0.0106
vn -0.7123 0.7019 -0.0022
vn 0.7123 -0.7019 -0.0022
vn 0.7123 -0.7019 0.0022
vn 0.9954 -0.0928 0.0229
vn 0.9954 -0.0928 -0.0229
vn 0.7122 0.7019 0.0022
vn 0.7122 0.7019 -0.0022
vn -0.9954 -0.0928 0.0229
vn -0.7123 -0.7019 0.0022
vn -0.7123 -0.7019 -0.0022
vn -0.9954 -0.0928 -0.0229
vn -0.7122 0.7019 0.0022
vn -0.7122 0.7019 -0.0022
vn -0.1016 -0.7034 -0.7035
vn 0.1016 -0.7034 -0.7035
vn 0.1016 -0.7035 -0.7034
vn -0.1016 -0.7035 -0.7034
vn -0.1016 0.7035 -0.7034
vn 0.1016 0.7035 -0.7034
vn 0.1016 0.7034 -0.7035
vn -0.1016 0.7034 -0.7035
vn 0.0705 -0.0163 -0.9974
vn -0.0705 -0.0163 -0.9974
vn 0.7071 -0.0000 0.7071
vn 0.9901 -0.0000 0.1400
vn 0.9904 -0.0000 0.1379
vn 0.9920 -0.0001 0.1265
vn 0.7061 0.0527 0.7061
vn 0.9920 -0.0000 0.1265
vn 0.7596 -0.0234 -0.6499
vn 0.7596 0.0234 -0.6499
vn 0.9963 -0.0852 -0.0089
vn 0.7597 0.0234 -0.6499
vn 0.7597 -0.0234 -0.6499
vn -0.7597 -0.0234 -0.6499
vn -0.7597 0.0234 -0.6499
vn -0.9963 -0.0852 -0.0089
vn -0.7071 -0.0000 0.7071
vn -0.9920 -0.0000 0.1265
vn -0.9904 -0.0000 0.1379
vn -0.9901 -0.0000 0.1400
vn -0.7071 -0.0115 0.7070
vn -0.9908 -0.0141 0.1344
vn -0.0670 -0.0151 0.9976
vn -0.7070 -0.0115 0.7071
vn 0.0506 0.7062 0.7062
vn -0.0506 0.7062 0.7062
vn -0.0645 0.0675 0.9956
vn 0.0645 0.0675 0.9956
vn 0.0635 0.9939 0.0902
vn -0.0635 0.9939 0.0902
vn -0.0506 -0.7062 0.7062
vn 0.0506 -0.7062 0.7062
vn -0.0614 -0.9892 0.1328
vn 0.0614 -0.9892 0.1328
vn 0.7071 -0.0115 0.7070
vn 0.9908 -0.0141 0.1344
vn 0.0670 -0.0151 0.9976
vn 0.7070 -0.0115 0.7071
vn 0.7053 0.7053 0.0713
vn 0.9896 0.0855 0.1161
vn 0.0636 0.9939 0.0901
vn 0.7030 -0.7030 0.1075
vn 0.7030 -0.7030 -0.1074
vn 0.9905 -0.0139 -0.1368
vn 0.9908 -0.0141 0.1343
vn 0.0614 -0.9893 -0.1327
vn 0.7030 -0.7030 -0.1075
vn 0.7030 -0.7030 0.1074
vn 0.7200 -0.0089 -0.6940
vn 0.7150 -0.0116 -0.6990
vn 0.0686 -0.0159 -0.9975
vn 0.0706 -0.0162 -0.9974
vn 0.9954 -0.0928 -0.0230
vn 0.7151 -0.0115 -0.6990
vn 0.7200 -0.0090 -0.6939
vn 0.0506 -0.7062 -0.7062
vn -0.0506 -0.7062 -0.7062
vn -0.0685 -0.0160 -0.9975
vn 0.0685 -0.0160 -0.9975
vn 0.0614 -0.9892 -0.1328
vn -0.0614 -0.9892 -0.1328
vn -0.7200 -0.0090 -0.6939
vn -0.7151 -0.0115 -0.6990
vn -0.9905 -0.0139 -0.1368
vn -0.9954 -0.0927 -0.0230
vn -0.0706 -0.0162 -0.9974
vn -0.0686 -0.0159 -0.9975
vn -0.7150 -0.0116 -0.6990
vn -0.7200 -0.0090 -0.6940
vn -0.7053 0.7053 0.0713
vn -0.9896 0.0855 0.1161
vn -0.0636 0.9939 0.0901
vn -0.7061 0.0527 0.7061
vn -0.7030 -0.7030 -0.1075
vn -0.7030 -0.7030 0.1074
vn -0.9908 -0.0141 0.1343
vn -0.0614 -0.9892 0.1327
vn -0.7030 -0.7030 0.1075
vn -0.7030 -0.7030 -0.1074
vn 0.7199 -0.0090 -0.6940
vn 0.7791 -0.4433 -0.4433
vn 0.7123 -0.7019 -0.0023
vn 0.7790 -0.4434 -0.4433
vn 0.7790 -0.4433 -0.4434
vn 0.7200 -0.0090 -0.6940
vn 0.7790 0.4434 -0.4433
vn 0.7123 0.7019 -0.0023
vn 0.9947 0.1026 -0.0107
vn 0.7791 0.4433 -0.4433
vn 0.7790 0.4433 -0.4434
vn 0.0824 -0.0531 -0.9952
vn -0.7790 -0.4433 -0.4434
vn -0.7790 -0.4434 -0.4433
vn -0.7123 -0.7019 -0.0023
vn -0.9954 -0.0928 -0.0230
vn -0.7791 -0.4433 -0.4433
vn -0.7199 -0.0090 -0.6940
vn -0.9947 0.1026 -0.0107
vn -0.7596 0.0234 -0.6499
vn -0.7791 0.4433 -0.4433
vn -0.7123 0.7019 -0.0023
vn -0.7790 0.4434 -0.4433
vn -0.0824 0.0531 -0.9952
vn -0.7790 0.4433 -0.4434
vn -0.7597 0.0235 -0.6499
vn -0.7597 -0.0235 -0.6499
vn -0.7596 -0.0234 -0.6499
vn 0.9905 -0.0140 -0.1368
vn 0.5774 -0.5774 -0.5773
vn 0.7150 -0.0115 -0.6990
vn 0.5774 -0.5773 -0.5773
vn 0.5773 -0.5773 -0.5774
vn 0.0646 0.0675 0.9956
vn 0.7061 0.0528 0.7061
vn 0.5774 0.5773 0.5773
vn 0.5773 0.5773 0.5774
vn 0.7053 0.7053 0.0714
vn 0.5774 0.5774 0.5773
vn 0.0670 -0.0152 0.9976
vn 0.5773 -0.5774 0.5773
vn 0.7071 -0.0115 0.7071
vn 0.7070 -0.0116 0.7071
vn 0.5774 -0.5773 0.5774
vn 0.5774 -0.5773 0.5773
vn -0.5773 -0.5774 -0.5773
vn -0.9905 -0.0140 -0.1368
vn -0.5774 -0.5773 -0.5774
vn -0.5774 -0.5773 -0.5773
vn -0.7061 0.0528 0.7061
vn -0.5774 0.5773 0.5774
vn -0.7053 0.7053 0.0714
vn -0.5774 0.5773 0.5773
vn -0.0646 0.0675 0.9956
vn -0.5773 0.5774 0.5773
vn -0.0670 -0.0152 0.9976
vn -0.7071 -0.0116 0.7070
vn -0.5774 -0.5773 0.5773
vn -0.5773 -0.5773 0.5774
vn -0.5774 -0.5774 0.5773
vn 0.9902 -0.0000 -0.1400
vn 0.9905 -0.0000 -0.1378
vn 0.9920 -0.0000 -0.1264
vn -0.0824 0.0532 0.9952
vn 0.0824 0.0532 0.9952
vn 0.0824 -0.0532 0.9952
vn -0.0824 -0.0532 0.9952
vn 0.0676 -0.0000 -0.9977
vn -0.0676 -0.0000 -0.9977
vn -0.9905 -0.0000 -0.1378
vn -0.9920 -0.0000 -0.1264
vn -0.9902 -0.0000 -0.1400
vn 0.9896 0.0854 -0.1161
vn 0.9905 -0.0139 0.1367
vn 0.9908 -0.0140 -0.1343
vn -0.0685 -0.0159 0.9975
vn 0.0685 -0.0159 0.9975
vn 0.0705 -0.0162 0.9974
vn -0.0705 -0.0162 0.9974
vn 0.0635 0.9939 -0.0901
vn -0.0635 0.9939 -0.0901
vn -0.9896 0.0854 -0.1161
vn -0.0646 0.0674 -0.9956
vn 0.0646 0.0674 -0.9956
vn 0.0669 -0.0152 -0.9976
vn -0.0669 -0.0152 -0.9976
vn -0.9908 -0.0140 -0.1343
vn -0.9905 -0.0139 0.1367
vn -0.1016 -0.7034 0.7035
vn 0.1016 -0.7034 0.7035
vn -0.1016 -0.7035 0.7034
vn 0.1016 -0.7035 0.7034
vn -0.1016 0.7035 0.7034
vn 0.1016 0.7035 0.7034
vn -0.1016 0.7034 0.7035
vn 0.1016 0.7034 0.7035
vn -0.0705 -0.0163 0.9974
vn 0.0705 -0.0163 0.9974
vn 0.7071 -0.0000 -0.7071
vn 0.9904 -0.0000 -0.1379
vn 0.9901 -0.0000 -0.1400
vn 0.9920 -0.0000 -0.1265
vn 0.7061 0.0527 -0.7061
vn 0.7596 -0.0234 0.6499
vn 0.7597 0.0234 0.6499
vn 0.9963 -0.0852 0.0089
vn 0.7597 -0.0234 0.6499
vn -0.7597 -0.0234 0.6499
vn -0.9963 -0.0852 0.0089
vn -0.7597 0.0234 0.6499
vn -0.7596 -0.0234 0.6499
vn -0.7071 -0.0000 -0.7071
vn -0.9904 -0.0000 -0.1379
vn -0.9920 -0.0000 -0.1265
vn -0.9901 -0.0000 -0.1400
vn -0.7071 -0.0115 -0.7070
vn -0.9908 -0.0141 -0.1344
vn -0.0670 -0.0151 -0.9976
vn -0.7070 -0.0115 -0.7071
vn 0.0506 0.7062 -0.7062
vn 0.0645 0.0675 -0.9956
vn -0.0645 0.0675 -0.9956
vn -0.0506 0.7062 -0.7062
vn 0.0635 0.9939 -0.0902
vn -0.0635 0.9939 -0.0902
vn 0.9908 -0.0141 -0.1344
vn 0.7071 -0.0115 -0.7070
vn 0.7070 -0.0115 -0.7071
vn 0.0670 -0.0151 -0.9976
vn 0.9896 0.0855 -0.1161
vn 0.7053 0.7053 -0.0713
vn 0.9908 -0.0141 -0.1343
vn 0.7200 -0.0090 0.6940
vn 0.0706 -0.0162 0.9974
vn 0.0686 -0.0159 0.9975
vn 0.7150 -0.0116 0.6990
vn 0.9954 -0.0927 0.0230
vn 0.7200 -0.0090 0.6939
vn 0.7151 -0.0115 0.6990
vn 0.9905 -0.0139 0.1368
vn 0.0685 -0.0160 0.9975
vn -0.0685 -0.0160 0.9975
vn -0.7200 -0.0090 0.6939
vn -0.9954 -0.0928 0.0230
vn -0.9905 -0.0139 0.1368
vn -0.7151 -0.0115 0.6990
vn -0.0706 -0.0162 0.9974
vn -0.7200 -0.0089 0.6940
vn -0.7150 -0.0116 0.6990
vn -0.0686 -0.0159 0.9975
vn -0.7053 0.7053 -0.0713
vn -0.9896 0.0855 -0.1161
vn -0.0636 0.9939 -0.0901
vn -0.7061 0.0527 -0.7061
vn -0.9908 -0.0141 -0.1343
vn -0.0614 -0.9893 0.1327
vn 0.9954 -0.0928 0.0230
vn 0.7791 -0.4433 0.4433
vn 0.7199 -0.0090 0.6940
vn 0.7790 -0.4434 0.4433
vn 0.7123 -0.7019 0.0023
vn 0.7790 -0.4433 0.4434
vn 0.7123 0.7019 0.0023
vn 0.7790 0.4434 0.4433
vn 0.9947 0.1026 0.0107
vn 0.7596 0.0234 0.6499
vn 0.7791 0.4433 0.4433
vn 0.0824 0.0531 0.9952
vn 0.7790 0.4433 0.4434
vn 0.7597 0.0235 0.6499
vn 0.7597 -0.0235 0.6499
vn -0.7790 -0.4433 0.4434
vn -0.7123 -0.7019 0.0023
vn -0.7790 -0.4434 0.4433
vn -0.7199 -0.0090 0.6940
vn -0.7791 -0.4433 0.4433
vn -0.9947 0.1026 0.0107
vn -0.7791 0.4433 0.4433
vn -0.7596 0.0234 0.6499
vn -0.7790 0.4434 0.4433
vn -0.7123 0.7019 0.0023
vn -0.7790 0.4433 0.4434
vn -0.0824 -0.0531 0.9952
vn -0.7597 -0.0235 0.6499
vn 0.9905 -0.0140 0.1368
vn 0.0646 0.0675 -0.9956
vn 0.5773 0.5774 -0.5773
vn 0.7061 0.0528 -0.7061
vn 0.0636 0.9939 -0.0901
vn 0.5774 0.5773 -0.5773
vn 0.5774 0.5773 -0.5774
vn 0.7053 0.7053 -0.0714
vn 0.0670 -0.0152 -0.9976
vn 0.7071 -0.0115 -0.7071
vn -0.9905 -0.0140 0.1368
vn -0.7150 -0.0115 0.6990
vn -0.7053 0.7053 -0.0714
vn -0.5774 0.5774 -0.5773
vn -0.7061 0.0528 -0.7061
vn -0.5773 0.5773 -0.5774
vn -0.0646 0.0675 -0.9956
vn -0.5774 0.5773 -0.5773
vn -0.0670 -0.0152 -0.9976
vn -0.7071 -0.0115 -0.7071
vn -0.7070 -0.0116 -0.7071
vt 0.677001 0.306421
vt 0.676883 0.330803
vt 0.658375 0.343890
vt 0.658615 0.293133
vt 0.416768 0.982736
vt 0.416769 0.013380
vt 0.449028 0.000165
vt 0.449028 0.995951
vt 0.676128 0.442841
vt 0.657783 0.429349
vt 0.180693 0.999574
vt 0.180686 0.000593
vt 0.205168 0.000593
vt 0.205175 0.999573
vt 0.001063 0.969636
vt 0.003283 0.029602
vt 0.049241 0.025628
vt 0.048858 0.973889
vt 0.296267 0.995951
vt 0.296267 0.000165
vt 0.328526 0.013380
vt 0.328526 0.982736
vt 0.113759 0.974584
vt 0.114008 0.025571
vt 0.160819 0.025408
vt 0.160570 0.974602
vt 0.531668 0.355457
vt 0.531800 0.417011
vt 0.482544 0.416574
vt 0.482451 0.355640
vt 0.638208 0.343788
vt 0.637783 0.429137
vt 0.590387 0.429057
vt 0.590461 0.343592
vt 0.570277 0.343552
vt 0.570287 0.429182
vt 0.551745 0.442642
vt 0.551849 0.330303
vt 0.638411 0.293045
vt 0.590637 0.292839
vt 0.570425 0.292763
vt 0.551917 0.305906
vt 0.069205 0.999835
vt 0.069205 0.000165
vt 0.093704 0.000165
vt 0.093704 0.999835
vt 0.688108 0.475753
vt 0.657051 0.473976
vt 0.678046 0.059208
vt 0.659595 0.059130
vt 0.348755 0.982736
vt 0.348755 0.013380
vt 0.396540 0.013380
vt 0.396540 0.982736
vt 0.225462 0.027107
vt 0.225468 0.973059
vt 0.215321 0.986316
vt 0.215315 0.013850
vt 0.533513 0.058556
vt 0.531687 0.279973
vt 0.482469 0.278466
vt 0.488418 0.057865
vt 0.638618 0.524753
vt 0.590594 0.525389
vt 0.590996 0.493875
vt 0.637348 0.493601
vt 0.570752 0.474175
vt 0.539426 0.475742
vt 0.637145 0.473624
vt 0.590879 0.473852
vt 0.639382 0.059045
vt 0.591621 0.058838
vt 0.592241 0.020363
vt 0.638973 0.020666
vt 0.638916 0.038847
vt 0.592185 0.038544
vt 0.571408 0.058753
vt 0.552957 0.058675
vt 0.406654 0.013380
vt 0.406654 0.982736
vt 0.338640 0.982736
vt 0.338641 0.013380
vt 0.170546 0.986316
vt 0.170539 0.013850
vt 0.469256 0.026594
vt 0.469256 0.969521
vt 0.459142 0.982736
vt 0.459142 0.013380
vt 0.286153 0.982736
vt 0.276281 0.970344
vt 0.276096 0.025767
vt 0.286153 0.013380
vt 0.103857 0.986569
vt 0.103857 0.013431
vt 0.059051 0.986569
vt 0.059051 0.013431
vt 0.530098 0.427136
vt 0.483855 0.426263
vt 0.229877 0.029751
vt 0.229016 0.020123
vt 0.274501 0.016056
vt 0.115278 0.015804
vt 0.159652 0.016089
vt 0.483719 0.345531
vt 0.530151 0.345644
vt 0.529889 0.290129
vt 0.483385 0.288233
vt 0.002442 0.020034
vt 0.047647 0.016061
vt 0.648291 0.343836
vt 0.648513 0.293088
vt 0.647773 0.429238
vt 0.647071 0.474130
vt 0.472735 0.428692
vt 0.472008 0.343282
vt 0.686884 0.344054
vt 0.686306 0.429727
vt 0.541884 0.430287
vt 0.541697 0.342656
vt 0.580371 0.343570
vt 0.580347 0.429120
vt 0.580531 0.292801
vt 0.581514 0.058795
vt 0.637616 0.483520
vt 0.590503 0.483944
vt 0.591665 0.048729
vt 0.639426 0.048936
vt 0.649489 0.059088
vt 0.687520 0.485758
vt 0.656185 0.483916
vt 0.647368 0.492863
vt 0.648667 0.524338
vt 0.649136 0.039207
vt 0.649109 0.020263
vt 0.659485 0.020248
vt 0.659513 0.039192
vt 0.472008 0.290174
vt 0.478741 0.057595
vt 0.688153 0.059251
vt 0.687163 0.293260
vt 0.639492 0.010482
vt 0.591731 0.010274
vt 0.591775 0.000165
vt 0.639536 0.000372
vt 0.541824 0.293380
vt 0.543225 0.058625
vt 0.571555 0.484203
vt 0.539946 0.485834
vt 0.580437 0.525213
vt 0.580990 0.493400
vt 0.580814 0.474399
vt 0.582021 0.020003
vt 0.582048 0.038947
vt 0.571672 0.038962
vt 0.571644 0.020018
vt 0.691389 0.293069
vt 0.690884 0.297269
vt 0.219479 0.013016
vt 0.227891 0.017256
vt 0.475626 0.291217
vt 0.167023 0.012966
vt 0.690642 0.340093
vt 0.691100 0.344291
vt 0.475756 0.342275
vt 0.690525 0.429547
vt 0.690011 0.433739
vt 0.463293 0.012549
vt 0.471678 0.016774
vt 0.476356 0.429550
vt 0.537722 0.293876
vt 0.055350 0.012582
vt 0.538646 0.297621
vt 0.537704 0.342132
vt 0.538618 0.338458
vt 0.107547 0.012511
vt 0.537837 0.430782
vt 0.282377 0.012504
vt 0.538748 0.434464
vt 0.650049 0.012104
vt 0.657983 0.009981
vt 0.649535 0.001865
vt 0.647444 0.009589
vt 0.647687 0.012044
vt 0.645586 0.482089
vt 0.645716 0.484826
vt 0.648253 0.482166
vt 0.647370 0.049898
vt 0.649393 0.057640
vt 0.658041 0.049463
vt 0.650100 0.047363
vt 0.647655 0.047439
vt 0.583787 0.009312
vt 0.581764 0.001570
vt 0.573116 0.009747
vt 0.581057 0.011847
vt 0.583502 0.011771
vt 0.579565 0.482494
vt 0.582480 0.485386
vt 0.582356 0.482524
vt 0.581623 0.057346
vt 0.583713 0.049622
vt 0.583471 0.047167
vt 0.581108 0.047106
vt 0.573174 0.049229
vt 0.706108 0.306433
vt 0.724495 0.293144
vt 0.724744 0.343900
vt 0.706239 0.330813
vt 0.725338 0.429353
vt 0.706995 0.442845
vt 0.851446 0.355458
vt 0.900662 0.355638
vt 0.900572 0.416572
vt 0.851317 0.417011
vt 0.744909 0.343796
vt 0.792654 0.343597
vt 0.792732 0.429058
vt 0.745337 0.429140
vt 0.812838 0.343555
vt 0.831265 0.330306
vt 0.831373 0.442642
vt 0.812831 0.429182
vt 0.744700 0.293053
vt 0.792475 0.292843
vt 0.812687 0.292766
vt 0.831195 0.305908
vt 0.726072 0.473979
vt 0.695015 0.475756
vt 0.705049 0.059214
vt 0.723501 0.059135
vt 0.849585 0.058553
vt 0.894680 0.057859
vt 0.900643 0.278463
vt 0.851424 0.279974
vt 0.744506 0.524753
vt 0.745774 0.493603
vt 0.792125 0.493875
vt 0.792529 0.525388
vt 0.843694 0.475741
vt 0.812368 0.474174
vt 0.792242 0.473852
vt 0.745977 0.473626
vt 0.743714 0.059048
vt 0.791476 0.058839
vt 0.790854 0.020363
vt 0.790911 0.038545
vt 0.744180 0.038850
vt 0.744122 0.020668
vt 0.811690 0.058752
vt 0.830141 0.058674
vt 0.853019 0.427135
vt 0.899262 0.426260
vt 0.274631 0.980067
vt 0.228227 0.975966
vt 0.229096 0.966144
vt 0.115035 0.984239
vt 0.159415 0.984039
vt 0.852963 0.345645
vt 0.899395 0.345530
vt 0.853223 0.290129
vt 0.899728 0.288231
vt 0.047193 0.983832
vt 0.000165 0.979590
vt 0.734828 0.343845
vt 0.734597 0.293098
vt 0.735348 0.429242
vt 0.736051 0.474132
vt 0.910381 0.428688
vt 0.911105 0.343281
vt 0.696817 0.429731
vt 0.696238 0.344063
vt 0.841233 0.430286
vt 0.841417 0.342658
vt 0.802744 0.343574
vt 0.802772 0.429121
vt 0.802580 0.292804
vt 0.801583 0.058795
vt 0.745507 0.483521
vt 0.792618 0.483944
vt 0.791432 0.048729
vt 0.743669 0.048939
vt 0.733607 0.059091
vt 0.695604 0.485760
vt 0.726938 0.483918
vt 0.734457 0.524339
vt 0.735755 0.492865
vt 0.733959 0.039210
vt 0.723582 0.039195
vt 0.723609 0.020251
vt 0.733985 0.020266
vt 0.911105 0.290171
vt 0.904358 0.057589
vt 0.695945 0.293271
vt 0.694943 0.059257
vt 0.743602 0.010484
vt 0.743558 0.000374
vt 0.791320 0.000165
vt 0.791364 0.010274
vt 0.841289 0.293381
vt 0.839872 0.058623
vt 0.811565 0.484203
vt 0.843173 0.485832
vt 0.802130 0.493400
vt 0.802685 0.525211
vt 0.802306 0.474399
vt 0.801075 0.020003
vt 0.811451 0.020018
vt 0.811425 0.038962
vt 0.801048 0.038947
vt 0.692224 0.297281
vt 0.691719 0.293081
vt 0.227898 0.982910
vt 0.219485 0.987150
vt 0.907487 0.291214
vt 0.166958 0.987230
vt 0.692022 0.344300
vt 0.692480 0.340102
vt 0.907357 0.342274
vt 0.693112 0.433743
vt 0.692598 0.429552
vt 0.471678 0.979341
vt 0.463293 0.983567
vt 0.906761 0.429547
vt 0.845390 0.293877
vt 0.055203 0.987452
vt 0.844467 0.297622
vt 0.844496 0.338459
vt 0.845410 0.342133
vt 0.107476 0.987460
vt 0.845281 0.430781
vt 0.282409 0.983586
vt 0.844370 0.434464
vt 0.725110 0.009984
vt 0.733045 0.012107
vt 0.735650 0.009591
vt 0.733559 0.001867
vt 0.735407 0.012046
vt 0.737537 0.482091
vt 0.737407 0.484828
vt 0.734869 0.482167
vt 0.733702 0.057643
vt 0.735726 0.049901
vt 0.732995 0.047367
vt 0.725055 0.049467
vt 0.735440 0.047442
vt 0.801331 0.001570
vt 0.799308 0.009312
vt 0.802038 0.011847
vt 0.809979 0.009746
vt 0.799593 0.011771
vt 0.803555 0.482494
vt 0.800641 0.485386
vt 0.800765 0.482524
vt 0.799384 0.049622
vt 0.801475 0.057346
vt 0.799626 0.047167
vt 0.809923 0.049229
vt 0.801989 0.047106
s 0
usemtl UV
f 14/1/1 22/2/2 5/3/3 3/4/4
f 171/5/5 63/6/5 28/7/6 136/8/7
f 22/2/2 28/9/6 8/10/8 5/3/3
f 130/11/9 22/12/2 14/13/1 122/14/10
f 123/15/11 15/16/12 36/17/13 144/18/14
f 159/19/15 51/20/16 86/21/17 194/22/17
f 151/23/18 43/24/19 21/25/20 129/26/21
f 44/27/22 49/28/23 30/29/24 23/30/25
f 6/31/26 9/32/26 53/33/27 57/34/27
f 56/35/28 54/36/29 51/37/16 42/38/30
f 2/39/26 6/31/26 57/34/27 60/40/27
f 59/41/31 56/35/28 42/38/30 37/42/32
f 145/43/33 37/44/32 42/45/30 150/46/34
f 28/9/6 63/47/5 77/48/35 8/10/8
f 68/49/36 14/1/1 3/4/4 83/50/37
f 195/51/38 87/52/38 62/53/39 170/54/39
f 15/55/12 123/56/11 119/57/40 11/58/41
f 92/59/42 35/60/43 16/61/44 69/62/45
f 62/63/39 87/64/38 100/65/46 76/66/47
f 54/36/29 99/67/48 86/68/17 51/37/16
f 9/32/26 75/69/49 101/70/50 53/33/27
f 82/71/51 2/39/26 60/40/27 106/72/52
f 94/73/53 70/74/54 84/75/55 107/76/56
f 108/77/57 59/41/31 37/42/32 93/78/58
f 61/79/59 169/80/59 170/54/39 62/53/39
f 193/81/60 194/22/17 86/21/17 85/82/60
f 130/11/61 126/83/62 18/84/63 22/12/64
f 29/85/12 137/86/11 133/87/40 25/88/41
f 195/51/38 193/81/60 85/82/60 87/52/38
f 156/89/65 158/90/14 50/91/13 48/92/66
f 147/93/67 150/46/68 42/45/69 39/94/70
f 11/58/71 119/57/72 122/14/73 14/13/74
f 126/83/75 129/26/21 21/25/20 18/84/76
f 145/43/77 142/95/78 34/96/79 37/44/80
f 151/23/18 147/93/81 39/94/82 43/24/19
f 25/88/71 133/87/72 136/8/7 28/7/6
f 142/95/65 144/18/14 36/17/13 34/96/66
f 159/19/15 156/89/78 48/92/79 51/20/16
f 63/6/5 171/5/5 169/80/59 61/79/59
f 46/97/83 27/98/84 30/29/24 49/28/23
f 50/91/13 29/99/12 27/100/85 46/101/86
f 41/102/87 17/103/88 21/25/20 43/24/19
f 44/27/22 23/30/25 17/104/89 41/105/90
f 32/106/83 13/107/84 16/61/91 35/60/92
f 36/17/13 15/16/12 13/108/85 32/109/86
f 4/110/93 1/111/93 3/4/94 5/3/95
f 6/31/26 2/39/26 1/111/93 4/110/93
f 7/112/93 4/110/93 5/3/95 8/10/96
f 9/32/26 6/31/26 4/110/93 7/112/93
f 71/113/97 7/112/93 8/10/98 77/48/35
f 75/69/49 9/32/26 7/112/93 71/113/97
f 24/114/99 20/115/100 23/30/25 30/29/24
f 28/9/101 22/2/2 20/116/102 24/117/103
f 45/118/104 38/119/105 42/38/30 51/37/106
f 49/28/23 44/27/22 38/119/105 45/118/104
f 55/120/107 52/121/107 54/36/108 56/35/109
f 57/34/27 53/33/27 52/121/107 55/120/107
f 58/122/107 55/120/107 56/35/109 59/41/110
f 60/40/27 57/34/27 55/120/107 58/122/107
f 102/123/111 58/122/107 59/41/110 108/77/112
f 106/72/113 60/40/27 58/122/107 102/123/114
f 72/124/115 98/125/116 101/70/117 75/69/118
f 76/66/119 100/65/120 98/125/116 72/124/115
f 103/126/121 78/127/122 82/71/51 106/72/52
f 107/76/123 84/75/124 78/127/122 103/126/121
f 1/111/93 79/128/125 83/50/126 3/4/94
f 2/39/26 82/71/127 79/128/128 1/111/93
f 61/129/59 74/130/129 77/48/130 63/47/5
f 62/63/39 76/66/131 74/131/129 61/132/59
f 81/133/132 64/134/133 68/135/134 83/136/135
f 84/75/124 70/74/136 64/134/137 81/133/138
f 10/137/139 65/138/140 69/62/141 16/61/142
f 14/1/143 68/49/134 65/139/144 10/140/145
f 67/141/146 88/142/147 92/143/148 69/144/149
f 70/74/150 94/73/151 88/142/147 67/141/146
f 31/145/152 89/146/153 93/78/154 37/42/155
f 35/60/156 92/59/157 89/146/158 31/145/159
f 96/147/160 85/148/60 86/68/17 99/67/161
f 100/65/162 87/64/38 85/149/60 96/150/160
f 52/121/107 95/151/163 99/67/48 54/36/108
f 53/33/27 101/70/50 95/151/163 52/121/107
f 91/152/164 105/153/165 108/154/166 93/155/58
f 94/73/151 107/76/167 105/153/168 91/152/169
f 14/1/143 10/140/170 12/156/171 11/157/172
f 15/55/12 11/58/172 12/158/173 13/159/84
f 16/61/44 13/107/85 12/160/174 10/137/175
f 21/25/20 17/103/89 19/161/176 18/84/177
f 22/2/178 18/162/76 19/163/179 20/116/100
f 23/30/25 20/115/102 19/164/180 17/104/88
f 28/9/6 24/117/99 26/165/171 25/166/172
f 29/85/12 25/88/172 26/167/173 27/168/84
f 30/29/181 27/98/85 26/169/174 24/114/103
f 35/60/43 31/145/152 33/170/182 32/106/86
f 36/17/13 32/109/83 33/171/183 34/96/184
f 37/42/185 34/172/79 33/170/186 31/145/187
f 42/38/188 38/119/189 40/173/190 39/174/82
f 43/24/19 39/94/191 40/175/192 41/102/90
f 44/27/193 41/105/87 40/173/194 38/119/195
f 49/28/23 45/118/196 47/176/182 46/97/86
f 50/91/13 46/101/83 47/177/183 48/92/184
f 51/37/16 48/178/79 47/176/186 45/118/197
f 68/135/198 64/134/137 66/179/199 65/180/200
f 69/144/149 65/181/140 66/182/201 67/141/146
f 70/74/150 67/141/146 66/183/202 64/134/137
f 75/69/203 71/113/204 73/184/205 72/124/115
f 76/66/119 72/124/115 73/185/206 74/131/207
f 77/48/35 74/130/207 73/186/208 71/113/204
f 82/71/209 78/127/122 80/187/210 79/188/211
f 83/136/126 79/189/212 80/190/213 81/133/132
f 84/75/124 81/133/132 80/191/214 78/127/122
f 92/143/148 88/142/147 90/192/215 89/193/158
f 93/155/216 89/194/158 90/195/217 91/152/164
f 94/73/151 91/152/164 90/196/218 88/142/147
f 99/67/48 95/151/219 97/197/220 96/147/221
f 100/65/162 96/150/160 97/198/222 98/125/116
f 101/70/223 98/125/116 97/199/224 95/151/219
f 106/72/225 102/200/226 104/201/227 103/126/121
f 107/76/123 103/126/121 104/202/228 105/153/168
f 108/154/112 105/153/168 104/203/229 102/204/111
f 122/205/10 111/206/230 113/207/231 130/208/9
f 130/208/9 113/207/231 116/209/232 136/210/7
f 152/211/233 131/212/234 138/213/235 157/214/236
f 114/215/237 165/216/238 161/217/238 117/218/237
f 164/219/239 150/220/34 159/221/15 162/222/240
f 110/223/237 168/224/238 165/216/238 114/215/237
f 167/225/241 145/226/33 150/220/34 164/219/239
f 136/210/7 116/209/232 185/227/242 171/228/5
f 176/229/243 191/230/244 111/206/230 122/205/10
f 200/231/245 177/232/246 124/233/247 143/234/248
f 170/235/39 184/236/249 208/237/250 195/238/38
f 162/222/240 159/221/15 194/239/17 207/240/251
f 117/218/237 161/217/238 209/241/252 183/242/253
f 190/243/254 214/244/255 168/224/238 110/223/237
f 202/245/56 215/246/53 192/247/54 178/248/55
f 216/249/256 201/250/257 145/226/33 167/225/241
f 154/251/258 157/214/236 138/213/235 135/252/259
f 158/90/14 154/253/260 135/254/261 137/255/11
f 149/256/262 151/23/18 129/26/21 125/257/263
f 152/211/233 149/258/264 125/259/265 131/212/234
f 140/260/258 143/234/266 124/233/267 121/261/259
f 144/18/14 140/262/260 121/263/261 123/15/11
f 112/264/268 113/207/269 111/206/270 109/265/268
f 114/215/237 112/264/268 109/265/268 110/223/237
f 115/266/268 116/209/271 113/207/269 112/264/268
f 117/218/237 115/266/268 112/264/268 114/215/237
f 179/267/272 185/227/242 116/209/271 115/266/268
f 183/242/253 179/267/272 115/266/268 117/218/237
f 132/268/273 138/213/235 131/212/234 128/269/274
f 136/210/275 132/270/276 128/271/274 130/208/9
f 153/272/277 159/221/278 150/220/34 146/273/279
f 157/214/236 153/272/280 146/273/279 152/211/233
f 163/274/281 164/219/282 162/222/283 160/275/281
f 165/216/238 163/274/281 160/275/281 161/217/238
f 166/276/281 167/225/284 164/219/282 163/274/281
f 168/224/238 166/276/281 163/274/281 165/216/238
f 210/277/285 216/249/286 167/225/284 166/276/281
f 214/244/287 210/277/288 166/276/281 168/224/238
f 180/278/289 183/242/290 209/241/291 206/279/292
f 184/236/293 180/278/289 206/279/292 208/237/294
f 211/280/147 214/244/255 190/243/254 186/281/146
f 215/246/151 211/280/147 186/281/146 192/247/150
f 109/265/268 111/206/270 191/230/295 187/282/296
f 110/223/237 109/265/268 187/282/297 190/243/298
f 169/283/59 171/228/5 185/227/299 182/284/300
f 170/235/39 169/285/59 182/286/300 184/236/249
f 189/287/133 191/288/301 176/289/243 172/290/132
f 192/247/136 189/287/137 172/290/138 178/248/124
f 118/291/302 124/233/303 177/232/304 173/292/305
f 122/205/306 118/293/307 173/294/308 176/229/309
f 175/295/122 177/296/310 200/297/311 196/298/121
f 178/248/124 175/295/122 196/298/121 202/245/123
f 139/299/312 145/226/313 201/250/314 197/300/315
f 143/234/316 139/299/317 197/300/318 200/231/319
f 204/301/320 207/240/321 194/239/17 193/302/60
f 208/237/322 204/303/320 193/304/60 195/238/38
f 160/275/281 162/222/283 207/240/251 203/305/323
f 161/217/238 160/275/281 203/305/323 209/241/252
f 199/306/165 201/307/314 216/308/324 213/309/164
f 202/245/325 199/306/168 213/309/169 215/246/151
f 122/205/326 119/310/72 120/311/327 118/293/328
f 123/56/11 121/312/259 120/313/329 119/57/330
f 124/233/247 118/291/307 120/314/331 121/261/261
f 129/26/21 126/83/332 127/315/333 125/257/265
f 130/208/334 128/271/335 127/316/336 126/317/75
f 131/212/337 125/259/263 127/318/338 128/269/339
f 136/210/7 133/319/72 134/320/327 132/270/273
f 137/86/11 135/321/259 134/322/329 133/87/330
f 138/213/235 132/268/340 134/323/331 135/252/261
f 143/234/248 140/260/260 141/324/341 139/299/312
f 144/18/14 142/95/342 141/325/343 140/262/258
f 145/226/313 139/299/344 141/324/345 142/326/342
f 150/220/346 147/327/81 148/328/347 146/273/348
f 151/23/18 149/256/264 148/329/349 147/93/350
f 152/211/233 146/273/279 148/328/351 149/258/262
f 157/214/352 154/251/260 155/330/341 153/272/353
f 158/90/14 156/89/342 155/331/343 154/253/258
f 159/221/15 153/272/280 155/330/345 156/332/342
f 176/289/354 173/333/305 174/334/213 172/290/132
f 177/296/310 175/295/122 174/335/210 173/336/305
f 178/248/124 172/290/132 174/337/214 175/295/122
f 183/242/355 180/278/289 181/338/356 179/267/357
f 184/236/358 182/286/300 181/339/359 180/278/289
f 185/227/242 179/267/357 181/340/360 182/284/361
f 190/243/362 187/341/363 188/342/201 186/281/146
f 191/288/295 189/287/137 188/343/199 187/344/296
f 192/247/150 186/281/146 188/345/202 189/287/137
f 200/297/311 197/346/318 198/347/227 196/298/121
f 201/307/364 199/306/168 198/348/229 197/349/365
f 202/245/123 196/298/121 198/350/228 199/306/168
f 207/240/251 204/301/366 205/351/367 203/305/368
f 208/237/294 206/279/292 205/352/369 204/303/366
f 209/241/370 203/305/368 205/353/371 206/279/292
f 214/244/372 211/280/147 212/354/215 210/355/373
f 215/246/151 213/309/164 212/356/218 211/280/147
f 216/308/286 210/357/374 212/358/217 213/309/164
f 137/255/11 29/99/12 50/91/13 158/90/14
