# Blender 5.0.1
# www.blender.org
mtllib shit.mtl
o shit
v -0.064112 1.374281 0.115851
v -0.082157 1.094316 -0.711421
v -0.066196 0.722541 -1.170340
v -0.023418 0.200249 -1.114249
v 0.001806 -0.010622 -0.997720
v 0.006769 -0.198732 -0.957680
v 0.000115 -0.556070 -0.832215
v 0.000000 -1.000000 0.000000
v -0.033001 1.421271 -0.167533
v 0.006115 1.337996 -0.467802
v 0.062914 1.160197 -0.734033
v 0.122762 1.009477 -1.014014
v 0.193561 0.768074 -1.254620
v 0.221753 0.445026 -1.296643
v 0.204257 0.188439 -1.132859
v 0.193976 -0.029308 -1.001806
v 0.188005 -0.202596 -0.948047
v 0.180223 -0.382705 -0.906045
v 0.162212 -0.555570 -0.815493
v 0.137950 -0.707107 -0.693520
v 0.108386 -0.831470 -0.544895
v 0.074658 -0.923880 -0.375330
v 0.038060 -0.980785 -0.191342
v 0.024649 1.440301 -0.146796
v 0.117297 1.385898 -0.439176
v 0.218848 1.233887 -0.721412
v 0.334243 1.062873 -1.007483
v 0.461685 0.768170 -1.194581
v 0.501912 0.433692 -1.198395
v 0.463356 0.179807 -1.057102
v 0.402481 -0.032604 -0.947860
v 0.369894 -0.205297 -0.896839
v 0.352291 -0.383223 -0.852176
v 0.318190 -0.555570 -0.768178
v 0.270598 -0.707107 -0.653281
v 0.212608 -0.831470 -0.513280
v 0.146447 -0.923880 -0.353553
v 0.074658 -0.980785 -0.180240
v 0.080891 1.451429 -0.114305
v 0.228531 1.419327 -0.380069
v 0.379465 1.295331 -0.660176
v 0.540142 1.102093 -0.928656
v 0.660595 0.756172 -1.057445
v 0.681943 0.423148 -1.022656
v 0.637363 0.181366 -0.929517
v 0.576024 -0.018329 -0.849494
v 0.541812 -0.201251 -0.806649
v 0.512519 -0.383084 -0.766615
v 0.461940 -0.555570 -0.691342
v 0.392847 -0.707107 -0.587938
v 0.308658 -0.831470 -0.461940
v 0.212608 -0.923880 -0.318190
v 0.108386 -0.980785 -0.162212
v 0.132495 1.452749 -0.071995
v 0.330884 1.428953 -0.292972
v 0.526232 1.320307 -0.544138
v 0.737516 1.147296 -0.800330
v 0.847324 0.774518 -0.919020
v 0.835057 0.430641 -0.861636
v 0.744808 0.201367 -0.772576
v 0.688428 -0.005601 -0.709941
v 0.679156 -0.200931 -0.686426
v 0.652964 -0.382868 -0.653175
v 0.588013 -0.555647 -0.588024
v 0.500011 -0.707124 -0.500013
v 0.392847 -0.831470 -0.392847
v 0.270598 -0.923880 -0.270598
v 0.137950 -0.980785 -0.137950
v 0.176186 1.444032 -0.022759
v 0.414226 1.407451 -0.187047
v 0.640815 1.298581 -0.380576
v 0.892677 1.141070 -0.589132
v 1.050414 0.794428 -0.709260
v 0.969801 0.449172 -0.678953
v 0.817064 0.214015 -0.588587
v 0.775763 -0.007538 -0.538428
v 0.791874 -0.207265 -0.534557
v 0.773701 -0.387331 -0.518204
v 0.697254 -0.560933 -0.467018
v 0.590251 -0.710413 -0.394873
v 0.462161 -0.831943 -0.308843
v 0.318190 -0.923880 -0.212608
v 0.162212 -0.980785 -0.108386
v 0.209253 1.426863 0.030113
v 0.470252 1.357532 -0.077611
v 0.703357 1.223037 -0.201902
v 0.958044 1.058925 -0.330170
v 1.099700 0.759098 -0.418106
v 0.982280 0.456390 -0.431113
v 0.888963 0.210766 -0.382644
v 0.894891 -0.002526 -0.372694
v 0.924329 -0.208199 -0.396256
v 0.887489 -0.399175 -0.379526
v 0.791025 -0.574766 -0.331734
v 0.663535 -0.720916 -0.276743
v 0.514828 -0.834975 -0.213662
v 0.353553 -0.923880 -0.146447
v 0.180240 -0.980785 -0.074658
v 0.230191 1.403645 0.083169
v 0.495992 1.292721 0.023305
v 0.704884 1.111846 -0.051960
v 0.902338 0.924765 -0.120615
v 0.982268 0.688686 -0.172317
v 0.964481 0.448137 -0.197450
v 0.982244 0.227901 -0.215289
v 1.058569 0.029521 -0.257839
v 1.111321 -0.204892 -0.304372
v 1.029760 -0.441975 -0.266935
v 0.877710 -0.613902 -0.196656
v 0.717260 -0.743907 -0.149307
v 0.548830 -0.845233 -0.111880
v 0.375252 -0.924109 -0.074738
v 0.191342 -0.980785 -0.038060
v 0.238432 1.377333 0.134162
v 0.495288 1.229564 0.112793
v 0.671732 1.015584 0.064828
v 0.802744 0.813170 0.017237
v 0.887201 0.619804 -0.006016
v 0.956952 0.441150 -0.011091
v 1.060678 0.267679 -0.039186
v 1.256152 0.075816 -0.107036
v 1.347049 -0.222330 -0.143357
v 1.202469 -0.523905 -0.110216
v 0.962467 -0.690082 -0.046695
v 0.748732 -0.786512 -0.015141
v 0.561171 -0.861242 -0.004901
v 0.382091 -0.925792 -0.000482
v 0.195090 -0.980785 0.000000
v 0.234482 1.350989 0.181274
v 0.475305 1.176840 0.192175
v 0.626100 0.954137 0.168723
v 0.718290 0.750573 0.140477
v 0.812064 0.575030 0.143700
v 0.923690 0.433726 0.163910
v 1.110868 0.316995 0.190313
v 1.364312 0.111544 0.205520
v 1.464235 -0.236709 0.198316
v 1.294544 -0.586409 0.179413
v 1.001677 -0.763482 0.159650
v 0.746716 -0.832058 0.134895
v 0.549366 -0.876938 0.105749
v 0.373946 -0.928554 0.073930
v 0.191342 -0.980785 0.038060
v 0.219536 1.325819 0.222815
v 0.440726 1.136581 0.263511
v 0.572340 0.916706 0.266080
v 0.645143 0.718877 0.267858
v 0.733484 0.552664 0.300800
v 0.861948 0.435254 0.360307
v 1.081839 0.364261 0.460575
v 1.310758 0.144255 0.552597
v 1.349921 -0.237454 0.562754
v 1.222638 -0.595170 0.514524
v 0.957647 -0.803555 0.403146
v 0.697802 -0.856014 0.294290
v 0.512957 -0.885116 0.215453
v 0.351558 -0.929831 0.146024
v 0.180240 -0.980785 0.074658
v 0.194834 1.302594 0.257550
v 0.394640 1.105164 0.324557
v 0.513857 0.890856 0.349111
v 0.582535 0.704155 0.381497
v 0.661795 0.546248 0.447529
v 0.768903 0.432196 0.536067
v 0.930565 0.356635 0.679558
v 1.113097 0.149947 0.856918
v 1.156219 -0.230028 0.891069
v 1.029564 -0.578222 0.783177
v 0.814596 -0.785178 0.611955
v 0.605478 -0.844145 0.438940
v 0.455447 -0.880146 0.316371
v 0.316237 -0.928619 0.212619
v 0.162212 -0.980785 0.108386
v 0.162557 1.281300 0.283494
v 0.338873 1.078155 0.369945
v 0.447141 0.869084 0.413437
v 0.516351 0.694453 0.473984
v 0.584410 0.536842 0.559408
v 0.652394 0.399913 0.645546
v 0.727071 0.263700 0.760770
v 0.808372 0.080531 0.927215
v 0.840047 -0.207639 0.966047
v 0.765183 -0.513106 0.868986
v 0.622935 -0.707269 0.717141
v 0.493187 -0.802039 0.546432
v 0.383763 -0.863969 0.401040
v 0.269533 -0.926033 0.270744
v 0.137950 -0.980785 0.137950
v 0.124203 1.262199 0.299975
v 0.274886 1.054943 0.398944
v 0.369312 0.850674 0.460912
v 0.431205 0.680002 0.543111
v 0.481250 0.520447 0.637417
v 0.516858 0.359603 0.712314
v 0.540711 0.183288 0.775566
v 0.567031 0.007253 0.839770
v 0.568631 -0.198132 0.858481
v 0.522622 -0.439003 0.823219
v 0.452510 -0.625141 0.747402
v 0.379010 -0.750859 0.613678
v 0.302800 -0.843698 0.465783
v 0.212480 -0.924103 0.318216
v 0.108386 -0.980785 0.162212
v 0.080767 1.245693 0.307430
v 0.202846 1.035610 0.412823
v 0.279569 0.832390 0.489673
v 0.323865 0.656412 0.586621
v 0.346188 0.496586 0.692206
v 0.352310 0.329149 0.776377
v 0.362333 0.153770 0.838495
v 0.380361 -0.018456 0.869641
v 0.378637 -0.198155 0.870287
v 0.345649 -0.396472 0.840890
v 0.307027 -0.571988 0.773626
v 0.264632 -0.715764 0.658561
v 0.211985 -0.832429 0.513646
v 0.146447 -0.923880 0.353553
v 0.074658 -0.980785 0.180240
v 0.033470 1.231696 0.306356
v 0.123992 1.019835 0.411967
v 0.180617 0.811414 0.495422
v 0.205634 0.625389 0.602739
v 0.199785 0.462870 0.729394
v 0.184004 0.313647 0.841873
v 0.200680 0.171329 0.934936
v 0.229615 0.000706 0.987776
v 0.238173 -0.190206 0.984468
v 0.211449 -0.392501 0.926483
v 0.170324 -0.564444 0.825600
v 0.138649 -0.709587 0.695656
v 0.108388 -0.831481 0.544902
v 0.074658 -0.923880 0.375330
v 0.038060 -0.980785 0.191342
v -0.015832 1.220476 0.297355
v 0.040014 1.007398 0.396727
v 0.076148 0.789535 0.477251
v 0.080887 0.590314 0.591419
v 0.053324 0.425350 0.743701
v 0.033745 0.319478 0.885646
v 0.049684 0.224327 1.013588
v 0.090269 0.066971 1.128968
v 0.122467 -0.176100 1.178677
v 0.095392 -0.435865 1.088676
v 0.033158 -0.607257 0.901409
v 0.003376 -0.724334 0.721887
v 0.000084 -0.833084 0.556497
v -0.000000 -0.923880 0.382683
v -0.000000 -0.980785 0.195090
v -0.065647 1.212216 0.281409
v -0.047626 0.998530 0.368280
v -0.035690 0.771812 0.439942
v -0.054015 0.559821 0.555306
v -0.100090 0.399679 0.721040
v -0.131433 0.332995 0.880883
v -0.139605 0.298623 1.063934
v -0.117950 0.170447 1.302252
v -0.094985 -0.177171 1.421275
v -0.090621 -0.531231 1.287060
v -0.126846 -0.701363 0.991580
v -0.135357 -0.760470 0.736282
v -0.108842 -0.839111 0.549099
v -0.074658 -0.923880 0.375330
v -0.038060 -0.980785 0.191342
v -0.114413 1.206950 0.259594
v -0.135815 0.994180 0.329758
v -0.153731 0.763922 0.390074
v -0.198126 0.545625 0.500337
v -0.265214 0.388847 0.663409
v -0.328423 0.339096 0.821526
v -0.401714 0.350451 1.035440
v -0.483080 0.229766 1.372360
v -0.481304 -0.192926 1.482241
v -0.427160 -0.621242 1.361793
v -0.351746 -0.791802 1.015031
v -0.284661 -0.796099 0.717537
v -0.215181 -0.845980 0.520523
v -0.146447 -0.923880 0.353553
v -0.074658 -0.980785 0.180240
v -0.160409 1.204485 0.232892
v -0.220214 0.994661 0.284347
v -0.269259 0.767977 0.333509
v -0.341557 0.554087 0.432947
v -0.427849 0.394451 0.581460
v -0.520806 0.331704 0.719445
v -0.656763 0.327467 0.900849
v -0.831236 0.200960 1.173774
v -0.847384 -0.212405 1.277711
v -0.749081 -0.605048 1.158095
v -0.579696 -0.782079 0.895415
v -0.429328 -0.803721 0.648194
v -0.313639 -0.848401 0.469248
v -0.212608 -0.923880 0.318190
v -0.108386 -0.980785 0.162212
v -0.201928 1.204557 0.202196
v -0.294177 0.999422 0.233898
v -0.364839 0.779381 0.276130
v -0.463394 0.575176 0.358348
v -0.566734 0.415411 0.483731
v -0.663916 0.316875 0.597687
v -0.800302 0.250239 0.712597
v -0.963379 0.106965 0.847555
v -1.005877 -0.211404 0.915681
v -0.891507 -0.522195 0.847999
v -0.716739 -0.704677 0.699618
v -0.543329 -0.782146 0.537955
v -0.398030 -0.844320 0.397379
v -0.270598 -0.923880 0.270598
v -0.137950 -0.980785 0.137950
v -0.237536 1.207101 0.168365
v -0.351859 1.007215 0.180410
v -0.430755 0.791428 0.219576
v -0.551318 0.595668 0.279501
v -0.672946 0.445843 0.372905
v -0.764739 0.308590 0.463866
v -0.862967 0.186964 0.532129
v -0.962053 0.026117 0.587920
v -0.993565 -0.209191 0.612194
v -0.920058 -0.453903 0.583236
v -0.783328 -0.637821 0.508253
v -0.620277 -0.752082 0.410846
v -0.464592 -0.837000 0.310253
v -0.318190 -0.923880 0.212607
v -0.162212 -0.980785 0.108386
v -0.266067 1.212004 0.132122
v -0.390743 1.016541 0.124385
v -0.469176 0.801121 0.157636
v -0.605480 0.605748 0.195251
v -0.749695 0.471154 0.247725
v -0.849471 0.327609 0.315126
v -0.913850 0.166945 0.362330
v -0.962148 -0.006130 0.386877
v -0.974168 -0.206122 0.394170
v -0.933026 -0.418659 0.386507
v -0.826347 -0.605930 0.351534
v -0.673211 -0.739396 0.289648
v -0.514467 -0.838757 0.217154
v -0.353553 -0.923880 0.146447
v -0.180240 -0.980785 0.074658
v -0.286667 1.219162 0.094100
v -0.412327 1.026709 0.065197
v -0.481902 0.808305 0.088597
v -0.628240 0.603172 0.103792
v -0.799553 0.491875 0.117344
v -0.917699 0.362987 0.159902
v -0.984255 0.187520 0.191969
v -1.012236 -0.003530 0.205708
v -1.015126 -0.203853 0.214387
v -0.979840 -0.416268 0.220737
v -0.876391 -0.613339 0.210274
v -0.717268 -0.755822 0.171274
v -0.548366 -0.852914 0.120157
v -0.375280 -0.924804 0.075058
v -0.191342 -0.980785 0.038060
v -0.298871 1.228642 0.054925
v -0.419460 1.037632 0.002047
v -0.470379 0.814405 0.012695
v -0.619280 0.590081 0.009307
v -0.818727 0.503216 -0.017007
v -0.958235 0.403028 -0.007654
v -1.049385 0.225102 0.011688
v -1.095523 0.015293 0.019911
v -1.096639 -0.208861 0.026217
v -1.063442 -0.444014 0.041378
v -0.948033 -0.662864 0.053915
v -0.757817 -0.802320 0.042780
v -0.562464 -0.871592 0.017327
v -0.382482 -0.927207 0.001264
v -0.195090 -0.980785 -0.000000
v -0.302531 1.240701 0.015215
v -0.415991 1.050025 -0.064957
v -0.438195 0.821608 -0.074158
v -0.575704 0.572213 -0.093204
v -0.799906 0.499370 -0.151728
v -0.956401 0.436103 -0.185142
v -1.078227 0.270473 -0.191177
v -1.163695 0.047002 -0.196536
v -1.170227 -0.212550 -0.198744
v -1.129731 -0.480828 -0.181210
v -0.997531 -0.723643 -0.138327
v -0.770267 -0.852568 -0.103899
v -0.555804 -0.892356 -0.090429
v -0.374878 -0.929301 -0.072874
v -0.191342 -0.980785 -0.038060
v -0.297395 1.255374 -0.024460
v -0.405779 1.065361 -0.135193
v -0.396782 0.834867 -0.173643
v -0.499479 0.565044 -0.208228
v -0.729083 0.476720 -0.278337
v -0.900216 0.432589 -0.354783
v -1.033398 0.295494 -0.410895
v -1.168269 0.080847 -0.452243
v -1.209384 -0.206583 -0.459342
v -1.148199 -0.516357 -0.432556
v -0.989729 -0.775946 -0.355719
v -0.740142 -0.890091 -0.263312
v -0.524936 -0.906570 -0.200025
v -0.352871 -0.929456 -0.144870
v -0.180240 -0.980785 -0.074658
v -0.283429 1.272994 -0.063063
v -0.391303 1.085346 -0.208354
v -0.366157 0.859762 -0.280948
v -0.414466 0.593919 -0.333164
v -0.601112 0.443359 -0.391740
v -0.781106 0.387012 -0.492985
v -0.917284 0.272404 -0.599484
v -1.075527 0.107104 -0.710797
v -1.234983 -0.194587 -0.800222
v -1.145665 -0.575655 -0.740656
v -0.912215 -0.816215 -0.584608
v -0.663714 -0.904163 -0.423964
v -0.469883 -0.905710 -0.305375
v -0.317636 -0.928045 -0.211758
v -0.162212 -0.980785 -0.108386
v -0.260353 1.293563 -0.099545
v -0.368753 1.110497 -0.280797
v -0.352881 0.895928 -0.390715
v -0.362497 0.658893 -0.465652
v -0.458765 0.453406 -0.508867
v -0.600336 0.324181 -0.588790
v -0.737085 0.217701 -0.732459
v -0.883527 0.101560 -0.929181
v -1.047964 -0.170162 -1.151680
v -0.969021 -0.605240 -1.058872
v -0.743015 -0.815880 -0.790014
v -0.545324 -0.877940 -0.560697
v -0.395612 -0.888307 -0.397429
v -0.270473 -0.925549 -0.270507
v -0.137950 -0.980785 -0.137950
v -0.228165 1.316775 -0.131785
v -0.329550 1.140847 -0.347896
v -0.340746 0.937967 -0.495784
v -0.349515 0.738228 -0.600837
v -0.373229 0.534050 -0.657654
v -0.429290 0.326290 -0.694893
v -0.513136 0.162398 -0.786393
v -0.606306 0.036668 -0.980185
v -0.655219 -0.185939 -1.185334
v -0.618508 -0.527441 -1.125225
v -0.517696 -0.730525 -0.877558
v -0.407330 -0.815070 -0.646499
v -0.308652 -0.862485 -0.468765
v -0.212659 -0.924282 -0.318289
v -0.108386 -0.980785 -0.162212
v -0.188148 1.342586 -0.156591
v -0.266596 1.180062 -0.403637
v -0.299162 0.982605 -0.587339
v -0.321826 0.805935 -0.731294
v -0.329483 0.616182 -0.833400
v -0.319023 0.388557 -0.873775
v -0.334702 0.174489 -0.868888
v -0.371313 -0.001667 -0.929823
v -0.383703 -0.204091 -1.035290
v -0.360122 -0.438291 -1.014594
v -0.322472 -0.628403 -0.865461
v -0.271315 -0.750382 -0.684982
v -0.212759 -0.841639 -0.517642
v -0.146448 -0.923912 -0.353563
v -0.074658 -0.980785 -0.180240
v -0.141373 1.370019 -0.171896
v -0.188448 1.228917 -0.445040
v -0.207878 1.034387 -0.660167
v -0.228687 0.863937 -0.850903
v -0.242656 0.665807 -1.014261
v -0.223254 0.425795 -1.071399
v -0.187531 0.203292 -1.007900
v -0.179286 -0.003183 -0.948707
v -0.181265 -0.202040 -0.959776
v -0.174287 -0.395880 -0.942263
v -0.158672 -0.573085 -0.842140
v -0.137585 -0.716107 -0.701752
v -0.108355 -0.833276 -0.545934
v -0.074658 -0.923880 -0.375330
v -0.038060 -0.980785 -0.191342
v -0.089159 1.397047 -0.175797
v -0.097433 1.283648 -0.468308
v -0.072595 0.936276 -0.952026
v -0.051752 0.428718 -1.234728
v 0.000775 -0.383586 -0.922578
v 0.000045 -0.707376 -0.707367
v 0.000000 -0.831470 -0.555570
v 0.000000 -0.923880 -0.382683
v 0.000000 -0.980785 -0.195090
vn 0.0903 -0.5566 -0.8258
vn 0.0861 -0.3230 -0.9425
vn 0.1752 -0.3504 -0.9201
vn 0.1652 -0.5490 -0.8193
vn -0.4998 0.6442 -0.5789
vn -0.4813 0.7018 -0.5251
vn -0.3350 0.7719 -0.5403
vn -0.2430 0.7118 -0.6590
vn 0.0545 -0.7115 -0.7006
vn 0.0903 -0.5567 -0.8258
vn 0.1407 -0.7005 -0.6996
vn -0.4966 0.3683 -0.7859
vn -0.4998 0.6442 -0.5790
vn -0.0784 0.3918 -0.9167
vn 0.0196 -0.8275 -0.5612
vn 0.0545 -0.7115 -0.7005
vn 0.1407 -0.7006 -0.6996
vn 0.1111 -0.8234 -0.5564
vn -0.4249 -0.1374 -0.8948
vn -0.4966 0.3683 -0.7860
vn -0.0783 0.3918 -0.9167
vn 0.0427 -0.1873 -0.9814
vn 0.0037 -0.9152 -0.4030
vn 0.0196 -0.8275 -0.5611
vn 0.1111 -0.8235 -0.5564
vn 0.0789 -0.9147 -0.3964
vn -0.2851 -0.4599 -0.8409
vn 0.0764 -0.5150 -0.8538
vn -0.0000 -0.9701 -0.2426
vn 0.0788 -0.9147 -0.3964
vn 0.0473 -0.9701 -0.2380
vn -0.1582 -0.3340 -0.9292
vn 0.0763 -0.5150 -0.8538
vn 0.0985 -0.4228 -0.9009
vn -0.4598 0.8631 -0.2091
vn -0.3170 0.8678 0.3827
vn -0.3577 0.9127 -0.1973
vn -0.0000 -1.0000 -0.0000
vn 0.0473 -0.9701 -0.2379
vn -0.0000 -0.1679 -0.9858
vn 0.0985 -0.4227 -0.9009
vn 0.1486 -0.2556 -0.9553
vn -0.4654 0.7530 -0.4651
vn -0.4598 0.8630 -0.2091
vn -0.3410 0.8169 -0.4653
vn 0.0861 -0.3229 -0.9425
vn -0.0000 -0.1678 -0.9858
vn 0.1487 -0.2556 -0.9553
vn 0.1752 -0.3503 -0.9201
vn -0.4813 0.7019 -0.5251
vn -0.4653 0.7530 -0.4652
vn -0.3409 0.8168 -0.4654
vn -0.3350 0.7719 -0.5404
vn 0.3627 -0.2820 -0.8882
vn 0.3561 -0.3610 -0.8619
vn -0.3349 0.7719 -0.5403
vn -0.1954 0.8868 -0.4187
vn -0.1514 0.8312 -0.5350
vn 0.3210 -0.5481 -0.7724
vn -0.2429 0.7119 -0.6590
vn -0.1514 0.8312 -0.5349
vn 0.0601 0.7131 -0.6985
vn 0.2732 -0.7002 -0.6596
vn -0.2429 0.7118 -0.6590
vn 0.0602 0.7131 -0.6985
vn 0.3477 0.3385 -0.8744
vn 0.1112 -0.8234 -0.5564
vn 0.2172 -0.8233 -0.5244
vn 0.0428 -0.1873 -0.9814
vn 0.3477 0.3384 -0.8744
vn 0.4462 -0.1961 -0.8732
vn 0.0789 -0.9147 -0.3965
vn 0.1547 -0.9147 -0.3735
vn 0.0428 -0.1874 -0.9814
vn 0.4462 -0.1962 -0.8732
vn 0.3752 -0.4913 -0.7860
vn 0.1547 -0.9147 -0.3734
vn 0.0929 -0.9701 -0.2242
vn 0.0986 -0.4228 -0.9009
vn 0.3524 -0.4239 -0.8343
vn -0.3577 0.9128 -0.1973
vn -0.2391 0.9583 -0.1564
vn 0.0928 -0.9701 -0.2241
vn 0.1487 -0.2557 -0.9553
vn -0.3409 0.8169 -0.4653
vn -0.2391 0.9583 -0.1565
vn -0.1955 0.8869 -0.4187
vn 0.3153 -0.8233 -0.4719
vn 0.2246 -0.9147 -0.3361
vn 0.3753 -0.4913 -0.7860
vn 0.4463 -0.1962 -0.8731
vn 0.6635 -0.2035 -0.7199
vn 0.6378 -0.4357 -0.6351
vn 0.1348 -0.9701 -0.2018
vn 0.3525 -0.4239 -0.8343
vn 0.6144 -0.3671 -0.6983
vn -0.1045 0.9913 -0.0794
vn 0.1348 -0.9701 -0.2017
vn 0.3628 -0.2820 -0.8882
vn 0.6144 -0.3671 -0.6984
vn 0.5680 -0.2559 -0.7822
vn -0.1954 0.8869 -0.4186
vn -0.1045 0.9913 -0.0795
vn -0.0097 0.9489 -0.3155
vn 0.5191 -0.3609 -0.7748
vn -0.1954 0.8869 -0.4187
vn -0.0096 0.9489 -0.3155
vn 0.0554 0.8799 -0.4719
vn 0.3210 -0.5480 -0.7724
vn 0.5191 -0.3610 -0.7747
vn 0.4638 -0.5479 -0.6962
vn -0.1513 0.8312 -0.5349
vn 0.0554 0.8799 -0.4720
vn 0.2789 0.6716 -0.6865
vn 0.3965 -0.7003 -0.5937
vn 0.2790 0.6715 -0.6865
vn 0.5520 0.2433 -0.7975
vn 0.3964 -0.7003 -0.5937
vn 0.4463 -0.1961 -0.8732
vn 0.5521 0.2432 -0.7975
vn 0.6636 -0.2034 -0.7199
vn 0.1959 0.9685 -0.1536
vn 0.2771 0.9120 -0.3023
vn 0.6564 -0.3427 -0.6721
vn 0.5718 -0.5502 -0.6086
vn 0.2789 0.6716 -0.6864
vn 0.4816 0.6699 -0.5651
vn 0.4638 -0.5480 -0.6962
vn 0.5718 -0.5502 -0.6085
vn 0.4900 -0.7034 -0.5149
vn 0.5521 0.2433 -0.7975
vn 0.4816 0.6698 -0.5652
vn 0.6746 0.1838 -0.7150
vn 0.3965 -0.7003 -0.5936
vn 0.4899 -0.7035 -0.5149
vn 0.3950 -0.8248 -0.4046
vn 0.6636 -0.2035 -0.7199
vn 0.6746 0.1837 -0.7150
vn 0.7399 -0.2844 -0.6097
vn 0.3949 -0.8249 -0.4045
vn 0.2849 -0.9148 -0.2863
vn 0.6379 -0.4357 -0.6350
vn 0.7399 -0.2845 -0.6096
vn 0.7778 -0.4282 -0.4601
vn 0.1716 -0.9701 -0.1716
vn 0.6145 -0.3671 -0.6983
vn 0.6379 -0.4357 -0.6351
vn 0.8155 -0.2422 -0.5256
vn -0.1045 0.9914 -0.0794
vn -0.3169 0.8678 0.3827
vn 0.0367 0.9987 0.0356
vn 0.1715 -0.9701 -0.1715
vn 0.5681 -0.2559 -0.7822
vn 0.8155 -0.2422 -0.5257
vn 0.7467 -0.1597 -0.6457
vn -0.0096 0.9489 -0.3154
vn 0.7466 -0.1597 -0.6458
vn 0.6565 -0.3426 -0.6721
vn 0.7778 -0.4283 -0.4600
vn 0.8670 -0.3610 -0.3435
vn 0.8556 -0.3941 -0.3357
vn 0.2849 -0.9148 -0.2862
vn 0.3294 -0.9161 -0.2285
vn 0.2017 -0.9701 -0.1348
vn 0.7778 -0.4282 -0.4600
vn 0.8591 -0.0939 -0.5032
vn -0.3169 0.8678 0.3826
vn 0.1640 0.9708 0.1751
vn 0.8591 -0.0938 -0.5032
vn 0.7854 -0.0553 -0.6165
vn 0.1959 0.9685 -0.1535
vn 0.3799 0.9235 0.0522
vn 0.7854 -0.0554 -0.6165
vn 0.7133 -0.3296 -0.6185
vn 0.2772 0.9120 -0.3022
vn 0.1960 0.9685 -0.1536
vn 0.3800 0.9235 0.0522
vn 0.4845 0.8742 -0.0313
vn 0.6565 -0.3427 -0.6720
vn 0.7132 -0.3297 -0.6185
vn 0.6259 -0.5639 -0.5388
vn 0.2772 0.9120 -0.3023
vn 0.7077 0.6658 -0.2366
vn 0.4900 -0.7035 -0.5149
vn 0.6258 -0.5640 -0.5388
vn 0.5387 -0.7178 -0.4410
vn 0.6746 0.1838 -0.7149
vn 0.7077 0.6657 -0.2366
vn 0.9047 0.1479 -0.3996
vn 0.3950 -0.8248 -0.4045
vn 0.5387 -0.7179 -0.4410
vn 0.4423 -0.8327 -0.3331
vn 0.4422 -0.8328 -0.3331
vn 0.3295 -0.9161 -0.2285
vn 0.6050 -0.3758 -0.7020
vn 0.5761 -0.6129 -0.5408
vn 0.4846 0.8742 -0.0312
vn 0.6190 0.7343 0.2785
vn 0.8125 0.5427 0.2131
vn 0.5761 -0.6129 -0.5407
vn 0.5282 -0.7505 -0.3972
vn 0.8125 0.5426 0.2131
vn 0.9934 0.0687 0.0914
vn 0.5387 -0.7179 -0.4409
vn 0.4478 -0.8509 -0.2746
vn 0.8670 -0.3610 -0.3434
vn 0.9489 -0.3111 -0.0530
vn 0.4478 -0.8510 -0.2745
vn 0.3490 -0.9212 -0.1720
vn 0.8556 -0.3941 -0.3356
vn 0.9125 -0.1994 -0.3571
vn 0.2018 -0.9701 -0.1348
vn 0.3490 -0.9212 -0.1719
vn 0.2238 -0.9701 -0.0935
vn 0.8591 -0.0939 -0.5031
vn 0.8556 -0.3940 -0.3357
vn 0.9125 -0.1993 -0.3571
vn 0.7298 0.1007 -0.6762
vn 0.2578 0.9138 0.3139
vn 0.2237 -0.9702 -0.0934
vn 0.7297 0.1007 -0.6763
vn 0.6264 -0.0079 -0.7795
vn 0.3799 0.9235 0.0523
vn 0.1641 0.9708 0.1751
vn 0.5123 0.8149 0.2713
vn 0.7132 -0.3296 -0.6186
vn 0.6263 -0.0080 -0.7795
vn 0.5123 0.8148 0.2713
vn 0.6190 0.7344 0.2785
vn 0.2238 -0.9702 -0.0934
vn 0.3489 -0.9212 -0.1719
vn 0.3416 -0.9321 -0.1202
vn 0.2352 -0.9705 -0.0527
vn 0.9126 -0.1994 -0.3571
vn 0.8490 0.2506 -0.4652
vn 0.5752 0.3241 -0.7511
vn 0.3124 0.8488 0.4266
vn 0.2351 -0.9705 -0.0527
vn 0.6263 -0.0079 -0.7795
vn 0.5407 -0.0220 -0.8409
vn 0.3125 0.8488 0.4266
vn 0.5822 0.6850 0.4380
vn 0.5407 -0.0221 -0.8409
vn 0.4808 -0.4543 -0.7499
vn 0.6190 0.7343 0.2786
vn 0.5823 0.6849 0.4380
vn 0.6692 0.5369 0.5137
vn 0.6050 -0.3759 -0.7020
vn 0.4808 -0.4544 -0.7499
vn 0.4314 -0.6912 -0.5798
vn 0.8125 0.5426 0.2132
vn 0.6693 0.5369 0.5137
vn 0.7651 0.3557 0.5367
vn 0.4432 -0.8035 -0.3975
vn 0.9934 0.0687 0.0915
vn 0.7652 0.3557 0.5367
vn 0.9152 0.0633 0.3981
vn 0.5282 -0.7505 -0.3971
vn 0.4432 -0.8035 -0.3974
vn 0.4106 -0.8807 -0.2360
vn 0.9489 -0.3111 -0.0529
vn 0.9152 0.0632 0.3980
vn 0.9968 -0.0539 0.0583
vn 0.9126 -0.1993 -0.3571
vn 0.9968 -0.0539 0.0582
vn 0.8490 0.2507 -0.4652
vn 0.7651 0.3557 0.5368
vn 0.6693 0.5368 0.5137
vn 0.7047 0.4077 0.5807
vn 0.7350 0.2958 0.6101
vn 0.4313 -0.6912 -0.5798
vn 0.4050 -0.7963 -0.4493
vn 0.3435 -0.8754 -0.3402
vn 0.7651 0.3556 0.5368
vn 0.7350 0.2957 0.6101
vn 0.8401 0.2630 0.4743
vn 0.3436 -0.8754 -0.3401
vn 0.3439 -0.9209 -0.1837
vn 0.9968 -0.0538 0.0583
vn 0.9152 0.0632 0.3981
vn 0.8402 0.2630 0.4743
vn 0.9024 0.4245 0.0743
vn 0.4106 -0.8808 -0.2360
vn 0.3166 -0.9463 -0.0650
vn 0.8490 0.2506 -0.4651
vn 0.9024 0.4245 0.0742
vn 0.6965 0.6354 -0.3334
vn 0.2355 -0.9718 -0.0133
vn 0.5752 0.3242 -0.7511
vn 0.7320 0.4694 -0.4938
vn -0.3169 0.8678 0.3828
vn 0.3358 0.7964 0.5030
vn 0.2351 -0.9705 -0.0526
vn 0.2354 -0.9718 -0.0133
vn 0.7321 0.4693 -0.4938
vn 0.8257 -0.0617 -0.5607
vn 0.5822 0.6849 0.4380
vn 0.3359 0.7964 0.5030
vn 0.6122 0.5964 0.5191
vn 0.8257 -0.0618 -0.5607
vn 0.6391 -0.5657 -0.5211
vn 0.6123 0.5964 0.5191
vn 0.7047 0.4077 0.5806
vn 0.7321 0.4694 -0.4937
vn 0.6965 0.6355 -0.3334
vn 0.6161 0.7798 -0.1106
vn 0.8707 0.4847 -0.0833
vn 0.3363 0.7591 0.5574
vn 0.2258 -0.9736 0.0328
vn 0.7321 0.4693 -0.4937
vn 0.8707 0.4846 -0.0833
vn 0.9943 -0.1009 -0.0340
vn 0.3364 0.7590 0.5574
vn 0.6158 0.5523 0.5619
vn 0.9943 -0.1010 -0.0340
vn 0.7813 -0.6191 -0.0792
vn 0.6159 0.5522 0.5619
vn 0.7436 0.3647 0.5604
vn 0.6391 -0.5658 -0.5211
vn 0.7813 -0.6192 -0.0791
vn 0.4494 -0.8785 -0.1621
vn 0.7048 0.4077 0.5806
vn 0.7614 0.3446 0.5492
vn 0.2700 -0.9467 -0.1760
vn 0.8401 0.2631 0.4743
vn 0.7614 0.3446 0.5491
vn 0.7513 0.4983 0.4327
vn 0.3435 -0.8754 -0.3401
vn 0.2670 -0.9602 -0.0823
vn 0.8402 0.2631 0.4742
vn 0.7513 0.4983 0.4326
vn 0.6438 0.7581 0.1045
vn 0.3438 -0.9209 -0.1837
vn 0.2669 -0.9602 -0.0822
vn 0.2824 -0.9593 0.0067
vn 0.6965 0.6354 -0.3333
vn 0.9024 0.4246 0.0742
vn 0.6438 0.7581 0.1044
vn 0.2699 -0.9467 -0.1760
vn 0.4084 -0.8994 0.1555
vn 0.1804 -0.9827 0.0408
vn 0.7679 0.4018 0.4989
vn 0.6829 0.6228 0.3818
vn 0.1888 -0.9801 0.0613
vn 0.4499 0.8765 0.1712
vn 0.2823 -0.9593 0.0067
vn 0.2670 -0.9602 -0.0822
vn 0.2417 -0.9655 0.0971
vn 0.6161 0.7799 -0.1106
vn 0.6437 0.7581 0.1044
vn 0.4499 0.8766 0.1711
vn 0.5245 0.8382 0.1495
vn 0.2072 -0.9745 0.0858
vn 0.8404 0.4409 0.3153
vn 0.3102 0.7275 0.6120
vn 0.2257 -0.9736 0.0328
vn 0.8404 0.4408 0.3153
vn 0.9115 -0.1253 0.3918
vn 0.3364 0.7590 0.5575
vn 0.5811 0.5286 0.6188
vn 0.7813 -0.6191 -0.0791
vn 0.9115 -0.1254 0.3918
vn 0.7318 -0.6017 0.3201
vn 0.5812 0.5285 0.6187
vn 0.7358 0.3647 0.5707
vn 0.4085 -0.8994 0.1555
vn 0.1828 -0.9737 0.1358
vn 0.5302 0.4294 0.7311
vn 0.6079 -0.1337 0.7827
vn 0.2450 0.6876 0.6835
vn 0.4909 0.5038 0.7108
vn 0.6079 -0.1338 0.7827
vn 0.4597 -0.5738 0.6778
vn 0.7357 0.3647 0.5707
vn 0.5812 0.5285 0.6188
vn 0.6574 0.3914 0.6440
vn 0.4085 -0.8994 0.1556
vn 0.7317 -0.6017 0.3201
vn 0.4596 -0.5738 0.6778
vn 0.2177 -0.8564 0.4681
vn 0.6574 0.3914 0.6439
vn 0.7155 0.4598 0.5260
vn 0.1804 -0.9827 0.0409
vn 0.4084 -0.8994 0.1556
vn 0.2177 -0.8565 0.4681
vn 0.0590 -0.9602 0.2730
vn 0.7155 0.4598 0.5259
vn 0.6146 0.6524 0.4434
vn 0.1888 -0.9801 0.0614
vn 0.1182 -0.9688 0.2178
vn 0.3124 0.8640 0.3949
vn 0.2011 -0.9608 0.1909
vn 0.4498 0.8766 0.1711
vn 0.2751 0.8199 0.5021
vn 0.1829 -0.9737 0.1359
vn 0.8403 0.4409 0.3154
vn 0.2752 0.8199 0.5021
vn 0.3101 0.7275 0.6120
vn 0.2449 0.6877 0.6835
vn 0.1182 -0.9688 0.2179
vn -0.0471 -0.8763 0.4795
vn 0.0726 -0.9299 0.3605
vn 0.6145 0.6525 0.4435
vn 0.4833 0.5988 0.6386
vn 0.1971 0.6684 0.7172
vn 0.2011 -0.9608 0.1910
vn 0.0726 -0.9300 0.3604
vn 0.1695 -0.9467 0.2740
vn 0.3123 0.8640 0.3950
vn -0.0581 0.6253 0.7782
vn 0.2010 -0.9608 0.1908
vn 0.1695 -0.9467 0.2739
vn 0.1565 -0.9719 0.1756
vn -0.0581 0.6252 0.7783
vn -0.0560 0.3338 0.9410
vn 0.1423 0.6332 0.7608
vn 0.1828 -0.9737 0.1359
vn 0.1564 -0.9720 0.1756
vn -0.0560 0.3337 0.9410
vn -0.0102 -0.0890 0.9960
vn 0.1424 0.6331 0.7608
vn 0.3474 0.4684 0.8124
vn 0.4597 -0.5737 0.6779
vn -0.0153 -0.4148 0.9098
vn 0.6573 0.3914 0.6440
vn 0.4909 0.5037 0.7108
vn 0.3475 0.4683 0.8124
vn 0.4973 0.4244 0.7567
vn 0.2177 -0.8564 0.4682
vn 0.4596 -0.5738 0.6779
vn -0.0459 -0.6991 0.7136
vn 0.5588 0.5110 0.6531
vn 0.2176 -0.8564 0.4682
vn -0.0459 -0.6991 0.7135
vn -0.0472 -0.8763 0.4795
vn 0.6146 0.6524 0.4435
vn 0.7155 0.4599 0.5260
vn 0.4834 0.5988 0.6386
vn 0.3474 0.4683 0.8124
vn 0.1424 0.6331 0.7609
vn 0.0262 0.5752 0.8176
vn 0.1807 0.4311 0.8840
vn -0.0154 -0.4148 0.9098
vn -0.0103 -0.0890 0.9960
vn -0.1935 -0.0518 0.9797
vn -0.1526 -0.2674 0.9514
vn 0.4972 0.4244 0.7567
vn 0.1808 0.4311 0.8840
vn 0.2882 0.4415 0.8497
vn -0.1526 -0.2675 0.9514
vn -0.1042 -0.5470 0.8306
vn 0.4972 0.4245 0.7567
vn 0.2882 0.4416 0.8497
vn 0.3272 0.5305 0.7820
vn -0.1042 -0.5471 0.8306
vn -0.0390 -0.7848 0.6185
vn 0.5588 0.5110 0.6532
vn 0.3273 0.5305 0.7819
vn 0.3135 0.5239 0.7920
vn 0.0725 -0.9299 0.3605
vn 0.0827 -0.8819 0.4641
vn 0.1971 0.6683 0.7173
vn 0.4833 0.5987 0.6387
vn 0.3136 0.5239 0.7920
vn 0.2202 0.4570 0.8618
vn 0.0827 -0.8819 0.4640
vn 0.1530 -0.9298 0.3348
vn 0.1970 0.6683 0.7173
vn 0.0112 0.4130 0.9107
vn 0.1283 -0.9706 0.2038
vn -0.0561 0.3338 0.9410
vn 0.0112 0.4129 0.9107
vn -0.1633 0.2199 0.9617
vn 0.0261 0.5752 0.8176
vn -0.1633 0.2199 0.9618
vn -0.1936 -0.0518 0.9797
vn 0.3135 0.5238 0.7920
vn 0.1754 0.5251 0.8328
vn 0.2845 0.4331 0.8553
vn 0.1262 -0.8458 0.5183
vn 0.1317 -0.9185 0.3729
vn 0.0113 0.4129 0.9107
vn 0.2202 0.4569 0.8618
vn 0.3623 0.3350 0.8698
vn 0.1316 -0.9185 0.3729
vn 0.0922 -0.9702 0.2243
vn 0.3623 0.3349 0.8698
vn 0.3831 0.1556 0.9105
vn -0.0882 0.5226 0.8480
vn 0.0921 -0.9702 0.2243
vn -0.1632 0.2199 0.9618
vn 0.3832 0.1556 0.9105
vn 0.3382 -0.0955 0.9362
vn -0.0881 0.5225 0.8481
vn 0.0095 0.3930 0.9195
vn -0.1525 -0.2674 0.9514
vn 0.3382 -0.0956 0.9362
vn 0.2527 -0.3120 0.9159
vn 0.2881 0.4415 0.8497
vn 0.0680 0.4345 0.8981
vn 0.1470 -0.5463 0.8246
vn 0.2881 0.4416 0.8497
vn 0.1011 0.5373 0.8373
vn -0.0390 -0.7848 0.6186
vn 0.1470 -0.5464 0.8245
vn 0.1011 -0.7382 0.6670
vn 0.1753 0.5251 0.8328
vn 0.1011 -0.7382 0.6669
vn 0.1261 -0.8458 0.5184
vn 0.2528 -0.3120 0.9158
vn 0.7425 -0.0969 0.6628
vn 0.6572 -0.3996 0.6391
vn -0.1511 0.3513 0.9240
vn -0.1360 0.4121 0.9009
vn 0.1471 -0.5463 0.8246
vn 0.6572 -0.3997 0.6391
vn 0.4398 -0.6328 0.6373
vn 0.0679 0.4345 0.8981
vn -0.1360 0.4122 0.9009
vn -0.1046 0.5577 0.8234
vn 0.1471 -0.5464 0.8245
vn 0.4397 -0.6328 0.6373
vn 0.2287 -0.7541 0.6156
vn -0.1045 0.5577 0.8234
vn 0.0283 0.6175 0.7861
vn 0.1262 -0.8458 0.5184
vn 0.1250 -0.8375 0.5319
vn 0.2731 0.5762 0.7703
vn 0.0801 -0.9154 0.3944
vn 0.2846 0.4331 0.8553
vn 0.5203 0.4488 0.7265
vn 0.0921 -0.9701 0.2243
vn 0.0801 -0.9155 0.3944
vn 0.0473 -0.9701 0.2380
vn 0.3624 0.3349 0.8698
vn 0.5204 0.4487 0.7265
vn 0.6876 0.2157 0.6933
vn -0.0882 0.5225 0.8480
vn -0.3170 0.8678 0.3828
vn -0.1955 0.4776 0.8565
vn 0.0473 -0.9701 0.2379
vn 0.3383 -0.0955 0.9362
vn 0.6876 0.2156 0.6933
vn -0.0882 0.5225 0.8481
vn -0.1955 0.4776 0.8566
vn 0.0988 -0.8623 0.4967
vn 0.0153 -0.9182 0.3959
vn 0.2731 0.5763 0.7703
vn 0.1695 0.8103 0.5610
vn 0.5053 0.6867 0.5226
vn 0.0153 -0.9182 0.3958
vn -0.0000 -0.9701 0.2426
vn 0.5204 0.4488 0.7265
vn 0.7023 0.3771 0.6038
vn -0.1956 0.4776 0.8565
vn -0.2896 0.4434 0.8482
vn 0.6877 0.2156 0.6933
vn 0.7782 -0.0300 0.6273
vn -0.2896 0.4434 0.8483
vn -0.2797 0.3127 0.9078
vn 0.6572 -0.3996 0.6390
vn 0.7426 -0.0970 0.6627
vn 0.7782 -0.0301 0.6273
vn 0.7384 -0.4354 0.5150
vn -0.1361 0.4121 0.9009
vn -0.2845 0.3906 0.8755
vn 0.6572 -0.3997 0.6390
vn 0.7384 -0.4355 0.5149
vn 0.5734 -0.7129 0.4038
vn -0.1361 0.4122 0.9009
vn -0.2548 0.5855 0.7696
vn 0.5733 -0.7129 0.4038
vn 0.3176 -0.8271 0.4637
vn 0.0283 0.6175 0.7860
vn -0.2549 0.5855 0.7695
vn -0.1252 0.7410 0.6597
vn 0.2287 -0.7542 0.6156
vn 0.3175 -0.8272 0.4637
vn 0.0988 -0.8622 0.4968
vn -0.1252 0.7411 0.6597
vn 0.1694 0.8103 0.5610
vn -0.2797 0.3126 0.9077
vn -0.3648 0.2896 0.8849
vn -0.3580 0.3830 0.8515
vn 0.4822 -0.5226 0.7031
vn 0.4472 -0.8241 0.3477
vn -0.2549 0.5855 0.7696
vn -0.3580 0.3831 0.8515
vn -0.3152 0.6107 0.7264
vn 0.3176 -0.8272 0.4636
vn 0.2953 -0.9132 0.2808
vn -0.1252 0.7411 0.6596
vn -0.2549 0.5856 0.7695
vn -0.3151 0.6108 0.7264
vn -0.1979 0.8230 0.5324
vn 0.2952 -0.9132 0.2808
vn 0.0570 -0.9079 0.4154
vn 0.1694 0.8103 0.5609
vn -0.1979 0.8231 0.5324
vn 0.0560 0.9566 0.2861
vn 0.0152 -0.9182 0.3959
vn 0.0569 -0.9079 0.4153
vn -0.0489 -0.9253 0.3761
vn 0.5053 0.6868 0.5225
vn 0.1695 0.8103 0.5609
vn 0.0560 0.9566 0.2860
vn 0.2798 0.8912 0.3571
vn 0.0152 -0.9182 0.3958
vn -0.0489 -0.9253 0.3760
vn -0.0473 -0.9701 0.2380
vn 0.7023 0.3772 0.6038
vn 0.5053 0.6867 0.5225
vn 0.2799 0.8912 0.3571
vn 0.3941 0.5366 0.7462
vn -0.2896 0.4435 0.8482
vn -0.3648 0.4238 0.8290
vn -0.0473 -0.9701 0.2379
vn 0.7782 -0.0299 0.6273
vn 0.3941 0.5365 0.7462
vn 0.4380 -0.0036 0.8990
vn -0.2797 0.3127 0.9077
vn -0.3648 0.4238 0.8291
vn 0.7384 -0.4354 0.5149
vn 0.4379 -0.0037 0.8990
vn 0.2798 0.8912 0.3570
vn -0.0377 0.9911 0.1277
vn -0.0229 0.9704 0.2406
vn -0.1209 -0.9330 0.3390
vn -0.0929 -0.9701 0.2242
vn 0.3940 0.5366 0.7462
vn -0.0229 0.9703 0.2406
vn -0.1464 0.6072 0.7809
vn -0.4248 0.4201 0.8019
vn -0.0928 -0.9701 0.2241
vn 0.4379 -0.0036 0.8990
vn 0.3940 0.5365 0.7462
vn -0.1464 0.6072 0.7810
vn -0.1860 -0.0297 0.9821
vn -0.4248 0.4200 0.8020
vn -0.4202 0.2874 0.8607
vn -0.0933 -0.6087 0.7879
vn -0.4203 0.2874 0.8607
vn -0.3854 0.3891 0.8367
vn 0.4823 -0.5226 0.7031
vn -0.0934 -0.6087 0.7879
vn 0.0657 -0.9428 0.3268
vn -0.3195 0.6245 0.7127
vn 0.4472 -0.8241 0.3476
vn 0.0982 -0.9837 0.1505
vn -0.1980 0.8230 0.5324
vn -0.3195 0.6246 0.7126
vn -0.2131 0.8527 0.4769
vn 0.0570 -0.9079 0.4153
vn 0.0981 -0.9837 0.1506
vn -0.0427 -0.9473 0.3175
vn -0.1979 0.8231 0.5323
vn -0.2131 0.8528 0.4768
vn -0.0377 0.9911 0.1278
vn 0.0569 -0.9079 0.4154
vn -0.0432 -0.9473 0.3174
vn -0.1209 -0.9330 0.3391
vn 0.0656 -0.9428 0.3268
vn -0.6238 -0.5880 0.5148
vn -0.3603 -0.9144 0.1848
vn -0.4150 0.4041 0.8152
vn -0.3301 0.6247 0.7077
vn 0.0981 -0.9837 0.1505
vn -0.3603 -0.9144 0.1847
vn -0.1646 -0.9845 0.0608
vn -0.3301 0.6247 0.7076
vn -0.2515 0.8337 0.4917
vn -0.1799 -0.9565 0.2298
vn -0.2515 0.8337 0.4916
vn -0.1746 0.9785 0.1097
vn -0.1799 -0.9564 0.2299
vn -0.1988 -0.9356 0.2918
vn -0.3170 0.9415 0.1146
vn -0.1988 -0.9356 0.2917
vn -0.1348 -0.9701 0.2018
vn -0.0230 0.9703 0.2406
vn -0.6543 0.5435 0.5259
vn -0.4249 0.4200 0.8019
vn -0.4822 0.4315 0.7624
vn -0.1348 -0.9701 0.2017
vn -0.1860 -0.0296 0.9821
vn -0.6543 0.5434 0.5259
vn -0.7319 -0.0770 0.6770
vn -0.4744 0.3049 0.8258
vn -0.7320 -0.0770 0.6770
vn -0.4150 0.4040 0.8152
vn -0.2731 -0.9311 0.2417
vn -0.1716 -0.9701 0.1716
vn -0.5823 0.8130 0.0079
vn -0.9026 0.4062 0.1428
vn -0.5453 0.4573 0.7025
vn -0.1715 -0.9701 0.1715
vn -0.7320 -0.0770 0.6769
vn -0.9025 0.4062 0.1429
vn -0.9688 -0.1038 0.2252
vn -0.4823 0.4315 0.7624
vn -0.5512 0.3384 0.7627
vn -0.6239 -0.5880 0.5148
vn -0.9688 -0.1039 0.2252
vn -0.8455 -0.5115 0.1533
vn -0.4873 0.4280 0.7611
vn -0.8455 -0.5116 0.1533
vn -0.6019 -0.7982 0.0258
vn -0.3915 0.6243 0.6760
vn -0.1647 -0.9845 0.0608
vn -0.6018 -0.7982 0.0258
vn -0.3752 -0.9267 0.0201
vn -0.3539 0.7763 0.5216
vn -0.1800 -0.9565 0.2298
vn -0.3752 -0.9267 0.0202
vn -0.3105 -0.9351 0.1708
vn -0.1747 0.9785 0.1097
vn -0.3539 0.7764 0.5215
vn -0.3937 0.8959 0.2056
vn -0.1800 -0.9564 0.2298
vn -0.3937 0.8960 0.2055
vn -0.5822 0.8130 0.0079
vn -0.3753 -0.9267 0.0201
vn -0.7035 -0.7107 0.0025
vn -0.4912 -0.8690 0.0602
vn -0.5147 0.6423 0.5679
vn -0.4934 0.7162 0.4935
vn -0.3105 -0.9351 0.1707
vn -0.4911 -0.8690 0.0603
vn -0.3901 -0.9056 0.1666
vn -0.3540 0.7763 0.5215
vn -0.4934 0.7163 0.4935
vn -0.6072 0.7190 0.3382
vn -0.2732 -0.9311 0.2417
vn -0.3220 -0.9250 0.2015
vn -0.3938 0.8959 0.2056
vn -0.7824 0.6184 0.0733
vn -0.3220 -0.9251 0.2015
vn -0.2017 -0.9701 0.1348
vn -0.9025 0.4062 0.1428
vn -0.5823 0.8129 0.0079
vn -0.7825 0.6184 0.0733
vn -0.9549 0.2942 -0.0396
vn -0.6147 0.4939 0.6149
vn -0.9550 0.2941 -0.0396
vn -0.9949 -0.0955 -0.0339
vn -0.6148 0.4939 0.6149
vn -0.6628 0.3772 0.6468
vn -0.8455 -0.5115 0.1532
vn -0.9688 -0.1038 0.2251
vn -0.9948 -0.0956 -0.0339
vn -0.9000 -0.4356 -0.0152
vn -0.4874 0.4280 0.7611
vn -0.6232 0.4622 0.6309
vn -0.8455 -0.5116 0.1532
vn -0.9000 -0.4357 -0.0152
vn -0.7036 -0.7106 0.0025
vn -0.4873 0.4281 0.7611
vn -0.5147 0.6423 0.5680
vn -0.6148 0.4940 0.6149
vn -0.6843 0.5332 0.4974
vn -0.2224 -0.9703 0.0955
vn -0.9549 0.2941 -0.0396
vn -0.9720 0.1912 0.1364
vn -0.9937 -0.0737 0.0843
vn -0.7916 0.3992 0.4626
vn -0.9937 -0.0738 0.0843
vn -0.9241 -0.3653 0.1125
vn -0.7829 0.4867 0.3875
vn -0.9240 -0.3654 0.1124
vn -0.7400 -0.6538 0.1581
vn -0.6373 0.6832 0.3566
vn -0.4912 -0.8690 0.0603
vn -0.7399 -0.6539 0.1581
vn -0.5210 -0.8311 0.1942
vn -0.5840 0.7094 0.3946
vn -0.5210 -0.8312 0.1942
vn -0.4024 -0.8903 0.2133
vn -0.6072 0.7189 0.3382
vn -0.4935 0.7162 0.4935
vn -0.7099 0.5787 0.4014
vn -0.4024 -0.8902 0.2133
vn -0.3317 -0.9275 0.1723
vn -0.6073 0.7189 0.3382
vn -0.7100 0.5787 0.4013
vn -0.8681 0.4074 0.2835
vn -0.2018 -0.9701 0.1348
vn -0.7825 0.6183 0.0733
vn -0.8682 0.4074 0.2834
vn -0.6373 0.6832 0.3565
vn -0.6742 0.7337 0.0846
vn -0.5830 0.7771 0.2370
vn -0.4024 -0.8902 0.2134
vn -0.5210 -0.8312 0.1943
vn -0.4796 -0.8061 0.3468
vn -0.3594 -0.8990 0.2502
vn -0.5831 0.7771 0.2371
vn -0.7476 0.5575 0.3610
vn -0.3595 -0.8990 0.2502
vn -0.3135 -0.9401 0.1343
vn -0.7100 0.5786 0.4014
vn -0.8741 0.3093 0.3746
vn -0.3135 -0.9401 0.1342
vn -0.2315 -0.9712 0.0572
vn -0.9720 0.1912 0.1365
vn -0.8682 0.4073 0.2835
vn -0.9299 0.1174 0.3487
vn -0.7410 0.5658 0.3617
vn -0.2314 -0.9712 0.0572
vn -0.9299 0.1173 0.3487
vn -0.9402 -0.0571 0.3357
vn -0.6844 0.5332 0.4974
vn -0.7410 0.5657 0.3617
vn -0.8931 0.3850 0.2326
vn -0.8844 -0.2953 0.3615
vn -0.7917 0.3992 0.4625
vn -0.8797 0.4692 0.0774
vn -0.7399 -0.6538 0.1582
vn -0.9240 -0.3654 0.1125
vn -0.7072 -0.5937 0.3838
vn -0.8797 0.4693 0.0773
vn -0.5210 -0.8311 0.1943
vn -0.7399 -0.6539 0.1582
vn -0.7072 -0.5938 0.3838
vn -0.9402 -0.0571 0.3358
vn -0.9322 0.1251 0.3397
vn -0.9343 -0.0515 0.3527
vn -0.7756 0.5873 0.2314
vn -0.9423 0.3344 0.0161
vn -0.9343 -0.0515 0.3528
vn -0.8873 -0.2673 0.3759
vn -0.8797 0.4692 0.0773
vn -0.8932 0.3850 0.2326
vn -0.8920 0.4073 -0.1959
vn -0.8843 -0.2953 0.3616
vn -0.7081 -0.5804 0.4022
vn -0.8920 0.4074 -0.1959
vn -0.6260 0.7603 -0.1733
vn -0.7080 -0.5805 0.4022
vn -0.4330 -0.8264 0.3599
vn -0.6259 0.7604 -0.1733
vn -0.4802 0.8765 0.0346
vn -0.4795 -0.8061 0.3468
vn -0.4329 -0.8265 0.3599
vn -0.2846 -0.9306 0.2302
vn -0.5831 0.7771 0.2370
vn -0.4802 0.8764 0.0347
vn -0.7400 0.6365 0.2174
vn -0.2846 -0.9306 0.2301
vn -0.2787 -0.9567 0.0842
vn -0.8741 0.3094 0.3746
vn -0.7401 0.6364 0.2175
vn -0.8884 0.3512 0.2955
vn -0.2787 -0.9567 0.0841
vn -0.2307 -0.9729 0.0143
vn -0.7755 0.5874 0.2314
vn -0.2306 -0.9729 0.0144
vn -0.2845 -0.9306 0.2301
vn -0.3927 -0.8892 0.2350
vn -0.2019 -0.9671 0.1549
vn -0.3233 0.9333 -0.1561
vn -0.6442 0.7642 -0.0314
vn -0.2786 -0.9567 0.0842
vn -0.2314 -0.9726 0.0227
vn -0.7401 0.6364 0.2174
vn -0.6443 0.7642 -0.0314
vn -0.8764 0.4770 0.0662
vn -0.2786 -0.9567 0.0841
vn -0.2315 -0.9726 0.0226
vn -0.2217 -0.9744 -0.0371
vn -0.9322 0.1251 0.3396
vn -0.8885 0.3512 0.2955
vn -0.8765 0.4769 0.0662
vn -0.9661 0.2068 0.1545
vn -0.7877 0.6029 0.1264
vn -0.2307 -0.9729 0.0144
vn -0.9794 -0.0477 0.1962
vn -0.7878 0.6029 0.1264
vn -0.9545 0.2708 -0.1246
vn -0.9794 -0.0478 0.1962
vn -0.9312 -0.2978 0.2102
vn -0.8920 0.4073 -0.1960
vn -0.9545 0.2708 -0.1247
vn -0.8806 0.3263 -0.3436
vn -0.7081 -0.5805 0.4021
vn -0.8873 -0.2674 0.3759
vn -0.7336 -0.6376 0.2353
vn -0.6260 0.7603 -0.1734
vn -0.8920 0.4074 -0.1960
vn -0.8806 0.3264 -0.3437
vn -0.5815 0.7433 -0.3308
vn -0.7080 -0.5805 0.4021
vn -0.7335 -0.6376 0.2353
vn -0.3927 -0.8891 0.2350
vn -0.5814 0.7433 -0.3308
vn -0.7878 0.6028 0.1264
vn -0.7828 0.6199 0.0538
vn -0.9594 0.2248 -0.1703
vn -0.9993 0.0041 0.0384
vn -0.9280 -0.3670 0.0643
vn -0.9052 0.2366 -0.3530
vn -0.9280 -0.3671 0.0643
vn -0.6832 -0.7281 0.0554
vn -0.9052 0.2367 -0.3530
vn -0.6279 0.6767 -0.3844
vn -0.6831 -0.7282 0.0554
vn -0.3132 -0.9469 0.0726
vn -0.3233 0.9333 -0.1562
vn -0.6278 0.6768 -0.3844
vn -0.2433 0.9210 -0.3044
vn -0.3926 -0.8892 0.2350
vn -0.1161 -0.9921 0.0481
vn -0.2433 0.9210 -0.3043
vn -0.4137 0.8528 -0.3187
vn -0.2313 -0.9726 0.0220
vn -0.1806 -0.9820 -0.0543
vn -0.8764 0.4770 0.0661
vn -0.7303 0.6405 -0.2374
vn -0.2314 -0.9726 0.0226
vn -0.1807 -0.9820 -0.0544
vn -0.2059 -0.9745 -0.0894
vn -0.9216 0.3796 -0.0804
vn -0.7828 0.6200 0.0538
vn -0.9794 -0.0477 0.1961
vn -0.9217 0.3795 -0.0805
vn -0.2432 0.9210 -0.3044
vn -0.3444 0.8453 -0.4085
vn -0.2086 0.8413 -0.4987
vn -0.1806 -0.9821 -0.0544
vn -0.0239 -0.9966 -0.0786
vn -0.1376 -0.9804 -0.1411
vn -0.7303 0.6405 -0.2375
vn -0.2087 0.8413 -0.4987
vn -0.4067 0.7870 -0.4638
vn -0.1841 -0.9733 -0.1369
vn -0.9216 0.3796 -0.0805
vn -0.4068 0.7870 -0.4638
vn -0.7118 0.6164 -0.3366
vn -0.7606 0.6492 -0.0021
vn -0.1841 -0.9733 -0.1368
vn -0.9993 0.0042 0.0383
vn -0.7119 0.6164 -0.3367
vn -0.9522 0.0934 -0.2908
vn -0.7828 0.6199 0.0537
vn -0.7606 0.6492 -0.0022
vn -0.9592 0.2276 -0.1678
vn -0.9993 0.0041 0.0383
vn -0.9522 0.0934 -0.2909
vn -0.8452 -0.4831 -0.2285
vn -0.9592 0.2275 -0.1679
vn -0.9549 0.1410 -0.2615
vn -0.6832 -0.7282 0.0554
vn -0.5113 -0.8455 -0.1537
vn -0.6279 0.6768 -0.3844
vn -0.9548 0.1411 -0.2615
vn -0.7771 0.5305 -0.3385
vn -0.1685 -0.9812 -0.0942
vn -0.2433 0.9209 -0.3044
vn -0.7771 0.5306 -0.3385
vn -0.1684 -0.9812 -0.0942
vn -0.8452 -0.4831 -0.2286
vn -0.5440 0.1788 -0.8198
vn -0.4511 -0.5500 -0.7029
vn -0.9296 0.3133 -0.1942
vn -0.9813 0.0946 -0.1676
vn -0.5113 -0.8455 -0.1538
vn -0.1647 -0.8886 -0.4281
vn -0.9286 0.3136 -0.1985
vn 0.0427 -0.9619 -0.2702
vn -0.3445 0.8453 -0.4085
vn -0.6591 0.6356 -0.4020
vn 0.0555 -0.9746 -0.2169
vn -0.3444 0.8453 -0.4086
vn -0.2763 0.7604 -0.5877
vn -0.1123 -0.9674 -0.2271
vn -0.4067 0.7871 -0.4638
vn -0.1246 0.8144 -0.5668
vn -0.1124 -0.9674 -0.2271
vn -0.1591 -0.9717 -0.1749
vn -0.1247 0.8144 -0.5668
vn -0.2852 0.7510 -0.5956
vn -0.7149 0.6961 -0.0661
vn -0.1590 -0.9717 -0.1748
vn -0.7118 0.6164 -0.3367
vn -0.2852 0.7509 -0.5956
vn -0.7150 0.6960 -0.0662
vn -0.9296 0.3134 -0.1943
vn -0.1123 -0.9674 -0.2272
vn 0.0790 -0.9334 -0.3501
vn -0.1025 -0.9480 -0.3014
vn -0.1246 0.8143 -0.5668
vn -0.6586 0.4772 -0.5818
vn -0.1626 0.7053 -0.6900
vn -0.1590 -0.9717 -0.1749
vn -0.1026 -0.9480 -0.3014
vn -0.1294 -0.9706 -0.2029
vn 0.0986 0.6748 -0.7314
vn -0.7149 0.6960 -0.0661
vn -0.6527 0.7457 -0.1338
vn -0.1293 -0.9706 -0.2029
vn -0.5440 0.1787 -0.8198
vn -0.2852 0.7509 -0.5957
vn 0.0985 0.6748 -0.7314
vn 0.1218 0.1979 -0.9726
vn -0.8358 0.4727 -0.2794
vn 0.1492 -0.4257 -0.8925
vn -0.9813 0.0947 -0.1677
vn -0.9296 0.3133 -0.1943
vn -0.8358 0.4726 -0.2794
vn -0.9571 0.1997 -0.2101
vn -0.1646 -0.8886 -0.4281
vn 0.2199 -0.7647 -0.6057
vn -0.9286 0.3135 -0.1985
vn -0.9571 0.1996 -0.2101
vn -0.9722 0.1850 -0.1432
vn 0.0427 -0.9618 -0.2703
vn 0.2225 -0.8784 -0.4231
vn -0.9722 0.1851 -0.1432
vn -0.9091 0.2931 -0.2960
vn 0.2225 -0.8784 -0.4230
vn 0.0790 -0.9334 -0.3500
vn -0.2764 0.7604 -0.5877
vn -0.6591 0.6356 -0.4021
vn 0.2200 -0.7647 -0.6057
vn 0.4244 -0.2964 -0.8556
vn 0.3650 -0.6325 -0.6832
vn -0.9722 0.1851 -0.1433
vn -0.8135 0.4394 -0.3810
vn -0.9017 0.3029 -0.3086
vn 0.2225 -0.8783 -0.4231
vn 0.3649 -0.6325 -0.6832
vn 0.2266 -0.8048 -0.5486
vn -0.9249 0.1586 -0.3455
vn 0.2265 -0.8048 -0.5486
vn 0.0308 -0.8876 -0.4597
vn -0.9249 0.1586 -0.3456
vn -0.8552 0.0890 -0.5106
vn 0.0307 -0.8876 -0.4597
vn -0.0913 -0.9297 -0.3568
vn -0.1625 0.7053 -0.6900
vn -0.6587 0.4772 -0.5818
vn -0.8551 0.0890 -0.5107
vn -0.5380 0.2459 -0.8063
vn -0.0914 -0.9702 -0.2244
vn 0.0876 0.4315 -0.8979
vn -0.5960 0.7828 -0.1790
vn 0.1219 0.1979 -0.9726
vn 0.0877 0.4314 -0.8979
vn 0.3707 0.1636 -0.9142
vn -0.6527 0.7457 -0.1339
vn -0.5961 0.7827 -0.1791
vn -0.7008 0.6100 -0.3697
vn 0.3707 0.1635 -0.9143
vn -0.7009 0.6100 -0.3698
vn -0.0578 -0.9189 -0.3902
vn -0.0472 -0.9701 -0.2380
vn -0.5380 0.2458 -0.8063
vn -0.5755 -0.2400 -0.7818
vn -0.2090 -0.0451 -0.9769
vn -0.5395 0.8177 -0.2008
vn -0.0472 -0.9701 -0.2379
vn 0.3706 0.1636 -0.9143
vn 0.1283 0.0081 -0.9917
vn -0.5960 0.7827 -0.1791
vn -0.5395 0.8177 -0.2009
vn -0.5816 0.6904 -0.4301
vn 0.3706 0.1635 -0.9143
vn 0.1284 0.0080 -0.9917
vn 0.2485 -0.2902 -0.9241
vn -0.8134 0.4395 -0.3810
vn -0.7008 0.6100 -0.3698
vn -0.5817 0.6904 -0.4301
vn -0.6254 0.6085 -0.4885
vn 0.2485 -0.2903 -0.9241
vn 0.2102 -0.5875 -0.7814
vn -0.9016 0.3030 -0.3086
vn -0.8135 0.4395 -0.3810
vn -0.6254 0.6084 -0.4885
vn -0.7032 0.5181 -0.4869
vn 0.2102 -0.5876 -0.7814
vn 0.0968 -0.7525 -0.6514
vn -0.9017 0.3030 -0.3086
vn -0.7826 0.2608 -0.5652
vn 0.0307 -0.8875 -0.4597
vn -0.0131 -0.8478 -0.5302
vn -0.8552 0.0889 -0.5106
vn -0.7589 -0.0779 -0.6465
vn -0.8552 0.0889 -0.5107
vn -0.7031 0.5182 -0.4869
vn -0.4814 0.7018 -0.5251
vn -0.4999 0.6442 -0.5789
vn 0.2101 -0.5876 -0.7814
vn 0.0902 -0.5567 -0.8258
vn -0.4967 0.3683 -0.7859
vn 0.0544 -0.7115 -0.7005
vn -0.7589 -0.0779 -0.6466
vn -0.7826 0.2608 -0.5653
vn 0.0036 -0.9152 -0.4030
vn -0.5755 -0.2401 -0.7818
vn -0.7589 -0.0780 -0.6466
vn -0.4249 -0.1374 -0.8947
vn -0.2852 -0.4599 -0.8409
vn -0.0577 -0.9189 -0.3902
vn -0.1583 -0.3340 -0.9292
vn 0.1283 0.0080 -0.9917
vn -0.1582 -0.3339 -0.9292
vn -0.5816 0.6905 -0.4301
vn -0.4654 0.7530 -0.4652
vn 0.2101 -0.5875 -0.7815
vt 0.208687 0.283805
vt 0.176141 0.271243
vt 0.187026 0.242770
vt 0.218767 0.258062
vt 0.164914 0.652314
vt 0.123259 0.621532
vt 0.138407 0.598198
vt 0.190346 0.624720
vt 0.242580 0.293500
vt 0.251131 0.271623
vt 0.206384 0.685730
vt 0.243334 0.653003
vt 0.276141 0.300099
vt 0.282865 0.282928
vt 0.232857 0.710770
vt 0.269982 0.676347
vt 0.308117 0.303372
vt 0.312748 0.291545
vt 0.077960 0.229718
vt 0.033282 0.217649
vt 0.037799 0.175337
vt 0.088806 0.195793
vt 0.337271 0.303171
vt 0.339632 0.297141
vt 0.119772 0.240856
vt 0.131396 0.212659
vt 0.034827 0.554604
vt 0.000288 0.527879
vt 0.038513 0.544214
vt 0.737096 0.709280
vt 0.754835 0.679732
vt 0.757977 0.683664
vt 0.148729 0.255270
vt 0.159507 0.227118
vt 0.078904 0.589043
vt 0.087108 0.570430
vt 0.175019 0.197627
vt 0.202073 0.214547
vt 0.092789 0.548818
vt 0.149650 0.569755
vt 0.232170 0.232479
vt 0.209588 0.590467
vt 0.262530 0.249866
vt 0.264660 0.610128
vt 0.291820 0.265834
vt 0.000000 0.150619
vt 0.020543 0.107216
vt 0.064869 0.130005
vt 0.318917 0.279771
vt 0.111842 0.154122
vt 0.342777 0.291139
vt 0.148649 0.179000
vt 0.041004 0.532931
vt 0.760230 0.688539
vt 0.302664 0.249474
vt 0.326386 0.268501
vt 0.095816 0.098079
vt 0.135321 0.123403
vt 0.346585 0.285394
vt 0.167071 0.148051
vt 0.042228 0.521425
vt 0.761509 0.694167
vt 0.193712 0.168040
vt 0.095255 0.525661
vt 0.220135 0.187246
vt 0.155661 0.537407
vt 0.248398 0.207994
vt 0.219457 0.551876
vt 0.276331 0.229043
vt 0.268917 0.571311
vt 0.048127 0.073531
vt 0.094379 0.503117
vt 0.154953 0.505015
vt 0.240439 0.162256
vt 0.266833 0.185544
vt 0.221521 0.509825
vt 0.292006 0.209953
vt 0.269982 0.531870
vt 0.314979 0.234475
vt 0.071369 0.039082
vt 0.121381 0.069187
vt 0.334869 0.258170
vt 0.156503 0.100651
vt 0.350909 0.280127
vt 0.187405 0.125632
vt 0.042196 0.510455
vt 0.761764 0.700335
vt 0.214637 0.143339
vt 0.147134 0.041607
vt 0.180002 0.083276
vt 0.344039 0.249174
vt 0.355584 0.275541
vt 0.212074 0.107512
vt 0.040944 0.500745
vt 0.760986 0.706803
vt 0.238860 0.122184
vt 0.090677 0.483930
vt 0.262856 0.140152
vt 0.147057 0.476531
vt 0.287145 0.165683
vt 0.210893 0.470428
vt 0.309252 0.193312
vt 0.263319 0.483927
vt 0.328342 0.221426
vt 0.103559 0.000000
vt 0.286298 0.119667
vt 0.309433 0.148580
vt 0.134484 0.458038
vt 0.188387 0.445175
vt 0.328079 0.179581
vt 0.821974 0.927706
vt 0.770725 0.880425
vt 0.788264 0.852349
vt 0.832742 0.891418
vt 0.342495 0.210886
vt 0.886057 0.929831
vt 0.889924 0.894529
vt 0.353544 0.241859
vt 0.175754 0.032266
vt 0.208075 0.066732
vt 0.360430 0.271812
vt 0.236788 0.083998
vt 0.466952 0.013317
vt 0.506370 0.020760
vt 0.462432 0.023381
vt 0.759203 0.713324
vt 0.261807 0.097858
vt 0.038524 0.492842
vt 0.085114 0.470377
vt 0.363035 0.236540
vt 0.365260 0.269083
vt 0.230123 0.046150
vt 0.254365 0.052596
vt 0.460312 0.033423
vt 0.756486 0.719647
vt 0.281554 0.065942
vt 0.432814 0.038562
vt 0.432910 0.059374
vt 0.312092 0.098139
vt 0.772918 0.802073
vt 0.761764 0.755704
vt 0.774301 0.746154
vt 0.795626 0.784942
vt 0.334573 0.134777
vt 0.818646 0.821913
vt 0.348598 0.169721
vt 0.855347 0.847047
vt 0.357397 0.203698
vt 0.897390 0.859007
vt 0.937583 0.888621
vt 0.934620 0.872504
vt 0.816387 0.768670
vt 0.845248 0.796756
vt 0.366084 0.124074
vt 0.371283 0.164842
vt 0.874973 0.816395
vt 0.372546 0.200238
vt 0.903145 0.831339
vt 0.372258 0.233591
vt 0.928514 0.852726
vt 0.369889 0.267459
vt 0.819502 0.361866
vt 0.817902 0.335809
vt 0.839298 0.309948
vt 0.860568 0.345826
vt 0.460442 0.042787
vt 0.752938 0.725529
vt 0.276028 0.013700
vt 0.314480 0.026342
vt 0.767114 0.707008
vt 0.772520 0.701452
vt 0.787361 0.735640
vt 0.349571 0.074052
vt 0.858225 0.273627
vt 0.891535 0.300953
vt 0.462488 0.050918
vt 0.748696 0.730744
vt 0.200473 0.762963
vt 0.237728 0.723411
vt 0.274145 0.728913
vt 0.235953 0.777531
vt 0.778339 0.695282
vt 0.799156 0.724298
vt 0.362097 -0.000000
vt 0.395997 0.057208
vt 0.831297 0.751621
vt 0.401515 0.118681
vt 0.862371 0.773164
vt 0.394503 0.164997
vt 0.889216 0.789096
vt 0.386863 0.200411
vt 0.909760 0.802853
vt 0.380880 0.233065
vt 0.831306 0.286561
vt 0.831354 0.258490
vt 0.374140 0.267002
vt 0.432814 0.122352
vt 0.413685 0.170332
vt 0.873749 0.748777
vt 0.899864 0.759452
vt 0.398865 0.203791
vt 0.916457 0.768105
vt 0.388322 0.234692
vt 0.827756 0.224901
vt 0.865016 0.226925
vt 0.377848 0.267731
vt 0.896102 0.242270
vt 0.466195 0.057562
vt 0.743922 0.735091
vt 0.328639 0.747047
vt 0.295165 0.805797
vt 0.784271 0.688811
vt 0.809189 0.712197
vt 0.218764 0.842656
vt 0.269746 0.867842
vt 0.842206 0.733740
vt 0.432574 0.060007
vt 0.738800 0.738404
vt 0.387216 0.776073
vt 0.356821 0.835679
vt 0.790106 0.682307
vt 0.817914 0.700115
vt 0.324009 0.892740
vt 0.850964 0.717012
vt 0.259672 0.911194
vt 0.301687 0.929278
vt 0.881431 0.726714
vt 0.754918 0.805965
vt 0.761764 0.841929
vt 0.725014 0.858584
vt 0.730187 0.818155
vt 0.907219 0.731327
vt 0.749240 0.779704
vt 0.733009 0.789013
vt 0.924753 0.733528
vt 0.746580 0.757801
vt 0.736352 0.764297
vt 0.817902 0.193141
vt 0.846549 0.185738
vt 0.353580 0.721201
vt 0.395523 0.744518
vt 0.471331 0.062572
vt 0.703905 0.821409
vt 0.715829 0.794047
vt 0.914535 0.707866
vt 0.937583 0.707575
vt 0.725778 0.768466
vt 0.444060 0.279203
vt 0.464231 0.243286
vt 0.482183 0.251182
vt 0.481625 0.286038
vt 0.733527 0.740556
vt 0.432814 0.337046
vt 0.483456 0.332836
vt 0.477619 0.065888
vt 0.462798 0.392615
vt 0.506039 0.376282
vt 0.459234 0.108680
vt 0.469127 0.113206
vt 0.395523 0.856312
vt 0.363355 0.903954
vt 0.825909 0.689199
vt 0.858920 0.702049
vt 0.338604 0.935003
vt 0.887904 0.707185
vt 0.687467 0.852377
vt 0.484827 0.067505
vt 0.480267 0.114947
vt 0.549479 0.400329
vt 0.548220 0.345271
vt 0.579542 0.369494
vt 0.833203 0.679721
vt 0.866359 0.688329
vt 0.593384 0.399642
vt 0.610069 0.380720
vt 0.895441 0.689428
vt 0.659065 0.836893
vt 0.680516 0.818105
vt 0.923343 0.687145
vt 0.699354 0.795114
vt 0.480976 0.219773
vt 0.496128 0.223184
vt 0.504784 0.254294
vt 0.715411 0.770200
vt 0.516990 0.285370
vt 0.728306 0.741463
vt 0.528777 0.316677
vt 0.517332 0.222934
vt 0.530817 0.253884
vt 0.684738 0.793363
vt 0.705653 0.769463
vt 0.545024 0.283782
vt 0.723337 0.741090
vt 0.558466 0.310529
vt 0.492754 0.067486
vt 0.576320 0.333667
vt 0.492591 0.114039
vt 0.601386 0.353903
vt 0.484701 0.154270
vt 0.499211 0.153607
vt 0.004492 0.891530
vt 0.004384 0.855903
vt 0.024674 0.848735
vt 0.022503 0.882069
vt 0.490219 0.189203
vt 0.507525 0.189598
vt 0.636745 0.824710
vt 0.661260 0.812449
vt 0.021482 0.812448
vt 0.052640 0.808509
vt 0.051105 0.846283
vt 0.505936 0.110646
vt 0.515910 0.150226
vt 0.044247 0.879948
vt 0.527841 0.187309
vt 0.013152 0.911131
vt 0.031639 0.909621
vt 0.541617 0.221321
vt -0.000000 0.936269
vt 0.015394 0.935740
vt 0.555911 0.251442
vt 0.671834 0.788648
vt 0.696775 0.766251
vt 0.011494 0.750816
vt -0.000000 0.721425
vt 0.027489 0.723182
vt 0.042108 0.745778
vt 0.718811 0.739453
vt 0.017589 0.780484
vt 0.050174 0.774490
vt 0.501217 0.065977
vt 0.660802 0.780795
vt 0.689107 0.760681
vt 0.565145 0.280809
vt 0.576739 0.245164
vt 0.580627 0.272096
vt 0.714902 0.736613
vt 0.068309 0.734886
vt 0.083960 0.759403
vt 0.509896 0.063132
vt 0.092687 0.801077
vt 0.520063 0.104949
vt 0.087701 0.849987
vt 0.534094 0.144050
vt 0.070512 0.886113
vt 0.550183 0.182190
vt 0.049946 0.912189
vt 0.566829 0.217767
vt 0.645079 0.806293
vt 0.631575 0.798932
vt 0.534703 0.097143
vt 0.553428 0.134808
vt 0.137941 0.862273
vt 0.102293 0.901112
vt 0.574185 0.173161
vt 0.067329 0.918916
vt 0.592803 0.208291
vt 0.621441 0.790770
vt 0.652169 0.770373
vt 0.600201 0.231735
vt 0.682945 0.752967
vt 0.600417 0.255040
vt 0.711761 0.732680
vt 0.093994 0.721201
vt 0.128885 0.737135
vt 0.518528 0.059134
vt 0.150746 0.795491
vt 0.269982 0.451639
vt 0.295227 0.445175
vt 0.306247 0.478654
vt 0.272843 0.496616
vt 0.678525 0.743406
vt 0.709507 0.727806
vt 0.824093 0.105600
vt 0.817902 0.062599
vt 0.850969 0.033138
vt 0.869586 0.077928
vt 0.526849 0.054198
vt 0.855335 0.162886
vt 0.911982 0.141848
vt 0.549223 0.087648
vt 0.200473 0.798531
vt 0.185935 0.877881
vt 0.573024 0.122545
vt 0.131131 0.917683
vt 0.598416 0.159406
vt 0.385445 0.456995
vt 0.408978 0.445175
vt 0.408978 0.487486
vt 0.378422 0.483419
vt 0.619906 0.192397
vt 0.613660 0.776808
vt 0.646040 0.757143
vt 0.630446 0.211316
vt 0.576502 0.813961
vt 0.514258 0.847975
vt 0.503412 0.788706
vt 0.566504 0.775683
vt 0.591235 0.108200
vt 0.620621 0.141455
vt 0.608241 0.754268
vt 0.645608 0.171971
vt 0.642450 0.741048
vt 0.662346 0.188416
vt 0.676016 0.732364
vt 0.325074 0.510528
vt 0.298880 0.539126
vt 0.708229 0.722177
vt 0.892765 0.002029
vt 0.926631 0.033552
vt 0.534599 0.048570
vt 0.970748 0.094317
vt 0.562867 0.077055
vt 0.951418 0.185738
vt 1.000000 0.137283
vt 0.675516 0.720267
vt 0.707973 0.716010
vt 0.269982 0.578954
vt 0.336838 0.561498
vt 0.330766 0.596285
vt 0.541527 0.042493
vt 0.961450 0.000000
vt 1.000000 0.043223
vt 0.574654 0.066081
vt 0.436553 0.774770
vt 0.458809 0.707835
vt 0.512353 0.726053
vt 0.605766 0.094171
vt 0.564878 0.730487
vt 0.638536 0.122572
vt 0.606464 0.726811
vt 0.666635 0.149496
vt 0.641516 0.722827
vt 0.688086 0.167724
vt 0.347045 0.533305
vt 0.570546 0.692812
vt 0.608861 0.699703
vt 0.651545 0.105610
vt 0.682165 0.126621
vt 0.643419 0.703782
vt 0.707155 0.147769
vt 0.677043 0.707579
vt 0.369796 0.548159
vt 0.371360 0.569432
vt 0.708752 0.709542
vt 0.378422 0.591258
vt 0.547405 0.036165
vt 0.432814 0.683337
vt 0.468881 0.650264
vt 0.490753 0.664560
vt 0.583784 0.055496
vt 0.528890 0.680980
vt 0.615782 0.082154
vt 0.552052 0.029755
vt 0.710534 0.703021
vt 0.493185 0.622805
vt 0.514507 0.634324
vt 0.590017 0.045716
vt 0.543737 0.649115
vt 0.622051 0.071730
vt 0.578904 0.664300
vt 0.660660 0.091704
vt 0.614892 0.676594
vt 0.694140 0.104877
vt 0.648531 0.685874
vt 0.721502 0.123797
vt 0.680538 0.694788
vt 0.732117 0.164056
vt 0.745736 0.145178
vt 0.761349 0.184023
vt 0.769327 0.166845
vt 0.666498 0.080791
vt 0.702671 0.084994
vt 0.624830 0.656364
vt 0.656959 0.669534
vt 0.731934 0.098143
vt 0.685939 0.682501
vt 0.758307 0.119681
vt 0.713251 0.696698
vt 0.780882 0.143895
vt 0.555336 0.023403
vt 0.506786 0.591788
vt 0.528850 0.604341
vt 0.593659 0.036663
vt 0.556090 0.620647
vt 0.624897 0.062616
vt 0.589585 0.639682
vt 0.800740 0.170468
vt 0.795917 0.116115
vt 0.817902 0.145630
vt 0.557166 0.017197
vt 0.595163 0.028069
vt 0.541139 0.569945
vt 0.569919 0.588660
vt 0.624392 0.054555
vt 0.604692 0.613368
vt 0.907081 0.411394
vt 0.940277 0.400329
vt 0.941776 0.412034
vt 0.907235 0.427569
vt 0.639615 0.636704
vt 0.872932 0.414120
vt 0.868636 0.433740
vt 0.668343 0.654365
vt 0.707634 0.067977
vt 0.738068 0.072454
vt 0.693103 0.671241
vt 0.768659 0.091294
vt 0.716799 0.690816
vt 0.659298 0.617109
vt 0.682395 0.640445
vt 0.840458 0.437032
vt 0.870468 0.455712
vt 0.840234 0.462144
vt 0.701638 0.661230
vt 0.738793 0.049477
vt 0.773368 0.061962
vt 0.721042 0.685601
vt 0.808164 0.084442
vt 0.557480 0.011180
vt 0.515906 0.556208
vt 0.528068 0.516761
vt 0.557774 0.530816
vt 0.595031 0.019596
vt 0.590827 0.552435
vt 0.937583 0.694811
vt 0.954100 0.679721
vt 0.961483 0.688775
vt 0.943076 0.708808
vt 0.626828 0.584441
vt 0.946846 0.425914
vt 0.913231 0.446328
vt 0.556222 0.005424
vt 0.593680 0.010855
vt 0.580126 0.488998
vt 0.618958 0.516198
vt 0.968681 0.698415
vt 0.949318 0.724650
vt 0.655862 0.556457
vt 0.953639 0.441509
vt 0.925248 0.467015
vt 0.682752 0.598712
vt 0.880846 0.479382
vt 0.698118 0.628033
vt 0.848312 0.490562
vt 0.711062 0.652701
vt 0.812603 0.473853
vt 0.819235 0.507417
vt 0.725816 0.681253
vt 0.769469 0.038454
vt 0.811640 0.052633
vt 0.549891 0.477127
vt 0.901028 0.503403
vt 0.866235 0.519273
vt 0.713899 0.617524
vt 0.721008 0.646003
vt 0.836958 0.542057
vt 0.730937 0.677940
vt 0.787145 0.528466
vt 0.801876 0.569295
vt 0.553332 0.000000
vt 0.769225 0.552782
vt 0.761764 0.604593
vt 0.013401 0.620081
vt 0.000000 0.581421
vt 0.005643 0.581453
vt 0.023535 0.622814
vt 0.611252 0.436335
vt 0.657599 0.474925
vt 0.976116 0.708314
vt 0.958704 0.740059
vt 0.691134 0.532306
vt 0.958884 0.457062
vt 0.940044 0.486444
vt 0.707904 0.582902
vt 0.661712 0.400329
vt 0.709956 0.445955
vt 0.983033 0.718092
vt 0.971435 0.753920
vt 0.727789 0.517396
vt 0.943989 0.768325
vt 0.957209 0.785136
vt 0.729823 0.571990
vt 0.950277 0.503129
vt 0.925306 0.524722
vt 0.291064 0.372860
vt 0.267236 0.406152
vt 0.253919 0.389182
vt 0.281856 0.362304
vt 0.894804 0.544427
vt 0.728182 0.609709
vt 0.731100 0.641491
vt 0.865357 0.572343
vt 0.736210 0.675789
vt 0.833317 0.609145
vt 0.011836 0.579804
vt 0.792109 0.662666
vt 0.034167 0.623969
vt 0.307745 0.342571
vt 0.274630 0.348476
vt 0.304932 0.334764
vt 0.923955 0.565449
vt 0.902226 0.591436
vt 0.741198 0.639596
vt 0.741431 0.674882
vt 0.879245 0.630005
vt 0.018315 0.576317
vt 0.860372 0.679721
vt 0.045621 0.621943
vt 0.139547 0.445175
vt 0.069139 0.422349
vt 0.087080 0.363473
vt 0.139582 0.385670
vt 0.987982 0.727523
vt 0.984400 0.766511
vt 0.209247 0.420864
vt 0.199517 0.380780
vt 0.976618 0.798999
vt 0.242851 0.364596
vt 0.954145 0.517988
vt 0.941868 0.543534
vt 0.154156 0.334694
vt 0.197747 0.341209
vt 0.992850 0.778456
vt 0.992731 0.813963
vt 0.236971 0.338868
vt 0.965401 0.823910
vt 0.985487 0.845206
vt 0.271112 0.333075
vt 0.955684 0.844485
vt 0.966418 0.871556
vt 0.304116 0.325385
vt 0.943895 0.591195
vt 0.933282 0.608105
vt 0.750897 0.640323
vt 0.746400 0.675254
vt 0.919725 0.631586
vt 0.024521 0.570903
vt 0.909023 0.664921
vt 0.057671 0.614953
vt 0.120625 0.318662
vt 0.075258 0.651033
vt 0.089406 0.649708
vt 0.759771 0.643534
vt 0.750926 0.676892
vt 0.958884 0.631403
vt 0.953306 0.639783
vt 0.030120 0.563608
vt 0.945509 0.658276
vt 0.068948 0.603893
vt 0.139404 0.284895
vt 0.166567 0.300107
vt 0.106106 0.639263
vt 0.201678 0.310276
vt 0.115810 0.678152
vt 0.138548 0.670979
vt 0.237395 0.315535
vt 0.139051 0.701876
vt 0.169661 0.701430
vt 0.272020 0.316865
vt 0.997936 0.872408
vt 0.978288 0.902805
vt 0.305201 0.314797
vt 0.947238 0.888602
vt 0.946534 0.914654
vt 0.192716 0.721201
vt 0.974660 0.936027
vt 0.937583 0.939541
vt 0.335785 0.308995
vt 0.115387 0.267074
vt 0.081683 0.252105
s 0
f 7/1/1 478/2/2 18/3/3 19/4/4
f 476/5/5 2/6/6 11/7/7 12/8/8
f 479/9/9 7/1/10 19/4/4 20/10/11
f 3/11/12 476/5/13 12/8/8 13/12/14
f 480/13/15 479/9/16 20/10/17 21/14/18
f 477/15/19 3/11/20 13/12/21 14/16/22
f 481/17/23 480/13/24 21/14/25 22/18/26
f 4/19/27 477/20/19 14/21/22 15/22/28
f 482/23/29 481/17/23 22/18/30 23/24/31
f 5/25/32 4/19/27 15/22/33 16/26/34
f 474/27/35 1/28/36 9/29/37
f 8/30/38 482/31/29 23/32/39
f 6/33/40 5/25/32 16/26/41 17/34/42
f 475/35/43 474/27/44 9/29/37 10/36/45
f 478/2/46 6/33/47 17/34/48 18/3/49
f 2/6/50 475/35/51 10/36/52 11/7/53
f 18/3/49 17/34/48 32/37/54 33/38/55
f 11/7/56 10/36/52 25/39/57 26/40/58
f 19/4/4 18/3/3 33/38/55 34/41/59
f 12/8/60 11/7/56 26/40/61 27/42/62
f 20/10/11 19/4/4 34/41/59 35/43/63
f 13/12/21 12/8/64 27/42/65 28/44/66
f 21/14/67 20/10/17 35/43/63 36/45/68
f 14/21/69 13/46/21 28/47/70 29/48/71
f 22/18/72 21/14/25 36/45/68 37/49/73
f 15/22/28 14/21/74 29/48/75 30/50/76
f 23/24/31 22/18/26 37/49/77 38/51/78
f 16/26/79 15/22/28 30/50/76 31/52/80
f 9/29/81 1/28/36 24/53/82
f 8/30/38 23/32/39 38/54/83
f 17/34/84 16/26/79 31/52/80 32/37/54
f 10/36/85 9/29/37 24/53/86 25/39/87
f 37/49/73 36/45/68 51/55/88 52/56/89
f 30/50/90 29/48/91 44/57/92 45/58/93
f 38/51/78 37/49/77 52/56/89 53/59/94
f 31/52/95 30/50/90 45/58/93 46/60/96
f 24/53/82 1/28/36 39/61/97
f 8/30/38 38/54/83 53/62/98
f 32/37/99 31/52/95 46/60/100 47/63/101
f 25/39/102 24/53/86 39/61/103 40/64/104
f 33/38/55 32/37/99 47/63/101 48/65/105
f 26/40/61 25/39/106 40/64/107 41/66/108
f 34/41/109 33/38/55 48/65/110 49/67/111
f 27/42/62 26/40/112 41/66/113 42/68/114
f 35/43/63 34/41/59 49/67/111 50/69/115
f 28/44/66 27/42/65 42/68/116 43/70/117
f 36/45/68 35/43/63 50/69/118 51/55/88
f 29/48/119 28/47/70 43/71/120 44/57/121
f 41/66/108 40/64/107 55/72/122 56/73/123
f 49/67/111 48/65/110 63/74/124 64/75/125
f 42/68/126 41/66/108 56/73/123 57/76/127
f 50/69/115 49/67/128 64/75/129 65/77/130
f 43/70/131 42/68/116 57/76/132 58/78/133
f 51/55/88 50/69/134 65/77/135 66/79/136
f 44/57/137 43/71/120 58/80/138 59/81/139
f 52/56/89 51/55/88 66/79/140 67/82/141
f 45/58/142 44/57/137 59/81/143 60/83/144
f 53/59/98 52/56/89 67/82/141 68/84/145
f 46/60/146 45/58/147 60/83/144 61/85/148
f 39/61/149 1/28/150 54/86/151
f 8/30/38 53/62/98 68/87/152
f 47/63/153 46/60/146 61/85/154 62/88/155
f 40/64/156 39/61/149 54/86/151 55/72/122
f 48/65/105 47/63/153 62/88/157 63/74/158
f 60/83/159 59/81/143 74/89/160 75/90/161
f 68/84/145 67/82/162 82/91/163 83/92/164
f 61/85/148 60/83/165 75/90/161 76/93/166
f 54/86/151 1/28/167 69/94/168
f 8/30/38 68/87/152 83/95/164
f 62/88/155 61/85/148 76/93/169 77/96/170
f 55/72/171 54/86/151 69/94/168 70/97/172
f 63/74/158 62/88/155 77/96/173 78/98/174
f 56/73/175 55/72/176 70/97/177 71/99/178
f 64/75/129 63/74/179 78/98/180 79/100/181
f 57/76/127 56/73/182 71/99/178 72/101/183
f 65/77/184 64/75/129 79/100/185 80/102/186
f 58/78/187 57/76/132 72/101/188 73/103/189
f 66/79/190 65/77/135 80/102/191 81/104/192
f 59/81/139 58/80/138 73/105/189 74/89/160
f 67/82/141 66/79/190 81/104/193 82/91/194
f 79/100/181 78/98/180 93/106/195 94/107/196
f 72/101/188 71/99/197 86/108/198 87/109/199
f 80/102/191 79/100/181 94/107/200 95/110/201
f 73/111/189 72/112/188 87/113/202 88/114/203
f 81/104/192 80/102/204 95/110/201 96/115/205
f 74/116/206 73/111/189 88/114/203 89/117/207
f 82/91/194 81/104/193 96/115/208 97/118/209
f 75/90/210 74/89/206 89/119/207 90/120/211
f 83/92/212 82/91/194 97/118/213 98/121/214
f 76/93/215 75/90/216 90/120/217 91/122/218
f 69/123/168 1/124/150 84/125/219
f 8/30/38 83/95/164 98/126/220
f 77/96/170 76/93/169 91/122/221 92/127/222
f 70/97/223 69/94/224 84/128/219 85/129/225
f 78/98/226 77/96/173 92/127/227 93/106/195
f 71/99/197 70/97/177 85/129/228 86/108/229
f 98/121/230 97/118/231 112/130/232 113/131/233
f 91/122/221 90/120/234 105/132/235 106/133/236
f 84/125/219 1/124/150 99/134/237
f 8/30/38 98/126/220 113/135/238
f 92/127/239 91/122/221 106/133/236 107/136/240
f 85/137/228 84/125/219 99/134/241 100/138/242
f 93/106/195 92/127/227 107/136/243 108/139/244
f 86/140/245 85/141/228 100/142/246 101/143/247
f 94/107/196 93/106/248 108/139/249 109/144/250
f 87/113/251 86/140/245 101/143/252 102/145/253
f 95/110/201 94/107/200 109/144/250 110/146/254
f 88/114/255 87/113/202 102/145/256 103/147/257
f 96/115/205 95/110/258 110/146/259 111/148/260
f 89/117/261 88/114/203 103/147/262 104/149/263
f 97/118/213 96/115/208 111/148/260 112/130/232
f 90/150/264 89/117/207 104/149/265 105/151/266
f 102/145/267 101/143/268 116/152/269 117/153/270
f 110/146/254 109/144/271 124/154/272 125/155/273
f 103/147/257 102/145/274 117/153/275 118/156/276
f 111/148/260 110/146/259 125/155/277 126/157/278
f 104/149/279 103/147/280 118/156/281 119/158/282
f 112/130/232 111/148/283 126/157/278 127/159/284
f 105/151/285 104/149/279 119/158/286 120/160/287
f 113/131/233 112/130/232 127/159/284 128/161/288
f 106/162/289 105/163/266 120/164/287 121/165/290
f 99/134/237 1/124/291 114/166/292
f 8/30/38 113/135/293 128/167/294
f 107/136/240 106/133/236 121/168/295 122/169/296
f 100/142/297 99/170/241 114/171/298 115/172/299
f 108/139/244 107/136/243 122/169/300 123/173/301
f 101/143/268 100/142/246 115/172/302 116/152/303
f 109/144/271 108/139/249 123/173/301 124/154/272
f 121/165/304 120/164/305 135/174/306 136/175/307
f 114/166/292 1/124/291 129/176/308
f 8/30/38 128/167/288 143/177/309
f 122/178/296 121/179/310 136/180/311 137/181/312
f 115/172/299 114/171/298 129/182/313 130/183/314
f 123/173/301 122/169/300 137/184/315 138/185/316
f 116/152/303 115/172/302 130/183/317 131/186/318
f 124/154/272 123/173/319 138/185/320 139/187/321
f 117/153/270 116/152/322 131/186/318 132/188/323
f 125/155/273 124/154/272 139/187/321 140/189/324
f 118/156/325 117/153/270 132/188/326 133/190/327
f 126/157/278 125/155/328 140/189/324 141/191/329
f 119/158/282 118/156/330 133/190/331 134/192/332
f 127/159/284 126/157/333 141/191/334 142/193/335
f 120/164/336 119/194/337 134/195/338 135/174/306
f 128/161/288 127/159/284 142/193/335 143/196/309
f 140/189/339 139/187/321 154/197/340 155/198/341
f 133/190/327 132/188/326 147/199/342 148/200/343
f 141/191/334 140/189/339 155/198/341 156/201/344
f 134/192/332 133/190/327 148/200/343 149/202/345
f 142/193/346 141/191/347 156/201/344 157/203/348
f 135/174/349 134/195/350 149/204/351 150/205/352
f 143/196/309 142/193/346 157/203/348 158/206/353
f 136/175/307 135/174/349 150/205/352 151/207/354
f 129/176/308 1/124/150 144/208/355
f 8/30/38 143/177/356 158/209/353
f 137/181/312 136/180/307 151/210/357 152/211/358
f 130/183/314 129/182/359 144/212/355 145/213/360
f 138/214/361 137/181/315 152/211/362 153/215/363
f 131/186/318 130/183/317 145/213/364 146/216/365
f 139/187/321 138/185/320 153/217/363 154/197/366
f 132/188/326 131/186/318 146/216/365 147/199/342
f 8/30/38 158/209/353 173/218/367
f 152/211/358 151/210/357 166/219/368 167/220/369
f 145/213/360 144/212/355 159/221/370 160/222/371
f 153/215/363 152/211/362 167/220/372 168/223/373
f 146/216/374 145/213/375 160/222/371 161/224/376
f 154/225/377 153/215/378 168/223/379 169/226/380
f 147/199/342 146/216/365 161/224/381 162/227/382
f 155/228/383 154/229/384 169/230/385 170/231/386
f 148/200/343 147/199/342 162/227/387 163/232/388
f 156/233/389 155/228/383 170/231/386 171/234/390
f 149/202/345 148/200/343 163/232/388 164/235/391
f 157/236/348 156/233/389 171/234/390 172/237/392
f 150/205/352 149/204/393 164/238/391 165/239/394
f 158/209/353 157/236/348 172/237/392 173/218/395
f 151/210/396 150/240/352 165/241/397 166/219/368
f 144/208/398 1/124/291 159/242/399
f 171/234/400 170/231/386 185/243/401 186/244/402
f 164/235/391 163/232/403 178/245/404 179/246/405
f 172/237/406 171/234/400 186/244/407 187/247/408
f 165/248/394 164/249/409 179/250/405 180/251/410
f 173/218/395 172/237/411 187/247/412 188/252/413
f 166/253/368 165/248/394 180/251/414 181/254/415
f 159/242/399 1/124/291 174/255/416
f 8/30/38 173/218/417 188/252/418
f 167/256/372 166/253/368 181/254/419 182/257/420
f 160/258/371 159/242/370 174/255/421 175/259/422
f 168/223/423 167/220/369 182/260/420 183/261/424
f 161/224/425 160/222/426 175/262/427 176/263/428
f 169/226/429 168/223/430 183/261/424 184/264/431
f 162/227/382 161/224/376 176/263/428 177/265/432
f 170/231/386 169/230/433 184/266/434 185/243/435
f 163/232/436 162/227/437 177/265/432 178/245/438
f 175/259/439 174/255/440 189/267/441 190/268/442
f 183/269/443 182/257/444 197/270/445 198/271/446
f 176/263/447 175/262/439 190/272/448 191/273/449
f 184/274/431 183/269/443 198/271/450 199/275/451
f 177/265/432 176/263/452 191/273/453 192/276/454
f 185/243/435 184/266/434 199/277/455 200/278/456
f 178/245/404 177/265/457 192/276/458 193/279/459
f 186/244/460 185/243/435 200/278/456 201/280/461
f 179/250/462 178/281/463 193/282/464 194/283/465
f 187/247/408 186/244/402 201/280/466 202/284/467
f 180/251/414 179/250/468 194/283/465 195/285/469
f 188/252/413 187/247/408 202/284/467 203/286/470
f 181/254/471 180/251/414 195/285/472 196/287/473
f 174/255/416 1/124/291 189/267/474
f 8/30/38 188/252/418 203/286/470
f 182/257/420 181/254/419 196/287/475 197/270/476
f 194/283/465 193/282/477 208/288/478 209/289/479
f 202/284/467 201/280/461 216/290/480 217/291/481
f 195/285/482 194/283/483 209/289/479 210/292/484
f 203/286/470 202/284/467 217/291/485 218/293/486
f 196/287/475 195/285/482 210/292/487 211/294/488
f 189/267/474 1/124/291 204/295/489
f 8/30/38 203/286/470 218/293/490
f 197/270/445 196/287/491 211/294/492 212/296/493
f 190/268/442 189/267/474 204/295/494 205/297/495
f 198/271/496 197/270/445 212/296/497 213/298/498
f 191/299/499 190/268/442 205/297/495 206/300/500
f 199/301/451 198/302/446 213/303/498 214/304/501
f 192/305/454 191/299/502 206/300/500 207/306/503
f 200/278/504 199/277/455 214/307/505 215/308/506
f 193/282/459 192/305/454 207/306/503 208/288/507
f 201/280/461 200/278/456 215/308/508 216/290/509
f 213/303/510 212/309/497 227/310/511 228/311/512
f 206/300/500 205/297/495 220/312/513 221/313/514
f 214/304/515 213/303/510 228/311/516 229/314/517
f 207/306/503 206/300/518 221/313/519 222/315/520
f 215/316/506 214/304/521 229/314/522 230/317/523
f 208/288/507 207/306/503 222/315/524 223/318/525
f 216/319/526 215/316/506 230/317/523 231/320/527
f 209/289/479 208/288/507 223/318/525 224/321/528
f 217/291/485 216/290/480 231/322/527 232/323/529
f 210/324/484 209/325/530 224/326/528 225/327/531
f 218/293/532 217/291/485 232/323/533 233/328/534
f 211/329/492 210/324/535 225/327/536 226/330/537
f 204/295/538 1/124/539 219/331/540
f 8/30/38 218/293/490 233/328/541
f 212/309/542 211/329/492 226/330/543 227/310/511
f 205/297/495 204/295/544 219/331/545 220/312/513
f 232/323/529 231/322/527 246/332/546 247/333/547
f 225/334/531 224/321/548 239/335/549 240/336/550
f 233/328/534 232/323/529 247/333/551 248/337/552
f 226/330/537 225/327/553 240/338/550 241/339/554
f 219/331/555 1/124/539 234/340/556
f 8/30/38 233/328/541 248/337/552
f 227/310/511 226/330/557 241/339/554 242/341/558
f 220/312/513 219/331/545 234/340/559 235/342/560
f 228/311/561 227/310/562 242/341/563 243/343/564
f 221/313/565 220/312/513 235/342/560 236/344/566
f 229/314/517 228/311/567 243/343/568 244/345/569
f 222/315/520 221/313/570 236/344/566 237/346/571
f 230/317/523 229/314/517 244/345/572 245/347/573
f 223/318/574 222/315/520 237/346/575 238/348/576
f 231/322/527 230/349/577 245/350/578 246/332/579
f 224/321/528 223/318/574 238/348/580 239/335/581
f 236/344/566 235/342/582 250/351/583 251/352/584
f 244/345/569 243/343/568 258/353/585 259/354/586
f 237/346/587 236/344/566 251/352/588 252/355/589
f 245/347/590 244/345/572 259/354/586 260/356/591
f 238/348/592 237/346/593 252/355/594 253/357/595
f 246/332/546 245/350/578 260/358/596 261/359/597
f 239/335/598 238/348/592 253/357/599 254/360/600
f 247/333/601 246/332/546 261/359/602 262/361/603
f 240/336/604 239/335/605 254/360/606 255/362/607
f 248/337/552 247/333/608 262/361/609 263/363/610
f 241/339/611 240/338/612 255/364/613 256/365/614
f 234/340/615 1/124/291 249/366/616
f 8/30/38 248/337/552 263/363/617
f 242/341/618 241/339/554 256/365/619 257/367/620
f 235/342/621 234/340/559 249/366/622 250/351/583
f 243/343/623 242/341/563 257/367/624 258/353/585
f 255/368/625 254/369/606 269/370/626 270/371/627
f 263/363/610 262/361/609 277/372/628 278/373/629
f 256/374/630 255/375/607 270/376/631 271/377/632
f 249/366/616 1/124/539 264/378/633
f 8/30/38 263/363/617 278/373/634
f 257/379/635 256/374/636 271/377/637 272/380/638
f 250/351/583 249/366/622 264/378/639 265/381/640
f 258/353/585 257/367/624 272/382/638 273/383/641
f 251/352/584 250/351/583 265/381/642 266/384/643
f 259/354/586 258/353/644 273/383/645 274/385/646
f 252/355/589 251/352/588 266/384/643 267/386/647
f 260/387/596 259/388/648 274/389/646 275/390/649
f 253/357/650 252/355/594 267/386/651 268/391/652
f 261/359/653 260/358/596 275/392/654 276/393/655
f 254/360/606 253/357/656 268/391/657 269/394/658
f 262/361/609 261/359/659 276/393/660 277/372/661
f 274/395/662 273/396/641 288/397/663 289/398/664
f 267/386/647 266/384/643 281/399/665 282/400/666
f 275/392/667 274/395/662 289/398/668 290/401/669
f 268/391/652 267/386/651 282/400/670 283/402/671
f 276/393/655 275/392/654 290/401/669 291/403/672
f 269/394/658 268/391/657 283/402/673 284/404/674
f 277/372/661 276/393/655 291/403/675 292/405/676
f 270/371/627 269/370/626 284/406/674 285/407/677
f 278/373/629 277/372/628 292/405/678 293/408/679
f 271/377/637 270/376/680 285/409/677 286/410/681
f 264/378/682 1/124/291 279/411/683
f 8/30/38 278/373/634 293/408/684
f 272/380/685 271/377/632 286/410/686 287/412/687
f 265/381/642 264/378/639 279/411/683 280/413/688
f 273/414/641 272/380/638 287/412/689 288/415/663
f 266/384/643 265/381/642 280/413/688 281/399/690
f 293/408/684 292/405/678 307/416/691 308/417/692
f 286/418/681 285/407/677 300/419/693 301/420/694
f 279/411/683 1/124/539 294/421/695
f 8/30/38 293/408/684 308/417/696
f 287/412/697 286/410/681 301/422/698 302/423/699
f 280/413/688 279/411/700 294/421/695 295/424/701
f 288/397/702 287/425/697 302/426/703 303/427/704
f 281/399/690 280/413/688 295/424/701 296/428/705
f 289/398/668 288/397/702 303/427/706 304/429/707
f 282/400/666 281/399/665 296/428/705 297/430/708
f 290/401/709 289/398/668 304/429/710 305/431/711
f 283/402/671 282/400/670 297/430/708 298/432/712
f 291/403/713 290/401/709 305/431/714 306/433/715
f 284/404/716 283/402/673 298/432/717 299/434/718
f 292/405/676 291/403/719 306/433/715 307/416/691
f 285/407/677 284/406/674 299/435/720 300/419/721
f 305/431/722 304/429/707 319/436/723 320/437/724
f 298/432/712 297/430/708 312/438/725 313/439/726
f 306/433/727 305/431/714 320/437/728 321/440/729
f 299/434/718 298/432/730 313/439/731 314/441/732
f 307/416/733 306/433/715 321/440/729 322/442/734
f 300/419/693 299/435/735 314/443/732 315/444/736
f 308/417/692 307/416/691 322/442/737 323/445/738
f 301/420/739 300/419/740 315/444/741 316/446/742
f 294/421/695 1/124/539 309/447/743
f 8/30/38 308/417/696 323/445/738
f 302/426/699 301/448/694 316/449/744 317/450/745
f 295/424/701 294/421/695 309/447/746 310/451/747
f 303/427/748 302/426/749 317/450/750 318/452/751
f 296/428/752 295/424/701 310/451/747 311/453/753
f 304/429/707 303/427/754 318/452/755 319/436/756
f 297/430/708 296/428/757 311/453/753 312/438/758
f 309/447/759 1/124/539 324/454/760
f 8/30/38 323/445/738 338/455/761
f 317/450/745 316/449/762 331/456/763 332/457/764
f 310/451/747 309/447/746 324/454/760 325/458/765
f 318/452/751 317/450/750 332/457/766 333/459/767
f 311/453/753 310/451/747 325/458/765 326/460/768
f 319/436/756 318/452/755 333/459/769 334/461/770
f 312/438/725 311/453/753 326/460/768 327/462/771
f 320/437/772 319/436/756 334/461/773 335/463/774
f 313/439/726 312/438/725 327/462/771 328/464/775
f 321/440/729 320/437/728 335/463/776 336/465/777
f 314/441/778 313/439/779 328/464/775 329/466/780
f 322/442/734 321/440/729 336/465/781 337/467/782
f 315/468/736 314/441/783 329/466/784 330/469/785
f 323/445/786 322/442/737 337/467/782 338/455/761
f 316/470/742 315/468/787 330/469/788 331/471/763
f 328/464/775 327/462/789 342/472/790 343/473/791
f 336/465/792 335/463/793 350/474/794 351/475/795
f 329/466/780 328/464/775 343/473/796 344/476/797
f 337/467/782 336/465/777 351/475/798 352/477/799
f 330/469/785 329/466/800 344/476/797 345/478/801
f 338/455/761 337/467/782 352/477/802 353/479/803
f 331/471/804 330/469/805 345/478/801 346/480/806
f 324/454/760 1/124/36 339/481/807
f 8/30/38 338/455/761 353/479/808
f 332/457/764 331/456/763 346/482/809 347/483/810
f 325/458/765 324/454/811 339/481/812 340/484/813
f 333/459/767 332/457/764 347/483/810 348/485/814
f 326/460/768 325/458/815 340/484/813 341/486/816
f 334/461/817 333/459/818 348/485/814 349/487/819
f 327/462/771 326/460/768 341/486/820 342/472/790
f 335/463/821 334/461/822 349/487/823 350/474/794
f 347/488/824 346/480/809 361/489/825 362/490/826
f 340/484/813 339/481/812 354/491/827 355/492/828
f 348/485/814 347/483/824 362/493/829 363/494/830
f 341/486/831 340/484/832 355/492/828 356/495/833
f 349/487/819 348/485/834 363/494/830 364/496/835
f 342/497/790 341/498/831 356/499/836 357/500/837
f 350/474/794 349/487/823 364/496/838 365/501/839
f 343/502/791 342/497/790 357/500/840 358/503/841
f 351/475/795 350/474/842 365/501/843 366/504/844
f 344/476/797 343/473/845 358/505/846 359/506/847
f 352/477/799 351/475/795 366/504/848 367/507/849
f 345/478/850 344/476/797 359/506/851 360/508/852
f 353/479/803 352/477/802 367/507/853 368/509/854
f 346/480/809 345/478/801 360/508/852 361/489/825
f 339/481/807 1/124/539 354/491/855
f 8/30/38 353/479/808 368/509/856
f 366/504/857 365/501/843 380/510/858 381/511/859
f 359/512/847 358/503/841 373/513/860 374/514/861
f 367/507/862 366/504/857 381/511/859 382/515/863
f 360/508/852 359/506/864 374/516/865 375/517/866
f 368/509/854 367/507/867 382/515/868 383/518/869
f 361/489/870 360/508/871 375/517/872 376/519/873
f 354/491/827 1/124/36 369/520/874
f 8/30/38 368/509/875 383/518/869
f 362/493/826 361/521/870 376/522/873 377/523/876
f 355/492/828 354/491/827 369/520/877 370/524/878
f 363/494/830 362/493/826 377/523/879 378/525/880
f 356/526/881 355/527/828 370/528/882 371/529/883
f 364/496/884 363/494/885 378/525/880 379/530/886
f 357/500/887 356/499/888 371/531/889 372/532/890
f 365/501/839 364/496/891 379/530/892 380/510/893
f 358/503/841 357/500/840 372/532/894 373/513/860
f 370/524/878 369/520/895 384/533/896 385/534/897
f 378/525/880 377/523/879 392/535/898 393/536/899
f 371/529/883 370/528/882 385/537/897 386/538/900
f 379/530/886 378/525/880 393/536/901 394/539/902
f 372/532/890 371/531/889 386/540/903 387/541/904
f 380/510/893 379/530/892 394/539/905 395/542/906
f 373/513/907 372/532/894 387/541/908 388/543/909
f 381/511/859 380/510/910 395/542/906 396/544/911
f 374/514/861 373/513/907 388/543/912 389/545/913
f 382/515/914 381/511/859 396/544/911 397/546/915
f 375/547/916 374/514/865 389/545/913 390/548/917
f 383/518/869 382/515/918 397/546/919 398/549/920
f 376/519/873 375/517/916 390/550/917 391/551/921
f 369/520/874 1/124/36 384/533/922
f 8/30/38 383/518/869 398/549/920
f 377/523/923 376/522/873 391/552/924 392/535/898
f 389/545/913 388/543/925 403/553/926 404/554/927
f 397/546/928 396/544/911 411/555/929 412/556/930
f 390/548/931 389/545/913 404/554/932 405/557/933
f 398/549/920 397/546/919 412/556/930 413/558/934
f 391/559/935 390/548/931 405/557/936 406/560/937
f 384/533/922 1/124/36 399/561/938
f 8/30/38 398/549/920 413/558/939
f 392/562/940 391/559/924 406/560/941 407/563/942
f 385/564/897 384/565/943 399/566/944 400/567/945
f 393/536/899 392/535/946 407/568/947 408/569/948
f 386/538/900 385/537/897 400/570/949 401/571/950
f 394/539/951 393/536/901 408/569/948 409/572/952
f 387/541/953 386/540/903 401/573/954 402/574/955
f 395/542/906 394/539/905 409/572/952 410/575/956
f 388/543/957 387/541/908 402/574/958 403/553/926
f 396/544/911 395/542/906 410/575/959 411/555/929
f 408/569/960 407/568/942 422/576/961 423/577/962
f 401/571/950 400/570/949 415/578/963 416/579/964
f 409/572/965 408/569/948 423/577/962 424/580/966
f 402/581/955 401/571/950 416/579/964 417/582/967
f 410/575/956 409/572/965 424/580/966 425/583/968
f 403/553/969 402/574/958 417/584/967 418/585/970
f 411/586/929 410/587/959 425/588/968 426/589/971
f 404/554/927 403/553/972 418/585/970 419/590/973
f 412/556/930 411/555/929 426/591/971 427/592/974
f 405/557/975 404/554/927 419/590/973 420/593/976
f 413/558/934 412/556/930 427/592/977 428/594/978
f 406/560/937 405/557/975 420/593/979 421/595/980
f 399/566/944 1/28/36 414/596/981
f 8/30/38 413/558/939 428/594/982
f 407/563/947 406/560/983 421/595/984 422/597/961
f 400/567/945 399/566/944 414/596/985 415/598/986
f 427/599/987 426/589/971 441/600/988 442/601/989
f 420/593/990 419/590/973 434/602/991 435/603/992
f 428/594/993 427/592/974 442/604/994 443/605/995
f 421/595/980 420/593/976 435/603/992 436/606/996
f 414/596/997 1/28/36 429/607/998
f 8/30/38 428/594/993 443/605/999
f 422/597/1000 421/595/1001 436/606/1002 437/608/1003
f 415/598/963 414/596/985 429/607/998 430/609/1004
f 423/610/962 422/611/961 437/612/1003 438/613/1005
f 416/579/1006 415/578/1007 430/614/1008 431/615/1009
f 424/616/1010 423/610/962 438/613/1005 439/617/1011
f 417/582/1012 416/579/964 431/615/1013 432/618/1014
f 425/588/1015 424/616/1010 439/617/1011 440/619/1016
f 418/585/970 417/584/967 432/620/1017 433/621/1018
f 426/589/971 425/588/968 440/619/1019 441/600/1020
f 419/590/1021 418/585/1022 433/621/1018 434/602/991
f 439/617/1023 438/613/1005 453/622/1024 454/623/1025
f 432/618/1026 431/615/1009 446/624/1027 447/625/1028
f 440/619/1029 439/617/1023 454/623/1030 455/626/1031
f 433/627/1018 432/618/1014 447/625/1028 448/628/1032
f 441/600/988 440/619/1016 455/626/1033 456/629/1034
f 434/630/991 433/627/1018 448/628/1035 449/631/1036
f 442/601/989 441/600/988 456/629/1037 457/632/1038
f 435/603/1039 434/602/1040 449/633/1041 450/634/1042
f 443/605/995 442/604/994 457/635/1038 458/636/1043
f 436/606/1002 435/603/1039 450/634/1042 451/637/1044
f 429/607/998 1/28/36 444/638/1045
f 8/30/38 443/605/999 458/636/1043
f 437/608/1046 436/606/996 451/637/1047 452/639/1048
f 430/609/1004 429/607/1049 444/638/1050 445/640/1051
f 438/613/1005 437/612/1046 452/641/1052 453/622/1024
f 431/642/1009 430/609/1008 445/640/1053 446/643/1027
f 458/636/1043 457/635/1038 472/644/1054 473/645/1055
f 451/637/1047 450/634/1056 465/646/1057 466/647/1058
f 444/638/1045 1/28/36 459/648/1059
f 8/30/38 458/636/1043 473/645/1060
f 452/639/1061 451/637/1047 466/647/1058 467/649/1062
f 445/640/1051 444/638/1063 459/648/1064 460/650/1065
f 453/622/1024 452/641/1066 467/651/1067 468/652/1068
f 446/643/1069 445/640/1070 460/650/1071 461/653/1072
f 454/623/1025 453/622/1024 468/652/1073 469/654/1074
f 447/655/1075 446/643/1076 461/653/1077 462/656/1078
f 455/626/1033 454/623/1030 469/654/1079 470/657/1080
f 448/658/1035 447/655/1081 462/656/1078 463/659/1082
f 456/629/1083 455/626/1033 470/657/1080 471/660/1084
f 449/631/1085 448/628/1035 463/661/1082 464/662/1086
f 457/632/1038 456/629/1037 471/660/1084 472/663/1054
f 450/664/1056 449/631/1087 464/662/1086 465/665/1057
f 462/656/1088 461/653/1072 2/6/1089 476/5/1090
f 470/657/1080 469/654/1091 7/1/1092 479/9/9
f 463/659/1082 462/656/1078 476/5/1090 3/11/1093
f 471/660/1084 470/657/1080 479/9/1094 480/13/15
f 464/666/1095 463/659/1096 3/11/20 477/15/19
f 472/663/1054 471/660/1084 480/13/24 481/17/1097
f 465/665/1098 464/662/1099 477/667/1100 4/668/1101
f 473/669/1055 472/663/1102 481/17/1097 482/23/29
f 466/670/1058 465/671/1098 4/19/1101 5/25/1103
f 459/648/1059 1/28/36 474/27/44
f 8/30/38 473/645/1055 482/31/29
f 467/651/1104 466/670/1058 5/25/1105 6/33/47
f 460/650/1106 459/648/1064 474/27/44 475/35/1107
f 468/652/1068 467/651/1104 6/33/47 478/2/46
f 461/653/1072 460/650/1065 475/35/1107 2/6/1089
f 469/654/1108 468/652/1073 478/2/2 7/1/1
