# Blender 5.0.1
# www.blender.org
mtllib kniha_zavrena.mtl
o kniha_closed
v -0.153779 -0.003547 0.065118
v -0.153779 0.001636 0.070757
v -0.158962 0.001636 0.065574
v -0.153779 -0.002021 0.069111
v -0.156771 -0.001357 0.068470
v -0.157444 0.001636 0.069239
v -0.157444 -0.002029 0.065346
v -0.158962 0.378335 0.065574
v -0.153779 0.378335 0.070757
v -0.153779 0.383518 0.065118
v -0.157444 0.378335 0.069333
v -0.156771 0.381328 0.068470
v -0.153779 0.382000 0.069011
v -0.157444 0.382000 0.065346
v 0.142017 -0.003645 0.052822
v 0.145683 0.000159 0.055649
v 0.144609 -0.003105 0.054821
v 0.142017 0.383421 0.052822
v 0.145683 0.376841 0.055649
v 0.144609 0.380919 0.054821
v -0.158962 0.001636 0.039612
v -0.156217 0.002133 0.033434
v -0.153779 -0.003547 0.039612
v -0.157277 -0.001243 0.036452
v -0.153779 0.383518 0.039612
v -0.156217 0.377838 0.033434
v -0.158962 0.378335 0.039612
v -0.157277 0.381214 0.036452
v 0.153317 -0.003547 0.034429
v 0.158157 0.001486 0.034198
v 0.157373 -0.001440 0.034336
v 0.158157 0.378177 0.034198
v 0.153317 0.383518 0.034429
v 0.157360 0.381240 0.034357
v 0.124331 0.001492 0.069872
v 0.124615 -0.003547 0.065100
v 0.124488 -0.001437 0.069097
v 0.124331 0.378183 0.069872
v 0.124615 0.383518 0.065100
v 0.124507 0.381242 0.069083
v 0.123339 0.378495 0.028292
v 0.117836 0.377860 0.033438
v 0.129785 0.383155 0.039600
v 0.121585 0.377747 0.031878
v 0.123969 0.381110 0.033962
v 0.124901 0.381848 0.034802
v 0.117836 0.002111 0.033438
v 0.123339 0.001476 0.028292
v 0.129785 -0.003910 0.039600
v 0.121585 0.002224 0.031878
v 0.123963 -0.001262 0.033962
v 0.125774 -0.002420 0.035669
v -0.149217 0.021801 0.025713
v -0.144034 0.016619 0.025713
v -0.151962 0.010938 0.031891
v -0.147699 0.018137 0.025713
v -0.148671 0.016326 0.028873
v -0.147844 0.014958 0.029665
v -0.150025 0.015455 0.029675
v -0.144034 0.363352 0.025713
v -0.149217 0.358170 0.025713
v -0.151962 0.369033 0.031891
v -0.147699 0.361834 0.025713
v -0.148671 0.363645 0.028873
v -0.150025 0.364515 0.029675
v -0.147844 0.365013 0.029665
v 0.115588 0.010960 0.031887
v 0.114311 0.016619 0.025713
v 0.120770 0.011595 0.026519
v 0.114925 0.014966 0.029661
v 0.117877 0.014451 0.029107
v 0.118350 0.015147 0.026116
v 0.119176 0.011708 0.030216
v 0.120770 0.368376 0.026519
v 0.114311 0.363352 0.025713
v 0.115588 0.369011 0.031887
v 0.118349 0.364692 0.025911
v 0.117843 0.365610 0.029085
v 0.114686 0.365141 0.029706
v 0.119252 0.368693 0.030276
v -0.153779 -0.003547 -0.064088
v -0.153779 0.001636 -0.069727
v -0.158962 0.001636 -0.064544
v -0.153779 -0.002021 -0.068081
v -0.156771 -0.001357 -0.067440
v -0.157444 0.001636 -0.068209
v -0.157444 -0.002029 -0.064316
v -0.158962 0.378335 -0.064544
v -0.153779 0.378335 -0.069727
v -0.153779 0.383518 -0.064088
v -0.157444 0.378335 -0.068303
v -0.156771 0.381328 -0.067440
v -0.153779 0.382000 -0.067981
v -0.157444 0.382000 -0.064316
v 0.142017 -0.003645 -0.051792
v 0.145683 0.000159 -0.054619
v 0.144609 -0.003105 -0.053791
v 0.142017 0.383421 -0.051792
v 0.145683 0.376841 -0.054619
v 0.144609 0.380919 -0.053791
v -0.158962 0.001636 -0.038582
v -0.156217 0.002133 -0.032404
v -0.153779 -0.003547 -0.038582
v -0.157277 -0.001243 -0.035422
v -0.153779 0.383518 -0.038582
v -0.156217 0.377838 -0.032404
v -0.158962 0.378335 -0.038582
v -0.157277 0.381214 -0.035422
v 0.153317 -0.003547 -0.033399
v 0.158157 0.001486 -0.033168
v 0.157373 -0.001440 -0.033306
v 0.158157 0.378177 -0.033168
v 0.153317 0.383518 -0.033399
v 0.157360 0.381240 -0.033327
v 0.124331 0.001492 -0.068842
v 0.124615 -0.003547 -0.064070
v 0.124488 -0.001437 -0.068066
v 0.124331 0.378183 -0.068842
v 0.124615 0.383518 -0.064070
v 0.124507 0.381242 -0.068053
v 0.123339 0.378495 -0.027262
v 0.117836 0.377860 -0.032408
v 0.129785 0.383155 -0.038570
v 0.121585 0.377747 -0.030848
v 0.123969 0.381110 -0.032932
v 0.124901 0.381848 -0.033771
v 0.117836 0.002111 -0.032408
v 0.123339 0.001476 -0.027262
v 0.129785 -0.003910 -0.038570
v 0.121585 0.002224 -0.030848
v 0.123963 -0.001262 -0.032932
v 0.125774 -0.002420 -0.034639
v -0.149217 0.021801 -0.024683
v -0.144034 0.016619 -0.024683
v -0.151962 0.010938 -0.030861
v -0.147699 0.018137 -0.024683
v -0.148671 0.016326 -0.027843
v -0.147844 0.014958 -0.028634
v -0.150025 0.015455 -0.028645
v -0.144034 0.363352 -0.024683
v -0.149217 0.358170 -0.024683
v -0.151962 0.369033 -0.030861
v -0.147699 0.361834 -0.024683
v -0.148671 0.363645 -0.027843
v -0.150025 0.364515 -0.028645
v -0.147844 0.365013 -0.028634
v 0.115588 0.010960 -0.030857
v 0.114311 0.016619 -0.024683
v 0.120770 0.011595 -0.025489
v 0.114925 0.014966 -0.028631
v 0.117877 0.014451 -0.028077
v 0.118350 0.015147 -0.025086
v 0.119176 0.011708 -0.029186
v 0.120770 0.368376 -0.025489
v 0.114311 0.363352 -0.024683
v 0.115588 0.369011 -0.030857
v 0.118349 0.364692 -0.024880
v 0.117843 0.365610 -0.028055
v 0.114686 0.365141 -0.028676
v 0.119252 0.368693 -0.029246
vn -0.0070 -0.9978 0.0665
vn -0.0025 -0.7138 0.7004
vn -0.5677 -0.6028 0.5607
vn -0.7062 -0.7076 0.0250
vn -0.0021 -0.0032 1.0000
vn -0.7071 -0.0032 0.7071
vn -0.0025 -0.7138 0.7003
vn -0.9987 -0.0043 0.0509
vn -0.5677 -0.6027 0.5607
vn -0.7072 -0.0032 0.7071
vn -0.9987 0.0043 0.0509
vn -0.7071 0.0032 0.7071
vn -0.5605 0.6097 0.5605
vn -0.7064 0.7074 0.0250
vn -0.0021 0.0034 1.0000
vn -0.0021 0.7038 0.7104
vn -0.7071 0.0031 0.7071
vn -0.0059 0.9983 0.0572
vn -0.5604 0.6097 0.5605
vn -0.0021 0.7039 0.7103
vn 0.0756 0.9971 0.0126
vn 0.0756 0.9971 -0.0126
vn -0.0115 0.9986 0.0524
vn -0.0115 0.9986 -0.0524
vn -0.9520 0.3055 -0.0218
vn -0.6557 0.4071 -0.6359
vn -0.5078 0.7330 -0.4526
vn -0.1182 0.8144 -0.5681
vn -0.0059 0.2904 -0.9569
vn -0.1183 0.8144 -0.5681
vn -0.5077 0.7330 -0.4526
vn -0.6556 0.4071 -0.6359
vn -0.0061 -0.3148 -0.9491
vn -0.6481 -0.4355 -0.6248
vn -0.4790 -0.7725 -0.4170
vn -0.1351 -0.7948 -0.5916
vn -0.9356 -0.3524 -0.0220
vn -0.6480 -0.4355 -0.6248
vn -0.9999 -0.0044 -0.0153
vn -0.7032 -0.7100 -0.0373
vn -0.4002 -0.5735 -0.7148
vn -0.9105 -0.0034 -0.4134
vn -0.0056 -0.9995 -0.0308
vn -0.0024 -0.7340 -0.6791
vn -0.2269 -0.1702 -0.9589
vn -0.0023 -0.7340 -0.6791
vn -0.0056 0.9995 -0.0320
vn -0.7032 0.7100 -0.0373
vn -0.4002 0.5735 -0.7148
vn -0.0025 0.7340 -0.6791
vn -0.9999 0.0044 -0.0153
vn -0.9106 0.0034 -0.4134
vn -0.2276 0.1697 -0.9589
vn -0.9105 0.0034 -0.4134
vn -0.0049 -0.2812 -0.9596
vn -0.0032 -0.7351 -0.6779
vn -0.4785 -0.7062 -0.5219
vn -0.6575 -0.3587 -0.6626
vn -0.0055 -0.9995 -0.0305
vn -0.6143 -0.7889 -0.0177
vn -0.4785 -0.7062 -0.5218
vn -0.0031 -0.7351 -0.6779
vn -0.9393 -0.3422 -0.0232
vn -0.9402 0.3397 -0.0238
vn -0.6142 0.7889 -0.0216
vn -0.4739 0.6958 -0.5396
vn -0.6556 0.3636 -0.6618
vn -0.0050 0.9995 -0.0318
vn -0.0035 0.7350 -0.6780
vn -0.4739 0.6959 -0.5396
vn -0.6142 0.7889 -0.0215
vn -0.0049 0.2810 -0.9597
vn -0.4739 0.6958 -0.5397
vn -0.0072 -0.9983 -0.0586
vn -0.6059 -0.4570 -0.6511
vn -0.7062 -0.7075 0.0250
vn -0.9983 -0.0040 -0.0578
vn -0.0021 0.0033 1.0000
vn -0.7072 -0.0032 0.7070
vn -0.9987 0.0043 0.0510
vn -0.9987 -0.0043 0.0510
vn 0.1390 0.9816 0.1309
vn 0.5969 0.5706 0.5641
vn 0.7430 0.6592 0.1160
vn 0.5969 0.5705 0.5641
vn 0.7257 0.0026 0.6880
vn 0.9903 0.0023 0.1393
vn 0.0015 -0.9977 0.0684
vn 0.0861 -0.9930 0.0807
vn 0.5273 -0.6885 0.4979
vn 0.0281 -0.7140 0.6995
vn 0.0281 -0.7141 0.6995
vn 0.7256 -0.0026 0.6881
vn 0.0503 -0.0032 0.9987
vn 0.0044 0.9981 0.0608
vn -0.0059 0.9983 0.0573
vn 0.0394 0.6981 0.7149
vn 0.0394 0.6981 0.7150
vn 0.0504 0.0033 0.9987
vn -0.0058 0.9977 -0.0668
vn -0.6153 0.4649 -0.6366
vn -0.7064 0.7073 0.0250
vn -0.9983 0.0039 -0.0577
vn -0.9519 0.3055 -0.0218
vn -0.0050 0.2811 -0.9597
vn 0.0879 -0.9961 0.0062
vn 0.7085 -0.7008 0.0831
vn 0.7086 -0.7008 0.0830
vn 0.9903 -0.0022 0.1391
vn 0.7257 -0.0026 0.6880
vn 0.7085 -0.7008 -0.0831
vn 0.9903 -0.0023 -0.1391
vn 0.9903 -0.0023 0.1391
vn 0.7085 -0.7008 0.0830
vn 0.7430 0.6592 -0.1160
vn -0.0084 -0.9989 -0.0454
vn -0.0072 -0.9983 -0.0587
vn -0.6060 -0.4570 -0.6511
vn -0.1350 -0.7949 -0.5916
vn -0.1350 -0.7948 -0.5916
vn -0.6060 -0.4571 -0.6511
vn -0.2939 -0.1975 -0.9352
vn -0.0060 -0.3149 -0.9491
vn -0.2988 0.1797 -0.9372
vn -0.6059 -0.4571 -0.6511
vn -0.9983 -0.0039 -0.0578
vn -0.9983 0.0040 -0.0578
vn 0.0014 -0.9977 0.0684
vn 0.0281 -0.7140 0.6996
vn 0.1390 0.9816 0.1310
vn 0.0043 0.9981 0.0608
vn 0.5968 0.5706 0.5641
vn 0.7256 0.0026 0.6881
vn -0.0058 0.9977 -0.0669
vn -0.0115 0.9986 -0.0525
vn -0.1182 0.8145 -0.5681
vn -0.6153 0.4648 -0.6366
vn -0.6154 0.4649 -0.6366
vn -0.2988 0.1797 -0.9373
vn 0.9903 0.0023 0.1392
vn 0.9903 0.0023 -0.1392
vn 0.7430 0.6591 -0.1160
vn 0.7430 0.6592 0.1159
vn -0.1351 -0.7948 0.5916
vn -0.0084 -0.9989 0.0454
vn -0.9356 -0.3524 0.0220
vn -0.1350 -0.7949 0.5916
vn -0.1183 0.8145 -0.5680
vn -0.1183 0.8144 0.5681
vn -0.9519 0.3055 0.0218
vn -0.7032 -0.7100 0.0373
vn -0.0057 -0.9995 0.0308
vn -0.0057 -0.9995 -0.0308
vn -0.0023 -0.7340 -0.6792
vn -0.0031 -0.7351 -0.6780
vn -0.0024 -0.7341 -0.6791
vn -0.9999 0.0044 -0.0154
vn -0.9999 -0.0044 -0.0154
vn -0.9106 -0.0034 -0.4134
vn -0.2268 -0.1701 -0.9590
vn -0.2276 0.1696 -0.9589
vn -0.0035 0.7350 -0.6781
vn -0.0025 0.7341 -0.6791
vn -0.0035 0.7351 -0.6780
vn -0.0057 0.9995 -0.0321
vn -0.7032 0.7100 0.0373
vn -0.9999 0.0044 0.0153
vn -0.6143 -0.7889 0.0177
vn -0.9393 -0.3422 0.0232
vn -0.9393 -0.3422 -0.0231
vn -0.0055 -0.9995 0.0305
vn -0.6142 -0.7889 0.0177
vn -0.6142 -0.7889 -0.0177
vn -0.6141 0.7889 -0.0215
vn -0.6141 0.7889 0.0215
vn -0.0051 0.9995 0.0318
vn -0.0051 0.9995 -0.0318
vn -0.0061 -0.3149 -0.9491
vn -0.0049 -0.2811 -0.9597
vn -0.9356 -0.3524 -0.0221
vn -0.0083 -0.9989 -0.0454
vn -0.9983 -0.0039 -0.0577
vn 0.7256 -0.0025 0.6881
vn 0.7256 0.0025 0.6881
vn 0.0503 -0.0031 0.9987
vn 0.0878 -0.9961 0.0061
vn 0.0860 -0.9930 0.0807
vn 0.9902 0.0023 0.1393
vn 0.7257 0.0025 0.6880
vn 0.7257 -0.0025 0.6880
vn -0.2939 -0.1974 -0.9352
vn -0.2269 -0.1701 -0.9589
vn -0.0060 -0.3148 -0.9491
vn -0.2938 -0.1975 -0.9352
vn -0.2269 -0.1701 -0.9590
vn -0.0048 -0.2811 -0.9597
vn -0.2987 0.1797 -0.9373
vn -0.9402 0.3398 -0.0238
vn -0.9402 0.3398 0.0238
vn -0.6142 0.7888 0.0215
vn -0.6142 0.7888 -0.0215
vn -0.0083 -0.9989 0.0454
vn 0.0878 -0.9961 -0.0061
vn -0.9520 0.3055 0.0218
vn -0.9402 0.3397 0.0238
vn -0.9394 -0.3421 -0.0232
vn -0.9394 -0.3421 0.0232
vn -0.9356 -0.3523 0.0220
vn -0.9356 -0.3523 -0.0220
vn -0.9999 -0.0044 0.0153
vn -0.0057 0.9995 0.0320
vn -0.0057 0.9995 -0.0320
vn 0.0879 -0.9961 -0.0061
vn 0.7085 -0.7008 -0.0830
vn 0.0879 -0.9961 0.0061
vn -0.0070 -0.9978 -0.0665
vn -0.7062 -0.7076 -0.0250
vn -0.5677 -0.6028 -0.5607
vn -0.0025 -0.7138 -0.7004
vn -0.0021 -0.0032 -1.0000
vn -0.0025 -0.7138 -0.7003
vn -0.5677 -0.6027 -0.5607
vn -0.7071 -0.0032 -0.7071
vn -0.9987 -0.0043 -0.0509
vn -0.9987 0.0043 -0.0509
vn -0.7064 0.7074 -0.0250
vn -0.5605 0.6097 -0.5605
vn -0.7071 0.0031 -0.7071
vn -0.0021 0.0033 -1.0000
vn -0.0021 0.7038 -0.7104
vn -0.0059 0.9983 -0.0572
vn -0.9519 0.3055 0.0217
vn -0.1182 0.8144 0.5681
vn -0.5078 0.7330 0.4526
vn -0.6557 0.4071 0.6359
vn -0.0059 0.2903 0.9569
vn -0.5077 0.7330 0.4526
vn -0.0060 -0.3149 0.9491
vn -0.4790 -0.7725 0.4170
vn -0.6481 -0.4355 0.6248
vn -0.9356 -0.3523 0.0221
vn -0.1350 -0.7948 0.5916
vn -0.9106 -0.0034 0.4134
vn -0.4002 -0.5735 0.7148
vn -0.0056 -0.9995 0.0308
vn -0.0024 -0.7340 0.6791
vn -0.2269 -0.1702 0.9589
vn -0.0023 -0.7340 0.6791
vn -0.9105 -0.0034 0.4134
vn -0.0025 0.7340 0.6791
vn -0.4002 0.5735 0.7148
vn -0.9999 0.0043 0.0153
vn -0.9105 0.0034 0.4134
vn -0.2276 0.1697 0.9589
vn -0.0048 -0.2812 0.9596
vn -0.6575 -0.3587 0.6626
vn -0.4785 -0.7062 0.5219
vn -0.0032 -0.7351 0.6780
vn -0.0032 -0.7351 0.6779
vn -0.4785 -0.7062 0.5218
vn -0.6556 0.3636 0.6618
vn -0.4739 0.6958 0.5397
vn -0.6142 0.7889 0.0215
vn -0.0050 0.9995 0.0318
vn -0.4739 0.6959 0.5396
vn -0.0035 0.7351 0.6780
vn -0.0049 0.2810 0.9597
vn -0.0035 0.7350 0.6780
vn -0.4739 0.6959 0.5397
vn -0.0072 -0.9983 0.0587
vn -0.6059 -0.4570 0.6511
vn -0.6059 -0.4571 0.6511
vn -0.9983 -0.0039 0.0577
vn -0.7062 -0.7075 -0.0250
vn -0.7071 0.0032 -0.7071
vn -0.7072 -0.0032 -0.7070
vn -0.9987 -0.0043 -0.0510
vn -0.9987 0.0043 -0.0510
vn 0.5969 0.5706 -0.5641
vn 0.1390 0.9816 -0.1310
vn 0.7430 0.6592 -0.1159
vn 0.9903 0.0023 -0.1393
vn 0.7257 0.0026 -0.6880
vn 0.5969 0.5705 -0.5641
vn 0.0015 -0.9977 -0.0684
vn 0.0281 -0.7140 -0.6995
vn 0.5273 -0.6885 -0.4979
vn 0.0861 -0.9930 -0.0807
vn 0.0281 -0.7141 -0.6995
vn 0.0503 -0.0032 -0.9987
vn 0.7257 -0.0026 -0.6881
vn 0.0044 0.9981 -0.0608
vn 0.0394 0.6981 -0.7149
vn -0.0021 0.7039 -0.7103
vn -0.0059 0.9983 -0.0573
vn 0.0394 0.6981 -0.7150
vn 0.0504 0.0033 -0.9987
vn -0.0021 0.0034 -1.0000
vn -0.6153 0.4649 0.6366
vn -0.0058 0.9977 0.0668
vn -0.7064 0.7073 -0.0250
vn -0.9983 0.0039 0.0578
vn -0.6154 0.4648 0.6366
vn -0.6557 0.3636 0.6618
vn -0.0059 0.2904 0.9569
vn -0.0050 0.2810 0.9597
vn 0.0879 -0.9961 -0.0062
vn 0.7257 -0.0026 -0.6880
vn 0.7086 -0.7008 -0.0830
vn -0.6059 -0.4570 0.6512
vn -0.2939 -0.1975 0.9352
vn -0.6060 -0.4570 0.6511
vn -0.2988 0.1796 0.9373
vn -0.6154 0.4649 0.6365
vn -0.9983 -0.0040 0.0578
vn 0.0281 -0.7140 -0.6996
vn 0.0044 0.9981 -0.0607
vn 0.7256 0.0026 -0.6881
vn -0.0058 0.9977 0.0669
vn -0.1182 0.8145 0.5681
vn -0.0115 0.9986 0.0525
vn -0.2988 0.1797 0.9373
vn -0.0049 -0.2812 0.9596
vn -0.0023 -0.7340 0.6792
vn -0.0023 -0.7341 0.6791
vn -0.9999 0.0044 0.0154
vn -0.9106 0.0034 0.4134
vn -0.9999 -0.0044 0.0154
vn -0.2276 0.1696 0.9589
vn -0.2268 -0.1701 0.9590
vn -0.0035 0.7350 0.6781
vn -0.0049 0.2811 0.9597
vn -0.0025 0.7341 0.6791
vn -0.0057 0.9995 0.0321
vn -0.0061 -0.3149 0.9491
vn -0.6480 -0.4355 0.6248
vn -0.9356 -0.3524 0.0221
vn -0.9394 -0.3422 0.0232
vn -0.0072 -0.9983 0.0586
vn -0.9983 0.0039 0.0577
vn 0.7256 -0.0025 -0.6881
vn 0.0503 -0.0031 -0.9987
vn 0.7256 0.0025 -0.6881
vn 0.0860 -0.9930 -0.0807
vn 0.7257 -0.0025 -0.6880
vn 0.7257 0.0025 -0.6880
vn 0.9902 0.0023 -0.1393
vn 0.1390 0.9816 -0.1309
vn -0.2939 -0.1974 0.9352
vn -0.2269 -0.1701 0.9589
vn -0.0060 -0.3148 0.9491
vn -0.0048 -0.2811 0.9597
vn -0.2269 -0.1701 0.9590
vn -0.2938 -0.1975 0.9352
vn -0.2987 0.1797 0.9373
vt 0.625106 0.057836
vt 0.619926 0.056963
vt 0.621111 0.053118
vt 0.625301 0.052935
vt 0.615090 0.056935
vt 0.615480 0.052078
vt 0.619440 0.052973
vt 0.615112 0.046973
vt 0.620271 0.046735
vt 0.619628 0.051094
vt 0.145133 0.051438
vt 0.144866 0.056567
vt 0.140766 0.055568
vt 0.140048 0.051300
vt 0.145373 0.061430
vt 0.140466 0.061600
vt 0.140864 0.057581
vt 0.135463 0.062617
vt 0.135118 0.057752
vt 0.139288 0.057802
vt 0.178447 0.431554
vt 0.177956 0.502893
vt 0.152034 0.515195
vt 0.151448 0.419480
vt 0.140784 0.433317
vt 0.138845 0.428694
vt 0.143789 0.426255
vt 0.145294 0.425393
vt 0.136684 0.382173
vt 0.142590 0.389591
vt 0.141097 0.388911
vt 0.136279 0.386914
vt 0.633703 0.380327
vt 0.634430 0.385095
vt 0.629662 0.387453
vt 0.626898 0.388822
vt 0.629325 0.432395
vt 0.623771 0.423664
vt 0.626470 0.425340
vt 0.631318 0.427860
vt 0.076574 0.276092
vt 0.076454 0.270957
vt 0.080288 0.269878
vt 0.082069 0.269896
vt 0.075810 0.266122
vt 0.080858 0.268231
vt 0.085236 0.267779
vt 0.076864 0.727944
vt 0.077513 0.723031
vt 0.081406 0.724125
vt 0.081993 0.725804
vt 0.077633 0.717817
vt 0.083211 0.724097
vt 0.086508 0.726241
vt 0.071246 0.005464
vt 0.067065 0.007066
vt 0.066591 0.004452
vt 0.068583 0.002244
vt 0.063351 0.007814
vt 0.063926 0.004168
vt 0.065012 0.000336
vt 0.065149 0.999897
vt 0.063816 0.995994
vt 0.066726 0.995703
vt 0.069009 0.998244
vt 0.063494 0.992292
vt 0.067374 0.992885
vt 0.071472 0.994733
vt 0.654682 0.062461
vt 0.659690 0.058320
vt 0.617656 0.009557
vt 0.613663 0.014146
vt 0.173014 0.406028
vt 0.178043 0.404567
vt 0.183493 0.432395
vt 0.183466 0.404479
vt 0.187014 0.432464
vt 0.593317 0.376794
vt 0.598072 0.402376
vt 0.594337 0.404256
vt 0.588369 0.375320
vt 0.589859 0.404288
vt 0.584856 0.374956
vt 0.176597 0.377035
vt 0.181557 0.375539
vt 0.185147 0.375155
vt 0.106237 0.068114
vt 0.101146 0.064157
vt 0.141846 0.014479
vt 0.145882 0.018902
vt 0.128087 0.436143
vt 0.127680 0.431307
vt 0.125531 0.384933
vt 0.125953 0.380385
vt 0.598207 0.405628
vt 0.592313 0.430726
vt 0.587335 0.431635
vt 0.583992 0.431737
vt 0.586902 0.501932
vt 0.583498 0.501805
vt 0.182833 0.502120
vt 0.621353 0.393143
vt 0.664709 0.060021
vt 0.146005 0.010455
vt 0.613414 0.005621
vt 0.173107 0.402845
vt 0.149269 0.394615
vt 0.096189 0.066010
vt 0.186250 0.502106
vt 0.623905 0.509604
vt 0.618682 0.514416
vt 0.618533 0.418868
vt 0.629510 0.500888
vt 0.145807 0.509357
vt 0.141290 0.501630
vt 0.008934 0.271589
vt 0.009575 0.266682
vt 0.009089 0.723482
vt 0.008919 0.718329
vt 0.022175 0.003873
vt 0.021135 0.000103
vt 0.022735 0.007516
vt 0.021818 0.995687
vt 0.022153 0.991993
vt 0.644496 0.377998
vt 0.645646 0.382448
vt 0.642968 0.430556
vt 0.642020 0.435316
vt 0.156901 0.004711
vt 0.602402 0.000103
vt 0.674379 0.065825
vt 0.086715 0.072102
vt 0.020443 0.999668
vt 0.591744 0.502808
vt 0.128823 0.499059
vt 0.641954 0.498004
vt 0.008809 0.276685
vt 0.009774 0.728467
vt 0.624173 0.875306
vt 0.624362 0.880199
vt 0.620179 0.880011
vt 0.619000 0.876171
vt 0.614171 0.876192
vt 0.618509 0.880155
vt 0.614553 0.881043
vt 0.614176 0.886140
vt 0.618693 0.882033
vt 0.619328 0.886387
vt 0.144861 0.880805
vt 0.139782 0.880934
vt 0.140507 0.876674
vt 0.144604 0.875684
vt 0.145115 0.870833
vt 0.140616 0.874667
vt 0.140225 0.870661
vt 0.135244 0.869647
vt 0.139051 0.874442
vt 0.134900 0.874491
vt 0.144320 0.508526
vt 0.139448 0.506187
vt 0.136597 0.551529
vt 0.136195 0.546809
vt 0.140992 0.544824
vt 0.142479 0.544147
vt 0.633191 0.553307
vt 0.626407 0.544815
vt 0.629165 0.546187
vt 0.633922 0.548547
vt 0.631481 0.505391
vt 0.626627 0.507925
vt 0.003288 0.270511
vt 0.005076 0.270489
vt 0.004498 0.268834
vt 0.000103 0.268388
vt 0.004614 0.726299
vt 0.005197 0.724612
vt 0.003392 0.724593
vt 0.000103 0.726737
vt 0.014875 0.005121
vt 0.017574 0.001935
vt 0.019528 0.004146
vt 0.019039 0.006748
vt 0.016559 0.997935
vt 0.018887 0.995393
vt 0.018255 0.992563
vt 0.014136 0.994385
vt 0.653710 0.870727
vt 0.658705 0.874868
vt 0.616646 0.923508
vt 0.612668 0.918918
vt 0.177717 0.529311
vt 0.172802 0.527947
vt 0.183046 0.529371
vt 0.592846 0.556810
vt 0.587901 0.558277
vt 0.593885 0.529357
vt 0.597617 0.531240
vt 0.584391 0.558638
vt 0.589401 0.529315
vt 0.176270 0.556620
vt 0.181199 0.558110
vt 0.184769 0.558491
vt 0.101078 0.868103
vt 0.106148 0.864166
vt 0.145548 0.913298
vt 0.141509 0.917707
vt 0.128496 0.503793
vt 0.125912 0.553305
vt 0.125494 0.548777
vt 0.597781 0.527989
vt 0.620876 0.540493
vt 0.663719 0.873177
vt 0.145655 0.921733
vt 0.612404 0.927431
vt 0.172823 0.531013
vt 0.149130 0.539148
vt 0.096143 0.866257
vt 0.645118 0.551206
vt 0.643964 0.555647
vt 0.642913 0.502675
vt 0.601397 0.932920
vt 0.156525 0.927489
vt 0.673382 0.867394
vt 0.086715 0.860187
s 0
usemtl UV
f 1/1/1 4/2/2 5/3/3 7/4/4
f 2/5/5 6/6/6 5/7/3 4/2/7
f 3/8/8 7/9/4 5/10/9 6/6/10
f 8/11/11 11/12/12 12/13/13 14/14/14
f 9/15/15 13/16/16 12/17/13 11/12/17
f 10/18/18 14/19/14 12/20/19 13/16/20
f 33/21/21 113/22/22 123/23/23 43/24/24
f 41/25/25 44/26/26 45/27/27 46/28/28
f 42/29/29 46/30/30 45/31/31 44/32/32
f 47/33/33 50/34/34 51/35/35 52/36/36
f 48/37/37 52/38/36 51/39/35 50/40/38
f 53/41/39 56/42/40 57/43/41 59/44/42
f 54/45/43 58/46/44 57/43/41 56/42/40
f 55/47/45 59/44/42 57/43/41 58/46/46
f 60/48/47 63/49/48 64/50/49 66/51/50
f 61/52/51 65/53/52 64/50/49 63/49/48
f 62/54/53 66/51/50 64/50/49 65/53/54
f 67/55/55 70/56/56 71/57/57 73/58/58
f 68/59/59 72/60/60 71/57/61 70/56/62
f 69/61/63 73/58/58 71/57/61 72/60/60
f 74/62/64 77/63/65 78/64/66 80/65/67
f 75/66/68 79/67/69 78/64/70 77/63/71
f 76/68/72 80/65/67 78/64/73 79/67/69
f 23/69/74 1/1/1 7/4/4 24/70/75
f 24/71/75 7/9/76 3/8/8 21/72/77
f 2/5/5 9/15/78 11/12/12 6/6/6
f 6/6/79 11/12/12 8/11/80 3/8/81
f 33/21/21 18/73/82 20/74/83 34/75/84
f 34/75/84 20/74/85 19/76/86 32/77/87
f 36/78/88 15/79/89 17/80/90 37/81/91
f 37/81/92 17/80/90 16/82/93 35/83/94
f 39/84/95 10/18/96 13/16/20 40/85/97
f 40/85/98 13/16/16 9/15/15 38/86/99
f 10/18/18 25/87/100 28/88/101 14/19/14
f 14/14/102 28/89/101 27/90/103 8/11/11
f 41/25/104 74/91/64 80/92/67 44/26/26
f 44/32/32 80/93/67 76/94/105 42/29/29
f 15/95/89 29/96/106 31/97/107 17/80/90
f 17/80/90 31/97/108 30/98/109 16/82/110
f 111/99/111 110/100/112 30/98/113 31/97/114
f 34/75/84 114/101/115 113/22/22 33/21/21
f 49/102/116 23/69/117 24/70/118 52/36/119
f 52/36/120 24/70/121 22/103/122 47/33/123
f 26/104/124 22/105/122 24/71/125 28/89/101
f 28/89/101 24/71/121 21/72/126 27/90/127
f 1/1/1 36/78/128 37/81/92 4/2/7
f 4/2/2 37/81/129 35/83/94 2/5/5
f 18/106/130 39/84/131 40/85/97 20/74/132
f 20/74/85 40/85/97 38/86/99 19/76/133
f 25/87/134 43/107/135 46/30/136 28/88/137
f 28/88/138 46/30/30 42/29/29 26/108/139
f 32/77/140 112/109/141 114/101/142 34/75/143
f 52/38/36 132/110/144 129/111/145 49/112/116
f 48/37/37 128/113/146 132/110/147 52/38/119
f 46/28/148 126/114/149 121/115/150 41/25/104
f 43/24/24 123/23/23 126/114/149 46/28/28
f 56/42/40 136/116/151 134/117/152 54/45/153
f 67/55/55 55/47/45 58/46/154 70/56/155
f 70/56/56 58/46/156 54/45/153 68/59/59
f 61/52/157 53/41/158 59/44/159 65/53/52
f 65/53/54 59/44/42 55/47/160 62/54/161
f 62/54/161 76/68/105 79/67/162 66/51/50
f 66/51/163 79/67/164 75/66/68 60/48/165
f 143/118/166 141/119/167 61/52/51 63/49/48
f 72/60/60 152/120/168 149/121/169 69/61/170
f 68/59/59 148/122/171 152/120/172 72/60/173
f 77/63/174 157/123/175 155/124/176 75/66/177
f 47/33/178 67/125/179 73/126/58 50/34/38
f 50/40/34 73/127/58 69/128/63 48/37/180
f 23/69/74 49/102/181 36/78/88 1/1/1
f 3/8/8 8/11/11 27/90/103 21/72/182
f 35/83/94 38/86/99 9/15/78 2/5/5
f 43/107/24 25/87/100 10/18/18 39/84/95
f 16/82/183 19/76/184 38/86/99 35/83/185
f 49/112/181 29/96/186 15/95/187
f 30/98/109 32/77/188 19/76/189 16/82/190
f 33/21/21 43/24/24 18/73/82
f 22/105/191 26/104/124 62/129/161 55/130/192
f 47/33/193 22/103/194 55/131/195 67/125/196
f 26/108/197 42/29/29 76/94/72 62/132/161
f 74/62/198 154/133/199 157/123/200 77/63/201
f 30/98/113 110/100/112 112/109/141 32/77/140
f 49/112/181 129/111/202 109/134/203 29/96/186
f 121/115/204 154/135/205 74/91/64 41/25/25
f 69/128/206 149/136/207 128/113/208 48/37/209
f 133/137/210 53/41/39 61/52/51 141/119/167
f 54/45/153 134/117/152 148/122/171 68/59/59
f 140/138/211 143/118/166 63/49/48 60/48/212
f 53/41/39 133/137/210 136/116/151 56/42/40
f 109/134/213 111/99/214 31/97/114 29/96/215
f 18/106/82 43/107/24 39/84/95
f 15/79/89 36/78/88 49/102/181
f 81/139/216 87/140/217 85/141/218 84/142/219
f 82/143/220 84/142/221 85/144/222 86/145/223
f 83/146/224 86/145/223 85/147/218 87/148/217
f 88/149/225 94/150/226 92/151/227 91/152/228
f 89/153/229 91/152/228 92/154/227 93/155/230
f 90/156/231 93/155/230 92/157/227 94/158/226
f 121/115/232 126/114/233 125/159/234 124/160/235
f 122/161/236 124/162/235 125/163/237 126/164/149
f 127/165/238 132/166/144 131/167/239 130/168/240
f 128/113/241 130/169/240 131/170/239 132/110/242
f 133/137/210 139/171/243 137/172/244 136/116/151
f 134/117/245 136/116/151 137/172/244 138/173/246
f 135/174/247 138/173/248 137/172/244 139/171/249
f 140/138/211 146/175/250 144/176/251 143/118/166
f 141/119/252 143/118/166 144/176/251 145/177/253
f 142/178/254 145/177/253 144/176/251 146/175/250
f 147/179/255 153/180/256 151/181/257 150/182/258
f 148/122/171 150/182/259 151/181/260 152/120/168
f 149/121/169 152/120/168 151/181/260 153/180/256
f 154/133/205 160/183/261 158/184/262 157/123/263
f 155/124/264 157/123/263 158/184/265 159/185/266
f 156/186/267 159/185/268 158/184/269 160/183/261
f 103/187/270 104/188/271 87/140/217 81/139/216
f 104/189/272 101/190/273 83/146/224 87/148/274
f 82/143/220 86/145/223 91/152/275 89/153/229
f 86/145/276 83/146/277 88/149/278 91/152/275
f 113/22/22 114/101/115 100/191/279 98/192/280
f 114/101/281 112/109/282 99/193/283 100/191/284
f 116/194/285 117/195/286 97/196/287 95/197/288
f 117/195/289 115/198/290 96/199/291 97/196/287
f 119/200/292 120/201/293 93/155/294 90/156/295
f 120/201/296 118/202/297 89/153/298 93/155/230
f 90/156/231 94/158/226 108/203/299 105/204/300
f 94/150/301 88/149/225 107/205/302 108/206/303
f 121/115/204 124/160/235 160/207/304 154/135/205
f 124/162/235 122/161/305 156/208/306 160/209/261
f 95/210/288 97/196/287 111/99/111 109/134/307
f 97/196/287 96/199/308 110/100/112 111/99/309
f 129/211/202 132/166/147 104/188/310 103/187/270
f 132/166/242 127/165/238 102/212/311 104/188/312
f 106/213/313 108/206/299 104/189/310 102/214/311
f 108/206/314 107/205/302 101/190/315 104/189/271
f 81/139/216 84/142/221 117/195/289 116/194/285
f 84/142/219 82/143/220 115/198/290 117/195/316
f 98/215/280 100/191/279 120/201/293 119/200/317
f 100/191/284 99/193/318 118/202/297 120/201/293
f 105/204/319 108/203/314 126/164/320 123/216/321
f 108/203/314 106/217/322 122/161/305 126/164/149
f 147/179/323 150/182/258 138/173/324 135/174/247
f 150/182/259 148/122/171 134/117/152 138/173/325
f 141/119/326 145/177/327 139/171/243 133/137/328
f 145/177/253 142/178/329 135/174/330 139/171/249
f 142/178/329 146/175/250 159/185/331 156/186/332
f 146/175/333 140/138/334 155/124/264 159/185/266
f 127/165/335 130/168/336 153/218/256 147/219/323
f 130/169/240 128/113/337 149/136/338 153/220/256
f 103/187/339 81/139/216 116/194/285 129/211/202
f 83/146/224 101/190/273 107/205/340 88/149/225
f 115/198/290 82/143/220 89/153/229 118/202/297
f 123/216/23 119/200/292 90/156/231 105/204/300
f 96/199/341 115/198/342 118/202/297 99/193/343
f 129/111/202 95/210/344 109/134/203
f 110/100/112 96/199/345 99/193/346 112/109/347
f 113/22/22 98/192/348 123/23/23
f 102/214/349 135/221/350 142/222/329 106/213/322
f 127/165/351 147/219/352 135/223/353 102/212/354
f 106/217/355 142/224/329 156/208/267 122/161/305
f 98/215/348 119/200/292 123/216/23
f 95/197/344 129/211/202 116/194/285
f 75/66/68 155/124/264 140/138/211 60/48/212
