# Blender 5.0.1
# www.blender.org
mtllib kniha_otvrena.mtl
o kniha_open
v 0.025773 -0.010920 -0.233140
v 0.020855 -0.000957 -0.238057
v 0.030689 -0.006127 -0.233140
v 0.025773 -0.010920 0.232383
v 0.030689 -0.006127 0.232383
v 0.020855 -0.000957 0.237300
v 0.030690 0.027456 -0.233140
v 0.017127 0.022579 -0.238715
v 0.026883 0.032194 0.233558
v 0.017127 0.022579 0.236642
v 0.030690 0.027456 0.232383
v 0.415363 -0.011011 -0.238057
v 0.420281 -0.011138 -0.233140
v 0.415365 -0.015930 -0.233140
v 0.415363 -0.011011 0.237300
v 0.415365 -0.015930 0.232383
v 0.420281 -0.011138 0.232383
v 0.415363 0.026679 -0.238057
v 0.415363 0.031597 -0.233140
v 0.420281 0.026732 -0.233140
v 0.415363 0.026679 0.237300
v 0.420281 0.026732 0.232383
v 0.415363 0.031597 0.232383
v -0.001735 0.027403 -0.233102
v 0.004040 0.027403 -0.238057
v 0.003949 -0.006002 -0.238057
v -0.001735 -0.006002 -0.233106
v -0.001735 -0.006002 0.232349
v 0.003949 -0.006002 0.237300
v 0.004040 0.027403 0.237300
v -0.001735 0.027403 0.232345
v 0.025773 -0.011133 -0.233140
v 0.020855 -0.016051 -0.233140
v 0.020855 -0.011133 -0.238057
v 0.025773 -0.011133 0.232383
v 0.020855 -0.011133 0.237300
v 0.020855 -0.016051 0.232383
v -0.001735 -0.011133 -0.233107
v 0.003920 -0.011133 -0.238057
v 0.003182 -0.016051 -0.233140
v -0.001735 -0.011133 0.232350
v 0.003182 -0.016051 0.232383
v 0.003920 -0.011133 0.237300
v 0.039412 0.040327 0.232570
v 0.035472 0.042860 0.237514
v 0.035472 0.042860 -0.237844
v 0.039412 0.040327 -0.232900
v 0.016273 0.055204 0.232588
v 0.020410 0.052544 0.237514
v 0.016273 0.055204 -0.232918
v 0.020410 0.052544 -0.237844
v 0.094570 0.055232 0.232575
v 0.092482 0.058583 0.237514
v 0.092482 0.058583 -0.237844
v 0.094570 0.055232 -0.232905
v 0.082271 0.074978 0.237514
v 0.080027 0.078581 0.232589
v 0.080027 0.078581 -0.232920
v 0.082271 0.074978 -0.237844
v 0.269957 0.054205 0.232580
v 0.270695 0.057900 0.237514
v 0.270695 0.057900 -0.237844
v 0.269957 0.054205 -0.232910
v 0.275345 0.081186 0.232591
v 0.274559 0.077253 0.237514
v 0.275345 0.081186 -0.232921
v 0.274559 0.077253 -0.237844
v 0.365585 0.032245 0.232580
v 0.371339 0.035967 0.232596
v 0.366328 0.035984 0.237514
v 0.365585 0.032245 -0.232911
v 0.366328 0.035984 -0.237844
v 0.371339 0.035967 -0.232926
v 0.370972 0.059267 0.232591
v 0.370179 0.055300 0.237514
v 0.374804 0.053345 0.232596
v 0.370972 0.059267 -0.232921
v 0.374804 0.053345 -0.232926
v 0.370179 0.055300 -0.237844
v 0.181581 0.071328 0.237514
v 0.182263 0.067555 0.232578
v 0.178410 0.088871 0.237514
v 0.177686 0.092875 0.232590
v 0.182263 0.067555 -0.232908
v 0.181581 0.071328 -0.237844
v 0.178410 0.088871 -0.237844
v 0.177686 0.092875 -0.232921
v 0.020483 0.037751 0.240020
v 0.032712 0.038366 0.234037
v 0.007081 0.039117 0.240020
v 0.005181 0.042383 0.233954
v 0.032712 0.038366 -0.231426
v 0.026883 0.032194 -0.231595
v 0.020483 0.037751 -0.235338
v 0.007081 0.039117 -0.235338
v 0.005181 0.042383 -0.231526
v -0.029244 -0.010920 -0.233140
v -0.024326 -0.000957 -0.238057
v -0.034160 -0.006127 -0.233140
v -0.029244 -0.010920 0.232383
v -0.034160 -0.006127 0.232383
v -0.024326 -0.000957 0.237300
v -0.034161 0.027456 -0.233140
v -0.020597 0.022579 -0.238715
v -0.030353 0.032194 0.233558
v -0.020597 0.022579 0.236642
v -0.034161 0.027456 0.232383
v -0.418833 -0.011011 -0.238057
v -0.423751 -0.011138 -0.233140
v -0.418835 -0.015930 -0.233140
v -0.418833 -0.011011 0.237300
v -0.418835 -0.015930 0.232383
v -0.423751 -0.011138 0.232383
v -0.418833 0.026679 -0.238057
v -0.418834 0.031597 -0.233140
v -0.423751 0.026732 -0.233140
v -0.418833 0.026679 0.237300
v -0.423751 0.026732 0.232383
v -0.418834 0.031597 0.232383
v -0.007511 0.027403 -0.238057
v -0.007420 -0.006002 -0.238057
v -0.007420 -0.006002 0.237300
v -0.007511 0.027403 0.237300
v -0.029244 -0.011133 -0.233140
v -0.024326 -0.016051 -0.233140
v -0.024326 -0.011133 -0.238057
v -0.029244 -0.011133 0.232383
v -0.024326 -0.011133 0.237300
v -0.024326 -0.016051 0.232383
v -0.007390 -0.011133 -0.238057
v -0.006653 -0.016051 -0.233140
v -0.006653 -0.016051 0.232383
v -0.007390 -0.011133 0.237300
v -0.042882 0.040327 0.232570
v -0.038943 0.042860 0.237514
v -0.038942 0.042860 -0.237844
v -0.042882 0.040327 -0.232900
v -0.019744 0.055204 0.232588
v -0.023880 0.052544 0.237514
v -0.019744 0.055204 -0.232918
v -0.023880 0.052544 -0.237844
v -0.098040 0.055232 0.232575
v -0.095953 0.058583 0.237514
v -0.095953 0.058583 -0.237844
v -0.098040 0.055232 -0.232905
v -0.085742 0.074978 0.237514
v -0.083497 0.078581 0.232589
v -0.083497 0.078581 -0.232920
v -0.085741 0.074978 -0.237844
v -0.273427 0.054205 0.232580
v -0.274165 0.057900 0.237514
v -0.274165 0.057900 -0.237844
v -0.273427 0.054205 -0.232910
v -0.278815 0.081186 0.232591
v -0.278030 0.077253 0.237514
v -0.278815 0.081186 -0.232921
v -0.278030 0.077253 -0.237844
v -0.369055 0.032245 0.232580
v -0.374810 0.035967 0.232596
v -0.369799 0.035984 0.237514
v -0.369055 0.032245 -0.232911
v -0.369799 0.035984 -0.237844
v -0.374810 0.035967 -0.232926
v -0.374442 0.059267 0.232591
v -0.373650 0.055300 0.237514
v -0.378274 0.053345 0.232596
v -0.374442 0.059267 -0.232921
v -0.378274 0.053345 -0.232926
v -0.373649 0.055300 -0.237844
v -0.185052 0.071328 0.237514
v -0.185734 0.067555 0.232578
v -0.181880 0.088871 0.237514
v -0.181156 0.092875 0.232590
v -0.185734 0.067555 -0.232908
v -0.185052 0.071328 -0.237844
v -0.181880 0.088871 -0.237844
v -0.181156 0.092875 -0.232921
v -0.023954 0.037751 0.240020
v -0.036182 0.038366 0.234037
v -0.010551 0.039117 0.240020
v -0.008652 0.042383 0.233954
v -0.036182 0.038366 -0.231426
v -0.030353 0.032194 -0.231595
v -0.023954 0.037751 -0.235338
v -0.010551 0.039117 -0.235338
v -0.008652 0.042383 -0.231526
vn 0.7171 -0.6968 -0.0188
vn -0.0008 -0.1393 -0.9902
vn -0.0128 -0.9999 -0.0107
vn 0.7170 -0.6968 0.0187
vn -0.0128 -0.9999 0.0107
vn -0.0007 -0.1214 0.9926
vn 0.9838 -0.1773 -0.0259
vn 0.0015 0.9999 -0.0106
vn 0.0022 0.1334 -0.9911
vn 0.9819 -0.1874 0.0258
vn 0.0019 0.1260 0.9920
vn 0.0016 0.9999 0.0105
vn 0.0109 -0.1430 -0.9897
vn 0.9934 -0.1139 -0.0098
vn -0.0129 -0.9999 -0.0105
vn 0.0097 -0.1252 0.9921
vn -0.0130 -0.9999 0.0105
vn 0.9934 -0.1139 0.0098
vn 0.0130 0.1348 -0.9908
vn 0.0018 0.9999 -0.0103
vn 0.9935 0.1137 -0.0098
vn 0.0116 0.1353 0.9907
vn 0.9935 0.1138 0.0097
vn 0.0018 0.9999 0.0104
vn 0.7255 -0.6881 -0.0112
vn 0.2119 -0.9772 -0.0089
vn 0.1379 -0.3562 -0.9242
vn 0.7255 -0.6881 0.0112
vn 0.1379 -0.3561 0.9242
vn 0.2119 -0.9772 0.0089
vn -0.4605 -0.8875 -0.0166
vn -0.1353 -0.3495 -0.9271
vn -0.2119 -0.9772 -0.0090
vn -0.4605 -0.8875 0.0166
vn -0.2119 -0.9773 0.0091
vn -0.1352 -0.3495 0.9271
vn -0.1773 -0.9841 0.0078
vn 0.9167 -0.3995 0.0093
vn -0.0037 -0.2050 0.9788
vn -0.1773 -0.9841 -0.0078
vn -0.0037 -0.2050 -0.9788
vn 0.9167 -0.3995 -0.0093
vn 0.2693 0.9630 0.0083
vn 0.0857 0.1861 0.9788
vn 0.9998 0.0148 0.0093
vn 0.2693 0.9630 -0.0083
vn 0.9998 0.0148 -0.0093
vn 0.0856 0.1861 -0.9788
vn 0.1618 -0.1667 0.9726
vn 0.5443 -0.8388 0.0106
vn 0.5421 -0.8403 -0.0107
vn 0.1018 -0.1194 -0.9876
vn -0.0130 -0.9999 -0.0107
vn -0.0130 -0.9999 0.0107
vn 0.7171 -0.6968 0.0187
vn 0.7171 -0.6968 -0.0187
vn 0.0014 0.9999 0.0106
vn 0.0014 0.9999 -0.0105
vn 0.9819 -0.1874 0.0257
vn 0.0131 0.1348 -0.9908
vn 0.0021 0.1334 -0.9911
vn 0.0015 0.9999 -0.0105
vn 0.0018 0.1259 0.9920
vn 0.0117 0.1352 0.9907
vn 0.0018 0.9999 0.0103
vn 0.0015 0.9999 0.0105
vn 0.9935 0.1137 0.0098
vn 0.0017 0.9999 -0.0104
vn 0.0017 0.9999 0.0104
vn 0.9935 0.1138 -0.0097
vn 0.9934 -0.1140 -0.0097
vn 0.0117 0.1353 0.9907
vn 0.9934 -0.1140 0.0097
vn -0.0130 -0.9999 -0.0105
vn -0.0008 -0.1393 -0.9903
vn 0.0110 -0.1429 -0.9897
vn -0.0129 -0.9999 -0.0106
vn 0.0098 -0.1252 0.9921
vn -0.0008 -0.1213 0.9926
vn -0.0129 -0.9999 0.0106
vn -0.0127 -0.9999 0.0105
vn -0.2506 0.0738 -0.9653
vn -0.2495 -0.0065 -0.9683
vn -0.9997 -0.0000 -0.0245
vn -0.9222 0.3855 -0.0297
vn -0.2275 0.0073 0.9738
vn -0.2653 -0.0184 0.9640
vn -0.9227 0.3844 0.0297
vn -0.9997 -0.0000 0.0245
vn 0.7255 -0.6881 -0.0113
vn 0.7255 -0.6881 0.0113
vn 0.2119 -0.9773 0.0089
vn 0.2119 -0.9773 -0.0089
vn -0.2119 -0.9773 -0.0091
vn -0.4606 -0.8875 0.0166
vn -0.4606 -0.8875 -0.0166
vn -0.2120 -0.9772 0.0091
vn 0.1380 -0.3562 0.9242
vn -0.1353 -0.3496 0.9271
vn 0.2120 -0.9772 -0.0089
vn -0.1353 -0.3496 -0.9271
vn -0.9997 0.0001 0.0245
vn -0.1352 -0.3496 0.9271
vn -0.2275 0.0073 0.9737
vn 0.1379 -0.3562 0.9242
vn -0.1352 -0.3496 -0.9271
vn -0.4605 -0.8875 -0.0167
vn -0.9997 0.0001 -0.0245
vn 0.7171 -0.6967 -0.0187
vn 0.2633 -0.9647 0.0083
vn 0.0734 -0.1888 0.9793
vn 0.1617 -0.1667 0.9727
vn -0.8393 0.5437 0.0086
vn -0.2652 -0.0185 0.9640
vn -0.2418 0.1551 0.9578
vn 0.0496 -0.2470 -0.9677
vn 0.2629 -0.9648 -0.0083
vn 0.5421 -0.8402 -0.0106
vn -0.8392 0.5437 -0.0087
vn -0.4354 0.9002 -0.0088
vn -0.1174 0.1988 -0.9730
vn -0.2290 0.1502 -0.9618
vn -0.2273 0.9738 -0.0084
vn -0.0531 0.2291 -0.9720
vn -0.1175 0.1987 -0.9730
vn 0.1873 -0.9823 -0.0079
vn 0.0495 -0.2470 -0.9677
vn 0.0416 -0.2161 -0.9755
vn -0.1011 0.2557 0.9615
vn -0.0531 0.2291 0.9719
vn -0.2273 0.9738 0.0084
vn -0.4353 0.9002 0.0088
vn 0.2634 -0.9647 0.0083
vn 0.1873 -0.9823 0.0079
vn 0.0417 -0.2161 0.9755
vn 0.0735 -0.1888 0.9793
vn -0.0058 -1.0000 0.0080
vn -0.1891 -0.9819 0.0080
vn -0.0392 -0.2042 0.9781
vn -0.0011 -0.2113 0.9774
vn -0.0133 0.9999 0.0084
vn -0.0531 0.2291 0.9720
vn -0.0028 0.2241 0.9746
vn -0.0011 -0.2113 -0.9774
vn -0.0392 -0.2042 -0.9781
vn -0.1891 -0.9819 -0.0080
vn -0.0058 -1.0000 -0.0080
vn -0.0133 0.9999 -0.0084
vn 0.1713 0.9852 -0.0084
vn 0.0365 0.2092 -0.9772
vn -0.0028 0.2241 -0.9746
vn -0.1773 -0.9841 0.0079
vn -0.1773 -0.9841 -0.0079
vn 0.9167 -0.3995 -0.0094
vn 0.9167 -0.3995 0.0094
vn 0.9998 0.0148 0.0092
vn 0.0856 0.1861 0.9788
vn -0.0037 -0.2049 0.9788
vn 0.9998 0.0148 -0.0092
vn 0.0856 0.1862 -0.9788
vn 0.0857 0.1861 -0.9788
vn -0.1891 -0.9819 -0.0079
vn -0.0392 -0.2042 -0.9782
vn -0.0036 -0.2049 -0.9788
vn 0.0365 0.2092 0.9772
vn 0.1713 0.9852 0.0084
vn -0.1891 -0.9819 0.0079
vn -0.0036 -0.2049 0.9788
vn -0.0392 -0.2042 0.9782
vn 0.1872 -0.9823 0.0079
vn -0.0059 -1.0000 0.0080
vn -0.0010 -0.2113 0.9774
vn 0.0416 -0.2161 0.9755
vn -0.0010 -0.2113 -0.9774
vn -0.0059 -1.0000 -0.0080
vn -0.2272 0.9738 -0.0084
vn -0.0134 0.9999 -0.0084
vn -0.0530 0.2291 -0.9720
vn 0.9820 -0.1873 0.0258
vn 0.1618 -0.1667 0.9727
vn 0.0018 0.1260 0.9920
vn -0.4353 0.9003 0.0088
vn -0.8393 0.5436 0.0086
vn -0.2419 0.1550 0.9578
vn 0.9838 -0.1772 -0.0259
vn 0.5422 -0.8402 -0.0107
vn 0.5443 -0.8388 0.0107
vn -0.2494 -0.0065 -0.9684
vn -0.2495 -0.0065 -0.9684
vn -0.0000 -0.1393 -0.9903
vn 0.1379 -0.3561 -0.9242
vn -0.1352 -0.3495 -0.9271
vn 0.0130 0.1347 -0.9908
vn 0.0110 -0.1430 -0.9897
vn 0.7170 -0.6968 -0.0187
vn 0.7255 -0.6882 0.0113
vn 0.7255 -0.6882 -0.0113
vn -0.0007 -0.1213 0.9926
vn -0.2652 -0.0184 0.9640
vn -0.2274 0.0073 0.9738
vn -0.1353 -0.3495 0.9271
vn 0.0015 0.9999 0.0106
vn 0.0022 0.1335 -0.9911
vn -0.2506 0.0739 -0.9653
vn -0.2289 0.1503 -0.9618
vn 0.1017 -0.1194 -0.9876
vn 0.9935 0.1138 -0.0098
vn 0.9935 0.1138 0.0098
vn -0.9997 -0.0000 -0.0246
vn -0.9997 -0.0000 0.0246
vn -0.9227 0.3844 0.0298
vn -0.8393 0.5437 -0.0087
vn 0.2119 -0.9773 -0.0090
vn 0.2119 -0.9773 0.0090
vn -0.2118 -0.9773 0.0091
vn -0.2118 -0.9773 -0.0091
vn -0.2418 0.1551 0.9579
vn 0.1618 -0.1666 0.9727
vn -0.1011 0.2556 0.9615
vn 0.5442 -0.8389 0.0106
vn -0.1175 0.1988 -0.9730
vn 0.0417 -0.2161 -0.9755
vn -0.1174 0.1987 -0.9730
vn -0.4352 0.9003 0.0088
vn -0.2273 0.9738 0.0085
vn -0.2273 0.9738 -0.0085
vn -0.8393 0.5437 0.0087
vn -0.4355 0.9002 -0.0088
vn 0.1872 -0.9823 -0.0079
vn -0.2272 0.9738 0.0084
vn 0.1713 0.9852 -0.0085
vn 0.1713 0.9852 0.0085
vn 0.9167 -0.3994 0.0093
vn 0.9167 -0.3994 -0.0093
vn -0.7170 -0.6968 -0.0188
vn 0.0128 -0.9999 -0.0107
vn 0.0008 -0.1394 -0.9902
vn -0.7171 -0.6968 0.0187
vn 0.0007 -0.1214 0.9926
vn 0.0128 -0.9999 0.0107
vn -0.9838 -0.1773 -0.0259
vn -0.0022 0.1335 -0.9911
vn -0.0015 0.9999 -0.0106
vn -0.9820 -0.1873 0.0258
vn -0.0015 0.9999 0.0105
vn -0.0019 0.1259 0.9920
vn -0.0109 -0.1430 -0.9897
vn 0.0130 -0.9999 -0.0105
vn -0.9934 -0.1139 -0.0098
vn -0.0097 -0.1252 0.9921
vn -0.9934 -0.1139 0.0098
vn 0.0129 -0.9999 0.0105
vn -0.0130 0.1348 -0.9908
vn -0.9935 0.1138 -0.0097
vn -0.0017 0.9999 -0.0104
vn -0.0116 0.1352 0.9907
vn -0.0018 0.9999 0.0104
vn -0.9935 0.1137 0.0098
vn -0.7255 -0.6881 -0.0112
vn -0.1379 -0.3561 -0.9242
vn -0.2119 -0.9772 -0.0089
vn -0.7255 -0.6881 0.0112
vn -0.2119 -0.9772 0.0089
vn -0.1379 -0.3562 0.9242
vn 0.2118 -0.9773 -0.0091
vn 0.1353 -0.3495 -0.9271
vn 0.1352 -0.3495 0.9271
vn 0.2119 -0.9772 0.0091
vn 0.1773 -0.9841 0.0078
vn 0.0037 -0.2050 0.9788
vn -0.9167 -0.3995 0.0093
vn 0.1773 -0.9841 -0.0079
vn -0.9167 -0.3995 -0.0093
vn 0.0037 -0.2050 -0.9788
vn -0.2693 0.9630 0.0083
vn -0.9998 0.0149 0.0092
vn -0.0856 0.1861 0.9788
vn -0.2693 0.9630 -0.0083
vn -0.0857 0.1861 -0.9788
vn -0.9998 0.0148 -0.0093
vn -0.1618 -0.1667 0.9726
vn -0.5443 -0.8388 0.0106
vn -0.9819 -0.1874 0.0258
vn -0.5421 -0.8402 -0.0107
vn -0.1018 -0.1194 -0.9876
vn 0.0130 -0.9999 -0.0107
vn -0.7171 -0.6968 -0.0187
vn 0.0130 -0.9999 0.0107
vn -0.0014 0.9999 0.0106
vn -0.9819 -0.1874 0.0257
vn -0.9838 -0.1773 -0.0260
vn -0.0014 0.9999 -0.0106
vn -0.0018 0.9999 -0.0103
vn -0.0015 0.9999 -0.0105
vn -0.0022 0.1334 -0.9911
vn -0.0018 0.1259 0.9920
vn -0.0018 0.9999 0.0103
vn -0.0117 0.1352 0.9907
vn -0.0017 0.9999 0.0104
vn -0.9935 0.1137 -0.0098
vn -0.9934 -0.1140 -0.0097
vn -0.0117 0.1352 0.9908
vn -0.9935 0.1138 0.0097
vn -0.9934 -0.1140 0.0097
vn -0.0097 -0.1253 0.9921
vn 0.0130 -0.9999 0.0105
vn 0.0008 -0.1393 -0.9903
vn 0.0129 -0.9999 -0.0106
vn 0.0127 -0.9999 -0.0105
vn -0.0110 -0.1429 -0.9897
vn 0.0129 -0.9999 0.0106
vn 0.0008 -0.1213 0.9926
vn 0.2506 0.0738 -0.9653
vn -0.9997 -0.0006 -0.0246
vn 0.2495 -0.0065 -0.9683
vn 0.2275 0.0073 0.9738
vn 0.2653 -0.0184 0.9640
vn -0.7255 -0.6881 -0.0113
vn -0.2119 -0.9773 -0.0089
vn -0.2119 -0.9773 0.0089
vn -0.7255 -0.6881 0.0113
vn 0.2119 -0.9773 -0.0091
vn -0.4605 -0.8875 -0.0165
vn -0.4606 -0.8876 0.0045
vn 0.2119 -0.9773 0.0091
vn 0.1353 -0.3496 0.9271
vn -0.2120 -0.9772 0.0089
vn -0.1380 -0.3562 -0.9242
vn 0.1353 -0.3496 -0.9271
vn 0.2120 -0.9772 -0.0091
vn -0.9997 -0.0013 0.0246
vn 0.2275 0.0073 0.9737
vn 0.1352 -0.3496 0.9271
vn -0.7171 -0.6967 0.0187
vn -0.9997 0.0001 -0.0246
vn 0.1352 -0.3496 -0.9271
vn -0.1379 -0.3562 -0.9242
vn -0.5442 -0.8389 0.0106
vn -0.1618 -0.1666 0.9727
vn -0.0734 -0.1888 0.9793
vn -0.2634 -0.9647 0.0082
vn 0.8393 0.5436 0.0086
vn 0.2418 0.1551 0.9578
vn 0.2652 -0.0184 0.9640
vn -0.1017 -0.1194 -0.9876
vn -0.5422 -0.8402 -0.0107
vn -0.2629 -0.9648 -0.0083
vn -0.0495 -0.2470 -0.9677
vn 0.8392 0.5437 -0.0087
vn 0.2290 0.1502 -0.9618
vn 0.1175 0.1987 -0.9730
vn 0.4354 0.9002 -0.0088
vn 0.4355 0.9001 -0.0088
vn 0.0531 0.2291 -0.9719
vn 0.2273 0.9738 -0.0084
vn -0.1873 -0.9823 -0.0079
vn -0.0417 -0.2161 -0.9755
vn 0.1011 0.2556 0.9615
vn 0.4353 0.9003 0.0088
vn 0.2273 0.9738 0.0084
vn 0.0531 0.2291 0.9720
vn -0.2633 -0.9647 0.0083
vn -0.0735 -0.1888 0.9793
vn -0.0416 -0.2161 0.9755
vn -0.1873 -0.9823 0.0079
vn 0.0058 -1.0000 0.0080
vn 0.0011 -0.2113 0.9774
vn 0.0392 -0.2042 0.9781
vn 0.1891 -0.9819 0.0080
vn 0.0134 0.9999 0.0084
vn 0.0028 0.2241 0.9746
vn 0.0530 0.2291 0.9720
vn 0.2272 0.9738 0.0084
vn 0.0011 -0.2113 -0.9774
vn 0.0058 -1.0000 -0.0080
vn 0.1891 -0.9819 -0.0080
vn 0.0392 -0.2042 -0.9781
vn 0.0133 0.9999 -0.0084
vn 0.0028 0.2241 -0.9746
vn -0.0365 0.2092 -0.9772
vn -0.1713 0.9852 -0.0084
vn 0.1773 -0.9841 0.0079
vn -0.9167 -0.3995 0.0094
vn -0.9167 -0.3995 -0.0094
vn -0.9998 0.0148 0.0093
vn -0.0856 0.1862 0.9788
vn -0.9998 0.0148 -0.0092
vn -0.0856 0.1861 -0.9788
vn 0.0037 -0.2049 -0.9788
vn 0.1773 -0.9841 -0.0078
vn 0.0036 -0.2049 -0.9788
vn 0.0392 -0.2042 -0.9782
vn 0.1891 -0.9819 -0.0079
vn -0.0365 0.2092 0.9772
vn -0.1713 0.9852 0.0084
vn -0.0857 0.1861 0.9788
vn 0.1891 -0.9819 0.0079
vn 0.0392 -0.2042 0.9782
vn 0.0036 -0.2049 0.9788
vn 0.0010 -0.2113 0.9774
vn 0.0059 -1.0000 0.0080
vn 0.0133 0.9999 0.0084
vn -0.0416 -0.2161 -0.9755
vn -0.1872 -0.9823 -0.0079
vn 0.0059 -1.0000 -0.0080
vn 0.0010 -0.2113 -0.9774
vn 0.0531 0.2291 -0.9720
vn -0.0018 0.1260 0.9920
vn -0.1618 -0.1667 0.9727
vn 0.4352 0.9003 0.0088
vn 0.1012 0.2556 0.9615
vn 0.2419 0.1550 0.9578
vn -0.0022 0.1335 -0.9910
vn -0.9838 -0.1772 -0.0259
vn 0.8392 0.5438 -0.0087
vn -0.9818 -0.1875 0.0303
vn -0.5443 -0.8388 0.0107
vn -0.0021 0.1334 -0.9911
vn 0.2494 -0.0065 -0.9684
vn 0.2495 -0.0065 -0.9684
vn 0.0008 -0.1393 -0.9902
vn -0.0110 -0.1430 -0.9897
vn -0.0130 0.1347 -0.9908
vn -0.7170 -0.6968 -0.0187
vn -0.7255 -0.6882 -0.0113
vn -0.7255 -0.6882 0.0113
vn -0.7170 -0.6968 0.0187
vn -0.0000 -0.1213 0.9926
vn -0.1379 -0.3561 0.9242
vn 0.2274 0.0073 0.9738
vn -0.0015 0.9999 0.0106
vn 0.2289 0.1502 -0.9618
vn 0.2419 0.1551 0.9578
vn -0.9935 0.1138 -0.0098
vn -0.9935 0.1138 0.0098
vn -0.9222 0.3856 -0.0298
vn 0.8393 0.5437 -0.0087
vn 0.8393 0.5436 0.0087
vn -0.2119 -0.9773 -0.0090
vn 0.2118 -0.9773 0.0091
vn -0.2119 -0.9773 0.0090
vn 0.2418 0.1551 0.9579
vn -0.5421 -0.8403 -0.0107
vn -0.0417 -0.2161 0.9755
vn 0.1175 0.1988 -0.9730
vn 0.2273 0.9738 -0.0085
vn 0.2273 0.9738 0.0085
vn 0.4355 0.9002 -0.0088
vn 0.8393 0.5437 0.0087
vn -0.1872 -0.9823 0.0079
vn 0.2272 0.9738 -0.0084
vn -0.1713 0.9852 -0.0085
vn -0.1713 0.9852 0.0085
vn -0.9167 -0.3994 0.0093
vn -0.9167 -0.3994 -0.0093
vt 0.363855 0.524709
vt 0.368886 0.516440
vt 0.368649 0.525512
vt 0.363948 0.816130
vt 0.368527 0.815342
vt 0.368975 0.824557
vt 0.345394 0.027082
vt 0.343970 0.022932
vt 0.349852 0.018750
vt 0.017153 0.027385
vt 0.013206 0.019510
vt 0.019625 0.024144
vt 0.608145 0.521282
vt 0.611901 0.523437
vt 0.608222 0.525612
vt 0.608019 0.819772
vt 0.608100 0.815442
vt 0.611778 0.817621
vt 0.749337 0.001019
vt 0.751493 0.004781
vt 0.747181 0.004781
vt 0.749337 0.298721
vt 0.747181 0.294960
vt 0.751493 0.294960
vt 0.271389 0.523750
vt 0.267066 0.524341
vt 0.268324 0.520076
vt 0.271059 0.808081
vt 0.267821 0.811768
vt 0.266530 0.807491
vt 0.251217 0.522868
vt 0.253671 0.518954
vt 0.255492 0.522848
vt 0.251217 0.808984
vt 0.255492 0.809004
vt 0.253671 0.812898
vt 0.041546 0.254010
vt 0.040099 0.258054
vt 0.037658 0.254393
vt 0.328008 0.248050
vt 0.331812 0.248299
vt 0.329549 0.251947
vt 0.022410 0.258054
vt 0.025443 0.255496
vt 0.026461 0.259753
vt 0.346790 0.251373
vt 0.342898 0.253160
vt 0.343752 0.248979
vt 0.010278 0.027348
vt 0.016696 0.033407
vt 0.345213 0.032935
vt 0.351757 0.027112
vt 0.751526 0.000446
vt 0.999777 0.000223
vt 0.991289 0.004781
vt 0.999777 0.298928
vt 0.751526 0.299295
vt 0.991289 0.294960
vt 0.723654 0.000445
vt 0.747148 0.000445
vt 0.723575 0.004781
vt 0.747148 0.299295
vt 0.723654 0.299295
vt 0.723575 0.294960
vt 0.612496 0.525614
vt 0.612375 0.815444
vt 0.362448 0.521180
vt 0.362323 0.819669
vt 0.356097 0.017403
vt 0.348379 0.004063
vt 0.351416 0.002293
vt 0.359234 0.015740
vt 0.015925 0.004393
vt 0.006492 0.017814
vt 0.003507 0.015646
vt 0.012906 0.002276
vt 0.256729 0.813740
vt 0.256830 0.517934
vt 0.014346 0.000223
vt 0.017354 0.002332
vt 0.363724 0.816104
vt 0.361952 0.822085
vt 0.347178 0.001987
vt 0.350211 0.000223
vt 0.363645 0.524734
vt 0.361952 0.518941
vt 0.018204 0.038087
vt 0.014010 0.036772
vt 0.001596 0.023345
vt 0.004979 0.023345
vt 0.349097 0.036816
vt 0.345242 0.037873
vt 0.361027 0.023589
vt 0.361505 0.031776
vt 0.358081 0.032798
vt 0.358400 0.023067
vt 0.359606 0.069335
vt 0.355794 0.069937
vt 0.340599 0.073699
vt 0.344526 0.073135
vt 0.003873 0.032608
vt 0.007724 0.072274
vt 0.003764 0.071770
vt 0.000223 0.031639
vt 0.023420 0.075764
vt 0.019355 0.075262
vt 0.026831 0.134239
vt 0.034333 0.192158
vt 0.030417 0.192666
vt 0.022759 0.134158
vt 0.007361 0.133066
vt 0.011392 0.133155
vt 0.342643 0.130667
vt 0.336898 0.187864
vt 0.333065 0.187488
vt 0.338674 0.130858
vt 0.357628 0.129174
vt 0.352892 0.189514
vt 0.348982 0.189130
vt 0.353703 0.129370
vt 0.328105 0.252267
vt 0.041624 0.258228
vt 0.041851 0.269133
vt 0.328332 0.263173
vt 0.328420 0.267513
vt 0.041944 0.273473
vt 0.037450 0.258760
vt 0.332156 0.252548
vt 0.347661 0.249252
vt 0.018070 0.194346
vt 0.021446 0.255908
vt 0.014072 0.194865
vt 0.342748 0.010110
vt 0.340338 0.005999
vt 0.189712 0.115038
vt 0.180756 0.099790
vt 0.021276 0.011143
vt 0.171209 0.132420
vt 0.181740 0.117358
vt 0.024125 0.007076
vt 0.295654 0.808072
vt 0.295654 0.517935
vt 0.316476 0.517937
vt 0.316476 0.808069
vt 0.333607 0.511528
vt 0.047173 0.517487
vt 0.045971 0.507354
vt 0.332427 0.501394
vt 0.292455 0.808073
vt 0.292455 0.517934
vt 0.333066 0.490944
vt 0.046595 0.496904
vt 0.045724 0.455116
vt 0.332198 0.449156
vt 0.044460 0.394376
vt 0.330935 0.388416
vt 0.329676 0.327888
vt 0.043200 0.333848
vt 0.002129 0.817779
vt 0.006923 0.816978
vt 0.007156 0.826050
vt 0.002344 0.526359
vt 0.007374 0.517934
vt 0.006923 0.527149
vt 0.706993 0.489094
vt 0.711461 0.497434
vt 0.705568 0.493247
vt 0.378845 0.488894
vt 0.381313 0.492129
vt 0.374909 0.496754
vt 0.246417 0.821308
vt 0.246496 0.816978
vt 0.250175 0.819155
vt 0.246417 0.522819
vt 0.250175 0.524972
vt 0.246496 0.527149
vt 0.638704 0.814716
vt 0.636549 0.810955
vt 0.640860 0.810955
vt 0.638705 0.517014
vt 0.640860 0.520775
vt 0.636549 0.520775
vt 0.292009 0.807941
vt 0.288940 0.811611
vt 0.287687 0.807344
vt 0.292009 0.523609
vt 0.287479 0.524194
vt 0.288776 0.519919
vt 0.271836 0.808799
vt 0.276111 0.808824
vt 0.274285 0.812716
vt 0.272168 0.522683
vt 0.274627 0.518772
vt 0.276443 0.522668
vt 0.401784 0.263790
vt 0.397922 0.263441
vt 0.400315 0.259789
vt 0.688341 0.266603
vt 0.689866 0.262665
vt 0.692173 0.266325
vt 0.382768 0.259946
vt 0.386770 0.258226
vt 0.385799 0.262456
vt 0.707252 0.263106
vt 0.704207 0.265545
vt 0.703313 0.261335
vt 0.371983 0.488935
vt 0.378384 0.482880
vt 0.706807 0.483237
vt 0.713365 0.489059
vt 0.640893 0.815290
vt 0.880657 0.810955
vt 0.889144 0.815512
vt 0.889144 0.516808
vt 0.880657 0.520775
vt 0.640894 0.516440
vt 0.613022 0.815290
vt 0.612943 0.810955
vt 0.636515 0.815290
vt 0.636516 0.516440
vt 0.612943 0.520775
vt 0.613022 0.516440
vt 0.250770 0.527149
vt 0.250770 0.816978
vt 0.000721 0.821308
vt 0.000721 0.522819
vt 0.717716 0.498782
vt 0.720859 0.500447
vt 0.713031 0.513919
vt 0.709988 0.512147
vt 0.377625 0.511834
vt 0.374615 0.513946
vt 0.365234 0.500613
vt 0.368211 0.498449
vt 0.277686 0.517934
vt 0.277442 0.813739
vt 0.379051 0.513889
vt 0.376052 0.515994
vt 0.002120 0.526384
vt 0.000350 0.520403
vt 0.711824 0.515994
vt 0.708786 0.514227
vt 0.000223 0.823546
vt 0.001919 0.817754
vt 0.375698 0.479525
vt 0.379882 0.478205
vt 0.363326 0.492933
vt 0.366700 0.492931
vt 0.706828 0.478295
vt 0.710691 0.479346
vt 0.722654 0.492583
vt 0.720022 0.493108
vt 0.719696 0.483359
vt 0.723129 0.484380
vt 0.717347 0.446124
vt 0.721176 0.446720
vt 0.702081 0.442391
vt 0.706025 0.442944
vt 0.365590 0.483693
vt 0.361952 0.484663
vt 0.365429 0.444652
vt 0.369369 0.444141
vt 0.380942 0.441132
vt 0.384988 0.440618
vt 0.388099 0.382430
vt 0.384065 0.382537
vt 0.391217 0.324761
vt 0.395096 0.325238
vt 0.368814 0.383717
vt 0.372807 0.383608
vt 0.703883 0.385116
vt 0.699877 0.384949
vt 0.693840 0.327590
vt 0.697711 0.327188
vt 0.719013 0.386536
vt 0.715050 0.386357
vt 0.709913 0.325848
vt 0.713862 0.325435
vt 0.401816 0.259571
vt 0.688392 0.262384
vt 0.401923 0.248662
vt 0.401968 0.244320
vt 0.688539 0.247133
vt 0.688499 0.251475
vt 0.397677 0.259112
vt 0.692486 0.262037
vt 0.708147 0.265240
vt 0.378987 0.323171
vt 0.375027 0.322686
vt 0.381831 0.262081
vt 0.704346 0.506091
vt 0.701933 0.510210
vt 0.542048 0.416290
vt 0.551016 0.401014
vt 0.382961 0.505099
vt 0.532485 0.384075
vt 0.542995 0.399096
vt 0.385804 0.509155
vt 0.691046 0.003036
vt 0.689976 0.013184
vt 0.403426 0.010371
vt 0.404517 0.000223
vt 0.690731 0.023629
vt 0.690321 0.065431
vt 0.403753 0.062617
vt 0.404165 0.020815
vt 0.689726 0.126190
vt 0.403156 0.123377
vt 0.689131 0.186738
vt 0.402561 0.183925
s 0
usemtl UV
f 1/1/1 2/2/2 3/3/3
f 4/4/4 5/5/5 6/6/6
f 93/7/7 7/8/8 8/9/9
f 9/10/10 10/11/11 11/12/12
f 12/13/13 13/14/14 14/15/15
f 15/16/16 16/17/17 17/18/18
f 18/19/19 19/20/20 20/21/21
f 21/22/22 22/23/23 23/24/24
f 32/25/25 33/26/26 34/27/27
f 35/28/28 36/29/29 37/30/30
f 38/31/31 39/32/32 40/33/33
f 41/34/34 42/35/35 43/36/36
f 68/37/37 69/38/38 70/39/39
f 71/40/40 72/41/41 73/42/42
f 74/43/43 75/44/44 76/45/45
f 77/46/46 78/47/47 79/48/48
f 88/49/49 9/10/10 89/50/50
f 92/51/51 93/7/7 94/52/52
f 3/3/53 5/5/54 4/4/55 1/1/56
f 11/12/57 7/8/58 93/7/7 9/10/59
f 18/53/60 8/54/61 7/55/62 19/20/20
f 10/56/63 21/57/64 23/24/65 11/58/66
f 22/23/67 20/21/21 19/20/68 23/24/69
f 12/59/13 18/60/19 20/21/70 13/61/71
f 21/62/72 15/63/16 17/64/73 22/23/23
f 16/17/17 14/15/74 13/65/14 17/66/18
f 2/67/75 12/13/76 14/15/74 3/3/77
f 15/16/78 6/68/79 5/5/80 16/17/81
f 25/69/82 26/70/83 27/71/84 24/72/85
f 29/73/86 30/74/87 31/75/88 28/76/89
f 32/25/90 35/28/91 37/30/92 33/26/93
f 40/33/94 42/35/35 41/34/95 38/31/96
f 42/35/97 37/30/92 36/29/98 43/77/99
f 33/26/100 40/33/94 39/78/101 34/27/27
f 28/76/102 41/79/95 43/80/103 29/73/104
f 35/81/28 4/4/55 6/6/79 36/82/105
f 26/70/83 39/83/106 38/84/107 27/71/108
f 1/1/109 32/85/25 34/86/27 2/2/2
f 89/50/50 44/87/110 45/88/111 88/49/112
f 91/89/113 31/75/88 30/74/114 90/90/115
f 94/52/52 46/91/116 47/92/117 92/51/118
f 96/93/119 50/94/120 51/95/121 95/96/122
f 50/94/120 58/97/123 59/98/124 51/95/125
f 55/99/126 47/92/117 46/91/127 54/100/128
f 49/101/129 56/102/130 57/103/131 48/104/132
f 44/87/133 52/105/134 53/106/135 45/88/136
f 81/107/137 60/108/138 61/109/139 80/110/140
f 83/111/141 57/103/131 56/102/142 82/112/143
f 85/113/144 62/114/145 63/115/146 84/116/147
f 87/117/148 66/118/149 67/119/150 86/120/151
f 68/37/152 71/40/153 73/121/154 69/122/155
f 76/123/45 78/124/47 77/125/46 74/126/43
f 69/127/38 76/45/156 75/44/157 70/39/158
f 78/47/159 73/128/42 72/41/41 79/48/160
f 66/118/149 77/129/46 79/48/161 67/119/150
f 71/40/40 63/115/162 62/114/163 72/41/164
f 65/130/165 75/44/44 74/131/43 64/132/166
f 60/108/167 68/37/37 70/39/168 61/109/169
f 52/105/170 81/107/171 80/110/172 53/106/173
f 64/132/166 83/111/141 82/112/143 65/130/165
f 54/100/128 85/113/174 84/116/175 55/99/126
f 58/97/176 87/117/177 86/120/151 59/98/178
f 9/10/179 88/49/180 10/11/181
f 48/104/182 91/89/183 90/90/184 49/101/129
f 8/9/9 94/52/52 93/7/185
f 24/72/85 96/93/119 95/96/122 25/69/82
f 92/51/186 89/50/187 9/10/179 93/7/185
f 8/9/61 2/133/75 26/70/188 25/69/82
f 26/70/189 2/133/190 34/134/191 39/83/192
f 8/9/9 18/135/193 12/136/194 2/133/2
f 1/1/195 4/4/4 35/81/196 32/85/197
f 14/15/15 16/17/17 5/5/80 3/3/77
f 6/137/198 10/11/181 30/74/199 29/73/86
f 21/138/64 10/11/181 6/137/79 15/139/16
f 6/137/79 29/73/200 43/80/201 36/140/29
f 7/55/8 11/58/202 23/24/24 19/20/20
f 8/9/203 25/69/204 95/96/205 94/52/206
f 30/74/114 10/11/63 88/49/180 90/90/184
f 20/21/207 22/23/208 17/64/18 13/61/14
f 27/141/209 28/142/210 31/143/211 24/144/85
f 24/145/85 31/146/211 91/147/183 96/148/212
f 28/142/210 27/141/209 38/149/96 41/150/95
f 33/26/213 37/30/214 42/35/215 40/33/216
f 44/87/110 47/92/117 55/99/126 52/105/134
f 90/90/217 88/49/218 45/88/136 49/101/219
f 89/50/220 92/51/51 47/92/117 44/87/110
f 49/101/219 45/88/111 53/106/135 56/102/142
f 46/91/127 51/95/221 59/98/124 54/100/222
f 94/52/52 95/96/122 51/95/223 46/91/127
f 50/151/120 48/152/224 57/153/225 58/154/226
f 96/148/119 91/147/227 48/152/182 50/151/228
f 52/105/170 55/99/229 84/116/147 81/107/137
f 56/102/142 53/106/173 80/110/172 82/112/143
f 54/100/222 59/98/124 86/120/151 85/113/174
f 58/154/176 57/153/230 83/155/141 87/156/148
f 60/108/138 63/115/146 71/40/153 68/37/152
f 82/112/143 80/110/172 61/109/139 65/130/165
f 81/107/171 84/116/175 63/115/146 60/108/138
f 65/130/165 61/109/139 70/39/168 75/44/44
f 62/114/145 67/119/150 79/48/161 72/41/164
f 85/113/174 86/120/151 67/119/150 62/114/145
f 66/157/231 64/158/232 74/126/43 77/125/46
f 87/156/148 83/155/141 64/158/166 66/157/149
f 69/122/233 73/121/234 78/124/47 76/123/45
f 97/159/235 99/160/236 98/161/237
f 100/162/238 102/163/239 101/164/240
f 183/165/241 104/166/242 103/167/243
f 105/168/244 107/169/245 106/170/246
f 108/171/247 110/172/248 109/173/249
f 111/174/250 113/175/251 112/176/252
f 114/177/253 116/178/254 115/179/255
f 117/180/256 119/181/257 118/182/258
f 124/183/259 126/184/260 125/185/261
f 127/186/262 129/187/263 128/188/264
f 38/189/96 131/190/265 130/191/266
f 41/192/95 133/193/267 132/194/268
f 158/195/269 160/196/270 159/197/271
f 161/198/272 163/199/273 162/200/274
f 164/201/275 166/202/276 165/203/277
f 167/204/278 169/205/279 168/206/280
f 178/207/281 179/208/282 105/168/283
f 182/209/284 184/210/285 183/165/241
f 99/160/286 97/159/287 100/162/238 101/164/288
f 107/169/289 105/168/290 183/165/291 103/167/292
f 114/211/253 115/179/293 103/212/294 104/213/295
f 106/214/296 107/215/245 119/181/297 117/216/298
f 118/182/258 119/181/299 115/179/255 116/178/300
f 108/217/247 109/218/301 116/178/254 114/219/253
f 117/220/302 118/182/303 113/221/304 111/222/305
f 112/176/306 113/223/251 109/224/249 110/172/248
f 98/225/307 99/160/308 110/172/309 108/171/310
f 111/174/250 112/176/306 101/164/311 102/226/312
f 120/227/313 24/228/85 27/229/314 121/230/315
f 122/231/316 28/232/210 31/233/211 123/234/317
f 124/183/318 125/185/319 129/187/320 127/186/321
f 131/190/322 38/189/323 41/192/324 132/194/325
f 132/194/325 133/235/326 128/188/264 129/187/327
f 125/185/319 126/184/328 130/236/329 131/190/330
f 28/232/331 122/231/332 133/237/333 41/238/95
f 127/239/262 128/240/264 102/163/312 100/162/334
f 121/230/315 27/229/335 38/241/96 130/242/336
f 97/159/287 98/161/237 126/243/337 124/244/259
f 179/208/338 178/207/339 135/245/340 134/246/341
f 181/247/342 180/248/343 123/234/344 31/233/211
f 184/210/345 182/209/346 137/249/347 136/250/348
f 186/251/349 185/252/350 141/253/351 140/254/352
f 140/254/353 141/253/351 149/255/354 148/256/355
f 145/257/356 144/258/357 136/250/348 137/249/347
f 139/259/358 138/260/359 147/261/360 146/262/361
f 134/246/362 135/245/363 143/263/364 142/264/365
f 171/265/366 170/266/367 151/267/368 150/268/369
f 173/269/370 172/270/371 146/262/372 147/261/373
f 175/271/374 174/272/375 153/273/376 152/274/377
f 177/275/378 176/276/379 157/277/380 156/278/381
f 158/195/382 159/279/383 163/280/384 161/198/272
f 166/281/385 164/282/275 167/283/278 168/284/280
f 159/285/271 160/196/270 165/203/386 166/202/385
f 168/206/387 169/205/388 162/200/389 163/286/273
f 156/278/381 157/277/380 169/205/279 167/287/278
f 161/198/390 162/200/391 152/274/392 153/273/393
f 155/288/394 154/289/395 164/290/275 165/203/396
f 150/268/397 151/267/398 160/196/399 158/195/269
f 142/264/365 143/263/364 170/266/400 171/265/401
f 154/289/395 155/288/394 172/270/371 173/269/402
f 144/258/403 145/257/404 174/272/405 175/271/406
f 148/256/355 149/255/407 176/276/379 177/275/378
f 105/168/290 106/170/408 178/207/409
f 138/260/410 139/259/411 180/248/412 181/247/342
f 104/166/413 183/165/414 184/210/285
f 24/228/85 120/227/313 185/252/350 186/251/415
f 182/209/346 183/165/414 105/168/416 179/208/417
f 104/166/418 120/227/313 121/230/419 98/291/307
f 121/230/420 130/242/266 126/292/260 98/291/307
f 104/166/418 98/291/421 108/293/422 114/294/423
f 97/159/424 124/244/425 127/239/426 100/162/427
f 110/172/248 99/160/308 101/164/311 112/176/252
f 102/295/312 122/231/316 123/234/344 106/170/408
f 117/296/298 111/297/250 102/295/312 106/170/408
f 102/295/428 128/298/429 133/237/267 122/231/430
f 103/212/243 115/179/293 119/181/257 107/215/431
f 104/166/242 184/210/285 185/252/432 120/227/313
f 123/234/344 180/248/433 178/207/409 106/170/296
f 116/178/434 109/218/249 113/221/251 118/182/435
f 24/299/436 186/300/437 181/301/438 31/302/88
f 125/185/439 131/190/265 132/194/440 129/187/441
f 134/246/362 142/264/365 145/257/356 137/249/347
f 180/248/442 139/259/358 135/245/340 178/207/339
f 179/208/338 134/246/362 137/249/347 182/209/443
f 139/259/358 146/262/361 143/263/444 135/245/340
f 136/250/348 144/258/357 149/255/407 141/253/445
f 184/210/345 136/250/348 141/253/351 185/252/350
f 140/303/352 148/304/446 147/305/447 138/306/410
f 186/300/349 140/303/448 138/306/359 181/301/449
f 142/264/450 171/265/366 174/272/375 145/257/404
f 146/262/361 172/270/371 170/266/400 143/263/444
f 144/258/403 175/271/406 176/276/379 149/255/407
f 148/304/451 177/307/378 173/308/402 147/305/373
f 150/268/369 158/195/382 161/198/272 153/273/376
f 172/270/371 155/288/394 151/267/368 170/266/400
f 171/265/401 150/268/369 153/273/376 174/272/405
f 155/288/394 165/203/396 160/196/399 151/267/368
f 152/274/377 162/200/391 169/205/279 157/277/380
f 175/271/406 152/274/377 157/277/380 176/276/379
f 156/309/452 167/283/278 164/282/275 154/310/453
f 177/307/378 156/309/381 154/310/395 173/308/402
f 159/279/454 166/281/385 168/284/280 163/280/455
