# Blender 5.0.1
# www.blender.org
mtllib suplik.mtl
o suplik
v -0.228272 0.004053 0.228272
v -0.228272 0.017515 0.241735
v -0.241735 0.017515 0.228272
v -0.228272 0.007996 0.237792
v -0.236045 0.009742 0.236045
v -0.237792 0.017515 0.237792
v -0.237792 0.007996 0.228272
v -0.228272 0.308914 0.241735
v -0.228272 0.322377 0.228272
v -0.241735 0.308914 0.228272
v -0.228272 0.318434 0.237792
v -0.236045 0.316687 0.236045
v -0.237792 0.318434 0.228272
v -0.237792 0.308914 0.237792
v -0.228272 0.004053 -0.228272
v -0.241735 0.017515 -0.228272
v -0.228272 0.017515 -0.241735
v -0.237792 0.007996 -0.228272
v -0.236045 0.009742 -0.236045
v -0.237792 0.017515 -0.237792
v -0.228272 0.007996 -0.237792
v -0.228272 0.322377 -0.228272
v -0.228272 0.308914 -0.241735
v -0.241735 0.308914 -0.228272
v -0.228272 0.318434 -0.237792
v -0.236045 0.316687 -0.236045
v -0.237792 0.308914 -0.237792
v -0.237792 0.318434 -0.228272
v 0.228272 0.004053 0.228272
v 0.241735 0.017515 0.228272
v 0.228272 0.017515 0.241735
v 0.237792 0.007996 0.228272
v 0.236045 0.009742 0.236045
v 0.237792 0.017515 0.237792
v 0.228272 0.007996 0.237792
v 0.228272 0.322377 0.228272
v 0.228272 0.308914 0.241735
v 0.241735 0.308914 0.228272
v 0.228272 0.318434 0.237792
v 0.236045 0.316687 0.236045
v 0.237792 0.308914 0.237792
v 0.237792 0.318434 0.228272
v 0.228272 0.017515 -0.241735
v 0.241735 0.017515 -0.228272
v 0.228272 0.004053 -0.228272
v 0.237792 0.017515 -0.237792
v 0.236045 0.009742 -0.236045
v 0.237792 0.007996 -0.228272
v 0.228272 0.007996 -0.237792
v 0.228272 0.322377 -0.228272
v 0.241735 0.308914 -0.228272
v 0.228272 0.308914 -0.241735
v 0.237792 0.318434 -0.228272
v 0.236045 0.316687 -0.236045
v 0.237792 0.308914 -0.237792
v 0.228272 0.318434 -0.237792
v -0.228272 0.236530 0.241735
v -0.241735 0.236530 0.228272
v -0.237792 0.236530 0.237792
v -0.241735 0.280025 0.228272
v -0.228272 0.280025 0.241735
v -0.237792 0.280025 0.237792
v -0.228272 0.280025 -0.241735
v -0.241735 0.280025 -0.228272
v -0.237792 0.280025 -0.237792
v -0.241735 0.236530 -0.228272
v -0.228272 0.236530 -0.241735
v -0.237792 0.236530 -0.237792
v 0.241735 0.280025 -0.228272
v 0.228272 0.280025 -0.241735
v 0.237792 0.280025 -0.237792
v 0.228272 0.236530 -0.241735
v 0.241735 0.236530 -0.228272
v 0.237792 0.236530 -0.237792
v 0.228272 0.280025 0.241735
v 0.241735 0.280025 0.228272
v 0.237792 0.280025 0.237792
v 0.241735 0.236530 0.228272
v 0.228272 0.236530 0.241735
v 0.237792 0.236530 0.237792
v 0.080578 0.004053 -0.228272
v 0.080578 0.017515 -0.241735
v 0.080578 0.007996 -0.237792
v -0.080578 0.017515 -0.241735
v -0.080578 0.004053 -0.228272
v -0.080578 0.007996 -0.237792
v -0.080578 0.322377 -0.228272
v -0.080578 0.308914 -0.241735
v -0.080578 0.318434 -0.237792
v 0.080578 0.308914 -0.241735
v 0.080578 0.322377 -0.228272
v 0.080578 0.318434 -0.237792
v -0.080578 0.004053 0.228272
v -0.080578 0.017515 0.241735
v -0.080578 0.007996 0.237792
v 0.080578 0.017515 0.241735
v 0.080578 0.004053 0.228272
v 0.080578 0.007996 0.237792
v 0.080578 0.322377 0.228272
v 0.080578 0.308914 0.241735
v 0.080578 0.318434 0.237792
v -0.080578 0.308914 0.241735
v -0.080578 0.322377 0.228272
v -0.080578 0.318434 0.237792
v 0.067116 0.236530 0.228272
v 0.094041 0.223067 0.241735
v 0.080578 0.249993 0.228272
v 0.080578 0.232587 0.237792
v 0.080578 0.236530 0.236045
v 0.084521 0.236530 0.237792
v 0.076635 0.240473 0.228272
v -0.067116 0.236530 0.228272
v -0.080578 0.249993 0.228272
v -0.094041 0.223067 0.241735
v -0.076635 0.240473 0.228272
v -0.080578 0.236530 0.236045
v -0.084521 0.236530 0.237792
v -0.080578 0.232587 0.237792
v 0.067116 0.280025 0.228272
v 0.080578 0.266562 0.228272
v 0.094041 0.293487 0.241735
v 0.076635 0.276082 0.228272
v 0.080578 0.280025 0.236045
v 0.084521 0.280025 0.237792
v 0.080578 0.283968 0.237792
v -0.067116 0.280025 0.228272
v -0.094041 0.293487 0.241735
v -0.080578 0.266562 0.228272
v -0.080578 0.283968 0.237792
v -0.080578 0.280025 0.236045
v -0.084521 0.280025 0.237792
v -0.076635 0.276082 0.228272
v -0.067116 0.236530 -0.228272
v -0.094041 0.223067 -0.241735
v -0.080578 0.249993 -0.228272
v -0.080578 0.232587 -0.237792
v -0.080578 0.236530 -0.236045
v -0.084521 0.236530 -0.237792
v -0.076635 0.240473 -0.228272
v 0.067116 0.236530 -0.228272
v 0.080578 0.249993 -0.228272
v 0.094041 0.223067 -0.241735
v 0.076635 0.240473 -0.228272
v 0.080578 0.236530 -0.236045
v 0.084521 0.236530 -0.237792
v 0.080578 0.232587 -0.237792
v -0.067116 0.280025 -0.228272
v -0.080578 0.266562 -0.228272
v -0.094041 0.293487 -0.241735
v -0.076635 0.276082 -0.228272
v -0.080578 0.280025 -0.236045
v -0.084521 0.280025 -0.237792
v -0.080578 0.283968 -0.237792
v 0.067116 0.280025 -0.228272
v 0.094041 0.293487 -0.241735
v 0.080578 0.266562 -0.228272
v 0.080578 0.283968 -0.237792
v 0.080578 0.280025 -0.236045
v 0.084521 0.280025 -0.237792
v 0.076635 0.276082 -0.228272
v -0.205188 0.027652 0.204666
v -0.218307 0.040605 0.204843
v -0.204839 0.041131 0.217801
v -0.214603 0.031237 0.204755
v -0.212752 0.033106 0.212555
v -0.214357 0.041008 0.214209
v -0.204802 0.031611 0.214082
v -0.200039 0.308914 0.212268
v -0.213451 0.308914 0.199987
v -0.227855 0.322377 0.227855
v -0.209523 0.308914 0.209161
v -0.213745 0.316687 0.213381
v -0.217664 0.318426 0.213519
v -0.214361 0.318435 0.217380
v -0.205188 0.027652 -0.204666
v -0.204839 0.041131 -0.217801
v -0.218307 0.040605 -0.204843
v -0.204802 0.031611 -0.214082
v -0.212752 0.033106 -0.212555
v -0.214357 0.041008 -0.214209
v -0.214603 0.031237 -0.204755
v -0.213451 0.308914 -0.199987
v -0.200039 0.308914 -0.212268
v -0.227855 0.322377 -0.227855
v -0.209522 0.308914 -0.209161
v -0.213745 0.316687 -0.213381
v -0.214361 0.318435 -0.217380
v -0.217664 0.318426 -0.213519
v 0.205188 0.027652 0.204666
v 0.204839 0.041131 0.217801
v 0.218307 0.040605 0.204843
v 0.204802 0.031611 0.214082
v 0.212752 0.033106 0.212555
v 0.214357 0.041008 0.214209
v 0.214603 0.031237 0.204755
v 0.213451 0.308914 0.199987
v 0.200039 0.308914 0.212268
v 0.227855 0.322377 0.227855
v 0.209522 0.308914 0.209161
v 0.213745 0.316687 0.213381
v 0.214361 0.318435 0.217380
v 0.217664 0.318426 0.213519
v 0.204839 0.041131 -0.217801
v 0.205188 0.027652 -0.204666
v 0.218307 0.040605 -0.204843
v 0.204802 0.031611 -0.214082
v 0.212752 0.033106 -0.212555
v 0.214603 0.031237 -0.204755
v 0.214357 0.041008 -0.214209
v 0.200039 0.308914 -0.212268
v 0.213451 0.308914 -0.199987
v 0.227855 0.322377 -0.227855
v 0.209523 0.308914 -0.209161
v 0.213745 0.316687 -0.213381
v 0.217664 0.318426 -0.213519
v 0.214361 0.318435 -0.217380
v -0.213451 0.236530 0.199987
v -0.200039 0.236530 0.212268
v -0.209522 0.236530 0.209161
v -0.200039 0.280025 0.212268
v -0.213451 0.280025 0.199987
v -0.209522 0.280025 0.209161
v -0.213451 0.280025 -0.199987
v -0.200039 0.280025 -0.212268
v -0.209522 0.280025 -0.209161
v -0.200039 0.236530 -0.212268
v -0.213451 0.236530 -0.199987
v -0.209522 0.236530 -0.209161
v 0.200039 0.280025 -0.212268
v 0.213451 0.280025 -0.199987
v 0.209522 0.280025 -0.209161
v 0.213451 0.236530 -0.199987
v 0.200039 0.236530 -0.212268
v 0.209522 0.236530 -0.209161
v 0.213451 0.280025 0.199987
v 0.200039 0.280025 0.212268
v 0.209522 0.280025 0.209161
v 0.200039 0.236530 0.212268
v 0.213451 0.236530 0.199987
v 0.209522 0.236530 0.209161
v 0.080578 0.045784 -0.212679
v 0.080578 0.032337 -0.199982
v 0.080578 0.036275 -0.209280
v -0.080578 0.032337 -0.199982
v -0.080578 0.045784 -0.212679
v -0.080578 0.036275 -0.209280
v -0.080578 0.308914 -0.201735
v -0.080578 0.322377 -0.214895
v -0.080578 0.318434 -0.205590
v 0.080578 0.322377 -0.214895
v 0.080578 0.308914 -0.201735
v 0.080578 0.318434 -0.205590
v -0.080578 0.045784 0.212679
v -0.080578 0.032337 0.199982
v -0.080578 0.036275 0.209280
v 0.080578 0.032337 0.199982
v 0.080578 0.045784 0.212679
v 0.080578 0.036275 0.209280
v 0.080578 0.308914 0.201735
v 0.080578 0.322377 0.214895
v 0.080578 0.318434 0.205590
v -0.080578 0.322377 0.214895
v -0.080578 0.308914 0.201735
v -0.080578 0.318434 0.205590
v 0.067116 0.236530 0.215198
v 0.080578 0.249993 0.215198
v 0.093965 0.223105 0.203098
v 0.076635 0.240473 0.215198
v 0.080559 0.236537 0.207654
v 0.084499 0.236546 0.206077
v 0.080525 0.232598 0.206078
v -0.067116 0.236530 0.215198
v -0.093965 0.223105 0.203098
v -0.080578 0.249993 0.215198
v -0.080526 0.232598 0.206078
v -0.080559 0.236537 0.207654
v -0.084499 0.236546 0.206077
v -0.076635 0.240473 0.215198
v 0.067116 0.280025 0.215198
v 0.093989 0.293487 0.202326
v 0.080578 0.266562 0.215198
v 0.080547 0.283968 0.205851
v 0.080566 0.280028 0.207524
v 0.084507 0.280042 0.205851
v 0.076635 0.276082 0.215198
v -0.067116 0.280025 0.215198
v -0.080578 0.266562 0.215198
v -0.093989 0.293487 0.202326
v -0.076635 0.276082 0.215198
v -0.080566 0.280028 0.207524
v -0.084507 0.280042 0.205851
v -0.080547 0.283968 0.205851
v -0.067116 0.236530 -0.215198
v -0.080578 0.249993 -0.215198
v -0.093965 0.223105 -0.203098
v -0.076635 0.240473 -0.215198
v -0.080559 0.236537 -0.207654
v -0.084499 0.236546 -0.206077
v -0.080525 0.232598 -0.206078
v 0.067116 0.236530 -0.215198
v 0.093965 0.223105 -0.203098
v 0.080578 0.249993 -0.215198
v 0.080525 0.232598 -0.206078
v 0.080559 0.236537 -0.207654
v 0.084499 0.236546 -0.206077
v 0.076635 0.240473 -0.215198
v -0.067116 0.280025 -0.215198
v -0.093989 0.293487 -0.202326
v -0.080578 0.266562 -0.215198
v -0.080547 0.283968 -0.205851
v -0.080566 0.280028 -0.207524
v -0.084507 0.280042 -0.205851
v -0.076635 0.276082 -0.215198
v 0.067116 0.280025 -0.215198
v 0.080578 0.266562 -0.215198
v 0.093989 0.293487 -0.202326
v 0.076635 0.276082 -0.215198
v 0.080566 0.280028 -0.207524
v 0.084507 0.280042 -0.205851
v 0.080547 0.283968 -0.205851
vn -0.0249 -0.9997 0.0083
vn -0.0183 -0.7070 0.7070
vn -0.5773 -0.5774 0.5774
vn -0.7071 -0.7071 0.0061
vn -0.0267 -0.0182 0.9995
vn -0.7070 -0.0126 0.7071
vn -0.5774 -0.5773 0.5774
vn -0.9998 -0.0172 0.0084
vn -0.7071 -0.7071 0.0062
vn -0.5774 -0.5774 0.5773
vn -0.7070 -0.0125 0.7071
vn -0.0289 0.1251 0.9917
vn -0.0183 0.7070 0.7070
vn -0.5773 0.5774 0.5774
vn -0.7050 0.0779 0.7049
vn -0.2506 0.9645 0.0836
vn -0.7071 0.7071 0.0062
vn -0.5774 0.5774 0.5773
vn -0.9948 0.1017 0.0079
vn -0.7049 0.0779 0.7050
vn -0.5774 0.5773 0.5774
vn -0.7071 0.7071 0.0061
vn -0.0249 -0.9997 -0.0083
vn -0.7071 -0.7071 -0.0062
vn -0.5774 -0.5774 -0.5773
vn -0.0183 -0.7070 -0.7070
vn -0.9998 -0.0172 -0.0084
vn -0.7070 -0.0126 -0.7071
vn -0.5774 -0.5773 -0.5774
vn -0.7071 -0.7071 -0.0061
vn -0.0266 -0.0182 -0.9995
vn -0.5773 -0.5774 -0.5774
vn -0.2506 0.9645 -0.0836
vn -0.0183 0.7070 -0.7070
vn -0.5773 0.5774 -0.5774
vn -0.7071 0.7071 -0.0061
vn -0.0290 0.1251 -0.9917
vn -0.7050 0.0779 -0.7050
vn -0.5774 0.5773 -0.5774
vn -0.9948 0.1017 -0.0079
vn -0.5774 0.5774 -0.5773
vn 0.0249 -0.9997 0.0083
vn 0.7071 -0.7071 0.0062
vn 0.5774 -0.5774 0.5773
vn 0.0183 -0.7070 0.7070
vn 0.9998 -0.0172 0.0084
vn 0.7070 -0.0126 0.7071
vn 0.5774 -0.5773 0.5774
vn 0.7071 -0.7071 0.0061
vn 0.0266 -0.0182 0.9995
vn 0.5773 -0.5774 0.5774
vn 0.2506 0.9645 0.0836
vn 0.0183 0.7070 0.7070
vn 0.5773 0.5774 0.5774
vn 0.7071 0.7071 0.0061
vn 0.0290 0.1251 0.9917
vn 0.7050 0.0779 0.7050
vn 0.5774 0.5773 0.5774
vn 0.9948 0.1017 0.0079
vn 0.5774 0.5774 0.5773
vn 0.0267 -0.0182 -0.9995
vn 0.7070 -0.0126 -0.7071
vn 0.5774 -0.5773 -0.5774
vn 0.0183 -0.7070 -0.7070
vn 0.9998 -0.0172 -0.0084
vn 0.7071 -0.7071 -0.0062
vn 0.5774 -0.5774 -0.5773
vn 0.7070 -0.0125 -0.7071
vn 0.0249 -0.9997 -0.0083
vn 0.5773 -0.5774 -0.5774
vn 0.7071 -0.7071 -0.0061
vn 0.2506 0.9645 -0.0836
vn 0.7071 0.7071 -0.0061
vn 0.5774 0.5774 -0.5773
vn 0.0183 0.7070 -0.7070
vn 0.9948 0.1017 -0.0079
vn 0.7050 0.0779 -0.7050
vn 0.5774 0.5773 -0.5774
vn 0.0290 0.1251 -0.9917
vn 0.5773 0.5774 -0.5774
vn -0.0241 0.9820 0.1872
vn -0.0132 0.6756 0.7372
vn -0.4433 0.4434 0.7790
vn -0.6784 0.6784 0.2820
vn -0.0032 0.0092 1.0000
vn -0.5963 0.0438 0.8016
vn -0.4433 0.4433 0.7791
vn -0.0131 0.6756 0.7371
vn -0.9626 0.1171 0.2443
vn -0.4434 0.4433 0.7790
vn 0.0242 0.9820 0.1871
vn 0.6784 0.6784 0.2820
vn 0.4433 0.4434 0.7790
vn 0.0132 0.6756 0.7371
vn 0.9626 0.1171 0.2442
vn 0.5964 0.0438 0.8015
vn 0.4434 0.4433 0.7790
vn 0.0031 0.0093 1.0000
vn 0.0131 0.6756 0.7371
vn 0.4433 0.4433 0.7791
vn 0.5963 0.0438 0.8016
vn -0.0242 -0.9820 0.1871
vn -0.6784 -0.6784 0.2820
vn -0.4433 -0.4434 0.7790
vn -0.0132 -0.6756 0.7371
vn -0.9626 -0.1171 0.2442
vn -0.5964 -0.0438 0.8015
vn -0.4434 -0.4433 0.7790
vn -0.0151 -0.0446 0.9989
vn -0.0131 -0.6756 0.7371
vn -0.4433 -0.4433 0.7791
vn -0.5963 -0.0438 0.8016
vn 0.0241 -0.9820 0.1872
vn 0.0132 -0.6756 0.7372
vn 0.4433 -0.4434 0.7790
vn 0.6784 -0.6784 0.2820
vn 0.0151 -0.0446 0.9989
vn 0.5963 -0.0438 0.8016
vn 0.4433 -0.4433 0.7791
vn 0.0131 -0.6756 0.7371
vn 0.9626 -0.1171 0.2443
vn 0.4434 -0.4433 0.7790
vn 0.0241 0.9820 -0.1872
vn 0.0132 0.6756 -0.7372
vn 0.4433 0.4434 -0.7790
vn 0.6784 0.6784 -0.2820
vn 0.0032 0.0093 -1.0000
vn 0.5963 0.0438 -0.8016
vn 0.4433 0.4433 -0.7791
vn 0.0131 0.6756 -0.7371
vn 0.9626 0.1171 -0.2443
vn 0.4434 0.4433 -0.7790
vn -0.0242 0.9820 -0.1871
vn -0.6784 0.6784 -0.2820
vn -0.4433 0.4434 -0.7790
vn -0.0132 0.6756 -0.7371
vn -0.9626 0.1171 -0.2442
vn -0.5964 0.0438 -0.8015
vn -0.4434 0.4433 -0.7790
vn -0.0031 0.0093 -1.0000
vn -0.0131 0.6756 -0.7371
vn -0.4433 0.4433 -0.7791
vn -0.5963 0.0438 -0.8016
vn 0.0242 -0.9820 -0.1871
vn 0.6784 -0.6784 -0.2820
vn 0.4433 -0.4434 -0.7790
vn 0.0132 -0.6756 -0.7371
vn 0.9626 -0.1171 -0.2442
vn 0.5964 -0.0438 -0.8015
vn 0.4434 -0.4433 -0.7790
vn 0.0151 -0.0446 -0.9989
vn 0.0131 -0.6756 -0.7371
vn 0.4433 -0.4433 -0.7791
vn 0.5963 -0.0438 -0.8016
vn -0.0241 -0.9820 -0.1872
vn -0.0132 -0.6756 -0.7372
vn -0.4433 -0.4434 -0.7790
vn -0.6784 -0.6784 -0.2820
vn -0.0151 -0.0446 -0.9989
vn -0.5963 -0.0438 -0.8016
vn -0.4433 -0.4433 -0.7791
vn -0.0131 -0.6756 -0.7371
vn -0.9626 -0.1171 -0.2443
vn -0.4434 -0.4433 -0.7790
vn -0.0084 0.9999 -0.0093
vn 0.7026 0.7116 -0.0073
vn 0.5555 0.5719 -0.6036
vn -0.0317 0.6925 -0.7207
vn 0.9999 -0.0057 -0.0094
vn 0.6849 -0.0213 -0.7283
vn -0.0305 -0.0203 -0.9993
vn -0.0533 0.1432 -0.9883
vn 0.6685 0.1678 -0.7246
vn 0.4232 0.7962 -0.4324
vn -0.0446 0.7221 -0.6903
vn 0.9936 0.1129 -0.0091
vn 0.6705 0.7419 -0.0047
vn 0.4233 0.7962 -0.4323
vn 0.6684 0.1678 -0.7246
vn 0.2341 0.9691 -0.0774
vn -0.0447 0.7221 -0.6904
vn 0.4231 0.7963 -0.4323
vn -0.0084 0.9999 0.0094
vn -0.0317 0.6925 0.7207
vn 0.5555 0.5719 0.6036
vn 0.7026 0.7116 0.0073
vn -0.0305 -0.0203 0.9993
vn 0.6849 -0.0213 0.7283
vn 0.9999 -0.0057 0.0094
vn 0.7025 0.7116 0.0073
vn 0.9936 0.1129 0.0090
vn 0.6684 0.1678 0.7246
vn 0.4233 0.7962 0.4323
vn 0.6705 0.7419 0.0047
vn -0.0534 0.1432 0.9882
vn -0.0446 0.7221 0.6903
vn 0.4232 0.7962 0.4324
vn 0.6685 0.1678 0.7245
vn 0.2341 0.9691 0.0774
vn 0.4232 0.7963 0.4323
vn -0.0446 0.7221 0.6904
vn 0.0084 0.9999 -0.0094
vn 0.0317 0.6925 -0.7207
vn -0.5555 0.5719 -0.6036
vn -0.7026 0.7116 -0.0073
vn 0.0305 -0.0203 -0.9993
vn -0.6849 -0.0213 -0.7283
vn -0.9999 -0.0057 -0.0094
vn -0.7025 0.7116 -0.0073
vn -0.9936 0.1129 -0.0090
vn -0.6684 0.1678 -0.7246
vn -0.4233 0.7962 -0.4323
vn -0.6705 0.7419 -0.0047
vn 0.0534 0.1432 -0.9882
vn 0.0446 0.7221 -0.6903
vn -0.4232 0.7962 -0.4324
vn -0.6685 0.1678 -0.7245
vn -0.2341 0.9691 -0.0774
vn -0.4232 0.7963 -0.4323
vn 0.0446 0.7221 -0.6904
vn 0.0305 -0.0203 0.9993
vn 0.0317 0.6925 0.7207
vn -0.5555 0.5719 0.6036
vn -0.6849 -0.0213 0.7283
vn 0.0084 0.9999 0.0093
vn -0.7026 0.7116 0.0073
vn -0.9999 -0.0057 0.0094
vn 0.0533 0.1432 0.9883
vn -0.6685 0.1678 0.7246
vn -0.4232 0.7962 0.4324
vn 0.0446 0.7221 0.6903
vn -0.9936 0.1129 0.0091
vn -0.6705 0.7419 0.0047
vn -0.4233 0.7962 0.4323
vn -0.6684 0.1678 0.7246
vn -0.2341 0.9691 0.0774
vn 0.0447 0.7221 0.6904
vn -0.4231 0.7963 0.4323
vn -0.0243 0.9815 -0.1899
vn -0.6777 0.6781 -0.2845
vn -0.4271 0.4279 -0.7966
vn -0.0128 0.6342 -0.7731
vn -0.9619 0.1170 -0.2470
vn -0.5611 0.0365 -0.8269
vn -0.4271 0.4279 -0.7965
vn -0.6777 0.6780 -0.2845
vn 0.0282 -0.0344 -0.9990
vn -0.4271 0.4278 -0.7966
vn 0.0243 0.9815 -0.1899
vn 0.0128 0.6342 -0.7731
vn 0.4271 0.4279 -0.7965
vn 0.6778 0.6780 -0.2845
vn -0.0282 -0.0344 -0.9990
vn 0.5611 0.0365 -0.8269
vn 0.4271 0.4278 -0.7966
vn 0.9619 0.1170 -0.2470
vn 0.6778 0.6780 -0.2844
vn 0.5611 0.0366 -0.8269
vn -0.0242 -0.9818 -0.1885
vn -0.0130 -0.6580 -0.7529
vn -0.4361 -0.4372 -0.7866
vn -0.6780 -0.6784 -0.2831
vn 0.0426 -0.0549 -0.9976
vn -0.5626 -0.0494 -0.8253
vn -0.4361 -0.4371 -0.7866
vn -0.9618 -0.1187 -0.2467
vn -0.6780 -0.6783 -0.2831
vn 0.0243 -0.9818 -0.1885
vn 0.6780 -0.6784 -0.2831
vn 0.4361 -0.4372 -0.7866
vn 0.0130 -0.6580 -0.7529
vn 0.9618 -0.1187 -0.2467
vn 0.5626 -0.0494 -0.8252
vn 0.6780 -0.6783 -0.2831
vn -0.0426 -0.0549 -0.9976
vn 0.4361 -0.4371 -0.7866
vn 0.5626 -0.0494 -0.8253
vn 0.0243 0.9815 0.1899
vn 0.6777 0.6781 0.2845
vn 0.4271 0.4279 0.7966
vn 0.0128 0.6342 0.7731
vn 0.9619 0.1170 0.2470
vn 0.5611 0.0365 0.8269
vn 0.4271 0.4279 0.7965
vn 0.6777 0.6780 0.2845
vn -0.0282 -0.0344 0.9990
vn 0.4271 0.4278 0.7966
vn -0.0243 0.9815 0.1899
vn -0.0128 0.6342 0.7731
vn -0.4271 0.4279 0.7965
vn -0.6778 0.6780 0.2845
vn 0.0282 -0.0344 0.9990
vn -0.5611 0.0365 0.8269
vn -0.4271 0.4278 0.7966
vn -0.9619 0.1170 0.2470
vn -0.6778 0.6780 0.2844
vn -0.5611 0.0366 0.8269
vn 0.0242 -0.9818 0.1885
vn 0.0130 -0.6580 0.7529
vn 0.4361 -0.4372 0.7866
vn 0.6780 -0.6784 0.2831
vn -0.0426 -0.0549 0.9976
vn 0.5626 -0.0494 0.8253
vn 0.4361 -0.4371 0.7866
vn 0.9618 -0.1187 0.2467
vn 0.6780 -0.6783 0.2831
vn -0.0243 -0.9818 0.1885
vn -0.6780 -0.6784 0.2831
vn -0.4361 -0.4372 0.7866
vn -0.0130 -0.6580 0.7529
vn -0.9618 -0.1187 0.2467
vn -0.5626 -0.0494 0.8252
vn -0.6780 -0.6783 0.2831
vn 0.0426 -0.0549 0.9976
vn -0.4361 -0.4371 0.7866
vn -0.5626 -0.0494 0.8253
vn -0.0250 -0.9997 -0.0083
vn -0.0250 -0.9997 0.0083
vn -0.0251 -0.0000 0.9997
vn -0.0290 0.1250 0.9917
vn -0.7071 -0.0000 0.7071
vn -0.9948 0.1016 0.0079
vn -1.0000 -0.0000 0.0085
vn -0.9948 0.1017 -0.0078
vn -0.9948 0.1017 0.0078
vn -0.0259 -0.0000 -0.9997
vn -0.7070 -0.0125 -0.7071
vn -0.7071 -0.0000 -0.7071
vn -0.7071 -0.0125 -0.7070
vn -0.9998 -0.0171 -0.0084
vn -1.0000 -0.0000 -0.0085
vn -0.0000 -1.0000 -0.0085
vn -0.0000 -0.7071 -0.7071
vn -0.0000 -0.0178 -0.9998
vn -0.0000 0.9807 -0.1955
vn -0.0000 0.7071 -0.7071
vn 0.0289 0.1251 -0.9917
vn -0.0000 0.1385 -0.9904
vn 1.0000 -0.0000 -0.0085
vn 0.9998 -0.0171 -0.0084
vn 0.7071 -0.0125 -0.7070
vn 0.7071 -0.0000 -0.7071
vn 0.0266 -0.0182 -0.9995
vn 0.0259 -0.0000 -0.9997
vn 0.0250 -0.9997 0.0083
vn 0.0250 -0.9997 -0.0083
vn 0.9948 0.1017 0.0078
vn 0.9948 0.1017 -0.0078
vn 0.0259 -0.0000 0.9997
vn 0.7070 -0.0125 0.7071
vn 0.7071 -0.0000 0.7071
vn 0.7071 -0.0125 0.7070
vn 0.9998 -0.0171 0.0084
vn 1.0000 -0.0000 0.0085
vn -0.0000 -1.0000 0.0085
vn -0.0000 -0.7071 0.7071
vn -0.0000 -0.0178 0.9998
vn -0.0000 0.9807 0.1955
vn -0.0000 0.7071 0.7071
vn -0.0000 0.1385 0.9904
vn -0.0266 -0.0182 0.9995
vn -0.0259 -0.0000 0.9997
vn -0.7071 -0.0125 0.7070
vn -0.9998 -0.0171 0.0084
vn -0.0290 0.1250 -0.9917
vn -0.0251 -0.0000 -0.9997
vn -0.7049 0.0779 -0.7050
vn -0.7050 0.0779 -0.7049
vn -0.9948 0.1016 -0.0079
vn 0.9948 0.1016 -0.0079
vn 0.7050 0.0779 -0.7049
vn 0.7049 0.0779 -0.7050
vn 0.0251 -0.0000 -0.9997
vn 0.0290 0.1250 -0.9917
vn 0.0290 0.1250 0.9917
vn 0.0251 -0.0000 0.9997
vn 0.7049 0.0779 0.7050
vn 0.7050 0.0779 0.7049
vn 0.9948 0.1016 0.0079
vn -0.2505 0.9645 -0.0836
vn -0.0001 0.7071 -0.7071
vn -0.0289 0.1251 -0.9917
vn 0.0001 0.7071 0.7071
vn 0.0289 0.1251 0.9917
vn 0.0001 0.9807 0.1955
vn -0.0242 0.9820 0.1872
vn 0.0242 0.9820 0.1872
vn 0.0131 0.6756 0.7372
vn -0.0131 0.6755 0.7372
vn 0.0131 0.6755 0.7372
vn -0.0031 0.0093 1.0000
vn -0.0150 -0.0446 0.9989
vn 0.0150 -0.0446 0.9989
vn 0.0131 -0.6755 0.7372
vn -0.0131 -0.6755 0.7372
vn -0.0131 -0.6756 0.7372
vn 0.0242 -0.9820 0.1872
vn -0.0242 -0.9820 0.1872
vn 0.0242 0.9820 -0.1872
vn -0.0242 0.9820 -0.1872
vn -0.0131 0.6756 -0.7372
vn 0.0131 0.6755 -0.7372
vn -0.0131 0.6755 -0.7372
vn 0.0031 0.0093 -1.0000
vn 0.0150 -0.0446 -0.9989
vn -0.0150 -0.0446 -0.9989
vn -0.0131 -0.6755 -0.7372
vn 0.0131 -0.6755 -0.7372
vn 0.0131 -0.6756 -0.7372
vn -0.0242 -0.9820 -0.1872
vn 0.0242 -0.9820 -0.1872
vn 0.9626 -0.1171 -0.2443
vn 0.9626 0.1171 -0.2444
vn 0.5963 0.0437 -0.8016
vn 0.5963 -0.0438 -0.8015
vn 0.5963 -0.0437 -0.8016
vn 0.0032 0.0092 -1.0000
vn -0.0032 0.0093 -1.0000
vn -0.5963 0.0437 -0.8016
vn -0.5963 -0.0437 -0.8016
vn -0.5963 0.0438 -0.8015
vn -0.9626 0.1171 -0.2443
vn -0.9626 -0.1171 -0.2444
vn -0.9626 -0.1171 0.2443
vn -0.9626 0.1171 0.2444
vn -0.5963 0.0437 0.8016
vn -0.5963 -0.0438 0.8015
vn -0.5963 -0.0437 0.8016
vn 0.0032 0.0093 1.0000
vn 0.5963 0.0437 0.8016
vn 0.5963 -0.0437 0.8016
vn 0.5963 0.0438 0.8015
vn 0.9626 0.1171 0.2443
vn 0.9626 -0.1171 0.2444
vn 0.7026 0.7116 -0.0035
vn -0.0084 0.9999 0.0093
vn 1.0000 -0.0000 -0.0096
vn 0.6685 0.1679 -0.7245
vn 0.6753 -0.0000 -0.7375
vn -0.0591 -0.0000 -0.9983
vn 0.9936 0.1130 -0.0090
vn 0.9936 0.1130 0.0090
vn 0.6705 0.7419 -0.0046
vn 0.6705 0.7419 0.0046
vn 0.2341 0.9691 0.0773
vn 0.2341 0.9691 -0.0773
vn 0.9997 -0.0205 0.0096
vn 0.6830 -0.0299 0.7298
vn 0.6830 -0.0298 0.7298
vn 0.6849 -0.0263 0.7281
vn -0.0375 -0.0316 0.9988
vn -0.0259 -0.0287 0.9993
vn -0.0238 0.6891 0.7243
vn -0.0239 0.6891 0.7243
vn -0.0167 0.9998 0.0096
vn 0.0416 0.1308 0.9905
vn 0.0533 0.1433 0.9882
vn 0.0279 0.7055 0.7081
vn 0.0279 0.7056 0.7081
vn 0.0447 0.7221 0.6903
vn -0.2341 0.9691 0.0773
vn 0.0080 0.9807 0.1952
vn 0.0375 -0.0338 0.9987
vn -0.6830 -0.0306 0.7298
vn -0.6831 -0.0297 0.7298
vn -0.9999 -0.0058 0.0094
vn -0.9997 -0.0205 0.0096
vn -0.7026 0.7116 0.0035
vn 0.0084 0.9999 -0.0093
vn -0.9936 0.1130 0.0090
vn -0.9936 0.1130 -0.0090
vn -0.6705 0.7419 0.0046
vn -0.6705 0.7419 -0.0046
vn -0.2341 0.9691 -0.0773
vn -0.9997 -0.0205 -0.0096
vn -0.6830 -0.0299 -0.7298
vn -0.6830 -0.0298 -0.7298
vn -0.6849 -0.0263 -0.7281
vn 0.0375 -0.0316 -0.9988
vn 0.0259 -0.0287 -0.9993
vn 0.0238 0.6891 -0.7243
vn 0.0239 0.6891 -0.7243
vn 0.0167 0.9998 -0.0096
vn -0.0416 0.1308 -0.9905
vn -0.0533 0.1433 -0.9882
vn -0.0279 0.7055 -0.7081
vn -0.0279 0.7056 -0.7081
vn -0.0447 0.7221 -0.6903
vn -0.0080 0.9807 -0.1952
vn 0.9999 -0.0058 -0.0094
vn 0.9997 -0.0205 -0.0096
vn 0.6831 -0.0297 -0.7298
vn 0.6830 -0.0306 -0.7298
vn -0.0375 -0.0338 -0.9987
vn 0.9997 -0.0205 -0.0095
vn 0.6830 -0.0297 -0.7298
vn -0.0591 -0.0006 -0.9982
vn -0.0375 -0.0339 -0.9987
vn 0.9936 0.1129 0.0091
vn 1.0000 -0.0000 0.0096
vn 0.6753 -0.0000 0.7375
vn 0.6685 0.1678 0.7246
vn -0.0591 -0.0006 0.9982
vn -0.0533 0.1432 0.9883
vn 0.9997 -0.0205 0.0095
vn 0.6831 -0.0297 0.7298
vn 0.6830 -0.0297 0.7298
vn -0.0375 -0.0339 0.9987
vn -0.0591 -0.0000 0.9983
vn 0.0591 -0.0000 0.9983
vn -0.6753 -0.0000 0.7375
vn -0.6685 0.1679 0.7245
vn -1.0000 -0.0000 0.0096
vn 0.0591 -0.0006 0.9982
vn 0.0375 -0.0339 0.9987
vn -0.6830 -0.0297 0.7298
vn -0.9997 -0.0205 0.0095
vn -0.9936 0.1129 -0.0091
vn -1.0000 -0.0000 -0.0096
vn -0.6753 -0.0000 -0.7375
vn -0.6685 0.1678 -0.7246
vn 0.0591 -0.0006 -0.9982
vn 0.0533 0.1432 -0.9883
vn -0.9997 -0.0205 -0.0095
vn -0.6831 -0.0297 -0.7298
vn -0.6830 -0.0297 -0.7298
vn 0.0375 -0.0339 -0.9987
vn 0.0591 -0.0000 -0.9983
vn 0.0259 -0.0287 0.9993
vn 0.0238 0.6891 0.7243
vn 0.0167 0.9998 0.0096
vn -0.0166 0.9998 0.0096
vn -0.0533 0.1433 0.9882
vn -0.0416 0.1308 0.9905
vn -0.0280 0.7055 0.7081
vn -0.0447 0.7221 0.6904
vn -0.0447 0.7221 0.6903
vn -0.0280 0.7056 0.7081
vn -0.0080 0.9807 0.1952
vn -0.0279 0.7055 0.7081
vn -0.0279 0.7056 0.7081
vn -0.0259 -0.0287 -0.9993
vn -0.0238 0.6891 -0.7243
vn -0.0167 0.9998 -0.0096
vn 0.0166 0.9998 -0.0096
vn 0.0533 0.1433 -0.9882
vn 0.0416 0.1308 -0.9905
vn 0.0280 0.7055 -0.7081
vn 0.0447 0.7221 -0.6904
vn 0.0447 0.7221 -0.6903
vn 0.0280 0.7056 -0.7081
vn 0.0080 0.9807 -0.1952
vn 0.0279 0.7055 -0.7081
vn 0.0279 0.7056 -0.7081
vn -0.0128 0.6341 -0.7731
vn 0.0244 0.9815 -0.1900
vn -0.0244 0.9815 -0.1900
vn -0.0243 -0.9817 -0.1886
vn 0.0243 -0.9817 -0.1886
vn -0.0129 -0.6580 -0.7529
vn 0.0129 -0.6580 -0.7529
vn -0.0128 0.6341 0.7731
vn 0.0128 0.6341 0.7731
vn -0.0244 0.9815 0.1900
vn 0.0244 0.9815 0.1900
vn 0.0243 -0.9817 0.1886
vn -0.0243 -0.9817 0.1886
vn 0.0129 -0.6580 0.7529
vn -0.0129 -0.6580 0.7529
vn -0.0426 -0.0548 0.9976
vn 0.5611 0.0365 0.8270
vn 0.5626 -0.0493 0.8253
vn 0.9619 0.1170 0.2471
vn 0.9618 -0.1187 0.2468
vn -0.9618 -0.1187 0.2468
vn -0.9619 0.1170 0.2471
vn -0.5611 0.0365 0.8270
vn -0.5626 -0.0493 0.8253
vn 0.0426 -0.0548 0.9976
vn 0.0426 -0.0548 -0.9976
vn -0.5611 0.0365 -0.8270
vn -0.5626 -0.0493 -0.8253
vn -0.9619 0.1170 -0.2471
vn -0.9618 -0.1187 -0.2468
vn 0.9618 -0.1187 -0.2468
vn 0.9619 0.1170 -0.2471
vn 0.5611 0.0365 -0.8270
vn 0.5626 -0.0493 -0.8253
vn -0.0426 -0.0548 -0.9976
vn -0.6778 0.6780 -0.2844
vn -0.0242 0.9820 0.1871
vn 0.0244 0.9815 -0.1899
vn 0.9626 0.1172 0.2443
vn -0.0243 -0.9818 -0.1885
vn -0.9626 -0.1172 0.2443
vn 0.9618 -0.1188 -0.2467
vn 0.0242 -0.9820 0.1871
vn 0.6778 0.6780 0.2844
vn 0.0242 0.9820 -0.1871
vn -0.0244 0.9815 0.1899
vn -0.9626 0.1172 -0.2443
vn 0.0243 -0.9818 0.1885
vn 0.9626 -0.1172 -0.2443
vn -0.9618 -0.1188 0.2467
vn -0.0242 -0.9820 -0.1871
vn -0.0000 -1.0000 -0.0084
vn -0.0000 -1.0000 0.0084
vn -0.0000 -0.0177 0.9998
vn -0.0258 -0.0000 0.9997
vn -0.0000 0.1384 0.9904
vn -0.0289 0.1250 0.9917
vn -0.0250 -0.0000 0.9997
vn -0.9948 0.1016 0.0078
vn -0.9948 0.1016 -0.0078
vn -0.2506 0.9645 0.0835
vn -0.0000 0.9807 0.1954
vn -0.0080 0.9807 -0.1951
vn 0.2340 0.9691 -0.0773
vn 0.2340 0.9691 0.0773
vn -0.0258 -0.0000 -0.9997
vn -0.0000 -0.0177 -0.9998
vn -0.0250 -0.0000 -0.9997
vn -0.0289 0.1250 -0.9917
vn -0.0000 0.1384 -0.9904
vn -0.0000 0.9807 -0.1954
vn -0.0080 0.9807 0.1951
vn 0.0258 -0.0000 0.9997
vn -0.2340 0.9691 0.0773
vn -0.2340 0.9691 -0.0773
vn 0.9948 0.1016 -0.0078
vn 0.9948 0.1016 0.0078
vn 0.0250 -0.0000 0.9997
vn 0.0289 0.1250 0.9917
vn 0.0080 0.9807 -0.1951
vn 0.0258 -0.0000 -0.9997
vn 0.2506 0.9645 -0.0835
vn 0.0080 0.9807 0.1951
vn 0.0289 0.1250 -0.9917
vn 0.0250 -0.0000 -0.9997
vn -1.0000 -0.0000 0.0084
vn -1.0000 -0.0000 -0.0084
vn 1.0000 -0.0000 -0.0084
vn 1.0000 -0.0000 0.0084
vn -0.0244 0.9815 -0.1899
vn 0.0244 0.9815 0.1899
vn -0.0166 0.9998 -0.0096
vn -0.0592 -0.0006 -0.9982
vn -0.0416 0.1307 -0.9905
vn 0.9936 0.1129 -0.0090
vn -0.0375 -0.0338 0.9987
vn -0.0592 -0.0006 0.9982
vn -0.0416 0.1307 0.9905
vn 0.0375 -0.0338 -0.9987
vn 0.0166 0.9998 0.0096
vn -0.9936 0.1129 0.0090
vn 0.0592 -0.0006 -0.9982
vn 0.0416 0.1307 -0.9905
vn 0.0592 -0.0006 0.9982
vn 0.0416 0.1307 0.9905
vn -0.0376 -0.0338 -0.9987
vn -0.0376 -0.0338 0.9987
vn 0.0376 -0.0338 0.9987
vn 0.0376 -0.0338 -0.9987
vt 0.530841 0.344398
vt 0.524186 0.346779
vt 0.522856 0.341931
vt 0.526545 0.337900
vt 0.517730 0.347618
vt 0.517885 0.341072
vt 0.519655 0.334110
vt 0.323969 0.351029
vt 0.317447 0.350954
vt 0.318229 0.345989
vt 0.323063 0.344588
vt 0.310502 0.349295
vt 0.314135 0.342382
vt 0.320527 0.337933
vt 0.320004 0.012645
vt 0.324466 0.005885
vt 0.328299 0.010051
vt 0.326953 0.015087
vt 0.331587 0.001974
vt 0.333431 0.009137
vt 0.333630 0.015900
vt 0.547836 0.018902
vt 0.540716 0.020540
vt 0.539943 0.015410
vt 0.544244 0.011712
vt 0.533974 0.020599
vt 0.534934 0.013948
vt 0.537620 0.006904
vt 0.532072 0.646580
vt 0.527864 0.653065
vt 0.524167 0.649131
vt 0.525398 0.644307
vt 0.521134 0.656853
vt 0.519283 0.650067
vt 0.518991 0.643608
vt 0.315837 0.646163
vt 0.322586 0.644312
vt 0.323526 0.649169
vt 0.319586 0.652872
vt 0.329016 0.644009
vt 0.328349 0.650358
vt 0.326091 0.657142
vt 0.334985 0.317020
vt 0.334851 0.323555
vt 0.329889 0.322721
vt 0.328536 0.317889
vt 0.333115 0.330496
vt 0.326232 0.326760
vt 0.321904 0.320307
vt 0.540956 0.316406
vt 0.537255 0.323133
vt 0.533293 0.319508
vt 0.534146 0.314633
vt 0.530889 0.327398
vt 0.528527 0.320804
vt 0.527691 0.314446
vt 0.377460 0.532368
vt 0.382811 0.544681
vt 0.379294 0.544301
vt 0.373800 0.538605
vt 0.389626 0.555349
vt 0.379400 0.547767
vt 0.367384 0.541598
vt 0.376539 0.464176
vt 0.373094 0.458192
vt 0.377893 0.451981
vt 0.381783 0.451103
vt 0.367377 0.454806
vt 0.377420 0.447939
vt 0.388755 0.439222
vt 0.347029 0.532767
vt 0.350583 0.538688
vt 0.345454 0.544790
vt 0.341932 0.545306
vt 0.356839 0.541511
vt 0.345530 0.548342
vt 0.335312 0.556365
vt 0.345571 0.463921
vt 0.339923 0.451176
vt 0.343652 0.451634
vt 0.349286 0.457803
vt 0.332834 0.439854
vt 0.343661 0.447926
vt 0.355818 0.455243
vt 0.475450 0.137809
vt 0.469657 0.123822
vt 0.473705 0.124361
vt 0.479915 0.131329
vt 0.462389 0.111665
vt 0.473618 0.120363
vt 0.487655 0.127345
vt 0.479922 0.131323
vt 0.477874 0.202302
vt 0.481679 0.208555
vt 0.476362 0.214529
vt 0.472881 0.214998
vt 0.488277 0.211868
vt 0.476308 0.218015
vt 0.466453 0.225626
vt 0.511881 0.138010
vt 0.507776 0.131254
vt 0.513585 0.124346
vt 0.517526 0.123745
vt 0.500601 0.127902
vt 0.513523 0.120375
vt 0.524746 0.111658
vt 0.509896 0.202303
vt 0.514756 0.214901
vt 0.511164 0.214328
vt 0.505830 0.208117
vt 0.521148 0.226055
vt 0.511087 0.217902
vt 0.499020 0.210942
vt 0.545345 0.642215
vt 0.547373 0.635621
vt 0.552520 0.637918
vt 0.551870 0.643333
vt 0.556949 0.630855
vt 0.557956 0.637410
vt 0.550266 0.632717
vt 0.558186 0.643733
vt 0.023954 0.505423
vt 0.026716 0.511757
vt 0.021128 0.518019
vt 0.017272 0.519069
vt 0.033320 0.513940
vt 0.020990 0.521932
vt 0.009521 0.530077
vt 0.732676 0.012412
vt 0.726157 0.013492
vt 0.725534 0.008093
vt 0.730681 0.005823
vt 0.719863 0.013853
vt 0.720124 0.007565
vt 0.721149 0.001055
vt 0.727791 0.002925
vt 0.276957 0.512845
vt 0.282949 0.510123
vt 0.288640 0.516005
vt 0.288848 0.519779
vt 0.285646 0.503733
vt 0.292481 0.516954
vt 0.300390 0.528353
vt 0.542970 0.907550
vt 0.549588 0.906521
vt 0.550169 0.912016
vt 0.544919 0.914260
vt 0.555976 0.906202
vt 0.555673 0.912596
vt 0.554584 0.919231
vt 0.547825 0.917267
vt 0.030887 0.227554
vt 0.025171 0.230174
vt 0.019921 0.224813
vt 0.019665 0.221434
vt 0.022675 0.236006
vt 0.016487 0.224048
vt 0.009303 0.213844
vt 0.721026 0.276085
vt 0.727339 0.276387
vt 0.726767 0.281807
vt 0.721346 0.282388
vt 0.733884 0.277407
vt 0.731949 0.284032
vt 0.722436 0.288910
vt 0.729081 0.286969
vt 0.288273 0.237258
vt 0.286000 0.231545
vt 0.291102 0.226246
vt 0.294541 0.225484
vt 0.280122 0.229302
vt 0.291314 0.222851
vt 0.301896 0.215156
vt 0.684425 0.813414
vt 0.686706 0.818975
vt 0.681822 0.823743
vt 0.678514 0.823837
vt 0.692301 0.821361
vt 0.681718 0.826994
vt 0.671674 0.834149
vt 0.685447 0.735224
vt 0.680521 0.725612
vt 0.683568 0.725854
vt 0.687686 0.730124
vt 0.674308 0.716279
vt 0.683604 0.722910
vt 0.692731 0.728112
vt 0.710298 0.813038
vt 0.716086 0.823779
vt 0.712713 0.823556
vt 0.707828 0.818444
vt 0.722846 0.834160
vt 0.712777 0.826910
vt 0.702236 0.820770
vt 0.710154 0.737165
vt 0.707518 0.731271
vt 0.712492 0.725778
vt 0.715998 0.725465
vt 0.702319 0.728731
vt 0.712466 0.722269
vt 0.722928 0.713982
vt 0.481717 0.141959
vt 0.484774 0.137391
vt 0.486993 0.139622
vt 0.487006 0.140982
vt 0.490244 0.134453
vt 0.488349 0.140256
vt 0.486994 0.139620
vt 0.484777 0.137388
vt 0.604680 0.083851
vt 0.598228 0.093024
vt 0.595482 0.093168
vt 0.595589 0.090386
vt 0.483962 0.198591
vt 0.488531 0.199726
vt 0.488289 0.200663
vt 0.486533 0.202503
vt 0.605082 0.206899
vt 0.595872 0.200386
vt 0.595734 0.197575
vt 0.598535 0.197702
vt 0.490464 0.205031
vt 0.489190 0.200496
vt 0.505642 0.141933
vt 0.501168 0.141085
vt 0.501209 0.140099
vt 0.502736 0.138060
vt 0.557974 0.084032
vt 0.567155 0.090590
vt 0.567327 0.093339
vt 0.564578 0.093202
vt 0.497992 0.135952
vt 0.500273 0.140487
vt 0.504010 0.198320
vt 0.500673 0.202059
vt 0.499116 0.200092
vt 0.498853 0.199094
vt 0.496520 0.203858
vt 0.498241 0.199916
vt 0.558050 0.207099
vt 0.564636 0.197787
vt 0.567441 0.197638
vt 0.567276 0.200416
vt 0.758424 0.332175
vt 0.758424 0.629844
vt 0.751706 0.629844
vt 0.751706 0.332175
vt 0.744988 0.629844
vt 0.744988 0.332175
vt 0.342842 0.348600
vt 0.342056 0.341454
vt 0.341145 0.334064
vt 0.541559 0.629844
vt 0.541559 0.332175
vt 0.548277 0.332175
vt 0.548277 0.629844
vt 0.554995 0.332175
vt 0.554995 0.629844
vt 0.483099 0.014873
vt 0.483466 0.007508
vt 0.483795 -0.000000
vt 0.309622 0.113052
vt 0.316638 0.113389
vt 0.323718 0.113736
vt 0.544398 0.218700
vt 0.537855 0.218447
vt 0.531205 0.218144
vt 0.479556 0.332175
vt 0.479380 0.325096
vt 0.479184 0.317951
vt 0.010000 -0.000000
vt 0.303121 0.001317
vt 0.303091 0.007932
vt 0.009970 0.006615
vt 0.303062 0.014548
vt 0.009940 0.013231
vt 0.302162 0.214869
vt 0.009040 0.213553
vt 0.009070 0.206937
vt 0.302192 0.208254
vt 0.009100 0.200322
vt 0.302221 0.201638
vt 0.376960 0.647419
vt 0.376851 0.654382
vt 0.376767 0.661465
vt 0.541559 0.549951
vt 0.534732 0.549626
vt 0.527837 0.549303
vt 0.309622 0.448309
vt 0.316270 0.448288
vt 0.323016 0.448309
vt 0.373019 0.346514
vt 0.372753 0.339318
vt 0.372515 0.332175
vt 0.514354 0.017806
vt 0.515296 0.010355
vt 0.516351 0.002814
vt 0.510465 0.330758
vt 0.509702 0.323452
vt 0.509087 0.316387
vt 0.347624 0.645920
vt 0.347010 0.652955
vt 0.346315 0.660073
vt 0.310406 0.223114
vt 0.317424 0.222681
vt 0.324343 0.222271
vt 0.547836 0.120010
vt 0.541092 0.119933
vt 0.534410 0.119914
vt 0.541559 0.441584
vt 0.534594 0.441969
vt 0.527728 0.442338
vt 0.311891 0.548859
vt 0.318595 0.548629
vt 0.325241 0.548372
vt 0.377410 0.447926
vt 0.367368 0.454798
vt 0.484600 0.928582
vt 0.484600 0.661465
vt 0.491168 0.661523
vt 0.491168 0.928524
vt 1.000000 0.910662
vt 0.732999 0.910662
vt 0.733056 0.904093
vt 0.999942 0.904093
vt 0.712399 0.630034
vt 0.731661 0.629844
vt 0.731728 0.636498
vt 0.712458 0.636695
vt 0.731795 0.643152
vt 0.712524 0.643361
vt 0.033325 0.513959
vt 0.276952 0.512862
vt 0.288840 0.519791
vt 0.020999 0.521945
vt 0.595819 0.000023
vt 0.595837 0.006645
vt 0.595772 0.013213
vt 0.721849 0.092322
vt 0.728413 0.092160
vt 0.734938 0.092122
vt 0.287086 0.315697
vt 0.294043 0.315699
vt 0.300650 0.315532
vt 0.596530 0.277877
vt 0.596650 0.284471
vt 0.596687 0.291121
vt 0.924277 0.267117
vt 0.924277 0.000000
vt 0.930846 0.000058
vt 0.930846 0.267059
vt 0.732999 0.629844
vt 1.000000 0.629844
vt 0.999942 0.636412
vt 0.733056 0.636412
vt 0.749300 0.018170
vt 0.749300 0.278954
vt 0.742517 0.287777
vt 0.742517 0.009347
vt 0.735391 0.297124
vt 0.735391 0.000000
vt 0.682629 0.920907
vt 0.682620 0.914087
vt 0.682673 0.907326
vt 0.554693 0.826861
vt 0.548107 0.826956
vt 0.541559 0.826915
vt 0.023210 0.423545
vt 0.016087 0.423701
vt 0.009271 0.424006
vt 0.683249 0.630223
vt 0.683240 0.636913
vt 0.683310 0.643554
vt 0.547895 -0.000000
vt 0.566999 0.000009
vt 0.566995 0.006603
vt 0.547892 0.006599
vt 0.566992 0.013194
vt 0.547889 0.013199
vt 0.548404 0.278248
vt 0.567607 0.278114
vt 0.567660 0.284739
vt 0.548456 0.284885
vt 0.567715 0.291367
vt 0.548508 0.291519
vt 0.732441 0.920982
vt 0.712589 0.920937
vt 0.712600 0.914084
vt 0.732456 0.914125
vt 0.712613 0.907227
vt 0.732473 0.907265
vt 0.722291 0.197423
vt 0.728879 0.197531
vt 0.735391 0.197509
vt 0.285258 0.423675
vt 0.292220 0.423805
vt 0.298960 0.424084
vt 0.555622 0.722274
vt 0.549056 0.722064
vt 0.542563 0.721988
vt 0.022655 0.314548
vt 0.015717 0.314459
vt 0.009043 0.314213
vt 0.692734 0.728101
vt 0.683610 0.722900
vt 0.365369 0.534995
vt 0.368834 0.533235
vt 0.370610 0.529213
vt 0.370527 0.467315
vt 0.368268 0.463945
vt 0.363734 0.462344
vt 0.353037 0.529703
vt 0.355384 0.533361
vt 0.358844 0.534952
vt 0.357603 0.461751
vt 0.353980 0.463192
vt 0.352185 0.467072
vt 0.297669 0.828040
vt 0.201372 0.828040
vt 0.201372 0.530371
vt 0.297669 0.530371
vt 0.602190 0.629844
vt 0.602190 0.332175
vt 0.573831 0.629844
vt 0.573831 0.332175
vt 0.009249 0.530371
vt -0.000000 0.424435
vt 0.300663 0.528644
vt 0.308118 0.424495
vt 0.302430 0.155164
vt 0.009309 0.153848
vt 0.096297 0.828040
vt 0.000000 0.828040
vt 0.000000 0.530371
vt 0.096297 0.530371
vt 0.302305 0.183090
vt 0.009183 0.181773
vt -0.000000 0.313822
vt 0.309622 0.315264
vt 0.363722 0.462340
vt 0.736111 0.822790
vt 0.996888 0.822790
vt 0.356817 0.925415
vt 0.356817 0.664632
vt 0.732998 0.722617
vt 0.328458 0.664631
vt 0.328458 0.925416
vt 0.309622 0.925416
vt 0.309622 0.664631
vt 0.547836 0.092848
vt 0.796494 0.263950
vt 0.796494 0.003166
vt 0.996888 0.717715
vt 0.736111 0.717715
vt 0.768136 0.003166
vt 0.768136 0.263950
vt 0.749300 0.263950
vt 0.749300 0.003166
vt 0.732999 0.825433
vt 0.547836 0.198263
s 0
usemtl Material.004
f 1/1/1 4/2/2 5/3/3 7/4/4
f 2/5/5 6/6/6 5/3/7 4/2/2
f 3/7/8 7/4/9 5/3/10 6/6/11
f 8/8/12 11/9/13 12/10/14 14/11/15
f 9/12/16 13/13/17 12/10/18 11/9/13
f 10/14/19 14/11/20 12/10/21 13/13/22
f 15/15/23 18/16/24 19/17/25 21/18/26
f 16/19/27 20/20/28 19/17/29 18/16/30
f 17/21/31 21/18/26 19/17/32 20/20/28
f 22/22/33 25/23/34 26/24/35 28/25/36
f 23/26/37 27/27/38 26/24/39 25/23/34
f 24/28/40 28/25/36 26/24/41 27/27/38
f 29/29/42 32/30/43 33/31/44 35/32/45
f 30/33/46 34/34/47 33/31/48 32/30/49
f 31/35/50 35/32/45 33/31/51 34/34/47
f 36/36/52 39/37/53 40/38/54 42/39/55
f 37/40/56 41/41/57 40/38/58 39/37/53
f 38/42/59 42/39/55 40/38/60 41/41/57
f 43/43/61 46/44/62 47/45/63 49/46/64
f 44/47/65 48/48/66 47/45/67 46/44/68
f 45/49/69 49/46/64 47/45/70 48/48/71
f 50/50/72 53/51/73 54/52/74 56/53/75
f 51/54/76 55/55/77 54/52/78 53/51/73
f 52/56/79 56/53/75 54/52/80 55/55/77
f 105/57/81 108/58/82 109/59/83 111/60/84
f 106/61/85 110/62/86 109/59/87 108/58/88
f 107/63/89 111/60/84 109/59/90 110/62/86
f 112/64/91 115/65/92 116/66/93 118/67/94
f 113/68/95 117/69/96 116/66/97 115/65/92
f 114/70/98 118/67/99 116/66/100 117/69/101
f 119/71/102 122/72/103 123/73/104 125/74/105
f 120/75/106 124/76/107 123/73/108 122/72/103
f 121/77/109 125/74/110 123/73/111 124/76/112
f 126/78/113 129/79/114 130/80/115 132/81/116
f 127/82/117 131/83/118 130/80/119 129/79/120
f 128/84/121 132/81/116 130/80/122 131/83/118
f 133/85/123 136/86/124 137/87/125 139/88/126
f 134/89/127 138/90/128 137/87/129 136/86/130
f 135/91/131 139/92/126 137/87/132 138/90/128
f 140/93/133 143/94/134 144/95/135 146/96/136
f 141/97/137 145/98/138 144/95/139 143/94/134
f 142/99/140 146/96/141 144/95/142 145/98/143
f 147/100/144 150/101/145 151/102/146 153/103/147
f 148/104/148 152/105/149 151/102/150 150/101/145
f 149/106/151 153/103/152 151/102/153 152/105/154
f 154/107/155 157/108/156 158/109/157 160/110/158
f 155/111/159 159/112/160 158/109/161 157/108/162
f 156/113/163 160/110/158 158/109/164 159/112/160
f 161/114/165 164/115/166 165/116/167 167/117/168
f 162/118/169 166/119/170 165/116/167 164/120/166
f 163/121/171 167/117/168 165/116/167 166/119/170
f 168/122/172 171/123/173 172/124/174 174/125/175
f 169/126/176 173/127/177 172/124/178 171/123/179
f 170/128/180 174/125/181 172/124/182 173/127/177
f 175/129/183 178/130/184 179/131/185 181/132/186
f 176/133/187 180/134/188 179/131/185 178/130/184
f 177/135/189 181/136/190 179/131/185 180/134/188
f 182/137/191 185/138/192 186/139/193 188/140/194
f 183/141/195 187/142/196 186/139/197 185/138/198
f 184/143/199 188/140/194 186/139/200 187/142/201
f 189/144/202 192/145/203 193/146/204 195/147/205
f 190/148/206 194/149/207 193/146/204 192/145/203
f 191/150/208 195/151/209 193/146/204 194/149/207
f 196/152/210 199/153/211 200/154/212 202/155/213
f 197/156/214 201/157/215 200/154/216 199/153/217
f 198/158/218 202/155/213 200/154/219 201/157/220
f 203/159/221 206/160/222 207/161/223 209/162/224
f 204/163/225 208/164/226 207/161/223 206/160/222
f 205/165/227 209/162/224 207/161/223 208/166/226
f 210/167/228 213/168/229 214/169/230 216/170/231
f 211/171/232 215/172/233 214/169/234 213/168/235
f 212/173/236 216/170/237 214/169/238 215/172/233
f 265/174/239 268/175/240 269/176/241 271/177/242
f 266/178/243 270/179/244 269/176/245 268/175/246
f 267/180/247 271/177/242 269/176/248 270/179/244
f 272/181/249 275/182/250 276/183/251 278/184/252
f 273/185/253 277/186/254 276/183/255 275/182/250
f 274/187/256 278/184/257 276/183/251 277/186/258
f 279/188/259 282/189/260 283/190/261 285/191/262
f 280/192/263 284/193/264 283/190/265 282/189/260
f 281/194/266 285/191/267 283/190/261 284/193/264
f 286/195/268 289/196/269 290/197/270 292/198/271
f 287/199/272 291/200/273 290/197/270 289/196/274
f 288/201/275 292/198/271 290/197/276 291/200/277
f 293/202/278 296/203/279 297/204/280 299/205/281
f 294/206/282 298/207/283 297/208/284 296/209/285
f 295/210/286 299/211/281 297/212/287 298/213/283
f 300/214/288 303/215/289 304/216/290 306/217/291
f 301/218/292 305/219/293 304/220/294 303/221/289
f 302/222/295 306/217/296 304/216/294 305/223/297
f 307/224/298 310/225/299 311/226/300 313/227/301
f 308/228/302 312/229/303 311/230/304 310/231/299
f 309/232/305 313/227/306 311/226/300 312/233/303
f 314/234/307 317/235/308 318/236/309 320/237/310
f 315/238/311 319/239/312 318/236/309 317/235/313
f 316/240/314 320/241/310 318/242/315 319/243/316
f 15/244/317 1/245/318 7/246/4 18/247/30
f 18/247/30 7/246/4 3/248/8 16/249/27
f 61/250/319 8/8/320 14/11/20 62/251/321
f 62/251/321 14/11/15 10/14/322 60/252/323
f 9/253/16 22/254/33 28/255/36 13/256/22
f 13/256/22 28/255/36 24/257/324 10/258/325
f 67/259/326 17/21/31 20/20/327 68/260/328
f 68/260/328 20/20/329 16/19/330 66/261/331
f 85/262/332 15/15/23 21/18/26 86/263/333
f 86/263/333 21/18/26 17/21/31 84/264/334
f 91/265/335 50/50/72 56/53/75 92/266/336
f 92/266/336 56/53/75 52/56/337 90/267/338
f 73/268/339 44/47/340 46/44/341 74/269/342
f 74/269/342 46/44/68 43/43/343 72/270/344
f 29/271/345 45/272/346 48/273/71 32/274/49
f 32/274/49 48/273/71 44/275/65 30/276/46
f 50/277/72 36/278/52 42/279/55 53/280/73
f 53/280/73 42/279/55 38/281/347 51/282/348
f 79/283/349 31/35/50 34/34/350 80/284/351
f 80/284/351 34/34/352 30/33/353 78/285/354
f 97/286/355 29/29/42 35/32/45 98/287/356
f 98/287/356 35/32/45 31/35/50 96/288/357
f 103/289/358 9/12/16 11/9/13 104/290/359
f 104/290/359 11/9/13 8/8/12 102/291/360
f 2/5/361 57/292/362 59/293/321 6/6/11
f 6/6/363 59/293/321 58/294/323 3/7/364
f 57/292/362 61/250/319 62/251/321 59/293/321
f 59/293/321 62/251/321 60/252/323 58/294/323
f 23/26/365 63/295/366 65/296/328 27/27/367
f 27/27/368 65/296/328 64/297/331 24/28/369
f 63/295/366 67/259/326 68/260/328 65/296/328
f 65/296/328 68/260/328 66/261/331 64/297/331
f 51/54/370 69/298/339 71/299/342 55/55/371
f 55/55/372 71/299/342 70/300/373 52/56/374
f 69/298/339 73/268/339 74/269/342 71/299/342
f 71/299/342 74/269/342 72/270/344 70/300/373
f 37/40/375 75/301/376 77/302/351 41/41/377
f 41/41/378 77/302/351 76/303/354 38/42/379
f 75/301/376 79/283/349 80/284/351 77/302/351
f 77/302/351 80/284/351 78/285/354 76/303/354
f 45/49/69 81/304/332 83/305/333 49/46/64
f 49/46/64 83/305/333 82/306/334 43/43/343
f 81/304/332 85/262/332 86/263/333 83/305/333
f 83/305/333 86/263/333 84/264/334 82/306/334
f 22/22/380 87/307/335 89/308/336 25/23/34
f 25/23/34 89/308/381 88/309/338 23/26/382
f 87/307/335 91/265/335 92/266/336 89/308/336
f 89/308/336 92/266/336 90/267/338 88/309/338
f 1/1/1 93/310/355 95/311/356 4/2/2
f 4/2/2 95/311/356 94/312/357 2/5/361
f 93/310/355 97/286/355 98/287/356 95/311/356
f 95/311/356 98/287/356 96/288/357 94/312/357
f 36/36/52 99/313/358 101/314/359 39/37/53
f 39/37/53 101/314/383 100/315/360 37/40/384
f 99/313/358 103/289/385 104/290/359 101/314/359
f 101/314/359 104/290/359 102/291/360 100/315/360
f 105/57/386 112/64/387 118/67/388 108/58/82
f 108/58/389 118/67/390 114/70/98 106/61/391
f 121/77/392 127/82/393 129/79/394 125/74/395
f 125/74/396 129/79/114 126/78/397 119/71/398
f 133/85/399 140/93/400 146/96/401 136/86/124
f 136/86/402 146/96/403 142/99/140 134/89/404
f 149/106/405 155/111/406 157/108/407 153/103/408
f 153/103/409 157/108/156 154/107/410 147/100/411
f 148/104/412 135/91/413 138/90/414 152/105/415
f 152/105/416 138/90/128 134/89/417 149/106/151
f 155/111/159 142/99/418 145/98/419 159/112/160
f 159/112/420 145/98/421 141/97/422 156/113/423
f 120/75/424 107/63/425 110/62/426 124/76/427
f 124/76/428 110/62/86 106/61/85 121/77/109
f 127/82/117 114/70/429 117/316/430 131/83/118
f 131/83/431 117/316/432 113/317/433 128/84/434
f 177/318/189 162/319/169 164/320/166 181/321/186
f 181/322/190 164/323/435 161/324/165 175/325/436
f 221/326/437 169/327/176 171/328/438 222/329/439
f 222/329/439 171/328/179 168/330/172 220/331/440
f 169/332/441 182/333/442 188/334/194 173/335/177
f 173/335/443 188/334/444 184/143/445 170/128/446
f 227/336/447 177/135/189 180/134/188 228/337/448
f 228/337/449 180/134/450 176/133/187 226/338/451
f 245/339/452 176/133/187 178/130/184 246/340/453
f 246/340/454 178/130/184 175/129/436 244/341/455
f 251/342/456 210/167/457 216/170/237 252/343/458
f 252/343/459 216/170/460 212/173/461 250/344/462
f 233/345/463 203/159/221 209/162/224 234/346/464
f 234/346/465 209/162/224 205/165/466 232/347/467
f 191/348/208 205/349/227 208/350/226 195/351/205
f 195/352/209 208/353/468 204/354/225 189/355/469
f 211/356/470 196/357/471 202/358/213 215/359/233
f 215/359/472 202/358/473 198/360/474 212/361/461
f 239/362/475 191/150/208 194/149/207 240/363/476
f 240/363/477 194/149/478 190/148/206 238/364/479
f 257/365/480 190/148/206 192/145/203 258/366/481
f 258/366/482 192/145/203 189/144/469 256/367/483
f 263/368/484 168/122/485 174/125/181 264/369/486
f 264/369/487 174/125/488 170/128/446 262/370/489
f 162/118/490 217/371/491 219/372/492 166/119/170
f 166/119/170 219/372/493 218/373/494 163/121/171
f 217/371/495 221/326/437 222/329/439 219/372/492
f 219/372/496 222/329/439 220/331/497 218/373/498
f 182/374/499 223/375/500 225/376/501 185/377/502
f 185/377/192 225/376/501 224/378/503 183/379/504
f 223/375/500 227/336/505 228/337/506 225/376/501
f 225/376/501 228/337/507 226/338/508 224/378/509
f 210/380/228 229/381/510 231/382/511 213/383/235
f 213/383/512 231/382/511 230/384/513 211/385/232
f 229/381/514 233/345/515 234/346/516 231/382/511
f 231/382/511 234/346/465 232/347/517 230/384/513
f 196/386/518 235/387/519 237/388/520 199/389/521
f 199/389/211 237/388/520 236/390/522 197/391/523
f 235/387/519 239/362/524 240/363/525 237/388/520
f 237/388/520 240/363/526 238/364/527 236/390/528
f 203/159/221 241/392/529 243/393/530 206/160/222
f 206/160/222 243/393/530 242/394/531 204/163/225
f 241/392/529 245/339/452 246/340/453 243/393/530
f 243/393/530 246/340/453 244/341/532 242/394/531
f 183/141/533 247/395/534 249/396/535 187/142/536
f 187/142/537 249/396/538 248/397/539 184/143/445
f 247/395/534 251/342/456 252/343/458 249/396/540
f 249/396/541 252/343/459 250/344/462 248/397/539
f 163/121/171 253/398/542 255/399/543 167/117/168
f 167/117/168 255/399/543 254/400/544 161/114/165
f 253/398/542 257/365/480 258/366/481 255/399/543
f 255/399/543 258/366/481 256/367/545 254/400/544
f 197/156/546 259/401/547 261/402/548 201/157/549
f 201/157/550 261/402/551 260/403/552 198/158/474
f 259/401/547 263/368/484 264/369/486 261/402/553
f 261/402/554 264/369/487 262/370/489 260/403/552
f 267/180/247 273/185/253 275/182/250 271/177/555
f 271/177/242 275/182/250 272/181/556 265/174/557
f 279/188/558 286/195/559 292/198/271 282/189/560
f 282/189/260 292/198/561 288/201/275 280/192/263
f 295/210/286 301/218/292 303/221/562 299/211/563
f 299/205/281 303/215/289 300/214/564 293/202/565
f 307/224/566 314/234/567 320/237/310 310/225/568
f 310/231/299 320/241/569 316/240/314 308/228/302
f 308/228/570 295/210/286 298/213/571 312/229/572
f 312/233/572 298/207/571 294/206/573 309/232/574
f 315/238/575 302/222/576 305/223/577 319/239/312
f 319/243/578 305/219/577 301/218/292 316/240/579
f 280/192/580 267/180/247 270/179/581 284/193/582
f 284/193/582 270/179/581 266/178/583 281/194/584
f 287/199/585 274/404/586 277/405/587 291/200/273
f 291/200/588 277/405/587 273/185/253 288/201/589
f 107/63/89 266/406/583 268/407/590 111/60/84
f 111/60/84 268/407/246 265/408/557 105/57/591
f 112/64/91 272/409/592 278/410/257 115/65/92
f 115/65/92 278/410/252 274/411/586 113/68/593
f 119/71/102 279/412/594 285/413/262 122/72/103
f 122/72/103 285/413/262 281/414/266 120/75/595
f 128/84/121 287/415/596 289/416/269 132/81/116
f 132/81/116 289/416/269 286/417/268 126/78/597
f 135/91/131 294/206/573 296/209/598 139/92/126
f 139/88/126 296/203/285 293/202/565 133/85/599
f 140/93/133 300/214/600 306/217/296 143/94/134
f 143/94/134 306/217/291 302/222/576 141/97/601
f 147/100/144 307/224/602 313/227/301 150/101/145
f 150/101/145 313/227/301 309/232/305 148/104/603
f 156/113/163 315/238/604 317/235/308 160/110/158
f 160/110/158 317/235/308 314/234/307 154/107/605
f 15/418/23 85/419/606 93/420/607 1/421/1
f 3/248/364 58/422/323 66/423/331 16/249/330
f 94/312/608 114/70/98 57/292/609 2/5/361
f 127/82/393 102/291/610 8/8/611 61/250/612
f 60/424/323 10/258/613 24/257/614 64/425/331
f 9/426/615 103/427/616 262/370/617 170/128/618
f 22/428/33 9/426/16 170/128/618 184/143/619
f 17/21/31 67/259/620 134/89/404 84/264/621
f 63/295/622 23/26/623 88/309/624 149/106/405
f 87/429/625 22/428/33 184/143/619 248/397/626
f 44/275/340 73/430/339 78/431/354 30/276/353
f 31/35/50 79/283/627 106/61/391 96/288/608
f 81/432/606 45/433/69 29/434/42 97/435/607
f 36/278/52 50/277/72 212/173/628 198/158/629
f 69/436/339 51/282/630 38/281/631 76/437/354
f 75/301/632 37/40/633 100/315/610 121/77/392
f 99/438/616 36/278/52 198/158/629 260/403/634
f 82/306/621 142/99/140 72/270/635 43/43/343
f 50/277/636 91/439/625 250/344/637 212/173/628
f 155/111/406 90/267/624 52/56/638 70/300/639
f 58/422/323 60/424/640 64/425/641 66/423/331
f 114/70/98 127/82/393 61/250/612 57/292/609
f 67/259/620 63/295/622 149/106/405 134/89/404
f 142/99/140 155/111/406 70/300/639 72/270/635
f 73/430/339 69/436/642 76/437/643 78/431/354
f 79/283/627 75/301/632 121/77/392 106/61/391
f 85/419/606 81/432/606 97/435/607 93/420/607
f 84/264/621 134/89/404 142/99/140 82/306/621
f 149/106/405 88/309/624 90/267/624 155/111/406
f 91/439/625 87/429/625 248/397/626 250/344/637
f 96/288/608 106/61/391 114/70/98 94/312/608
f 121/77/392 100/315/610 102/291/610 127/82/393
f 103/427/616 99/438/616 260/403/634 262/370/617
f 112/64/91 105/57/591 265/408/644 272/409/592
f 107/63/89 120/75/424 281/414/266 266/406/583
f 128/84/121 113/317/433 274/440/586 287/415/272
f 119/71/102 126/78/597 286/417/268 279/412/594
f 140/93/133 133/85/599 293/202/645 300/214/600
f 135/91/131 148/104/412 309/232/305 294/206/573
f 156/113/163 141/97/422 302/222/576 315/238/311
f 147/100/144 154/107/605 314/234/307 307/224/602
f 175/325/436 161/324/165 254/441/646 244/442/532
f 162/319/169 177/318/189 227/443/505 217/444/495
f 253/398/542 163/121/171 218/373/494 273/185/253
f 288/201/589 220/331/647 168/330/172 263/445/648
f 221/446/437 223/447/500 182/448/191 169/449/649
f 176/133/187 245/339/452 295/210/286 226/338/650
f 224/378/651 308/228/570 247/450/652 183/379/504
f 205/349/227 191/348/208 239/451/524 232/452/517
f 190/148/206 257/365/480 267/180/247 238/364/653
f 242/453/654 256/454/545 189/355/469 204/354/225
f 230/455/513 235/456/519 196/457/210 211/458/655
f 236/390/656 280/192/580 259/459/657 197/391/523
f 241/392/529 203/159/221 233/345/463 301/218/292
f 316/240/579 229/381/658 210/380/228 251/460/659
f 273/185/253 218/373/660 220/331/647 288/201/589
f 217/444/495 227/443/505 223/447/500 221/446/437
f 226/338/661 295/210/286 308/228/302 224/378/651
f 301/218/292 233/345/662 229/381/658 316/240/579
f 232/452/517 239/451/524 235/456/519 230/455/513
f 238/364/663 267/180/247 280/192/263 236/390/656
f 244/442/455 254/441/544 256/454/483 242/453/531
f 245/339/452 241/392/529 301/218/292 295/210/286
f 308/228/302 316/240/314 251/460/659 247/450/652
f 257/365/480 253/398/542 273/185/253 267/180/247
f 280/192/263 288/201/275 263/445/648 259/459/657
