# Blender 5.0.1
# www.blender.org
mtllib barel_velky.mtl
o Cylinder
v -0.130695 4.609106 -4.292124
v -0.130695 4.056824 -5.462107
v -0.130695 4.535114 -5.180555
v -0.130695 4.332965 -5.386665
v -0.011971 4.609106 -4.268509
v 0.435760 4.056824 -5.349432
v 0.328016 4.535114 -5.089313
v 0.406891 4.332965 -5.279734
v 0.088675 4.609106 -4.201259
v 0.915978 4.056824 -5.028561
v 0.716891 4.535114 -4.829474
v 0.862632 4.332965 -4.975216
v 0.155926 4.609106 -4.100610
v 1.236849 4.056824 -4.548344
v 0.976730 4.535114 -4.440598
v 1.167150 4.332965 -4.519473
v 0.179542 4.609106 -3.981889
v 1.349524 4.056824 -3.981888
v 1.067973 4.535114 -3.981888
v 1.274082 4.332965 -3.981888
v 0.155926 4.609106 -3.863166
v 1.236849 4.056824 -3.415433
v 0.976730 4.535114 -3.523178
v 1.167150 4.332965 -3.444303
v 0.088675 4.609106 -3.762518
v 0.915978 4.056824 -2.935216
v 0.716891 4.535114 -3.134302
v 0.862633 4.332965 -2.988561
v -0.011972 4.609106 -3.695268
v 0.435760 4.056824 -2.614345
v 0.328016 4.535114 -2.874464
v 0.406890 4.332965 -2.684043
v -0.130695 4.609106 -3.671652
v -0.130695 4.056824 -2.501670
v -0.130695 4.535114 -2.783221
v -0.130695 4.332965 -2.577112
v -0.249417 4.609106 -3.695268
v -0.697150 4.056824 -2.614345
v -0.589405 4.535114 -2.874464
v -0.668280 4.332965 -2.684043
v -0.350064 4.609106 -3.762518
v -1.177367 4.056824 -2.935216
v -0.978280 4.535114 -3.134302
v -1.124022 4.332965 -2.988561
v -0.417316 4.609106 -3.863166
v -1.498238 4.056824 -3.415433
v -1.238119 4.535114 -3.523178
v -1.428540 4.332965 -3.444303
v -0.440931 4.609106 -3.981888
v -1.610913 4.056824 -3.981888
v -1.329362 4.535114 -3.981888
v -1.535472 4.332965 -3.981888
v -0.417315 4.609106 -4.100611
v -1.498238 4.056824 -4.548344
v -1.238118 4.535114 -4.440598
v -1.428539 4.332965 -4.519473
v -0.350065 4.609106 -4.201259
v -1.177367 4.056824 -5.028561
v -0.978281 4.535114 -4.829474
v -1.124022 4.332965 -4.975216
v -0.249418 4.609106 -4.268508
v -0.697150 4.056824 -5.349432
v -0.589406 4.535114 -5.089313
v -0.668280 4.332965 -5.279734
v -0.130695 0.227133 -5.462107
v 0.435760 0.227133 -5.349432
v -0.697150 0.227133 -5.349432
v 0.915978 0.227133 -5.028561
v 1.236849 0.227133 -4.548344
v 1.349524 0.227133 -3.981888
v 1.236849 0.227133 -3.415433
v 0.915978 0.227133 -2.935216
v 0.435760 0.227133 -2.614345
v -0.130695 0.227133 -2.501670
v -0.697150 0.227133 -2.614345
v -1.177367 0.227133 -2.935216
v -1.498238 0.227133 -3.415433
v -1.610913 0.227133 -3.981888
v -1.498238 0.227133 -4.548344
v -1.177367 0.227133 -5.028561
v -0.130695 0.000000 -5.351328
v -0.130695 0.108650 -5.462107
v 0.435760 0.108650 -5.349432
v 0.393367 0.000000 -5.247086
v 0.915978 0.108650 -5.028561
v 0.837645 0.000000 -4.950229
v 1.236849 0.108650 -4.548344
v 1.134503 0.000000 -4.505950
v 1.349524 0.108650 -3.981888
v 1.238745 0.000000 -3.981888
v 1.236849 0.108650 -3.415433
v 1.134503 0.000000 -3.457826
v 0.915978 0.108650 -2.935216
v 0.837645 0.000000 -3.013548
v 0.435760 0.108650 -2.614345
v 0.393367 0.000000 -2.716691
v -0.130695 0.108650 -2.501670
v -0.130695 0.000000 -2.612449
v -0.697150 0.108650 -2.614345
v -0.654757 0.000000 -2.716691
v -1.177367 0.108650 -2.935216
v -1.099035 0.000000 -3.013548
v -1.498238 0.108650 -3.415433
v -1.395892 0.000000 -3.457826
v -1.610913 0.108650 -3.981888
v -1.500134 0.000000 -3.981888
v -1.498238 0.108650 -4.548344
v -1.395892 0.000000 -4.505950
v -1.177367 0.108650 -5.028561
v -1.099034 0.000000 -4.950229
v -0.697150 0.108650 -5.349432
v -0.654757 0.000000 -5.247086
v -0.130695 4.609106 -4.899005
v 0.220272 4.609106 -4.829193
v 0.517804 4.609106 -4.630388
v 0.716611 4.609106 -4.332853
v 0.786422 4.609106 -3.981888
v 0.716611 4.609106 -3.630923
v 0.517805 4.609106 -3.333389
v 0.220271 4.609106 -3.134583
v -0.130695 4.609106 -3.064772
v -0.481660 4.609106 -3.134583
v -0.779194 4.609106 -3.333389
v -0.978000 4.609106 -3.630923
v -1.047812 4.609106 -3.981888
v -0.978000 4.609106 -4.332854
v -0.779194 4.609106 -4.630388
v -0.481661 4.609106 -4.829193
v -0.130695 0.993071 -5.462107
v -0.130695 1.138964 -5.462107
v -0.130695 2.524948 -5.462107
v -0.130695 2.670841 -5.462107
v -0.697150 0.993071 -5.349432
v -0.697150 1.138964 -5.349432
v -0.697150 2.524948 -5.349432
v -0.697150 2.670841 -5.349432
v 0.435760 2.670841 -5.349432
v 0.435760 2.524948 -5.349432
v 0.435760 1.138964 -5.349432
v 0.435760 0.993071 -5.349432
v 0.915978 2.670841 -5.028561
v 0.915978 2.524948 -5.028561
v 0.915978 1.138964 -5.028561
v 0.915978 0.993071 -5.028561
v 1.236849 2.670841 -4.548344
v 1.236849 2.524948 -4.548344
v 1.236849 1.138964 -4.548344
v 1.236849 0.993071 -4.548344
v 1.349524 2.670841 -3.981888
v 1.349524 2.524948 -3.981888
v 1.349524 1.138964 -3.981888
v 1.349524 0.993071 -3.981888
v 1.236849 2.670841 -3.415433
v 1.236849 2.524948 -3.415433
v 1.236849 1.138964 -3.415433
v 1.236849 0.993071 -3.415433
v 0.915978 2.670841 -2.935216
v 0.915978 2.524948 -2.935216
v 0.915978 1.138964 -2.935216
v 0.915978 0.993071 -2.935216
v 0.435760 2.670841 -2.614345
v 0.435760 2.524948 -2.614345
v 0.435760 1.138964 -2.614345
v 0.435760 0.993071 -2.614345
v -0.130695 2.670841 -2.501670
v -0.130695 2.524948 -2.501670
v -0.130695 1.138964 -2.501670
v -0.130695 0.993071 -2.501670
v -0.697150 2.670841 -2.614345
v -0.697150 2.524948 -2.614345
v -0.697150 1.138964 -2.614345
v -0.697150 0.993071 -2.614345
v -1.177367 2.670841 -2.935216
v -1.177367 2.524948 -2.935216
v -1.177367 1.138964 -2.935216
v -1.177367 0.993071 -2.935216
v -1.498238 2.670841 -3.415433
v -1.498238 2.524948 -3.415433
v -1.498238 1.138964 -3.415433
v -1.498238 0.993071 -3.415433
v -1.610913 2.670841 -3.981888
v -1.610913 2.524948 -3.981888
v -1.610913 1.138964 -3.981888
v -1.610913 0.993071 -3.981888
v -1.498238 2.670841 -4.548344
v -1.498238 2.524948 -4.548344
v -1.498238 1.138964 -4.548344
v -1.498238 0.993071 -4.548344
v -1.177367 2.670841 -5.028561
v -1.177367 2.524948 -5.028561
v -1.177367 1.138964 -5.028561
v -1.177367 0.993071 -5.028561
v -0.130695 0.994588 -5.604493
v -0.130695 1.141798 -5.604493
v -0.130695 2.524050 -5.617079
v -0.130695 2.667211 -5.617079
v -0.751639 0.994588 -5.480979
v -0.751639 1.141798 -5.480979
v -0.756455 2.524050 -5.492608
v -0.756455 2.667211 -5.492608
v 0.495066 2.667211 -5.492608
v 0.495066 2.524050 -5.492608
v 0.490249 1.141798 -5.480979
v 0.490249 0.994588 -5.480979
v 1.025560 2.667211 -5.138143
v 1.025560 2.524050 -5.138143
v 1.016660 1.141798 -5.129243
v 1.016660 0.994588 -5.129243
v 1.380025 2.667211 -4.607649
v 1.380025 2.524050 -4.607649
v 1.368396 1.141798 -4.602832
v 1.368396 0.994588 -4.602832
v 1.504496 2.667211 -3.981888
v 1.504496 2.524050 -3.981888
v 1.491910 1.141798 -3.981888
v 1.491910 0.994588 -3.981888
v 1.380025 2.667211 -3.356128
v 1.380025 2.524050 -3.356128
v 1.368396 1.141798 -3.360944
v 1.368396 0.994588 -3.360944
v 1.025560 2.667211 -2.825634
v 1.025560 2.524050 -2.825634
v 1.016660 1.141798 -2.834534
v 1.016660 0.994588 -2.834534
v 0.495066 2.667211 -2.471169
v 0.495066 2.524050 -2.471169
v 0.490249 1.141798 -2.482797
v 0.490249 0.994588 -2.482797
v -0.130695 2.667211 -2.346698
v -0.130695 2.524050 -2.346698
v -0.130695 1.141798 -2.359284
v -0.130695 0.994588 -2.359284
v -0.756455 2.667211 -2.471169
v -0.756455 2.524050 -2.471169
v -0.751639 1.141798 -2.482797
v -0.751639 0.994588 -2.482797
v -1.286949 2.667211 -2.825634
v -1.286949 2.524050 -2.825634
v -1.278049 1.141798 -2.834534
v -1.278049 0.994588 -2.834534
v -1.641414 2.667211 -3.356128
v -1.641414 2.524050 -3.356128
v -1.629786 1.141798 -3.360944
v -1.629786 0.994588 -3.360944
v -1.765885 2.667211 -3.981888
v -1.765885 2.524050 -3.981888
v -1.753299 1.141798 -3.981888
v -1.753299 0.994588 -3.981888
v -1.641414 2.667211 -4.607649
v -1.641414 2.524050 -4.607649
v -1.629786 1.141798 -4.602832
v -1.629786 0.994588 -4.602832
v -1.286949 2.667211 -5.138143
v -1.286949 2.524050 -5.138143
v -1.278049 1.141798 -5.129243
v -1.278049 0.994588 -5.129243
v -0.130695 1.196424 -5.462107
v -0.697150 1.196424 -5.349432
v 0.435760 1.196424 -5.349432
v 0.915978 1.196424 -5.028561
v 1.236849 1.196424 -4.548344
v 1.349524 1.196424 -3.981888
v 1.236849 1.196424 -3.415433
v 0.915978 1.196424 -2.935216
v 0.435760 1.196424 -2.614345
v -0.130695 1.196424 -2.501670
v -0.697150 1.196424 -2.614345
v -1.177367 1.196424 -2.935216
v -1.498238 1.196424 -3.415433
v -1.610913 1.196424 -3.981888
v -1.498238 1.196424 -4.548344
v -1.177367 1.196424 -5.028561
v 0.435760 0.930909 -5.349432
v 0.915978 0.930909 -5.028561
v 1.236849 0.930909 -4.548344
v 1.349524 0.930909 -3.981888
v 1.236849 0.930909 -3.415433
v 0.915978 0.930909 -2.935216
v 0.435760 0.930909 -2.614345
v -0.130695 0.930909 -2.501670
v -0.697150 0.930909 -2.614345
v -1.177367 0.930909 -2.935216
v -1.498238 0.930909 -3.415433
v -1.610913 0.930909 -3.981888
v -1.498238 0.930909 -4.548344
v -1.177367 0.930909 -5.028561
v -0.130695 0.930909 -5.462107
v -0.697150 0.930909 -5.349432
v -0.130695 2.431316 -5.462107
v -0.697150 2.431316 -5.349432
v 0.435760 2.431316 -5.349432
v 0.915978 2.431316 -5.028561
v 1.236849 2.431316 -4.548344
v 1.349524 2.431316 -3.981888
v 1.236849 2.431316 -3.415433
v 0.915978 2.431316 -2.935216
v 0.435760 2.431316 -2.614345
v -0.130695 2.431316 -2.501670
v -0.697150 2.431316 -2.614345
v -1.177367 2.431316 -2.935216
v -1.498238 2.431316 -3.415433
v -1.610913 2.431316 -3.981888
v -1.498238 2.431316 -4.548344
v -1.177367 2.431316 -5.028561
v -0.130695 2.746732 -5.462107
v -0.697150 2.746732 -5.349432
v 0.435760 2.746732 -5.349432
v 0.915978 2.746732 -5.028561
v 1.236849 2.746732 -4.548344
v 1.349524 2.746732 -3.981888
v 1.236849 2.746732 -3.415433
v 0.915978 2.746732 -2.935216
v 0.435760 2.746732 -2.614345
v -0.130695 2.746732 -2.501670
v -0.697150 2.746732 -2.614345
v -1.177367 2.746732 -2.935216
v -1.498238 2.746732 -3.415433
v -1.610913 2.746732 -3.981888
v -1.498238 2.746732 -4.548344
v -1.177367 2.746732 -5.028561
v -0.130695 4.456611 -4.256357
v -0.025659 4.456611 -4.235464
v 0.063384 4.456611 -4.175968
v 0.122882 4.456611 -4.086923
v 0.143774 4.456611 -3.981889
v 0.122881 4.456611 -3.876854
v 0.063384 4.456611 -3.787810
v -0.025660 4.456611 -3.728312
v -0.130695 4.456611 -3.707419
v -0.235730 4.456611 -3.728312
v -0.324773 4.456611 -3.787809
v -0.384271 4.456611 -3.876854
v -0.405164 4.456611 -3.981888
v -0.384271 4.456611 -4.086924
v -0.324774 4.456611 -4.175967
v -0.235730 4.456611 -4.235464
v -0.130695 4.456611 -4.292124
v -0.011972 4.456611 -4.268509
v 0.088675 4.456611 -4.201259
v 0.155926 4.456611 -4.100610
v 0.179541 4.456611 -3.981889
v 0.155926 4.456611 -3.863166
v 0.088675 4.456611 -3.762518
v -0.011972 4.456611 -3.695268
v -0.130695 4.456611 -3.671652
v -0.249417 4.456611 -3.695268
v -0.350065 4.456611 -3.762518
v -0.417316 4.456611 -3.863166
v -0.440931 4.456611 -3.981888
v -0.417315 4.456611 -4.100611
v -0.350065 4.456611 -4.201259
v -0.249418 4.456611 -4.268508
v -0.130695 4.609106 -4.399581
v 0.029151 4.609106 -4.367786
v 0.164659 4.609106 -4.277243
v 0.255204 4.609106 -4.141732
v 0.286999 4.609106 -3.981888
v 0.255204 4.609106 -3.822044
v 0.164659 4.609106 -3.686534
v 0.029150 4.609106 -3.595990
v -0.130695 4.609106 -3.564195
v -0.290539 4.609106 -3.595990
v -0.426048 4.609106 -3.686534
v -0.516593 4.609106 -3.822044
v -0.548388 4.609106 -3.981888
v -0.516593 4.609106 -4.141733
v -0.426049 4.609106 -4.277242
v -0.290540 4.609106 -4.367786
vn 0.3822 0.0465 -0.9229
vn -0.0000 0.0465 -0.9989
vn -0.0000 0.4953 -0.8687
vn 0.3324 0.4952 -0.8026
vn 0.3324 0.4953 -0.8026
vn -0.0000 0.8563 -0.5165
vn 0.1976 0.8563 -0.4772
vn 0.1976 0.8564 -0.4771
vn -0.0000 0.8564 -0.5164
vn -0.0000 0.9924 -0.1231
vn 0.0471 0.9924 -0.1137
vn 0.7063 0.0465 -0.7064
vn 0.3823 0.0465 -0.9229
vn 0.3325 0.4953 -0.8026
vn 0.6143 0.4952 -0.6143
vn 0.6143 0.4953 -0.6143
vn 0.1977 0.8563 -0.4772
vn 0.3652 0.8563 -0.3652
vn 0.3651 0.8564 -0.3651
vn 0.0870 0.9924 -0.0870
vn 0.9229 0.0465 -0.3823
vn 0.7064 0.0465 -0.7063
vn 0.8026 0.4952 -0.3325
vn 0.8026 0.4953 -0.3325
vn 0.4771 0.8563 -0.1977
vn 0.4771 0.8564 -0.1976
vn 0.1137 0.9924 -0.0471
vn 0.9989 0.0465 -0.0000
vn 0.8026 0.4953 -0.3324
vn 0.8688 0.4952 -0.0000
vn 0.8687 0.4953 -0.0000
vn 0.4772 0.8563 -0.1976
vn 0.5165 0.8563 -0.0000
vn 0.5164 0.8564 -0.0000
vn 0.1231 0.9924 -0.0000
vn 0.9229 0.0465 0.3822
vn 0.8026 0.4952 0.3324
vn 0.8026 0.4953 0.3324
vn 0.4772 0.8563 0.1976
vn 0.4771 0.8564 0.1976
vn 0.1137 0.9924 0.0471
vn 0.7064 0.0465 0.7063
vn 0.9229 0.0465 0.3823
vn 0.8026 0.4953 0.3325
vn 0.6143 0.4952 0.6143
vn 0.6143 0.4953 0.6143
vn 0.4772 0.8563 0.1977
vn 0.3652 0.8563 0.3652
vn 0.3651 0.8564 0.3651
vn 0.0870 0.9924 0.0870
vn 0.3823 0.0465 0.9229
vn 0.7063 0.0465 0.7064
vn 0.3325 0.4952 0.8026
vn 0.3324 0.4953 0.8026
vn 0.1977 0.8563 0.4771
vn 0.1976 0.8564 0.4771
vn 0.0471 0.9924 0.1137
vn -0.0000 0.0465 0.9989
vn -0.0000 0.4952 0.8688
vn -0.0000 0.4953 0.8687
vn 0.1976 0.8563 0.4772
vn -0.0000 0.8563 0.5165
vn -0.0000 0.8564 0.5164
vn -0.0000 0.9924 0.1231
vn -0.3822 0.0465 0.9229
vn -0.3324 0.4952 0.8026
vn -0.3324 0.4953 0.8026
vn -0.1976 0.8563 0.4772
vn -0.1976 0.8564 0.4771
vn -0.0471 0.9924 0.1137
vn -0.7063 0.0465 0.7064
vn -0.3823 0.0465 0.9229
vn -0.3325 0.4953 0.8026
vn -0.6143 0.4952 0.6143
vn -0.6143 0.4953 0.6143
vn -0.1977 0.8563 0.4772
vn -0.3652 0.8563 0.3652
vn -0.3651 0.8564 0.3651
vn -0.0870 0.9924 0.0870
vn -0.9229 0.0465 0.3823
vn -0.7064 0.0465 0.7063
vn -0.8026 0.4952 0.3325
vn -0.8026 0.4953 0.3325
vn -0.4771 0.8563 0.1977
vn -0.4771 0.8564 0.1976
vn -0.1137 0.9924 0.0471
vn -0.9989 0.0465 -0.0000
vn -0.8026 0.4953 0.3324
vn -0.8688 0.4952 -0.0000
vn -0.8687 0.4953 -0.0000
vn -0.4772 0.8563 0.1976
vn -0.5165 0.8563 -0.0000
vn -0.5164 0.8564 -0.0000
vn -0.1231 0.9924 -0.0000
vn -0.9229 0.0465 -0.3822
vn -0.8026 0.4952 -0.3324
vn -0.8026 0.4953 -0.3324
vn -0.4772 0.8563 -0.1976
vn -0.4771 0.8564 -0.1976
vn -0.1137 0.9924 -0.0471
vn -0.7064 0.0465 -0.7063
vn -0.9229 0.0465 -0.3823
vn -0.8026 0.4953 -0.3325
vn -0.6143 0.4952 -0.6143
vn -0.6143 0.4953 -0.6143
vn -0.4772 0.8563 -0.1977
vn -0.3652 0.8563 -0.3652
vn -0.3651 0.8564 -0.3651
vn -0.0870 0.9924 -0.0870
vn -0.3823 0.0465 -0.9229
vn -0.7063 0.0465 -0.7064
vn -0.3325 0.4952 -0.8026
vn -0.3324 0.4953 -0.8026
vn -0.1977 0.8563 -0.4771
vn -0.1976 0.8564 -0.4771
vn -0.0471 0.9924 -0.1137
vn -0.0000 0.4952 -0.8688
vn -0.1976 0.8563 -0.4772
vn 0.2949 0.6372 -0.7120
vn -0.0000 0.6372 -0.7707
vn -0.0000 0.2158 -0.9764
vn 0.3736 0.2158 -0.9021
vn -0.0000 -0.0000 -1.0000
vn 0.3826 -0.0000 -0.9239
vn -0.3826 -0.0000 -0.9239
vn -0.3822 0.0465 -0.9229
vn 0.3827 -0.0000 -0.9239
vn 0.7071 -0.0000 -0.7071
vn 0.9239 -0.0000 -0.3827
vn 0.9239 -0.0000 -0.3826
vn 0.9229 0.0465 -0.3822
vn 1.0000 -0.0000 -0.0000
vn 0.9239 -0.0000 0.3826
vn 0.9239 -0.0000 0.3827
vn 0.7071 -0.0000 0.7071
vn 0.3827 -0.0000 0.9239
vn 0.3826 -0.0000 0.9239
vn 0.3822 0.0465 0.9229
vn -0.0000 -0.0000 1.0000
vn -0.3826 -0.0000 0.9239
vn -0.3827 -0.0000 0.9239
vn -0.7071 -0.0000 0.7071
vn -0.9239 -0.0000 0.3827
vn -0.9239 -0.0000 0.3826
vn -0.9229 0.0465 0.3822
vn -1.0000 0.0001 -0.0000
vn -1.0000 -0.0000 -0.0000
vn -0.9239 -0.0000 -0.3826
vn -0.9239 -0.0000 -0.3827
vn -0.7071 -0.0000 -0.7071
vn -0.3827 -0.0000 -0.9239
vn -0.0000 -0.4313 -0.9022
vn 0.3453 -0.4313 -0.8335
vn 0.0077 -0.9998 -0.0186
vn -0.0000 -0.9998 -0.0202
vn 0.6380 -0.4313 -0.6380
vn 0.0143 -0.9998 -0.0142
vn 0.6380 -0.4313 -0.6379
vn 0.8335 -0.4313 -0.3453
vn 0.0186 -0.9998 -0.0077
vn 0.0143 -0.9998 -0.0143
vn 0.8335 -0.4313 -0.3452
vn 0.9022 -0.4313 -0.0000
vn 0.0202 -0.9998 -0.0000
vn 0.8335 -0.4313 0.3453
vn 0.0186 -0.9998 0.0077
vn 0.6380 -0.4313 0.6380
vn 0.0142 -0.9998 0.0143
vn 0.6379 -0.4313 0.6380
vn 0.3453 -0.4313 0.8335
vn 0.0077 -0.9998 0.0186
vn 0.0143 -0.9998 0.0143
vn 0.3452 -0.4313 0.8335
vn -0.0000 -0.4313 0.9022
vn -0.0000 -0.9998 0.0202
vn -0.3453 -0.4313 0.8335
vn -0.0077 -0.9998 0.0186
vn -0.6380 -0.4313 0.6380
vn -0.0143 -0.9998 0.0142
vn -0.6380 -0.4313 0.6379
vn -0.8335 -0.4313 0.3453
vn -0.0186 -0.9998 0.0077
vn -0.0143 -0.9998 0.0143
vn -0.8335 -0.4313 0.3452
vn -0.9022 -0.4313 -0.0000
vn -0.0202 -0.9998 -0.0000
vn -0.8335 -0.4313 -0.3453
vn -0.0186 -0.9998 -0.0077
vn -0.6380 -0.4313 -0.6380
vn -0.0142 -0.9998 -0.0143
vn -0.6379 -0.4313 -0.6380
vn -0.3453 -0.4313 -0.8335
vn -0.0077 -0.9998 -0.0186
vn -0.0143 -0.9998 -0.0143
vn -0.3452 -0.4313 -0.8335
vn 0.0077 -0.9998 -0.0187
vn 0.0187 -0.9998 -0.0077
vn 0.0187 -0.9998 0.0077
vn 0.0077 -0.9998 0.0187
vn -0.0077 -0.9998 0.0187
vn -0.0187 -0.9998 0.0077
vn -0.0187 -0.9998 -0.0077
vn -0.0077 -0.9998 -0.0187
vn 0.8336 -0.4313 -0.3452
vn 0.3452 -0.4313 0.8336
vn -0.8336 -0.4313 0.3452
vn -0.3452 -0.4313 -0.8336
vn -0.0000 1.0000 -0.0000
vn -0.0000 0.9924 -0.1230
vn 0.1230 0.9924 -0.0000
vn -0.0000 0.9924 0.1230
vn -0.1230 0.9924 -0.0000
vn -0.2778 -0.9196 -0.2778
vn -0.1504 -0.9196 -0.3630
vn 0.4941 -0.8694 -0.0000
vn 0.4561 -0.8694 -0.1900
vn 0.6412 -0.7199 -0.2656
vn 0.6940 -0.7199 -0.0000
vn -0.3494 -0.8694 -0.3494
vn -0.1891 -0.8694 -0.4565
vn -0.3105 0.8984 0.3105
vn -0.4041 0.8984 0.1720
vn -0.6511 0.7095 0.2697
vn -0.4984 0.7095 0.4983
vn -0.3630 -0.9196 -0.1504
vn 0.3169 0.9393 -0.1312
vn 0.3430 0.9393 0.0037
vn 0.7279 0.6857 -0.0000
vn 0.6725 0.6857 -0.2785
vn -0.4565 -0.8694 -0.1891
vn -0.4565 -0.8694 0.1891
vn -0.3487 -0.8694 0.3501
vn -0.4908 -0.7199 0.4907
vn -0.6412 -0.7199 0.2656
vn -0.3929 -0.9196 -0.0000
vn -0.3630 -0.9196 -0.1503
vn -0.9239 0.0001 -0.3826
vn 0.3928 -0.9196 -0.0000
vn 0.3637 -0.9196 -0.1485
vn 0.6814 -0.6753 -0.2822
vn 0.7375 -0.6753 -0.0000
vn -0.4941 -0.8694 -0.0000
vn -0.2425 0.9393 0.2425
vn -0.3183 0.9393 0.1278
vn -0.6725 0.6857 0.2786
vn -0.5147 0.6857 0.5147
vn -0.3630 -0.9196 0.1503
vn 0.4391 0.8984 -0.0000
vn 0.4073 0.8984 0.1641
vn 0.6511 0.7095 0.2697
vn 0.7047 0.7095 -0.0000
vn -0.3629 -0.9196 0.1503
vn -0.2792 -0.9196 0.2764
vn -0.5215 -0.6753 0.5215
vn -0.6814 -0.6753 0.2823
vn -0.2778 -0.9196 0.2778
vn -0.3630 -0.9196 0.1504
vn 0.4565 -0.8694 0.1891
vn 0.4941 -0.8694 -0.0010
vn 0.6412 -0.7199 0.2656
vn -0.3494 -0.8694 0.3494
vn -0.4057 0.8984 0.1680
vn -0.4391 0.8984 0.0042
vn -0.7047 0.7095 -0.0000
vn -0.1504 -0.9196 0.3630
vn 0.3430 0.9393 -0.0000
vn 0.3155 0.9393 0.1347
vn 0.6725 0.6857 0.2785
vn -0.1891 -0.8694 0.4565
vn -0.4561 -0.8694 0.1900
vn -0.6940 -0.7199 -0.0000
vn -0.0000 -0.9196 0.3929
vn -0.1503 -0.9196 0.3630
vn 0.3629 -0.9196 0.1503
vn 0.3928 -0.9196 0.0020
vn 0.6814 -0.6753 0.2822
vn -0.0000 -0.8694 0.4941
vn -0.3169 0.9393 0.1312
vn -0.3430 0.9393 -0.0037
vn -0.7279 0.6857 -0.0000
vn -0.6725 0.6857 0.2785
vn 0.1503 -0.9196 0.3630
vn 0.4057 0.8984 0.1681
vn 0.3135 0.8984 0.3075
vn 0.4983 0.7095 0.4983
vn 0.1891 -0.8694 0.4565
vn -0.0000 0.0001 1.0000
vn -0.3928 -0.9196 -0.0000
vn -0.3637 -0.9196 0.1485
vn -0.6814 -0.6753 0.2822
vn -0.7375 -0.6753 -0.0000
vn 0.2778 -0.9196 0.2778
vn 0.1504 -0.9196 0.3630
vn 0.3494 -0.8694 0.3494
vn 0.4569 -0.8694 0.1882
vn 0.4908 -0.7199 0.4907
vn -0.4391 0.8984 -0.0000
vn -0.4073 0.8984 -0.1641
vn -0.6511 0.7095 -0.2697
vn 0.3630 -0.9196 0.1504
vn 0.7071 0.0001 0.7071
vn 0.3169 0.9393 0.1312
vn 0.2399 0.9393 0.2451
vn 0.5147 0.6857 0.5147
vn -0.0000 0.8984 -0.4391
vn 0.1641 0.8984 -0.4073
vn 0.2697 0.7095 -0.6511
vn -0.0000 0.7095 -0.7047
vn 0.3929 -0.9196 -0.0000
vn 0.3630 -0.9196 0.1503
vn -0.4941 -0.8694 0.0010
vn -0.6412 -0.7199 -0.2656
vn 0.3622 -0.9196 0.1521
vn 0.6814 -0.6753 0.2823
vn 0.5215 -0.6753 0.5215
vn 0.3630 -0.9196 -0.1503
vn 0.1891 -0.8694 -0.4565
vn -0.0010 -0.8694 -0.4941
vn -0.0000 -0.7199 -0.6940
vn 0.2657 -0.7199 -0.6412
vn 0.4565 -0.8694 -0.1891
vn -0.3430 0.9393 -0.0000
vn -0.3155 0.9393 -0.1347
vn -0.6725 0.6857 -0.2785
vn 0.2778 -0.9196 -0.2778
vn 0.3630 -0.9196 -0.1504
vn 0.3105 0.8984 0.3105
vn 0.1720 0.8984 0.4041
vn 0.2697 0.7095 0.6511
vn 0.3494 -0.8694 -0.3494
vn 0.9239 0.0001 -0.3827
vn -0.0000 0.9393 -0.3430
vn 0.1347 0.9393 -0.3155
vn 0.2785 0.6857 -0.6725
vn -0.0000 0.6857 -0.7279
vn 0.1504 -0.9196 -0.3630
vn -0.3629 -0.9196 -0.1503
vn -0.3928 -0.9196 -0.0020
vn -0.6814 -0.6753 -0.2822
vn 0.3501 -0.8694 0.3487
vn 0.4907 -0.7199 0.4908
vn 0.2656 -0.7199 0.6412
vn -0.1503 -0.9196 -0.3630
vn -0.0000 -0.9196 -0.3929
vn 0.1503 -0.9196 -0.3629
vn 0.0020 -0.9196 -0.3928
vn -0.0000 -0.6753 -0.7375
vn 0.2822 -0.6753 -0.6814
vn -0.0000 -0.8694 -0.4941
vn -0.0000 0.0001 -1.0000
vn -0.4057 0.8984 -0.1681
vn -0.3135 0.8984 -0.3075
vn -0.4983 0.7095 -0.4983
vn 0.1503 -0.9196 -0.3630
vn 0.2425 0.9393 0.2425
vn 0.1278 0.9393 0.3183
vn 0.2786 0.6857 0.6725
vn -0.1680 0.8984 -0.4057
vn -0.0042 0.8984 -0.4391
vn -0.2696 0.7095 -0.6511
vn -0.5215 -0.6754 -0.5214
vn -0.5146 0.6858 -0.5146
vn -0.2785 0.6858 -0.6724
vn -0.2822 -0.6754 -0.6813
vn -0.4907 -0.7200 -0.4907
vn -0.2697 0.7095 -0.6510
vn -0.2656 -0.7200 -0.6412
vn -0.6813 -0.6754 -0.2822
vn -0.6724 0.6858 -0.2785
vn -0.5214 -0.6754 -0.5215
vn -0.6412 -0.7200 -0.2656
vn -0.6510 0.7095 -0.2697
vn -0.7374 -0.6754 -0.0000
vn -0.7278 0.6858 -0.0000
vn -0.6940 -0.7200 -0.0000
vn -0.6813 -0.6754 0.2822
vn -0.6724 0.6858 0.2785
vn -0.6412 -0.7200 0.2656
vn -0.6510 0.7095 0.2697
vn -0.5214 -0.6754 0.5215
vn -0.5146 0.6858 0.5146
vn -0.4907 -0.7200 0.4907
vn -0.4983 0.7095 0.4983
vn -0.2822 -0.6754 0.6813
vn -0.2785 0.6858 0.6724
vn -0.5215 -0.6754 0.5214
vn -0.2656 -0.7200 0.6412
vn -0.2697 0.7095 0.6510
vn -0.0000 -0.6754 0.7374
vn -0.0000 0.6858 0.7278
vn -0.0000 -0.7200 0.6940
vn -0.0000 0.7095 0.7047
vn 0.2822 -0.6754 0.6813
vn 0.2785 0.6858 0.6724
vn 0.2656 -0.7200 0.6412
vn 0.2697 0.7095 0.6510
vn 0.5215 -0.6754 0.5214
vn 0.5146 0.6858 0.5146
vn 0.4907 -0.7200 0.4907
vn 0.6813 -0.6754 0.2822
vn 0.6724 0.6858 0.2785
vn 0.5214 -0.6754 0.5215
vn 0.6412 -0.7200 0.2656
vn 0.6510 0.7095 0.2697
vn 0.7374 -0.6754 -0.0000
vn 0.7278 0.6858 -0.0000
vn 0.6940 -0.7200 -0.0000
vn 0.6813 -0.6754 -0.2822
vn 0.6724 0.6858 -0.2785
vn 0.6412 -0.7200 -0.2656
vn 0.6510 0.7095 -0.2697
vn 0.5214 -0.6754 -0.5215
vn 0.5146 0.6858 -0.5146
vn 0.4907 -0.7200 -0.4907
vn 0.4983 0.7095 -0.4983
vn 0.2822 -0.6754 -0.6813
vn 0.2785 0.6858 -0.6724
vn 0.5215 -0.6754 -0.5214
vn 0.2656 -0.7200 -0.6412
vn 0.2697 0.7095 -0.6510
vn -0.0000 0.6858 -0.7278
vn -0.0000 -0.6754 -0.7374
vn -0.0000 -0.7200 -0.6940
vn -0.1521 -0.9196 0.3622
vn -0.2823 -0.6753 0.6814
vn 0.4057 0.8984 -0.1680
vn 0.4391 0.8984 -0.0042
vn 0.6511 0.7095 -0.2697
vn -0.1312 0.9393 0.3169
vn -0.2451 0.9393 0.2399
vn -0.2785 0.6857 0.6725
vn 0.3629 -0.9196 -0.1503
vn 0.2792 -0.9196 -0.2764
vn 0.5215 -0.6753 -0.5215
vn 0.6814 -0.6753 -0.2823
vn -0.1882 -0.8694 0.4569
vn -0.2656 -0.7199 0.6412
vn -0.4907 -0.7199 0.4908
vn 0.2425 0.9393 -0.2425
vn 0.3183 0.9393 -0.1278
vn 0.6725 0.6857 -0.2786
vn 0.5147 0.6857 -0.5147
vn -0.1681 0.8984 0.4057
vn -0.3075 0.8984 0.3135
vn -0.2697 0.7095 0.6511
vn 0.3487 -0.8694 -0.3501
vn 0.4908 -0.7199 -0.4907
vn -0.1503 -0.9196 0.3629
vn -0.0020 -0.9196 0.3928
vn -0.0000 -0.6753 0.7375
vn -0.2822 -0.6753 0.6814
vn 0.3105 0.8984 -0.3105
vn 0.4041 0.8984 -0.1720
vn -0.0000 0.9393 0.3430
vn -0.1347 0.9393 0.3155
vn -0.0000 0.6857 0.7279
vn 0.1521 -0.9196 -0.3622
vn 0.2823 -0.6753 -0.6814
vn 0.0010 -0.8694 0.4941
vn -0.0000 -0.7199 0.6940
vn -0.1503 -0.9196 -0.3629
vn -0.2764 -0.9196 -0.2792
vn -0.5215 -0.6753 -0.5215
vn -0.2823 -0.6753 -0.6814
vn 0.1312 0.9393 -0.3169
vn 0.2451 0.9393 -0.2399
vn -0.0000 0.8984 0.4391
vn -0.1641 0.8984 0.4073
vn -0.2425 0.9393 -0.2425
vn -0.1278 0.9393 -0.3183
vn -0.2786 0.6857 -0.6725
vn -0.5147 0.6857 -0.5147
vn 0.1882 -0.8694 -0.4569
vn 0.2656 -0.7199 -0.6412
vn 0.4907 -0.7199 -0.4908
vn -0.0000 -0.9196 0.3928
vn 0.1485 -0.9196 0.3637
vn 0.2822 -0.6753 0.6814
vn -0.3501 -0.8694 -0.3487
vn -0.4907 -0.7199 -0.4908
vn -0.2655 -0.7199 -0.6412
vn 0.1681 0.8984 -0.4057
vn 0.3075 0.8984 -0.3135
vn 0.1312 0.9393 0.3169
vn -0.0037 0.9393 0.3430
vn 0.2785 0.6857 0.6725
vn -0.3105 0.8984 -0.3105
vn -0.1720 0.8984 -0.4041
vn -0.2697 0.7095 -0.6511
vn -0.0000 -0.9196 -0.3928
vn -0.1485 -0.9196 -0.3637
vn -0.2822 -0.6753 -0.6814
vn 0.1900 -0.8694 0.4561
vn -0.3622 -0.9196 -0.1521
vn -0.6814 -0.6753 -0.2823
vn -0.1312 0.9393 -0.3169
vn 0.0037 0.9393 -0.3430
vn -0.2785 0.6857 -0.6725
vn 0.1680 0.8984 0.4057
vn 0.0042 0.8984 0.4391
vn -0.3169 0.9393 -0.1312
vn -0.2399 0.9393 -0.2451
vn -0.6725 0.6857 -0.2786
vn -0.1900 -0.8694 -0.4561
vn -0.2656 -0.7199 -0.6412
vn 0.1503 -0.9196 0.3629
vn 0.2764 -0.9196 0.2792
vn 0.2823 -0.6753 0.6814
vn -0.4569 -0.8694 -0.1882
vn -0.4908 -0.7199 -0.4907
vn 0.0001 0.9393 -0.3430
vn -0.0001 0.9393 -0.3430
vn 0.1313 0.9393 -0.3169
vn 0.2425 0.9393 -0.2426
vn 0.2426 0.9393 -0.2425
vn 0.3169 0.9393 -0.1313
vn 0.3430 0.9393 -0.0001
vn 0.3430 0.9393 0.0001
vn 0.3169 0.9393 0.1313
vn 0.2426 0.9393 0.2425
vn 0.2425 0.9393 0.2426
vn 0.1313 0.9393 0.3169
vn 0.0001 0.9393 0.3430
vn -0.0001 0.9393 0.3430
vn -0.1313 0.9393 0.3169
vn -0.2425 0.9393 0.2426
vn -0.2426 0.9393 0.2425
vn -0.3169 0.9393 0.1313
vn -0.9239 -0.0001 0.3826
vn -0.3430 0.9393 0.0001
vn -0.3430 0.9393 -0.0001
vn -0.3169 0.9393 -0.1313
vn -0.9239 -0.0001 -0.3827
vn -0.2426 0.9393 -0.2425
vn -0.2425 0.9393 -0.2426
vn -0.1313 0.9393 -0.3169
vn -0.3826 0.0001 0.9239
vn -0.7071 -0.0001 -0.7071
vn -0.1681 0.8984 -0.4057
vn -0.4392 0.8984 -0.0000
vn -0.4057 0.8984 -0.1680
vn -0.4057 0.8984 0.1681
vn -0.0000 0.8984 0.4392
vn -0.1680 0.8984 0.4057
vn 0.1681 0.8984 0.4057
vn 0.4392 0.8984 -0.0000
vn 0.4057 0.8984 0.1680
vn 0.4057 0.8984 -0.1681
vn -0.0000 0.8984 -0.4392
vn 0.1680 0.8984 -0.4057
vn -0.5450 0.6372 0.5450
vn -0.2949 0.6372 0.7120
vn -0.3737 0.2158 0.9021
vn -0.6904 0.2158 0.6905
vn 0.5450 0.6372 -0.5450
vn 0.3737 0.2158 -0.9021
vn 0.6904 0.2158 -0.6905
vn -0.7120 0.6372 0.2949
vn -0.6905 0.2158 0.6904
vn -0.9021 0.2158 0.3737
vn 0.7120 0.6372 -0.2949
vn 0.6905 0.2158 -0.6904
vn 0.9021 0.2158 -0.3737
vn -0.7707 0.6372 -0.0000
vn -0.9021 0.2158 0.3736
vn -0.9764 0.2158 -0.0000
vn 0.7707 0.6372 -0.0000
vn 0.9021 0.2158 -0.3736
vn 0.9764 0.2158 -0.0000
vn -0.7120 0.6372 -0.2949
vn -0.9021 0.2158 -0.3736
vn 0.7120 0.6372 0.2949
vn 0.9021 0.2158 0.3736
vn -0.5450 0.6372 -0.5450
vn -0.9021 0.2158 -0.3737
vn -0.6905 0.2158 -0.6904
vn 0.5450 0.6372 0.5450
vn 0.9021 0.2158 0.3737
vn 0.6905 0.2158 0.6904
vn -0.2949 0.6372 -0.7120
vn -0.6904 0.2158 -0.6905
vn -0.3737 0.2158 -0.9021
vn 0.2949 0.6372 0.7120
vn 0.6904 0.2158 0.6905
vn 0.3737 0.2158 0.9021
vn -0.3736 0.2158 -0.9021
vn -0.0000 0.6372 0.7707
vn -0.0000 0.2158 0.9764
vn -0.3736 0.2158 0.9021
vn 0.3736 0.2158 0.9021
vn -0.6904 0.2158 0.6904
vn -0.6904 0.2158 -0.6904
vn 0.6904 0.2158 -0.6904
vn 0.6904 0.2158 0.6904
vn 0.2949 0.6371 0.7121
vn -0.0000 0.6371 0.7707
vn 0.5450 0.6371 0.5450
vn 0.2950 0.6371 0.7121
vn 0.7121 0.6371 0.2950
vn 0.7121 0.6372 0.2949
vn 0.7121 0.6371 -0.2949
vn 0.7707 0.6371 -0.0000
vn 0.7121 0.6372 -0.2950
vn 0.2950 0.6371 -0.7121
vn 0.5450 0.6371 -0.5450
vn -0.0000 0.6371 -0.7707
vn 0.2949 0.6371 -0.7121
vn -0.2949 0.6371 -0.7121
vn -0.5450 0.6371 -0.5450
vn -0.2950 0.6371 -0.7121
vn -0.7121 0.6371 -0.2950
vn -0.7707 0.6371 -0.0000
vn -0.7121 0.6371 -0.2949
vn -0.7121 0.6371 0.2949
vn -0.5450 0.6371 0.5450
vn -0.7121 0.6371 0.2950
vn -0.2950 0.6371 0.7121
vn -0.2949 0.6371 0.7121
vt 0.937500 0.911490
vt 1.000000 0.911490
vt 0.998407 1.000000
vt 0.937500 1.000000
vt 0.341666 0.471301
vt 0.250000 0.489534
vt 0.250000 0.444350
vt 0.324375 0.429556
vt 0.250000 0.398700
vt 0.306905 0.387381
vt 0.875000 0.911490
vt 0.875000 1.000000
vt 0.419376 0.419376
vt 0.387426 0.387426
vt 0.355146 0.355147
vt 0.812500 0.911490
vt 0.812500 1.000000
vt 0.471301 0.341666
vt 0.429556 0.324374
vt 0.387381 0.306905
vt 0.750000 0.911490
vt 0.750000 1.000000
vt 0.489534 0.250000
vt 0.444350 0.250000
vt 0.398700 0.250000
vt 0.687500 0.911490
vt 0.687500 1.000000
vt 0.471301 0.158334
vt 0.429556 0.175626
vt 0.387381 0.193095
vt 0.625000 0.911490
vt 0.625000 1.000000
vt 0.419376 0.080624
vt 0.387426 0.112574
vt 0.355147 0.144853
vt 0.562500 0.911490
vt 0.562500 1.000000
vt 0.341666 0.028699
vt 0.324374 0.070444
vt 0.306905 0.112619
vt 0.500000 0.911490
vt 0.500000 1.000000
vt 0.250000 0.010466
vt 0.250000 0.055650
vt 0.250000 0.101300
vt 0.437500 0.911490
vt 0.437500 1.000000
vt 0.158334 0.028699
vt 0.175625 0.070444
vt 0.193095 0.112619
vt 0.375000 0.911490
vt 0.375000 1.000000
vt 0.080624 0.080624
vt 0.112574 0.112574
vt 0.144854 0.144853
vt 0.312500 0.911490
vt 0.312500 1.000000
vt 0.028699 0.158334
vt 0.070444 0.175626
vt 0.112619 0.193095
vt 0.250000 0.911490
vt 0.250000 1.000000
vt 0.010466 0.250000
vt 0.055650 0.250000
vt 0.101300 0.250000
vt 0.187500 0.911490
vt 0.187500 1.000000
vt 0.028699 0.341666
vt 0.070444 0.324374
vt 0.112619 0.306905
vt 0.125000 0.911490
vt 0.125000 1.000000
vt 0.080624 0.419376
vt 0.112574 0.387426
vt 0.144853 0.355147
vt 0.062500 0.911490
vt 0.062500 1.000000
vt 0.158334 0.471301
vt 0.175625 0.429556
vt 0.193095 0.387381
vt 0.000000 0.911490
vt 0.001593 1.000000
vt 0.230751 0.203528
vt 0.250000 0.199699
vt 1.000000 0.783176
vt 0.937500 0.783176
vt 0.062500 0.783176
vt 0.000000 0.783176
vt 0.875000 0.783176
vt 0.812500 0.783176
vt 0.750000 0.783176
vt 0.687500 0.783176
vt 0.625000 0.783176
vt 0.562500 0.783176
vt 0.500000 0.783176
vt 0.437500 0.783176
vt 0.375000 0.783176
vt 0.312500 0.783176
vt 0.250000 0.783176
vt 0.187500 0.783176
vt 0.125000 0.783176
vt 0.750000 0.490000
vt 0.841844 0.471731
vt 0.834971 0.455137
vt 0.750000 0.472039
vt 0.919706 0.419706
vt 0.907005 0.407005
vt 0.971731 0.341844
vt 0.955137 0.334971
vt 0.990000 0.250000
vt 0.972039 0.250000
vt 0.971731 0.158156
vt 0.955137 0.165030
vt 0.919706 0.080294
vt 0.907005 0.092995
vt 0.841844 0.028269
vt 0.834971 0.044863
vt 0.750000 0.010000
vt 0.750000 0.027961
vt 0.658156 0.028269
vt 0.665030 0.044863
vt 0.580294 0.080294
vt 0.592995 0.092995
vt 0.528269 0.158156
vt 0.544863 0.165030
vt 0.510000 0.250000
vt 0.527961 0.250000
vt 0.528269 0.341844
vt 0.544863 0.334970
vt 0.580294 0.419706
vt 0.592995 0.407005
vt 0.658156 0.471731
vt 0.665030 0.455137
vt 1.000000 0.517413
vt 1.000000 0.536401
vt 0.937500 0.536401
vt 0.937500 0.517413
vt 0.062500 0.517413
vt 0.062500 0.536401
vt 0.000000 0.536401
vt 0.000000 0.517413
vt 0.875000 0.536401
vt 0.875000 0.517413
vt 0.812500 0.536401
vt 0.812500 0.517413
vt 0.750000 0.536401
vt 0.750000 0.517413
vt 0.687500 0.536401
vt 0.687500 0.517413
vt 0.625000 0.536401
vt 0.625000 0.517413
vt 0.562500 0.536401
vt 0.562500 0.517413
vt 0.500000 0.536401
vt 0.500000 0.517413
vt 0.437500 0.536401
vt 0.437500 0.517413
vt 0.375000 0.536401
vt 0.375000 0.517413
vt 0.312500 0.536401
vt 0.312500 0.517413
vt 0.250000 0.536401
vt 0.250000 0.517413
vt 0.187500 0.536401
vt 0.187500 0.517413
vt 0.125000 0.536401
vt 0.125000 0.517413
vt 0.250000 0.317724
vt 0.275917 0.312569
vt 0.297888 0.297888
vt 0.312569 0.275917
vt 0.317724 0.250000
vt 0.312569 0.224083
vt 0.297888 0.202112
vt 0.275917 0.187431
vt 0.250000 0.182276
vt 0.224083 0.187431
vt 0.202112 0.202112
vt 0.187431 0.224083
vt 0.182276 0.250000
vt 0.187431 0.275917
vt 0.202112 0.297888
vt 0.224083 0.312569
vt 0.125000 0.605330
vt 0.125000 0.611419
vt 0.062500 0.611419
vt 0.062500 0.605331
vt 0.750000 0.761454
vt 0.812500 0.761454
vt 0.125000 0.752284
vt 0.125000 0.761454
vt 0.062500 0.761454
vt 0.062500 0.752284
vt 0.375000 0.775743
vt 0.312500 0.775743
vt 0.187500 0.605330
vt 0.187500 0.611419
vt 0.812500 0.625708
vt 0.750000 0.625708
vt 0.187500 0.752284
vt 0.187500 0.761454
vt 0.312500 0.761454
vt 0.375000 0.761454
vt 0.250000 0.605330
vt 0.250000 0.611419
vt 0.750000 0.611419
vt 0.812500 0.611419
vt 0.250000 0.752284
vt 0.250000 0.761454
vt 0.375000 0.625708
vt 0.312500 0.625708
vt 0.312500 0.605330
vt 0.312500 0.611419
vt 0.750000 0.775743
vt 0.687500 0.775743
vt 0.312500 0.752284
vt 0.375000 0.611419
vt 0.375000 0.605330
vt 0.687500 0.761454
vt 0.375000 0.752284
vt 0.250000 0.775743
vt 0.437500 0.605330
vt 0.437500 0.611419
vt 0.687500 0.625708
vt 0.437500 0.752284
vt 0.437500 0.761454
vt 0.500000 0.605330
vt 0.500000 0.611419
vt 0.687500 0.611419
vt 0.500000 0.752284
vt 0.500000 0.761454
vt 0.250000 0.625708
vt 0.562500 0.605330
vt 0.562500 0.611419
vt 0.625000 0.775743
vt 0.562500 0.752284
vt 0.562500 0.761454
vt 0.625000 0.605330
vt 0.625000 0.611419
vt 0.625000 0.761454
vt 0.625000 0.752284
vt 0.187500 0.775743
vt 0.687500 0.605330
vt 0.625000 0.625708
vt 0.687500 0.752284
vt 1.000000 0.775743
vt 0.937500 0.775743
vt 0.750000 0.605330
vt 0.750000 0.752284
vt 0.812500 0.605330
vt 0.937500 0.761454
vt 1.000000 0.761454
vt 0.812500 0.752284
vt 0.187500 0.625708
vt 0.875000 0.605330
vt 0.875000 0.611419
vt 0.562500 0.775743
vt 0.875000 0.752284
vt 0.875000 0.761454
vt 1.000000 0.625708
vt 0.937500 0.625708
vt 0.937500 0.605330
vt 0.937500 0.611419
vt 0.937500 0.752284
vt 0.000000 0.611419
vt 0.000000 0.605331
vt 1.000000 0.611419
vt 0.000000 0.761454
vt 0.000000 0.752284
vt 0.125000 0.775743
vt 1.000000 0.605331
vt 0.562500 0.625708
vt 1.000000 0.752284
vt 0.062500 0.775743
vt 0.000000 0.775743
vt 0.125000 0.625708
vt 0.062500 0.625708
vt 0.437500 0.625708
vt 0.437500 0.775743
vt 0.500000 0.625708
vt 0.500000 0.775743
vt 0.812500 0.775743
vt 0.875000 0.625708
vt 0.875000 0.775743
vt 0.000000 0.625708
vt 1.000000 0.631336
vt 0.937500 0.631336
vt 0.062500 0.631336
vt 0.000000 0.631336
vt 0.875000 0.631335
vt 0.812500 0.631336
vt 0.750000 0.631336
vt 0.687500 0.631335
vt 0.625000 0.631335
vt 0.562500 0.631335
vt 0.500000 0.631335
vt 0.437500 0.631335
vt 0.375000 0.631336
vt 0.312500 0.631336
vt 0.250000 0.631335
vt 0.187500 0.631335
vt 0.125000 0.631335
vt 0.267030 0.291114
vt 0.250000 0.294502
vt 0.232970 0.291114
vt 0.218532 0.281468
vt 0.208886 0.267030
vt 0.205498 0.250000
vt 0.208886 0.232970
vt 0.218532 0.218532
vt 0.232970 0.208886
vt 0.250000 0.205498
vt 0.267030 0.208886
vt 0.281467 0.218532
vt 0.291114 0.232970
vt 0.294502 0.250000
vt 0.291114 0.267030
vt 0.281468 0.281468
vt 0.285568 0.285568
vt 0.269250 0.296472
vt 0.214432 0.214432
vt 0.296472 0.269249
vt 0.203528 0.230751
vt 0.300301 0.250000
vt 0.199699 0.250000
vt 0.296472 0.230751
vt 0.203528 0.269250
vt 0.285568 0.214432
vt 0.214432 0.285568
vt 0.269249 0.203528
vt 0.230750 0.296472
vt 0.250000 0.300301
s 0
f 6/1/1 2/2/2 4/3/3 8/4/4
f 8/5/5 4/6/3 3/7/6 7/8/7
f 7/8/8 3/7/9 113/9/10 114/10/11
f 10/11/12 6/1/13 8/4/14 12/12/15
f 12/13/16 8/5/5 7/8/17 11/14/18
f 11/14/19 7/8/8 114/10/11 115/15/20
f 14/16/21 10/11/22 12/12/16 16/17/23
f 16/18/24 12/13/16 11/14/18 15/19/25
f 15/19/26 11/14/19 115/15/20 116/20/27
f 18/21/28 14/16/21 16/17/29 20/22/30
f 20/23/31 16/18/29 15/19/32 19/24/33
f 19/24/34 15/19/26 116/20/27 117/25/35
f 22/26/36 18/21/28 20/22/31 24/27/37
f 24/28/38 20/23/31 19/24/33 23/29/39
f 23/29/40 19/24/34 117/25/35 118/30/41
f 26/31/42 22/26/43 24/27/44 28/32/45
f 28/33/46 24/28/38 23/29/47 27/34/48
f 27/34/49 23/29/40 118/30/41 119/35/50
f 30/36/51 26/31/52 28/32/46 32/37/53
f 32/38/54 28/33/46 27/34/48 31/39/55
f 31/39/56 27/34/49 119/35/50 120/40/57
f 34/41/58 30/36/51 32/37/54 36/42/59
f 36/43/60 32/38/54 31/39/61 35/44/62
f 35/44/63 31/39/56 120/40/57 121/45/64
f 38/46/65 34/41/58 36/42/60 40/47/66
f 40/48/67 36/43/60 35/44/62 39/49/68
f 39/49/69 35/44/63 121/45/64 122/50/70
f 42/51/71 38/46/72 40/47/73 44/52/74
f 44/53/75 40/48/67 39/49/76 43/54/77
f 43/54/78 39/49/69 122/50/70 123/55/79
f 46/56/80 42/51/81 44/52/75 48/57/82
f 48/58/83 44/53/75 43/54/77 47/59/84
f 47/59/85 43/54/78 123/55/79 124/60/86
f 50/61/87 46/56/80 48/57/88 52/62/89
f 52/63/90 48/58/88 47/59/91 51/64/92
f 51/64/93 47/59/85 124/60/86 125/65/94
f 54/66/95 50/61/87 52/62/90 56/67/96
f 56/68/97 52/63/90 51/64/92 55/69/98
f 55/69/99 51/64/93 125/65/94 126/70/100
f 58/71/101 54/66/102 56/67/103 60/72/104
f 60/73/105 56/68/103 55/69/106 59/74/107
f 59/74/108 55/69/99 126/70/100 127/75/109
f 62/76/110 58/71/111 60/72/105 64/77/112
f 64/78/113 60/73/105 59/74/107 63/79/114
f 63/79/115 59/74/108 127/75/109 128/80/116
f 2/81/2 62/76/110 64/77/113 4/82/117
f 4/6/3 64/78/113 63/79/118 3/7/6
f 3/7/9 63/79/115 128/80/116 113/9/10
f 37/83/119 33/84/120 345/84/121 346/83/122
f 305/85/123 2/2/2 6/1/1 307/86/124
f 306/87/125 62/76/126 2/81/2 305/88/123
f 307/86/127 6/1/13 10/11/12 308/89/128
f 308/89/128 10/11/22 14/16/21 309/90/129
f 309/90/130 14/16/131 18/21/28 310/91/132
f 310/91/132 18/21/28 22/26/36 311/92/133
f 311/92/134 22/26/43 26/31/42 312/93/135
f 312/93/135 26/31/52 30/36/51 313/94/136
f 313/94/137 30/36/138 34/41/58 314/95/139
f 314/95/139 34/41/58 38/46/65 315/96/140
f 315/96/141 38/46/72 42/51/71 316/97/142
f 316/97/142 42/51/81 46/56/80 317/98/143
f 317/98/144 46/56/145 50/61/87 318/99/146
f 318/99/147 50/61/87 54/66/95 319/100/148
f 319/100/149 54/66/102 58/71/101 320/101/150
f 320/101/150 58/71/111 62/76/110 306/87/151
f 82/102/152 83/103/153 84/104/154 81/105/155
f 83/103/153 85/106/156 86/107/157 84/104/154
f 85/106/158 87/108/159 88/109/160 86/107/161
f 87/108/162 89/110/163 90/111/164 88/109/160
f 89/110/163 91/112/165 92/113/166 90/111/164
f 91/112/165 93/114/167 94/115/168 92/113/166
f 93/114/169 95/116/170 96/117/171 94/115/172
f 95/116/173 97/118/174 98/119/175 96/117/171
f 97/118/174 99/120/176 100/121/177 98/119/175
f 99/120/176 101/122/178 102/123/179 100/121/177
f 101/122/180 103/124/181 104/125/182 102/123/183
f 103/124/184 105/126/185 106/127/186 104/125/182
f 105/126/185 107/128/187 108/129/188 106/127/186
f 107/128/187 109/130/189 110/131/190 108/129/188
f 109/130/191 111/132/192 112/133/193 110/131/194
f 111/132/195 82/102/152 81/105/155 112/133/193
f 82/134/152 65/135/123 66/136/124 83/137/153
f 81/105/155 84/104/196 86/107/161 88/109/197 90/111/164 92/113/198 94/115/172 96/117/199 98/119/175 100/121/200 102/123/183 104/125/201 106/127/186 108/129/202 110/131/194 112/133/203
f 111/138/195 67/139/125 65/140/123 82/141/152
f 83/137/153 66/136/127 68/142/128 85/143/156
f 85/143/158 68/142/128 69/144/129 87/145/204
f 87/145/162 69/144/130 70/146/132 89/147/163
f 89/147/163 70/146/132 71/148/133 91/149/165
f 91/149/165 71/148/134 72/150/135 93/151/169
f 93/151/169 72/150/135 73/152/136 95/153/205
f 95/153/173 73/152/137 74/154/139 97/155/174
f 97/155/174 74/154/139 75/156/140 99/157/176
f 99/157/176 75/156/141 76/158/142 101/159/180
f 101/159/180 76/158/142 77/160/143 103/161/206
f 103/161/184 77/160/144 78/162/147 105/163/185
f 105/163/185 78/162/147 79/164/148 107/165/187
f 107/165/187 79/164/149 80/166/150 109/167/191
f 109/167/191 80/166/150 67/139/151 111/138/207
f 353/168/208 354/169/208 114/10/11 113/9/209
f 354/169/208 355/170/208 115/15/20 114/10/11
f 355/170/208 356/171/208 116/20/27 115/15/20
f 356/171/208 357/172/208 117/25/210 116/20/27
f 357/172/208 358/173/208 118/30/41 117/25/210
f 358/173/208 359/174/208 119/35/50 118/30/41
f 359/174/208 360/175/208 120/40/57 119/35/50
f 360/175/208 361/176/208 121/45/211 120/40/57
f 361/176/208 362/177/208 122/50/70 121/45/211
f 362/177/208 363/178/208 123/55/79 122/50/70
f 363/178/208 364/179/208 124/60/86 123/55/79
f 364/179/208 365/180/208 125/65/212 124/60/86
f 365/180/208 366/181/208 126/70/100 125/65/212
f 366/181/208 367/182/208 127/75/109 126/70/100
f 367/182/208 368/183/208 128/80/116 127/75/109
f 368/183/208 353/168/208 113/9/209 128/80/116
f 286/184/150 192/185/213 133/186/214 288/187/151
f 150/188/215 146/189/216 210/189/217 214/188/218
f 304/190/150 190/191/219 135/192/220 290/193/151
f 173/194/221 177/195/222 241/195/223 237/194/224
f 285/196/149 188/197/225 192/185/213 286/184/150
f 147/198/226 151/199/227 215/199/228 211/198/229
f 303/200/149 186/201/230 190/191/219 304/190/150
f 178/202/231 174/203/232 238/203/233 242/202/234
f 284/204/147 184/205/235 188/197/236 285/196/237
f 152/206/238 148/207/239 212/207/240 216/206/241
f 302/208/147 182/209/242 186/201/230 303/200/148
f 175/210/243 179/211/244 243/211/245 239/210/246
f 283/212/144 180/213/247 184/205/235 284/204/147
f 149/214/248 153/215/249 217/215/250 213/214/251
f 301/216/144 178/202/231 182/209/242 302/208/147
f 180/213/252 176/217/253 240/217/254 244/213/255
f 282/218/142 176/217/256 180/213/257 283/212/143
f 154/219/258 150/188/259 214/188/218 218/219/260
f 300/220/142 174/203/261 178/202/231 301/216/143
f 177/195/262 181/221/263 245/221/264 241/195/223
f 281/222/141 172/223/265 176/217/256 282/218/142
f 151/199/266 155/224/267 219/224/268 215/199/228
f 299/225/141 170/226/269 174/203/261 300/220/142
f 182/209/242 178/202/270 242/202/234 246/209/271
f 280/227/139 168/228/272 172/223/273 281/222/140
f 156/229/274 152/206/275 216/206/241 220/229/276
f 298/230/139 166/231/277 170/226/269 299/225/140
f 179/211/278 183/232/279 247/232/280 243/211/281
f 279/233/137 164/234/282 168/228/272 280/227/139
f 153/215/283 157/235/284 221/235/285 217/215/250
f 297/236/137 162/237/286 166/231/277 298/230/287
f 184/205/288 180/213/289 244/213/290 248/205/291
f 278/238/135 160/239/292 164/234/293 279/233/136
f 158/240/294 154/219/295 218/219/260 222/240/296
f 296/241/135 158/240/294 162/237/286 297/236/136
f 181/221/297 185/242/298 249/242/299 245/221/264
f 277/243/134 156/229/300 160/239/292 278/238/301
f 155/224/302 159/244/303 223/244/304 219/224/268
f 295/245/134 154/219/258 158/240/294 296/241/135
f 132/246/305 137/247/306 201/247/307 196/246/308
f 276/248/132 152/206/309 156/229/310 277/243/133
f 186/201/230 182/209/311 246/209/271 250/201/312
f 294/249/132 150/188/215 154/219/258 295/245/133
f 160/239/292 156/229/313 220/229/314 224/239/315
f 275/250/130 148/207/316 152/206/309 276/248/132
f 138/251/317 131/252/318 195/252/319 202/251/320
f 293/253/130 146/189/321 150/188/215 294/249/132
f 183/232/322 187/254/323 251/254/324 247/232/280
f 274/255/128 144/256/325 148/207/326 275/250/129
f 157/235/327 161/257/328 225/257/329 221/235/285
f 292/258/128 142/259/330 146/189/321 293/253/331
f 130/260/332 139/261/333 203/261/334 194/260/335
f 273/262/127 140/263/336 144/256/325 274/255/128
f 188/197/337 184/205/338 248/205/291 252/197/339
f 291/264/127 138/251/317 142/259/330 292/258/128
f 162/237/286 158/240/340 222/240/341 226/237/342
f 288/187/125 133/186/343 129/265/344 287/266/123
f 140/263/345 129/267/346 193/267/347 204/263/348
f 290/193/125 135/192/220 131/268/349 289/269/350
f 185/242/351 189/270/352 253/270/353 249/242/299
f 287/271/123 129/267/344 140/263/354 273/262/124
f 159/244/355 163/272/356 227/272/357 223/244/304
f 289/273/123 131/252/349 138/251/317 291/264/124
f 136/274/358 132/275/359 196/275/308 200/274/360
f 256/185/361 255/276/362 198/277/363 197/186/364
f 254/191/365 253/270/353 200/274/366 199/192/367
f 252/197/368 251/254/369 255/276/362 256/185/370
f 250/201/371 249/242/372 253/270/353 254/191/365
f 248/205/373 247/232/374 251/254/369 252/197/368
f 246/209/375 245/221/264 249/242/372 250/201/371
f 244/213/376 243/211/377 247/232/374 248/205/373
f 242/202/378 241/195/379 245/221/264 246/209/375
f 240/217/380 239/210/381 243/211/377 244/213/376
f 238/203/382 237/194/383 241/195/379 242/202/378
f 236/223/384 235/278/385 239/210/381 240/217/386
f 234/226/387 233/279/388 237/194/383 238/203/382
f 232/228/389 231/280/390 235/278/385 236/223/384
f 230/231/391 229/281/392 233/279/388 234/226/387
f 228/234/393 227/272/394 231/280/390 232/228/389
f 226/237/395 225/257/396 229/281/392 230/231/391
f 224/239/397 223/244/398 227/272/394 228/234/393
f 222/240/399 221/235/285 225/257/396 226/237/395
f 220/229/400 219/224/401 223/244/398 224/239/402
f 218/219/403 217/215/404 221/235/285 222/240/399
f 216/206/405 215/199/406 219/224/401 220/229/400
f 214/188/407 213/214/251 217/215/404 218/219/403
f 212/207/408 211/198/409 215/199/406 216/206/405
f 210/189/410 209/282/411 213/214/251 214/188/407
f 208/256/412 207/283/413 211/198/409 212/207/408
f 206/259/414 205/284/415 209/282/411 210/189/410
f 204/263/416 203/261/417 207/283/413 208/256/418
f 202/251/419 201/247/420 205/284/415 206/259/414
f 197/186/364 198/277/363 194/285/421 193/265/422
f 199/192/367 200/274/366 196/275/308 195/268/423
f 193/267/422 194/260/421 203/261/417 204/263/416
f 195/252/423 196/246/308 201/247/420 202/251/419
f 176/217/256 172/223/424 236/223/425 240/217/254
f 145/282/426 149/214/427 213/214/251 209/282/428
f 171/278/429 175/210/430 239/210/246 235/278/431
f 148/207/432 144/256/433 208/256/434 212/207/435
f 174/203/261 170/226/436 234/226/437 238/203/438
f 143/283/439 147/198/440 211/198/441 207/283/442
f 169/279/443 173/194/444 237/194/383 233/279/445
f 146/189/321 142/259/446 206/259/447 210/189/217
f 172/223/448 168/228/449 232/228/450 236/223/451
f 141/284/452 145/282/453 209/282/428 205/284/415
f 167/280/454 171/278/455 235/278/431 231/280/456
f 144/256/325 140/263/457 204/263/458 208/256/434
f 170/226/269 166/231/459 230/231/460 234/226/437
f 133/186/461 192/185/462 256/185/463 197/186/464
f 139/261/465 143/283/466 207/283/442 203/261/334
f 165/281/467 169/279/468 233/279/445 229/281/392
f 191/276/469 134/277/470 198/277/471 255/276/472
f 142/259/330 138/251/473 202/251/474 206/259/475
f 168/228/476 164/234/477 228/234/478 232/228/450
f 135/192/220 190/191/479 254/191/480 199/192/481
f 137/247/482 141/284/483 205/284/415 201/247/307
f 163/272/484 167/280/485 231/280/456 227/272/486
f 189/270/487 136/274/488 200/274/489 253/270/353
f 129/265/490 133/186/491 197/186/492 193/265/347
f 166/231/277 162/237/493 226/237/342 230/231/460
f 192/185/213 188/197/494 252/197/495 256/185/463
f 134/277/496 130/285/497 194/285/335 198/277/498
f 161/257/499 165/281/500 229/281/392 225/257/329
f 187/254/501 191/276/502 255/276/472 251/254/503
f 131/268/349 135/192/504 199/192/505 195/268/319
f 164/234/506 160/239/507 224/239/315 228/234/508
f 190/191/219 186/201/509 250/201/312 254/191/510
f 130/260/511 257/286/123 259/287/124 139/261/465
f 134/277/496 258/288/125 257/289/123 130/285/512
f 139/261/513 259/287/127 260/290/128 143/283/514
f 143/283/515 260/290/128 261/291/129 147/198/516
f 147/198/226 261/291/130 262/292/132 151/199/517
f 151/199/518 262/292/132 263/293/133 155/224/302
f 155/224/519 263/293/134 264/294/135 159/244/520
f 159/244/521 264/294/135 265/295/136 163/272/522
f 163/272/484 265/295/137 266/296/139 167/280/523
f 167/280/524 266/296/139 267/297/140 171/278/429
f 171/278/525 267/297/141 268/298/142 175/210/526
f 175/210/527 268/298/142 269/299/143 179/211/528
f 179/211/278 269/299/529 270/300/147 183/232/530
f 183/232/531 270/300/147 271/301/148 187/254/501
f 187/254/532 271/301/533 272/302/150 191/276/534
f 191/276/535 272/302/150 258/288/151 134/277/536
f 65/135/123 287/271/123 273/262/124 66/136/124
f 67/139/125 288/187/125 287/266/123 65/140/123
f 66/136/127 273/262/127 274/255/128 68/142/128
f 68/142/128 274/255/128 275/250/129 69/144/129
f 69/144/130 275/250/130 276/248/132 70/146/132
f 70/146/132 276/248/132 277/243/133 71/148/133
f 71/148/134 277/243/134 278/238/135 72/150/135
f 72/150/135 278/238/135 279/233/136 73/152/136
f 73/152/137 279/233/137 280/227/139 74/154/139
f 74/154/139 280/227/139 281/222/140 75/156/537
f 75/156/141 281/222/141 282/218/142 76/158/142
f 76/158/142 282/218/142 283/212/143 77/160/143
f 77/160/144 283/212/144 284/204/147 78/162/146
f 78/162/147 284/204/147 285/196/148 79/164/148
f 79/164/149 285/196/149 286/184/150 80/166/150
f 80/166/150 286/184/538 288/187/151 67/139/151
f 257/286/123 289/273/123 291/264/124 259/287/124
f 258/288/125 290/193/125 289/269/123 257/289/123
f 259/287/127 291/264/127 292/258/128 260/290/128
f 260/290/128 292/258/128 293/253/129 261/291/129
f 261/291/130 293/253/130 294/249/132 262/292/132
f 262/292/132 294/249/132 295/245/133 263/293/133
f 263/293/134 295/245/134 296/241/135 264/294/135
f 264/294/135 296/241/135 297/236/136 265/295/136
f 265/295/137 297/236/137 298/230/139 266/296/139
f 266/296/139 298/230/139 299/225/140 267/297/140
f 267/297/141 299/225/141 300/220/142 268/298/142
f 268/298/142 300/220/142 301/216/143 269/299/143
f 269/299/144 301/216/144 302/208/147 270/300/147
f 270/300/147 302/208/147 303/200/148 271/301/148
f 271/301/149 303/200/149 304/190/150 272/302/150
f 272/302/150 304/190/150 290/193/151 258/288/151
f 189/270/487 320/101/150 306/87/151 136/274/539
f 185/242/351 319/100/149 320/101/150 189/270/487
f 181/221/540 318/99/147 319/100/148 185/242/541
f 177/195/262 317/98/144 318/99/147 181/221/540
f 173/194/221 316/97/142 317/98/143 177/195/542
f 169/279/443 315/96/141 316/97/142 173/194/221
f 165/281/543 314/95/139 315/96/140 169/279/544
f 161/257/499 313/94/137 314/95/139 165/281/543
f 157/235/327 312/93/135 313/94/136 161/257/545
f 153/215/283 311/92/134 312/93/135 157/235/327
f 149/214/546 310/91/132 311/92/133 153/215/547
f 145/282/426 309/90/130 310/91/132 149/214/546
f 141/284/452 308/89/128 309/90/129 145/282/548
f 137/247/482 307/86/127 308/89/128 141/284/452
f 136/274/358 306/87/125 305/88/123 132/275/549
f 132/246/549 305/85/123 307/86/124 137/247/550
f 322/303/208 321/304/208 336/305/208 335/306/208 334/307/208 333/308/208 332/309/208 331/310/208 330/311/208 329/312/208 328/313/208 327/314/208 326/315/208 325/316/208 324/317/208 323/318/208
f 9/319/551 5/320/552 338/320/553 339/319/554
f 41/321/555 37/83/119 346/83/556 347/321/557
f 13/322/558 9/319/551 339/319/559 340/322/560
f 45/323/561 41/321/555 347/321/562 348/323/563
f 17/324/564 13/322/558 340/322/565 341/324/566
f 49/325/567 45/323/561 348/323/568 349/325/569
f 21/326/570 17/324/564 341/324/566 342/326/571
f 53/327/572 49/325/567 349/325/569 350/327/573
f 25/328/574 21/326/570 342/326/575 343/328/576
f 57/329/577 53/327/572 350/327/578 351/329/579
f 29/330/580 25/328/574 343/328/581 344/330/582
f 61/331/583 57/329/577 351/329/584 352/331/585
f 33/84/120 29/330/580 344/330/586 345/84/121
f 5/320/552 1/332/587 337/332/588 338/320/589
f 1/332/587 61/331/583 352/331/590 337/332/588
f 321/304/208 322/303/208 338/320/553 337/332/588
f 322/303/208 323/318/208 339/319/591 338/320/553
f 323/318/208 324/317/208 340/322/560 339/319/591
f 324/317/208 325/316/208 341/324/566 340/322/560
f 325/316/208 326/315/208 342/326/575 341/324/566
f 326/315/208 327/314/208 343/328/592 342/326/575
f 327/314/208 328/313/208 344/330/582 343/328/592
f 328/313/208 329/312/208 345/84/121 344/330/582
f 329/312/208 330/311/208 346/83/556 345/84/121
f 330/311/208 331/310/208 347/321/593 346/83/556
f 331/310/208 332/309/208 348/323/563 347/321/593
f 332/309/208 333/308/208 349/325/569 348/323/563
f 333/308/208 334/307/208 350/327/578 349/325/569
f 334/307/208 335/306/208 351/329/594 350/327/578
f 335/306/208 336/305/208 352/331/585 351/329/594
f 336/305/208 321/304/208 337/332/588 352/331/585
f 61/331/595 1/332/596 353/168/208 368/183/208
f 57/329/597 61/331/598 368/183/208 367/182/208
f 53/327/599 57/329/597 367/182/208 366/181/208
f 49/325/567 53/327/600 366/181/208 365/180/208
f 45/323/601 49/325/602 365/180/208 364/179/208
f 41/321/555 45/323/603 364/179/208 363/178/208
f 37/83/604 41/321/605 363/178/208 362/177/208
f 33/84/606 37/83/607 362/177/208 361/176/208
f 29/330/608 33/84/606 361/176/208 360/175/208
f 25/328/609 29/330/610 360/175/208 359/174/208
f 21/326/611 25/328/609 359/174/208 358/173/208
f 17/324/612 21/326/613 358/173/208 357/172/208
f 13/322/614 17/324/612 357/172/208 356/171/208
f 9/319/615 13/322/616 356/171/208 355/170/208
f 5/320/617 9/319/615 355/170/208 354/169/208
f 1/332/596 5/320/618 354/169/208 353/168/208
