# Blender 5.0.1
# www.blender.org
mtllib prodluzka.mtl
o Cube.035
v 21.801105 0.045578 5.911076
v 21.468935 0.045578 5.911076
v 21.801105 0.045578 6.251515
v 21.468935 0.045578 6.251515
v 21.801105 0.045578 6.591954
v 21.468935 0.045578 6.591954
v 21.468935 0.347948 5.911076
v 21.801105 0.347948 5.911076
v 21.468935 0.347948 6.251515
v 21.801105 0.347948 6.251515
v 21.468935 0.347948 6.591954
v 21.801105 0.347948 6.591954
v 21.382362 0.045578 6.923831
v 21.382362 0.054141 6.932394
v 21.373800 0.054141 6.923831
v 21.373800 0.339385 6.923831
v 21.382362 0.339385 6.932394
v 21.382362 0.347948 6.923831
v 21.373800 0.054141 5.579199
v 21.382362 0.054141 5.570637
v 21.382362 0.045578 5.579199
v 21.382362 0.347948 5.579199
v 21.382362 0.339385 5.570637
v 21.373800 0.339385 5.579199
v 21.882511 0.054141 6.923831
v 21.873949 0.054141 6.932394
v 21.873949 0.045578 6.923831
v 21.873949 0.347948 6.923831
v 21.873949 0.339385 6.932394
v 21.882511 0.339385 6.923831
v 21.873949 0.054141 5.570637
v 21.882511 0.054141 5.579199
v 21.873949 0.045578 5.579199
v 21.873949 0.347948 5.579199
v 21.882511 0.339385 5.579199
v 21.873949 0.339385 5.570637
v 21.382362 0.045578 5.911076
v 21.373800 0.054141 5.911076
v 21.382362 0.045578 6.251515
v 21.373800 0.054141 6.251515
v 21.373800 0.054141 6.591954
v 21.382362 0.045578 6.591954
v 21.382362 0.347948 6.591954
v 21.373800 0.339385 6.591954
v 21.382362 0.347948 6.251515
v 21.373800 0.339385 6.251515
v 21.373800 0.339385 5.911076
v 21.382362 0.347948 5.911076
v 21.873949 0.045578 6.591954
v 21.882511 0.054141 6.591954
v 21.873949 0.045578 6.251515
v 21.882511 0.054141 6.251515
v 21.882511 0.054141 5.911076
v 21.873949 0.045578 5.911076
v 21.873949 0.347948 5.911076
v 21.882511 0.339385 5.911076
v 21.873949 0.347948 6.251515
v 21.882511 0.339385 6.251515
v 21.882511 0.339385 6.591954
v 21.873949 0.347948 6.591954
v 21.801105 0.045578 5.579199
v 21.801105 0.054141 5.570637
v 21.468935 0.054141 5.570637
v 21.468935 0.045578 5.579199
v 21.518064 0.356511 5.619554
v 21.501806 0.347948 5.610273
v 21.509502 0.356511 5.628117
v 21.751978 0.356511 5.619554
v 21.760540 0.356511 5.628117
v 21.768236 0.347948 5.610273
v 21.468935 0.045578 6.923831
v 21.468935 0.054141 6.932394
v 21.801105 0.054141 6.932394
v 21.801105 0.045578 6.923831
v 21.749311 0.356511 6.880262
v 21.765572 0.347948 6.889544
v 21.757875 0.356511 6.871700
v 21.520731 0.356511 6.880262
v 21.512167 0.356511 6.871700
v 21.504471 0.347948 6.889544
v 21.518064 0.356511 5.862158
v 21.509502 0.356511 5.853596
v 21.501806 0.347948 5.871439
v 21.751978 0.356511 5.862158
v 21.768236 0.347948 5.871439
v 21.760540 0.356511 5.853596
v 21.517048 0.356511 6.203824
v 21.508486 0.356511 6.195261
v 21.500790 0.347948 6.213105
v 21.752995 0.356511 6.203824
v 21.769253 0.347948 6.213105
v 21.761557 0.356511 6.195261
v 21.505741 0.356511 6.557899
v 21.497179 0.356511 6.549335
v 21.489481 0.347948 6.567179
v 21.764301 0.356511 6.557899
v 21.780561 0.347948 6.567179
v 21.772863 0.356511 6.549335
v 21.468935 0.347948 5.579199
v 21.468935 0.339385 5.570637
v 21.801105 0.339385 5.570637
v 21.801105 0.347948 5.579199
v 21.517048 0.356511 5.958767
v 21.500790 0.347948 5.949486
v 21.508486 0.356511 5.967330
v 21.752995 0.356511 5.958767
v 21.761557 0.356511 5.967330
v 21.769253 0.347948 5.949486
v 21.505741 0.356511 6.285571
v 21.489481 0.347948 6.276290
v 21.497179 0.356511 6.294134
v 21.764301 0.356511 6.285571
v 21.772863 0.356511 6.294134
v 21.780561 0.347948 6.276290
v 21.520731 0.356511 6.644085
v 21.504471 0.347948 6.634805
v 21.512167 0.356511 6.652648
v 21.749311 0.356511 6.644085
v 21.757875 0.356511 6.652648
v 21.765572 0.347948 6.634805
v 21.801105 0.347948 6.923831
v 21.801105 0.339385 6.932394
v 21.468935 0.339385 6.932394
v 21.468935 0.347948 6.923831
v 21.518064 0.395813 5.619554
v 21.509502 0.395813 5.628117
v 21.518064 0.404375 5.628117
v 21.751978 0.395813 5.619554
v 21.751978 0.404375 5.628117
v 21.760540 0.395813 5.628117
v 21.518064 0.395813 5.862158
v 21.518064 0.404375 5.853596
v 21.509502 0.395813 5.853596
v 21.751978 0.395813 5.862158
v 21.760540 0.395813 5.853596
v 21.751978 0.404375 5.853596
v 21.517048 0.395813 5.958767
v 21.508486 0.395813 5.967330
v 21.517048 0.404375 5.967330
v 21.752995 0.395813 5.958767
v 21.752995 0.404375 5.967330
v 21.761557 0.395813 5.967330
v 21.517048 0.395813 6.203824
v 21.517048 0.404375 6.195261
v 21.508486 0.395813 6.195261
v 21.752995 0.395813 6.203824
v 21.761557 0.395813 6.195261
v 21.752995 0.404375 6.195261
v 21.505741 0.395813 6.285571
v 21.497179 0.395813 6.294134
v 21.505741 0.404375 6.294134
v 21.764301 0.395813 6.285571
v 21.764301 0.404375 6.294134
v 21.772863 0.395813 6.294134
v 21.505741 0.395813 6.557899
v 21.505741 0.404375 6.549335
v 21.497179 0.395813 6.549335
v 21.764301 0.395813 6.557899
v 21.772863 0.395813 6.549335
v 21.764301 0.404375 6.549335
v 21.749311 0.395813 6.880262
v 21.757875 0.395813 6.871700
v 21.749311 0.404375 6.871700
v 21.520731 0.395813 6.880262
v 21.520731 0.404375 6.871700
v 21.512167 0.395813 6.871700
v 21.520731 0.395813 6.644085
v 21.512167 0.395813 6.652648
v 21.520731 0.404375 6.652648
v 21.749311 0.395813 6.644085
v 21.749311 0.404375 6.652648
v 21.757875 0.395813 6.652648
v 21.508486 0.360342 6.195261
v 21.517048 0.360342 6.203824
v 21.508486 0.360342 5.967330
v 21.517048 0.360342 5.958767
v 21.752995 0.360342 5.958767
v 21.761557 0.360342 5.967330
v 21.752995 0.360342 6.203824
v 21.761557 0.360342 6.195261
v 21.509502 0.361007 5.853596
v 21.518064 0.361007 5.862158
v 21.509502 0.361007 5.628117
v 21.518064 0.361007 5.619554
v 21.751978 0.361007 5.619554
v 21.760540 0.361007 5.628117
v 21.751978 0.361007 5.862158
v 21.760540 0.361007 5.853596
v 21.772863 0.356511 6.294134
v 21.764301 0.356511 6.285571
v 21.772863 0.356511 6.549335
v 21.764301 0.356511 6.557899
v 21.497179 0.356511 6.549335
v 21.505741 0.356511 6.557899
v 21.497179 0.356511 6.294134
v 21.505741 0.356511 6.285571
v 21.520731 0.364094 6.644085
v 21.512167 0.364094 6.652648
v 21.749311 0.364094 6.644085
v 21.757875 0.364094 6.652648
v 21.757875 0.364094 6.871700
v 21.749311 0.364094 6.880262
v 21.512167 0.364094 6.871700
v 21.520731 0.364094 6.880262
vn -0.0000 -1.0000 -0.0000
vn -0.0886 -0.9958 0.0239
vn -0.0884 -0.0277 0.9957
vn -0.9993 -0.0288 0.0247
vn -0.9993 0.0288 0.0247
vn -0.0884 0.0277 0.9957
vn -0.0886 0.9958 0.0239
vn -0.9993 -0.0288 -0.0247
vn -0.0884 -0.0277 -0.9957
vn -0.0886 -0.9958 -0.0239
vn -0.0886 0.9958 -0.0239
vn -0.0884 0.0277 -0.9957
vn -0.9993 0.0288 -0.0247
vn 0.9993 -0.0288 0.0247
vn 0.1032 -0.0274 0.9943
vn 0.1034 -0.9944 0.0237
vn 0.1034 0.9944 0.0237
vn 0.1032 0.0274 0.9943
vn 0.9993 0.0288 0.0247
vn 0.1032 -0.0274 -0.9943
vn 0.9993 -0.0288 -0.0247
vn 0.1034 -0.9944 -0.0237
vn 0.1034 0.9944 -0.0237
vn 0.9993 0.0288 -0.0247
vn 0.1032 0.0274 -0.9943
vn -0.0185 0.5966 -0.8023
vn -0.0901 0.9916 -0.0925
vn -0.8479 0.5297 -0.0201
vn 0.0184 0.5967 -0.8023
vn 0.8479 0.5297 -0.0200
vn 0.0900 0.9916 -0.0925
vn 0.0221 0.5180 0.8551
vn 0.0827 0.9929 0.0854
vn 0.8907 0.4540 0.0238
vn -0.0221 0.5180 0.8551
vn -0.8907 0.4540 0.0238
vn -0.0827 0.9929 0.0854
vn -0.0184 0.5967 0.8023
vn -0.8479 0.5297 0.0200
vn -0.0813 0.9932 0.0835
vn 0.0185 0.5966 0.8023
vn 0.0813 0.9932 0.0835
vn 0.8479 0.5297 0.0201
vn -0.0174 0.6159 0.7876
vn -0.8358 0.5487 0.0190
vn -0.0834 0.9928 0.0855
vn 0.0174 0.6159 0.7876
vn 0.0834 0.9928 0.0855
vn 0.8358 0.5487 0.0190
vn -0.0102 0.7438 0.6683
vn -0.7319 0.6814 0.0113
vn -0.1233 0.9846 0.1241
vn 0.0103 0.7438 0.6683
vn 0.1233 0.9846 0.1241
vn 0.7319 0.6814 0.0113
vn -0.0174 0.6159 -0.7876
vn -0.0834 0.9928 -0.0855
vn -0.8358 0.5487 -0.0190
vn 0.0174 0.6159 -0.7876
vn 0.8358 0.5487 -0.0190
vn 0.0834 0.9928 -0.0855
vn -0.0103 0.7438 -0.6683
vn -0.1233 0.9846 -0.1241
vn -0.7319 0.6814 -0.0113
vn 0.0103 0.7438 -0.6683
vn 0.7319 0.6814 -0.0113
vn 0.1233 0.9846 -0.1241
vn -0.0221 0.5180 -0.8551
vn -0.0751 0.9942 -0.0776
vn -0.8907 0.4540 -0.0238
vn 0.0221 0.5180 -0.8551
vn 0.8907 0.4540 -0.0238
vn 0.0751 0.9942 -0.0776
vn -0.0313 0.1910 -0.9811
vn -0.9811 0.1908 -0.0324
vn -0.0346 0.9988 -0.0359
vn 0.0313 0.1910 -0.9811
vn 0.0346 0.9988 -0.0359
vn 0.9811 0.1909 -0.0324
vn -0.0313 0.1910 0.9811
vn -0.0346 0.9988 0.0359
vn -0.9811 0.1909 0.0324
vn 0.0313 0.1910 0.9811
vn 0.9811 0.1908 0.0324
vn 0.0346 0.9988 0.0359
vn -0.0311 0.1882 -0.9816
vn -0.9816 0.1881 -0.0321
vn -0.0344 0.9988 -0.0355
vn 0.0311 0.1882 -0.9816
vn 0.0344 0.9988 -0.0355
vn 0.9816 0.1881 -0.0321
vn -0.0311 0.1882 0.9816
vn -0.0344 0.9988 0.0355
vn -0.9816 0.1880 0.0322
vn 0.0311 0.1882 0.9816
vn 0.9816 0.1881 0.0321
vn 0.0344 0.9988 0.0355
vn -0.0288 0.1737 -0.9844
vn -0.9844 0.1737 -0.0292
vn -0.0315 0.9990 -0.0319
vn 0.0288 0.1737 -0.9844
vn 0.0315 0.9990 -0.0319
vn 0.9844 0.1737 -0.0291
vn -0.0288 0.1737 0.9844
vn -0.0315 0.9990 0.0319
vn -0.9844 0.1737 0.0291
vn 0.0288 0.1737 0.9844
vn 0.9844 0.1737 0.0292
vn 0.0315 0.9990 0.0319
vn 0.0316 0.2050 0.9783
vn 0.9782 0.2048 0.0330
vn 0.0354 0.9987 0.0369
vn -0.0316 0.2050 0.9783
vn -0.0354 0.9987 0.0369
vn -0.9782 0.2049 0.0330
vn -0.0316 0.2050 -0.9783
vn -0.9782 0.2049 -0.0330
vn -0.0354 0.9987 -0.0369
vn 0.0316 0.2050 -0.9783
vn 0.0354 0.9987 -0.0369
vn 0.9782 0.2049 -0.0330
vn -0.0896 -0.9960 -0.0000
vn -0.0886 -0.9958 0.0240
vn -0.9993 -0.0287 0.0248
vn -0.9996 -0.0291 -0.0000
vn -0.0884 -0.0278 0.9957
vn -0.0884 0.0278 0.9957
vn -0.9993 0.0287 0.0248
vn -0.0896 0.9960 -0.0000
vn -0.0886 0.9958 -0.0240
vn -0.9993 0.0287 -0.0248
vn -0.9996 0.0291 -0.0000
vn -0.0884 0.0278 -0.9957
vn -0.0884 -0.0278 -0.9957
vn -0.9993 -0.0287 -0.0248
vn -0.0000 -0.9997 -0.0251
vn -0.0000 -0.0291 -0.9996
vn -0.0000 0.9973 -0.0740
vn 0.1032 0.0275 -0.9943
vn -0.0000 0.0291 -0.9996
vn 0.9993 0.0287 -0.0248
vn 0.9993 -0.0287 -0.0248
vn 0.1046 -0.9945 -0.0000
vn 0.9996 -0.0291 -0.0000
vn 0.1046 0.9945 -0.0000
vn 0.9993 0.0287 0.0248
vn 0.9996 0.0291 -0.0000
vn 0.9993 -0.0287 0.0248
vn -0.0000 -0.9997 0.0251
vn 0.1032 -0.0275 0.9943
vn -0.0000 -0.0291 0.9996
vn -0.0000 0.9977 0.0676
vn -0.0000 0.0291 0.9996
vn -0.0886 -0.9958 -0.0240
vn -0.0886 0.9958 0.0240
vn 0.1032 -0.0275 -0.9943
vn -0.0000 0.9976 -0.0696
vn -0.0885 0.0277 -0.9957
vn -0.0885 -0.0277 0.9957
vn -0.0000 0.9974 0.0717
vn 0.1032 0.0275 0.9943
vn -0.0184 0.5967 -0.8023
vn -0.0900 0.9916 -0.0925
vn -0.0812 0.9932 0.0834
vn 0.0184 0.5967 0.8023
vn 0.8479 0.5298 -0.0201
vn 0.8479 0.5298 0.0201
vn 0.0812 0.9932 0.0835
vn 0.0900 0.9916 -0.0924
vn -0.0812 0.9932 0.0835
vn -0.8479 0.5298 0.0201
vn -0.8479 0.5298 -0.0201
vn -0.0174 0.6160 -0.7876
vn 0.0175 0.6160 -0.7876
vn 0.0833 0.9929 -0.0855
vn -0.0833 0.9929 0.0855
vn 0.0174 0.6160 0.7876
vn -0.0175 0.6160 0.7876
vn 0.8357 0.5488 -0.0190
vn 0.8357 0.5488 0.0190
vn 0.0833 0.9929 0.0854
vn 0.0833 0.9928 -0.0856
vn -0.0833 0.9929 -0.0854
vn -0.0833 0.9928 0.0856
vn -0.8357 0.5488 0.0190
vn -0.8357 0.5488 -0.0190
vn 0.1233 0.9846 -0.1240
vn -0.1232 0.9846 -0.1240
vn -0.1233 0.9846 0.1240
vn 0.1232 0.9846 0.1240
vn -0.0103 0.7438 0.6683
vn 0.7318 0.6814 -0.0113
vn 0.7319 0.6813 0.0113
vn 0.1232 0.9846 0.1241
vn 0.1232 0.9846 -0.1241
vn -0.1232 0.9846 -0.1241
vn -0.1232 0.9846 0.1241
vn -0.7318 0.6814 0.0113
vn -0.7318 0.6814 -0.0113
vn 0.0221 0.5181 0.8551
vn -0.0221 0.5181 0.8551
vn -0.0221 0.5181 -0.8551
vn 0.0221 0.5181 -0.8551
vn 0.0751 0.9942 -0.0775
vn -0.0751 0.9942 -0.0775
vn 0.8906 0.4541 -0.0238
vn 0.8906 0.4541 0.0239
vn 0.0826 0.9929 0.0854
vn -0.0826 0.9929 0.0854
vn -0.8906 0.4541 0.0238
vn -0.8906 0.4541 -0.0239
vn -0.0347 0.9988 -0.0359
vn 0.0347 0.9988 -0.0359
vn 0.0313 0.1909 -0.9811
vn -0.0313 0.1909 -0.9811
vn -0.0313 0.1909 0.9811
vn 0.0313 0.1909 0.9811
vn 0.0347 0.9988 0.0359
vn -0.0347 0.9988 0.0359
vn 0.9811 0.1908 0.0325
vn 0.9811 0.1908 -0.0325
vn -0.9811 0.1908 -0.0325
vn -0.9811 0.1908 0.0325
vn 0.0312 0.1882 -0.9816
vn -0.0312 0.1882 -0.9816
vn -0.0312 0.1882 0.9816
vn 0.0312 0.1882 0.9816
vn 0.0343 0.9988 -0.0355
vn 0.0343 0.9988 0.0355
vn 0.9816 0.1881 0.0322
vn 0.9816 0.1881 -0.0322
vn -0.9816 0.1881 -0.0322
vn -0.9816 0.1881 0.0322
vn -0.0343 0.9988 0.0355
vn -0.0343 0.9988 -0.0355
vn 0.0316 0.9990 -0.0319
vn 0.0288 0.1738 -0.9844
vn -0.0288 0.1738 -0.9844
vn -0.0288 0.1738 0.9844
vn 0.0288 0.1738 0.9844
vn -0.0316 0.9990 0.0319
vn 0.0315 0.9990 0.0320
vn 0.9844 0.1737 -0.0292
vn -0.9844 0.1737 0.0292
vn -0.0315 0.9990 -0.0320
vn -0.0317 0.2050 0.9783
vn 0.0317 0.2050 0.9783
vn 0.0317 0.2050 -0.9783
vn -0.0317 0.2050 -0.9783
vn 0.9782 0.2048 -0.0330
vn -0.9782 0.2048 -0.0330
vn -0.9782 0.2048 0.0330
vn -0.9993 -0.0000 -0.0376
vn -0.0317 0.2050 -0.9782
vn -0.0360 -0.0000 -0.9994
vn 0.9993 -0.0000 -0.0376
vn 0.8907 0.4541 -0.0238
vn 0.0220 0.5180 -0.8551
vn 0.0360 -0.0000 -0.9994
vn -0.0353 -0.0000 0.9994
vn -0.9993 -0.0000 0.0365
vn -0.0352 -0.0000 -0.9994
vn -0.8479 0.5297 -0.0200
vn -0.9993 -0.0000 -0.0365
vn 0.0320 -0.0000 -0.9995
vn 0.0287 0.1737 -0.9844
vn 0.9995 -0.0000 -0.0324
vn 0.0102 0.7438 0.6683
vn -0.0000 1.0000 -0.0000
vn 0.9995 -0.0000 0.0325
vn -0.0350 -0.0000 0.9994
vn -0.0311 0.1881 0.9817
vn -0.9993 -0.0000 0.0362
vn -0.0350 -0.0000 -0.9994
vn -0.0175 0.6159 -0.7876
vn -0.9993 -0.0000 -0.0362
vn 0.0360 -0.0000 0.9994
vn 0.0221 0.5181 0.8550
vn 0.8907 0.4541 0.0238
vn 0.9993 -0.0000 0.0376
vn -0.0320 -0.0000 0.9995
vn -0.0287 0.1737 0.9844
vn -0.9995 -0.0000 0.0324
vn -0.0102 0.7438 -0.6683
vn -0.9995 -0.0000 -0.0325
vn -0.0360 -0.0000 0.9994
vn -0.0316 0.2049 0.9783
vn -0.9993 -0.0000 0.0376
vn 0.9993 -0.0000 -0.0365
vn 0.0352 -0.0000 -0.9994
vn 0.9993 -0.0000 -0.0362
vn 0.8357 0.5488 -0.0191
vn 0.0174 0.6159 -0.7877
vn 0.0350 -0.0000 -0.9994
vn 0.9993 -0.0000 0.0365
vn 0.0353 -0.0000 0.9994
vn 0.9993 -0.0000 0.0362
vn 0.9816 0.1880 0.0321
vn 0.0350 -0.0000 0.9994
vn -0.0174 0.6159 0.7877
vn -0.8357 0.5488 0.0191
vn -0.9816 0.1880 -0.0321
vn 0.0311 0.1881 -0.9817
vn 0.0175 0.6159 0.7876
vn 0.8479 0.5297 0.0200
vn 0.0321 -0.0000 -0.9995
vn 0.0320 -0.0000 0.9995
vn 0.9995 -0.0000 0.0324
vn 0.9844 0.1737 0.0291
vn -0.0321 -0.0000 0.9995
vn -0.0320 -0.0000 -0.9995
vn -0.9995 -0.0000 -0.0324
vn -0.9844 0.1737 -0.0291
vn -0.8907 0.4541 -0.0238
vn -0.0221 0.5181 -0.8550
vn 0.0316 0.2049 -0.9783
vn 0.0316 0.2050 0.9782
vn -0.0220 0.5180 0.8551
vn -0.8907 0.4541 0.0238
vn -0.9993 -0.0288 0.0248
vn -0.9993 0.0288 0.0248
vn -0.9993 0.0288 -0.0248
vn -0.9993 -0.0288 -0.0248
vn 0.9993 0.0288 0.0248
vn 0.9993 -0.0288 0.0248
vn 0.9993 -0.0288 -0.0248
vn 0.9993 0.0288 -0.0248
vn 0.0185 0.5967 -0.8023
vn -0.0185 0.5967 -0.8023
vn -0.0353 -0.0000 -0.9994
vn 0.0353 -0.0000 -0.9994
vn -0.8479 0.5298 -0.0200
vn -0.8479 0.5298 0.0200
vn -0.9993 -0.0000 0.0366
vn -0.9993 -0.0000 -0.0366
vn 0.8479 0.5298 0.0200
vn 0.8479 0.5298 -0.0200
vn 0.9993 -0.0000 -0.0366
vn 0.9993 -0.0000 0.0366
vn 0.0361 -0.0000 0.9993
vn -0.0361 -0.0000 0.9993
vn 0.8907 0.4540 0.0239
vn 0.8907 0.4540 -0.0239
vn -0.8907 0.4540 -0.0239
vn -0.8907 0.4540 0.0239
vn -0.0185 0.5967 0.8023
vn 0.0185 0.5967 0.8023
vn -0.0175 0.6159 0.7876
vn 0.0321 -0.0000 0.9995
vn -0.1232 0.9846 0.1240
vn 0.1232 0.9846 -0.1240
vn 0.0175 0.6159 -0.7876
vn -0.0321 -0.0000 -0.9995
vn -0.0361 -0.0000 -0.9993
vn 0.0361 -0.0000 -0.9993
vn 0.0344 0.9988 -0.0356
vn -0.0344 0.9988 -0.0356
vn -0.0344 0.9988 0.0356
vn 0.0344 0.9988 0.0356
vn -0.9816 0.1880 -0.0322
vn 0.9816 0.1880 -0.0322
vn 0.9816 0.1880 0.0322
vn 0.0317 0.2049 0.9783
vn -0.0317 0.2049 0.9783
vn -0.0317 0.2049 -0.9783
vn 0.0317 0.2049 -0.9783
vt 0.171753 0.625000
vt 0.334994 0.625000
vt 0.334994 0.687500
vt 0.171753 0.687500
vt 0.171753 0.562500
vt 0.334994 0.562500
vt 0.129208 0.748428
vt 0.129208 0.750000
vt 0.125000 0.748428
vt 0.617920 0.001572
vt 0.617920 0.000000
vt 0.625000 0.001572
vt 0.382080 0.248428
vt 0.382080 0.252805
vt 0.375000 0.248428
vt 0.625000 0.252281
vt 0.617920 0.254208
vt 0.617920 0.248821
vt 0.382080 0.748821
vt 0.379258 0.753156
vt 0.371844 0.749873
vt 0.627104 0.751318
vt 0.617920 0.754208
vt 0.617920 0.748821
vt 0.379258 0.496844
vt 0.382080 0.501179
vt 0.371844 0.500127
vt 0.627104 0.500127
vt 0.617920 0.501572
vt 0.617920 0.496844
vt 0.804103 0.508981
vt 0.812093 0.507277
vt 0.808311 0.510553
vt 0.689150 0.508981
vt 0.684941 0.510553
vt 0.681159 0.507277
vt 0.690459 0.740429
vt 0.682469 0.742133
vt 0.686251 0.738857
vt 0.802793 0.740430
vt 0.807001 0.738857
vt 0.810784 0.742133
vt 0.804103 0.553519
vt 0.808311 0.551947
vt 0.812093 0.555223
vt 0.689150 0.553519
vt 0.681159 0.555223
vt 0.684942 0.551947
vt 0.804603 0.616245
vt 0.808811 0.614673
vt 0.812593 0.617948
vt 0.688650 0.616245
vt 0.680659 0.617948
vt 0.684442 0.614673
vt 0.810160 0.681248
vt 0.814368 0.679676
vt 0.818150 0.682952
vt 0.683093 0.681248
vt 0.675103 0.682952
vt 0.678885 0.679676
vt 0.804603 0.571255
vt 0.812593 0.569552
vt 0.808811 0.572827
vt 0.688650 0.571255
vt 0.684442 0.572827
vt 0.680659 0.569552
vt 0.810159 0.631252
vt 0.818150 0.629548
vt 0.814367 0.632824
vt 0.683093 0.631252
vt 0.678885 0.632824
vt 0.675102 0.629548
vt 0.802793 0.697071
vt 0.810784 0.695367
vt 0.807001 0.698643
vt 0.690459 0.697071
vt 0.686251 0.698642
vt 0.682469 0.695367
vt 0.804103 0.508981
vt 0.808311 0.510553
vt 0.804103 0.510553
vt 0.689150 0.508981
vt 0.689150 0.510553
vt 0.684942 0.510553
vt 0.804103 0.553519
vt 0.804103 0.551947
vt 0.808311 0.551947
vt 0.689150 0.553519
vt 0.684942 0.551947
vt 0.689150 0.551947
vt 0.808811 0.572827
vt 0.804603 0.572827
vt 0.688650 0.571256
vt 0.688650 0.572827
vt 0.684442 0.572827
vt 0.804603 0.616245
vt 0.804603 0.614673
vt 0.688650 0.616245
vt 0.684442 0.614673
vt 0.688650 0.614673
vt 0.814368 0.632824
vt 0.810160 0.632824
vt 0.683093 0.631252
vt 0.683093 0.632824
vt 0.678885 0.632824
vt 0.810160 0.681248
vt 0.810159 0.679676
vt 0.814367 0.679676
vt 0.683093 0.681248
vt 0.683093 0.679676
vt 0.690459 0.740429
vt 0.690459 0.738857
vt 0.802793 0.740430
vt 0.802793 0.738857
vt 0.807001 0.738858
vt 0.807001 0.698643
vt 0.802793 0.698643
vt 0.690459 0.697070
vt 0.690459 0.698642
vt 0.686251 0.698642
vt 0.129208 0.687500
vt 0.125000 0.687500
vt 0.382080 0.000000
vt 0.382080 0.001572
vt 0.625000 0.187500
vt 0.617920 0.187500
vt 0.171753 0.501572
vt 0.129208 0.501572
vt 0.129208 0.500000
vt 0.171753 0.500000
vt 0.625000 0.459994
vt 0.617920 0.459994
vt 0.370792 0.562500
vt 0.382080 0.562500
vt 0.629208 0.687500
vt 0.617920 0.687500
vt 0.334994 0.748428
vt 0.334994 0.750000
vt 0.625000 0.953247
vt 0.625000 0.995792
vt 0.617920 0.995792
vt 0.617920 0.953247
vt 0.129208 0.562500
vt 0.125000 0.562500
vt 0.125000 0.501572
vt 0.129208 0.625000
vt 0.125000 0.625000
vt 0.625000 0.062500
vt 0.617920 0.062500
vt 0.625000 0.125000
vt 0.617920 0.125000
vt 0.370792 0.687500
vt 0.382080 0.687500
vt 0.370792 0.625000
vt 0.382080 0.625000
vt 0.629208 0.562500
vt 0.617920 0.562500
vt 0.629208 0.625000
vt 0.617920 0.625000
vt 0.334994 0.501572
vt 0.334994 0.500000
vt 0.625000 0.296753
vt 0.617920 0.296753
vt 0.171753 0.748428
vt 0.171753 0.750000
vt 0.625000 0.790005
vt 0.617920 0.790005
vt 0.807001 0.698643
vt 0.802793 0.697071
vt 0.686251 0.698642
vt 0.804103 0.553519
vt 0.808311 0.551947
vt 0.808311 0.510553
vt 0.804603 0.616245
vt 0.808811 0.614673
vt 0.804603 0.571255
vt 0.802793 0.740429
vt 0.807001 0.738857
vt 0.684942 0.510553
vt 0.684942 0.551947
vt 0.382080 0.062500
vt 0.382080 0.953247
vt 0.382080 0.995792
vt 0.828247 0.687500
vt 0.870792 0.687500
vt 0.870792 0.748428
vt 0.828247 0.748428
vt 0.382080 0.296753
vt 0.382080 0.187500
vt 0.828247 0.501572
vt 0.870792 0.501572
vt 0.870792 0.562500
vt 0.828247 0.562500
vt 0.382080 0.790006
vt 0.665006 0.687500
vt 0.665006 0.748428
vt 0.382080 0.459994
vt 0.665006 0.501572
vt 0.665006 0.562500
vt 0.382080 0.125000
vt 0.828247 0.625000
vt 0.870792 0.625000
vt 0.665006 0.625000
s 0
f 4/1/1 3/2/1 5/3/1 6/4/1
f 2/5/1 1/6/1 3/2/1 4/1/1
f 13/7/2 14/8/3 15/9/4
f 16/10/5 17/11/6 18/12/7
f 19/13/8 20/14/9 21/15/10
f 22/16/11 23/17/12 24/18/13
f 25/19/14 26/20/15 27/21/16
f 28/22/17 29/23/18 30/24/19
f 31/25/20 32/26/21 33/27/22
f 34/28/23 35/29/24 36/30/25
f 65/31/26 66/32/27 67/33/28
f 68/34/29 69/35/30 70/36/31
f 75/37/32 76/38/33 77/39/34
f 78/40/35 79/41/36 80/42/37
f 81/43/38 82/44/39 83/45/40
f 84/46/41 85/47/42 86/48/43
f 87/49/44 88/50/45 89/51/46
f 90/52/47 91/53/48 92/54/49
f 93/55/50 94/56/51 95/57/52
f 96/58/53 97/59/54 98/60/55
f 103/61/56 104/62/57 105/63/58
f 106/64/59 107/65/60 108/66/61
f 109/67/62 110/68/63 111/69/64
f 112/70/65 113/71/66 114/72/67
f 115/73/68 116/74/69 117/75/70
f 118/76/71 119/77/72 120/78/73
f 125/79/74 126/80/75 127/81/76
f 128/82/77 129/83/78 130/84/79
f 131/85/80 132/86/81 133/87/82
f 134/88/83 135/89/84 136/90/85
f 137/61/86 138/91/87 139/92/88
f 140/93/89 141/94/90 142/95/91
f 143/96/92 144/97/93 145/50/94
f 146/98/95 147/99/96 148/100/97
f 149/67/98 150/101/99 151/102/100
f 152/103/101 153/104/102 154/105/103
f 155/106/104 156/107/105 157/108/106
f 158/109/107 159/60/108 160/110/109
f 161/111/110 162/39/111 163/112/112
f 164/113/113 165/114/114 166/115/115
f 167/73/116 168/116/117 169/117/118
f 170/118/119 171/119/120 172/120/121
f 42/121/122 13/7/123 15/9/124 41/122/125
f 14/123/126 17/11/127 16/10/128 15/124/124
f 48/125/129 22/16/130 24/18/131 47/126/132
f 23/17/133 20/14/134 19/13/135 24/18/131
f 64/127/136 21/128/10 20/129/9 63/130/137
f 102/131/138 34/28/23 36/30/139 101/132/140
f 35/29/141 32/26/142 31/25/20 36/30/25
f 54/133/143 33/27/22 32/26/142 53/134/144
f 60/135/145 28/22/17 30/24/146 59/136/147
f 29/23/18 26/20/15 25/19/148 30/24/146
f 74/137/149 27/21/16 26/20/150 73/138/151
f 124/139/152 18/140/7 17/141/6 123/142/153
f 21/128/154 37/143/122 38/144/125 19/145/135
f 37/143/122 39/146/122 40/147/125 38/144/125
f 39/146/122 42/121/122 41/122/125 40/147/125
f 18/12/155 43/148/129 44/149/132 16/10/128
f 43/148/129 45/150/129 46/151/132 44/149/132
f 45/150/129 48/125/129 47/126/132 46/151/132
f 27/21/16 49/152/143 50/153/144 25/19/148
f 49/152/143 51/154/143 52/155/144 50/153/144
f 51/154/143 54/133/143 53/134/144 52/155/144
f 34/28/23 55/156/145 56/157/147 35/29/141
f 55/156/145 57/158/145 58/159/147 56/157/147
f 57/158/145 60/135/145 59/136/147 58/159/147
f 33/27/22 61/160/136 62/161/137 31/25/156
f 61/160/136 64/127/136 63/130/137 62/161/137
f 22/16/11 99/162/157 100/163/140 23/17/158
f 99/162/157 102/131/138 101/132/140 100/163/140
f 13/7/2 71/164/149 72/165/151 14/8/159
f 71/164/149 74/137/149 73/138/151 72/165/151
f 28/22/17 121/166/160 122/167/153 29/23/161
f 121/166/160 124/139/152 123/142/153 122/167/153
f 65/31/162 68/34/29 70/36/31 66/32/163
f 83/45/164 85/47/42 84/46/165 81/43/38
f 69/35/166 86/48/167 85/47/168 70/36/169
f 66/32/163 83/45/170 82/44/171 67/33/172
f 103/61/173 106/64/174 108/66/175 104/62/57
f 89/51/176 91/53/48 90/52/177 87/49/178
f 107/65/179 92/54/180 91/53/181 108/66/182
f 104/62/183 89/51/184 88/50/185 105/63/186
f 109/67/62 112/70/65 114/72/187 110/68/188
f 95/57/189 97/59/190 96/58/53 93/55/191
f 113/71/192 98/60/193 97/59/194 114/72/195
f 110/68/196 95/57/197 94/56/198 111/69/199
f 75/37/200 78/40/201 80/42/37 76/38/33
f 115/73/202 118/76/203 120/78/204 116/74/205
f 119/77/206 77/39/207 76/38/208 120/78/73
f 116/74/205 80/42/209 79/41/210 117/75/211
f 127/81/212 129/83/213 128/82/214 125/79/215
f 131/85/216 134/88/217 136/90/218 132/86/219
f 129/83/78 136/90/85 135/89/220 130/84/221
f 126/80/222 133/87/223 132/86/81 127/81/76
f 139/92/88 141/94/90 140/93/224 137/61/225
f 143/96/226 146/98/227 148/100/97 144/97/93
f 141/94/228 148/100/229 147/99/230 142/95/231
f 138/91/232 145/50/233 144/97/234 139/92/235
f 151/102/100 153/104/236 152/103/237 149/67/238
f 155/106/239 158/109/240 160/110/109 156/107/241
f 153/104/102 160/110/242 159/60/108 154/105/243
f 150/101/99 157/108/244 156/107/105 151/102/245
f 163/112/112 165/114/114 164/113/246 161/111/247
f 169/117/118 171/119/120 170/118/248 167/73/249
f 171/119/120 163/112/112 162/39/111 172/120/250
f 168/116/251 166/115/252 165/114/114 169/117/118
f 198/168/253 168/116/251 167/73/254 197/169/255
f 200/170/256 119/77/257 118/76/258 199/118/259
f 182/171/260 131/85/216 133/87/82 181/172/261
f 184/31/262 65/31/162 67/33/263 183/173/264
f 190/70/265 152/103/266 154/105/103 189/71/267
f 192/58/1 96/58/268 98/60/269 191/60/270
f 174/174/271 143/96/272 145/50/233 173/175/273
f 176/176/274 103/61/275 105/63/58 175/63/276
f 202/37/277 75/37/278 77/39/279 201/39/280
f 194/55/281 155/106/282 157/108/106 193/56/283
f 196/67/1 109/67/284 111/69/269 195/69/285
f 204/177/286 164/113/287 166/115/115 203/178/288
f 186/179/289 69/35/166 68/34/29 185/82/290
f 178/65/291 107/65/292 106/64/293 177/64/294
f 188/180/295 135/89/84 134/88/83 187/88/296
f 180/54/297 147/99/298 146/98/95 179/52/299
f 87/49/300 174/174/271 173/175/273 88/50/301
f 137/61/86 176/176/274 175/63/276 138/91/302
f 142/95/231 178/65/291 177/64/294 140/93/303
f 92/54/49 180/54/297 179/52/299 90/52/304
f 81/43/38 182/171/260 181/172/261 82/44/171
f 125/79/74 184/31/262 183/173/264 126/80/75
f 130/84/79 186/179/289 185/82/290 128/82/214
f 86/48/305 188/180/295 187/88/296 84/46/165
f 112/70/269 190/70/306 189/71/1 113/71/66
f 158/109/240 192/58/307 191/60/308 159/60/309
f 93/55/269 194/55/310 193/56/1 94/56/51
f 149/67/238 196/67/311 195/69/312 150/101/313
f 117/75/314 198/168/253 197/169/255 115/73/315
f 172/120/121 200/170/256 199/118/259 170/118/316
f 161/111/317 202/37/277 201/39/280 162/39/111
f 78/40/318 204/177/286 203/178/288 79/41/319
f 42/121/122 6/4/1 71/164/149 13/7/2
f 15/124/320 16/10/321 44/149/132 41/181/125
f 72/182/151 123/142/153 17/141/127 14/183/3
f 11/184/269 43/185/129 18/186/7 124/187/152
f 20/14/134 23/17/12 100/163/140 63/188/137
f 21/128/10 64/127/136 2/5/1 37/143/122
f 38/189/125 47/126/132 24/18/322 19/13/323
f 99/190/157 22/191/11 48/192/129 7/193/269
f 26/20/150 29/23/161 122/167/153 73/194/151
f 5/3/1 49/152/143 27/21/16 74/137/149
f 50/153/144 59/136/147 30/24/324 25/19/325
f 60/135/145 12/195/269 121/196/160 28/22/17
f 32/26/326 35/29/327 56/157/147 53/134/144
f 61/160/136 33/27/22 54/133/143 1/6/1
f 62/197/137 101/132/140 36/30/139 31/25/156
f 34/28/23 102/198/138 8/199/269 55/156/145
f 40/200/125 46/151/132 47/126/132 38/189/125
f 37/143/122 2/5/1 4/1/1 39/146/122
f 41/181/125 44/149/132 46/151/132 40/200/125
f 39/146/122 4/1/1 6/4/1 42/121/122
f 9/201/269 45/202/129 43/185/129 11/184/269
f 7/193/269 48/192/129 45/202/129 9/201/269
f 52/155/144 58/159/147 59/136/147 50/153/144
f 3/2/1 51/154/143 49/152/143 5/3/1
f 1/6/1 54/133/143 51/154/143 3/2/1
f 53/134/144 56/157/147 58/159/147 52/155/144
f 55/156/145 8/199/269 10/203/269 57/158/145
f 57/158/145 10/203/269 12/195/269 60/135/145
f 63/188/137 100/163/140 101/132/140 62/197/137
f 64/127/136 61/160/136 1/6/1 2/5/1
f 68/34/328 65/31/329 184/31/330 185/82/331
f 66/32/163 70/36/31 102/198/138 99/190/157
f 67/33/332 82/44/333 181/172/334 183/173/335
f 83/45/170 66/32/163 99/190/157 7/193/269
f 70/36/31 85/47/168 8/199/269 102/198/138
f 86/48/336 69/35/337 186/179/338 188/180/339
f 73/194/151 122/167/153 123/142/153 72/182/151
f 6/4/1 5/3/1 74/137/149 71/164/149
f 78/40/35 75/37/32 202/37/340 204/177/341
f 76/38/33 80/42/37 124/187/152 121/196/160
f 77/39/342 119/77/343 200/170/256 201/39/280
f 120/78/204 76/38/33 121/196/160 12/195/269
f 80/42/37 116/74/69 11/184/269 124/187/152
f 117/75/344 79/41/345 203/178/288 198/168/253
f 81/43/346 84/46/347 187/88/296 182/171/260
f 85/47/168 83/45/170 7/193/269 8/199/269
f 87/49/348 90/52/304 179/52/299 174/174/271
f 89/51/46 104/62/57 7/193/269 9/201/269
f 91/53/48 89/51/46 9/201/269 10/203/269
f 105/63/186 88/50/185 173/175/273 175/63/276
f 92/54/180 107/65/179 178/65/291 180/54/297
f 108/66/61 91/53/48 10/203/269 8/199/269
f 93/55/191 96/58/269 192/58/349 194/55/1
f 95/57/350 110/68/188 9/201/269 11/184/269
f 97/59/190 95/57/350 11/184/269 12/195/269
f 111/69/64 94/56/269 193/56/283 195/69/1
f 98/60/55 113/71/269 189/71/267 191/60/1
f 114/72/351 97/59/190 12/195/269 10/203/269
f 106/64/352 103/61/275 176/176/274 177/64/294
f 104/62/57 108/66/61 8/199/269 7/193/269
f 112/70/65 109/67/269 196/67/353 190/70/1
f 110/68/188 114/72/351 10/203/269 9/201/269
f 118/76/71 115/73/68 197/169/354 199/118/355
f 116/74/69 120/78/73 12/195/269 11/184/269
f 185/82/331 184/31/330 125/79/215 128/82/214
f 129/83/78 127/81/76 132/86/81 136/90/85
f 183/173/335 181/172/334 133/87/223 126/80/222
f 188/180/339 186/179/338 130/84/221 135/89/220
f 182/171/260 187/88/296 134/88/217 131/85/216
f 177/64/294 176/176/274 137/61/86 140/93/89
f 141/94/356 139/92/357 144/97/358 148/100/359
f 175/63/276 173/175/273 145/50/94 138/91/360
f 180/54/297 178/65/291 142/95/361 147/99/362
f 174/174/271 179/52/299 146/98/95 143/96/92
f 190/70/265 196/67/311 149/67/98 152/103/101
f 153/104/102 151/102/100 156/107/105 160/110/109
f 195/69/312 193/56/283 157/108/244 150/101/99
f 191/60/308 189/71/267 154/105/243 159/60/108
f 194/55/281 192/58/307 158/109/107 155/106/104
f 204/177/341 202/37/340 161/111/363 164/113/364
f 171/119/120 169/117/118 165/114/114 163/112/112
f 201/39/280 200/170/256 172/120/250 162/39/111
f 198/168/253 203/178/288 166/115/252 168/116/251
f 199/118/355 197/169/354 167/73/365 170/118/366
