# Blender 5.0.1
# www.blender.org
mtllib level3.mtl
o Doors_04
v -6.902957 -0.000001 -9.609623
v -6.902957 3.152349 -9.609623
v -6.302957 -0.000001 -9.609623
v -6.302957 3.152349 -9.609623
v -6.902956 -0.000001 -6.982857
v -6.902956 3.152349 -6.982857
v -6.302956 -0.000001 -6.982857
v -6.302956 3.152349 -6.982857
v -6.302956 -0.000001 -7.316190
v -6.302956 -0.000001 -9.276290
v -6.302956 3.152349 -9.276290
v -6.302956 3.152349 -7.316190
v -6.902956 -0.000001 -9.276289
v -6.902956 -0.000001 -7.316190
v -6.902956 3.152349 -7.316190
v -6.902956 3.152349 -9.276289
v -6.902957 2.852349 -9.609623
v -6.302957 2.852349 -9.609623
v -6.302956 2.852350 -6.982857
v -6.902956 2.852350 -6.982857
v -6.902956 2.852350 -7.316190
v -6.902956 2.852349 -9.276289
v -6.302956 2.852349 -9.276290
v -6.302956 2.852350 -7.316190
vn -0.0000 -0.0000 -1.0000
vn 1.0000 -0.0000 -0.0000
vn -0.0000 -0.0000 1.0000
vn -1.0000 -0.0000 -0.0000
vn -0.0000 -1.0000 -0.0000
vn -0.0000 1.0000 -0.0000
vt 0.735383 0.840278
vt 0.735383 0.877581
vt 0.660779 0.877581
vt 0.660779 0.840278
vt 0.045652 0.835979
vt 0.045652 0.873281
vt 0.004205 0.873281
vt 0.004205 0.835979
vt 0.809988 0.840278
vt 0.809988 0.877581
vt 0.735383 0.877581
vt 0.735383 0.840278
vt 0.615990 0.518615
vt 0.615990 0.481313
vt 0.657437 0.481313
vt 0.657437 0.518615
vt 0.583188 0.691055
vt 0.541741 0.691055
vt 0.541741 0.616450
vt 0.583188 0.616450
vt 0.457186 0.814394
vt 0.457186 0.855841
vt 0.382581 0.855841
vt 0.382581 0.814394
vt 0.457186 0.529225
vt 0.457186 0.570672
vt 0.382581 0.570672
vt 0.382581 0.529225
vt 0.573238 0.603830
vt 0.531791 0.603830
vt 0.531791 0.529225
vt 0.573239 0.529225
vt 0.884593 0.840278
vt 0.809988 0.840278
vt 0.809988 0.485612
vt 0.884593 0.485612
vt 0.330821 0.518615
vt 0.330821 0.481313
vt 0.372268 0.481313
vt 0.372268 0.518615
vt 0.330821 0.835979
vt 0.330821 0.873281
vt 0.289374 0.873281
vt 0.289374 0.835979
vt 0.884593 0.840278
vt 0.884593 0.485612
vt 0.959198 0.485612
vt 0.959198 0.840278
vt 0.330821 0.481313
vt 0.289374 0.481313
vt 0.457186 0.772947
vt 0.531791 0.529225
vt 0.531791 0.772947
vt 0.372268 0.873281
vt 0.615990 0.873281
vt 0.657437 0.873281
vt 0.809988 0.485612
vt 0.735383 0.485612
vt 0.045652 0.481313
vt 0.004205 0.481313
vt 0.735383 0.485612
vt 0.660779 0.485612
s 1
usemtl ram_level3
f 17/1/1 2/2/1 4/3/1 18/4/1
f 24/5/2 12/6/2 8/7/2 19/8/2
f 19/9/3 8/10/3 6/11/3 20/12/3
f 22/13/4 16/14/4 2/15/4 17/16/4
f 9/17/5 7/18/5 5/19/5 14/20/5
f 11/21/6 4/22/6 2/23/6 16/24/6
f 8/25/6 12/26/6 15/27/6 6/28/6
f 12/26/6 11/21/6 16/24/6 15/27/6
f 3/29/5 10/30/5 13/31/5 1/32/5
f 21/33/1 24/34/1 9/35/1 14/36/1
f 20/37/4 6/38/4 15/39/4 21/40/4
f 21/40/4 15/39/4 16/14/4 22/13/4
f 18/41/2 4/42/2 11/43/2 23/44/2
f 23/44/2 11/43/2 12/6/2 24/5/2
f 22/45/3 13/46/3 10/47/3 23/48/3
f 3/49/2 18/41/2 23/44/2 10/50/2
f 23/51/5 24/25/5 21/52/5 22/53/5
f 5/42/4 20/37/4 21/40/4 14/54/4
f 13/55/4 22/13/4 17/16/4 1/56/4
f 7/57/3 19/9/3 20/12/3 5/58/3
f 9/59/2 24/5/2 19/8/2 7/60/2
f 1/61/1 17/1/1 18/4/1 3/62/1
o Doors_05
v 6.497043 0.000001 -0.779436
v 6.497043 3.152350 -0.779436
v 7.097043 0.000001 -0.779436
v 7.097043 3.152350 -0.779436
v 6.497044 0.000001 1.847330
v 6.497044 3.152351 1.847330
v 7.097044 0.000001 1.847330
v 7.097044 3.152351 1.847330
v 7.097044 0.000001 1.513996
v 7.097044 0.000001 -0.446102
v 7.097044 3.152350 -0.446102
v 7.097044 3.152351 1.513996
v 6.497043 0.000001 -0.446102
v 6.497043 0.000001 1.513997
v 6.497043 3.152351 1.513997
v 6.497043 3.152350 -0.446102
v 6.497043 2.852350 -0.779436
v 7.097043 2.852350 -0.779436
v 7.097044 2.852351 1.847330
v 6.497044 2.852351 1.847330
v 6.497043 2.852351 1.513997
v 6.497043 2.852350 -0.446102
v 7.097044 2.852350 -0.446102
v 7.097044 2.852351 1.513996
v 6.897043 0.000001 -0.779436
v 6.697043 0.000001 -0.779436
v 6.697043 3.152350 -0.779436
v 6.897043 3.152350 -0.779436
v 6.697043 0.000001 1.847330
v 6.897044 0.000001 1.847330
v 6.897044 3.152351 1.847330
v 6.697043 3.152351 1.847330
v 6.697043 2.852350 -0.446102
v 6.897043 2.852350 -0.446102
v 6.697043 2.852351 1.513996
v 6.897044 2.852351 1.513996
v 6.897044 3.152351 1.513996
v 6.697043 3.152351 1.513996
v 6.897043 3.152350 -0.446102
v 6.697043 3.152350 -0.446102
v 6.897043 0.000001 -0.446102
v 6.697043 0.000001 -0.446102
v 6.897044 0.000001 1.513996
v 6.697043 0.000001 1.513996
v 6.897044 2.852351 1.847330
v 6.697043 2.852351 1.847330
v 6.697043 2.852350 -0.779436
v 6.897043 2.852350 -0.779436
v 6.697043 0.000001 1.513996
v 6.897044 0.000001 1.513996
v 6.697043 0.000001 -0.446102
v 6.697043 2.852351 1.513996
v 6.697043 2.852350 -0.446102
v 6.697043 3.152351 1.847330
v 6.897044 3.152351 1.847330
v 6.897043 3.152350 -0.779436
v 6.697043 3.152350 -0.779436
v 6.697043 0.000001 -0.779436
v 6.897043 0.000001 -0.779436
v 6.497043 2.852350 -0.446102
v 6.497043 2.852351 1.513997
v 6.497043 0.000001 1.513997
v 6.497043 0.000001 -0.446102
v 7.097044 0.000001 1.513996
v 7.097044 3.152351 1.847330
v 6.497044 3.152351 1.847330
v 7.097043 3.152350 -0.779436
v 7.097043 0.000001 -0.779436
v 6.497043 3.152350 -0.779436
v 6.497043 0.000001 -0.779436
vn -0.0000 -0.0000 -1.0000
vn 1.0000 -0.0000 -0.0000
vn -0.0000 -0.0000 1.0000
vn -1.0000 -0.0000 -0.0000
vn -0.0000 -1.0000 -0.0000
vn -0.0000 1.0000 -0.0000
vt 0.598909 0.393946
vt 0.598909 0.426804
vt 0.577003 0.426804
vt 0.577003 0.393946
vt 0.269165 0.113012
vt 0.269165 0.080153
vt 0.305675 0.080153
vt 0.305675 0.113012
vt 0.952334 0.393946
vt 0.952334 0.426804
vt 0.930429 0.426804
vt 0.930429 0.393946
vt 0.679231 0.393946
vt 0.679231 0.426804
vt 0.642721 0.426804
vt 0.642721 0.393946
vt 0.872013 0.081530
vt 0.872013 0.045020
vt 0.893919 0.045020
vt 0.893919 0.081530
vt 0.141900 0.174536
vt 0.141900 0.138026
vt 0.163806 0.138026
vt 0.163806 0.174536
vt 0.141900 0.425734
vt 0.141900 0.389224
vt 0.163806 0.389224
vt 0.163806 0.425734
vt 0.819669 0.848060
vt 0.858131 0.848060
vt 0.858131 0.871137
vt 0.819669 0.871137
vt 0.550169 0.103452
vt 0.572075 0.103452
vt 0.572075 0.415867
vt 0.550169 0.415867
vt 0.893919 0.426804
vt 0.893919 0.393946
vt 0.017968 0.113012
vt 0.017968 0.080153
vt 0.054478 0.080153
vt 0.054478 0.113012
vt 0.335481 0.103452
vt 0.335481 0.415867
vt 0.313575 0.415867
vt 0.313575 0.103452
vt 0.017968 0.425427
vt 0.054478 0.425427
vt 0.054477 0.781654
vt 0.269165 0.781655
vt 0.269165 0.803560
vt 0.054477 0.803560
vt 0.930429 0.081530
vt 0.679231 0.081530
vt 0.642721 0.081530
vt 0.952334 0.081530
vt 0.269165 0.425427
vt 0.305675 0.425427
vt 0.598909 0.081530
vt 0.577003 0.081530
vt 0.620815 0.393946
vt 0.620815 0.081530
vt 0.996146 0.081530
vt 0.996146 0.393946
vt 0.974240 0.393946
vt 0.974240 0.081530
vt 0.335481 0.081546
vt 0.550169 0.081546
vt 0.269165 0.469239
vt 0.054478 0.469239
vt 0.054478 0.447333
vt 0.269165 0.447333
vt 0.701137 0.081530
vt 0.701137 0.393946
vt 0.872013 0.393946
vt 0.017968 0.447333
vt 0.017968 0.469239
vt 0.098088 0.389224
vt 0.098088 0.174536
vt 0.119994 0.174536
vt 0.119994 0.389224
vt 0.098088 0.425734
vt 0.119994 0.425733
vt 0.098089 0.138026
vt 0.119994 0.138026
vt 0.305675 0.447333
vt 0.305675 0.469239
vt 0.996146 0.426804
vt 0.974240 0.426804
vt 0.620815 0.426804
s 1
f 72/63/7 52/64/7 28/65/7 42/66/7
f 48/67/8 36/68/8 32/69/8 43/70/8
f 70/71/9 56/72/9 30/73/9 44/74/9
f 46/75/10 40/76/10 26/77/10 41/78/10
f 68/79/11 53/80/11 29/81/11 38/82/11
f 64/83/12 51/84/12 26/85/12 40/86/12
f 56/87/12 62/88/12 39/89/12 30/90/12
f 62/88/12 64/83/12 40/86/12 39/89/12
f 50/91/11 66/92/11 37/93/11 25/94/11
f 60/95/7 48/96/7 33/97/7 67/98/7
f 44/74/10 30/73/10 39/99/10 45/100/10
f 45/100/10 39/99/10 40/76/10 46/75/10
f 42/101/8 28/102/8 35/103/8 47/104/8
f 47/104/8 35/103/8 36/68/8 48/67/8
f 58/105/9 65/106/9 34/107/9 47/108/9
f 27/109/8 42/101/8 47/104/8 34/110/8
f 57/111/11 59/112/11 45/113/11 46/114/11
f 29/115/10 44/74/10 45/100/10 38/82/10
f 37/116/10 46/75/10 41/78/10 25/117/10
f 53/118/9 70/71/9 44/74/9 29/115/9
f 33/119/8 48/67/8 43/70/8 31/120/8
f 49/121/7 72/63/7 42/66/7 27/122/7
f 25/117/7 41/78/7 71/123/7 50/124/7
f 50/124/7 71/123/7 72/63/7 49/121/7
f 31/125/9 43/126/9 69/127/9 54/128/9
f 54/128/9 69/127/9 70/71/9 53/118/9
f 47/129/11 48/130/11 60/95/11 58/105/11
f 68/131/11 66/132/11 65/133/11 67/134/11
f 46/75/9 37/116/9 66/135/9 57/136/9
f 66/132/10 68/131/10 59/112/10 57/111/10
f 45/100/7 59/137/7 68/79/7 38/82/7
f 65/106/8 58/105/8 60/95/8 67/98/8
f 27/109/11 34/110/11 65/133/11 49/138/11
f 49/138/11 65/133/11 66/132/11 50/139/11
f 36/140/12 35/141/12 63/142/12 61/143/12
f 61/143/12 63/142/12 64/83/12 62/88/12
f 32/144/12 36/140/12 61/143/12 55/145/12
f 55/145/12 61/143/12 62/88/12 56/87/12
f 35/141/12 28/146/12 52/147/12 63/142/12
f 63/142/12 52/147/12 51/84/12 64/83/12
f 33/119/11 31/120/11 54/148/11 67/134/11
f 67/134/11 54/148/11 53/149/11 68/131/11
f 43/126/9 32/150/9 55/151/9 69/127/9
f 69/127/9 55/151/9 56/72/9 70/71/9
f 41/78/7 26/77/7 51/152/7 71/123/7
f 71/123/7 51/152/7 52/64/7 72/63/7
l 81 80
l 79 78
l 89 79
l 75 73
l 83 82
l 92 83
l 87 84
l 86 85
l 85 76
l 84 77
l 85 84
l 88 74
l 87 75
l 94 82
l 93 81
l 86 73
l 90 78
l 91 80
o Level_03
v -6.625385 -0.000001 -13.254223
v -6.625385 3.999999 -13.254223
v 6.774615 -0.000001 -13.254225
v 6.774616 3.999999 -13.254225
v -6.625381 0.000001 3.327590
v -6.625381 4.000001 3.327590
v 6.774620 0.000001 3.327589
v 6.774620 4.000001 3.327588
v 6.774616 -0.000001 -7.211438
v 6.774616 4.000000 -7.211441
v -6.625385 -0.000001 -7.211437
v -6.625385 4.000000 -7.211435
v 6.774615 -0.000001 -9.552862
v -6.625385 3.999999 -9.552860
v 6.774616 3.999999 -9.552862
v -6.625385 -0.000001 -9.552860
v -6.625385 2.974220 -13.254223
v 6.774616 2.974220 -13.254225
v 6.774620 2.974222 3.327588
v -6.625381 2.974222 3.327590
v -6.625385 2.974221 -7.211437
v 6.774616 2.974221 -7.211440
v 6.774616 2.974220 -9.552862
v -6.625385 2.974220 -9.552860
v -6.902282 -0.000001 -7.211437
v -6.902283 -0.000001 -9.552860
v -6.808718 -0.225001 -13.454224
v -6.808718 3.999999 -13.454224
v 6.974617 -0.225001 -13.454224
v 6.974617 3.999999 -13.454224
v -6.808718 -0.224999 3.527589
v -6.808718 4.000001 3.527589
v 6.974617 -0.224999 3.527589
v 6.974617 4.000001 3.527589
v 6.974617 -0.225001 -7.211438
v 6.974617 4.000000 -7.211441
v -6.808718 -0.225001 -7.211437
v -6.808718 4.000000 -7.211435
v 6.974617 -0.225001 -9.552862
v -6.808718 3.999999 -9.552860
v 6.974617 3.999999 -9.552862
v -6.808718 -0.225001 -9.552860
v -6.808718 2.974220 -13.454224
v 6.974617 2.974220 -13.454224
v 6.974617 2.974222 3.527589
v -6.808718 2.974222 3.527589
v -6.808718 2.974221 -7.211437
v 6.974617 2.974221 -7.211440
v 6.974617 2.974220 -9.552862
v -6.808718 2.974220 -9.552860
v -6.902282 -0.223513 -7.211437
v -6.902283 -0.223513 -9.552860
vn 1.0000 -0.0000 -0.0000
vn -1.0000 -0.0000 -0.0000
vn -0.0000 -0.0000 1.0000
vn -0.0000 1.0000 -0.0000
vn -0.0000 -0.0000 -1.0000
vn -0.0159 -0.9999 -0.0000
vn -0.0000 -1.0000 -0.0000
vt 0.848506 0.146121
vt 0.848506 0.174122
vt 0.840746 0.174122
vt 0.840746 0.146121
vt 0.368504 0.899552
vt 0.993719 0.899552
vt 0.993719 0.960406
vt 0.368504 0.960406
vt 0.121154 0.643926
vt 0.916092 0.643926
vt 0.916092 0.704779
vt 0.121154 0.704779
vt 0.368504 0.723111
vt 0.993719 0.723111
vt 0.229602 0.899552
vt 0.229602 0.960406
vt 0.010023 0.899552
vt 0.010023 0.960406
vt 0.848506 0.128408
vt 0.840746 0.128408
vt 0.074734 0.638161
vt 0.074734 0.777522
vt 0.058253 0.777522
vt 0.058253 0.638161
vt 0.010023 0.723110
vt 0.229602 0.723111
vt 0.871006 0.146121
vt 0.871006 0.174122
vt 0.871006 0.048680
vt 0.871006 0.128408
vt 0.848506 0.048680
vt 0.923764 0.171674
vt 0.923764 0.070330
vt 0.931522 0.070330
vt 0.931522 0.171674
vt 0.840746 0.048680
vt 0.872298 0.777521
vt 0.872298 0.638161
vt 0.872298 0.997825
vt 0.074734 0.997826
vt 0.074734 0.010881
vt 0.872298 0.010881
vt 0.901270 0.171674
vt 0.901270 0.070330
vt 0.121154 0.467484
vt 0.916092 0.467484
vt 0.959197 0.156282
vt 0.966955 0.156282
vt 0.966955 0.185788
vt 0.959197 0.185788
vt 0.816544 0.129921
vt 0.808784 0.129921
vt 0.808784 0.048680
vt 0.816544 0.048680
vt 0.922053 0.192071
vt 0.928096 0.192071
vt 0.928096 0.273265
vt 0.922053 0.273265
vt 0.840746 0.129921
vt 0.816544 0.147634
vt 0.808784 0.147634
vt 0.816544 0.177148
vt 0.808784 0.177148
vt 0.959197 0.138574
vt 0.966955 0.138574
vt 0.899682 0.250076
vt 0.900255 0.250076
vt 0.900255 0.264407
vt 0.899682 0.264407
vt 0.840746 0.177148
vt 0.840746 0.147634
vt 0.935001 0.156282
vt 0.935001 0.185788
vt 0.935001 0.057355
vt 0.959197 0.057355
vt 0.935001 0.138574
vt 0.946941 0.192071
vt 0.952984 0.192071
vt 0.952984 0.273265
vt 0.946941 0.273265
vt 0.966955 0.057355
vt 0.815320 0.264407
vt 0.815320 0.250076
vt 0.815320 0.288286
vt 0.899682 0.288286
vt 0.815320 0.184346
vt 0.899682 0.184346
vt 0.903207 0.192071
vt 0.903207 0.273265
vt 0.962126 0.266656
vt 0.962126 0.285625
vt 0.961187 0.286650
vt 0.961187 0.266656
vt 0.960162 0.266657
vt 0.960162 0.254657
vt 0.961187 0.254657
vt 0.961187 0.266657
vt 0.962126 0.254657
vt 0.961187 0.254657
vt 0.960162 0.285625
vt 0.961187 0.286650
vt 0.875398 0.153414
vt 0.875398 0.064800
vt 0.880860 0.058096
vt 0.880860 0.153414
vt 0.886322 0.064800
vt 0.886322 0.153414
vt 0.892982 0.127857
vt 0.892982 0.058096
vt 0.898444 0.058096
vt 0.898444 0.127857
vt 0.886322 0.127857
vt 0.886322 0.058096
vt 0.905148 0.066346
vt 0.905148 0.058096
vt 0.911807 0.058096
vt 0.911851 0.060884
vt 0.898444 0.066346
vt 0.905148 0.063559
vt 0.905103 0.066346
vt 0.960162 0.200647
vt 0.961187 0.199622
vt 0.962126 0.200647
vt 0.803083 0.038313
vt 0.803083 0.225681
vt 0.800287 0.228478
vt 0.800287 0.035749
vt 0.800287 0.038546
vt 0.800287 0.225914
vt 0.797490 0.228478
vt 0.797490 0.035749
s 1
usemtl stena3
f 118/153/13 111/154/13 96/155/13 108/156/13
f 116/157/14 113/158/14 102/159/14 104/160/14
f 111/161/15 112/162/15 98/163/15 96/164/15
f 113/158/14 116/157/14 103/165/14 101/166/14
f 117/167/14 116/157/14 104/160/14 109/168/14
f 112/169/14 117/167/14 109/168/14 98/170/14
f 115/171/13 118/153/13 108/156/13 106/172/13
f 97/177/14 107/178/14 117/167/14 112/169/14
f 107/178/14 103/165/14 116/157/14 117/167/14
f 110/179/13 95/180/13 111/154/13 118/153/13
f 99/181/13 105/182/13 115/171/13 114/183/13
f 113/184/17 114/185/17 100/186/17 102/187/17
f 114/183/13 115/171/13 106/172/13 100/188/13
f 101/195/17 99/196/17 114/185/17 113/184/17
f 95/197/15 97/198/15 112/162/15 111/161/15
f 144/199/14 134/200/14 122/201/14 137/202/14
f 142/203/13 130/204/13 128/205/13 139/206/13
f 137/207/17 122/208/17 124/209/17 138/210/17
f 139/206/13 127/188/13 129/211/13 142/203/13
f 143/212/13 135/213/13 130/204/13 142/203/13
f 138/214/13 124/215/13 135/213/13 143/212/13
f 141/216/14 132/217/14 134/200/14 144/199/14
f 131/218/18 145/219/18 146/220/18 136/221/18
f 123/222/13 138/214/13 143/212/13 133/223/13
f 133/223/13 143/212/13 142/203/13 129/211/13
f 136/224/14 144/199/14 137/202/14 121/225/14
f 125/226/14 140/227/14 141/216/14 131/228/14
f 139/229/15 128/230/15 126/231/15 140/232/15
f 140/227/14 126/233/14 132/217/14 141/216/14
f 133/234/19 129/235/19 131/218/19 136/221/19
f 123/236/19 133/234/19 136/221/19 121/237/19
f 129/235/19 127/238/19 125/239/19 131/218/19
f 127/208/15 139/229/15 140/232/15 125/209/15
f 121/240/17 137/207/17 138/210/17 123/241/17
f 108/242/16 96/243/16 122/244/16 134/245/16
f 109/246/16 104/247/16 130/248/16 135/249/16
f 106/250/16 108/242/16 134/245/16 132/251/16
f 98/252/16 109/246/16 135/249/16 124/253/16
f 115/254/17 105/255/17 131/256/17 141/257/17
f 110/258/15 118/259/15 144/257/15 136/256/15
f 118/260/19 115/261/19 141/262/19 144/263/19
f 119/261/14 120/260/14 146/264/14 145/265/14
f 105/266/15 119/267/15 145/268/15 131/269/15
f 120/270/17 110/262/17 136/271/17 146/272/17
f 104/247/16 102/273/16 128/274/16 130/248/16
f 100/275/16 106/250/16 132/251/16 126/274/16
f 96/276/16 98/277/16 124/278/16 122/279/16
f 102/280/16 100/281/16 126/282/16 128/283/16
usemtl podlaha3
f 105/173/16 110/174/16 120/175/16 119/176/16
f 107/189/16 110/174/16 105/173/16 103/190/16
f 97/191/16 95/192/16 110/174/16 107/189/16
f 103/190/16 105/173/16 99/193/16 101/194/16
