# Blender 5.0.1
# www.blender.org
mtllib skrin_skladni.mtl
o Skrin
v -1.083338 0.015713 0.339686
v -1.083338 0.039946 0.363918
v -1.107571 0.039946 0.339686
v -1.083338 0.099545 0.363918
v -1.083338 0.123777 0.339686
v -1.107571 0.099545 0.339686
v -1.083338 0.015713 -0.339686
v -1.107571 0.039946 -0.339686
v -1.083338 0.039946 -0.363918
v -1.083338 0.123777 -0.339686
v -1.083338 0.099545 -0.363918
v -1.107571 0.099545 -0.339686
v 1.083338 0.015713 0.339686
v 1.107571 0.039946 0.339686
v 1.083338 0.039946 0.363918
v 1.083338 0.123777 0.339686
v 1.083338 0.099545 0.363918
v 1.107571 0.099545 0.339686
v 1.083338 0.015713 -0.339686
v 1.083338 0.039946 -0.363918
v 1.107571 0.039946 -0.339686
v 1.083338 0.123777 -0.339686
v 1.107571 0.099545 -0.339686
v 1.083338 0.099545 -0.363918
v -1.083338 0.470663 0.339686
v -1.083338 0.494895 0.363918
v -1.107571 0.494895 0.339686
v -1.083338 0.554494 0.363918
v -1.083338 0.578727 0.339686
v -1.107571 0.554494 0.339686
v -1.083338 0.470663 -0.339686
v -1.107571 0.494895 -0.339686
v -1.083338 0.494895 -0.363918
v -1.083338 0.578727 -0.339686
v -1.083338 0.554494 -0.363918
v -1.107571 0.554494 -0.339686
v 1.083338 0.470663 0.339686
v 1.107571 0.494895 0.339686
v 1.083338 0.494895 0.363918
v 1.083338 0.578727 0.339686
v 1.083338 0.554494 0.363918
v 1.107571 0.554494 0.339686
v 1.083338 0.470663 -0.339686
v 1.083338 0.494895 -0.363918
v 1.107571 0.494895 -0.339686
v 1.083338 0.578727 -0.339686
v 1.107571 0.554494 -0.339686
v 1.083338 0.554494 -0.363918
v -1.083338 0.925612 0.339686
v -1.083338 0.949845 0.363918
v -1.107571 0.949845 0.339686
v -1.083338 1.009444 0.363918
v -1.083338 1.033676 0.339686
v -1.107571 1.009444 0.339686
v -1.083338 0.925612 -0.339686
v -1.107571 0.949845 -0.339686
v -1.083338 0.949845 -0.363918
v -1.083338 1.033676 -0.339686
v -1.083338 1.009444 -0.363918
v -1.107571 1.009444 -0.339686
v 1.083338 0.925612 0.339686
v 1.107571 0.949845 0.339686
v 1.083338 0.949845 0.363918
v 1.083338 1.033676 0.339686
v 1.083338 1.009444 0.363918
v 1.107571 1.009444 0.339686
v 1.083338 0.925612 -0.339686
v 1.083338 0.949845 -0.363918
v 1.107571 0.949845 -0.339686
v 1.083338 1.033676 -0.339686
v 1.107571 1.009444 -0.339686
v 1.083338 1.009444 -0.363918
v -1.083338 1.380561 0.339686
v -1.083338 1.404794 0.363918
v -1.107571 1.404794 0.339686
v -1.083338 1.464393 0.363918
v -1.083338 1.488626 0.339686
v -1.107571 1.464393 0.339686
v -1.083338 1.380561 -0.339686
v -1.107571 1.404794 -0.339686
v -1.083338 1.404794 -0.363918
v -1.083338 1.488626 -0.339686
v -1.083338 1.464393 -0.363918
v -1.107571 1.464393 -0.339686
v 1.083338 1.380561 0.339686
v 1.107571 1.404794 0.339686
v 1.083338 1.404794 0.363918
v 1.083338 1.488626 0.339686
v 1.083338 1.464393 0.363918
v 1.107571 1.464393 0.339686
v 1.083338 1.380561 -0.339686
v 1.083338 1.404794 -0.363918
v 1.107571 1.404794 -0.339686
v 1.083338 1.488626 -0.339686
v 1.107571 1.464393 -0.339686
v 1.083338 1.464393 -0.363918
v -1.083338 1.835511 0.339686
v -1.083338 1.859743 0.363918
v -1.107571 1.859743 0.339686
v -1.083338 1.919343 0.363918
v -1.083338 1.943575 0.339686
v -1.107571 1.919343 0.339686
v -1.083338 1.835511 -0.339686
v -1.107571 1.859743 -0.339686
v -1.083338 1.859743 -0.363918
v -1.083338 1.943575 -0.339686
v -1.083338 1.919343 -0.363918
v -1.107571 1.919343 -0.339686
v 1.083338 1.835511 0.339686
v 1.107571 1.859743 0.339686
v 1.083338 1.859743 0.363918
v 1.083338 1.943575 0.339686
v 1.083338 1.919343 0.363918
v 1.107571 1.919343 0.339686
v 1.083338 1.835511 -0.339686
v 1.083338 1.859743 -0.363918
v 1.107571 1.859743 -0.339686
v 1.083338 1.943575 -0.339686
v 1.107571 1.919343 -0.339686
v 1.083338 1.919343 -0.363918
v -1.083338 2.290460 0.339686
v -1.083338 2.314693 0.363918
v -1.107571 2.314693 0.339686
v -1.083338 2.374292 0.363918
v -1.083338 2.398525 0.339686
v -1.107571 2.374292 0.339686
v -1.083338 2.290460 -0.339686
v -1.107571 2.314693 -0.339686
v -1.083338 2.314693 -0.363918
v -1.083338 2.398525 -0.339686
v -1.083338 2.374292 -0.363918
v -1.107571 2.374292 -0.339686
v 1.083338 2.290460 0.339686
v 1.107571 2.314693 0.339686
v 1.083338 2.314693 0.363918
v 1.083338 2.398525 0.339686
v 1.083338 2.374292 0.363918
v 1.107571 2.374292 0.339686
v 1.083338 2.290460 -0.339686
v 1.083338 2.314693 -0.363918
v 1.107571 2.314693 -0.339686
v 1.083338 2.398525 -0.339686
v 1.107571 2.374292 -0.339686
v 1.083338 2.374292 -0.363918
v 1.159076 2.560999 -0.401543
v 1.149076 2.560999 -0.411543
v 1.149076 2.570999 -0.401543
v 1.159076 0.011080 -0.401543
v 1.149076 0.001080 -0.401543
v 1.149076 0.011080 -0.411543
v 1.159076 2.560999 -0.319935
v 1.149076 2.570999 -0.319935
v 1.149076 2.560999 -0.309935
v 1.159076 0.011080 -0.319935
v 1.149076 0.011080 -0.309935
v 1.149076 0.001080 -0.319935
v 1.057468 2.560999 -0.401543
v 1.067468 2.570999 -0.401543
v 1.067468 2.560999 -0.411543
v 1.057468 0.011080 -0.401543
v 1.067468 0.011080 -0.411543
v 1.067468 0.001080 -0.401543
v 1.067468 2.560999 -0.309935
v 1.067468 2.570999 -0.319935
v 1.057468 2.560999 -0.319935
v 1.067468 0.011080 -0.309935
v 1.057468 0.011080 -0.319935
v 1.067468 0.001080 -0.319935
v 1.159076 2.560999 0.322101
v 1.149076 2.560999 0.312101
v 1.149076 2.570999 0.322101
v 1.159076 0.011080 0.322101
v 1.149076 0.001080 0.322101
v 1.149076 0.011080 0.312101
v 1.159076 2.560999 0.403709
v 1.149076 2.570999 0.403709
v 1.149076 2.560999 0.413709
v 1.159076 0.011080 0.403709
v 1.149076 0.011080 0.413709
v 1.149076 0.001080 0.403709
v 1.057468 2.560999 0.322101
v 1.067468 2.570999 0.322101
v 1.067468 2.560999 0.312101
v 1.057468 0.011080 0.322101
v 1.067468 0.011080 0.312101
v 1.067468 0.001080 0.322101
v 1.067468 2.560999 0.413709
v 1.067468 2.570999 0.403709
v 1.057468 2.560999 0.403709
v 1.067468 0.011080 0.413709
v 1.057468 0.011080 0.403709
v 1.067468 0.001080 0.403709
v -1.043856 2.560999 -0.401543
v -1.053856 2.560999 -0.411543
v -1.053856 2.570999 -0.401543
v -1.043856 0.011080 -0.401543
v -1.053856 0.001080 -0.401543
v -1.053856 0.011080 -0.411543
v -1.043856 2.560999 -0.319935
v -1.053856 2.570999 -0.319935
v -1.053856 2.560999 -0.309935
v -1.043856 0.011080 -0.319935
v -1.053856 0.011080 -0.309935
v -1.053856 0.001080 -0.319935
v -1.145464 2.560999 -0.401543
v -1.135464 2.570999 -0.401543
v -1.135464 2.560999 -0.411543
v -1.145464 0.011080 -0.401543
v -1.135464 0.011080 -0.411543
v -1.135464 0.001080 -0.401543
v -1.135464 2.560999 -0.309935
v -1.135464 2.570999 -0.319935
v -1.145464 2.560999 -0.319935
v -1.135464 0.011080 -0.309935
v -1.145464 0.011080 -0.319935
v -1.135464 0.001080 -0.319935
v -1.043856 2.560999 0.322101
v -1.053856 2.560999 0.312101
v -1.053856 2.570999 0.322101
v -1.043856 0.011080 0.322101
v -1.053856 0.001080 0.322101
v -1.053856 0.011080 0.312101
v -1.043856 2.560999 0.403709
v -1.053856 2.570999 0.403709
v -1.053856 2.560999 0.413709
v -1.043856 0.011080 0.403709
v -1.053856 0.011080 0.413709
v -1.053856 0.001080 0.403709
v -1.145464 2.560999 0.322101
v -1.135464 2.570999 0.322101
v -1.135464 2.560999 0.312101
v -1.145464 0.011080 0.322101
v -1.135464 0.011080 0.312101
v -1.135464 0.001080 0.322101
v -1.135464 2.560999 0.413709
v -1.135464 2.570999 0.403709
v -1.145464 2.560999 0.403709
v -1.135464 0.011080 0.413709
v -1.145464 0.011080 0.403709
v -1.135464 0.001080 0.403709
vn -0.0109 -0.9994 0.0342
vn -0.0091 -0.2767 0.9609
vn -0.9612 -0.2745 0.0284
vn -0.0091 0.2767 0.9609
vn -0.0109 0.9994 0.0342
vn -0.9612 0.2744 0.0285
vn -0.0109 -0.9994 -0.0342
vn -0.9612 -0.2744 -0.0285
vn -0.0091 -0.2767 -0.9609
vn -0.0109 0.9994 -0.0342
vn -0.0091 0.2767 -0.9609
vn -0.9612 0.2745 -0.0284
vn 0.0109 -0.9994 0.0342
vn 0.9612 -0.2744 0.0285
vn 0.0091 -0.2767 0.9609
vn 0.0109 0.9994 0.0342
vn 0.0091 0.2767 0.9609
vn 0.9612 0.2745 0.0284
vn 0.0109 -0.9994 -0.0342
vn 0.0091 -0.2767 -0.9609
vn 0.9612 -0.2745 -0.0284
vn 0.0109 0.9994 -0.0342
vn 0.9612 0.2744 -0.0285
vn 0.0091 0.2767 -0.9609
vn -0.0108 -0.9994 -0.0342
vn -0.0108 -0.9994 0.0343
vn -0.9612 -0.2744 0.0284
vn -0.9612 -0.2744 -0.0284
vn -0.0091 -0.2768 0.9609
vn -0.0090 0.2767 0.9609
vn -0.9612 0.2744 0.0284
vn -0.0108 0.9994 0.0342
vn -0.0108 0.9994 -0.0343
vn -0.9612 0.2744 -0.0284
vn -0.0091 0.2768 -0.9609
vn -0.0090 -0.2767 -0.9609
vn 0.9612 0.2744 -0.0284
vn 0.9612 -0.2744 -0.0284
vn 0.0091 -0.2768 -0.9609
vn 0.0090 0.2767 -0.9609
vn 0.0108 -0.9994 0.0342
vn 0.0108 -0.9994 -0.0343
vn 0.9612 -0.2744 0.0284
vn 0.0108 0.9994 -0.0342
vn 0.0108 0.9994 0.0343
vn 0.9612 0.2744 0.0284
vn 0.0091 0.2768 0.9609
vn 0.0090 -0.2767 0.9609
vn -0.9612 -0.2744 0.0285
vn -0.9612 0.2744 -0.0285
vn 0.0091 -0.2766 0.9609
vn 0.0091 0.2766 0.9609
vn -0.0091 0.2766 0.9609
vn -0.0091 -0.2766 0.9609
vn -0.0091 -0.2766 -0.9609
vn -0.0091 0.2766 -0.9609
vn 0.0091 0.2766 -0.9609
vn 0.0091 -0.2766 -0.9609
vn 0.9612 -0.2744 -0.0285
vn 0.9612 0.2744 0.0285
vn 0.9941 0.0037 -0.1083
vn 0.1083 0.0037 -0.9941
vn 0.1027 0.9894 -0.1027
vn 0.9941 -0.0037 -0.1083
vn 0.1026 -0.9894 -0.1027
vn 0.1083 -0.0037 -0.9941
vn 0.9941 0.0037 0.1083
vn 0.1027 0.9894 0.1027
vn 0.1083 0.0037 0.9941
vn 0.9941 -0.0037 0.1083
vn 0.1083 -0.0037 0.9941
vn 0.1027 -0.9894 0.1027
vn -0.9941 0.0036 -0.1083
vn -0.1027 0.9894 -0.1027
vn -0.1083 0.0037 -0.9941
vn -0.9941 -0.0037 -0.1083
vn -0.1083 -0.0037 -0.9941
vn -0.1027 -0.9894 -0.1026
vn -0.1083 0.0037 0.9941
vn -0.1027 0.9894 0.1027
vn -0.9941 0.0037 0.1083
vn -0.1083 -0.0037 0.9941
vn -0.9941 -0.0037 0.1083
vn -0.1027 -0.9894 0.1027
vn 0.9941 0.0036 0.1083
vn 0.9941 0.0036 -0.1083
vn 0.9941 -0.0036 -0.1083
vn 0.9941 -0.0036 0.1083
vn 0.1027 -0.9894 -0.1027
vn -0.1083 0.0036 0.9941
vn 0.1083 0.0036 0.9941
vn 0.1083 -0.0036 0.9941
vn -0.1083 -0.0036 0.9941
vn -0.9941 0.0036 0.1083
vn -0.9941 -0.0036 0.1083
vn -0.9941 -0.0036 -0.1083
vn -0.1027 -0.9894 -0.1027
vn 0.1083 0.0036 -0.9941
vn -0.1083 0.0036 -0.9941
vn -0.1083 -0.0036 -0.9941
vn 0.1083 -0.0036 -0.9941
vn -0.9941 0.0037 -0.1083
vn 0.1027 -0.9894 0.1026
vn -0.1084 -0.0036 0.9941
vn -0.1026 -0.9894 0.1027
vn -0.9941 0.0036 0.1084
vt 0.984726 0.403073
vt 0.987465 0.398329
vt 0.990204 0.403073
vt 0.987465 0.387333
vt 0.984726 0.382589
vt 0.990204 0.382589
vt 0.984726 0.511677
vt 0.990204 0.511677
vt 0.987465 0.516421
vt 0.984726 0.273986
vt 0.984726 0.268507
vt 0.989470 0.271246
vt 0.638364 0.403073
vt 0.633619 0.400334
vt 0.638364 0.397595
vt 0.638364 0.382589
vt 0.635625 0.387333
vt 0.632886 0.382589
vt 0.638364 0.511677
vt 0.638364 0.517155
vt 0.633619 0.514416
vt 0.638364 0.273986
vt 0.633619 0.271247
vt 0.638364 0.268507
vt 0.999732 0.388067
vt 0.990204 0.388067
vt 0.999732 0.382589
vt 0.990204 0.273986
vt 0.984726 0.258980
vt 0.990204 0.258980
vt 0.990204 0.268507
vt 0.984726 0.517155
vt 0.632886 0.268507
vt 0.632886 0.258980
vt 0.638364 0.258980
vt 0.632886 0.511677
vt 0.632886 0.403073
vt 0.632886 0.273986
vt 0.632886 0.388067
vt 0.623358 0.388067
vt 0.623358 0.382589
vt 0.984726 0.397595
vt 0.984726 0.388067
vt 0.638364 0.388067
vt 0.999732 0.273986
vt 0.623358 0.273986
vt 0.091375 0.342653
vt 0.088636 0.347397
vt 0.085897 0.342653
vt 0.088636 0.358393
vt 0.091375 0.363137
vt 0.085897 0.363137
vt 0.091375 0.234050
vt 0.085897 0.234050
vt 0.088636 0.229305
vt 0.091375 0.471740
vt 0.091375 0.477219
vt 0.086631 0.474480
vt 0.437737 0.342653
vt 0.442482 0.345392
vt 0.437737 0.348131
vt 0.437737 0.363137
vt 0.440476 0.358393
vt 0.443215 0.363137
vt 0.437737 0.234049
vt 0.437737 0.228571
vt 0.442482 0.231310
vt 0.437737 0.471740
vt 0.442482 0.474480
vt 0.437737 0.477219
vt 0.076369 0.357659
vt 0.085897 0.357659
vt 0.076369 0.363137
vt 0.085897 0.471740
vt 0.091375 0.486746
vt 0.085897 0.486746
vt 0.085897 0.477219
vt 0.091375 0.228571
vt 0.443215 0.477219
vt 0.443215 0.486746
vt 0.437737 0.486746
vt 0.443215 0.234050
vt 0.443215 0.342653
vt 0.443215 0.471740
vt 0.443215 0.357659
vt 0.452743 0.357659
vt 0.452743 0.363137
vt 0.091375 0.348131
vt 0.091375 0.357659
vt 0.437737 0.357659
vt 0.076369 0.471740
vt 0.452743 0.471740
vt 0.144362 0.562263
vt 0.139617 0.559524
vt 0.144362 0.556785
vt 0.128622 0.559524
vt 0.123877 0.562263
vt 0.123877 0.556785
vt 0.252965 0.562263
vt 0.252965 0.556785
vt 0.257709 0.559524
vt 0.015274 0.562263
vt 0.009796 0.562263
vt 0.012535 0.557519
vt 0.144362 0.908625
vt 0.141622 0.913369
vt 0.138883 0.908625
vt 0.123877 0.908625
vt 0.128622 0.911364
vt 0.123877 0.914103
vt 0.252965 0.908625
vt 0.258443 0.908625
vt 0.255704 0.913369
vt 0.015274 0.908625
vt 0.012535 0.913369
vt 0.009796 0.908625
vt 0.129356 0.547257
vt 0.129356 0.556785
vt 0.123877 0.547257
vt 0.015274 0.556785
vt 0.000268 0.562263
vt 0.000268 0.556785
vt 0.009796 0.556785
vt 0.258443 0.562263
vt 0.009796 0.914103
vt 0.000268 0.914103
vt 0.000268 0.908625
vt 0.252965 0.914103
vt 0.144362 0.914103
vt 0.015274 0.914103
vt 0.129356 0.914103
vt 0.129356 0.923631
vt 0.123877 0.923631
vt 0.138883 0.562263
vt 0.129356 0.562263
vt 0.129356 0.908625
vt 0.015274 0.547257
vt 0.015274 0.923631
vt 0.638364 0.114350
vt 0.635625 0.119094
vt 0.632886 0.114350
vt 0.635625 0.130090
vt 0.638364 0.134834
vt 0.632886 0.134834
vt 0.638364 0.005747
vt 0.632886 0.005747
vt 0.635625 0.001002
vt 0.638364 0.243438
vt 0.638364 0.248916
vt 0.633619 0.246177
vt 0.984726 0.114350
vt 0.989470 0.117089
vt 0.984726 0.119828
vt 0.984726 0.134834
vt 0.987465 0.130090
vt 0.990204 0.134834
vt 0.984726 0.005747
vt 0.984726 0.000268
vt 0.989470 0.003008
vt 0.984726 0.243438
vt 0.989470 0.246177
vt 0.984726 0.248916
vt 0.623358 0.129356
vt 0.632886 0.129356
vt 0.623358 0.134834
vt 0.632886 0.243438
vt 0.638364 0.258443
vt 0.632886 0.258443
vt 0.632886 0.248916
vt 0.638364 0.000268
vt 0.990204 0.248916
vt 0.990204 0.258443
vt 0.984726 0.258443
vt 0.990204 0.005747
vt 0.990204 0.114350
vt 0.990204 0.243438
vt 0.990204 0.129356
vt 0.999732 0.129356
vt 0.999732 0.134834
vt 0.638364 0.119828
vt 0.638364 0.129356
vt 0.984726 0.129356
vt 0.623358 0.243438
vt 0.999732 0.243438
vt 0.984726 0.661785
vt 0.987465 0.657040
vt 0.990204 0.661785
vt 0.987465 0.646045
vt 0.984726 0.641301
vt 0.990204 0.641301
vt 0.984726 0.770388
vt 0.990204 0.770388
vt 0.987465 0.775132
vt 0.984726 0.532697
vt 0.984726 0.527219
vt 0.989470 0.529958
vt 0.638364 0.661785
vt 0.633620 0.659046
vt 0.638364 0.656306
vt 0.638364 0.641301
vt 0.635625 0.646045
vt 0.632886 0.641301
vt 0.638364 0.770388
vt 0.638364 0.775866
vt 0.633620 0.773127
vt 0.638364 0.532697
vt 0.633620 0.529958
vt 0.638364 0.527219
vt 0.999732 0.646779
vt 0.990204 0.646779
vt 0.999732 0.641301
vt 0.990204 0.532697
vt 0.984726 0.517691
vt 0.990204 0.517691
vt 0.990204 0.527219
vt 0.984726 0.775866
vt 0.632886 0.527219
vt 0.632886 0.517691
vt 0.638364 0.517691
vt 0.632886 0.770388
vt 0.632886 0.661785
vt 0.632886 0.532697
vt 0.632886 0.646779
vt 0.623358 0.646779
vt 0.623358 0.641301
vt 0.984726 0.656306
vt 0.984726 0.646779
vt 0.638364 0.646779
vt 0.999732 0.532697
vt 0.623358 0.532697
vt 0.373062 0.908625
vt 0.377806 0.911364
vt 0.373062 0.914103
vt 0.388802 0.911364
vt 0.393546 0.908625
vt 0.393546 0.914103
vt 0.264458 0.908625
vt 0.264458 0.914103
vt 0.259714 0.911364
vt 0.502149 0.908625
vt 0.507628 0.908625
vt 0.504888 0.913369
vt 0.373062 0.562263
vt 0.375801 0.557519
vt 0.378540 0.562263
vt 0.393546 0.562263
vt 0.388802 0.559524
vt 0.393546 0.556785
vt 0.264458 0.562263
vt 0.258980 0.562263
vt 0.261719 0.557519
vt 0.502149 0.562263
vt 0.504888 0.557519
vt 0.507628 0.562263
vt 0.388068 0.923631
vt 0.388068 0.914103
vt 0.393546 0.923631
vt 0.502149 0.914103
vt 0.517155 0.908625
vt 0.517155 0.914103
vt 0.507628 0.914103
vt 0.258980 0.908625
vt 0.507628 0.556785
vt 0.517155 0.556785
vt 0.517155 0.562263
vt 0.264458 0.556785
vt 0.373062 0.556785
vt 0.502149 0.556785
vt 0.388068 0.556785
vt 0.388068 0.547257
vt 0.393546 0.547257
vt 0.378540 0.908625
vt 0.388068 0.908625
vt 0.388068 0.562263
vt 0.502149 0.923631
vt 0.502149 0.547257
vt 0.601140 0.193043
vt 0.602535 0.190626
vt 0.603930 0.193043
vt 0.096655 0.192669
vt 0.095260 0.190252
vt 0.098051 0.190252
vt 0.601140 0.209143
vt 0.603930 0.209143
vt 0.602535 0.211560
vt 0.077764 0.192669
vt 0.076369 0.190252
vt 0.079159 0.190252
vt 0.622448 0.191647
vt 0.620031 0.193043
vt 0.620031 0.190252
vt 0.096655 0.171735
vt 0.098051 0.174151
vt 0.095260 0.174151
vt 0.621426 0.211560
vt 0.620031 0.209143
vt 0.622821 0.209143
vt 0.076369 0.174151
vt 0.077764 0.171735
vt 0.079159 0.174151
vt 0.095260 0.193043
vt 0.079159 0.193043
vt 0.620031 0.211934
vt 0.603930 0.211934
vt 0.622821 0.193043
vt 0.079159 0.171361
vt 0.095260 0.171361
vt 0.603930 0.190252
vt 0.098051 0.193043
vt 0.601140 0.190252
vt 0.098051 0.209143
vt 0.601140 0.211934
vt 0.098051 0.211934
vt 0.098051 0.152470
vt 0.601140 0.152470
vt 0.601140 0.155260
vt 0.098051 0.155260
vt 0.098051 0.171361
vt 0.601140 0.171361
vt 0.601140 0.174151
vt 0.601140 0.228034
vt 0.098051 0.228035
vt 0.601140 0.116942
vt 0.602535 0.114525
vt 0.603930 0.116942
vt 0.096655 0.116568
vt 0.095260 0.114151
vt 0.098051 0.114151
vt 0.601140 0.133042
vt 0.603930 0.133042
vt 0.602535 0.135459
vt 0.077764 0.116568
vt 0.076369 0.114151
vt 0.079159 0.114151
vt 0.622448 0.115547
vt 0.620031 0.116942
vt 0.620031 0.114151
vt 0.096655 0.095634
vt 0.098051 0.098051
vt 0.095260 0.098051
vt 0.621426 0.135459
vt 0.620031 0.133042
vt 0.622821 0.133043
vt 0.076369 0.098051
vt 0.077764 0.095634
vt 0.079159 0.098051
vt 0.095260 0.116942
vt 0.079159 0.116942
vt 0.620031 0.135833
vt 0.603930 0.135833
vt 0.622821 0.116942
vt 0.079159 0.095260
vt 0.095260 0.095260
vt 0.603930 0.114151
vt 0.098051 0.116942
vt 0.601140 0.114151
vt 0.098051 0.133043
vt 0.601140 0.135833
vt 0.098051 0.135833
vt 0.098051 0.076369
vt 0.601140 0.076369
vt 0.601140 0.079159
vt 0.098051 0.079159
vt 0.098051 0.095260
vt 0.601140 0.095260
vt 0.601140 0.098051
vt 0.601140 0.151934
vt 0.098051 0.151934
vt 0.035260 0.525039
vt 0.037677 0.526434
vt 0.035260 0.527829
vt 0.035634 0.020554
vt 0.038050 0.019159
vt 0.038050 0.021950
vt 0.019159 0.525039
vt 0.019159 0.527829
vt 0.016743 0.526434
vt 0.035634 0.001663
vt 0.038050 0.000268
vt 0.038050 0.003059
vt 0.036655 0.546347
vt 0.035260 0.543930
vt 0.038050 0.543930
vt 0.056568 0.020554
vt 0.054151 0.021950
vt 0.054151 0.019159
vt 0.016743 0.545325
vt 0.019159 0.543930
vt 0.019159 0.546720
vt 0.054151 0.000268
vt 0.056568 0.001663
vt 0.054151 0.003059
vt 0.035260 0.019159
vt 0.035260 0.003059
vt 0.016369 0.543930
vt 0.016369 0.527829
vt 0.035260 0.546721
vt 0.056942 0.003059
vt 0.056942 0.019159
vt 0.038050 0.527829
vt 0.035260 0.021950
vt 0.038050 0.525039
vt 0.019159 0.021950
vt 0.016369 0.525039
vt 0.016369 0.021950
vt 0.075833 0.021950
vt 0.075833 0.525039
vt 0.073042 0.525039
vt 0.073042 0.021950
vt 0.056942 0.021950
vt 0.056942 0.525039
vt 0.054151 0.525039
vt 0.000268 0.525039
vt 0.000268 0.021950
vt 0.601140 0.040841
vt 0.602535 0.038424
vt 0.603930 0.040841
vt 0.096655 0.040467
vt 0.095260 0.038050
vt 0.098051 0.038050
vt 0.601140 0.056942
vt 0.603930 0.056942
vt 0.602535 0.059358
vt 0.077764 0.040467
vt 0.076369 0.038050
vt 0.079159 0.038050
vt 0.622448 0.039446
vt 0.620031 0.040841
vt 0.620031 0.038050
vt 0.096655 0.019533
vt 0.098051 0.021950
vt 0.095260 0.021950
vt 0.621426 0.059358
vt 0.620031 0.056942
vt 0.622821 0.056942
vt 0.076369 0.021950
vt 0.077764 0.019533
vt 0.079159 0.021950
vt 0.095260 0.040841
vt 0.079159 0.040841
vt 0.620031 0.059732
vt 0.603930 0.059732
vt 0.622821 0.040841
vt 0.079159 0.019159
vt 0.095260 0.019159
vt 0.603930 0.038050
vt 0.098051 0.040841
vt 0.601140 0.038050
vt 0.098051 0.056942
vt 0.601140 0.059732
vt 0.098051 0.059732
vt 0.098051 0.000268
vt 0.601140 0.000268
vt 0.601140 0.003058
vt 0.098051 0.003059
vt 0.098051 0.019159
vt 0.601140 0.019159
vt 0.601140 0.021950
vt 0.601140 0.075833
vt 0.098051 0.075833
s 0
usemtl UV
f 1/1/1 2/2/2 3/3/3
f 4/4/4 5/5/5 6/6/6
f 7/7/7 8/8/8 9/9/9
f 10/10/10 11/11/11 12/12/12
f 13/13/13 14/14/14 15/15/15
f 16/16/16 17/17/17 18/18/18
f 19/19/19 20/20/20 21/21/21
f 22/22/22 23/23/23 24/24/24
f 7/7/25 1/1/26 3/3/27 8/8/28
f 2/25/29 4/26/30 6/6/31 3/27/27
f 5/5/32 10/10/33 12/28/34 6/6/31
f 11/11/35 9/29/36 8/30/28 12/31/34
f 19/19/19 7/7/7 9/32/9 20/20/20
f 10/10/10 22/22/22 24/24/24 11/11/11
f 23/33/37 21/34/38 20/35/39 24/24/40
f 13/13/41 19/19/42 21/36/38 14/37/43
f 22/22/44 16/16/45 18/18/46 23/38/37
f 17/39/47 15/40/48 14/41/43 18/18/46
f 1/1/1 13/13/13 15/15/15 2/42/2
f 16/16/16 5/5/5 4/43/4 17/44/17
f 7/7/7 19/19/19 13/13/13 1/1/1
f 3/27/49 6/6/6 12/28/50 8/45/8
f 15/15/51 17/44/52 4/43/53 2/42/54
f 22/22/22 10/10/10 5/5/5 16/16/16
f 9/29/55 11/11/56 24/24/57 20/35/58
f 21/46/59 23/38/23 18/18/60 14/41/14
f 25/47/1 26/48/2 27/49/3
f 28/50/4 29/51/5 30/52/6
f 31/53/7 32/54/8 33/55/9
f 34/56/10 35/57/11 36/58/12
f 37/59/13 38/60/14 39/61/15
f 40/62/16 41/63/17 42/64/18
f 43/65/19 44/66/20 45/67/21
f 46/68/22 47/69/23 48/70/24
f 31/53/25 25/47/26 27/49/27 32/54/28
f 26/71/29 28/72/30 30/52/31 27/73/27
f 29/51/32 34/56/33 36/74/34 30/52/31
f 35/57/35 33/75/36 32/76/28 36/77/34
f 43/65/19 31/53/7 33/78/9 44/66/20
f 34/56/10 46/68/22 48/70/24 35/57/11
f 47/79/37 45/80/38 44/81/39 48/70/40
f 37/59/41 43/65/42 45/82/38 38/83/43
f 46/68/44 40/62/45 42/64/46 47/84/37
f 41/85/47 39/86/48 38/87/43 42/64/46
f 25/47/1 37/59/13 39/61/15 26/88/2
f 40/62/16 29/51/5 28/89/4 41/90/17
f 31/53/7 43/65/19 37/59/13 25/47/1
f 27/73/49 30/52/6 36/74/50 32/91/8
f 39/61/51 41/90/52 28/89/53 26/88/54
f 46/68/22 34/56/10 29/51/5 40/62/16
f 33/75/55 35/57/56 48/70/57 44/81/58
f 45/92/59 47/84/23 42/64/60 38/87/14
f 49/93/1 50/94/2 51/95/3
f 52/96/4 53/97/5 54/98/31
f 55/99/7 56/100/28 57/101/9
f 58/102/10 59/103/11 60/104/12
f 61/105/13 62/106/43 63/107/15
f 64/108/16 65/109/17 66/110/18
f 67/111/19 68/112/20 69/113/21
f 70/114/22 71/115/37 72/116/24
f 55/99/25 49/93/26 51/95/27 56/100/28
f 50/117/29 52/118/30 54/98/31 51/119/27
f 53/97/32 58/102/33 60/120/34 54/98/31
f 59/103/35 57/121/36 56/122/28 60/123/34
f 67/111/19 55/99/7 57/124/9 68/112/20
f 58/102/10 70/114/22 72/116/24 59/103/11
f 71/125/37 69/126/38 68/127/39 72/116/40
f 61/105/41 67/111/42 69/128/38 62/129/43
f 70/114/44 64/108/45 66/110/46 71/130/37
f 65/131/47 63/132/48 62/133/43 66/110/46
f 49/93/1 61/105/13 63/107/15 50/134/2
f 64/108/16 53/97/5 52/135/4 65/136/17
f 55/99/7 67/111/19 61/105/13 49/93/1
f 51/119/49 54/98/6 60/120/50 56/137/8
f 63/107/51 65/136/52 52/135/53 50/134/54
f 70/114/22 58/102/10 53/97/5 64/108/16
f 57/121/55 59/103/56 72/116/57 68/127/58
f 69/138/59 71/130/23 66/110/60 62/133/14
f 73/139/1 74/140/2 75/141/3
f 76/142/4 77/143/5 78/144/6
f 79/145/7 80/146/8 81/147/9
f 82/148/10 83/149/11 84/150/12
f 85/151/13 86/152/14 87/153/15
f 88/154/16 89/155/17 90/156/18
f 91/157/19 92/158/20 93/159/21
f 94/160/22 95/161/23 96/162/24
f 79/145/25 73/139/26 75/141/27 80/146/28
f 74/163/29 76/164/30 78/144/31 75/165/27
f 77/143/32 82/148/33 84/166/34 78/144/31
f 83/149/35 81/167/36 80/168/28 84/169/34
f 91/157/19 79/145/7 81/170/9 92/158/20
f 82/148/10 94/160/22 96/162/24 83/149/11
f 95/171/37 93/172/38 92/173/39 96/162/40
f 85/151/41 91/157/42 93/174/38 86/175/43
f 94/160/44 88/154/45 90/156/46 95/176/37
f 89/177/47 87/178/48 86/179/43 90/156/46
f 73/139/1 85/151/13 87/153/15 74/180/2
f 88/154/16 77/143/5 76/181/4 89/182/17
f 79/145/7 91/157/19 85/151/13 73/139/1
f 75/165/49 78/144/6 84/166/50 80/183/8
f 87/153/51 89/182/52 76/181/53 74/180/54
f 94/160/22 82/148/10 77/143/5 88/154/16
f 81/167/55 83/149/56 96/162/57 92/173/58
f 93/184/59 95/176/23 90/156/60 86/179/14
f 97/185/1 98/186/2 99/187/3
f 100/188/4 101/189/5 102/190/6
f 103/191/7 104/192/28 105/193/9
f 106/194/10 107/195/11 108/196/12
f 109/197/13 110/198/43 111/199/15
f 112/200/16 113/201/17 114/202/18
f 115/203/19 116/204/20 117/205/21
f 118/206/22 119/207/23 120/208/24
f 103/191/25 97/185/26 99/187/27 104/192/28
f 98/209/29 100/210/30 102/190/31 99/211/27
f 101/189/32 106/194/33 108/212/34 102/190/31
f 107/195/35 105/213/36 104/214/28 108/215/34
f 115/203/19 103/191/7 105/216/9 116/204/20
f 106/194/10 118/206/22 120/208/24 107/195/11
f 119/217/37 117/218/38 116/219/39 120/208/40
f 109/197/41 115/203/42 117/220/38 110/221/43
f 118/206/44 112/200/45 114/202/46 119/222/37
f 113/223/47 111/224/48 110/225/43 114/202/46
f 97/185/1 109/197/13 111/199/15 98/226/2
f 112/200/16 101/189/5 100/227/4 113/228/17
f 103/191/7 115/203/19 109/197/13 97/185/1
f 99/211/49 102/190/6 108/212/50 104/229/8
f 111/199/51 113/228/52 100/227/53 98/226/54
f 118/206/22 106/194/10 101/189/5 112/200/16
f 105/213/55 107/195/56 120/208/57 116/219/58
f 117/230/59 119/222/23 114/202/60 110/225/14
f 121/231/1 122/232/2 123/233/3
f 124/234/4 125/235/5 126/236/6
f 127/237/7 128/238/8 129/239/9
f 130/240/10 131/241/11 132/242/12
f 133/243/13 134/244/14 135/245/15
f 136/246/16 137/247/17 138/248/18
f 139/249/19 140/250/20 141/251/21
f 142/252/22 143/253/23 144/254/24
f 127/237/25 121/231/26 123/233/27 128/238/28
f 122/255/29 124/256/30 126/236/31 123/257/27
f 125/235/32 130/240/33 132/258/34 126/236/31
f 131/241/35 129/259/36 128/260/28 132/261/34
f 139/249/19 127/237/7 129/262/9 140/250/20
f 130/240/10 142/252/22 144/254/24 131/241/11
f 143/263/37 141/264/38 140/265/39 144/254/40
f 133/243/41 139/249/42 141/266/38 134/267/43
f 142/252/44 136/246/45 138/248/46 143/268/37
f 137/269/47 135/270/48 134/271/43 138/248/46
f 121/231/1 133/243/13 135/245/15 122/272/2
f 136/246/16 125/235/5 124/273/4 137/274/17
f 127/237/7 139/249/19 133/243/13 121/231/1
f 123/257/49 126/236/6 132/258/50 128/275/8
f 135/245/51 137/274/52 124/273/53 122/272/54
f 142/252/22 130/240/10 125/235/5 136/246/16
f 129/259/55 131/241/56 144/254/57 140/265/58
f 141/276/59 143/268/23 138/248/60 134/271/14
f 145/277/61 146/278/62 147/279/63
f 148/280/64 149/281/65 150/282/66
f 151/283/67 152/284/68 153/285/69
f 154/286/70 155/287/71 156/288/72
f 157/289/73 158/290/74 159/291/75
f 160/292/76 161/293/77 162/294/78
f 163/295/79 164/296/80 165/297/81
f 166/298/82 167/299/83 168/300/84
f 151/283/85 145/277/86 147/279/63 152/284/68
f 148/301/87 154/302/88 156/288/72 149/281/89
f 163/303/90 153/304/91 152/284/68 164/296/80
f 155/287/92 166/298/93 168/300/84 156/288/72
f 157/305/73 165/297/94 164/296/80 158/290/74
f 167/306/95 160/307/96 162/294/97 168/300/84
f 146/308/98 159/291/99 158/290/74 147/279/63
f 161/293/100 150/282/101 149/281/89 162/294/97
f 145/277/61 148/309/64 150/282/66 146/310/62
f 154/311/70 151/283/67 153/312/69 155/313/71
f 166/314/82 163/315/79 165/316/81 167/317/83
f 160/318/76 157/319/102 159/320/75 161/293/77
f 152/284/68 147/279/63 158/290/74 164/296/80
f 146/310/62 150/282/66 161/293/77 159/320/75
f 151/283/67 154/311/70 148/309/64 145/277/61
f 168/300/84 162/294/97 149/281/89 156/288/72
f 163/321/79 166/322/82 155/313/71 153/312/69
f 157/319/102 160/318/76 167/317/83 165/316/81
f 169/323/61 170/324/62 171/325/63
f 172/326/64 173/327/65 174/328/66
f 175/329/67 176/330/68 177/331/69
f 178/332/70 179/333/71 180/334/103
f 181/335/73 182/336/74 183/337/75
f 184/338/76 185/339/77 186/340/97
f 187/341/79 188/342/80 189/343/81
f 190/344/104 191/345/83 192/346/105
f 175/329/85 169/323/86 171/325/63 176/330/68
f 172/347/87 178/348/88 180/334/72 173/327/89
f 187/349/90 177/350/91 176/330/68 188/342/80
f 179/333/92 190/344/93 192/346/84 180/334/72
f 181/351/73 189/343/94 188/342/80 182/336/74
f 191/352/95 184/353/96 186/340/97 192/346/84
f 170/354/98 183/337/99 182/336/74 171/325/63
f 185/339/100 174/328/101 173/327/89 186/340/97
f 169/323/61 172/355/64 174/328/66 170/356/62
f 178/357/70 175/329/67 177/358/69 179/359/71
f 190/360/82 187/361/79 189/362/81 191/363/83
f 184/364/76 181/365/102 183/366/75 185/339/77
f 176/330/68 171/325/63 182/336/74 188/342/80
f 170/356/62 174/328/66 185/339/77 183/366/75
f 175/329/67 178/357/70 172/355/64 169/323/61
f 192/346/84 186/340/97 173/327/89 180/334/72
f 187/367/79 190/368/82 179/359/71 177/358/69
f 181/365/102 184/364/76 191/363/83 189/362/81
f 193/369/61 194/370/62 195/371/63
f 196/372/64 197/373/65 198/374/66
f 199/375/67 200/376/68 201/377/69
f 202/378/70 203/379/71 204/380/72
f 205/381/102 206/382/74 207/383/75
f 208/384/76 209/385/77 210/386/78
f 211/387/79 212/388/80 213/389/81
f 214/390/82 215/391/83 216/392/84
f 199/375/85 193/369/86 195/371/63 200/376/68
f 196/393/87 202/394/88 204/380/72 197/373/89
f 211/395/90 201/396/91 200/376/68 212/388/80
f 203/379/92 214/390/93 216/392/84 204/380/72
f 205/397/73 213/389/94 212/388/80 206/382/74
f 215/398/95 208/399/96 210/386/97 216/392/84
f 194/400/98 207/383/99 206/382/74 195/371/63
f 209/385/100 198/374/101 197/373/89 210/386/97
f 193/369/61 196/401/64 198/374/66 194/402/62
f 202/403/70 199/375/67 201/404/69 203/405/71
f 214/406/82 211/407/79 213/408/81 215/409/83
f 208/410/76 205/411/102 207/412/75 209/385/77
f 200/376/68 195/371/63 206/382/74 212/388/80
f 194/402/62 198/374/66 209/385/77 207/412/75
f 199/375/67 202/403/70 196/401/64 193/369/61
f 216/392/84 210/386/97 197/373/89 204/380/72
f 211/413/79 214/414/82 203/405/71 201/404/69
f 205/411/102 208/410/76 215/409/83 213/408/81
f 217/415/61 218/416/62 219/417/63
f 220/418/64 221/419/65 222/420/66
f 223/421/67 224/422/68 225/423/69
f 226/424/70 227/425/71 228/426/103
f 229/427/102 230/428/74 231/429/75
f 232/430/76 233/431/77 234/432/97
f 235/433/79 236/434/80 237/435/106
f 238/436/104 239/437/83 240/438/105
f 223/421/85 217/415/86 219/417/63 224/422/68
f 220/439/87 226/440/88 228/426/72 221/419/89
f 235/441/90 225/442/91 224/422/68 236/434/80
f 227/425/92 238/436/93 240/438/84 228/426/72
f 229/443/73 237/435/94 236/434/80 230/428/74
f 239/444/95 232/445/96 234/432/97 240/438/84
f 218/446/98 231/429/99 230/428/74 219/417/63
f 233/431/100 222/420/101 221/419/89 234/432/97
f 217/415/61 220/447/64 222/420/66 218/448/62
f 226/449/70 223/421/67 225/450/69 227/451/71
f 238/452/82 235/453/79 237/454/81 239/455/83
f 232/456/76 229/457/102 231/458/75 233/431/77
f 224/422/68 219/417/63 230/428/74 236/434/80
f 218/448/62 222/420/66 233/431/77 231/458/75
f 223/421/67 226/449/70 220/447/64 217/415/61
f 240/438/84 234/432/97 221/419/89 228/426/72
f 235/459/79 238/460/82 227/451/71 225/450/69
f 229/457/102 232/456/76 239/455/83 237/454/81
