# Blender 5.0.1
# www.blender.org
mtllib MechanicalBelts.mtl
o Belt_body_01
v -3.881021 0.974764 1.000478
v -3.928057 1.051800 1.000478
v -3.829783 0.923526 1.000478
v -3.778570 0.902313 1.000478
v -3.829783 1.256574 1.000478
v -3.778570 1.277787 1.000478
v -3.881021 1.205336 1.000478
v -3.928057 1.128299 1.000478
v -3.812929 0.819362 0.970000
v -3.798031 0.849362 1.000000
v -3.853463 0.872323 1.000000
v -3.864142 0.840576 0.970000
v -3.937762 0.921086 1.000000
v -3.981008 1.032339 1.000000
v -4.011008 1.017441 0.970000
v -3.962449 0.903347 0.970000
v -3.934481 1.248080 1.000000
v -3.959169 1.265819 0.970000
v -4.011008 1.162659 0.970000
v -3.981008 1.147761 1.000000
v -3.853463 1.307776 1.000000
v -3.798031 1.330737 1.000000
v -3.812929 1.360737 0.970000
v -3.864142 1.339524 0.970000
v -3.829783 0.923526 1.111075
v -3.778570 0.902313 1.111075
v -3.796143 0.932313 1.141075
v -3.881021 0.974764 1.111075
v -3.863905 1.000075 1.141075
v -3.928057 1.051800 1.111075
v -3.881021 1.205336 1.111075
v -3.928057 1.128299 1.111075
v -3.863906 1.180025 1.141075
v -3.829783 1.256574 1.111075
v -3.796143 1.247787 1.141075
v -3.778570 1.277787 1.111075
v -3.812929 0.819362 0.000000
v -3.864142 0.840576 0.000000
v -4.011008 1.017441 0.000000
v -3.962449 0.903347 0.000000
v -3.812929 1.360737 0.000000
v -3.864142 1.339524 0.000000
v -4.011008 1.162659 0.000000
v -3.959169 1.265819 0.000000
v -3.812929 0.819362 0.940944
v -3.962449 0.903347 0.940944
v -3.864142 1.339524 0.940944
v -4.011008 1.162659 0.940944
v -3.864142 0.840576 0.940944
v -4.011008 1.017441 0.940944
v -3.812929 1.360737 0.940944
v -3.959169 1.265819 0.940944
v -3.829783 1.256574 1.014060
v -3.778570 1.277787 1.014060
v -3.829783 0.923526 1.014060
v -3.928057 1.051800 1.014060
v -3.881021 0.974764 1.014060
v -3.881021 1.205336 1.014060
v -3.778570 0.902313 1.014060
v -3.928057 1.128299 1.014060
v 3.881021 0.974764 1.000478
v 3.928057 1.051800 1.000478
v 3.829783 0.923526 1.000478
v 3.778570 0.902313 1.000478
v 3.829783 1.256574 1.000478
v 3.778570 1.277787 1.000478
v 3.881021 1.205336 1.000478
v 3.928057 1.128299 1.000478
v 3.812929 0.819362 0.970000
v 3.798031 0.849362 1.000000
v 3.853463 0.872323 1.000000
v 3.864142 0.840576 0.970000
v 3.937762 0.921086 1.000000
v 3.981008 1.032339 1.000000
v 4.011008 1.017441 0.970000
v 3.962449 0.903347 0.970000
v 3.934481 1.248080 1.000000
v 3.959169 1.265819 0.970000
v 4.011008 1.162659 0.970000
v 3.981008 1.147761 1.000000
v 3.853463 1.307776 1.000000
v 3.798031 1.330737 1.000000
v 3.812929 1.360737 0.970000
v 3.864142 1.339524 0.970000
v 3.829783 0.923526 1.111075
v 3.778570 0.902313 1.111075
v 3.796143 0.932313 1.141075
v 3.881021 0.974764 1.111075
v 3.863905 1.000075 1.141075
v 3.928057 1.051800 1.111075
v 3.881021 1.205336 1.111075
v 3.928057 1.128299 1.111075
v 3.863906 1.180025 1.141075
v 3.829783 1.256574 1.111075
v 3.796143 1.247787 1.141075
v 3.778570 1.277787 1.111075
v 3.812929 0.819362 0.000000
v 3.864142 0.840576 0.000000
v 4.011008 1.017441 0.000000
v 3.962449 0.903347 0.000000
v 3.812929 1.360737 0.000000
v 3.864142 1.339524 0.000000
v 4.011008 1.162659 0.000000
v 3.959169 1.265819 0.000000
v 3.812929 0.819362 0.940944
v 3.962449 0.903347 0.940944
v 3.864142 1.339524 0.940944
v 4.011008 1.162659 0.940944
v 3.864142 0.840576 0.940944
v 4.011008 1.017441 0.940944
v 3.812929 1.360737 0.940944
v 3.959169 1.265819 0.940944
v 3.829783 1.256574 1.014060
v 3.778570 1.277787 1.014060
v 3.829783 0.923526 1.014060
v 3.928057 1.051800 1.014060
v 3.881021 0.974764 1.014060
v 3.881021 1.205336 1.014060
v 3.778570 0.902313 1.014060
v 3.928057 1.128299 1.014060
v -3.881021 0.974764 -1.000478
v -3.928057 1.051800 -1.000478
v -3.829783 0.923526 -1.000478
v -3.778570 0.902313 -1.000478
v -3.829783 1.256574 -1.000478
v -3.778570 1.277787 -1.000478
v -3.881021 1.205336 -1.000478
v -3.928057 1.128299 -1.000478
v -3.812929 0.819362 -0.970000
v -3.798031 0.849362 -1.000000
v -3.853463 0.872323 -1.000000
v -3.864142 0.840576 -0.970000
v -3.937762 0.921086 -1.000000
v -3.981008 1.032339 -1.000000
v -4.011008 1.017441 -0.970000
v -3.962449 0.903347 -0.970000
v -3.934481 1.248080 -1.000000
v -3.959169 1.265819 -0.970000
v -4.011008 1.162659 -0.970000
v -3.981008 1.147761 -1.000000
v -3.853463 1.307776 -1.000000
v -3.798031 1.330737 -1.000000
v -3.812929 1.360737 -0.970000
v -3.864142 1.339524 -0.970000
v -3.829783 0.923526 -1.111075
v -3.778570 0.902313 -1.111075
v -3.796143 0.932313 -1.141075
v -3.881021 0.974764 -1.111075
v -3.863905 1.000075 -1.141075
v -3.928057 1.051800 -1.111075
v -3.881021 1.205336 -1.111075
v -3.928057 1.128299 -1.111075
v -3.863906 1.180025 -1.141075
v -3.829783 1.256574 -1.111075
v -3.796143 1.247787 -1.141075
v -3.778570 1.277787 -1.111075
v -3.812929 0.819362 -0.940944
v -3.962449 0.903347 -0.940944
v -3.864142 1.339524 -0.940944
v -4.011008 1.162659 -0.940944
v -3.864142 0.840576 -0.940944
v -4.011008 1.017441 -0.940944
v -3.812929 1.360737 -0.940944
v -3.959169 1.265819 -0.940944
v -3.829783 1.256574 -1.014060
v -3.778570 1.277787 -1.014060
v -3.829783 0.923526 -1.014060
v -3.928057 1.051800 -1.014060
v -3.881021 0.974764 -1.014060
v -3.881021 1.205336 -1.014060
v -3.778570 0.902313 -1.014060
v -3.928057 1.128299 -1.014060
v 3.881021 0.974764 -1.000478
v 3.928057 1.051800 -1.000478
v 3.829783 0.923526 -1.000478
v 3.778570 0.902313 -1.000478
v 3.829783 1.256574 -1.000478
v 3.778570 1.277787 -1.000478
v 3.881021 1.205336 -1.000478
v 3.928057 1.128299 -1.000478
v 3.812929 0.819362 -0.970000
v 3.798031 0.849362 -1.000000
v 3.853463 0.872323 -1.000000
v 3.864142 0.840576 -0.970000
v 3.937762 0.921086 -1.000000
v 3.981008 1.032339 -1.000000
v 4.011008 1.017441 -0.970000
v 3.962449 0.903347 -0.970000
v 3.934481 1.248080 -1.000000
v 3.959169 1.265819 -0.970000
v 4.011008 1.162659 -0.970000
v 3.981008 1.147761 -1.000000
v 3.853463 1.307776 -1.000000
v 3.798031 1.330737 -1.000000
v 3.812929 1.360737 -0.970000
v 3.864142 1.339524 -0.970000
v 3.829783 0.923526 -1.111075
v 3.778570 0.902313 -1.111075
v 3.796143 0.932313 -1.141075
v 3.881021 0.974764 -1.111075
v 3.863905 1.000075 -1.141075
v 3.928057 1.051800 -1.111075
v 3.881021 1.205336 -1.111075
v 3.928057 1.128299 -1.111075
v 3.863906 1.180025 -1.141075
v 3.829783 1.256574 -1.111075
v 3.796143 1.247787 -1.141075
v 3.778570 1.277787 -1.111075
v 3.812929 0.819362 -0.940944
v 3.962449 0.903347 -0.940944
v 3.864142 1.339524 -0.940944
v 4.011008 1.162659 -0.940944
v 3.864142 0.840576 -0.940944
v 4.011008 1.017441 -0.940944
v 3.812929 1.360737 -0.940944
v 3.959169 1.265819 -0.940944
v 3.829783 1.256574 -1.014060
v 3.778570 1.277787 -1.014060
v 3.829783 0.923526 -1.014060
v 3.928057 1.051800 -1.014060
v 3.881021 0.974764 -1.014060
v 3.881021 1.205336 -1.014060
v 3.778570 0.902313 -1.014060
v 3.928057 1.128299 -1.014060
vn -0.0026 -0.8914 0.4531
vn -0.0010 -0.3454 0.9385
vn -0.1595 -0.2960 0.9418
vn -0.4272 -0.7767 0.4628
vn -0.2494 -0.2030 0.9469
vn -0.3511 -0.0665 0.9340
vn -0.8744 -0.1645 0.4565
vn -0.6807 -0.5599 0.4725
vn -0.2625 0.2137 0.9410
vn -0.6835 0.5622 0.4655
vn -0.8692 0.1828 0.4594
vn -0.3510 0.0746 0.9334
vn -0.1838 0.2925 0.9384
vn -0.0010 0.3454 0.9385
vn -0.0026 0.8915 0.4531
vn -0.4766 0.7463 0.4647
vn -0.5786 -0.7915 0.1968
vn -0.0024 -0.9733 0.2295
vn -0.0008 -0.0861 0.9963
vn -0.7735 -0.6046 0.1901
vn -0.0028 -0.0010 1.0000
vn -0.8780 -0.2325 0.4184
vn -0.7735 0.6046 0.1900
vn -0.8780 0.2325 0.4183
vn -0.0028 0.0011 1.0000
vn -0.5786 0.7915 0.1968
vn -0.0008 0.0861 0.9963
vn -0.0024 0.9733 0.2295
vn -0.0028 -1.0000 -0.0000
vn -0.4897 -0.8719 -0.0000
vn -0.9789 0.2043 -0.0000
vn -0.7693 0.6388 -0.0000
vn 0.0008 -0.0861 0.9963
vn 0.0028 -0.0011 1.0000
vn 0.0028 0.0010 1.0000
vn 0.0008 0.0861 0.9963
vn 0.0008 -0.2558 0.9667
vn 0.0028 -1.0000 -0.0000
vn -0.0007 -0.2557 0.9667
vn -0.1133 -0.1611 0.9804
vn -0.1797 -0.0546 0.9822
vn -0.1439 -0.1103 0.9834
vn -0.1893 0.0576 0.9802
vn -0.1556 0.1192 0.9806
vn -0.0007 0.2558 0.9667
vn -0.1177 0.1668 0.9789
vn 0.0026 -0.8914 0.4531
vn 0.0010 -0.3454 0.9385
vn 0.0010 0.3454 0.9385
vn 0.0026 0.8915 0.4531
vn -0.5774 0.8165 -0.0000
vn -0.0028 1.0000 -0.0000
vn -0.5774 -0.8165 -0.0000
vn -0.9561 -0.2929 -0.0000
vn -0.7938 -0.6082 -0.0000
vn -0.9561 0.2929 -0.0000
vn -0.7938 0.6082 -0.0000
vn 0.0024 -0.9733 0.2295
vn 0.0007 0.2558 0.9667
vn -0.7693 -0.6389 -0.0000
vn 0.0024 0.9733 0.2295
vn 0.0028 1.0000 -0.0000
vn -0.5444 0.8388 -0.0000
vn -0.9829 -0.1841 -0.0000
vn -0.0028 1.0000 0.0001
vn -0.0007 0.2557 -0.9667
vn 0.0008 0.2557 -0.9668
vn 0.4272 -0.7767 0.4628
vn 0.1595 -0.2960 0.9418
vn 0.2493 -0.2030 0.9469
vn 0.6807 -0.5599 0.4725
vn 0.8742 -0.1650 0.4566
vn 0.3511 -0.0665 0.9340
vn 0.2625 0.2137 0.9410
vn 0.3510 0.0746 0.9334
vn 0.8692 0.1828 0.4594
vn 0.6835 0.5622 0.4655
vn 0.1839 0.2926 0.9384
vn 0.4766 0.7463 0.4647
vn 0.5786 -0.7915 0.1968
vn 0.7735 -0.6046 0.1901
vn 0.8780 -0.2325 0.4183
vn 0.7735 0.6046 0.1900
vn 0.8780 0.2325 0.4184
vn 0.5786 0.7915 0.1968
vn 0.4897 -0.8719 -0.0000
vn 0.9789 0.2043 -0.0000
vn 0.7693 0.6388 -0.0000
vn 0.1133 -0.1611 0.9804
vn 0.1797 -0.0545 0.9822
vn 0.1439 -0.1103 0.9834
vn 0.1555 0.1193 0.9806
vn 0.1893 0.0576 0.9802
vn 0.1176 0.1669 0.9789
vn 0.5774 0.8165 -0.0000
vn 0.5774 -0.8165 -0.0000
vn 0.9561 -0.2929 -0.0000
vn 0.7938 -0.6082 -0.0000
vn 0.9561 0.2929 -0.0000
vn 0.7938 0.6082 -0.0000
vn 0.7693 -0.6389 -0.0000
vn 0.5444 0.8388 -0.0000
vn 0.9829 -0.1841 -0.0000
vn -0.0026 -0.8915 -0.4531
vn -0.4272 -0.7767 -0.4628
vn -0.1595 -0.2960 -0.9418
vn -0.0010 -0.3454 -0.9385
vn -0.2493 -0.2030 -0.9469
vn -0.6807 -0.5599 -0.4725
vn -0.8742 -0.1650 -0.4566
vn -0.3511 -0.0665 -0.9340
vn -0.2625 0.2137 -0.9410
vn -0.3510 0.0746 -0.9334
vn -0.8692 0.1828 -0.4594
vn -0.6835 0.5622 -0.4655
vn -0.1839 0.2926 -0.9384
vn -0.4766 0.7463 -0.4647
vn -0.0026 0.8914 -0.4531
vn -0.0010 0.3454 -0.9385
vn -0.5786 -0.7915 -0.1968
vn -0.0008 -0.0861 -0.9963
vn -0.0024 -0.9733 -0.2295
vn -0.7735 -0.6046 -0.1901
vn -0.8780 -0.2325 -0.4183
vn -0.0028 -0.0011 -1.0000
vn -0.7735 0.6046 -0.1900
vn -0.0028 0.0010 -1.0000
vn -0.8780 0.2325 -0.4184
vn -0.5786 0.7915 -0.1968
vn -0.0024 0.9733 -0.2295
vn -0.0008 0.0861 -0.9963
vn 0.0008 0.0861 -0.9963
vn 0.0028 0.0011 -1.0000
vn 0.0028 -0.0010 -1.0000
vn 0.0008 -0.0861 -0.9963
vn 0.0007 -0.2557 -0.9667
vn -0.0008 -0.2558 -0.9667
vn -0.1133 -0.1611 -0.9804
vn -0.1797 -0.0545 -0.9822
vn -0.1439 -0.1103 -0.9834
vn -0.1555 0.1193 -0.9806
vn -0.1893 0.0576 -0.9802
vn -0.1176 0.1669 -0.9789
vn 0.0010 -0.3454 -0.9385
vn 0.0026 -0.8915 -0.4531
vn 0.0026 0.8914 -0.4531
vn 0.0010 0.3454 -0.9385
vn 0.0024 -0.9733 -0.2295
vn 0.0024 0.9733 -0.2295
vn 0.1595 -0.2960 -0.9418
vn 0.4272 -0.7767 -0.4628
vn 0.2494 -0.2030 -0.9469
vn 0.3511 -0.0665 -0.9340
vn 0.8744 -0.1645 -0.4565
vn 0.6807 -0.5599 -0.4725
vn 0.2625 0.2137 -0.9410
vn 0.6835 0.5622 -0.4655
vn 0.8692 0.1828 -0.4594
vn 0.3510 0.0746 -0.9334
vn 0.1838 0.2925 -0.9384
vn 0.4766 0.7463 -0.4647
vn 0.5786 -0.7915 -0.1968
vn 0.7735 -0.6046 -0.1901
vn 0.8780 -0.2325 -0.4184
vn 0.7735 0.6046 -0.1900
vn 0.8780 0.2325 -0.4183
vn 0.5786 0.7915 -0.1968
vn 0.1133 -0.1611 -0.9804
vn 0.1797 -0.0546 -0.9822
vn 0.1439 -0.1103 -0.9834
vn 0.1893 0.0576 -0.9802
vn 0.1556 0.1192 -0.9806
vn 0.1177 0.1668 -0.9789
vt 0.134067 0.478314
vt 0.136661 0.479261
vt 0.135221 0.482610
vt 0.132752 0.481450
vt 0.133584 0.488043
vt 0.135602 0.494619
vt 0.132993 0.495285
vt 0.131086 0.488199
vt 0.144953 0.503680
vt 0.143964 0.506050
vt 0.138003 0.502393
vt 0.139526 0.500123
vt 0.150861 0.504554
vt 0.154452 0.504291
vt 0.154563 0.507051
vt 0.151140 0.507263
vt 0.127352 0.046199
vt 0.130432 0.043729
vt 0.130524 0.046998
vt 0.124891 0.050244
vt 0.126809 0.051866
vt 0.123142 0.054671
vt 0.124870 0.062777
vt 0.123193 0.058427
vt 0.126670 0.061228
vt 0.127373 0.066744
vt 0.130524 0.065838
vt 0.130540 0.069116
vt 0.114506 0.000248
vt 0.116243 0.000248
vt 0.116243 0.003563
vt 0.114506 0.003563
vt 0.114506 0.026633
vt 0.116243 0.026633
vt 0.116243 0.033536
vt 0.114506 0.033536
vt 0.583916 0.046998
vt 0.587768 0.051664
vt 0.587590 0.060967
vt 0.583916 0.065838
vt 0.582867 0.037860
vt 0.582867 0.038671
vt 0.131573 0.038671
vt 0.131573 0.037860
vt 0.139778 0.480778
vt 0.138401 0.483891
vt 0.138787 0.493664
vt 0.138159 0.488288
vt 0.141502 0.497406
vt 0.146436 0.499852
vt 0.154135 0.500876
vt 0.150717 0.501110
vt 0.116739 0.290876
vt 0.568574 0.290876
vt 0.567624 0.293369
vt 0.117622 0.293390
vt 0.573525 0.322895
vt 0.575429 0.324831
vt 0.121166 0.069517
vt 0.128942 0.070304
vt 0.122711 0.073049
vt 0.122387 0.039539
vt 0.129009 0.042423
vt 0.120807 0.043287
vt 0.117672 0.054192
vt 0.116739 0.054109
vt 0.118032 0.047883
vt 0.118953 0.048153
vt 0.117848 0.059186
vt 0.119293 0.064989
vt 0.582867 0.044465
vt 0.131573 0.044465
vt 0.571289 0.320369
vt 0.116243 0.010537
vt 0.114506 0.010537
vt 0.131573 0.068371
vt 0.582867 0.068371
vt 0.582867 0.074165
vt 0.131573 0.074165
vt 0.114506 0.040727
vt 0.058246 0.040727
vt 0.058246 0.033536
vt 0.114506 0.017950
vt 0.058246 0.026633
vt 0.058246 0.017950
vt 0.114506 0.044041
vt 0.058246 0.044041
vt 0.058246 0.010537
vt 0.116243 0.017951
vt 0.116243 0.044041
vt 0.116243 0.040727
vt 0.116243 0.500000
vt 0.114506 0.500000
vt 0.058246 0.003563
vt 0.058246 0.000248
vt 0.058246 0.500000
vt 0.120304 0.069883
vt 0.118414 0.065279
vt 0.116949 0.059312
vt 0.119884 0.042919
vt 0.121464 0.039152
vt 0.121843 0.073427
vt 0.058246 0.543793
vt 0.114506 0.543793
vt 0.114506 0.999752
vt 0.058246 0.999752
vt 0.116243 0.543793
vt 0.116243 0.999752
vt 0.566575 0.296532
vt 0.118775 0.296528
vt 0.131439 0.000248
vt 0.582733 0.000248
vt 0.582733 0.001059
vt 0.131439 0.001059
vt 0.571733 0.291979
vt 0.570929 0.294551
vt 0.575915 0.297008
vt 0.577706 0.295319
vt 0.581504 0.301453
vt 0.579272 0.302875
vt 0.579477 0.315674
vt 0.580578 0.309391
vt 0.583230 0.309826
vt 0.581841 0.316560
vt 0.576129 0.320498
vt 0.577883 0.322520
vt 0.587104 0.046097
vt 0.583914 0.043685
vt 0.589621 0.050080
vt 0.591211 0.054410
vt 0.589488 0.062516
vt 0.591150 0.058090
vt 0.587107 0.066608
vt 0.584041 0.069118
vt 0.114506 0.540479
vt 0.116243 0.540479
vt 0.114506 0.517408
vt 0.114506 0.510505
vt 0.116243 0.510505
vt 0.116243 0.517408
vt 0.569704 0.297664
vt 0.576445 0.304515
vt 0.573014 0.300449
vt 0.575736 0.314162
vt 0.577301 0.308980
vt 0.573757 0.318077
vt 0.593441 0.069258
vt 0.591966 0.072862
vt 0.585609 0.070240
vt 0.591797 0.039885
vt 0.593291 0.043410
vt 0.585579 0.042549
vt 0.596649 0.053703
vt 0.595130 0.047946
vt 0.595999 0.047658
vt 0.597567 0.053592
vt 0.596577 0.058730
vt 0.595227 0.064635
vt 0.114506 0.533505
vt 0.116243 0.533505
vt 0.114506 0.503314
vt 0.058246 0.510505
vt 0.058246 0.503314
vt 0.114506 0.526091
vt 0.058246 0.526091
vt 0.058246 0.517408
vt 0.058246 0.533505
vt 0.116243 0.526091
vt 0.116243 0.503314
vt 0.058246 0.540479
vt 0.594321 0.069606
vt 0.596122 0.064909
vt 0.597488 0.058838
vt 0.594153 0.043053
vt 0.592663 0.039520
vt 0.592851 0.073222
vt 0.561187 0.262033
vt 0.562467 0.265102
vt 0.560040 0.266237
vt 0.558648 0.262944
vt 0.561629 0.271572
vt 0.564081 0.271733
vt 0.562184 0.278683
vt 0.559626 0.278020
vt 0.550415 0.286884
vt 0.555754 0.283410
vt 0.557242 0.285644
vt 0.551377 0.289214
vt 0.544611 0.287725
vt 0.544330 0.290380
vt 0.540977 0.290162
vt 0.541086 0.287465
vt 0.127202 0.029128
vt 0.130390 0.028226
vt 0.130393 0.031539
vt 0.124685 0.025144
vt 0.123095 0.020815
vt 0.126538 0.023560
vt 0.124818 0.012709
vt 0.126716 0.014258
vt 0.123156 0.017134
vt 0.127199 0.008616
vt 0.130265 0.006106
vt 0.130390 0.009386
vt 0.001986 0.000248
vt 0.001986 0.003563
vt 0.000248 0.003563
vt 0.000248 0.000248
vt 0.001986 0.026633
vt 0.001986 0.033536
vt 0.000248 0.033536
vt 0.000248 0.026633
vt 0.583782 0.009386
vt 0.587636 0.013996
vt 0.587497 0.023358
vt 0.583782 0.028226
vt 0.582733 0.037364
vt 0.131439 0.037364
vt 0.131439 0.036553
vt 0.582733 0.036553
vt 0.556916 0.267479
vt 0.555581 0.264416
vt 0.556503 0.277072
vt 0.557137 0.271797
vt 0.548972 0.283121
vt 0.553824 0.280736
vt 0.541403 0.284097
vt 0.544764 0.284340
vt 0.585946 0.078049
vt 0.132398 0.077991
vt 0.131427 0.075472
vt 0.586851 0.075472
vt 0.124484 0.109397
vt 0.126393 0.107456
vt 0.120865 0.005967
vt 0.122340 0.002362
vt 0.128697 0.004984
vt 0.122509 0.035339
vt 0.121015 0.031814
vt 0.128727 0.032675
vt 0.117657 0.021521
vt 0.119176 0.027278
vt 0.118307 0.027567
vt 0.116739 0.021632
vt 0.117729 0.016494
vt 0.119079 0.010589
vt 0.131439 0.030759
vt 0.582733 0.030759
vt 0.128619 0.104948
vt 0.001986 0.010536
vt 0.000248 0.010537
vt 0.582733 0.006853
vt 0.131439 0.006853
vt 0.001986 0.040727
vt 0.001986 0.017951
vt 0.001986 0.044041
vt 0.000248 0.017950
vt 0.000248 0.044041
vt 0.000248 0.040727
vt 0.001986 0.500000
vt 0.000248 0.500000
vt 0.119985 0.005618
vt 0.118184 0.010316
vt 0.116818 0.016386
vt 0.120153 0.032172
vt 0.121644 0.035704
vt 0.121455 0.002002
vt 0.001985 0.999752
vt 0.001986 0.543793
vt 0.000248 0.999752
vt 0.000248 0.543793
vt 0.584763 0.081265
vt 0.133439 0.081170
vt 0.129074 0.079160
vt 0.128270 0.076604
vt 0.124087 0.081609
vt 0.120715 0.087457
vt 0.118492 0.086029
vt 0.122305 0.079918
vt 0.120466 0.100235
vt 0.118102 0.101112
vt 0.116739 0.094384
vt 0.119389 0.093958
vt 0.123794 0.105061
vt 0.122035 0.107077
vt 0.586954 0.029025
vt 0.583874 0.031495
vt 0.589415 0.024980
vt 0.591164 0.020554
vt 0.589436 0.012448
vt 0.591113 0.016797
vt 0.586933 0.008481
vt 0.583766 0.006108
vt 0.000248 0.540479
vt 0.001986 0.540479
vt 0.001986 0.517408
vt 0.000248 0.517408
vt 0.000248 0.510505
vt 0.001986 0.510505
vt 0.130291 0.082287
vt 0.123532 0.089105
vt 0.126973 0.085057
vt 0.122662 0.093559
vt 0.124207 0.098739
vt 0.126167 0.102654
vt 0.593140 0.005707
vt 0.585364 0.004920
vt 0.591595 0.002175
vt 0.591919 0.035685
vt 0.585297 0.032801
vt 0.593499 0.031937
vt 0.596634 0.021033
vt 0.597567 0.021115
vt 0.596274 0.027341
vt 0.595353 0.027071
vt 0.596458 0.016038
vt 0.595013 0.010235
vt 0.000248 0.533505
vt 0.001986 0.533505
vt 0.001986 0.503314
vt 0.001986 0.526091
vt 0.000248 0.526091
vt 0.000248 0.503314
vt 0.594002 0.005341
vt 0.595892 0.009946
vt 0.597357 0.015912
vt 0.594422 0.032306
vt 0.592842 0.036072
vt 0.592463 0.001797
vt 0.582867 0.074976
vt 0.131573 0.074976
s 1
usemtl UV
f 9/1/1 10/2/2 11/3/3 12/4/4
f 13/5/5 14/6/6 15/7/7 16/8/8
f 17/9/9 18/10/10 19/11/11 20/12/12
f 21/13/13 22/14/14 23/15/15 24/16/16
f 25/17/17 26/18/18 27/19/19
f 28/20/20 29/21/21 30/22/22
f 31/23/23 32/24/24 33/25/25
f 34/26/26 35/27/27 36/28/28
f 45/29/29 9/30/1 12/31/4 49/32/30
f 11/3/3 13/5/5 16/8/8 12/4/4
f 17/9/9 21/13/13 24/16/16 18/10/10
f 48/33/31 19/34/11 18/35/10 52/36/32
f 27/19/19 87/37/33 89/38/34 93/39/35 95/40/36 35/27/27 33/25/25 29/21/21
f 14/6/6 20/12/12 19/11/11 15/7/7
f 64/41/37 119/42/38 59/43/29 4/44/39
f 10/2/2 4/45/39 3/46/40 11/3/3
f 2/47/41 14/6/6 13/5/5 1/48/42
f 20/12/12 8/49/43 7/50/44 17/9/9
f 6/51/45 22/14/14 21/13/13 5/52/46
f 27/19/19 29/21/21 28/20/20 25/17/17
f 33/25/25 35/27/27 34/26/26 31/23/23
f 9/53/1 69/54/47 70/55/48 10/56/2
f 29/21/21 33/25/25 32/24/24 30/22/22
f 22/14/14 82/57/49 83/58/50 23/15/15
f 53/59/51 34/26/26 36/60/28 54/61/52
f 59/62/29 26/63/18 25/17/17 55/64/53
f 56/65/54 2/66/41 1/67/42 57/68/55
f 60/69/56 32/24/24 31/23/23 58/70/57
f 57/68/55 55/64/53 25/17/17 28/20/20
f 2/47/41 8/49/43 20/12/12 14/6/6
f 3/46/40 1/48/42 13/5/5 11/3/3
f 60/69/56 56/65/54 30/22/22 32/24/24
f 119/42/38 86/71/58 26/72/18 59/43/29
f 53/59/51 58/70/57 31/23/23 34/26/26
f 7/50/44 5/52/46 21/13/13 17/9/9
f 66/73/59 82/57/49 22/14/14 6/51/45
f 49/32/30 12/31/4 16/74/8 46/75/60
f 36/76/28 96/77/61 114/78/62 54/79/52
f 47/80/63 42/81/63 44/82/32 52/36/32
f 50/83/64 48/33/31 43/84/31 39/85/64
f 51/86/52 41/87/65 42/81/63 47/80/63
f 50/83/64 39/85/64 40/88/60 46/75/60
f 15/89/7 50/83/64 46/75/60 16/74/8
f 23/90/15 51/86/52 47/80/63 24/91/16
f 15/89/7 19/34/11 48/33/31 50/83/64
f 24/91/16 47/80/63 52/36/32 18/35/10
f 23/90/15 83/92/50 111/93/62 51/86/52
f 38/94/30 49/32/30 46/75/60 40/88/60
f 43/84/31 48/33/31 52/36/32 44/82/32
f 37/95/29 45/29/29 49/32/30 38/94/30
f 51/86/52 111/93/62 101/96/62 41/87/65
f 5/97/46 7/98/44 58/70/57 53/59/51
f 8/99/43 2/66/41 56/65/54 60/69/56
f 1/67/42 3/100/40 55/64/53 57/68/55
f 8/99/43 60/69/56 58/70/57 7/98/44
f 30/22/22 56/65/54 57/68/55 28/20/20
f 4/101/39 59/62/29 55/64/53 3/100/40
f 5/97/46 53/59/51 54/61/52 6/102/45
f 35/27/27 95/40/36 96/77/61 36/76/28
f 97/103/38 105/104/38 45/105/29 37/106/29
f 105/104/38 69/107/47 9/108/1 45/105/29
f 10/56/2 70/55/48 64/109/37 4/110/39
f 26/72/18 86/71/58 87/37/33 27/19/19
f 126/111/66 178/112/67 218/113/62 166/114/52
f 69/54/47 72/115/68 71/116/69 70/55/48
f 73/117/70 76/118/71 75/119/72 74/120/73
f 77/121/74 80/122/75 79/123/76 78/124/77
f 81/125/78 84/126/79 83/58/50 82/57/49
f 85/127/80 87/37/33 86/128/58
f 88/129/81 90/130/82 89/38/34
f 91/131/83 93/39/35 92/132/84
f 94/133/85 96/134/61 95/40/36
f 105/104/38 109/135/86 72/136/68 69/107/47
f 71/116/69 72/115/68 76/118/71 73/117/70
f 77/121/74 78/124/77 84/126/79 81/125/78
f 108/137/87 112/138/88 78/139/77 79/140/76
f 74/120/73 75/119/72 79/123/76 80/122/75
f 70/55/48 71/116/69 63/141/89 64/109/37
f 62/142/90 61/143/91 73/117/70 74/120/73
f 80/122/75 77/121/74 67/144/92 68/145/93
f 66/73/59 65/146/94 81/125/78 82/57/49
f 87/37/33 85/127/80 88/129/81 89/38/34
f 93/39/35 91/131/83 94/133/85 95/40/36
f 89/38/34 90/130/82 92/132/84 93/39/35
f 113/147/95 114/148/62 96/149/61 94/133/85
f 119/150/38 115/151/96 85/127/80 86/152/58
f 116/153/97 117/154/98 61/155/91 62/156/90
f 120/157/99 118/158/100 91/131/83 92/132/84
f 117/154/98 88/129/81 85/127/80 115/151/96
f 62/142/90 74/120/73 80/122/75 68/145/93
f 63/141/89 71/116/69 73/117/70 61/143/91
f 120/157/99 92/132/84 90/130/82 116/153/97
f 113/147/95 94/133/85 91/131/83 118/158/100
f 67/144/92 77/121/74 81/125/78 65/146/94
f 109/135/86 106/159/101 76/160/71 72/136/68
f 107/161/102 112/138/88 104/162/88 102/163/102
f 110/164/103 99/165/103 103/166/87 108/137/87
f 111/93/62 107/161/102 102/163/102 101/96/62
f 110/164/103 106/159/101 100/167/101 99/165/103
f 75/168/72 76/160/71 106/159/101 110/164/103
f 83/92/50 84/169/79 107/161/102 111/93/62
f 75/168/72 110/164/103 108/137/87 79/140/76
f 84/169/79 78/139/77 112/138/88 107/161/102
f 98/170/86 100/167/101 106/159/101 109/135/86
f 103/166/87 104/162/88 112/138/88 108/137/87
f 97/103/38 98/170/86 109/135/86 105/104/38
f 65/171/94 113/147/95 118/158/100 67/172/92
f 68/173/93 120/157/99 116/153/97 62/156/90
f 61/155/91 117/154/98 115/151/96 63/174/89
f 68/173/93 67/172/92 118/158/100 120/157/99
f 90/130/82 88/129/81 117/154/98 116/153/97
f 64/175/37 63/174/89 115/151/96 119/150/38
f 65/171/94 66/176/59 114/148/62 113/147/95
f 129/177/104 132/178/105 131/179/106 130/180/107
f 133/181/108 136/182/109 135/183/110 134/184/111
f 137/185/112 140/186/113 139/187/114 138/188/115
f 141/189/116 144/190/117 143/191/118 142/192/119
f 145/193/120 147/194/121 146/195/122
f 148/196/123 150/197/124 149/198/125
f 151/199/126 153/200/127 152/201/128
f 154/202/129 156/203/130 155/204/131
f 157/205/29 161/206/30 132/207/105 129/208/104
f 131/179/106 132/178/105 136/182/109 133/181/108
f 137/185/112 138/188/115 144/190/117 141/189/116
f 160/209/31 164/210/32 138/211/115 139/212/114
f 155/204/131 207/213/132 205/214/133 201/215/134 199/216/135 147/194/121 149/198/125 153/200/127
f 134/184/111 135/183/110 139/187/114 140/186/113
f 176/217/136 124/218/137 171/219/29 223/220/38
f 130/180/107 131/179/106 123/221/138 124/222/137
f 122/223/139 121/224/140 133/181/108 134/184/111
f 140/186/113 137/185/112 127/225/141 128/226/142
f 126/227/66 125/228/143 141/189/116 142/192/119
f 147/194/121 145/193/120 148/196/123 149/198/125
f 153/200/127 151/199/126 154/202/129 155/204/131
f 130/229/107 182/230/144 181/231/145 129/232/104
f 149/198/125 150/197/124 152/201/128 153/200/127
f 143/191/118 195/233/146 194/234/147 142/192/119
f 165/235/51 166/236/52 156/237/130 154/202/129
f 171/238/29 167/239/53 145/193/120 146/240/122
f 168/241/54 169/242/55 121/243/140 122/244/139
f 172/245/56 170/246/57 151/199/126 152/201/128
f 169/242/55 148/196/123 145/193/120 167/239/53
f 122/223/139 134/184/111 140/186/113 128/226/142
f 123/221/138 131/179/106 133/181/108 121/224/140
f 172/245/56 152/201/128 150/197/124 168/241/54
f 223/220/38 171/219/29 146/247/122 198/248/148
f 165/235/51 154/202/129 151/199/126 170/246/57
f 127/225/141 137/185/112 141/189/116 125/228/143
f 178/249/67 126/227/66 142/192/119 194/234/147
f 161/206/30 158/250/60 136/251/109 132/207/105
f 166/114/52 218/113/62 208/252/149 156/253/130
f 159/254/63 164/210/32 44/82/32 42/81/63
f 162/255/64 39/85/64 43/84/31 160/209/31
f 163/256/52 159/254/63 42/81/63 41/87/65
f 162/255/64 158/250/60 40/88/60 39/85/64
f 135/257/110 136/251/109 158/250/60 162/255/64
f 143/258/118 144/259/117 159/254/63 163/256/52
f 135/257/110 162/255/64 160/209/31 139/212/114
f 144/259/117 138/211/115 164/210/32 159/254/63
f 163/256/52 215/260/62 195/261/146 143/258/118
f 38/94/30 40/88/60 158/250/60 161/206/30
f 43/84/31 44/82/32 164/210/32 160/209/31
f 37/95/29 38/94/30 161/206/30 157/205/29
f 41/87/65 101/96/62 215/260/62 163/256/52
f 125/262/143 165/235/51 170/246/57 127/263/141
f 128/264/142 172/245/56 168/241/54 122/244/139
f 121/243/140 169/242/55 167/239/53 123/265/138
f 128/264/142 127/263/141 170/246/57 172/245/56
f 150/197/124 148/196/123 169/242/55 168/241/54
f 124/266/137 123/265/138 167/239/53 171/238/29
f 125/262/143 126/267/66 166/236/52 165/235/51
f 156/253/130 208/252/149 207/213/132 155/204/131
f 97/103/38 37/106/29 157/268/29 209/269/38
f 209/269/38 157/268/29 129/270/104 181/271/145
f 124/272/137 176/273/136 182/230/144 130/229/107
f 147/194/121 199/216/135 198/248/148 146/247/122
f 181/231/145 182/230/144 183/274/150 184/275/151
f 185/276/152 186/277/153 187/278/154 188/279/155
f 189/280/156 190/281/157 191/282/158 192/283/159
f 193/284/160 194/234/147 195/233/146 196/285/161
f 197/286/162 198/287/148 199/216/135
f 200/288/163 201/215/134 202/289/164
f 203/290/165 204/291/166 205/214/133
f 206/292/167 207/213/132 208/293/149
f 209/269/38 181/271/145 184/294/151 213/295/86
f 183/274/150 185/276/152 188/279/155 184/275/151
f 189/280/156 193/284/160 196/285/161 190/281/157
f 212/296/87 191/297/158 190/298/157 216/299/88
f 186/277/153 192/283/159 191/282/158 187/278/154
f 182/230/144 176/273/136 175/300/168 183/274/150
f 174/301/169 186/277/153 185/276/152 173/302/170
f 192/283/159 180/303/171 179/304/172 189/280/156
f 178/249/67 194/234/147 193/284/160 177/305/173
f 199/216/135 201/215/134 200/288/163 197/286/162
f 205/214/133 207/213/132 206/292/167 203/290/165
f 201/215/134 205/214/133 204/291/166 202/289/164
f 217/306/95 206/292/167 208/307/149 218/308/62
f 223/309/38 198/310/148 197/286/162 219/311/96
f 220/312/97 174/313/169 173/314/170 221/315/98
f 224/316/99 204/291/166 203/290/165 222/317/100
f 221/315/98 219/311/96 197/286/162 200/288/163
f 174/301/169 180/303/171 192/283/159 186/277/153
f 175/300/168 173/302/170 185/276/152 183/274/150
f 224/316/99 220/312/97 202/289/164 204/291/166
f 217/306/95 222/317/100 203/290/165 206/292/167
f 179/304/172 177/305/173 193/284/160 189/280/156
f 213/295/86 184/294/151 188/318/155 210/319/101
f 211/320/102 102/163/102 104/162/88 216/299/88
f 214/321/103 212/296/87 103/166/87 99/165/103
f 215/260/62 101/96/62 102/163/102 211/320/102
f 214/321/103 99/165/103 100/167/101 210/319/101
f 187/322/154 214/321/103 210/319/101 188/318/155
f 195/261/146 215/260/62 211/320/102 196/323/161
f 187/322/154 191/297/158 212/296/87 214/321/103
f 196/323/161 211/320/102 216/299/88 190/298/157
f 98/170/86 213/295/86 210/319/101 100/167/101
f 103/166/87 212/296/87 216/299/88 104/162/88
f 97/103/38 209/269/38 213/295/86 98/170/86
f 177/324/173 179/325/172 222/317/100 217/306/95
f 180/326/171 174/313/169 220/312/97 224/316/99
f 173/314/170 175/327/168 219/311/96 221/315/98
f 180/326/171 224/316/99 222/317/100 179/325/172
f 202/289/164 220/312/97 221/315/98 200/288/163
f 176/328/136 223/309/38 219/311/96 175/327/168
f 177/324/173 217/306/95 218/308/62 178/329/67
f 54/79/52 114/78/62 66/330/59 6/331/45
o Belt_texture_01
v -2.887755 0.812354 0.924398
v -3.710906 1.364137 0.924398
v -2.887754 0.812354 -0.930870
v -3.710907 1.364136 -0.930870
v -3.056417 0.812297 0.924398
v -3.225078 0.812241 0.924398
v -3.393739 0.812127 0.924398
v -3.562397 0.811976 0.924398
v -3.731058 0.811653 0.924398
v -3.897756 0.826756 0.924398
v -4.017700 0.939570 0.924398
v -4.053895 1.102461 0.924398
v -4.011423 1.263582 0.924398
v -3.879229 1.359512 0.924398
v -3.879229 1.359512 -0.930870
v -4.011423 1.263582 -0.930870
v -4.053895 1.102461 -0.930870
v -4.017700 0.939570 -0.930870
v -3.897757 0.826756 -0.930870
v -3.731058 0.811652 -0.930870
v -3.562397 0.811975 -0.930870
v -3.393738 0.812127 -0.930870
v -3.225077 0.812241 -0.930869
v -3.056416 0.812297 -0.930870
v -3.710906 1.364137 0.924398
v -1.855639 1.365990 0.924398
v -3.710907 1.364136 -0.930870
v -1.855640 1.365990 -0.930870
v -3.542245 1.364168 0.924398
v -3.373585 1.364286 0.924398
v -3.204924 1.364422 0.924398
v -3.036263 1.364600 0.924398
v -2.867603 1.364778 0.924398
v -2.698943 1.364959 0.924398
v -2.530282 1.365162 0.924398
v -2.361621 1.365365 0.924398
v -2.192961 1.365569 0.924398
v -2.024300 1.365775 0.924398
v -2.024300 1.365775 -0.930870
v -2.192961 1.365569 -0.930870
v -2.361621 1.365365 -0.930870
v -2.530282 1.365162 -0.930870
v -2.698943 1.364958 -0.930870
v -2.867603 1.364777 -0.930870
v -3.036263 1.364600 -0.930870
v -3.204925 1.364422 -0.930870
v -3.373585 1.364286 -0.930870
v -3.542245 1.364168 -0.930870
v -1.855639 1.365990 0.924398
v -0.000373 1.368379 0.924398
v -1.855640 1.365990 -0.930870
v -0.000374 1.368378 -0.930870
v -1.686979 1.366205 0.924398
v -1.518318 1.366420 0.924398
v -1.349658 1.366635 0.924398
v -1.180997 1.366853 0.924398
v -1.012337 1.367072 0.924398
v -0.843676 1.367290 0.924398
v -0.675016 1.367509 0.924398
v -0.506355 1.367728 0.924398
v -0.337695 1.367945 0.924398
v -0.169034 1.368162 0.924398
v -0.169035 1.368161 -0.930870
v -0.337695 1.367945 -0.930870
v -0.506356 1.367728 -0.930870
v -0.675016 1.367509 -0.930870
v -0.843676 1.367290 -0.930870
v -1.012337 1.367072 -0.930870
v -1.180997 1.366853 -0.930870
v -1.349658 1.366635 -0.930870
v -1.518318 1.366420 -0.930870
v -1.686979 1.366205 -0.930870
v -0.000373 1.368379 0.924398
v 1.854893 1.370637 0.924398
v -0.000374 1.368378 -0.930870
v 1.854893 1.370637 -0.930870
v 0.168288 1.368595 0.924398
v 0.336948 1.368812 0.924398
v 0.505608 1.369021 0.924398
v 0.674269 1.369230 0.924398
v 0.842929 1.369439 0.924398
v 1.011590 1.369649 0.924398
v 1.180250 1.369856 0.924398
v 1.348911 1.370051 0.924398
v 1.517571 1.370247 0.924398
v 1.686232 1.370442 0.924398
v 1.686232 1.370442 -0.930870
v 1.517571 1.370246 -0.930870
v 1.348910 1.370051 -0.930870
v 1.180250 1.369856 -0.930870
v 1.011589 1.369648 -0.930870
v 0.842929 1.369439 -0.930870
v 0.674268 1.369230 -0.930870
v 0.505608 1.369021 -0.930870
v 0.336947 1.368811 -0.930870
v 0.168287 1.368595 -0.930870
v 1.854893 1.370637 0.924398
v 3.710159 1.372133 0.924398
v 1.854893 1.370637 -0.930870
v 3.710159 1.372132 -0.930870
v 2.023553 1.370823 0.924398
v 2.192214 1.370995 0.924398
v 2.360874 1.371167 0.924398
v 2.529535 1.371339 0.924398
v 2.698195 1.371506 0.924398
v 2.866856 1.371639 0.924398
v 3.035516 1.371772 0.924398
v 3.204176 1.371905 0.924398
v 3.372838 1.372010 0.924398
v 3.541499 1.372071 0.924398
v 3.541498 1.372071 -0.930870
v 3.372838 1.372010 -0.930870
v 3.204176 1.371905 -0.930870
v 3.035516 1.371772 -0.930870
v 2.866856 1.371639 -0.930870
v 2.698195 1.371506 -0.930870
v 2.529535 1.371338 -0.930870
v 2.360874 1.371166 -0.930870
v 2.192214 1.370994 -0.930870
v 2.023553 1.370822 -0.930870
v 3.710159 1.372133 0.924398
v 2.849646 0.811525 0.924398
v 3.710159 1.372132 -0.930870
v 2.849647 0.811524 -0.930869
v 3.876662 1.356528 0.924398
v 3.997895 1.243959 0.924398
v 4.038994 1.082574 0.924398
v 3.990194 0.923280 0.924398
v 3.860685 0.820615 0.924398
v 3.692950 0.811401 0.924398
v 3.524289 0.811417 0.924398
v 3.355628 0.811432 0.924398
v 3.186967 0.811461 0.924398
v 3.018307 0.811493 0.924398
v 3.018308 0.811492 -0.930869
v 3.186968 0.811460 -0.930869
v 3.355629 0.811432 -0.930870
v 3.524289 0.811416 -0.930869
v 3.692950 0.811401 -0.930870
v 3.860687 0.820615 -0.930870
v 3.990194 0.923280 -0.930870
v 4.038994 1.082574 -0.930870
v 3.997895 1.243959 -0.930870
v 3.876662 1.356527 -0.930870
vn -0.3173 0.9483 -0.0000
vn -0.0275 0.9996 -0.0000
vn 0.0003 -1.0000 -0.0000
vn 0.0007 -1.0000 -0.0000
vn 0.0010 -1.0000 -0.0000
vn 0.0009 -1.0000 -0.0000
vn 0.0015 -1.0000 -0.0000
vn 0.0014 -1.0000 -0.0000
vn -0.0440 -0.9990 -0.0000
vn -0.4075 -0.9132 -0.0000
vn -0.4076 -0.9132 -0.0000
vn -0.8701 -0.4928 -0.0000
vn -0.8702 -0.4928 0.0001
vn -0.9998 0.0193 -0.0000
vn -0.8702 -0.4928 -0.0000
vn -0.9998 0.0194 -0.0000
vn -0.8271 0.5620 -0.0000
vn -0.8271 0.5621 -0.0000
vn -0.3174 0.9483 -0.0000
vn -0.0013 1.0000 -0.0000
vn -0.0002 1.0000 -0.0000
vn -0.0004 1.0000 -0.0000
vn -0.0007 1.0000 -0.0000
vn -0.0008 1.0000 -0.0000
vn -0.0011 1.0000 -0.0000
vn -0.0012 1.0000 -0.0000
vn -0.0010 1.0000 -0.0000
vn -0.0006 1.0000 -0.0000
vn -0.0002 -1.0000 -0.0000
vn 0.0933 0.9956 -0.0000
vn 0.4069 0.9135 -0.0000
vn 0.4070 0.9135 -0.0000
vn 0.8603 0.5098 -0.0000
vn 0.4070 0.9134 -0.0000
vn 0.8603 0.5097 -0.0000
vn 0.9997 -0.0240 -0.0000
vn 0.9997 -0.0241 -0.0000
vn 0.8267 -0.5627 -0.0000
vn 0.8266 -0.5627 -0.0000
vn 0.3523 -0.9359 -0.0000
vn 0.3522 -0.9359 -0.0001
vn 0.0274 -0.9996 -0.0000
vn 0.3522 -0.9359 -0.0000
vn 0.0273 -0.9996 -0.0000
vn -0.0001 -1.0000 -0.0000
vt 0.909091 0.000000
vt 1.000000 0.000000
vt 1.000000 1.000000
vt 0.909091 1.000000
vt 0.000000 0.000000
vt 0.090909 0.000000
vt 0.090909 1.000000
vt 0.000000 1.000000
vt 0.181818 0.000000
vt 0.181818 1.000000
vt 0.272727 0.000000
vt 0.272727 1.000000
vt 0.363636 0.000000
vt 0.363636 1.000000
vt 0.454545 0.000000
vt 0.454545 1.000000
vt 0.545455 0.000000
vt 0.545455 1.000000
vt 0.636364 0.000000
vt 0.636364 1.000000
vt 0.727273 0.000000
vt 0.727273 1.000000
vt 0.818182 0.000000
vt 0.818182 1.000000
s 0
usemtl Pás
f 238/332/174 226/333/175 228/334/175 239/335/174
f 225/336/176 229/337/176 248/338/176 227/339/176
f 229/337/176 230/340/176 247/341/176 248/338/176
f 230/340/177 231/342/178 246/343/178 247/341/177
f 231/342/179 232/344/180 245/345/180 246/343/179
f 232/344/181 233/346/182 244/347/182 245/345/181
f 233/346/182 234/348/183 243/349/183 244/347/182
f 234/348/184 235/350/185 242/351/185 243/349/184
f 235/350/186 236/352/187 241/353/187 242/351/188
f 236/352/189 237/354/190 240/355/190 241/353/189
f 237/354/191 238/332/192 239/335/192 240/355/191
f 262/332/193 250/333/193 252/334/193 263/335/193
f 249/336/194 253/337/194 272/338/194 251/339/194
f 253/337/195 254/340/196 271/341/196 272/338/195
f 254/340/197 255/342/197 270/343/197 271/341/197
f 255/342/198 256/344/198 269/345/198 270/343/198
f 256/344/198 257/346/198 268/347/198 269/345/198
f 257/346/198 258/348/198 267/349/198 268/347/198
f 258/348/199 259/350/199 266/351/199 267/349/199
f 259/350/199 260/352/199 265/353/199 266/351/199
f 260/352/199 261/354/199 264/355/199 265/353/199
f 261/354/199 262/332/199 263/335/199 264/355/199
f 286/332/193 274/333/193 276/334/193 287/335/193
f 273/336/193 277/337/193 296/338/193 275/339/193
f 277/337/193 278/340/193 295/341/193 296/338/193
f 278/340/193 279/342/193 294/343/193 295/341/193
f 279/342/193 280/344/193 293/345/193 294/343/193
f 280/344/193 281/346/193 292/347/193 293/345/193
f 281/346/193 282/348/193 291/349/193 292/347/193
f 282/348/193 283/350/193 290/351/193 291/349/193
f 283/350/193 284/352/193 289/353/193 290/351/193
f 284/352/193 285/354/193 288/355/193 289/353/193
f 285/354/193 286/332/193 287/335/193 288/355/193
f 310/332/199 298/333/199 300/334/199 311/335/199
f 297/336/193 301/337/193 320/338/193 299/339/193
f 301/337/193 302/340/193 319/341/193 320/338/193
f 302/340/199 303/342/199 318/343/199 319/341/199
f 303/342/199 304/344/199 317/345/199 318/343/199
f 304/344/199 305/346/199 316/347/199 317/345/199
f 305/346/199 306/348/199 315/349/199 316/347/199
f 306/348/199 307/350/199 314/351/199 315/349/199
f 307/350/199 308/352/199 313/353/199 314/351/199
f 308/352/199 309/354/199 312/355/199 313/353/199
f 309/354/199 310/332/199 311/335/199 312/355/199
f 334/332/195 322/333/195 324/334/195 335/335/195
f 321/336/198 325/337/198 344/338/198 323/339/198
f 325/337/200 326/340/200 343/341/200 344/338/200
f 326/340/200 327/342/200 342/343/200 343/341/200
f 327/342/200 328/344/200 341/345/200 342/343/200
f 328/344/200 329/346/200 340/347/200 341/345/200
f 329/346/197 330/348/197 339/349/197 340/347/197
f 330/348/197 331/350/197 338/351/197 339/349/197
f 331/350/197 332/352/197 337/353/197 338/351/197
f 332/352/201 333/354/201 336/355/201 337/353/201
f 333/354/195 334/332/195 335/335/195 336/355/195
f 358/332/202 346/333/202 348/334/202 359/335/202
f 345/336/203 349/337/204 368/338/204 347/339/203
f 349/337/205 350/340/206 367/341/206 368/338/207
f 350/340/208 351/342/209 366/343/209 367/341/208
f 351/342/210 352/344/211 365/345/211 366/343/210
f 352/344/212 353/346/213 364/347/213 365/345/212
f 353/346/214 354/348/215 363/349/215 364/347/216
f 354/348/217 355/350/218 362/351/218 363/349/217
f 355/350/218 356/352/218 361/353/218 362/351/218
f 356/352/202 357/354/202 360/355/202 361/353/202
f 357/354/202 358/332/202 359/335/202 360/355/202
o Nozky_01
v -3.348585 0.055068 -1.198229
v -3.398585 0.055068 -1.148229
v -3.398585 0.005068 -1.198229
v -3.348585 0.055068 -1.383706
v -3.398585 0.005068 -1.383706
v -3.398585 0.055068 -1.433706
v -3.815591 0.055068 -1.198229
v -3.765591 0.005068 -1.198229
v -3.765591 0.055068 -1.148229
v -3.765591 0.055068 -1.433706
v -3.765591 0.005068 -1.383706
v -3.815591 0.055068 -1.383706
v -3.485761 1.160506 -1.148229
v -3.429695 1.175151 -1.198229
v -3.515050 1.210506 -1.198229
v -3.398585 1.073330 -1.148229
v -3.348585 1.044041 -1.198229
v -3.383940 1.129396 -1.198229
v -3.398585 1.073330 -1.433706
v -3.383940 1.129396 -1.383706
v -3.348585 1.044041 -1.383706
v -3.515050 1.210506 -1.383706
v -3.429695 1.175151 -1.383706
v -3.485761 1.160506 -1.433706
v -3.765591 1.073330 -1.148229
v -3.780236 1.129396 -1.198229
v -3.815591 1.044041 -1.198229
v -3.649126 1.210506 -1.198229
v -3.734481 1.175151 -1.198229
v -3.678415 1.160506 -1.148229
v -3.678415 1.160506 -1.433706
v -3.734481 1.175151 -1.383706
v -3.649126 1.210506 -1.383706
v -3.765591 1.073330 -1.433706
v -3.815591 1.044041 -1.383706
v -3.780236 1.129396 -1.383706
v -3.348585 0.055068 1.198229
v -3.398585 0.055068 1.148229
v -3.398585 0.005068 1.198229
v -3.348585 0.055068 1.383706
v -3.398585 0.005068 1.383706
v -3.398585 0.055068 1.433706
v -3.815591 0.055068 1.198229
v -3.765591 0.005068 1.198229
v -3.765591 0.055068 1.148229
v -3.765591 0.055068 1.433706
v -3.765591 0.005068 1.383706
v -3.815591 0.055068 1.383706
v -3.485761 1.160506 1.148229
v -3.429695 1.175151 1.198229
v -3.515050 1.210506 1.198229
v -3.398585 1.073330 1.148229
v -3.348585 1.044041 1.198229
v -3.383940 1.129396 1.198229
v -3.398585 1.073330 1.433706
v -3.383940 1.129396 1.383706
v -3.348585 1.044041 1.383706
v -3.515050 1.210506 1.383706
v -3.429695 1.175151 1.383706
v -3.485761 1.160506 1.433706
v -3.765591 1.073330 1.148229
v -3.780236 1.129396 1.198229
v -3.815591 1.044041 1.198229
v -3.649126 1.210506 1.198229
v -3.734481 1.175151 1.198229
v -3.678415 1.160506 1.148229
v -3.678415 1.160506 1.433706
v -3.734481 1.175151 1.383706
v -3.649126 1.210506 1.383706
v -3.765591 1.073330 1.433706
v -3.815591 1.044041 1.383706
v -3.780236 1.129396 1.383706
v -0.980864 0.055068 -1.198229
v -1.030864 0.055068 -1.148229
v -1.030864 0.005068 -1.198229
v -0.980864 0.055068 -1.383706
v -1.030864 0.005068 -1.383706
v -1.030864 0.055068 -1.433706
v -1.447870 0.055068 -1.198229
v -1.397870 0.005068 -1.198229
v -1.397870 0.055068 -1.148229
v -1.397870 0.055068 -1.433706
v -1.397870 0.005068 -1.383706
v -1.447870 0.055068 -1.383706
v -1.118040 1.160506 -1.148229
v -1.061974 1.175151 -1.198229
v -1.147329 1.210506 -1.198229
v -1.030864 1.073330 -1.148229
v -0.980864 1.044041 -1.198229
v -1.016219 1.129396 -1.198229
v -1.030864 1.073330 -1.433706
v -1.016219 1.129396 -1.383706
v -0.980864 1.044041 -1.383706
v -1.147329 1.210506 -1.383706
v -1.061974 1.175151 -1.383706
v -1.118040 1.160506 -1.433706
v -1.397870 1.073330 -1.148229
v -1.412514 1.129396 -1.198229
v -1.447870 1.044041 -1.198229
v -1.281404 1.210506 -1.198229
v -1.366760 1.175151 -1.198229
v -1.310694 1.160506 -1.148229
v -1.310694 1.160506 -1.433706
v -1.366760 1.175151 -1.383706
v -1.281404 1.210506 -1.383706
v -1.397870 1.073330 -1.433706
v -1.447870 1.044041 -1.383706
v -1.412514 1.129396 -1.383706
v -0.980864 0.055068 1.198229
v -1.030864 0.055068 1.148229
v -1.030864 0.005068 1.198229
v -0.980864 0.055068 1.383706
v -1.030864 0.005068 1.383706
v -1.030864 0.055068 1.433706
v -1.447870 0.055068 1.198229
v -1.397870 0.005068 1.198229
v -1.397870 0.055068 1.148229
v -1.397870 0.055068 1.433706
v -1.397870 0.005068 1.383706
v -1.447870 0.055068 1.383706
v -1.118040 1.160506 1.148229
v -1.061974 1.175151 1.198229
v -1.147329 1.210506 1.198229
v -1.030864 1.073330 1.148229
v -0.980864 1.044041 1.198229
v -1.016219 1.129396 1.198229
v -1.030864 1.073330 1.433706
v -1.016219 1.129396 1.383706
v -0.980864 1.044041 1.383706
v -1.147329 1.210506 1.383706
v -1.061974 1.175151 1.383706
v -1.118040 1.160506 1.433706
v -1.397870 1.073330 1.148229
v -1.412514 1.129396 1.198229
v -1.447870 1.044041 1.198229
v -1.281404 1.210506 1.198229
v -1.366760 1.175151 1.198229
v -1.310694 1.160506 1.148229
v -1.310694 1.160506 1.433706
v -1.366760 1.175151 1.383706
v -1.281404 1.210506 1.383706
v -1.397870 1.073330 1.433706
v -1.447870 1.044041 1.383706
v -1.412514 1.129396 1.383706
v 1.386858 0.055068 -1.198229
v 1.336858 0.055068 -1.148229
v 1.336858 0.005068 -1.198229
v 1.386858 0.055068 -1.383706
v 1.336858 0.005068 -1.383706
v 1.336858 0.055068 -1.433706
v 0.919852 0.055068 -1.198229
v 0.969851 0.005068 -1.198229
v 0.969851 0.055068 -1.148229
v 0.969851 0.055068 -1.433706
v 0.969851 0.005068 -1.383706
v 0.919852 0.055068 -1.383706
v 1.249682 1.160506 -1.148229
v 1.305748 1.175151 -1.198229
v 1.220392 1.210506 -1.198229
v 1.336858 1.073330 -1.148229
v 1.386858 1.044041 -1.198229
v 1.351502 1.129396 -1.198229
v 1.336858 1.073330 -1.433706
v 1.351502 1.129396 -1.383706
v 1.386858 1.044041 -1.383706
v 1.220392 1.210506 -1.383706
v 1.305748 1.175151 -1.383706
v 1.249682 1.160506 -1.433706
v 0.969851 1.073330 -1.148229
v 0.955207 1.129396 -1.198229
v 0.919852 1.044041 -1.198229
v 1.086317 1.210506 -1.198229
v 1.000962 1.175151 -1.198229
v 1.057028 1.160506 -1.148229
v 1.057028 1.160506 -1.433706
v 1.000962 1.175151 -1.383706
v 1.086317 1.210506 -1.383706
v 0.969851 1.073330 -1.433706
v 0.919852 1.044041 -1.383706
v 0.955207 1.129396 -1.383706
v 1.386858 0.055068 1.198229
v 1.336858 0.055068 1.148229
v 1.336858 0.005068 1.198229
v 1.386858 0.055068 1.383706
v 1.336858 0.005068 1.383706
v 1.336858 0.055068 1.433706
v 0.919852 0.055068 1.198229
v 0.969851 0.005068 1.198229
v 0.969851 0.055068 1.148229
v 0.969851 0.055068 1.433706
v 0.969851 0.005068 1.383706
v 0.919852 0.055068 1.383706
v 1.249682 1.160506 1.148229
v 1.305748 1.175151 1.198229
v 1.220392 1.210506 1.198229
v 1.336858 1.073330 1.148229
v 1.386858 1.044041 1.198229
v 1.351502 1.129396 1.198229
v 1.336858 1.073330 1.433706
v 1.351502 1.129396 1.383706
v 1.386858 1.044041 1.383706
v 1.220392 1.210506 1.383706
v 1.305748 1.175151 1.383706
v 1.249682 1.160506 1.433706
v 0.969851 1.073330 1.148229
v 0.955207 1.129396 1.198229
v 0.919852 1.044041 1.198229
v 1.086317 1.210506 1.198229
v 1.000962 1.175151 1.198229
v 1.057028 1.160506 1.148229
v 1.057028 1.160506 1.433706
v 1.000962 1.175151 1.383706
v 1.086317 1.210506 1.383706
v 0.969851 1.073330 1.433706
v 0.919852 1.044041 1.383706
v 0.955207 1.129396 1.383706
v 3.754579 0.055068 -1.198229
v 3.704579 0.055068 -1.148229
v 3.704579 0.005068 -1.198229
v 3.754579 0.055068 -1.383706
v 3.704579 0.005068 -1.383706
v 3.704579 0.055068 -1.433706
v 3.287573 0.055068 -1.198229
v 3.337573 0.005068 -1.198229
v 3.337573 0.055068 -1.148229
v 3.337573 0.055068 -1.433706
v 3.337573 0.005068 -1.383706
v 3.287573 0.055068 -1.383706
v 3.617403 1.160506 -1.148229
v 3.673469 1.175151 -1.198229
v 3.588114 1.210506 -1.198229
v 3.704579 1.073330 -1.148229
v 3.754579 1.044041 -1.198229
v 3.719223 1.129396 -1.198229
v 3.704579 1.073330 -1.433706
v 3.719223 1.129396 -1.383706
v 3.754579 1.044041 -1.383706
v 3.588114 1.210506 -1.383706
v 3.673469 1.175151 -1.383706
v 3.617403 1.160506 -1.433706
v 3.337573 1.073330 -1.148229
v 3.322928 1.129396 -1.198229
v 3.287573 1.044041 -1.198229
v 3.454038 1.210506 -1.198229
v 3.368683 1.175151 -1.198229
v 3.424749 1.160506 -1.148229
v 3.424749 1.160506 -1.433706
v 3.368683 1.175151 -1.383706
v 3.454038 1.210506 -1.383706
v 3.337573 1.073330 -1.433706
v 3.287573 1.044041 -1.383706
v 3.322928 1.129396 -1.383706
v 3.754579 0.055068 1.198229
v 3.704579 0.055068 1.148229
v 3.704579 0.005068 1.198229
v 3.754579 0.055068 1.383706
v 3.704579 0.005068 1.383706
v 3.704579 0.055068 1.433706
v 3.287573 0.055068 1.198229
v 3.337573 0.005068 1.198229
v 3.337573 0.055068 1.148229
v 3.337573 0.055068 1.433706
v 3.337573 0.005068 1.383706
v 3.287573 0.055068 1.383706
v 3.617403 1.160506 1.148229
v 3.673469 1.175151 1.198229
v 3.588114 1.210506 1.198229
v 3.704579 1.073330 1.148229
v 3.754579 1.044041 1.198229
v 3.719223 1.129396 1.198229
v 3.704579 1.073330 1.433706
v 3.719223 1.129396 1.383706
v 3.754579 1.044041 1.383706
v 3.588114 1.210506 1.383706
v 3.673469 1.175151 1.383706
v 3.617403 1.160506 1.433706
v 3.337573 1.073330 1.148229
v 3.322928 1.129396 1.198229
v 3.287573 1.044041 1.198229
v 3.454038 1.210506 1.198229
v 3.368683 1.175151 1.198229
v 3.424749 1.160506 1.148229
v 3.424749 1.160506 1.433706
v 3.368683 1.175151 1.383706
v 3.454038 1.210506 1.383706
v 3.337573 1.073330 1.433706
v 3.287573 1.044041 1.383706
v 3.322928 1.129396 1.383706
vn 0.9777 -0.0422 0.2060
vn 0.1092 -0.0416 0.9932
vn 0.1058 -0.9747 0.1971
vn 0.9776 -0.0422 -0.2060
vn 0.1059 -0.9747 -0.1971
vn 0.1092 -0.0416 -0.9931
vn -0.9776 -0.0422 0.2060
vn -0.1059 -0.9747 0.1971
vn -0.1092 -0.0416 0.9931
vn -0.1092 -0.0416 -0.9932
vn -0.1058 -0.9747 -0.1971
vn -0.9777 -0.0422 -0.2060
vn 0.0102 0.0330 0.9994
vn 0.5345 0.8267 0.1754
vn 0.1418 0.9722 0.1865
vn 0.1215 0.0092 0.9925
vn 0.9790 0.0290 0.2016
vn 0.8267 0.5345 0.1754
vn 0.1215 0.0092 -0.9925
vn 0.8267 0.5345 -0.1754
vn 0.9790 0.0290 -0.2016
vn 0.1418 0.9722 -0.1865
vn 0.5345 0.8267 -0.1754
vn 0.0102 0.0330 -0.9994
vn -0.1215 0.0092 0.9925
vn -0.8267 0.5345 0.1754
vn -0.9790 0.0290 0.2016
vn -0.1418 0.9722 0.1865
vn -0.5345 0.8267 0.1754
vn -0.0102 0.0330 0.9994
vn -0.0102 0.0330 -0.9994
vn -0.5345 0.8267 -0.1754
vn -0.1418 0.9722 -0.1865
vn -0.1215 0.0092 -0.9925
vn -0.9790 0.0290 -0.2016
vn -0.8267 0.5345 -0.1754
vt 0.598063 0.207616
vt 0.601842 0.207616
vt 0.599952 0.210889
vt 0.598063 0.225085
vt 0.599952 0.221813
vt 0.601842 0.225085
vt 0.624726 0.209506
vt 0.621454 0.211395
vt 0.621454 0.207616
vt 0.621454 0.225085
vt 0.621454 0.221306
vt 0.624726 0.223196
vt 0.606500 0.148544
vt 0.602722 0.146978
vt 0.606981 0.144482
vt 0.601842 0.153202
vt 0.598063 0.154767
vt 0.599310 0.149990
vt 0.601842 0.279499
vt 0.599310 0.282711
vt 0.598063 0.277934
vt 0.606981 0.288219
vt 0.602722 0.285723
vt 0.606500 0.284158
vt 0.621454 0.153202
vt 0.623986 0.149990
vt 0.625233 0.154767
vt 0.616315 0.144482
vt 0.620574 0.146978
vt 0.616795 0.148544
vt 0.616795 0.284158
vt 0.620574 0.285723
vt 0.616315 0.288219
vt 0.621454 0.279499
vt 0.625233 0.277934
vt 0.623986 0.282711
vt 0.598063 0.221306
vt 0.598063 0.211395
vt 0.601842 0.211395
vt 0.601842 0.221306
vt 0.625233 0.211395
vt 0.625233 0.221306
vt 0.600277 0.149423
vt 0.703515 0.211395
vt 0.703515 0.221306
vt 0.698578 0.221306
vt 0.698578 0.211395
vt 0.600277 0.283278
vt 0.706973 0.221306
vt 0.706973 0.211395
vt 0.711910 0.211395
vt 0.711910 0.221306
vt 0.623019 0.283278
vt 0.686476 0.221306
vt 0.686476 0.211395
vt 0.691413 0.211395
vt 0.691413 0.221306
vt 0.623019 0.149423
vt 0.683019 0.211395
vt 0.683019 0.221306
vt 0.678081 0.221306
vt 0.678081 0.211395
vt 0.625233 0.207616
vt 0.608065 0.144765
vt 0.615230 0.144765
vt 0.615230 0.287936
vt 0.608065 0.287936
vt 0.625233 0.225085
vt 0.764759 0.211395
vt 0.764759 0.221306
vt 0.116739 0.588363
vt 0.118629 0.585090
vt 0.120518 0.588363
vt 0.116739 0.570894
vt 0.120518 0.570894
vt 0.118629 0.574166
vt 0.143403 0.586473
vt 0.140130 0.588363
vt 0.140130 0.584584
vt 0.140130 0.570894
vt 0.143403 0.572783
vt 0.140130 0.574672
vt 0.125177 0.647435
vt 0.125657 0.651497
vt 0.121398 0.649000
vt 0.120518 0.642777
vt 0.117986 0.645989
vt 0.116739 0.641212
vt 0.120518 0.516480
vt 0.116739 0.518045
vt 0.117986 0.513268
vt 0.125657 0.507759
vt 0.125177 0.511821
vt 0.121398 0.510256
vt 0.140130 0.642777
vt 0.143909 0.641212
vt 0.142662 0.645989
vt 0.134991 0.651497
vt 0.135472 0.647435
vt 0.139250 0.649000
vt 0.135472 0.511821
vt 0.134991 0.507759
vt 0.139250 0.510256
vt 0.140130 0.516480
vt 0.142662 0.513268
vt 0.143909 0.518045
vt 0.116739 0.574672
vt 0.120518 0.574672
vt 0.120518 0.584584
vt 0.116739 0.584584
vt 0.143909 0.584584
vt 0.143909 0.574672
vt 0.118953 0.646555
vt 0.222192 0.584584
vt 0.217254 0.584584
vt 0.217254 0.574672
vt 0.222192 0.574672
vt 0.118953 0.512701
vt 0.225649 0.574672
vt 0.230586 0.574672
vt 0.230586 0.584584
vt 0.225649 0.584584
vt 0.141695 0.512701
vt 0.205153 0.574672
vt 0.210090 0.574672
vt 0.210090 0.584584
vt 0.205153 0.584584
vt 0.141695 0.646555
vt 0.201695 0.584584
vt 0.196758 0.584584
vt 0.196758 0.574672
vt 0.201695 0.574672
vt 0.143909 0.588363
vt 0.133906 0.651214
vt 0.126742 0.651214
vt 0.133907 0.508042
vt 0.126742 0.508042
vt 0.143909 0.570894
vt 0.283435 0.584584
vt 0.283435 0.574672
vt 0.764759 0.080851
vt 0.760980 0.080851
vt 0.762870 0.077579
vt 0.764759 0.063382
vt 0.762870 0.066655
vt 0.760980 0.063382
vt 0.738096 0.078962
vt 0.741368 0.077073
vt 0.741368 0.080851
vt 0.741368 0.063382
vt 0.741368 0.067161
vt 0.738096 0.065272
vt 0.756322 0.139924
vt 0.760100 0.141489
vt 0.755841 0.143986
vt 0.760980 0.135265
vt 0.764759 0.133700
vt 0.763512 0.138477
vt 0.760980 0.008968
vt 0.763512 0.005756
vt 0.764759 0.010533
vt 0.755841 0.000248
vt 0.760100 0.002745
vt 0.756322 0.004310
vt 0.741368 0.135265
vt 0.738836 0.138477
vt 0.737590 0.133700
vt 0.746507 0.143986
vt 0.742248 0.141489
vt 0.746027 0.139924
vt 0.746027 0.004310
vt 0.742248 0.002745
vt 0.746507 0.000248
vt 0.741368 0.008968
vt 0.737590 0.010533
vt 0.738836 0.005756
vt 0.764759 0.067161
vt 0.764759 0.077073
vt 0.760980 0.077073
vt 0.760980 0.067161
vt 0.737590 0.077073
vt 0.737590 0.067161
vt 0.762546 0.139044
vt 0.659307 0.077073
vt 0.659307 0.067161
vt 0.664244 0.067161
vt 0.664244 0.077073
vt 0.762546 0.005190
vt 0.655849 0.067161
vt 0.655849 0.077073
vt 0.650912 0.077073
vt 0.650912 0.067161
vt 0.739803 0.005190
vt 0.676346 0.067161
vt 0.676346 0.077073
vt 0.671409 0.077073
vt 0.671409 0.067161
vt 0.739803 0.139044
vt 0.679804 0.077073
vt 0.679804 0.067161
vt 0.684741 0.067161
vt 0.684741 0.077073
vt 0.737590 0.080851
vt 0.754757 0.143703
vt 0.747592 0.143703
vt 0.747592 0.000531
vt 0.754757 0.000531
vt 0.737590 0.063382
vt 0.598063 0.077073
vt 0.598063 0.067161
vt 0.116739 0.732596
vt 0.118629 0.729324
vt 0.120518 0.732596
vt 0.116739 0.715127
vt 0.120518 0.715127
vt 0.118629 0.718400
vt 0.143403 0.730707
vt 0.140130 0.732596
vt 0.140130 0.728818
vt 0.140130 0.715127
vt 0.143403 0.717017
vt 0.140130 0.718906
vt 0.125177 0.791669
vt 0.125657 0.795731
vt 0.121398 0.793234
vt 0.120518 0.787010
vt 0.117986 0.790222
vt 0.116739 0.785445
vt 0.120518 0.660713
vt 0.116739 0.662278
vt 0.117986 0.657501
vt 0.125657 0.651993
vt 0.125177 0.656055
vt 0.121398 0.654490
vt 0.140130 0.787010
vt 0.143909 0.785445
vt 0.142662 0.790222
vt 0.134991 0.795731
vt 0.135472 0.791669
vt 0.139250 0.793234
vt 0.135472 0.656055
vt 0.134991 0.651993
vt 0.139250 0.654490
vt 0.140130 0.660713
vt 0.142662 0.657501
vt 0.143909 0.662278
vt 0.116739 0.718906
vt 0.120518 0.718906
vt 0.120518 0.728818
vt 0.116739 0.728818
vt 0.143909 0.728818
vt 0.143909 0.718906
vt 0.118953 0.790789
vt 0.222192 0.728818
vt 0.217255 0.728818
vt 0.217255 0.718906
vt 0.222192 0.718906
vt 0.118953 0.656935
vt 0.225649 0.718906
vt 0.230586 0.718906
vt 0.230586 0.728818
vt 0.225649 0.728818
vt 0.141695 0.656935
vt 0.205153 0.718906
vt 0.210090 0.718906
vt 0.210090 0.728818
vt 0.205153 0.728818
vt 0.141695 0.790789
vt 0.201695 0.728818
vt 0.196758 0.728818
vt 0.196758 0.718906
vt 0.201695 0.718906
vt 0.143909 0.732596
vt 0.133907 0.795448
vt 0.126742 0.795448
vt 0.133907 0.652276
vt 0.126742 0.652276
vt 0.143909 0.715127
vt 0.283435 0.728818
vt 0.283435 0.718906
vt 0.764759 0.369319
vt 0.760980 0.369319
vt 0.762870 0.366046
vt 0.764759 0.351850
vt 0.762870 0.355122
vt 0.760980 0.351850
vt 0.738096 0.367430
vt 0.741368 0.365540
vt 0.741368 0.369319
vt 0.741368 0.351850
vt 0.741368 0.355629
vt 0.738096 0.353739
vt 0.756322 0.428391
vt 0.760100 0.429957
vt 0.755841 0.432453
vt 0.760980 0.423733
vt 0.764759 0.422168
vt 0.763512 0.426945
vt 0.760980 0.297436
vt 0.763512 0.294224
vt 0.764759 0.299001
vt 0.755841 0.288716
vt 0.760100 0.291212
vt 0.756322 0.292777
vt 0.741368 0.423733
vt 0.738836 0.426945
vt 0.737590 0.422168
vt 0.746507 0.432453
vt 0.742248 0.429957
vt 0.746027 0.428391
vt 0.746027 0.292777
vt 0.742248 0.291212
vt 0.746507 0.288716
vt 0.741368 0.297436
vt 0.737590 0.299001
vt 0.738836 0.294224
vt 0.764759 0.355629
vt 0.764759 0.365540
vt 0.760980 0.365540
vt 0.760980 0.355629
vt 0.737590 0.365540
vt 0.737590 0.355629
vt 0.762546 0.427512
vt 0.659307 0.365540
vt 0.659307 0.355629
vt 0.664244 0.355629
vt 0.664244 0.365540
vt 0.762546 0.293657
vt 0.655849 0.355629
vt 0.655849 0.365540
vt 0.650912 0.365540
vt 0.650912 0.355629
vt 0.739803 0.293657
vt 0.676346 0.355629
vt 0.676346 0.365540
vt 0.671409 0.365540
vt 0.671409 0.355629
vt 0.739803 0.427512
vt 0.679804 0.365540
vt 0.679804 0.355629
vt 0.684741 0.355629
vt 0.684741 0.365540
vt 0.737590 0.369319
vt 0.754757 0.432170
vt 0.747592 0.432170
vt 0.747592 0.288999
vt 0.754757 0.288999
vt 0.737590 0.351850
vt 0.598063 0.365540
vt 0.598063 0.355629
vt 0.764759 0.496084
vt 0.762870 0.499356
vt 0.760980 0.496084
vt 0.764759 0.513553
vt 0.760980 0.513553
vt 0.762870 0.510280
vt 0.738096 0.497973
vt 0.741368 0.496084
vt 0.741368 0.499862
vt 0.741368 0.513553
vt 0.738096 0.511663
vt 0.741368 0.509774
vt 0.756322 0.437011
vt 0.755841 0.432950
vt 0.760100 0.435446
vt 0.760980 0.441670
vt 0.763512 0.438458
vt 0.764759 0.443235
vt 0.760980 0.567967
vt 0.764759 0.566402
vt 0.763512 0.571179
vt 0.755841 0.576687
vt 0.756322 0.572625
vt 0.760100 0.574190
vt 0.741368 0.441670
vt 0.737589 0.443235
vt 0.738836 0.438458
vt 0.746507 0.432950
vt 0.746027 0.437011
vt 0.742248 0.435446
vt 0.746027 0.572625
vt 0.746507 0.576687
vt 0.742248 0.574190
vt 0.741368 0.567967
vt 0.738836 0.571179
vt 0.737590 0.566402
vt 0.764759 0.509774
vt 0.760980 0.509774
vt 0.760980 0.499862
vt 0.764759 0.499862
vt 0.737590 0.499862
vt 0.737590 0.509774
vt 0.762545 0.437891
vt 0.659307 0.499862
vt 0.664244 0.499862
vt 0.664244 0.509774
vt 0.659307 0.509774
vt 0.762545 0.571745
vt 0.655849 0.509774
vt 0.650912 0.509774
vt 0.650912 0.499862
vt 0.655849 0.499862
vt 0.739803 0.571745
vt 0.676346 0.509774
vt 0.671409 0.509774
vt 0.671409 0.499862
vt 0.676346 0.499862
vt 0.739803 0.437891
vt 0.679804 0.499862
vt 0.684741 0.499862
vt 0.684741 0.509774
vt 0.679804 0.509774
vt 0.737590 0.496084
vt 0.747592 0.433232
vt 0.754757 0.433232
vt 0.747592 0.576404
vt 0.754757 0.576404
vt 0.737590 0.513553
vt 0.598063 0.499862
vt 0.598063 0.509774
vt 0.764759 0.657786
vt 0.760980 0.657786
vt 0.762870 0.654514
vt 0.764759 0.640317
vt 0.762870 0.643590
vt 0.760980 0.640317
vt 0.738096 0.655897
vt 0.741368 0.654008
vt 0.741368 0.657786
vt 0.741368 0.640317
vt 0.741368 0.644096
vt 0.738096 0.642207
vt 0.756322 0.716859
vt 0.760100 0.718424
vt 0.755841 0.720921
vt 0.760980 0.712200
vt 0.764759 0.710635
vt 0.763512 0.715412
vt 0.760980 0.585903
vt 0.763512 0.582691
vt 0.764759 0.587469
vt 0.755841 0.577183
vt 0.760100 0.579680
vt 0.756322 0.581245
vt 0.741368 0.712200
vt 0.738836 0.715412
vt 0.737589 0.710635
vt 0.746507 0.720921
vt 0.742248 0.718424
vt 0.746027 0.716859
vt 0.746027 0.581245
vt 0.742248 0.579680
vt 0.746507 0.577183
vt 0.741368 0.585903
vt 0.737589 0.587469
vt 0.738836 0.582691
vt 0.764759 0.644096
vt 0.764759 0.654008
vt 0.760980 0.654008
vt 0.760980 0.644096
vt 0.737589 0.654008
vt 0.737589 0.644096
vt 0.762545 0.715979
vt 0.659307 0.654008
vt 0.659307 0.644096
vt 0.664244 0.644096
vt 0.664244 0.654008
vt 0.762545 0.582125
vt 0.655849 0.644096
vt 0.655849 0.654008
vt 0.650912 0.654008
vt 0.650912 0.644096
vt 0.739803 0.582125
vt 0.676346 0.644096
vt 0.676346 0.654008
vt 0.671409 0.654008
vt 0.671409 0.644096
vt 0.739803 0.715979
vt 0.679803 0.654008
vt 0.679803 0.644096
vt 0.684740 0.644096
vt 0.684740 0.654008
vt 0.737589 0.657786
vt 0.754757 0.720638
vt 0.747592 0.720638
vt 0.747592 0.577466
vt 0.754757 0.577466
vt 0.737589 0.640317
vt 0.598063 0.654008
vt 0.598063 0.644096
vt 0.283435 0.859361
vt 0.281546 0.862634
vt 0.279657 0.859361
vt 0.283435 0.876830
vt 0.279657 0.876830
vt 0.281546 0.873558
vt 0.256772 0.861250
vt 0.260045 0.859361
vt 0.260044 0.863140
vt 0.260045 0.876830
vt 0.256772 0.874941
vt 0.260045 0.873051
vt 0.274998 0.800288
vt 0.274517 0.796227
vt 0.278777 0.798723
vt 0.279657 0.804947
vt 0.282189 0.801735
vt 0.283435 0.806512
vt 0.279657 0.931244
vt 0.283435 0.929679
vt 0.282189 0.934456
vt 0.274517 0.939964
vt 0.274998 0.935903
vt 0.278777 0.937468
vt 0.260045 0.804947
vt 0.256266 0.806512
vt 0.257512 0.801735
vt 0.265184 0.796227
vt 0.264703 0.800288
vt 0.260924 0.798723
vt 0.264703 0.935903
vt 0.265184 0.939964
vt 0.260924 0.937468
vt 0.260045 0.931244
vt 0.257512 0.934456
vt 0.256266 0.929679
vt 0.283435 0.873051
vt 0.279657 0.873051
vt 0.279657 0.863140
vt 0.283435 0.863140
vt 0.256266 0.863140
vt 0.256266 0.873051
vt 0.281222 0.801168
vt 0.177983 0.863140
vt 0.182920 0.863140
vt 0.182920 0.873051
vt 0.177983 0.873051
vt 0.281222 0.935023
vt 0.174525 0.873051
vt 0.169588 0.873051
vt 0.169588 0.863140
vt 0.174525 0.863140
vt 0.258479 0.935023
vt 0.195022 0.873051
vt 0.190085 0.873051
vt 0.190085 0.863140
vt 0.195022 0.863140
vt 0.258479 0.801168
vt 0.198480 0.863140
vt 0.203417 0.863140
vt 0.203417 0.873051
vt 0.198480 0.873051
vt 0.256266 0.859361
vt 0.266268 0.796510
vt 0.273433 0.796510
vt 0.266268 0.939681
vt 0.273433 0.939681
vt 0.256266 0.876830
vt 0.116739 0.863140
vt 0.116739 0.873051
s 1
usemtl UV
f 369/356/219 370/357/220 371/358/221
f 372/359/222 373/360/223 374/361/224
f 375/362/225 376/363/226 377/364/227
f 378/365/228 379/366/229 380/367/230
f 381/368/231 382/369/232 383/370/233
f 384/371/234 385/372/235 386/373/236
f 387/374/237 388/375/238 389/376/239
f 390/377/240 391/378/241 392/379/242
f 393/380/243 394/381/244 395/382/245
f 396/383/246 397/384/247 398/385/248
f 399/386/249 400/387/250 401/388/251
f 402/389/252 403/390/253 404/391/254
f 372/392/222 369/393/219 371/394/221 373/395/223
f 378/365/228 374/361/224 373/395/223 379/366/229
f 375/396/225 380/397/230 379/366/229 376/363/226
f 370/357/220 377/364/227 376/363/226 371/394/221
f 386/398/236 382/369/232 381/368/231 384/371/234
f 382/399/232 391/400/241 390/401/240 383/402/233
f 391/378/241 388/403/238 387/374/237 392/379/242
f 388/404/238 386/405/236 385/406/235 389/407/239
f 404/408/254 400/387/250 399/386/249 402/389/252
f 400/409/250 397/410/247 396/411/246 401/412/251
f 397/384/247 394/413/244 393/380/243 398/385/248
f 394/414/244 404/415/254 403/416/253 395/417/245
f 377/364/227 393/380/243 395/382/245 375/418/225
f 398/385/248 381/368/231 383/419/233 396/420/246
f 384/371/234 370/357/220 369/356/219 385/372/235
f 389/376/239 372/359/222 374/361/224 387/374/237
f 401/421/251 390/422/240 392/379/242 399/386/249
f 402/389/252 378/365/228 380/423/230 403/390/253
f 369/424/219 372/425/222 389/407/239 385/406/235
f 373/395/223 371/394/221 376/363/226 379/366/229
f 377/364/227 370/357/220 384/371/234 381/368/231 398/385/248 393/380/243
f 374/361/224 378/365/228 402/389/252 399/386/249 392/379/242 387/374/237
f 380/397/230 375/396/225 395/417/245 403/416/253
f 382/399/232 386/405/236 388/404/238 391/400/241
f 401/412/251 396/411/246 383/402/233 390/401/240
f 400/409/250 404/415/254 394/414/244 397/410/247
f 405/426/222 407/427/223 406/428/224
f 408/429/219 410/430/220 409/431/221
f 411/432/230 413/433/228 412/434/229
f 414/435/227 416/436/225 415/437/226
f 417/438/242 419/439/240 418/440/241
f 420/441/237 422/442/238 421/443/239
f 423/444/234 425/445/235 424/446/236
f 426/447/233 428/448/231 427/449/232
f 429/450/252 431/451/253 430/452/254
f 432/453/251 434/454/249 433/455/250
f 435/456/248 437/457/246 436/458/247
f 438/459/243 440/460/244 439/461/245
f 408/462/219 409/463/221 407/464/223 405/465/222
f 414/435/227 415/437/226 409/463/221 410/430/220
f 411/466/230 412/434/229 415/437/226 416/467/225
f 406/428/224 407/464/223 412/434/229 413/433/228
f 422/468/238 420/441/237 417/438/242 418/440/241
f 418/469/241 419/470/240 426/471/233 427/472/232
f 427/449/232 428/448/231 423/444/234 424/473/236
f 424/474/236 425/475/235 421/476/239 422/477/238
f 440/478/244 438/459/243 435/456/248 436/458/247
f 436/479/247 437/480/246 432/481/251 433/482/250
f 433/455/250 434/454/249 429/450/252 430/483/254
f 430/484/254 431/485/253 439/486/245 440/487/244
f 413/433/228 411/488/230 431/451/253 429/450/252
f 434/454/249 432/489/251 419/490/240 417/438/242
f 420/441/237 421/443/239 405/426/222 406/428/224
f 425/445/235 423/444/234 410/430/220 408/429/219
f 437/491/246 435/456/248 428/448/231 426/492/233
f 438/459/243 439/461/245 416/493/225 414/435/227
f 405/494/222 421/476/239 425/475/235 408/495/219
f 409/463/221 415/437/226 412/434/229 407/464/223
f 413/433/228 429/450/252 434/454/249 417/438/242 420/441/237 406/428/224
f 410/430/220 423/444/234 428/448/231 435/456/248 438/459/243 414/435/227
f 416/467/225 439/486/245 431/485/253 411/466/230
f 418/469/241 427/472/232 424/474/236 422/477/238
f 437/480/246 426/471/233 419/470/240 432/481/251
f 436/479/247 433/482/250 430/484/254 440/487/244
f 441/496/219 442/497/220 443/498/221
f 444/499/222 445/500/223 446/501/224
f 447/502/225 448/503/226 449/504/227
f 450/505/228 451/506/229 452/507/230
f 453/508/231 454/509/232 455/510/233
f 456/511/234 457/512/235 458/513/236
f 459/514/237 460/515/238 461/516/239
f 462/517/240 463/518/241 464/519/242
f 465/520/243 466/521/244 467/522/245
f 468/523/246 469/524/247 470/525/248
f 471/526/249 472/527/250 473/528/251
f 474/529/252 475/530/253 476/531/254
f 444/532/222 441/533/219 443/534/221 445/535/223
f 450/505/228 446/501/224 445/535/223 451/506/229
f 447/536/225 452/537/230 451/506/229 448/503/226
f 442/497/220 449/504/227 448/503/226 443/534/221
f 458/538/236 454/509/232 453/508/231 456/511/234
f 454/539/232 463/540/241 462/541/240 455/542/233
f 463/518/241 460/543/238 459/514/237 464/519/242
f 460/544/238 458/545/236 457/546/235 461/547/239
f 476/548/254 472/527/250 471/526/249 474/529/252
f 472/549/250 469/550/247 468/551/246 473/552/251
f 469/524/247 466/553/244 465/520/243 470/525/248
f 466/554/244 476/555/254 475/556/253 467/557/245
f 449/504/227 465/520/243 467/522/245 447/558/225
f 470/525/248 453/508/231 455/559/233 468/560/246
f 456/511/234 442/497/220 441/496/219 457/512/235
f 461/516/239 444/499/222 446/501/224 459/514/237
f 473/561/251 462/562/240 464/519/242 471/526/249
f 474/529/252 450/505/228 452/563/230 475/530/253
f 441/564/219 444/565/222 461/547/239 457/546/235
f 445/535/223 443/534/221 448/503/226 451/506/229
f 449/504/227 442/497/220 456/511/234 453/508/231 470/525/248 465/520/243
f 446/501/224 450/505/228 474/529/252 471/526/249 464/519/242 459/514/237
f 452/537/230 447/536/225 467/557/245 475/556/253
f 454/539/232 458/545/236 460/544/238 463/540/241
f 473/552/251 468/551/246 455/542/233 462/541/240
f 472/549/250 476/555/254 466/554/244 469/550/247
f 477/566/222 479/567/223 478/568/224
f 480/569/219 482/570/220 481/571/221
f 483/572/230 485/573/228 484/574/229
f 486/575/227 488/576/225 487/577/226
f 489/578/242 491/579/240 490/580/241
f 492/581/237 494/582/238 493/583/239
f 495/584/234 497/585/235 496/586/236
f 498/587/233 500/588/231 499/589/232
f 501/590/252 503/591/253 502/592/254
f 504/593/251 506/594/249 505/595/250
f 507/596/248 509/597/246 508/598/247
f 510/599/243 512/600/244 511/601/245
f 480/602/219 481/603/221 479/604/223 477/605/222
f 486/575/227 487/577/226 481/603/221 482/570/220
f 483/606/230 484/574/229 487/577/226 488/607/225
f 478/568/224 479/604/223 484/574/229 485/573/228
f 494/608/238 492/581/237 489/578/242 490/580/241
f 490/609/241 491/610/240 498/611/233 499/612/232
f 499/589/232 500/588/231 495/584/234 496/613/236
f 496/614/236 497/615/235 493/616/239 494/617/238
f 512/618/244 510/599/243 507/596/248 508/598/247
f 508/619/247 509/620/246 504/621/251 505/622/250
f 505/595/250 506/594/249 501/590/252 502/623/254
f 502/624/254 503/625/253 511/626/245 512/627/244
f 485/573/228 483/628/230 503/591/253 501/590/252
f 506/594/249 504/629/251 491/630/240 489/578/242
f 492/581/237 493/583/239 477/566/222 478/568/224
f 497/585/235 495/584/234 482/570/220 480/569/219
f 509/631/246 507/596/248 500/588/231 498/632/233
f 510/599/243 511/601/245 488/633/225 486/575/227
f 477/634/222 493/616/239 497/615/235 480/635/219
f 481/603/221 487/577/226 484/574/229 479/604/223
f 485/573/228 501/590/252 506/594/249 489/578/242 492/581/237 478/568/224
f 482/570/220 495/584/234 500/588/231 507/596/248 510/599/243 486/575/227
f 488/607/225 511/626/245 503/625/253 483/606/230
f 490/609/241 499/612/232 496/614/236 494/617/238
f 509/620/246 498/611/233 491/610/240 504/621/251
f 508/619/247 505/622/250 502/624/254 512/627/244
f 513/636/219 514/637/220 515/638/221
f 516/639/222 517/640/223 518/641/224
f 519/642/225 520/643/226 521/644/227
f 522/645/228 523/646/229 524/647/230
f 525/648/231 526/649/232 527/650/233
f 528/651/234 529/652/235 530/653/236
f 531/654/237 532/655/238 533/656/239
f 534/657/240 535/658/241 536/659/242
f 537/660/243 538/661/244 539/662/245
f 540/663/246 541/664/247 542/665/248
f 543/666/249 544/667/250 545/668/251
f 546/669/252 547/670/253 548/671/254
f 516/672/222 513/673/219 515/674/221 517/675/223
f 522/645/228 518/641/224 517/675/223 523/646/229
f 519/676/225 524/677/230 523/646/229 520/643/226
f 514/637/220 521/644/227 520/643/226 515/674/221
f 530/678/236 526/649/232 525/648/231 528/651/234
f 526/679/232 535/680/241 534/681/240 527/682/233
f 535/658/241 532/683/238 531/654/237 536/659/242
f 532/684/238 530/685/236 529/686/235 533/687/239
f 548/688/254 544/667/250 543/666/249 546/669/252
f 544/689/250 541/690/247 540/691/246 545/692/251
f 541/664/247 538/693/244 537/660/243 542/665/248
f 538/694/244 548/695/254 547/696/253 539/697/245
f 521/644/227 537/660/243 539/662/245 519/698/225
f 542/665/248 525/648/231 527/699/233 540/700/246
f 528/651/234 514/637/220 513/636/219 529/652/235
f 533/656/239 516/639/222 518/641/224 531/654/237
f 545/701/251 534/702/240 536/659/242 543/666/249
f 546/669/252 522/645/228 524/703/230 547/670/253
f 513/704/219 516/705/222 533/687/239 529/686/235
f 517/675/223 515/674/221 520/643/226 523/646/229
f 521/644/227 514/637/220 528/651/234 525/648/231 542/665/248 537/660/243
f 518/641/224 522/645/228 546/669/252 543/666/249 536/659/242 531/654/237
f 524/677/230 519/676/225 539/697/245 547/696/253
f 526/679/232 530/685/236 532/684/238 535/680/241
f 545/692/251 540/691/246 527/682/233 534/681/240
f 544/689/250 548/695/254 538/694/244 541/690/247
f 549/706/222 551/707/223 550/708/224
f 552/709/219 554/710/220 553/711/221
f 555/712/230 557/713/228 556/714/229
f 558/715/227 560/716/225 559/717/226
f 561/718/242 563/719/240 562/720/241
f 564/721/237 566/722/238 565/723/239
f 567/724/234 569/725/235 568/726/236
f 570/727/233 572/728/231 571/729/232
f 573/730/252 575/731/253 574/732/254
f 576/733/251 578/734/249 577/735/250
f 579/736/248 581/737/246 580/738/247
f 582/739/243 584/740/244 583/741/245
f 552/742/219 553/743/221 551/744/223 549/745/222
f 558/715/227 559/717/226 553/743/221 554/710/220
f 555/746/230 556/714/229 559/717/226 560/747/225
f 550/708/224 551/744/223 556/714/229 557/713/228
f 566/748/238 564/721/237 561/718/242 562/720/241
f 562/749/241 563/750/240 570/751/233 571/752/232
f 571/729/232 572/728/231 567/724/234 568/753/236
f 568/754/236 569/755/235 565/756/239 566/757/238
f 584/758/244 582/739/243 579/736/248 580/738/247
f 580/759/247 581/760/246 576/761/251 577/762/250
f 577/735/250 578/734/249 573/730/252 574/763/254
f 574/764/254 575/765/253 583/766/245 584/767/244
f 557/713/228 555/768/230 575/731/253 573/730/252
f 578/734/249 576/769/251 563/770/240 561/718/242
f 564/721/237 565/723/239 549/706/222 550/708/224
f 569/725/235 567/724/234 554/710/220 552/709/219
f 581/771/246 579/736/248 572/728/231 570/772/233
f 582/739/243 583/741/245 560/773/225 558/715/227
f 549/774/222 565/756/239 569/755/235 552/775/219
f 553/743/221 559/717/226 556/714/229 551/744/223
f 557/713/228 573/730/252 578/734/249 561/718/242 564/721/237 550/708/224
f 554/710/220 567/724/234 572/728/231 579/736/248 582/739/243 558/715/227
f 560/747/225 583/766/245 575/765/253 555/746/230
f 562/749/241 571/752/232 568/754/236 566/757/238
f 581/760/246 570/751/233 563/750/240 576/761/251
f 580/759/247 577/762/250 574/764/254 584/767/244
f 585/776/219 586/777/220 587/778/221
f 588/779/222 589/780/223 590/781/224
f 591/782/225 592/783/226 593/784/227
f 594/785/228 595/786/229 596/787/230
f 597/788/231 598/789/232 599/790/233
f 600/791/234 601/792/235 602/793/236
f 603/794/237 604/795/238 605/796/239
f 606/797/240 607/798/241 608/799/242
f 609/800/243 610/801/244 611/802/245
f 612/803/246 613/804/247 614/805/248
f 615/806/249 616/807/250 617/808/251
f 618/809/252 619/810/253 620/811/254
f 588/812/222 585/813/219 587/814/221 589/815/223
f 594/785/228 590/781/224 589/815/223 595/786/229
f 591/816/225 596/817/230 595/786/229 592/783/226
f 586/777/220 593/784/227 592/783/226 587/814/221
f 602/818/236 598/789/232 597/788/231 600/791/234
f 598/819/232 607/820/241 606/821/240 599/822/233
f 607/798/241 604/823/238 603/794/237 608/799/242
f 604/824/238 602/825/236 601/826/235 605/827/239
f 620/828/254 616/807/250 615/806/249 618/809/252
f 616/829/250 613/830/247 612/831/246 617/832/251
f 613/804/247 610/833/244 609/800/243 614/805/248
f 610/834/244 620/835/254 619/836/253 611/837/245
f 593/784/227 609/800/243 611/802/245 591/838/225
f 614/805/248 597/788/231 599/839/233 612/840/246
f 600/791/234 586/777/220 585/776/219 601/792/235
f 605/796/239 588/779/222 590/781/224 603/794/237
f 617/841/251 606/842/240 608/799/242 615/806/249
f 618/809/252 594/785/228 596/843/230 619/810/253
f 585/844/219 588/845/222 605/827/239 601/826/235
f 589/815/223 587/814/221 592/783/226 595/786/229
f 593/784/227 586/777/220 600/791/234 597/788/231 614/805/248 609/800/243
f 590/781/224 594/785/228 618/809/252 615/806/249 608/799/242 603/794/237
f 596/817/230 591/816/225 611/837/245 619/836/253
f 598/819/232 602/825/236 604/824/238 607/820/241
f 617/832/251 612/831/246 599/822/233 606/821/240
f 616/829/250 620/835/254 610/834/244 613/830/247
f 621/846/222 623/847/223 622/848/224
f 624/849/219 626/850/220 625/851/221
f 627/852/230 629/853/228 628/854/229
f 630/855/227 632/856/225 631/857/226
f 633/858/242 635/859/240 634/860/241
f 636/861/237 638/862/238 637/863/239
f 639/864/234 641/865/235 640/866/236
f 642/867/233 644/868/231 643/869/232
f 645/870/252 647/871/253 646/872/254
f 648/873/251 650/874/249 649/875/250
f 651/876/248 653/877/246 652/878/247
f 654/879/243 656/880/244 655/881/245
f 624/882/219 625/883/221 623/884/223 621/885/222
f 630/855/227 631/857/226 625/883/221 626/850/220
f 627/886/230 628/854/229 631/857/226 632/887/225
f 622/848/224 623/884/223 628/854/229 629/853/228
f 638/888/238 636/861/237 633/858/242 634/860/241
f 634/889/241 635/890/240 642/891/233 643/892/232
f 643/869/232 644/868/231 639/864/234 640/893/236
f 640/894/236 641/895/235 637/896/239 638/897/238
f 656/898/244 654/879/243 651/876/248 652/878/247
f 652/899/247 653/900/246 648/901/251 649/902/250
f 649/875/250 650/874/249 645/870/252 646/903/254
f 646/904/254 647/905/253 655/906/245 656/907/244
f 629/853/228 627/908/230 647/871/253 645/870/252
f 650/874/249 648/909/251 635/910/240 633/858/242
f 636/861/237 637/863/239 621/846/222 622/848/224
f 641/865/235 639/864/234 626/850/220 624/849/219
f 653/911/246 651/876/248 644/868/231 642/912/233
f 654/879/243 655/881/245 632/913/225 630/855/227
f 621/914/222 637/896/239 641/895/235 624/915/219
f 625/883/221 631/857/226 628/854/229 623/884/223
f 629/853/228 645/870/252 650/874/249 633/858/242 636/861/237 622/848/224
f 626/850/220 639/864/234 644/868/231 651/876/248 654/879/243 630/855/227
f 632/887/225 655/906/245 647/905/253 627/886/230
f 634/889/241 643/892/232 640/894/236 638/897/238
f 653/900/246 642/891/233 635/890/240 648/901/251
f 652/899/247 649/902/250 646/904/254 656/907/244
