# Blender 5.0.1
# www.blender.org
mtllib MechanicalBelts_kratsi.mtl
o Belt_body_02
v -2.673956 0.974764 -2.656403
v -2.720993 1.051800 -2.656403
v -2.622718 0.923526 -2.656403
v -2.571505 0.902313 -2.656403
v -2.622718 1.256574 -2.656403
v -2.571505 1.277787 -2.656403
v -2.673956 1.205336 -2.656403
v -2.720993 1.128299 -2.656403
v -2.605864 0.819362 -2.686881
v -2.590966 0.849362 -2.656881
v -2.646399 0.872323 -2.656881
v -2.657077 0.840576 -2.686881
v -2.730697 0.921086 -2.656881
v -2.773943 1.032339 -2.656881
v -2.803943 1.017441 -2.686881
v -2.755384 0.903347 -2.686881
v -2.727416 1.248080 -2.656881
v -2.752104 1.265819 -2.686881
v -2.803943 1.162659 -2.686881
v -2.773943 1.147761 -2.656881
v -2.646399 1.307776 -2.656881
v -2.590966 1.330737 -2.656881
v -2.605864 1.360737 -2.686881
v -2.657077 1.339524 -2.686881
v -2.622718 0.923526 -2.545806
v -2.571505 0.902313 -2.545806
v -2.589078 0.932313 -2.515806
v -2.673956 0.974764 -2.545806
v -2.656841 1.000075 -2.515806
v -2.720993 1.051800 -2.545806
v -2.673956 1.205336 -2.545806
v -2.720993 1.128299 -2.545806
v -2.656841 1.180025 -2.515806
v -2.622718 1.256574 -2.545806
v -2.589078 1.247787 -2.515806
v -2.571505 1.277787 -2.545806
v -2.605864 0.819362 -3.656881
v -2.657077 0.840576 -3.656881
v -2.803943 1.017441 -3.656881
v -2.755384 0.903347 -3.656881
v -2.605864 1.360737 -3.656881
v -2.657077 1.339524 -3.656881
v -2.803943 1.162659 -3.656881
v -2.752104 1.265819 -3.656881
v -2.605864 0.819362 -2.715937
v -2.755384 0.903347 -2.715937
v -2.657077 1.339524 -2.715937
v -2.803943 1.162659 -2.715937
v -2.657077 0.840576 -2.715937
v -2.803943 1.017441 -2.715937
v -2.605864 1.360737 -2.715937
v -2.752104 1.265819 -2.715937
v -2.622718 1.256574 -2.642821
v -2.571505 1.277787 -2.642821
v -2.622718 0.923526 -2.642821
v -2.720993 1.051800 -2.642821
v -2.673956 0.974764 -2.642821
v -2.673956 1.205336 -2.642821
v -2.571505 0.902313 -2.642821
v -2.720993 1.128299 -2.642821
v 2.696174 0.974764 -2.656403
v 2.743211 1.051800 -2.656403
v 2.644936 0.923526 -2.656403
v 2.593723 0.902313 -2.656403
v 2.644936 1.256574 -2.656403
v 2.593723 1.277787 -2.656403
v 2.696174 1.205336 -2.656403
v 2.743211 1.128299 -2.656403
v 2.628082 0.819362 -2.686881
v 2.613184 0.849362 -2.656881
v 2.668617 0.872323 -2.656881
v 2.679295 0.840576 -2.686881
v 2.752915 0.921086 -2.656881
v 2.796161 1.032339 -2.656881
v 2.826161 1.017441 -2.686881
v 2.777602 0.903347 -2.686881
v 2.749634 1.248080 -2.656881
v 2.774322 1.265819 -2.686881
v 2.826161 1.162659 -2.686881
v 2.796161 1.147761 -2.656881
v 2.668617 1.307776 -2.656881
v 2.613184 1.330737 -2.656881
v 2.628082 1.360737 -2.686881
v 2.679295 1.339524 -2.686881
v 2.644936 0.923526 -2.545806
v 2.593723 0.902313 -2.545806
v 2.611296 0.932313 -2.515806
v 2.696174 0.974764 -2.545806
v 2.679059 1.000075 -2.515806
v 2.743211 1.051800 -2.545806
v 2.696174 1.205336 -2.545806
v 2.743211 1.128299 -2.545806
v 2.679059 1.180025 -2.515806
v 2.644936 1.256574 -2.545806
v 2.611296 1.247787 -2.515806
v 2.593723 1.277787 -2.545806
v 2.628082 0.819362 -3.656881
v 2.679295 0.840576 -3.656881
v 2.826161 1.017441 -3.656881
v 2.777602 0.903347 -3.656881
v 2.628082 1.360737 -3.656881
v 2.679295 1.339524 -3.656881
v 2.826161 1.162659 -3.656881
v 2.774322 1.265819 -3.656881
v 2.628082 0.819362 -2.715937
v 2.777602 0.903347 -2.715937
v 2.679295 1.339524 -2.715937
v 2.826161 1.162659 -2.715937
v 2.679295 0.840576 -2.715937
v 2.826161 1.017441 -2.715937
v 2.628082 1.360737 -2.715937
v 2.774322 1.265819 -2.715937
v 2.644936 1.256574 -2.642821
v 2.593723 1.277787 -2.642821
v 2.644936 0.923526 -2.642821
v 2.743211 1.051800 -2.642821
v 2.696174 0.974764 -2.642821
v 2.696174 1.205336 -2.642821
v 2.593723 0.902313 -2.642821
v 2.743211 1.128299 -2.642821
v -2.673956 0.974764 -4.657359
v -2.720993 1.051800 -4.657359
v -2.622718 0.923526 -4.657359
v -2.571505 0.902313 -4.657359
v -2.622718 1.256574 -4.657359
v -2.571505 1.277787 -4.657359
v -2.673956 1.205336 -4.657359
v -2.720993 1.128299 -4.657359
v -2.605864 0.819362 -4.626881
v -2.590966 0.849362 -4.656881
v -2.646399 0.872323 -4.656881
v -2.657077 0.840576 -4.626881
v -2.730697 0.921086 -4.656881
v -2.773943 1.032339 -4.656881
v -2.803943 1.017441 -4.626881
v -2.755384 0.903347 -4.626881
v -2.727416 1.248080 -4.656881
v -2.752104 1.265819 -4.626881
v -2.803943 1.162659 -4.626881
v -2.773943 1.147761 -4.656881
v -2.646399 1.307776 -4.656881
v -2.590966 1.330737 -4.656881
v -2.605864 1.360737 -4.626881
v -2.657077 1.339524 -4.626881
v -2.622718 0.923526 -4.767956
v -2.571505 0.902313 -4.767956
v -2.589078 0.932313 -4.797956
v -2.673956 0.974764 -4.767956
v -2.656841 1.000075 -4.797956
v -2.720993 1.051800 -4.767956
v -2.673956 1.205336 -4.767956
v -2.720993 1.128299 -4.767956
v -2.656841 1.180025 -4.797956
v -2.622718 1.256574 -4.767956
v -2.589078 1.247787 -4.797956
v -2.571505 1.277787 -4.767956
v -2.605864 0.819362 -4.597825
v -2.755384 0.903347 -4.597825
v -2.657077 1.339524 -4.597825
v -2.803943 1.162659 -4.597825
v -2.657077 0.840576 -4.597825
v -2.803943 1.017441 -4.597825
v -2.605864 1.360737 -4.597825
v -2.752104 1.265819 -4.597825
v -2.622718 1.256574 -4.670941
v -2.571505 1.277787 -4.670941
v -2.622718 0.923526 -4.670941
v -2.720993 1.051800 -4.670941
v -2.673956 0.974764 -4.670941
v -2.673956 1.205336 -4.670941
v -2.571505 0.902313 -4.670941
v -2.720993 1.128299 -4.670941
v 2.696174 0.974764 -4.657359
v 2.743211 1.051800 -4.657359
v 2.644936 0.923526 -4.657359
v 2.593723 0.902313 -4.657359
v 2.644936 1.256574 -4.657359
v 2.593723 1.277787 -4.657359
v 2.696174 1.205336 -4.657359
v 2.743211 1.128299 -4.657359
v 2.628082 0.819362 -4.626881
v 2.613184 0.849362 -4.656881
v 2.668617 0.872323 -4.656881
v 2.679295 0.840576 -4.626881
v 2.752915 0.921086 -4.656881
v 2.796161 1.032339 -4.656881
v 2.826161 1.017441 -4.626881
v 2.777602 0.903347 -4.626881
v 2.749634 1.248080 -4.656881
v 2.774322 1.265819 -4.626881
v 2.826161 1.162659 -4.626881
v 2.796161 1.147761 -4.656881
v 2.668617 1.307776 -4.656881
v 2.613184 1.330737 -4.656881
v 2.628082 1.360737 -4.626881
v 2.679295 1.339524 -4.626881
v 2.644936 0.923526 -4.767956
v 2.593723 0.902313 -4.767956
v 2.611296 0.932313 -4.797956
v 2.696174 0.974764 -4.767956
v 2.679059 1.000075 -4.797956
v 2.743211 1.051800 -4.767956
v 2.696174 1.205336 -4.767956
v 2.743211 1.128299 -4.767956
v 2.679059 1.180025 -4.797956
v 2.644936 1.256574 -4.767956
v 2.611296 1.247787 -4.797956
v 2.593723 1.277787 -4.767956
v 2.628082 0.819362 -4.597825
v 2.777602 0.903347 -4.597825
v 2.679295 1.339524 -4.597825
v 2.826161 1.162659 -4.597825
v 2.679295 0.840576 -4.597825
v 2.826161 1.017441 -4.597825
v 2.628082 1.360737 -4.597825
v 2.774322 1.265819 -4.597825
v 2.644936 1.256574 -4.670941
v 2.593723 1.277787 -4.670941
v 2.644936 0.923526 -4.670941
v 2.743211 1.051800 -4.670941
v 2.696174 0.974764 -4.670941
v 2.696174 1.205336 -4.670941
v 2.593723 0.902313 -4.670941
v 2.743211 1.128299 -4.670941
vn -0.0038 -0.8914 0.4532
vn -0.0015 -0.3456 0.9384
vn -0.1595 -0.2960 0.9418
vn -0.4272 -0.7767 0.4628
vn -0.2493 -0.2030 0.9469
vn -0.3511 -0.0665 0.9340
vn -0.8744 -0.1645 0.4565
vn -0.6807 -0.5599 0.4725
vn -0.2625 0.2137 0.9410
vn -0.6835 0.5622 0.4655
vn -0.8692 0.1828 0.4594
vn -0.3510 0.0746 0.9334
vn -0.1839 0.2926 0.9384
vn -0.0015 0.3456 0.9384
vn -0.0037 0.8914 0.4532
vn -0.4766 0.7463 0.4647
vn -0.5786 -0.7915 0.1968
vn -0.0036 -0.9733 0.2294
vn -0.0012 -0.0859 0.9963
vn -0.7735 -0.6046 0.1900
vn -0.0040 -0.0015 1.0000
vn -0.8780 -0.2325 0.4184
vn -0.7735 0.6046 0.1900
vn -0.8780 0.2325 0.4183
vn -0.0041 0.0015 1.0000
vn -0.5786 0.7915 0.1968
vn -0.0012 0.0859 0.9963
vn -0.0035 0.9733 0.2294
vn -0.0041 -1.0000 -0.0000
vn -0.4897 -0.8719 -0.0000
vn -0.9789 0.2043 -0.0000
vn -0.7694 0.6388 -0.0000
vn 0.0011 -0.0859 0.9963
vn 0.0041 -0.0015 1.0000
vn 0.0041 0.0015 1.0000
vn 0.0011 0.0860 0.9963
vn 0.0011 -0.2553 0.9669
vn 0.0041 -1.0000 -0.0000
vn -0.0010 -0.2553 0.9669
vn -0.1134 -0.1611 0.9804
vn -0.1797 -0.0545 0.9822
vn -0.1439 -0.1103 0.9834
vn -0.1893 0.0576 0.9802
vn -0.1556 0.1192 0.9806
vn -0.0010 0.2553 0.9669
vn -0.1177 0.1668 0.9789
vn 0.0038 -0.8914 0.4532
vn 0.0015 -0.3456 0.9384
vn 0.0015 0.3456 0.9384
vn 0.0037 0.8914 0.4532
vn -0.5774 0.8165 -0.0000
vn -0.0041 1.0000 -0.0000
vn -0.5774 -0.8165 -0.0000
vn -0.9561 -0.2929 -0.0000
vn -0.7938 -0.6082 -0.0000
vn -0.9561 0.2929 -0.0000
vn -0.7938 0.6082 -0.0000
vn 0.0036 -0.9733 0.2294
vn 0.0010 0.2553 0.9669
vn -0.7693 -0.6389 -0.0000
vn 0.0036 0.9733 0.2294
vn 0.0041 1.0000 -0.0000
vn -0.5444 0.8388 -0.0000
vn -0.9829 -0.1841 -0.0000
vn -0.0010 0.2553 -0.9669
vn 0.0011 0.2553 -0.9669
vn 0.4272 -0.7767 0.4628
vn 0.1595 -0.2960 0.9418
vn 0.2493 -0.2030 0.9469
vn 0.6807 -0.5599 0.4725
vn 0.8742 -0.1650 0.4566
vn 0.3511 -0.0665 0.9340
vn 0.2625 0.2137 0.9410
vn 0.3510 0.0746 0.9334
vn 0.8692 0.1828 0.4594
vn 0.6835 0.5622 0.4655
vn 0.1838 0.2925 0.9384
vn 0.4766 0.7463 0.4647
vn 0.5786 -0.7915 0.1968
vn 0.7735 -0.6046 0.1902
vn 0.8780 -0.2325 0.4183
vn 0.7735 0.6046 0.1900
vn 0.8780 0.2325 0.4184
vn 0.5786 0.7915 0.1968
vn 0.4897 -0.8719 -0.0000
vn 0.9789 0.2043 -0.0000
vn 0.7693 0.6388 -0.0000
vn 0.1133 -0.1611 0.9804
vn 0.1797 -0.0545 0.9822
vn 0.1439 -0.1103 0.9834
vn 0.1554 0.1193 0.9806
vn 0.1893 0.0576 0.9802
vn 0.1176 0.1669 0.9789
vn 0.5774 0.8165 -0.0000
vn 0.5774 -0.8165 -0.0000
vn 0.9561 -0.2929 -0.0000
vn 0.7938 -0.6082 -0.0000
vn 0.9561 0.2929 -0.0000
vn 0.7938 0.6082 -0.0000
vn 0.7693 -0.6389 -0.0000
vn 0.5444 0.8388 -0.0000
vn 0.9829 -0.1841 -0.0000
vn -0.0038 -0.8914 -0.4532
vn -0.4272 -0.7767 -0.4628
vn -0.1595 -0.2960 -0.9418
vn -0.0015 -0.3456 -0.9384
vn -0.2493 -0.2030 -0.9469
vn -0.6807 -0.5599 -0.4725
vn -0.8742 -0.1650 -0.4566
vn -0.3511 -0.0665 -0.9340
vn -0.2625 0.2137 -0.9410
vn -0.3510 0.0746 -0.9334
vn -0.8692 0.1828 -0.4594
vn -0.6835 0.5622 -0.4655
vn -0.1839 0.2926 -0.9384
vn -0.4766 0.7463 -0.4647
vn -0.0038 0.8914 -0.4532
vn -0.0015 0.3456 -0.9384
vn -0.5786 -0.7915 -0.1968
vn -0.0012 -0.0859 -0.9963
vn -0.0036 -0.9733 -0.2294
vn -0.7735 -0.6046 -0.1900
vn -0.8780 -0.2325 -0.4183
vn -0.0041 -0.0015 -1.0000
vn -0.7735 0.6046 -0.1900
vn -0.0040 0.0015 -1.0000
vn -0.8780 0.2325 -0.4184
vn -0.5786 0.7915 -0.1968
vn -0.0036 0.9733 -0.2294
vn -0.0012 0.0859 -0.9963
vn -0.0041 -1.0000 -0.0001
vn 0.0011 0.0859 -0.9963
vn 0.0041 0.0015 -1.0000
vn 0.0041 -0.0015 -1.0000
vn 0.0011 -0.0860 -0.9963
vn 0.0010 -0.2553 -0.9669
vn -0.0011 -0.2553 -0.9669
vn -0.1133 -0.1611 -0.9804
vn -0.1797 -0.0545 -0.9822
vn -0.1439 -0.1103 -0.9834
vn -0.1554 0.1193 -0.9806
vn -0.1893 0.0576 -0.9802
vn -0.1176 0.1669 -0.9789
vn 0.0015 -0.3456 -0.9384
vn 0.0037 -0.8914 -0.4532
vn 0.0038 0.8914 -0.4532
vn 0.0015 0.3456 -0.9384
vn 0.0036 -0.9733 -0.2294
vn 0.0036 0.9733 -0.2294
vn 0.1595 -0.2960 -0.9418
vn 0.4272 -0.7767 -0.4628
vn 0.2493 -0.2030 -0.9469
vn 0.3511 -0.0665 -0.9340
vn 0.8744 -0.1645 -0.4565
vn 0.6807 -0.5599 -0.4725
vn 0.2625 0.2137 -0.9410
vn 0.6835 0.5622 -0.4655
vn 0.8692 0.1828 -0.4594
vn 0.3510 0.0746 -0.9334
vn 0.1839 0.2926 -0.9384
vn 0.4766 0.7463 -0.4647
vn 0.5786 -0.7915 -0.1968
vn 0.7735 -0.6046 -0.1900
vn 0.8780 -0.2325 -0.4184
vn 0.7735 0.6046 -0.1900
vn 0.8780 0.2325 -0.4183
vn 0.5786 0.7915 -0.1968
vn 0.7694 0.6388 -0.0000
vn 0.1134 -0.1611 -0.9804
vn 0.1797 -0.0545 -0.9822
vn 0.1439 -0.1103 -0.9834
vn 0.1893 0.0576 -0.9802
vn 0.1556 0.1192 -0.9806
vn 0.1177 0.1668 -0.9789
vt 0.178589 0.512694
vt 0.182211 0.514001
vt 0.180221 0.518678
vt 0.176772 0.517072
vt 0.177966 0.526261
vt 0.180812 0.535418
vt 0.177179 0.536360
vt 0.174483 0.526490
vt 0.193896 0.548004
vt 0.192530 0.551313
vt 0.184200 0.546245
vt 0.186312 0.543072
vt 0.202138 0.549192
vt 0.207142 0.548807
vt 0.207311 0.552654
vt 0.202540 0.552967
vt 0.178138 0.011937
vt 0.182451 0.008479
vt 0.182579 0.013057
vt 0.174692 0.017602
vt 0.177378 0.019873
vt 0.172243 0.023800
vt 0.174663 0.035150
vt 0.172314 0.029060
vt 0.177183 0.032982
vt 0.178167 0.040704
vt 0.182579 0.039436
vt 0.182602 0.044026
vt 0.002695 0.999738
vt 0.000262 0.999738
vt 0.000262 0.995095
vt 0.002695 0.995095
vt 0.002695 0.962777
vt 0.000262 0.962777
vt 0.000262 0.953106
vt 0.002695 0.953106
vt 0.617417 0.013057
vt 0.622810 0.019590
vt 0.622561 0.032615
vt 0.617417 0.039436
vt 0.615948 0.000262
vt 0.615948 0.001397
vt 0.184048 0.001397
vt 0.184048 0.000262
vt 0.186564 0.516100
vt 0.184661 0.520448
vt 0.185248 0.534071
vt 0.184346 0.526579
vt 0.189053 0.539274
vt 0.195943 0.542659
vt 0.206683 0.544046
vt 0.201919 0.544391
vt 0.163278 0.329456
vt 0.599722 0.329456
vt 0.598366 0.332974
vt 0.164520 0.332994
vt 0.606767 0.374129
vt 0.609431 0.376818
vt 0.169476 0.044588
vt 0.180364 0.045689
vt 0.171639 0.049534
vt 0.171186 0.002612
vt 0.180458 0.006650
vt 0.168974 0.007861
vt 0.164584 0.023129
vt 0.163278 0.023013
vt 0.165088 0.014296
vt 0.166378 0.014674
vt 0.164830 0.030122
vt 0.166853 0.038248
vt 0.615948 0.009510
vt 0.184048 0.009509
vt 0.603638 0.370619
vt 0.000262 0.985326
vt 0.002695 0.985326
vt 0.184048 0.042984
vt 0.615948 0.042984
vt 0.615948 0.051096
vt 0.184048 0.051096
vt 0.002695 0.943033
vt 0.081508 0.943033
vt 0.081508 0.953106
vt 0.002695 0.974940
vt 0.081508 0.962777
vt 0.081508 0.974940
vt 0.002695 0.938390
vt 0.081508 0.938390
vt 0.081508 0.985326
vt 0.000262 0.974940
vt 0.000262 0.938390
vt 0.000262 0.943033
vt 0.000262 0.500000
vt 0.002695 0.500000
vt 0.081508 0.995095
vt 0.081508 0.999738
vt 0.081508 0.500000
vt 0.168269 0.045100
vt 0.165623 0.038653
vt 0.163571 0.030299
vt 0.167681 0.007344
vt 0.169894 0.002070
vt 0.170424 0.050062
vt 0.081508 0.438652
vt 0.002695 0.438652
vt 0.002695 0.000262
vt 0.081508 0.000262
vt 0.000262 0.438652
vt 0.000262 0.000262
vt 0.596913 0.337412
vt 0.166171 0.337485
vt 0.615907 0.104726
vt 0.183991 0.104726
vt 0.183991 0.103591
vt 0.615907 0.103591
vt 0.604130 0.331036
vt 0.603008 0.334606
vt 0.609971 0.338024
vt 0.612459 0.335663
vt 0.617784 0.344196
vt 0.614679 0.346189
vt 0.615029 0.364032
vt 0.616532 0.355267
vt 0.620232 0.355860
vt 0.618329 0.365255
vt 0.610386 0.370774
vt 0.612842 0.373584
vt 0.620433 0.010680
vt 0.625405 0.017372
vt 0.627632 0.023434
vt 0.625220 0.034784
vt 0.627546 0.028587
vt 0.621886 0.040514
vt 0.617593 0.044029
vt 0.002695 0.443295
vt 0.000262 0.443295
vt 0.002695 0.475614
vt 0.002695 0.485284
vt 0.000262 0.485284
vt 0.000262 0.475614
vt 0.601309 0.338971
vt 0.610746 0.348490
vt 0.605942 0.342839
vt 0.609805 0.361943
vt 0.611962 0.354710
vt 0.607067 0.367411
vt 0.621881 0.011794
vt 0.630754 0.044224
vt 0.628689 0.049272
vt 0.619788 0.045600
vt 0.628452 0.003097
vt 0.630544 0.008033
vt 0.619746 0.006827
vt 0.635246 0.022445
vt 0.633120 0.014384
vt 0.634335 0.013980
vt 0.636531 0.022290
vt 0.635146 0.029484
vt 0.633255 0.037752
vt 0.002695 0.453065
vt 0.000262 0.453065
vt 0.002695 0.495357
vt 0.081508 0.485284
vt 0.081508 0.495357
vt 0.002695 0.463451
vt 0.081508 0.463451
vt 0.081508 0.475614
vt 0.081508 0.453065
vt 0.000262 0.463451
vt 0.000262 0.495357
vt 0.081508 0.443295
vt 0.631986 0.044713
vt 0.634508 0.038135
vt 0.636421 0.029635
vt 0.631751 0.007532
vt 0.629664 0.002586
vt 0.629928 0.049776
vt 0.601120 0.289456
vt 0.602886 0.293754
vt 0.599486 0.295321
vt 0.597566 0.290709
vt 0.601664 0.302788
vt 0.605089 0.303032
vt 0.602384 0.312728
vt 0.598815 0.311782
vt 0.585875 0.324096
vt 0.593363 0.319283
vt 0.595424 0.322416
vt 0.587202 0.327358
vt 0.577759 0.325225
vt 0.577346 0.328933
vt 0.572663 0.328602
vt 0.572835 0.324834
vt 0.621840 0.064288
vt 0.617376 0.065551
vt 0.617372 0.060911
vt 0.625364 0.069866
vt 0.627591 0.075928
vt 0.622769 0.072084
vt 0.625179 0.087278
vt 0.622520 0.085110
vt 0.627505 0.081082
vt 0.621844 0.093009
vt 0.617551 0.096524
vt 0.617376 0.091931
vt 0.160321 0.999738
vt 0.160321 0.995095
vt 0.162754 0.995095
vt 0.162754 0.999738
vt 0.160321 0.962777
vt 0.160321 0.953106
vt 0.162754 0.953106
vt 0.162754 0.962777
vt 0.182521 0.091931
vt 0.177119 0.085403
vt 0.177350 0.072298
vt 0.182521 0.065551
vt 0.183991 0.052755
vt 0.615907 0.052755
vt 0.615907 0.053891
vt 0.183991 0.053891
vt 0.595110 0.297032
vt 0.593268 0.292742
vt 0.594458 0.310432
vt 0.595386 0.303067
vt 0.583889 0.318825
vt 0.590686 0.315532
vt 0.573306 0.320131
vt 0.577999 0.320497
vt 0.623225 0.108881
vt 0.185350 0.108800
vt 0.183981 0.105250
vt 0.624501 0.105250
vt 0.174170 0.153017
vt 0.176846 0.150303
vt 0.630713 0.096719
vt 0.628648 0.101766
vt 0.619747 0.098095
vt 0.628411 0.055590
vt 0.630503 0.060526
vt 0.619705 0.059320
vt 0.635205 0.074939
vt 0.633079 0.066878
vt 0.634295 0.066474
vt 0.636490 0.074784
vt 0.635105 0.081978
vt 0.633214 0.090246
vt 0.615907 0.062003
vt 0.183991 0.062003
vt 0.179986 0.146837
vt 0.160321 0.985326
vt 0.162754 0.985326
vt 0.183991 0.095478
vt 0.615907 0.095478
vt 0.160321 0.943033
vt 0.160321 0.974940
vt 0.160321 0.938390
vt 0.162754 0.974940
vt 0.162754 0.938390
vt 0.162754 0.943033
vt 0.160321 0.500000
vt 0.162754 0.500000
vt 0.631946 0.097207
vt 0.634467 0.090629
vt 0.636380 0.082129
vt 0.631710 0.060025
vt 0.629623 0.055079
vt 0.629888 0.102271
vt 0.160321 0.000262
vt 0.160321 0.438652
vt 0.162754 0.000262
vt 0.162754 0.438652
vt 0.621587 0.113338
vt 0.186817 0.113280
vt 0.180664 0.110447
vt 0.179532 0.106845
vt 0.173636 0.113897
vt 0.168883 0.122139
vt 0.165749 0.120127
vt 0.171124 0.111514
vt 0.168526 0.140150
vt 0.165196 0.141382
vt 0.163278 0.131900
vt 0.167012 0.131302
vt 0.173198 0.146955
vt 0.170733 0.149782
vt 0.178107 0.064446
vt 0.182386 0.061002
vt 0.174646 0.069996
vt 0.172286 0.076228
vt 0.174566 0.087559
vt 0.172291 0.081429
vt 0.178059 0.093198
vt 0.182530 0.096569
vt 0.162754 0.443295
vt 0.160321 0.443295
vt 0.160321 0.475614
vt 0.162754 0.475614
vt 0.162754 0.485284
vt 0.160321 0.485284
vt 0.182380 0.114854
vt 0.172853 0.124462
vt 0.177703 0.118758
vt 0.171625 0.130740
vt 0.173802 0.138041
vt 0.176568 0.143566
vt 0.169200 0.097059
vt 0.180242 0.098280
vt 0.171347 0.102100
vt 0.171448 0.055408
vt 0.180373 0.059355
vt 0.169273 0.060470
vt 0.164575 0.075229
vt 0.163278 0.075078
vt 0.165431 0.066665
vt 0.166678 0.067069
vt 0.164680 0.082319
vt 0.166606 0.090599
vt 0.162754 0.453065
vt 0.160321 0.453065
vt 0.160321 0.495357
vt 0.160321 0.463451
vt 0.162754 0.463451
vt 0.162754 0.495357
vt 0.167969 0.097566
vt 0.165352 0.090994
vt 0.163399 0.082474
vt 0.168026 0.059959
vt 0.170202 0.054875
vt 0.170108 0.102624
vt 0.615948 0.052231
vt 0.184048 0.052231
s 1
usemtl UV
f 9/1/1 10/2/2 11/3/3 12/4/4
f 13/5/5 14/6/6 15/7/7 16/8/8
f 17/9/9 18/10/10 19/11/11 20/12/12
f 21/13/13 22/14/14 23/15/15 24/16/16
f 25/17/17 26/18/18 27/19/19
f 28/20/20 29/21/21 30/22/22
f 31/23/23 32/24/24 33/25/25
f 34/26/26 35/27/27 36/28/28
f 45/29/29 9/30/1 12/31/4 49/32/30
f 11/3/3 13/5/5 16/8/8 12/4/4
f 17/9/9 21/13/13 24/16/16 18/10/10
f 48/33/31 19/34/11 18/35/10 52/36/32
f 27/19/19 87/37/33 89/38/34 93/39/35 95/40/36 35/27/27 33/25/25 29/21/21
f 14/6/6 20/12/12 19/11/11 15/7/7
f 64/41/37 119/42/38 59/43/29 4/44/39
f 10/2/2 4/45/39 3/46/40 11/3/3
f 2/47/41 14/6/6 13/5/5 1/48/42
f 20/12/12 8/49/43 7/50/44 17/9/9
f 6/51/45 22/14/14 21/13/13 5/52/46
f 27/19/19 29/21/21 28/20/20 25/17/17
f 33/25/25 35/27/27 34/26/26 31/23/23
f 9/53/1 69/54/47 70/55/48 10/56/2
f 29/21/21 33/25/25 32/24/24 30/22/22
f 22/14/14 82/57/49 83/58/50 23/15/15
f 53/59/51 34/26/26 36/60/28 54/61/52
f 59/62/29 26/63/18 25/17/17 55/64/53
f 56/65/54 2/66/41 1/67/42 57/68/55
f 60/69/56 32/24/24 31/23/23 58/70/57
f 57/68/55 55/64/53 25/17/17 28/20/20
f 2/47/41 8/49/43 20/12/12 14/6/6
f 3/46/40 1/48/42 13/5/5 11/3/3
f 60/69/56 56/65/54 30/22/22 32/24/24
f 119/42/38 86/71/58 26/72/18 59/43/29
f 53/59/51 58/70/57 31/23/23 34/26/26
f 7/50/44 5/52/46 21/13/13 17/9/9
f 66/73/59 82/57/49 22/14/14 6/51/45
f 49/32/30 12/31/4 16/74/8 46/75/60
f 36/76/28 96/77/61 114/78/62 54/79/52
f 47/80/63 42/81/63 44/82/32 52/36/32
f 50/83/64 48/33/31 43/84/31 39/85/64
f 51/86/52 41/87/52 42/81/63 47/80/63
f 50/83/64 39/85/64 40/88/60 46/75/60
f 15/89/7 50/83/64 46/75/60 16/74/8
f 23/90/15 51/86/52 47/80/63 24/91/16
f 15/89/7 19/34/11 48/33/31 50/83/64
f 24/91/16 47/80/63 52/36/32 18/35/10
f 23/90/15 83/92/50 111/93/62 51/86/52
f 38/94/30 49/32/30 46/75/60 40/88/60
f 43/84/31 48/33/31 52/36/32 44/82/32
f 37/95/29 45/29/29 49/32/30 38/94/30
f 51/86/52 111/93/62 101/96/62 41/87/52
f 5/97/46 7/98/44 58/70/57 53/59/51
f 8/99/43 2/66/41 56/65/54 60/69/56
f 1/67/42 3/100/40 55/64/53 57/68/55
f 8/99/43 60/69/56 58/70/57 7/98/44
f 30/22/22 56/65/54 57/68/55 28/20/20
f 4/101/39 59/62/29 55/64/53 3/100/40
f 5/97/46 53/59/51 54/61/52 6/102/45
f 35/27/27 95/40/36 96/77/61 36/76/28
f 97/103/38 105/104/38 45/105/29 37/106/29
f 105/104/38 69/107/47 9/108/1 45/105/29
f 10/56/2 70/55/48 64/109/37 4/110/39
f 26/72/18 86/71/58 87/37/33 27/19/19
f 126/111/65 178/112/66 218/113/62 166/114/52
f 69/54/47 72/115/67 71/116/68 70/55/48
f 73/117/69 76/118/70 75/119/71 74/120/72
f 77/121/73 80/122/74 79/123/75 78/124/76
f 81/125/77 84/126/78 83/58/50 82/57/49
f 85/127/79 87/37/33 86/71/58
f 88/128/80 90/129/81 89/38/34
f 91/130/82 93/39/35 92/131/83
f 94/132/84 96/133/61 95/40/36
f 105/104/38 109/134/85 72/135/67 69/107/47
f 71/116/68 72/115/67 76/118/70 73/117/69
f 77/121/73 78/124/76 84/126/78 81/125/77
f 108/136/86 112/137/87 78/138/76 79/139/75
f 74/120/72 75/119/71 79/123/75 80/122/74
f 70/55/48 71/116/68 63/140/88 64/109/37
f 62/141/89 61/142/90 73/117/69 74/120/72
f 80/122/74 77/121/73 67/143/91 68/144/92
f 66/73/59 65/145/93 81/125/77 82/57/49
f 87/37/33 85/146/79 88/128/80 89/38/34
f 93/39/35 91/130/82 94/132/84 95/40/36
f 89/38/34 90/129/81 92/131/83 93/39/35
f 113/147/94 114/148/62 96/149/61 94/132/84
f 119/150/38 115/151/95 85/146/79 86/152/58
f 116/153/96 117/154/97 61/155/90 62/156/89
f 120/157/98 118/158/99 91/130/82 92/131/83
f 117/154/97 88/128/80 85/146/79 115/151/95
f 62/141/89 74/120/72 80/122/74 68/144/92
f 63/140/88 71/116/68 73/117/69 61/142/90
f 120/157/98 92/131/83 90/129/81 116/153/96
f 113/147/94 94/132/84 91/130/82 118/158/99
f 67/143/91 77/121/73 81/125/77 65/145/93
f 109/134/85 106/159/100 76/160/70 72/135/67
f 107/161/101 112/137/87 104/162/87 102/163/101
f 110/164/102 99/165/102 103/166/86 108/136/86
f 111/93/62 107/161/101 102/163/101 101/96/62
f 110/164/102 106/159/100 100/167/100 99/165/102
f 75/168/71 76/160/70 106/159/100 110/164/102
f 83/92/50 84/169/78 107/161/101 111/93/62
f 75/168/71 110/164/102 108/136/86 79/139/75
f 84/169/78 78/138/76 112/137/87 107/161/101
f 98/170/85 100/167/100 106/159/100 109/134/85
f 103/166/86 104/162/87 112/137/87 108/136/86
f 97/103/38 98/170/85 109/134/85 105/104/38
f 65/171/93 113/147/94 118/158/99 67/172/91
f 68/173/92 120/157/98 116/153/96 62/156/89
f 61/155/90 117/154/97 115/151/95 63/174/88
f 68/173/92 67/172/91 118/158/99 120/157/98
f 90/129/81 88/128/80 117/154/97 116/153/96
f 64/175/37 63/174/88 115/151/95 119/150/38
f 65/171/93 66/176/59 114/148/62 113/147/94
f 129/177/103 132/178/104 131/179/105 130/180/106
f 133/181/107 136/182/108 135/183/109 134/184/110
f 137/185/111 140/186/112 139/187/113 138/188/114
f 141/189/115 144/190/116 143/191/117 142/192/118
f 145/193/119 147/194/120 146/195/121
f 148/196/122 150/197/123 149/198/124
f 151/199/125 153/200/126 152/201/127
f 154/202/128 156/203/129 155/204/130
f 157/205/131 161/206/30 132/207/104 129/208/103
f 131/179/105 132/178/104 136/182/108 133/181/107
f 137/185/111 138/188/114 144/190/116 141/189/115
f 160/209/31 164/210/32 138/211/114 139/212/113
f 155/204/130 207/213/132 205/214/133 201/215/134 199/216/135 147/194/120 149/198/124 153/200/126
f 134/184/110 135/183/109 139/187/113 140/186/112
f 176/217/136 124/218/137 171/219/29 223/220/38
f 130/180/106 131/179/105 123/221/138 124/222/137
f 122/223/139 121/224/140 133/181/107 134/184/110
f 140/186/112 137/185/111 127/225/141 128/226/142
f 126/227/65 125/228/143 141/189/115 142/192/118
f 147/194/120 145/193/119 148/196/122 149/198/124
f 153/200/126 151/199/125 154/202/128 155/204/130
f 130/229/106 182/230/144 181/231/145 129/232/103
f 149/198/124 150/197/123 152/201/127 153/200/126
f 143/191/117 195/233/146 194/234/147 142/192/118
f 165/235/51 166/236/52 156/237/129 154/202/128
f 171/238/29 167/239/53 145/193/119 146/240/121
f 168/241/54 169/242/55 121/243/140 122/244/139
f 172/245/56 170/246/57 151/199/125 152/201/127
f 169/242/55 148/196/122 145/193/119 167/239/53
f 122/223/139 134/184/110 140/186/112 128/226/142
f 123/221/138 131/179/105 133/181/107 121/224/140
f 172/245/56 152/201/127 150/197/123 168/241/54
f 223/220/38 171/219/29 146/247/121 198/248/148
f 165/235/51 154/202/128 151/199/125 170/246/57
f 127/225/141 137/185/111 141/189/115 125/228/143
f 178/249/66 126/227/65 142/192/118 194/234/147
f 161/206/30 158/250/60 136/251/108 132/207/104
f 166/114/52 218/113/62 208/252/149 156/253/129
f 159/254/63 164/210/32 44/82/32 42/81/63
f 162/255/64 39/85/64 43/84/31 160/209/31
f 163/256/52 159/254/63 42/81/63 41/87/52
f 162/255/64 158/250/60 40/88/60 39/85/64
f 135/257/109 136/251/108 158/250/60 162/255/64
f 143/258/117 144/259/116 159/254/63 163/256/52
f 135/257/109 162/255/64 160/209/31 139/212/113
f 144/259/116 138/211/114 164/210/32 159/254/63
f 163/256/52 215/260/62 195/261/146 143/258/117
f 38/94/30 40/88/60 158/250/60 161/206/30
f 43/84/31 44/82/32 164/210/32 160/209/31
f 37/95/29 38/94/30 161/206/30 157/205/131
f 41/87/52 101/96/62 215/260/62 163/256/52
f 125/262/143 165/235/51 170/246/57 127/263/141
f 128/264/142 172/245/56 168/241/54 122/244/139
f 121/243/140 169/242/55 167/239/53 123/265/138
f 128/264/142 127/263/141 170/246/57 172/245/56
f 150/197/123 148/196/122 169/242/55 168/241/54
f 124/266/137 123/265/138 167/239/53 171/238/29
f 125/262/143 126/267/65 166/236/52 165/235/51
f 156/253/129 208/252/149 207/213/132 155/204/130
f 97/103/38 37/106/29 157/268/131 209/269/38
f 209/269/38 157/268/131 129/270/103 181/271/145
f 124/272/137 176/273/136 182/230/144 130/229/106
f 147/194/120 199/216/135 198/248/148 146/247/121
f 181/231/145 182/230/144 183/274/150 184/275/151
f 185/276/152 186/277/153 187/278/154 188/279/155
f 189/280/156 190/281/157 191/282/158 192/283/159
f 193/284/160 194/234/147 195/233/146 196/285/161
f 197/286/162 198/287/148 199/216/135
f 200/288/163 201/215/134 202/289/164
f 203/290/165 204/291/166 205/214/133
f 206/292/167 207/213/132 208/293/149
f 209/269/38 181/271/145 184/294/151 213/295/85
f 183/274/150 185/276/152 188/279/155 184/275/151
f 189/280/156 193/284/160 196/285/161 190/281/157
f 212/296/86 191/297/158 190/298/157 216/299/168
f 186/277/153 192/283/159 191/282/158 187/278/154
f 182/230/144 176/273/136 175/300/169 183/274/150
f 174/301/170 186/277/153 185/276/152 173/302/171
f 192/283/159 180/303/172 179/304/173 189/280/156
f 178/249/66 194/234/147 193/284/160 177/305/174
f 199/216/135 201/215/134 200/288/163 197/286/162
f 205/214/133 207/213/132 206/292/167 203/290/165
f 201/215/134 205/214/133 204/291/166 202/289/164
f 217/306/94 206/292/167 208/307/149 218/308/62
f 223/309/38 198/310/148 197/286/162 219/311/95
f 220/312/96 174/313/170 173/314/171 221/315/97
f 224/316/98 204/291/166 203/290/165 222/317/99
f 221/315/97 219/311/95 197/286/162 200/288/163
f 174/301/170 180/303/172 192/283/159 186/277/153
f 175/300/169 173/302/171 185/276/152 183/274/150
f 224/316/98 220/312/96 202/289/164 204/291/166
f 217/306/94 222/317/99 203/290/165 206/292/167
f 179/304/173 177/305/174 193/284/160 189/280/156
f 213/295/85 184/294/151 188/318/155 210/319/100
f 211/320/101 102/163/101 104/162/87 216/299/168
f 214/321/102 212/296/86 103/166/86 99/165/102
f 215/260/62 101/96/62 102/163/101 211/320/101
f 214/321/102 99/165/102 100/167/100 210/319/100
f 187/322/154 214/321/102 210/319/100 188/318/155
f 195/261/146 215/260/62 211/320/101 196/323/161
f 187/322/154 191/297/158 212/296/86 214/321/102
f 196/323/161 211/320/101 216/299/168 190/298/157
f 98/170/85 213/295/85 210/319/100 100/167/100
f 103/166/86 212/296/86 216/299/168 104/162/87
f 97/103/38 209/269/38 213/295/85 98/170/85
f 177/324/174 179/325/173 222/317/99 217/306/94
f 180/326/172 174/313/170 220/312/96 224/316/98
f 173/314/171 175/327/169 219/311/95 221/315/97
f 180/326/172 224/316/98 222/317/99 179/325/173
f 202/289/164 220/312/96 221/315/97 200/288/163
f 176/328/136 223/309/38 219/311/95 175/327/169
f 177/324/174 217/306/94 218/308/62 178/329/66
f 54/79/52 114/78/62 66/330/59 6/331/45
o Nozky_02
v -2.141520 0.055068 -4.834456
v -2.191520 0.055068 -4.784456
v -2.191520 0.005068 -4.834456
v -2.141520 0.055068 -5.019934
v -2.191520 0.005068 -5.019934
v -2.191520 0.055068 -5.069934
v -2.608526 0.055068 -4.834456
v -2.558526 0.005068 -4.834456
v -2.558526 0.055068 -4.784456
v -2.558526 0.055068 -5.069934
v -2.558526 0.005068 -5.019934
v -2.608526 0.055068 -5.019934
v -2.278696 1.160506 -4.784456
v -2.222630 1.175151 -4.834456
v -2.307985 1.210506 -4.834456
v -2.191520 1.073330 -4.784456
v -2.141520 1.044041 -4.834456
v -2.176875 1.129396 -4.834456
v -2.191520 1.073330 -5.069934
v -2.176875 1.129396 -5.019934
v -2.141520 1.044041 -5.019934
v -2.307985 1.210506 -5.019934
v -2.222630 1.175151 -5.019934
v -2.278696 1.160506 -5.069934
v -2.558526 1.073330 -4.784456
v -2.573171 1.129396 -4.834456
v -2.608526 1.044041 -4.834456
v -2.442061 1.210506 -4.834456
v -2.527416 1.175151 -4.834456
v -2.471350 1.160506 -4.784456
v -2.471350 1.160506 -5.069934
v -2.527416 1.175151 -5.019934
v -2.442061 1.210506 -5.019934
v -2.558526 1.073330 -5.069934
v -2.608526 1.044041 -5.019934
v -2.573171 1.129396 -5.019934
v 0.226201 0.055068 -4.834456
v 0.176201 0.055068 -4.784456
v 0.176201 0.005068 -4.834456
v 0.226201 0.055068 -5.019934
v 0.176201 0.005068 -5.019934
v 0.176201 0.055068 -5.069934
v -0.240805 0.055068 -4.834456
v -0.190805 0.005068 -4.834456
v -0.190805 0.055068 -4.784456
v -0.190805 0.055068 -5.069934
v -0.190805 0.005068 -5.019934
v -0.240805 0.055068 -5.019934
v 0.089025 1.160506 -4.784456
v 0.145091 1.175151 -4.834456
v 0.059736 1.210506 -4.834456
v 0.176201 1.073330 -4.784456
v 0.226201 1.044041 -4.834456
v 0.190846 1.129396 -4.834456
v 0.176201 1.073330 -5.069934
v 0.190846 1.129396 -5.019934
v 0.226201 1.044041 -5.019934
v 0.059736 1.210506 -5.019934
v 0.145091 1.175151 -5.019934
v 0.089025 1.160506 -5.069934
v -0.190805 1.073330 -4.784456
v -0.205450 1.129396 -4.834456
v -0.240805 1.044041 -4.834456
v -0.074340 1.210506 -4.834456
v -0.159695 1.175151 -4.834456
v -0.103629 1.160506 -4.784456
v -0.103629 1.160506 -5.069934
v -0.159695 1.175151 -5.019934
v -0.074340 1.210506 -5.019934
v -0.190805 1.073330 -5.069934
v -0.240805 1.044041 -5.019934
v -0.205450 1.129396 -5.019934
v 2.593923 0.055068 -4.834456
v 2.543923 0.055068 -4.784456
v 2.543923 0.005068 -4.834456
v 2.593923 0.055068 -5.019934
v 2.543923 0.005068 -5.019934
v 2.543923 0.055068 -5.069934
v 2.126916 0.055068 -4.834456
v 2.176916 0.005068 -4.834456
v 2.176916 0.055068 -4.784456
v 2.176916 0.055068 -5.069934
v 2.176916 0.005068 -5.019934
v 2.126916 0.055068 -5.019934
v 2.456747 1.160506 -4.784456
v 2.512813 1.175151 -4.834456
v 2.427457 1.210506 -4.834456
v 2.543923 1.073330 -4.784456
v 2.593923 1.044041 -4.834456
v 2.558567 1.129396 -4.834456
v 2.543923 1.073330 -5.069934
v 2.558567 1.129396 -5.019934
v 2.593923 1.044041 -5.019934
v 2.427457 1.210506 -5.019934
v 2.512813 1.175151 -5.019934
v 2.456747 1.160506 -5.069934
v 2.176916 1.073330 -4.784456
v 2.162272 1.129396 -4.834456
v 2.126916 1.044041 -4.834456
v 2.293382 1.210506 -4.834456
v 2.208026 1.175151 -4.834456
v 2.264092 1.160506 -4.784456
v 2.264092 1.160506 -5.069934
v 2.208026 1.175151 -5.019934
v 2.293382 1.210506 -5.019934
v 2.176916 1.073330 -5.069934
v 2.126916 1.044041 -5.019934
v 2.162272 1.129396 -5.019934
v -2.141520 0.055068 -2.479306
v -2.191520 0.055068 -2.529306
v -2.191520 0.005068 -2.479306
v -2.141520 0.055068 -2.293828
v -2.191520 0.005068 -2.293828
v -2.191520 0.055068 -2.243829
v -2.608526 0.055068 -2.479306
v -2.558526 0.005068 -2.479306
v -2.558526 0.055068 -2.529306
v -2.558526 0.055068 -2.243829
v -2.558526 0.005068 -2.293828
v -2.608526 0.055068 -2.293828
v -2.278696 1.160506 -2.529306
v -2.222630 1.175151 -2.479306
v -2.307985 1.210506 -2.479306
v -2.191520 1.073330 -2.529306
v -2.141520 1.044041 -2.479306
v -2.176875 1.129396 -2.479306
v -2.191520 1.073330 -2.243829
v -2.176875 1.129396 -2.293828
v -2.141520 1.044041 -2.293828
v -2.307985 1.210506 -2.293828
v -2.222630 1.175151 -2.293828
v -2.278696 1.160506 -2.243829
v -2.558526 1.073330 -2.529306
v -2.573171 1.129396 -2.479306
v -2.608526 1.044041 -2.479306
v -2.442061 1.210506 -2.479306
v -2.527416 1.175151 -2.479306
v -2.471350 1.160506 -2.529306
v -2.471350 1.160506 -2.243829
v -2.527416 1.175151 -2.293828
v -2.442061 1.210506 -2.293828
v -2.558526 1.073330 -2.243829
v -2.608526 1.044041 -2.293828
v -2.573171 1.129396 -2.293828
v 0.226201 0.055068 -2.479306
v 0.176201 0.055068 -2.529306
v 0.176201 0.005068 -2.479306
v 0.226201 0.055068 -2.293828
v 0.176201 0.005068 -2.293828
v 0.176201 0.055068 -2.243829
v -0.240805 0.055068 -2.479306
v -0.190805 0.005068 -2.479306
v -0.190805 0.055068 -2.529306
v -0.190805 0.055068 -2.243829
v -0.190805 0.005068 -2.293828
v -0.240805 0.055068 -2.293828
v 0.089025 1.160506 -2.529306
v 0.145091 1.175151 -2.479306
v 0.059736 1.210506 -2.479306
v 0.176201 1.073330 -2.529306
v 0.226201 1.044041 -2.479306
v 0.190846 1.129396 -2.479306
v 0.176201 1.073330 -2.243829
v 0.190846 1.129396 -2.293828
v 0.226201 1.044041 -2.293828
v 0.059736 1.210506 -2.293828
v 0.145091 1.175151 -2.293828
v 0.089025 1.160506 -2.243829
v -0.190805 1.073330 -2.529306
v -0.205450 1.129396 -2.479306
v -0.240805 1.044041 -2.479306
v -0.074340 1.210506 -2.479306
v -0.159695 1.175151 -2.479306
v -0.103629 1.160506 -2.529306
v -0.103629 1.160506 -2.243829
v -0.159695 1.175151 -2.293828
v -0.074340 1.210506 -2.293828
v -0.190805 1.073330 -2.243829
v -0.240805 1.044041 -2.293828
v -0.205450 1.129396 -2.293828
v 2.593923 0.055068 -2.479306
v 2.543923 0.055068 -2.529306
v 2.543923 0.005068 -2.479306
v 2.593923 0.055068 -2.293828
v 2.543923 0.005068 -2.293828
v 2.543923 0.055068 -2.243829
v 2.126916 0.055068 -2.479306
v 2.176916 0.005068 -2.479306
v 2.176916 0.055068 -2.529306
v 2.176916 0.055068 -2.243829
v 2.176916 0.005068 -2.293828
v 2.126916 0.055068 -2.293828
v 2.456747 1.160506 -2.529306
v 2.512813 1.175151 -2.479306
v 2.427457 1.210506 -2.479306
v 2.543923 1.073330 -2.529306
v 2.593923 1.044041 -2.479306
v 2.558567 1.129396 -2.479306
v 2.543923 1.073330 -2.243829
v 2.558567 1.129396 -2.293828
v 2.593923 1.044041 -2.293828
v 2.427457 1.210506 -2.293828
v 2.512813 1.175151 -2.293828
v 2.456747 1.160506 -2.243829
v 2.176916 1.073330 -2.529306
v 2.162272 1.129396 -2.479306
v 2.126916 1.044041 -2.479306
v 2.293382 1.210506 -2.479306
v 2.208026 1.175151 -2.479306
v 2.264092 1.160506 -2.529306
v 2.264092 1.160506 -2.243829
v 2.208026 1.175151 -2.293828
v 2.293382 1.210506 -2.293828
v 2.176916 1.073330 -2.243829
v 2.126916 1.044041 -2.293828
v 2.162272 1.129396 -2.293828
vn 0.9776 -0.0422 0.2060
vn 0.1092 -0.0416 0.9931
vn 0.1058 -0.9747 0.1971
vn 0.9776 -0.0422 -0.2061
vn 0.1059 -0.9746 -0.1971
vn 0.1092 -0.0416 -0.9931
vn -0.9776 -0.0422 0.2061
vn -0.1059 -0.9746 0.1971
vn -0.1092 -0.0416 0.9931
vn -0.1092 -0.0416 -0.9931
vn -0.1058 -0.9747 -0.1971
vn -0.9776 -0.0422 -0.2060
vn 0.0102 0.0330 0.9994
vn 0.5345 0.8267 0.1754
vn 0.1418 0.9722 0.1865
vn 0.1215 0.0092 0.9925
vn 0.9790 0.0290 0.2016
vn 0.8267 0.5345 0.1754
vn 0.1215 0.0092 -0.9925
vn 0.8267 0.5345 -0.1754
vn 0.9790 0.0290 -0.2016
vn 0.1418 0.9722 -0.1865
vn 0.5345 0.8267 -0.1754
vn 0.0102 0.0330 -0.9994
vn -0.1215 0.0092 0.9925
vn -0.8267 0.5345 0.1754
vn -0.9790 0.0290 0.2016
vn -0.1418 0.9722 0.1865
vn -0.5345 0.8267 0.1754
vn -0.0102 0.0330 0.9994
vn -0.0102 0.0330 -0.9994
vn -0.5345 0.8267 -0.1754
vn -0.1418 0.9722 -0.1865
vn -0.1215 0.0092 -0.9925
vn -0.9790 0.0290 -0.2016
vn -0.8267 0.5345 -0.1754
vn -0.9790 0.0291 -0.2016
vn -0.1092 -0.0417 0.9931
vn -0.9776 -0.0422 0.2060
vn 0.1216 0.0092 0.9925
vn -0.1216 0.0092 0.9925
vn 0.9790 0.0291 0.2016
vt 0.163278 0.639099
vt 0.168401 0.639099
vt 0.165840 0.643537
vt 0.163278 0.662787
vt 0.165840 0.658350
vt 0.168401 0.662787
vt 0.199432 0.641661
vt 0.194995 0.644223
vt 0.194995 0.639099
vt 0.194995 0.662787
vt 0.194995 0.657663
vt 0.199432 0.660225
vt 0.174718 0.558998
vt 0.169595 0.556876
vt 0.175370 0.553491
vt 0.168401 0.565315
vt 0.163278 0.567437
vt 0.164968 0.560960
vt 0.168401 0.736571
vt 0.164968 0.740927
vt 0.163278 0.734449
vt 0.175370 0.748396
vt 0.169595 0.745011
vt 0.174718 0.742888
vt 0.194995 0.565315
vt 0.198429 0.560960
vt 0.200119 0.567437
vt 0.188026 0.553491
vt 0.193802 0.556876
vt 0.188678 0.558998
vt 0.188678 0.742888
vt 0.193802 0.745011
vt 0.188026 0.748396
vt 0.194995 0.736571
vt 0.200119 0.734449
vt 0.198429 0.740927
vt 0.163278 0.657663
vt 0.163278 0.644223
vt 0.168401 0.644223
vt 0.168401 0.657663
vt 0.200119 0.644223
vt 0.200119 0.657663
vt 0.166279 0.560191
vt 0.306269 0.644223
vt 0.306269 0.657663
vt 0.299574 0.657663
vt 0.299574 0.644223
vt 0.166279 0.741695
vt 0.310957 0.657663
vt 0.310957 0.644223
vt 0.317652 0.644223
vt 0.317652 0.657663
vt 0.197118 0.741695
vt 0.283164 0.657663
vt 0.283164 0.644223
vt 0.289859 0.644223
vt 0.289859 0.657663
vt 0.197118 0.560191
vt 0.278476 0.644223
vt 0.278476 0.657663
vt 0.271781 0.657663
vt 0.271781 0.644223
vt 0.200119 0.639099
vt 0.176841 0.553874
vt 0.186556 0.553874
vt 0.186556 0.748012
vt 0.176841 0.748012
vt 0.200119 0.662787
vt 0.389314 0.644223
vt 0.389314 0.657663
vt 0.637055 0.672156
vt 0.642178 0.672156
vt 0.639616 0.676593
vt 0.637055 0.695844
vt 0.639616 0.691406
vt 0.642178 0.695844
vt 0.673209 0.674718
vt 0.668772 0.677280
vt 0.668772 0.672156
vt 0.668772 0.695844
vt 0.668772 0.690720
vt 0.673209 0.693282
vt 0.648495 0.592055
vt 0.643371 0.589932
vt 0.649147 0.586547
vt 0.642178 0.598372
vt 0.637055 0.600494
vt 0.638745 0.594016
vt 0.642178 0.769628
vt 0.638745 0.773983
vt 0.637055 0.767506
vt 0.649147 0.781452
vt 0.643371 0.778067
vt 0.648495 0.775945
vt 0.668772 0.598372
vt 0.672205 0.594016
vt 0.673896 0.600494
vt 0.661803 0.586547
vt 0.667579 0.589932
vt 0.662455 0.592055
vt 0.662455 0.775945
vt 0.667579 0.778067
vt 0.661803 0.781452
vt 0.668772 0.769628
vt 0.673896 0.767506
vt 0.672205 0.773983
vt 0.637055 0.690720
vt 0.637055 0.677280
vt 0.642178 0.677280
vt 0.642178 0.690720
vt 0.673896 0.677280
vt 0.673896 0.690720
vt 0.640056 0.593248
vt 0.780046 0.677280
vt 0.780046 0.690720
vt 0.773351 0.690720
vt 0.773351 0.677280
vt 0.640056 0.774752
vt 0.784734 0.690720
vt 0.784734 0.677280
vt 0.791429 0.677280
vt 0.791429 0.690720
vt 0.670894 0.774752
vt 0.756941 0.690720
vt 0.756941 0.677280
vt 0.763636 0.677280
vt 0.763636 0.690720
vt 0.670894 0.593248
vt 0.752252 0.677280
vt 0.752252 0.690720
vt 0.745558 0.690720
vt 0.745558 0.677280
vt 0.673896 0.672156
vt 0.650617 0.586931
vt 0.660333 0.586931
vt 0.660333 0.781069
vt 0.650617 0.781069
vt 0.673896 0.695844
vt 0.863091 0.677280
vt 0.863091 0.690720
vt 0.163278 0.834528
vt 0.168401 0.834528
vt 0.165840 0.838965
vt 0.163278 0.858216
vt 0.165840 0.853778
vt 0.168401 0.858216
vt 0.199432 0.837090
vt 0.194995 0.839652
vt 0.194995 0.834528
vt 0.194995 0.858216
vt 0.194995 0.853092
vt 0.199432 0.855654
vt 0.174718 0.754427
vt 0.169595 0.752304
vt 0.175370 0.748919
vt 0.168401 0.760744
vt 0.163278 0.762866
vt 0.164968 0.756388
vt 0.168401 0.932000
vt 0.164968 0.936355
vt 0.163278 0.929878
vt 0.175370 0.943824
vt 0.169595 0.940439
vt 0.174718 0.938317
vt 0.194995 0.760744
vt 0.198429 0.756388
vt 0.200119 0.762866
vt 0.188026 0.748919
vt 0.193802 0.752304
vt 0.188678 0.754427
vt 0.188678 0.938317
vt 0.193802 0.940439
vt 0.188026 0.943824
vt 0.194995 0.932000
vt 0.200119 0.929878
vt 0.198429 0.936355
vt 0.163278 0.853092
vt 0.163278 0.839652
vt 0.168401 0.839652
vt 0.168401 0.853092
vt 0.200119 0.839652
vt 0.200119 0.853092
vt 0.166279 0.755620
vt 0.306269 0.839652
vt 0.306269 0.853092
vt 0.299574 0.853092
vt 0.299574 0.839652
vt 0.166279 0.937124
vt 0.310957 0.853092
vt 0.310957 0.839652
vt 0.317652 0.839652
vt 0.317652 0.853092
vt 0.197118 0.937124
vt 0.283164 0.853092
vt 0.283164 0.839652
vt 0.289859 0.839652
vt 0.289859 0.853092
vt 0.197117 0.755620
vt 0.278476 0.839652
vt 0.278476 0.853092
vt 0.271781 0.853092
vt 0.271781 0.839652
vt 0.200119 0.834528
vt 0.176841 0.749303
vt 0.186556 0.749303
vt 0.186556 0.943441
vt 0.176841 0.943441
vt 0.200119 0.858216
vt 0.389314 0.839652
vt 0.389314 0.853092
vt 0.637055 0.500415
vt 0.639616 0.495978
vt 0.642178 0.500415
vt 0.637055 0.476728
vt 0.642178 0.476728
vt 0.639616 0.481165
vt 0.673209 0.497853
vt 0.668772 0.500415
vt 0.668772 0.495291
vt 0.668772 0.476728
vt 0.673209 0.479289
vt 0.668772 0.481851
vt 0.648495 0.580516
vt 0.649147 0.586024
vt 0.643371 0.582639
vt 0.642178 0.574200
vt 0.638745 0.578555
vt 0.637055 0.572077
vt 0.642178 0.402943
vt 0.637055 0.405065
vt 0.638745 0.398588
vt 0.649147 0.391119
vt 0.648495 0.396626
vt 0.643371 0.394504
vt 0.668772 0.574200
vt 0.673896 0.572077
vt 0.672205 0.578555
vt 0.661803 0.586024
vt 0.662455 0.580516
vt 0.667579 0.582639
vt 0.662455 0.396626
vt 0.661803 0.391119
vt 0.667579 0.394504
vt 0.668772 0.402943
vt 0.672206 0.398588
vt 0.673896 0.405065
vt 0.637055 0.481851
vt 0.642178 0.481851
vt 0.642178 0.495291
vt 0.637055 0.495291
vt 0.673896 0.495291
vt 0.673896 0.481851
vt 0.640056 0.579323
vt 0.780046 0.495291
vt 0.773351 0.495291
vt 0.773351 0.481851
vt 0.780046 0.481851
vt 0.640056 0.397819
vt 0.784734 0.481851
vt 0.791429 0.481851
vt 0.791429 0.495291
vt 0.784734 0.495291
vt 0.670894 0.397819
vt 0.756941 0.481851
vt 0.763636 0.481851
vt 0.763636 0.495291
vt 0.756941 0.495291
vt 0.670894 0.579323
vt 0.752252 0.495291
vt 0.745558 0.495291
vt 0.745558 0.481851
vt 0.752252 0.481851
vt 0.673896 0.500415
vt 0.660333 0.585640
vt 0.650617 0.585640
vt 0.660333 0.391502
vt 0.650617 0.391502
vt 0.673896 0.476728
vt 0.863091 0.495291
vt 0.863091 0.481851
vt 0.637055 0.109558
vt 0.639616 0.105121
vt 0.642178 0.109558
vt 0.637055 0.085871
vt 0.642178 0.085871
vt 0.639616 0.090308
vt 0.673209 0.106996
vt 0.668772 0.109558
vt 0.668772 0.104434
vt 0.668772 0.085871
vt 0.673209 0.088432
vt 0.668772 0.090994
vt 0.648495 0.189659
vt 0.649147 0.195167
vt 0.643371 0.191782
vt 0.642178 0.183342
vt 0.638745 0.187698
vt 0.637055 0.181220
vt 0.642178 0.012086
vt 0.637054 0.014208
vt 0.638745 0.007731
vt 0.649147 0.000262
vt 0.648495 0.005769
vt 0.643371 0.003647
vt 0.668772 0.183342
vt 0.673896 0.181220
vt 0.672205 0.187698
vt 0.661803 0.195167
vt 0.662455 0.189659
vt 0.667579 0.191782
vt 0.662455 0.005769
vt 0.661803 0.000262
vt 0.667579 0.003647
vt 0.668772 0.012086
vt 0.672205 0.007731
vt 0.673896 0.014208
vt 0.637055 0.090994
vt 0.642178 0.090994
vt 0.642178 0.104434
vt 0.637055 0.104434
vt 0.673896 0.104434
vt 0.673896 0.090994
vt 0.640056 0.188466
vt 0.780046 0.104434
vt 0.773351 0.104434
vt 0.773351 0.090994
vt 0.780046 0.090994
vt 0.640056 0.006962
vt 0.784734 0.090994
vt 0.791429 0.090994
vt 0.791429 0.104434
vt 0.784734 0.104434
vt 0.670894 0.006962
vt 0.756941 0.090994
vt 0.763636 0.090994
vt 0.763636 0.104434
vt 0.756941 0.104434
vt 0.670894 0.188466
vt 0.752252 0.104434
vt 0.745558 0.104434
vt 0.745558 0.090994
vt 0.752252 0.090994
vt 0.673896 0.109558
vt 0.660333 0.194783
vt 0.650617 0.194783
vt 0.660333 0.000645
vt 0.650617 0.000645
vt 0.673896 0.085871
vt 0.863091 0.104434
vt 0.863091 0.090994
vt 0.863091 0.281299
vt 0.860529 0.285736
vt 0.857967 0.281299
vt 0.863091 0.304987
vt 0.857967 0.304987
vt 0.860529 0.300549
vt 0.826936 0.283861
vt 0.831373 0.281299
vt 0.831373 0.286423
vt 0.831373 0.304987
vt 0.826936 0.302425
vt 0.831373 0.299863
vt 0.851650 0.201198
vt 0.850998 0.195690
vt 0.856774 0.199075
vt 0.857967 0.207515
vt 0.861401 0.203159
vt 0.863091 0.209637
vt 0.857967 0.378771
vt 0.863091 0.376649
vt 0.861401 0.383126
vt 0.850998 0.390595
vt 0.851650 0.385088
vt 0.856774 0.387210
vt 0.831373 0.207515
vt 0.826250 0.209637
vt 0.827940 0.203159
vt 0.838342 0.195690
vt 0.837690 0.201198
vt 0.832567 0.199075
vt 0.837690 0.385088
vt 0.838342 0.390595
vt 0.832567 0.387210
vt 0.831374 0.378771
vt 0.827940 0.383126
vt 0.826250 0.376649
vt 0.863091 0.299863
vt 0.857967 0.299863
vt 0.857967 0.286423
vt 0.863091 0.286423
vt 0.826250 0.286423
vt 0.826250 0.299863
vt 0.860089 0.202391
vt 0.720100 0.286423
vt 0.726794 0.286423
vt 0.726794 0.299863
vt 0.720100 0.299863
vt 0.860090 0.383895
vt 0.715411 0.299863
vt 0.708717 0.299863
vt 0.708717 0.286423
vt 0.715411 0.286423
vt 0.829251 0.383895
vt 0.743204 0.299863
vt 0.736510 0.299863
vt 0.736510 0.286423
vt 0.743204 0.286423
vt 0.829251 0.202391
vt 0.747893 0.286423
vt 0.754588 0.286423
vt 0.754588 0.299863
vt 0.747893 0.299863
vt 0.826250 0.281299
vt 0.839813 0.196074
vt 0.849528 0.196074
vt 0.839813 0.390212
vt 0.849528 0.390212
vt 0.826250 0.304987
vt 0.637055 0.286423
vt 0.637055 0.299863
s 1
usemtl UV
f 225/332/175 226/333/176 227/334/177
f 228/335/178 229/336/179 230/337/180
f 231/338/181 232/339/182 233/340/183
f 234/341/184 235/342/185 236/343/186
f 237/344/187 238/345/188 239/346/189
f 240/347/190 241/348/191 242/349/192
f 243/350/193 244/351/194 245/352/195
f 246/353/196 247/354/197 248/355/198
f 249/356/199 250/357/200 251/358/201
f 252/359/202 253/360/203 254/361/204
f 255/362/205 256/363/206 257/364/207
f 258/365/208 259/366/209 260/367/210
f 228/368/178 225/369/175 227/370/177 229/371/179
f 234/341/184 230/337/180 229/371/179 235/342/185
f 231/372/181 236/373/186 235/342/185 232/339/182
f 226/333/176 233/340/183 232/339/182 227/370/177
f 242/374/192 238/345/188 237/344/187 240/347/190
f 238/375/188 247/376/197 246/377/196 239/378/189
f 247/354/197 244/379/194 243/350/193 248/355/198
f 244/380/194 242/381/192 241/382/191 245/383/195
f 260/384/210 256/363/206 255/362/205 258/365/208
f 256/385/206 253/386/203 252/387/202 257/388/207
f 253/360/203 250/389/200 249/356/199 254/361/204
f 250/390/200 260/391/210 259/392/209 251/393/201
f 233/340/183 249/356/199 251/358/201 231/394/181
f 254/361/204 237/344/187 239/395/189 252/396/202
f 240/347/190 226/333/176 225/332/175 241/348/191
f 245/352/195 228/335/178 230/337/180 243/350/193
f 257/397/207 246/398/196 248/355/198 255/362/205
f 258/365/208 234/341/184 236/399/186 259/366/209
f 225/400/175 228/401/178 245/383/195 241/382/191
f 229/371/179 227/370/177 232/339/182 235/342/185
f 233/340/183 226/333/176 240/347/190 237/344/187 254/361/204 249/356/199
f 230/337/180 234/341/184 258/365/208 255/362/205 248/355/198 243/350/193
f 236/373/186 231/372/181 251/393/201 259/392/209
f 238/375/188 242/381/192 244/380/194 247/376/197
f 257/388/207 252/387/202 239/378/189 246/377/196
f 256/385/206 260/391/210 250/390/200 253/386/203
f 261/402/175 262/403/176 263/404/177
f 264/405/178 265/406/179 266/407/180
f 267/408/181 268/409/182 269/410/183
f 270/411/184 271/412/185 272/413/186
f 273/414/187 274/415/188 275/416/189
f 276/417/190 277/418/191 278/419/192
f 279/420/193 280/421/194 281/422/195
f 282/423/196 283/424/197 284/425/198
f 285/426/199 286/427/200 287/428/201
f 288/429/202 289/430/203 290/431/204
f 291/432/205 292/433/206 293/434/207
f 294/435/208 295/436/209 296/437/210
f 264/438/178 261/439/175 263/440/177 265/441/179
f 270/411/184 266/407/180 265/441/179 271/412/185
f 267/442/181 272/443/186 271/412/185 268/409/182
f 262/403/176 269/410/183 268/409/182 263/440/177
f 278/444/192 274/415/188 273/414/187 276/417/190
f 274/445/188 283/446/197 282/447/196 275/448/189
f 283/424/197 280/449/194 279/420/193 284/425/198
f 280/450/194 278/451/192 277/452/191 281/453/195
f 296/454/210 292/433/206 291/432/205 294/435/208
f 292/455/206 289/456/203 288/457/202 293/458/207
f 289/430/203 286/459/200 285/426/199 290/431/204
f 286/460/200 296/461/210 295/462/209 287/463/201
f 269/410/183 285/426/199 287/428/201 267/464/181
f 290/431/204 273/414/187 275/465/189 288/466/202
f 276/417/190 262/403/176 261/402/175 277/418/191
f 281/422/195 264/405/178 266/407/180 279/420/193
f 293/467/207 282/468/196 284/425/198 291/432/205
f 294/435/208 270/411/184 272/469/186 295/436/209
f 261/470/175 264/471/178 281/453/195 277/452/191
f 265/441/179 263/440/177 268/409/182 271/412/185
f 269/410/183 262/403/176 276/417/190 273/414/187 290/431/204 285/426/199
f 266/407/180 270/411/184 294/435/208 291/432/205 284/425/198 279/420/193
f 272/443/186 267/442/181 287/463/201 295/462/209
f 274/445/188 278/451/192 280/450/194 283/446/197
f 293/458/207 288/457/202 275/448/189 282/447/196
f 292/455/206 296/461/210 286/460/200 289/456/203
f 297/472/175 298/473/176 299/474/177
f 300/475/178 301/476/179 302/477/180
f 303/478/181 304/479/182 305/480/183
f 306/481/184 307/482/185 308/483/186
f 309/484/187 310/485/188 311/486/189
f 312/487/190 313/488/191 314/489/192
f 315/490/193 316/491/194 317/492/195
f 318/493/196 319/494/197 320/495/198
f 321/496/199 322/497/200 323/498/201
f 324/499/202 325/500/203 326/501/204
f 327/502/205 328/503/206 329/504/207
f 330/505/208 331/506/211 332/507/210
f 300/508/178 297/509/175 299/510/177 301/511/179
f 306/481/184 302/477/180 301/511/179 307/482/185
f 303/512/181 308/513/186 307/482/185 304/479/182
f 298/473/176 305/480/183 304/479/182 299/510/177
f 314/514/192 310/485/188 309/484/187 312/487/190
f 310/515/188 319/516/197 318/517/196 311/518/189
f 319/494/197 316/519/194 315/490/193 320/495/198
f 316/520/194 314/521/192 313/522/191 317/523/195
f 332/524/210 328/503/206 327/502/205 330/505/208
f 328/525/206 325/526/203 324/527/202 329/528/207
f 325/500/203 322/529/200 321/496/199 326/501/204
f 322/530/200 332/531/210 331/532/211 323/533/201
f 305/480/183 321/496/199 323/498/201 303/534/181
f 326/501/204 309/484/187 311/535/189 324/536/202
f 312/487/190 298/473/176 297/472/175 313/488/191
f 317/492/195 300/475/178 302/477/180 315/490/193
f 329/537/207 318/538/196 320/495/198 327/502/205
f 330/505/208 306/481/184 308/539/186 331/506/211
f 297/540/175 300/541/178 317/523/195 313/522/191
f 301/511/179 299/510/177 304/479/182 307/482/185
f 305/480/183 298/473/176 312/487/190 309/484/187 326/501/204 321/496/199
f 302/477/180 306/481/184 330/505/208 327/502/205 320/495/198 315/490/193
f 308/513/186 303/512/181 323/533/201 331/532/211
f 310/515/188 314/521/192 316/520/194 319/516/197
f 329/528/207 324/527/202 311/518/189 318/517/196
f 328/525/206 332/531/210 322/530/200 325/526/203
f 333/542/178 335/543/179 334/544/180
f 336/545/175 338/546/176 337/547/177
f 339/548/186 341/549/184 340/550/185
f 342/551/212 344/552/213 343/553/182
f 345/554/198 347/555/196 346/556/197
f 348/557/193 350/558/194 349/559/195
f 351/560/214 353/561/191 352/562/192
f 354/563/189 356/564/187 355/565/188
f 357/566/208 359/567/209 358/568/210
f 360/569/207 362/570/205 361/571/206
f 363/572/204 365/573/202 364/574/203
f 366/575/215 368/576/200 367/577/201
f 336/578/175 337/579/177 335/580/179 333/581/178
f 342/551/212 343/553/182 337/579/177 338/546/176
f 339/582/186 340/550/185 343/553/182 344/583/213
f 334/544/180 335/580/179 340/550/185 341/549/184
f 350/584/194 348/557/193 345/554/198 346/556/197
f 346/585/197 347/586/196 354/587/189 355/588/188
f 355/565/188 356/564/187 351/560/214 352/589/192
f 352/590/192 353/591/191 349/592/195 350/593/194
f 368/594/200 366/575/215 363/572/204 364/574/203
f 364/595/203 365/596/202 360/597/207 361/598/206
f 361/571/206 362/570/205 357/566/208 358/599/210
f 358/600/210 359/601/209 367/602/201 368/603/200
f 341/549/184 339/604/186 359/567/209 357/566/208
f 362/570/205 360/605/207 347/606/196 345/554/198
f 348/557/193 349/559/195 333/542/178 334/544/180
f 353/561/191 351/560/214 338/546/176 336/545/175
f 365/607/202 363/572/204 356/564/187 354/608/189
f 366/575/215 367/577/201 344/609/213 342/551/212
f 333/610/178 349/592/195 353/591/191 336/611/175
f 337/579/177 343/553/182 340/550/185 335/580/179
f 341/549/184 357/566/208 362/570/205 345/554/198 348/557/193 334/544/180
f 338/546/176 351/560/214 356/564/187 363/572/204 366/575/215 342/551/212
f 344/583/213 367/602/201 359/601/209 339/582/186
f 346/585/197 355/588/188 352/590/192 350/593/194
f 365/596/202 354/587/189 347/586/196 360/597/207
f 364/595/203 361/598/206 358/600/210 368/603/200
f 369/612/178 371/613/179 370/614/180
f 372/615/175 374/616/176 373/617/177
f 375/618/186 377/619/184 376/620/185
f 378/621/212 380/622/213 379/623/182
f 381/624/198 383/625/196 382/626/197
f 384/627/193 386/628/194 385/629/195
f 387/630/214 389/631/191 388/632/192
f 390/633/189 392/634/187 391/635/188
f 393/636/208 395/637/209 394/638/210
f 396/639/207 398/640/205 397/641/206
f 399/642/204 401/643/202 400/644/203
f 402/645/215 404/646/200 403/647/201
f 372/648/175 373/649/177 371/650/179 369/651/178
f 378/621/212 379/623/182 373/649/177 374/616/176
f 375/652/186 376/620/185 379/623/182 380/653/213
f 370/614/180 371/650/179 376/620/185 377/619/184
f 386/654/194 384/627/193 381/624/198 382/626/197
f 382/655/197 383/656/196 390/657/189 391/658/188
f 391/635/188 392/634/187 387/630/214 388/659/192
f 388/660/192 389/661/191 385/662/195 386/663/194
f 404/664/200 402/645/215 399/642/204 400/644/203
f 400/665/203 401/666/202 396/667/207 397/668/206
f 397/641/206 398/640/205 393/636/208 394/669/210
f 394/670/210 395/671/209 403/672/201 404/673/200
f 377/619/184 375/674/186 395/637/209 393/636/208
f 398/640/205 396/675/207 383/676/196 381/624/198
f 384/627/193 385/629/195 369/612/178 370/614/180
f 389/631/191 387/630/214 374/616/176 372/615/175
f 401/677/202 399/642/204 392/634/187 390/678/189
f 402/645/215 403/647/201 380/679/213 378/621/212
f 369/680/178 385/662/195 389/661/191 372/681/175
f 373/649/177 379/623/182 376/620/185 371/650/179
f 377/619/184 393/636/208 398/640/205 381/624/198 384/627/193 370/614/180
f 374/616/176 387/630/214 392/634/187 399/642/204 402/645/215 378/621/212
f 380/653/213 403/672/201 395/671/209 375/652/186
f 382/655/197 391/658/188 388/660/192 386/663/194
f 401/666/202 390/657/189 383/656/196 396/667/207
f 400/665/203 397/668/206 394/670/210 404/673/200
f 405/682/178 407/683/179 406/684/180
f 408/685/175 410/686/176 409/687/177
f 411/688/186 413/689/184 412/690/185
f 414/691/212 416/692/213 415/693/182
f 417/694/198 419/695/196 418/696/197
f 420/697/193 422/698/194 421/699/195
f 423/700/214 425/701/216 424/702/192
f 426/703/189 428/704/187 427/705/188
f 429/706/208 431/707/209 430/708/210
f 432/709/207 434/710/205 433/711/206
f 435/712/204 437/713/202 436/714/203
f 438/715/215 440/716/200 439/717/201
f 408/718/175 409/719/177 407/720/179 405/721/178
f 414/691/212 415/693/182 409/719/177 410/686/176
f 411/722/186 412/690/185 415/693/182 416/723/213
f 406/684/180 407/720/179 412/690/185 413/689/184
f 422/724/194 420/697/193 417/694/198 418/696/197
f 418/725/197 419/726/196 426/727/189 427/728/188
f 427/705/188 428/704/187 423/700/214 424/729/192
f 424/730/192 425/731/216 421/732/195 422/733/194
f 440/734/200 438/715/215 435/712/204 436/714/203
f 436/735/203 437/736/202 432/737/207 433/738/206
f 433/711/206 434/710/205 429/706/208 430/739/210
f 430/740/210 431/741/209 439/742/201 440/743/200
f 413/689/184 411/744/186 431/707/209 429/706/208
f 434/710/205 432/745/207 419/746/196 417/694/198
f 420/697/193 421/699/195 405/682/178 406/684/180
f 425/701/216 423/700/214 410/686/176 408/685/175
f 437/747/202 435/712/204 428/704/187 426/748/189
f 438/715/215 439/717/201 416/749/213 414/691/212
f 405/750/178 421/732/195 425/731/216 408/751/175
f 409/719/177 415/693/182 412/690/185 407/720/179
f 413/689/184 429/706/208 434/710/205 417/694/198 420/697/193 406/684/180
f 410/686/176 423/700/214 428/704/187 435/712/204 438/715/215 414/691/212
f 416/723/213 439/742/201 431/741/209 411/722/186
f 418/725/197 427/728/188 424/730/192 422/733/194
f 437/736/202 426/727/189 419/726/196 432/737/207
f 436/735/203 433/738/206 430/740/210 440/743/200
o Belt_texture_02
v -1.362834 0.812432 -2.719965
v -2.793992 1.280030 -2.719965
v -1.362834 0.812432 -4.575233
v -2.793992 1.280030 -4.575233
v -1.531495 0.812445 -2.719965
v -1.700156 0.812423 -2.719965
v -1.868816 0.812402 -2.719965
v -2.037477 0.812337 -2.719965
v -2.206137 0.812247 -2.719965
v -2.374799 0.812059 -2.719965
v -2.543459 0.811671 -2.719965
v -2.708707 0.834103 -2.719965
v -2.819153 0.957045 -2.719965
v -2.846402 1.121920 -2.719965
v -2.846402 1.121921 -4.575233
v -2.819153 0.957045 -4.575233
v -2.708706 0.834104 -4.575233
v -2.543459 0.811672 -4.575233
v -2.374799 0.812059 -4.575233
v -2.206138 0.812248 -4.575233
v -2.037478 0.812337 -4.575233
v -1.868817 0.812402 -4.575233
v -1.700156 0.812424 -4.575233
v -1.531495 0.812445 -4.575233
v -0.966433 1.366748 -2.719965
v -0.966433 1.366747 -4.575233
v -2.652968 1.362315 -2.719965
v -2.484377 1.364105 -2.719965
v -2.315717 1.364272 -2.719965
v -2.147056 1.364498 -2.719965
v -1.978396 1.364777 -2.719965
v -1.809735 1.365076 -2.719966
v -1.641075 1.365399 -2.719965
v -1.472415 1.365723 -2.719965
v -1.303755 1.366064 -2.719965
v -1.135094 1.366406 -2.719965
v -1.135093 1.366405 -4.575233
v -1.303754 1.366064 -4.575233
v -1.472414 1.365722 -4.575233
v -1.641075 1.365399 -4.575233
v -1.809735 1.365075 -4.575233
v -1.978395 1.364776 -4.575233
v -2.147056 1.364497 -4.575233
v -2.315717 1.364272 -4.575233
v -2.484377 1.364104 -4.575233
v -2.652968 1.362314 -4.575233
v 0.888831 1.370301 -2.719966
v 0.888831 1.370300 -4.575233
v -0.797773 1.367092 -2.719965
v -0.629113 1.367436 -2.719966
v -0.460453 1.367778 -2.719965
v -0.291792 1.368113 -2.719966
v -0.123132 1.368447 -2.719966
v 0.045528 1.368782 -2.719966
v 0.214189 1.369097 -2.719965
v 0.382849 1.369411 -2.719966
v 0.551509 1.369726 -2.719966
v 0.720170 1.370018 -2.719965
v 0.720170 1.370018 -4.575233
v 0.551510 1.369725 -4.575233
v 0.382849 1.369411 -4.575233
v 0.214189 1.369097 -4.575233
v 0.045529 1.368781 -4.575233
v -0.123132 1.368447 -4.575233
v -0.291792 1.368112 -4.575233
v -0.460452 1.367778 -4.575233
v -0.629113 1.367435 -4.575233
v -0.797773 1.367091 -4.575233
v 2.738586 1.342701 -2.719965
v 2.738586 1.342700 -4.575233
v 1.057491 1.370583 -2.719966
v 1.226151 1.370846 -2.719965
v 1.394812 1.371081 -2.719965
v 1.563473 1.371316 -2.719966
v 1.732133 1.371534 -2.719966
v 1.900794 1.371701 -2.719965
v 2.069454 1.371869 -2.719965
v 2.238115 1.372007 -2.719966
v 2.406775 1.372074 -2.719965
v 2.575436 1.372142 -2.719965
v 2.575437 1.372141 -4.575233
v 2.406776 1.372073 -4.575233
v 2.238115 1.372006 -4.575233
v 2.069455 1.371868 -4.575233
v 1.900794 1.371701 -4.575233
v 1.732133 1.371533 -4.575233
v 1.563473 1.371315 -4.575233
v 1.394812 1.371080 -4.575233
v 1.226152 1.370845 -4.575233
v 1.057491 1.370582 -4.575233
v 1.484539 0.811623 -2.719965
v 1.484539 0.811623 -4.575233
v 2.846231 1.216462 -2.719966
v 2.871296 1.051790 -2.719965
v 2.806385 0.898374 -2.719965
v 2.665066 0.813750 -2.719965
v 2.496504 0.811405 -2.719965
v 2.327843 0.811422 -2.719965
v 2.159183 0.811445 -2.719965
v 1.990522 0.811485 -2.719965
v 1.821862 0.811526 -2.719965
v 1.653201 0.811570 -2.719965
v 1.653201 0.811570 -4.575233
v 1.821861 0.811526 -4.575233
v 1.990522 0.811485 -4.575233
v 2.159182 0.811445 -4.575233
v 2.327843 0.811423 -4.575233
v 2.496504 0.811405 -4.575233
v 2.665066 0.813750 -4.575233
v 2.806385 0.898373 -4.575233
v 2.871296 1.051789 -4.575233
v 2.846231 1.216461 -4.575233
vn -0.9970 0.0777 -0.0000
vn -0.7791 0.6269 -0.0000
vn -0.0001 -1.0000 -0.0000
vn 0.0001 -1.0000 -0.0000
vn 0.0005 -1.0000 -0.0000
vn 0.0004 -1.0000 -0.0000
vn 0.0012 -1.0000 -0.0000
vn 0.0018 -1.0000 -0.0000
vn -0.0659 -0.9978 -0.0000
vn -0.4664 -0.8846 -0.0000
vn -0.4665 -0.8845 0.0001
vn -0.9021 -0.4316 -0.0000
vn -0.4665 -0.8845 -0.0000
vn -0.9021 -0.4315 -0.0000
vn -0.9970 0.0776 -0.0000
vn -0.0020 1.0000 -0.0000
vn -0.2621 0.9650 -0.0000
vn -0.2620 0.9651 0.0001
vn -0.0058 1.0000 -0.0000
vn -0.2620 0.9651 -0.0000
vn -0.0010 1.0000 -0.0000
vn -0.0013 1.0000 -0.0000
vn -0.0017 1.0000 -0.0000
vn -0.0018 1.0000 -0.0000
vn -0.0019 1.0000 -0.0000
vn 0.0882 0.9961 -0.0000
vn 0.4984 0.8670 -0.0000
vn -0.0016 1.0000 -0.0000
vn -0.0014 1.0000 -0.0000
vn -0.0008 1.0000 -0.0000
vn -0.0003 1.0000 -0.0000
vn -0.0007 1.0000 -0.0000
vn -0.0004 1.0000 -0.0000
vn -0.0003 -1.0000 -0.0000
vn 0.4984 0.8669 -0.0000
vn 0.9098 0.4151 -0.0000
vn 0.9098 0.4150 -0.0000
vn 0.9922 -0.1243 -0.0000
vn 0.9922 -0.1243 0.0001
vn 0.7558 -0.6548 -0.0000
vn 0.2702 -0.9628 -0.0000
vn 0.0069 -1.0000 -0.0000
vn -0.0002 -1.0000 -0.0000
vt 0.909091 0.000000
vt 1.000000 0.000000
vt 1.000000 1.000000
vt 0.909091 1.000000
vt 0.000000 0.000000
vt 0.090909 0.000000
vt 0.090909 1.000000
vt 0.000000 1.000000
vt 0.181818 0.000000
vt 0.181818 1.000000
vt 0.272727 0.000000
vt 0.272727 1.000000
vt 0.363636 0.000000
vt 0.363636 1.000000
vt 0.454545 0.000000
vt 0.454545 1.000000
vt 0.545455 0.000000
vt 0.545455 1.000000
vt 0.636364 0.000000
vt 0.636364 1.000000
vt 0.727273 0.000000
vt 0.727273 1.000000
vt 0.818182 0.000000
vt 0.818182 1.000000
s 0
usemtl Pás
f 454/752/217 442/753/218 444/754/218 455/755/217
f 441/756/219 445/757/219 464/758/219 443/759/219
f 445/757/220 446/760/220 463/761/220 464/758/220
f 446/760/220 447/762/221 462/763/221 463/761/220
f 447/762/219 448/764/222 461/765/222 462/763/219
f 448/764/221 449/766/223 460/767/223 461/765/221
f 449/766/221 450/768/224 459/769/224 460/767/221
f 450/768/224 451/770/225 458/771/225 459/769/224
f 451/770/225 452/772/226 457/773/226 458/771/225
f 452/772/227 453/774/228 456/775/228 457/773/229
f 453/774/230 454/752/231 455/755/231 456/775/230
f 476/752/232 465/753/232 466/754/232 477/755/232
f 442/756/218 467/757/233 486/758/233 444/759/218
f 467/757/234 468/760/235 485/761/235 486/758/236
f 468/760/235 469/762/237 484/763/237 485/761/235
f 469/762/238 470/764/238 483/765/238 484/763/238
f 470/764/238 471/766/239 482/767/239 483/765/238
f 471/766/240 472/768/240 481/769/240 482/767/240
f 472/768/241 473/770/241 480/771/241 481/769/241
f 473/770/241 474/772/241 479/773/241 480/771/241
f 474/772/232 475/774/232 478/775/232 479/773/232
f 475/774/232 476/752/232 477/755/232 478/775/232
f 498/752/239 487/753/239 488/754/239 499/755/239
f 465/756/232 489/757/232 508/758/232 466/759/232
f 489/757/232 490/760/232 507/761/232 508/758/232
f 490/760/232 491/762/232 506/763/232 507/761/232
f 491/762/232 492/764/232 505/765/232 506/763/232
f 492/764/232 493/766/232 504/767/232 505/765/232
f 493/766/232 494/768/232 503/769/232 504/767/232
f 494/768/241 495/770/241 502/771/241 503/769/241
f 495/770/241 496/772/241 501/773/241 502/771/241
f 496/772/241 497/774/241 500/775/241 501/773/241
f 497/774/239 498/752/239 499/755/239 500/775/239
f 520/752/242 509/753/243 510/754/243 521/755/242
f 487/756/239 511/757/239 530/758/239 488/759/239
f 511/757/244 512/760/244 529/761/244 530/758/244
f 512/760/245 513/762/245 528/763/245 529/761/245
f 513/762/245 514/764/245 527/765/245 528/763/245
f 514/764/238 515/766/238 526/767/238 527/765/238
f 515/766/237 516/768/237 525/769/237 526/767/237
f 516/768/237 517/770/237 524/771/237 525/769/237
f 517/770/246 518/772/247 523/773/247 524/771/246
f 518/772/248 519/774/249 522/775/249 523/773/248
f 519/774/249 520/752/242 521/755/242 522/775/249
f 542/752/250 531/753/250 532/754/250 543/755/250
f 509/756/251 533/757/252 552/758/252 510/759/251
f 533/757/253 534/760/254 551/761/255 552/758/253
f 534/760/254 535/762/256 550/763/256 551/761/254
f 535/762/256 536/764/257 549/765/257 550/763/256
f 536/764/257 537/766/258 548/767/258 549/765/257
f 537/766/258 538/768/219 547/769/219 548/767/258
f 538/768/219 539/770/219 546/771/219 547/769/219
f 539/770/259 540/772/259 545/773/259 546/771/259
f 540/772/259 541/774/259 544/775/259 545/773/259
f 541/774/250 542/752/250 543/755/250 544/775/250
