# Blender 5.0.1
# www.blender.org
mtllib krabice_otevrena.mtl
o krabice_open
v -0.220675 -0.006300 0.217629
v -0.220675 0.001500 0.225429
v -0.228475 0.001500 0.217629
v -0.220675 0.436048 0.225429
v -0.225591 0.449334 0.218769
v -0.234899 0.439425 0.217629
v -0.228475 0.436048 0.217629
v -0.220675 -0.006300 -0.216920
v -0.228475 0.001500 -0.216920
v -0.220675 0.001500 -0.224720
v -0.234899 0.439425 -0.216920
v -0.225584 0.449348 -0.218043
v -0.220675 0.436048 -0.224720
v -0.228475 0.436048 -0.216920
v 0.213874 -0.006300 0.217629
v 0.221674 0.001500 0.217629
v 0.213874 0.001500 0.225429
v 0.228525 0.440119 0.217575
v 0.218272 0.449527 0.218936
v 0.213874 0.436048 0.225429
v 0.221674 0.436048 0.217629
v 0.213874 -0.006300 -0.216920
v 0.213874 0.001500 -0.224720
v 0.221674 0.001500 -0.216920
v 0.218303 0.449571 -0.218233
v 0.228525 0.440119 -0.216973
v 0.221674 0.436048 -0.216920
v 0.213874 0.436048 -0.224720
v 0.498145 0.302218 0.215503
v 0.491086 0.305564 0.223356
v 0.487565 0.299097 0.215556
v 0.498145 0.302218 -0.219046
v 0.487565 0.299097 -0.218993
v 0.491062 0.305521 -0.226793
v -0.485237 0.276552 0.217629
v -0.474390 0.274550 0.217629
v -0.478517 0.280545 0.225429
v -0.485237 0.276552 -0.216920
v -0.478527 0.280560 -0.224720
v -0.474390 0.274550 -0.216920
v -0.209128 0.005247 0.206082
v -0.217018 0.013046 0.206028
v -0.209217 0.013046 0.213828
v -0.214245 0.448112 0.210852
v -0.222045 0.448109 0.203041
v -0.228744 0.451765 0.203337
v -0.225045 0.450374 0.217506
v -0.209128 0.005247 -0.205373
v -0.209217 0.013046 -0.213120
v -0.217018 0.013046 -0.205319
v -0.228744 0.451765 -0.202629
v -0.222045 0.448109 -0.202332
v -0.214245 0.448113 -0.210144
v -0.225052 0.450361 -0.216814
v 0.202327 0.005247 0.206082
v 0.202400 0.013047 0.213839
v 0.210200 0.013046 0.206039
v 0.221330 0.452641 0.203905
v 0.214265 0.448298 0.203666
v 0.206463 0.448293 0.211454
v 0.217770 0.450364 0.217978
v 0.202327 0.005247 -0.205373
v 0.210201 0.013046 -0.205331
v 0.202401 0.013047 -0.213131
v 0.206536 0.448371 -0.210776
v 0.214335 0.448374 -0.202988
v 0.221401 0.452716 -0.203325
v 0.217813 0.450401 -0.217292
v 0.500249 0.306082 0.215503
v 0.496986 0.316389 0.215211
v 0.493482 0.309955 0.223016
v 0.500249 0.306082 -0.219046
v 0.493509 0.309995 -0.226458
v 0.496987 0.316391 -0.218648
v -0.487732 0.280176 0.217629
v -0.481455 0.284799 0.225071
v -0.485547 0.290744 0.217262
v -0.487732 0.280176 -0.216920
v -0.485547 0.290745 -0.216554
v -0.481446 0.284785 -0.224362
vn -0.0174 -0.9997 0.0175
vn -0.0175 -0.0174 0.9997
vn -0.9997 -0.0175 0.0174
vn -0.0174 0.0146 0.9997
vn 0.0655 0.2719 0.9601
vn 0.5489 -0.8358 0.0126
vn -0.9997 -0.0144 0.0180
vn -0.0175 -0.9997 -0.0174
vn -0.9997 -0.0174 -0.0175
vn -0.0174 -0.0175 -0.9997
vn 0.5488 -0.8359 -0.0126
vn 0.0656 0.2707 -0.9604
vn -0.0174 0.0146 -0.9997
vn -0.9997 -0.0144 -0.0180
vn 0.0175 -0.9997 0.0174
vn 0.9997 -0.0174 0.0175
vn 0.0174 -0.0175 0.9997
vn -0.4577 -0.8890 0.0132
vn -0.0575 0.2548 0.9653
vn 0.0174 0.0146 0.9997
vn 0.9997 -0.0154 0.0180
vn 0.0174 -0.9997 -0.0175
vn 0.0175 -0.0174 -0.9997
vn 0.9997 -0.0175 -0.0174
vn -0.0616 0.2534 -0.9654
vn -0.4579 -0.8889 -0.0132
vn 0.9997 -0.0153 -0.0180
vn 0.0174 0.0146 -0.9997
vn 0.4840 -0.8750 0.0103
vn -0.1903 -0.3881 0.9017
vn -0.4554 -0.8902 0.0125
vn 0.4839 -0.8751 -0.0103
vn -0.4555 -0.8902 -0.0124
vn -0.2024 -0.3849 -0.9005
vn -0.3902 -0.9207 0.0103
vn 0.5454 -0.8381 0.0119
vn 0.2273 -0.3522 0.9079
vn -0.3901 -0.9207 -0.0103
vn 0.2279 -0.3532 -0.9074
vn 0.5454 -0.8381 -0.0119
vn 0.0184 0.9997 -0.0184
vn 0.9994 0.0290 -0.0185
vn 0.0189 0.0113 -0.9998
vn 0.0193 0.0100 -0.9998
vn 0.9995 0.0269 -0.0186
vn -0.5130 0.8583 0.0119
vn -0.2605 0.9262 0.2725
vn 0.0184 0.9997 0.0184
vn 0.0190 0.0113 0.9998
vn 0.9994 0.0290 0.0185
vn -0.5130 0.8583 -0.0118
vn 0.9995 0.0269 0.0187
vn 0.0192 0.0101 0.9998
vn -0.2607 0.9260 -0.2730
vn -0.0184 0.9997 -0.0184
vn -0.0175 0.0113 -0.9998
vn -0.9995 0.0268 -0.0186
vn 0.4234 0.9059 0.0126
vn -0.9995 0.0256 -0.0187
vn -0.0177 0.0100 -0.9998
vn 0.2127 0.9356 0.2819
vn -0.0184 0.9997 0.0184
vn -0.9995 0.0268 0.0184
vn -0.0175 0.0113 0.9998
vn -0.0178 0.0100 0.9998
vn -0.9995 0.0256 0.0185
vn 0.4232 0.9059 -0.0124
vn 0.2077 0.9357 -0.2850
vn 0.9967 0.0800 0.0104
vn 0.4654 0.8850 0.0127
vn 0.3657 0.7238 0.5851
vn 0.9967 0.0800 -0.0105
vn 0.3576 0.7248 -0.5889
vn 0.4653 0.8851 -0.0125
vn -0.9997 -0.0233 0.0104
vn -0.4398 0.6942 0.5698
vn -0.5524 0.8335 0.0120
vn -0.9997 -0.0233 -0.0104
vn -0.5524 0.8335 -0.0120
vn -0.4399 0.6944 -0.5695
vn -0.0174 -0.9997 -0.0175
vn -0.9997 -0.0174 0.0175
vn -0.0174 -0.0175 0.9997
vn -0.0173 0.0146 0.9997
vn 0.5488 -0.8358 0.0126
vn 0.5488 -0.8358 -0.0126
vn -0.9997 -0.0144 -0.0179
vn -0.9997 -0.0144 0.0179
vn -0.0173 0.0146 -0.9997
vn -0.9997 -0.0175 -0.0174
vn 0.0175 -0.9997 -0.0174
vn -0.0175 -0.0174 -0.9997
vn 0.0656 0.2708 -0.9604
vn -0.0589 0.2527 -0.9657
vn 0.0173 0.0146 -0.9997
vn 0.0174 -0.0175 -0.9997
vn 0.0174 -0.9997 0.0175
vn 0.9997 -0.0174 -0.0175
vn -0.4579 -0.8889 -0.0133
vn -0.4578 -0.8890 0.0057
vn 0.9997 -0.0153 0.0180
vn 0.9997 -0.0154 -0.0180
vn 0.0173 0.0146 0.9997
vn 0.9997 -0.0175 0.0174
vn -0.0175 -0.9997 0.0174
vn 0.0175 -0.0174 0.9997
vn -0.0575 0.2549 0.9653
vn 0.4839 -0.8750 0.0103
vn -0.4555 -0.8901 -0.0125
vn -0.1903 -0.3882 0.9017
vn -0.4554 -0.8902 0.0124
vn -0.0615 0.2534 -0.9654
vn -0.2024 -0.3850 -0.9005
vn -0.4556 -0.8901 -0.0124
vn -0.3901 -0.9207 0.0103
vn 0.5454 -0.8381 -0.0118
vn 0.5454 -0.8381 0.0118
vn 0.2280 -0.3532 -0.9073
vn 0.0657 0.2708 -0.9604
vn 0.5489 -0.8358 -0.0126
vn 0.2272 -0.3522 0.9079
vn 0.5488 -0.8358 0.0125
vn 0.9994 0.0289 0.0185
vn 0.9994 0.0289 -0.0186
vn 0.9995 0.0268 -0.0186
vn 0.0192 0.0101 -0.9998
vn 0.0189 0.0024 -0.9998
vn -0.5130 0.8583 -0.0119
vn 0.9995 0.0268 0.0186
vn 0.0192 0.0021 0.9998
vn -0.0177 0.0101 0.9998
vn 0.2077 0.9357 -0.2851
vn -0.2608 0.9260 -0.2730
vn -0.0174 0.0021 0.9998
vn -0.9995 0.0256 0.0184
vn -0.9995 0.0268 0.0185
vn -0.9995 0.0255 0.0185
vn -0.9995 0.0255 -0.0186
vn 0.4233 0.9059 0.0126
vn 0.4232 0.9060 -0.0123
vn -0.9995 0.0256 -0.0186
vn -0.0177 0.0023 -0.9998
vn -0.0175 0.0112 -0.9998
vn -0.0178 0.0101 -0.9998
vn 0.2126 0.9356 0.2820
vn 0.4652 0.8851 -0.0125
vn 0.4654 0.8850 0.0128
vn 0.2126 0.9356 0.2819
vn 0.3658 0.7238 0.5850
vn -0.9997 -0.0233 -0.0105
vn -0.9997 -0.0233 0.0105
vn -0.2606 0.9262 0.2725
vn 0.4840 -0.8750 0.0102
vn 0.9967 0.0800 0.0105
vn 0.3577 0.7247 -0.5889
vn 0.9967 0.0800 -0.0104
vn 0.4838 -0.8751 -0.0103
vn 0.2273 -0.3521 0.9080
vn -0.4399 0.6942 0.5698
vn -0.4400 0.6944 -0.5695
vn 0.2280 -0.3533 -0.9073
vn -0.0175 -0.9997 -0.0175
vn 0.0175 -0.9997 -0.0175
vn 0.0175 -0.9997 0.0175
vn -0.0175 -0.9997 0.0175
vn -0.9997 -0.0175 0.0175
vn -0.9997 -0.0175 -0.0175
vn 0.0175 -0.0175 0.9997
vn -0.0175 -0.0175 0.9997
vn 0.0655 0.2718 0.9601
vn -0.0574 0.2548 0.9653
vn -0.0175 -0.0175 -0.9997
vn 0.0175 -0.0175 -0.9997
vn 0.0655 0.2707 -0.9604
vn 0.2279 -0.3533 -0.9073
vn -0.4399 0.6944 -0.5694
vn 0.9997 -0.0175 -0.0175
vn 0.9997 -0.0175 0.0175
vn 0.3657 0.7239 0.5850
vn -0.2025 -0.3849 -0.9005
vn 0.2076 0.9358 -0.2850
vn 0.4839 -0.8750 0.0102
vn 0.9994 0.0290 -0.0186
vn 0.9994 0.0290 0.0186
vn 0.0190 0.0113 -0.9998
vn 0.0192 0.0100 -0.9998
vn -0.0178 0.0100 -0.9998
vn -0.5130 0.8583 0.0118
vn 0.4232 0.9060 -0.0124
vt 0.003990 0.761063
vt 0.003990 0.765180
vt 0.000000 0.761063
vt 0.229089 0.383579
vt 0.235992 0.386200
vt 0.230838 0.389406
vt 0.229089 0.387710
vt 0.003990 0.531676
vt 0.000000 0.531676
vt 0.003990 0.527558
vt 0.250565 0.391330
vt 0.245368 0.386139
vt 0.251648 0.384880
vt 0.250254 0.389557
vt 0.226288 0.761063
vt 0.230278 0.761063
vt 0.226288 0.765180
vt 0.231893 0.145437
vt 0.236789 0.151144
vt 0.230435 0.152069
vt 0.232195 0.147551
vt 0.226288 0.531676
vt 0.226288 0.527558
vt 0.230278 0.531676
vt 0.245274 0.151096
vt 0.250185 0.145438
vt 0.249868 0.147561
vt 0.251648 0.152030
vt 0.160931 0.002652
vt 0.161724 0.006855
vt 0.159296 0.008252
vt 0.782737 0.004117
vt 0.778747 0.004146
vt 0.778747 0.000028
vt 0.615685 0.004741
vt 0.611090 0.004874
vt 0.611090 0.000000
vt 0.334654 0.524447
vt 0.333536 0.520297
vt 0.335697 0.518700
vt 0.219498 0.997644
vt 0.219470 0.993621
vt 0.223554 0.993667
vt 0.221990 0.769248
vt 0.217905 0.769204
vt 0.218061 0.766229
vt 0.221981 0.768041
vt 0.938044 0.998710
vt 0.938075 0.994717
vt 0.942177 0.994686
vt 0.005521 0.766229
vt 0.005676 0.769203
vt 0.001592 0.769248
vt 0.001600 0.768048
vt 0.704272 0.999985
vt 0.704329 0.995991
vt 0.708427 0.995969
vt 0.719665 0.533899
vt 0.719789 0.537072
vt 0.715739 0.537112
vt 0.715742 0.535999
vt 0.932349 0.767313
vt 0.932327 0.763260
vt 0.936380 0.763298
vt 0.242108 0.157367
vt 0.241024 0.153256
vt 0.241895 0.151450
vt 0.244739 0.151362
vt 0.241099 0.772323
vt 0.244830 0.772161
vt 0.244972 0.776475
vt 0.319623 0.001567
vt 0.318449 0.005536
vt 0.315062 0.003883
vt 0.149302 0.525794
vt 0.150816 0.521916
vt 0.153977 0.523894
vt 0.635919 0.285653
vt 0.632233 0.285858
vt 0.632084 0.281500
vt 0.640053 0.281292
vt 0.865867 0.281292
vt 0.865867 0.285345
vt 0.640053 0.285345
vt 0.869920 0.285345
vt 0.869920 0.511161
vt 0.865867 0.511161
vt 0.865867 0.515214
vt 0.640053 0.515214
vt 0.640053 0.511161
vt 0.486098 0.764341
vt 0.710453 0.764341
vt 0.710453 0.768421
vt 0.486098 0.768421
vt 0.482071 0.764369
vt 0.482071 0.537085
vt 0.486098 0.537057
vt 0.486098 0.532978
vt 0.710453 0.532978
vt 0.710453 0.537057
vt 0.782737 0.233505
vt 0.778747 0.233533
vt 0.320837 0.006869
vt 0.324133 0.008741
vt 0.614461 0.276418
vt 0.611090 0.276418
vt 0.148536 0.520323
vt 0.145450 0.518166
vt 0.004112 0.993621
vt 0.004084 0.997644
vt 0.000028 0.993667
vt 0.721631 0.994915
vt 0.721684 0.998921
vt 0.241087 0.380192
vt 0.244707 0.385865
vt 0.718636 0.771320
vt 0.717529 0.994897
vt 0.714534 0.771299
vt 0.718556 0.763260
vt 0.718534 0.767314
vt 0.931109 0.537032
vt 0.931285 0.532978
vt 0.714502 0.763298
vt 0.487894 0.995835
vt 0.487924 0.999840
vt 0.241023 0.157439
vt 0.240998 0.380243
vt 0.237386 0.385925
vt 0.237329 0.151415
vt 0.244830 0.532061
vt 0.241024 0.531840
vt 0.167453 0.003836
vt 0.239269 0.149703
vt 0.164070 0.005548
vt 0.632233 0.528411
vt 0.636000 0.528616
vt 0.328102 0.523859
vt 0.243173 0.387710
vt 0.331270 0.521878
vt 0.238912 0.387763
vt 0.162016 0.001985
vt 0.322536 0.003108
vt 0.146487 0.523908
vt 0.333715 0.525193
vt 0.004040 0.154053
vt 0.004040 0.384182
vt 0.485442 0.276418
vt 0.485442 0.004874
vt 0.478032 0.384278
vt 0.478032 0.154182
vt 0.627868 0.234599
vt 0.627868 0.005212
vt 0.404850 0.531696
vt 0.404850 0.764177
vt 0.402630 0.764177
vt 0.402630 0.531696
vt 0.618133 0.253692
vt 0.620205 0.004474
vt 0.620205 0.253692
vt 0.458835 0.780694
vt 0.458835 0.994563
vt 0.245076 0.994563
vt 0.245076 0.780694
vt 0.486203 0.772426
vt 0.707414 0.772427
vt 0.485838 0.293640
vt 0.485838 0.520622
vt 0.939895 0.771319
vt 0.394885 0.765901
vt 0.394845 0.540537
s 0
usemtl Material.002
f 1/1/1 2/2/2 3/3/3
f 4/4/4 5/5/5 6/6/6 7/7/7
f 8/8/8 9/9/9 10/10/10
f 11/11/11 12/12/12 13/13/13 14/14/14
f 15/15/15 16/16/16 17/17/17
f 18/18/18 19/19/19 20/20/20 21/21/21
f 22/22/22 23/23/23 24/24/24
f 25/25/25 26/26/26 27/27/27 28/28/28
f 29/29/29 30/30/30 31/31/31
f 32/32/32 33/33/33 34/34/34
f 35/35/35 36/36/36 37/37/37
f 38/38/38 39/39/39 40/40/40
f 41/41/41 42/42/42 43/43/43
f 44/44/44 45/45/45 46/46/46 47/47/47
f 48/48/48 49/49/49 50/50/50
f 51/51/51 52/52/52 53/53/53 54/54/54
f 55/55/55 56/56/56 57/57/57
f 58/58/58 59/59/59 60/60/60 61/61/61
f 62/62/62 63/63/63 64/64/64
f 65/65/65 66/66/66 67/67/67 68/68/68
f 69/69/69 70/70/70 71/71/71
f 72/72/72 73/73/73 74/74/74
f 75/75/75 76/76/76 77/77/77
f 78/78/78 79/79/79 80/80/80
f 8/8/81 1/1/1 3/3/82 9/9/9
f 2/81/83 4/82/84 7/83/7 3/84/3
f 6/85/85 11/86/86 14/87/87 7/83/88
f 13/88/89 10/89/10 9/90/90 14/87/14
f 22/22/91 8/8/8 10/10/92 23/23/23
f 12/12/93 25/25/94 28/28/95 13/13/89
f 27/91/27 24/92/24 23/93/96 28/94/95
f 15/15/97 22/22/22 24/24/98 16/16/16
f 26/95/99 18/96/100 21/97/101 27/91/102
f 20/98/103 17/99/17 16/100/104 21/97/101
f 1/1/105 15/15/15 17/17/106 2/2/2
f 19/19/107 5/5/5 4/4/4 20/20/20
f 32/32/32 29/101/108 31/102/31 33/33/109
f 30/30/110 19/19/107 18/18/18 31/31/111
f 25/25/112 34/103/113 33/104/114 26/26/26
f 35/35/115 38/105/38 40/106/116 36/36/117
f 39/39/118 12/12/119 11/11/120 40/40/116
f 5/5/5 37/107/121 36/108/117 6/6/122
f 50/109/123 42/42/124 41/41/41 48/110/48
f 42/42/42 45/45/125 44/44/126 43/43/127
f 45/45/45 52/52/52 51/51/128 46/46/46
f 52/52/129 50/109/50 49/111/49 53/53/130
f 64/112/64 49/49/49 48/48/48 62/113/62
f 53/114/53 65/65/131 68/68/132 54/115/133
f 65/116/131 64/112/134 63/117/63 66/118/135
f 57/119/57 63/63/136 62/62/62 55/120/55
f 66/121/137 59/59/138 58/58/139 67/122/140
f 59/59/141 57/119/57 56/123/56 60/60/142
f 43/124/43 56/56/143 55/55/55 41/125/41
f 60/126/144 44/127/126 47/128/47 61/129/145
f 74/130/146 70/70/70 69/69/69 72/131/72
f 70/132/147 58/133/58 61/129/148 71/134/149
f 67/67/67 74/74/74 73/73/73 68/68/132
f 77/135/77 79/79/79 78/78/150 75/136/151
f 79/137/79 51/138/128 54/115/133 80/139/80
f 46/140/46 77/77/77 76/76/76 47/128/152
f 29/29/153 69/141/154 71/134/71 30/30/110
f 34/103/34 73/73/155 72/72/156 32/142/157
f 37/107/158 76/76/159 75/75/151 35/143/115
f 38/38/38 78/144/150 80/139/160 39/39/161
f 8/8/162 22/22/163 15/15/164 1/1/165
f 3/84/166 7/83/7 14/87/14 9/90/167
f 17/145/168 20/20/20 4/4/4 2/146/169
f 5/5/170 19/19/171 61/129/148 47/128/47
f 11/147/86 6/148/85 36/36/117 40/106/40
f 37/107/37 5/5/5 47/128/47 76/76/76
f 10/149/172 13/13/13 28/28/28 23/150/173
f 12/12/174 39/39/175 80/139/176 54/115/54
f 25/25/25 12/12/12 54/115/133 68/68/68
f 24/92/177 27/91/27 21/97/101 16/100/178
f 18/151/18 26/152/26 33/33/109 31/102/31
f 19/19/19 30/30/110 71/134/179 61/129/148
f 34/103/180 25/25/25 68/68/181 73/73/73
f 29/153/182 32/154/32 72/155/156 69/156/69
f 38/157/38 35/35/115 75/158/151 78/159/150
f 48/160/48 41/161/41 55/162/55 62/163/62
f 42/42/183 50/109/184 52/52/129 45/45/125
f 56/56/56 43/124/185 44/164/186 60/165/187
f 51/166/128 79/79/79 77/135/77 46/167/188
f 49/49/49 64/112/64 65/116/131 53/168/53
f 63/63/136 57/119/57 59/59/141 66/121/137
f 58/169/139 70/70/147 74/130/74 67/170/189
