# Blender 5.0.1
# www.blender.org
mtllib krabice_rozbita.mtl
o krabice_open_rozbita
v -0.205434 0.000462 0.216665
v -0.200055 -0.003513 0.217582
v -0.200979 0.000556 0.220886
v -0.192379 0.301409 0.220965
v -0.195112 0.307417 0.217477
v -0.199487 0.302650 0.216491
v -0.196833 0.301218 0.216712
v -0.200055 -0.003513 -0.217421
v -0.205434 0.000462 -0.216504
v -0.200979 0.000556 -0.220725
v -0.196833 0.301218 -0.216551
v -0.199487 0.302650 -0.216330
v -0.195112 0.307417 -0.217316
v -0.192379 0.301409 -0.220804
v 0.234948 -0.003513 0.217582
v 0.237642 0.000379 0.218387
v 0.233205 0.000549 0.222628
v 0.261464 0.327735 0.218080
v 0.265772 0.327454 0.218028
v 0.267071 0.331077 0.219163
v 0.259895 0.334640 0.220179
v 0.255892 0.326530 0.222230
v 0.234948 -0.003513 -0.217421
v 0.233205 0.000549 -0.222467
v 0.237642 0.000379 -0.218226
v 0.259923 0.334645 -0.220025
v 0.267144 0.331080 -0.219090
v 0.265772 0.327454 -0.217934
v 0.261464 0.327735 -0.217919
v 0.255892 0.326530 -0.222069
v 0.387557 0.102977 0.215488
v 0.385634 0.106664 0.219688
v 0.381947 0.104741 0.215529
v 0.387557 0.102977 -0.219515
v 0.381947 0.104741 -0.219489
v 0.385634 0.106664 -0.223647
v -0.375094 0.158653 0.187539
v -0.369232 0.158181 0.188036
v -0.371899 0.161263 0.192224
v -0.375094 0.158653 -0.187378
v -0.371899 0.161263 -0.192063
v -0.369232 0.158181 -0.187875
v -0.248027 0.153717 0.189300
v -0.252612 0.154035 0.184432
v -0.248934 0.181071 0.192174
v -0.253556 0.181557 0.187333
v -0.245402 0.198025 0.192290
v -0.238908 0.201183 0.198190
v -0.239839 0.203614 0.194166
v -0.227645 0.206766 0.200375
v -0.232532 0.207276 0.195620
v -0.225307 0.207597 0.197045
v -0.216718 0.207416 0.202541
v -0.218818 0.211222 0.199147
v -0.218818 0.211222 -0.198986
v -0.216718 0.207416 -0.202380
v -0.225307 0.207597 -0.196884
v -0.227645 0.206766 -0.200214
v -0.232532 0.207276 -0.195459
v -0.239839 0.203614 -0.194005
v -0.238908 0.201183 -0.198028
v -0.245402 0.198025 -0.192129
v -0.248934 0.181071 -0.192013
v -0.253556 0.181557 -0.187172
v -0.252612 0.154035 -0.184271
v -0.248027 0.153717 -0.189139
v 0.201322 0.173031 -0.240104
v 0.196784 0.173405 -0.243854
v 0.190288 0.163172 -0.240820
v 0.185820 0.163638 -0.244543
v 0.184381 0.149392 -0.242276
v 0.179946 0.149935 -0.245969
v 0.185020 0.135450 -0.243957
v 0.180576 0.135917 -0.247583
v 0.187031 0.123566 -0.248700
v 0.191408 0.123263 -0.245096
v 0.196784 0.173405 0.244015
v 0.201322 0.173031 0.240265
v 0.185820 0.163638 0.244704
v 0.190288 0.163172 0.240981
v 0.179946 0.149935 0.246131
v 0.184381 0.149392 0.242437
v 0.180576 0.135917 0.247744
v 0.185020 0.135450 0.244118
v 0.191408 0.123263 0.245258
v 0.187031 0.123566 0.248861
v -0.211279 0.215584 0.205459
v -0.215814 0.215646 0.200885
v -0.206488 0.226697 0.209010
v -0.211065 0.226454 0.204554
v -0.201659 0.242166 0.213554
v -0.206240 0.241680 0.209161
v -0.197138 0.261743 0.217904
v -0.201667 0.261252 0.213584
v -0.199091 0.283040 0.215587
v -0.194614 0.283343 0.219862
v -0.194614 0.283343 -0.219700
v -0.199091 0.283040 -0.215426
v -0.197138 0.261743 -0.217743
v -0.201667 0.261252 -0.213423
v -0.201659 0.242166 -0.213393
v -0.206240 0.241680 -0.209000
v -0.206488 0.226697 -0.208849
v -0.211065 0.226454 -0.204393
v -0.215814 0.215646 -0.200724
v -0.211279 0.215584 -0.205298
v 0.253839 0.316848 -0.217952
v 0.247504 0.312141 -0.218341
v 0.246507 0.313108 -0.222094
v 0.241545 0.310178 -0.218941
v 0.236465 0.304875 -0.219543
v 0.232751 0.308352 -0.223451
v 0.231727 0.288095 -0.220474
v 0.226955 0.287590 -0.224547
v 0.230199 0.249903 -0.220893
v 0.225462 0.249651 -0.224917
v 0.215334 0.209704 -0.231640
v 0.220002 0.209640 -0.227723
v 0.253839 0.316848 0.218113
v 0.246507 0.313108 0.222255
v 0.247504 0.312141 0.218502
v 0.241545 0.310178 0.219102
v 0.232751 0.308352 0.223612
v 0.236465 0.304875 0.219704
v 0.226955 0.287590 0.224708
v 0.231727 0.288095 0.220635
v 0.225462 0.249651 0.225078
v 0.230199 0.249903 0.221054
v 0.220002 0.209640 0.227884
v 0.215334 0.209704 0.231801
v -0.195988 0.013377 0.204466
v -0.191535 0.013403 0.208753
v -0.190690 0.009336 0.205505
v -0.185591 0.310906 0.204625
v -0.190155 0.310584 0.200303
v -0.194221 0.312204 0.200001
v -0.192101 0.312582 0.208164
v -0.190690 0.009336 -0.205344
v -0.191535 0.013403 -0.208592
v -0.195988 0.013377 -0.204305
v -0.190155 0.310584 -0.200142
v -0.185591 0.310906 -0.204464
v -0.192101 0.312582 -0.208002
v -0.194221 0.312204 -0.199840
v 0.220663 0.005159 0.206550
v 0.218760 0.009246 0.211566
v 0.223269 0.008975 0.207324
v 0.261943 0.345723 0.208078
v 0.255388 0.343821 0.211982
v 0.260483 0.344574 0.214643
v 0.267664 0.337770 0.215804
v 0.266946 0.345062 0.208598
v 0.220663 0.005159 -0.206389
v 0.223269 0.008975 -0.207163
v 0.218760 0.009246 -0.211405
v 0.260595 0.344579 -0.214513
v 0.255504 0.343831 -0.211850
v 0.262078 0.345742 -0.207950
v 0.267088 0.345072 -0.208534
v 0.267778 0.337708 -0.215784
v 0.397915 0.108381 0.215488
v 0.399533 0.113911 0.215381
v 0.395842 0.111988 0.219540
v 0.397915 0.108381 -0.219515
v 0.395845 0.111987 -0.223504
v 0.399535 0.113912 -0.219342
v -0.382667 0.167550 0.187539
v -0.379409 0.170129 0.191916
v -0.382019 0.173191 0.187752
v -0.382667 0.167550 -0.187378
v -0.382019 0.173191 -0.187591
v -0.379409 0.170129 -0.191755
v -0.236925 0.157009 0.172335
v -0.232337 0.156576 0.177264
v -0.237711 0.179022 0.175337
v -0.233085 0.178503 0.180225
v -0.233696 0.187756 0.179050
v -0.227925 0.192544 0.182797
v -0.227238 0.191072 0.185499
v -0.227925 0.192544 0.182811
v -0.222948 0.192335 0.187646
v -0.213673 0.196930 0.182748
v -0.208977 0.196736 0.187547
v -0.213673 0.196931 -0.182587
v -0.208977 0.196736 -0.187385
v -0.227925 0.192544 -0.182650
v -0.222927 0.192252 -0.187509
v -0.227925 0.192544 -0.182636
v -0.233696 0.187756 -0.178889
v -0.227238 0.191072 -0.185338
v -0.237711 0.179022 -0.175175
v -0.233085 0.178503 -0.180064
v -0.232337 0.156576 -0.177103
v -0.236925 0.157009 -0.172173
v 0.185459 0.180379 -0.228901
v 0.190090 0.180187 -0.225182
v 0.175900 0.170495 -0.228624
v 0.180474 0.170246 -0.224894
v 0.168128 0.152369 -0.230011
v 0.172600 0.151931 -0.226315
v 0.169287 0.133379 -0.231262
v 0.173760 0.132878 -0.227629
v 0.179528 0.117674 -0.230007
v 0.175080 0.118094 -0.233595
v 0.190090 0.180187 0.225343
v 0.185460 0.180379 0.229062
v 0.180474 0.170246 0.225055
v 0.175900 0.170495 0.228785
v 0.172600 0.151931 0.226476
v 0.168128 0.152369 0.230172
v 0.173760 0.132878 0.227790
v 0.169288 0.133379 0.231423
v 0.175080 0.118094 0.233756
v 0.179528 0.117674 0.230169
v -0.203615 0.207145 0.187513
v -0.198892 0.207217 0.192106
v -0.197734 0.221511 0.190499
v -0.193018 0.221862 0.194967
v -0.192588 0.239193 0.194769
v -0.187902 0.239787 0.199157
v -0.188119 0.259754 0.198958
v -0.183499 0.260386 0.203252
v -0.180493 0.282162 0.205706
v -0.185047 0.281688 0.201421
v -0.185047 0.281688 -0.201260
v -0.180493 0.282162 -0.205545
v -0.188119 0.259754 -0.198797
v -0.183499 0.260386 -0.203091
v -0.192588 0.239193 -0.194608
v -0.187902 0.239787 -0.198996
v -0.197734 0.221511 -0.190338
v -0.193018 0.221862 -0.194806
v -0.198892 0.207217 -0.191945
v -0.203615 0.207145 -0.187352
v 0.237352 0.325653 -0.209534
v 0.242492 0.326188 -0.205389
v 0.224479 0.316186 -0.206985
v 0.227944 0.313061 -0.203262
v 0.232954 0.319315 -0.203505
v 0.213687 0.290687 -0.209766
v 0.218633 0.291314 -0.205699
v 0.210843 0.251921 -0.211321
v 0.215705 0.252283 -0.207316
v 0.206221 0.213402 -0.213722
v 0.201453 0.213329 -0.217624
v 0.242492 0.326188 0.205550
v 0.237355 0.325654 0.209695
v 0.232954 0.319315 0.203667
v 0.227944 0.313061 0.203423
v 0.224480 0.316186 0.207146
v 0.218633 0.291314 0.205860
v 0.213688 0.290688 0.209928
v 0.215705 0.252283 0.207477
v 0.210844 0.251921 0.211482
v 0.201453 0.213329 0.217786
v 0.206221 0.213402 0.213883
vn -0.9487 -0.3162 0.0103
vn -0.0090 -0.9999 0.0091
vn -0.0790 -0.0348 0.9963
vn -0.0189 0.1011 0.9947
vn -0.0914 0.4977 0.8625
vn 0.6373 -0.7706 0.0063
vn -0.9997 -0.0195 0.0121
vn -0.0090 -0.9999 -0.0091
vn -0.9486 -0.3162 -0.0103
vn -0.0789 -0.0349 -0.9963
vn -0.9997 -0.0196 -0.0121
vn 0.6372 -0.7707 -0.0062
vn -0.0914 0.4973 -0.8628
vn -0.0188 0.1010 -0.9947
vn 0.0088 -0.9999 0.0093
vn 0.9457 0.3248 0.0087
vn -0.0601 -0.0328 0.9977
vn 0.6662 -0.7456 0.0153
vn -0.8797 -0.4754 0.0085
vn -0.0572 -0.0220 0.9981
vn -0.0374 0.5722 0.8193
vn -0.0034 0.0959 0.9954
vn 0.0088 -0.9999 -0.0093
vn -0.0601 -0.0327 -0.9977
vn 0.9457 0.3249 -0.0087
vn -0.0375 0.5717 -0.8196
vn -0.0722 -0.0129 -0.9973
vn -0.8798 -0.4753 -0.0085
vn 0.6661 -0.7457 -0.0153
vn -0.0034 0.0958 -0.9954
vn 0.2230 -0.9748 0.0078
vn -0.0648 -0.0479 0.9967
vn -0.8789 -0.4769 0.0079
vn 0.2231 -0.9748 -0.0079
vn -0.8790 -0.4767 -0.0081
vn -0.0798 -0.0381 -0.9961
vn -0.5729 -0.8196 0.0091
vn 0.6344 -0.7729 0.0061
vn -0.2631 0.1536 0.9525
vn -0.5729 -0.8196 -0.0091
vn -0.2631 0.1536 -0.9525
vn 0.6345 -0.7729 -0.0061
vn -0.8502 0.5264 0.0099
vn -0.1304 -0.0322 0.9909
vn -0.5834 0.8121 0.0059
vn -0.2777 0.9607 0.0039
vn -0.0764 0.2059 0.9756
vn -0.6505 0.7595 0.0090
vn -0.6504 0.7595 -0.0090
vn -0.0764 0.2058 -0.9756
vn -0.2776 0.9607 -0.0040
vn -0.5835 0.8121 -0.0059
vn -0.1304 -0.0321 -0.9909
vn -0.8502 0.5264 -0.0099
vn 0.7454 -0.6666 -0.0069
vn 0.4763 -0.8793 -0.0029
vn 0.0014 -0.0332 -0.9994
vn 0.5495 -0.8355 -0.0053
vn 0.9143 -0.4048 -0.0099
vn -0.0026 -0.0582 -0.9983
vn 0.7454 -0.6666 0.0069
vn 0.0014 -0.0332 0.9994
vn 0.4763 -0.8793 0.0029
vn 0.5495 -0.8355 0.0053
vn -0.0026 -0.0582 0.9983
vn 0.9143 -0.4049 0.0099
vn 0.9544 0.2985 -0.0109
vn 0.0814 0.0208 -0.9965
vn 0.0197 0.9998 -0.0096
vn 0.0142 0.1564 -0.9876
vn 0.9574 0.2886 -0.0109
vn -0.5821 0.8131 0.0062
vn -0.2386 0.7814 0.5766
vn 0.0197 0.9998 0.0096
vn 0.0814 0.0208 0.9965
vn 0.9544 0.2985 0.0109
vn 0.9574 0.2886 0.0109
vn 0.0143 0.1570 0.9875
vn -0.2387 0.7812 -0.5768
vn -0.5821 0.8131 -0.0062
vn 0.0009 1.0000 -0.0098
vn 0.0612 0.0187 -0.9979
vn -0.9392 -0.3433 -0.0092
vn -0.6066 0.7950 -0.0045
vn -0.0041 0.1663 -0.9861
vn -0.0539 0.8576 0.5115
vn 0.4713 0.2970 0.8305
vn 0.8600 0.5102 0.0085
vn 0.0009 1.0000 0.0098
vn -0.9392 -0.3434 0.0092
vn 0.0612 0.0187 0.9980
vn -0.0542 0.8573 -0.5119
vn -0.0040 0.1670 0.9859
vn -0.6066 0.7950 0.0044
vn 0.8600 0.5103 -0.0082
vn 0.4595 0.3049 -0.8342
vn 0.6736 -0.7391 0.0079
vn 0.8751 0.4839 0.0082
vn 0.4789 0.2639 0.8373
vn 0.6736 -0.7391 -0.0079
vn 0.4672 0.2722 -0.8412
vn 0.8750 0.4840 -0.0081
vn -0.9023 -0.4309 0.0092
vn -0.5162 0.5567 0.6509
vn -0.6087 0.7934 0.0064
vn -0.9023 -0.4309 -0.0092
vn -0.6087 0.7934 -0.0063
vn -0.5162 0.5568 -0.6508
vn 0.8116 -0.5842 -0.0096
vn 0.6392 -0.7690 -0.0035
vn 0.1261 0.0537 -0.9906
vn 0.6392 -0.7690 0.0035
vn 0.8116 -0.5842 0.0097
vn 0.1262 0.0541 0.9905
vn -0.0046 0.0860 0.9963
vn -0.8909 0.4541 0.0100
vn -0.6687 0.7435 0.0066
vn -0.6687 0.7435 -0.0066
vn -0.8909 0.4541 -0.0100
vn -0.0046 0.0860 -0.9963
vn -0.0090 -0.9999 -0.0092
vn -0.0090 -0.9999 0.0092
vn -0.9487 -0.3161 0.0103
vn -0.9487 -0.3161 -0.0103
vn -0.0180 -0.0258 0.9995
vn -0.0188 0.1011 0.9947
vn -0.9997 -0.0196 0.0120
vn -0.9928 0.1193 0.0101
vn 0.6372 -0.7707 0.0064
vn 0.6372 -0.7707 -0.0064
vn -0.0899 -0.0138 -0.9959
vn -0.0789 -0.0348 -0.9963
vn -0.9662 -0.2574 -0.0108
vn 0.0088 -0.9999 -0.0092
vn -0.0790 -0.0348 -0.9963
vn -0.0602 -0.0327 -0.9977
vn -0.0914 0.4972 -0.8628
vn -0.0375 0.5716 -0.8197
vn -0.0035 0.0958 -0.9954
vn 0.9321 0.3621 -0.0085
vn 0.9457 0.3249 -0.0086
vn -0.0708 -0.0111 -0.9974
vn 0.9457 0.3249 0.0087
vn -0.8797 -0.4755 0.0102
vn 0.6662 -0.7456 -0.0153
vn -0.0708 -0.0111 0.9974
vn -0.0601 -0.0327 0.9977
vn 0.9457 0.3248 0.0086
vn 0.9321 0.3621 0.0085
vn 0.0089 -0.9999 0.0092
vn -0.0373 0.5722 0.8193
vn -0.0189 0.1012 0.9947
vn -0.0034 0.0960 0.9954
vn 0.2230 -0.9748 -0.0079
vn 0.2231 -0.9748 0.0079
vn -0.8790 -0.4768 0.0080
vn -0.8790 -0.4767 -0.0080
vn -0.8797 -0.4754 0.0084
vn -0.0798 -0.0382 -0.9961
vn 0.6345 -0.7729 -0.0062
vn 0.6345 -0.7729 0.0061
vn -0.2631 0.1537 -0.9525
vn 0.6372 -0.7706 -0.0063
vn 0.6344 -0.7730 -0.0061
vn -0.2631 0.1537 0.9525
vn -0.0789 -0.0348 0.9963
vn -0.0899 -0.0137 0.9959
vn -0.9662 -0.2575 0.0108
vn -0.1461 -0.0784 0.9862
vn -0.9867 0.1622 0.0127
vn -0.1462 -0.0784 0.9861
vn -0.1303 -0.0322 0.9910
vn -0.8502 0.5264 0.0098
vn -0.9867 0.1621 0.0127
vn -0.1303 -0.0321 0.9909
vn -0.1046 0.0666 0.9923
vn -0.2646 0.9643 0.0056
vn -0.1047 0.0666 0.9923
vn -0.2776 0.9607 0.0040
vn -0.2646 0.9643 0.0057
vn -0.0621 0.1541 -0.9861
vn -0.6504 0.7596 -0.0091
vn -0.8929 0.4501 -0.0112
vn -0.0764 0.2059 -0.9756
vn -0.1047 0.0666 -0.9923
vn -0.2646 0.9643 -0.0056
vn -0.1046 0.0665 -0.9923
vn -0.1303 -0.0321 -0.9910
vn -0.2647 0.9643 -0.0056
vn -0.1461 -0.0783 -0.9862
vn -0.9867 0.1620 -0.0127
vn -0.8501 0.5265 -0.0099
vn -0.1461 -0.0784 -0.9862
vn -0.0899 -0.0137 -0.9959
vn -0.9662 -0.2575 -0.0108
vn -0.9867 0.1621 -0.0127
vn 0.9360 -0.3518 -0.0095
vn 0.8425 -0.5387 -0.0084
vn -0.0581 0.1954 -0.9790
vn -0.0434 0.1505 -0.9877
vn 0.8425 -0.5386 -0.0084
vn 0.8135 -0.5816 -0.0079
vn -0.0876 0.0488 -0.9950
vn -0.0580 0.1955 -0.9790
vn 0.8134 -0.5816 -0.0080
vn 0.9827 -0.1850 -0.0091
vn -0.1116 -0.0380 -0.9930
vn -0.0877 0.0487 -0.9950
vn 0.9653 0.2611 -0.0085
vn -0.1277 -0.0768 -0.9888
vn -0.1115 -0.0380 -0.9930
vn -0.0708 -0.0112 -0.9974
vn -0.0434 0.1505 0.9877
vn -0.0581 0.1955 0.9790
vn 0.8425 -0.5387 0.0084
vn 0.9361 -0.3517 0.0094
vn -0.0581 0.1954 0.9790
vn -0.0877 0.0487 0.9950
vn 0.8134 -0.5816 0.0079
vn 0.8425 -0.5386 0.0084
vn -0.0877 0.0488 0.9950
vn -0.1115 -0.0379 0.9930
vn 0.9827 -0.1850 0.0091
vn 0.8134 -0.5816 0.0080
vn -0.1115 -0.0380 0.9930
vn -0.1277 -0.0768 0.9888
vn 0.9653 0.2612 0.0085
vn 0.9321 0.3622 0.0085
vn 0.9653 0.2611 0.0085
vn -0.5835 0.8121 0.0059
vn -0.8501 0.5265 -0.0098
vn -0.8501 0.5265 0.0099
vn -0.6504 0.7596 0.0091
vn -0.2777 0.9607 -0.0040
vn -0.2777 0.9607 0.0040
vn -0.0764 0.2058 0.9756
vn -0.0621 0.1542 0.9861
vn -0.8929 0.4502 0.0112
vn -0.6504 0.7595 0.0090
vn -0.0621 0.1541 0.9861
vn -0.0429 -0.0004 0.9991
vn -0.9397 0.3419 0.0103
vn -0.8929 0.4501 0.0112
vn -0.0268 -0.0754 0.9968
vn -0.9661 0.2579 0.0102
vn -0.9397 0.3418 0.0102
vn -0.0267 -0.0754 0.9968
vn -0.0222 -0.0534 0.9983
vn -0.9857 0.1684 0.0101
vn -0.9661 0.2578 0.0102
vn -0.0222 -0.0535 0.9983
vn -0.9928 0.1194 0.0101
vn -0.9857 0.1683 0.0101
vn -0.0180 -0.0257 -0.9995
vn -0.9928 0.1193 -0.0101
vn -0.9997 -0.0196 -0.0120
vn -0.0180 -0.0258 -0.9995
vn -0.0222 -0.0534 -0.9983
vn -0.9857 0.1683 -0.0101
vn -0.0267 -0.0754 -0.9968
vn -0.9661 0.2578 -0.0101
vn -0.0268 -0.0753 -0.9968
vn -0.0429 -0.0005 -0.9991
vn -0.9397 0.3418 -0.0102
vn -0.9661 0.2579 -0.0102
vn -0.0429 -0.0004 -0.9991
vn 0.7454 -0.6666 -0.0068
vn 0.0014 -0.0331 -0.9995
vn -0.0034 0.0959 -0.9954
vn 0.4762 -0.8793 -0.0029
vn -0.0025 -0.0582 -0.9983
vn 0.0013 -0.0332 -0.9994
vn 0.9143 -0.4049 -0.0099
vn 0.9936 -0.1128 -0.0109
vn -0.0079 -0.0761 -0.9971
vn 0.9936 -0.1129 -0.0108
vn 0.9890 -0.1477 -0.0103
vn -0.0236 -0.0013 -0.9997
vn -0.0078 -0.0761 -0.9971
vn 0.9360 -0.3518 -0.0094
vn 0.0013 -0.0331 0.9995
vn 0.7454 -0.6666 0.0068
vn 0.6662 -0.7456 0.0152
vn -0.0026 -0.0583 0.9983
vn 0.4762 -0.8793 0.0029
vn -0.0079 -0.0760 0.9971
vn 0.9935 -0.1129 0.0108
vn -0.0078 -0.0760 0.9971
vn -0.0236 -0.0013 0.9997
vn 0.9890 -0.1477 0.0103
vn 0.9936 -0.1128 0.0108
vn -0.0236 -0.0012 0.9997
vn 0.7453 -0.6667 -0.0068
vn 0.7453 -0.6667 0.0068
vn 0.9544 0.2984 0.0110
vn 0.9544 0.2984 -0.0110
vn 0.0196 0.9998 -0.0096
vn 0.0196 0.9998 0.0097
vn 0.9991 0.0406 -0.0112
vn 0.9574 0.2886 -0.0108
vn 0.0163 0.0766 -0.9969
vn 0.9696 0.2444 0.0115
vn 0.9544 0.2984 0.0109
vn 0.0917 -0.0048 0.9958
vn 0.0612 0.0186 0.9980
vn 0.0009 1.0000 0.0097
vn 0.0142 0.1570 0.9875
vn -0.0041 0.1671 0.9859
vn -0.0542 0.8573 -0.5120
vn 0.0712 -0.0076 0.9974
vn 0.0613 0.0187 0.9979
vn -0.9391 -0.3434 0.0091
vn -0.9291 -0.3697 0.0090
vn -0.9391 -0.3434 -0.0091
vn -0.9391 -0.3434 0.0092
vn 0.0009 1.0000 -0.0097
vn -0.6066 0.7950 0.0043
vn 0.8600 0.5103 -0.0083
vn -0.9291 -0.3697 -0.0091
vn -0.9392 -0.3434 -0.0091
vn 0.0712 -0.0076 -0.9974
vn 0.0612 0.0186 -0.9979
vn -0.2385 0.7814 0.5766
vn -0.0540 0.8576 0.5115
vn 0.8750 0.4841 -0.0080
vn 0.8751 0.4840 0.0083
vn 0.6735 -0.7391 0.0080
vn 0.6736 -0.7391 -0.0080
vn 0.8751 0.4839 0.0083
vn 0.4713 0.2971 0.8304
vn 0.4789 0.2639 0.8372
vn 0.8750 0.4840 -0.0080
vn 0.4673 0.2722 -0.8412
vn 0.4596 0.3050 -0.8341
vn -0.6087 0.7934 0.0063
vn -0.9023 -0.4310 -0.0093
vn -0.9023 -0.4310 0.0093
vn -0.6087 0.7934 -0.0064
vn -0.5822 0.8131 -0.0063
vn -0.5821 0.8131 0.0063
vn -0.5162 0.5568 0.6508
vn 0.9696 0.2444 -0.0115
vn 0.0917 -0.0048 -0.9958
vn 0.9945 -0.1035 -0.0139
vn 0.1429 0.0714 -0.9872
vn 0.0918 -0.0048 -0.9958
vn 0.9945 -0.1034 -0.0139
vn 0.1260 0.0536 -0.9906
vn 0.1429 0.0713 -0.9872
vn 0.6392 -0.7690 -0.0034
vn 0.2944 -0.9557 -0.0050
vn 0.1042 -0.0880 -0.9907
vn 0.1261 0.0536 -0.9906
vn 0.2944 -0.9557 -0.0051
vn 0.5172 -0.8558 -0.0070
vn 0.0891 -0.1916 -0.9774
vn 0.1043 -0.0880 -0.9906
vn 0.8416 -0.5401 0.0105
vn 0.5172 -0.8558 0.0070
vn 0.0892 -0.1916 0.9774
vn 0.0723 -0.1359 0.9881
vn 0.5172 -0.8558 0.0071
vn 0.2944 -0.9557 0.0052
vn 0.1042 -0.0880 0.9907
vn 0.0893 -0.1916 0.9774
vn 0.2945 -0.9556 0.0051
vn 0.6391 -0.7691 0.0035
vn 0.1261 0.0541 0.9905
vn 0.1043 -0.0879 0.9907
vn 0.8116 -0.5842 0.0096
vn 0.9945 -0.1035 0.0139
vn 0.1429 0.0713 0.9872
vn 0.9696 0.2443 0.0115
vn 0.0918 -0.0048 0.9958
vn 0.0519 -0.1318 0.9899
vn 0.0695 -0.1789 0.9814
vn -0.8590 0.5119 0.0091
vn -0.9423 0.3346 0.0103
vn 0.0694 -0.1789 0.9814
vn 0.0853 -0.0687 0.9940
vn -0.8506 0.5258 0.0088
vn 0.1059 0.0563 0.9928
vn -0.9845 0.1754 0.0097
vn -0.8505 0.5259 0.0088
vn 0.1059 0.0562 0.9928
vn 0.1229 0.0676 0.9901
vn -0.9798 -0.1998 0.0093
vn -0.9844 0.1755 0.0097
vn -0.9291 -0.3696 0.0090
vn -0.9798 -0.1997 0.0093
vn -0.9423 0.3346 -0.0102
vn -0.8590 0.5120 -0.0091
vn 0.0694 -0.1788 -0.9814
vn 0.0519 -0.1318 -0.9899
vn -0.8590 0.5119 -0.0091
vn -0.8506 0.5258 -0.0088
vn 0.0853 -0.0687 -0.9940
vn -0.8505 0.5259 -0.0088
vn -0.9844 0.1754 -0.0098
vn 0.1059 0.0557 -0.9928
vn -0.9844 0.1755 -0.0098
vn -0.9798 -0.1998 -0.0093
vn 0.1229 0.0676 -0.9901
vn -0.9798 -0.1997 -0.0093
vn -0.9291 -0.3696 -0.0090
vn 0.1228 0.0676 -0.9901
vn 0.8115 -0.5842 -0.0096
vn 0.8115 -0.5842 0.0096
vn 0.5172 -0.8559 -0.0069
vn 0.8416 -0.5401 -0.0105
vn 0.0723 -0.1358 -0.9881
vn 0.0891 -0.1915 -0.9774
vn 0.8415 -0.5401 -0.0105
vn 0.9465 -0.3226 -0.0113
vn 0.0485 -0.0179 -0.9987
vn 0.9704 -0.2411 -0.0112
vn 0.0309 0.0335 -0.9990
vn 0.9849 -0.1727 -0.0110
vn 0.0164 0.0795 -0.9967
vn 0.9989 0.0456 -0.0115
vn 0.0163 0.0767 -0.9969
vn 0.9574 0.2885 0.0108
vn 0.9991 0.0406 0.0112
vn 0.0163 0.0770 0.9969
vn 0.9849 -0.1727 0.0110
vn 0.0164 0.0795 0.9967
vn 0.9849 -0.1728 0.0110
vn 0.9704 -0.2411 0.0112
vn 0.0309 0.0335 0.9990
vn 0.9704 -0.2412 0.0112
vn 0.9465 -0.3226 0.0113
vn 0.0485 -0.0179 0.9987
vn 0.0309 0.0336 0.9990
vn 0.0723 -0.1358 0.9881
vn -0.0041 0.1670 0.9859
vn -0.0041 0.0857 0.9963
vn -0.6723 0.7403 0.0074
vn -0.0041 0.0858 0.9963
vn -0.6723 0.7402 0.0074
vn 0.0105 0.0350 0.9993
vn -0.9806 0.1959 0.0116
vn 0.0106 0.0350 0.9993
vn 0.0279 -0.0165 0.9995
vn -0.9875 0.1569 0.0112
vn -0.9805 0.1960 0.0117
vn 0.0519 -0.1319 0.9899
vn -0.9876 0.1569 0.0112
vn -0.6723 0.7403 -0.0075
vn -0.0041 0.0854 -0.9963
vn -0.0040 0.1663 -0.9861
vn -0.6723 0.7402 -0.0076
vn -0.6687 0.7435 -0.0067
vn -0.0047 0.0860 -0.9963
vn -0.0042 0.0853 -0.9963
vn -0.9805 0.1959 -0.0117
vn 0.0106 0.0351 -0.9993
vn -0.9805 0.1960 -0.0117
vn -0.9875 0.1569 -0.0112
vn 0.0279 -0.0165 -0.9995
vn -0.9875 0.1570 -0.0112
vn -0.9423 0.3346 -0.0103
vn 0.0519 -0.1320 -0.9899
vn -0.8909 0.4541 0.0101
vn -0.8909 0.4541 -0.0101
vn -0.6687 0.7435 0.0067
vn -0.0573 -0.0220 0.9981
vn -0.0374 0.5717 -0.8196
vn 0.4595 0.3050 -0.8342
vn -0.0723 -0.0129 -0.9973
vn 0.2230 -0.9748 0.0079
vn 0.6736 -0.7391 0.0080
vn -0.0648 -0.0479 0.9968
vn 0.6736 -0.7390 -0.0080
vn -0.2631 0.1537 0.9524
vn -0.9024 -0.4309 0.0093
vn -0.5728 -0.8196 -0.0091
vn -0.5162 0.5567 -0.6508
vn -0.2631 0.1537 -0.9524
vn 0.0089 -0.9999 -0.0092
vn -0.0707 -0.0111 0.9974
vn -0.0900 -0.0137 0.9958
vn -0.0181 -0.0257 0.9995
vn -0.9997 -0.0195 -0.0121
vn -0.0914 0.4978 0.8625
vn -0.0373 0.5723 0.8192
vn -0.0540 0.8575 0.5116
vn -0.0900 -0.0137 -0.9958
vn -0.0707 -0.0111 -0.9974
vn -0.0601 -0.0328 -0.9977
vn -0.0181 -0.0257 -0.9995
vn -0.0189 0.1009 -0.9947
vn -0.0915 0.4972 -0.8628
vn -0.5162 0.5567 -0.6509
vn -0.0914 0.4973 -0.8627
vn -0.2386 0.7812 -0.5768
vn -0.0541 0.8573 -0.5120
vn 0.9321 0.3621 -0.0086
vn 0.9321 0.3621 0.0086
vn 0.9457 0.3249 0.0086
vn -0.8797 -0.4755 0.0084
vn -0.8798 -0.4754 -0.0085
vn -0.8789 -0.4768 0.0080
vn 0.6735 -0.7391 -0.0080
vn -0.9662 -0.2574 0.0108
vn -0.0708 -0.0112 0.9974
vn -0.2647 0.9643 0.0056
vn -0.5834 0.8121 -0.0059
vn -0.1303 -0.0321 0.9910
vn -0.6504 0.7595 0.0091
vn -0.8929 0.4502 -0.0113
vn -0.6504 0.7595 -0.0091
vn -0.0580 0.1954 0.9790
vn -0.0580 0.1954 -0.9790
vn -0.1046 0.0666 -0.9923
vn -0.0877 0.0488 -0.9950
vn -0.1462 -0.0784 -0.9861
vn -0.1303 -0.0321 -0.9909
vn -0.0900 -0.0138 -0.9958
vn -0.1462 -0.0784 -0.9862
vn 0.9360 -0.3518 0.0095
vn 0.8424 -0.5387 -0.0084
vn 0.8424 -0.5387 0.0084
vn 0.8135 -0.5816 -0.0080
vn 0.8135 -0.5816 0.0080
vn 0.9827 -0.1849 -0.0091
vn 0.9827 -0.1849 0.0091
vn -0.8929 0.4501 0.0113
vn -0.9397 0.3419 -0.0103
vn -0.8929 0.4501 -0.0113
vn -0.0429 -0.0005 0.9991
vn -0.9397 0.3418 0.0103
vn -0.9397 0.3418 -0.0103
vn -0.0228 -0.0013 0.9997
vn -0.0267 -0.0753 0.9968
vn -0.9857 0.1684 0.0102
vn -0.9857 0.1684 -0.0102
vn -0.0077 -0.0760 0.9971
vn -0.9857 0.1683 0.0102
vn -0.9857 0.1683 -0.0102
vn -0.0268 -0.0754 -0.9968
vn -0.0078 -0.0760 -0.9971
vn -0.0236 -0.0012 -0.9997
vn 0.4762 -0.8793 0.0028
vn 0.9935 -0.1129 -0.0109
vn 0.9143 -0.4048 0.0099
vn 0.9935 -0.1129 0.0109
vn 0.9936 -0.1128 0.0109
vn 0.9360 -0.3517 -0.0095
vn 0.9360 -0.3517 0.0095
vn 0.9544 0.2985 -0.0110
vn 0.9544 0.2985 0.0110
vn 0.0197 0.9998 0.0097
vn 0.0197 0.9998 -0.0097
vn 0.0612 0.0187 -0.9980
vn -0.0041 0.0853 -0.9963
vn 0.0143 0.1563 -0.9876
vn -0.0042 0.0858 0.9963
vn -0.9392 -0.3434 0.0091
vn -0.9291 -0.3697 0.0091
vn -0.6723 0.7402 -0.0075
vn 0.1430 0.0713 -0.9872
vn 0.9696 0.2443 -0.0115
vn 0.1059 0.0558 -0.9928
vn 0.8116 -0.5841 0.0096
vn 0.8116 -0.5841 -0.0097
vn 0.0852 -0.0687 -0.9940
vn 0.6393 -0.7690 -0.0035
vn 0.2945 -0.9557 -0.0051
vn 0.0892 -0.1915 -0.9774
vn 0.5172 -0.8559 0.0071
vn 0.8415 -0.5401 0.0105
vn 0.0724 -0.1359 -0.9881
vn 0.0519 -0.1319 -0.9899
vn 0.0852 -0.0687 0.9940
vn 0.0724 -0.1359 0.9881
vn 0.0852 -0.0686 0.9940
vn 0.1430 0.0713 0.9872
vn 0.1228 0.0676 0.9901
vn -0.8589 0.5120 -0.0091
vn -0.8589 0.5120 0.0091
vn -0.9844 0.1755 0.0098
vn -0.9844 0.1754 0.0098
vn 0.0518 -0.1318 -0.9899
vn 0.0486 -0.0179 -0.9987
vn 0.0278 -0.0165 -0.9995
vn 0.8416 -0.5400 -0.0105
vn 0.8416 -0.5400 0.0105
vn 0.9465 -0.3226 0.0114
vn 0.0485 -0.0178 -0.9987
vn 0.0310 0.0336 -0.9990
vn 0.0105 0.0351 -0.9993
vn 0.0165 0.0795 -0.9967
vn 0.9849 -0.1728 0.0111
vn 0.9849 -0.1728 -0.0111
vn 0.9849 -0.1727 -0.0111
vn 0.9849 -0.1727 0.0111
vn 0.9991 0.0405 0.0112
vn 0.9991 0.0405 -0.0112
vn 0.0163 0.0771 0.9969
vn 0.0310 0.0336 0.9990
vn 0.0105 0.0351 0.9993
vn 0.0165 0.0795 0.9967
vn 0.0485 -0.0178 0.9987
vn 0.0278 -0.0165 0.9995
vn 0.0724 -0.1358 0.9881
vn 0.0518 -0.1318 0.9899
vn 0.0486 -0.0179 0.9987
vn -0.6722 0.7403 0.0074
vn -0.8909 0.4540 -0.0101
vn -0.8909 0.4540 0.0101
vn -0.9806 0.1959 0.0117
vn -0.9875 0.1570 0.0112
vt 0.422009 0.568493
vt 0.422492 0.564654
vt 0.425583 0.565992
vt 0.588405 0.561854
vt 0.592009 0.563337
vt 0.588725 0.564152
vt 0.588224 0.564207
vt 0.192995 0.564654
vt 0.193478 0.568493
vt 0.189904 0.565992
vt 0.193454 0.745198
vt 0.193570 0.748633
vt 0.192065 0.746439
vt 0.191200 0.745536
vt 0.422492 0.335157
vt 0.422917 0.331511
vt 0.425939 0.334531
vt 0.422755 0.138037
vt 0.422728 0.134717
vt 0.424131 0.136087
vt 0.423863 0.136911
vt 0.424941 0.136696
vt 0.192995 0.335157
vt 0.189548 0.334531
vt 0.192570 0.331511
vt 0.008422 0.323297
vt 0.009714 0.321171
vt 0.010536 0.321216
vt 0.011305 0.322546
vt 0.012436 0.325437
vt 0.768824 0.543263
vt 0.768825 0.541069
vt 0.771018 0.543241
vt 0.191890 0.000000
vt 0.191904 0.002194
vt 0.189710 0.002194
vt 0.406643 0.868424
vt 0.406905 0.866230
vt 0.409114 0.866248
vt 0.802458 0.481140
vt 0.802413 0.483334
vt 0.800264 0.481402
vt 0.531925 0.590568
vt 0.534164 0.586788
vt 0.534776 0.587636
vt 0.537650 0.579895
vt 0.537642 0.574882
vt 0.538459 0.576321
vt 0.076328 0.576326
vt 0.077845 0.574882
vt 0.077745 0.578564
vt 0.080204 0.587612
vt 0.081323 0.586788
vt 0.082293 0.589912
vt 0.018091 0.326467
vt 0.020307 0.329727
vt 0.020083 0.330331
vt 0.021676 0.332735
vt 0.023532 0.335709
vt 0.022769 0.337565
vt 0.597396 0.326466
vt 0.595404 0.330331
vt 0.595180 0.329726
vt 0.593811 0.332735
vt 0.592719 0.337564
vt 0.591955 0.335709
vt 0.973943 0.002736
vt 0.974560 0.000408
vt 0.976137 0.002188
vt 0.802720 0.002687
vt 0.802466 0.004933
vt 0.800762 0.005092
vt 0.801324 0.002740
vt 0.800259 0.027485
vt 0.798093 0.027039
vt 0.797680 0.024548
vt 0.802466 0.216198
vt 0.802720 0.218444
vt 0.801324 0.218391
vt 0.800762 0.216039
vt 0.615504 0.509821
vt 0.617684 0.508876
vt 0.617590 0.511101
vt 0.773271 0.763871
vt 0.776409 0.765796
vt 0.774122 0.766006
vt 0.773938 0.766022
vt 0.771365 0.764146
vt 0.972184 0.545208
vt 0.970410 0.544800
vt 0.969406 0.542475
vt 0.616679 0.262922
vt 0.618117 0.260305
vt 0.617214 0.263622
vt 0.616039 0.264769
vt 0.617558 0.263285
vt 0.762661 0.543262
vt 0.758843 0.543318
vt 0.760455 0.540012
vt 0.762626 0.772759
vt 0.760403 0.775982
vt 0.758809 0.772668
vt 0.808621 0.283342
vt 0.810731 0.280029
vt 0.812423 0.283230
vt 0.808621 0.481140
vt 0.812423 0.481252
vt 0.810731 0.484453
vt 0.878456 0.016145
vt 0.874617 0.014168
vt 0.875606 0.012682
vt 0.874617 0.206962
vt 0.878456 0.204986
vt 0.875606 0.208448
vt 0.797137 0.544830
vt 0.798404 0.546858
vt 0.794565 0.546730
vt 0.794565 0.761544
vt 0.798404 0.761416
vt 0.797137 0.763444
vt 0.423696 0.734806
vt 0.424298 0.744633
vt 0.422033 0.744245
vt 0.421440 0.734581
vt 0.421917 0.748633
vt 0.208066 0.652900
vt 0.210484 0.653800
vt 0.022733 0.563382
vt 0.027082 0.561854
vt 0.178394 0.261502
vt 0.176228 0.260886
vt 0.192724 0.134717
vt 0.192732 0.139105
vt 0.439259 0.260886
vt 0.437093 0.261502
vt 0.607064 0.323312
vt 0.602503 0.325404
vt 0.421387 -0.000000
vt 0.421409 0.002194
vt 0.423603 0.002194
vt 0.190539 0.136088
vt 0.208845 0.868424
vt 0.208582 0.866230
vt 0.206373 0.866248
vt 0.424408 0.746439
vt 0.407421 0.652900
vt 0.405003 0.653800
vt 0.508755 0.592157
vt 0.523271 0.592451
vt 0.523406 0.594908
vt 0.508918 0.594599
vt 0.537146 0.580750
vt 0.537326 0.583519
vt 0.073324 0.571857
vt 0.073881 0.574649
vt 0.078341 0.580751
vt 0.078161 0.583519
vt 0.092216 0.592452
vt 0.092081 0.594908
vt 0.106732 0.592157
vt 0.106570 0.594599
vt 0.187560 0.209480
vt 0.181028 0.231163
vt 0.178770 0.231982
vt 0.185053 0.210436
vt 0.180650 0.238969
vt 0.178400 0.239305
vt 0.179882 0.246879
vt 0.177665 0.246879
vt 0.178995 0.254242
vt 0.176802 0.254050
vt 0.430434 0.210436
vt 0.436717 0.231982
vt 0.434459 0.231163
vt 0.427927 0.209480
vt 0.437087 0.239305
vt 0.434837 0.238969
vt 0.437822 0.246879
vt 0.435605 0.246879
vt 0.438685 0.254050
vt 0.436492 0.254242
vt 0.410139 0.682411
vt 0.205348 0.682411
vt 0.206338 0.678024
vt 0.409149 0.678023
vt 0.412767 0.694926
vt 0.202721 0.694927
vt 0.203830 0.690539
vt 0.411657 0.690539
vt 0.542163 0.571857
vt 0.541607 0.574649
vt 0.416226 0.698640
vt 0.417997 0.704381
vt 0.415619 0.703976
vt 0.413683 0.697748
vt 0.420389 0.712790
vt 0.418050 0.712402
vt 0.422655 0.723274
vt 0.420383 0.723006
vt 0.191791 0.734806
vt 0.194047 0.734581
vt 0.192832 0.723274
vt 0.195104 0.723006
vt 0.195098 0.712790
vt 0.197437 0.712403
vt 0.197490 0.704381
vt 0.199868 0.703976
vt 0.199262 0.698640
vt 0.201804 0.697748
vt 0.033420 0.338044
vt 0.033754 0.340577
vt 0.053619 0.338774
vt 0.053778 0.341275
vt 0.074893 0.343794
vt 0.075223 0.346344
vt 0.603154 0.322465
vt 0.581733 0.340577
vt 0.582067 0.338044
vt 0.561709 0.341275
vt 0.561868 0.338774
vt 0.540264 0.346344
vt 0.540594 0.343794
vt 0.192193 0.153815
vt 0.423294 0.153815
vt 0.423612 0.158203
vt 0.191875 0.158203
vt 0.192715 0.146117
vt 0.422772 0.146117
vt 0.422978 0.150505
vt 0.192510 0.150505
vt 0.973943 0.218394
vt 0.976137 0.218942
vt 0.817947 0.004343
vt 0.817947 0.002105
vt 0.895148 0.201443
vt 0.974545 0.220788
vt 0.895605 0.203806
vt 0.798080 0.243572
vt 0.800272 0.244591
vt 0.637850 0.027748
vt 0.635886 0.024937
vt 0.908061 0.530608
vt 0.908594 0.532748
vt 0.970410 0.763474
vt 0.972604 0.763065
vt 0.773213 0.544385
vt 0.771019 0.544076
vt 0.908594 0.775526
vt 0.969423 0.765885
vt 0.908061 0.777666
vt 0.617670 0.292343
vt 0.615491 0.292863
vt 0.615173 0.325901
vt 0.600887 0.558793
vt 0.598424 0.561989
vt 0.613080 0.323033
vt 0.617685 0.546875
vt 0.621194 0.542399
vt 0.617685 0.766944
vt 0.621208 0.771478
vt 0.936278 0.487714
vt 0.937292 0.492082
vt 0.936278 0.276768
vt 0.937292 0.272400
vt 0.895148 0.019688
vt 0.895605 0.017325
vt 0.883527 0.018104
vt 0.883296 0.015707
vt 0.874068 0.014161
vt 0.872831 0.011888
vt 0.866201 0.014194
vt 0.865412 0.011662
vt 0.858638 0.209450
vt 0.866201 0.206936
vt 0.865412 0.209469
vt 0.858151 0.211807
vt 0.874068 0.206970
vt 0.872832 0.209243
vt 0.883527 0.203026
vt 0.883296 0.205424
vt 0.853143 0.538966
vt 0.872945 0.533092
vt 0.872129 0.535294
vt 0.852649 0.541340
vt 0.879832 0.533200
vt 0.879427 0.535446
vt 0.889944 0.532480
vt 0.889944 0.534696
vt 0.899802 0.531801
vt 0.900015 0.534003
vt 0.852649 0.766934
vt 0.872130 0.772980
vt 0.872945 0.775182
vt 0.853143 0.769308
vt 0.879427 0.772828
vt 0.879832 0.775074
vt 0.889944 0.773578
vt 0.889944 0.775794
vt 0.900015 0.774271
vt 0.899802 0.776473
vt 0.858638 0.011680
vt 0.858151 0.009324
vt 0.850448 0.010105
vt 0.850023 0.007751
vt 0.840733 0.007852
vt 0.840327 0.005523
vt 0.829632 0.005642
vt 0.829301 0.003363
vt 0.817947 0.216788
vt 0.817947 0.219026
vt 0.829632 0.215488
vt 0.829301 0.217767
vt 0.840733 0.213278
vt 0.840327 0.215608
vt 0.850448 0.211026
vt 0.850023 0.213380
vt 0.776367 0.542465
vt 0.788969 0.543708
vt 0.787814 0.545736
vt 0.811145 0.543346
vt 0.810885 0.545573
vt 0.831913 0.542441
vt 0.831535 0.544719
vt 0.787814 0.762538
vt 0.788969 0.764566
vt 0.810885 0.762701
vt 0.811145 0.764928
vt 0.831535 0.763555
vt 0.831913 0.765833
vt 0.605782 0.321177
vt 0.609737 0.320992
vt 0.002412 0.322973
vt 0.005802 0.320960
vt 0.768790 0.774954
vt 0.768790 0.772760
vt 0.802413 0.281148
vt 0.802457 0.283342
vt 0.493306 0.360459
vt 0.578852 0.563001
vt 0.812645 0.272662
vt 0.934387 0.267336
vt 0.122181 0.360459
vt 0.036635 0.563001
vt 0.934386 0.497146
vt 0.812645 0.491820
vt 0.017063 0.561989
vt 0.624080 0.539603
vt 0.757849 0.532835
vt 0.757685 0.783143
vt 0.624036 0.774269
vt 0.406534 0.668329
vt 0.208954 0.668329
vt 0.499818 0.363925
vt 0.507263 0.364350
vt 0.410906 0.686724
vt 0.204582 0.686724
vt 0.514574 0.361347
vt 0.519810 0.355624
vt 0.095677 0.355624
vt 0.100913 0.361347
vt 0.108224 0.364350
vt 0.115670 0.363925
vt 0.548309 0.569247
vt 0.556817 0.566678
vt 0.567404 0.564304
vt 0.048083 0.564304
vt 0.058670 0.566678
vt 0.067178 0.569247
vt 0.191384 0.167402
vt 0.424103 0.167402
vt 0.191163 0.187567
vt 0.424324 0.187567
vt 0.990244 0.780495
vt 0.990244 0.997249
vt 0.773212 0.997801
vt 0.773212 0.779944
vt 0.694248 0.268063
vt 0.676141 0.485258
vt 0.787895 0.516116
vt 0.762766 0.295897
vt 0.777914 0.293051
vt 0.797639 0.525547
vt 0.739623 0.219954
vt 0.721516 0.002759
vt 0.652997 0.030594
vt 0.627869 0.250811
vt 0.705927 0.267767
vt 0.684217 0.481984
vt 0.712990 0.271154
vt 0.694253 0.481224
vt 0.714097 0.273563
vt 0.703915 0.485170
vt 0.716575 0.280879
vt 0.709173 0.490171
vt 0.722473 0.286403
vt 0.727828 0.498007
vt 0.701721 0.008270
vt 0.711849 0.219866
vt 0.706591 0.224867
vt 0.699188 0.015575
vt 0.687936 0.232703
vt 0.693291 0.021099
vt 0.702774 0.005850
vt 0.721510 0.215920
vt 0.709837 0.002463
vt 0.731547 0.216680
vt 0.730356 0.289512
vt 0.748553 0.502571
vt 0.740086 0.292174
vt 0.769041 0.503843
vt 0.751190 0.294418
vt 0.782644 0.509382
vt 0.664574 0.029114
vt 0.633120 0.244078
vt 0.675677 0.026871
vt 0.646722 0.238539
vt 0.685407 0.024208
vt 0.667211 0.237267
s 0
usemtl Material.003
f 1/1/1 2/2/2 3/3/3
f 4/4/4 5/5/5 6/6/6 7/7/7
f 8/8/8 9/9/9 10/10/10
f 11/11/11 12/12/12 13/13/13 14/14/14
f 15/15/15 16/16/16 17/17/17
f 18/18/18 19/19/19 20/20/20 21/21/21 22/22/22
f 23/23/23 24/24/24 25/25/25
f 26/26/26 27/27/27 28/28/28 29/29/29 30/30/30
f 31/31/31 32/32/32 33/33/33
f 34/34/34 35/35/35 36/36/36
f 37/37/37 38/38/38 39/39/39
f 40/40/40 41/41/41 42/42/42
f 47/43/43 48/44/44 49/45/45
f 52/46/46 53/47/47 54/48/48
f 55/49/49 56/50/50 57/51/51
f 60/52/52 61/53/53 62/54/54
f 107/55/55 108/56/56 109/57/57
f 110/58/58 111/59/59 112/60/60
f 119/61/61 120/62/62 121/63/63
f 122/64/64 123/65/65 124/66/66
f 131/67/67 132/68/68 133/69/69
f 134/70/70 135/71/71 136/72/72 137/73/73
f 138/74/74 139/75/75 140/76/76
f 141/77/77 142/78/78 143/79/79 144/80/80
f 145/81/81 146/82/82 147/83/83
f 148/84/84 149/85/85 150/86/86 151/87/87 152/88/88
f 153/89/89 154/90/90 155/91/91
f 156/92/92 157/93/93 158/94/94 159/95/95 160/96/96
f 161/97/97 162/98/98 163/99/99
f 164/100/100 165/101/101 166/102/102
f 167/103/103 168/104/104 169/105/105
f 170/106/106 171/107/107 172/108/108
f 177/109/109 178/110/110 179/111/111
f 188/112/112 189/113/113 190/114/114
f 237/115/115 238/116/116 239/117/117
f 248/118/118 249/119/119 250/120/120
f 8/8/121 2/2/122 1/1/123 9/9/124
f 96/121/125 4/122/126 7/123/127 95/124/128
f 6/125/129 12/12/130 11/11/11 7/123/127
f 66/126/131 10/10/132 9/9/9 65/127/133
f 23/23/134 8/8/8 10/10/135 24/24/136
f 13/128/137 26/26/138 30/30/139 14/129/14
f 76/130/140 25/25/141 24/24/24 75/131/142
f 15/15/15 23/23/134 25/25/141 16/16/143
f 28/132/28 19/19/144 18/18/18 29/133/145
f 86/134/146 17/17/147 16/16/148 85/135/149
f 2/2/2 15/15/150 17/17/147 3/3/3
f 21/136/151 5/5/5 4/4/152 22/137/153
f 34/34/154 31/138/155 33/139/156 35/35/157
f 32/140/32 20/20/20 19/19/158 33/139/156
f 27/141/27 36/36/159 35/35/157 28/132/28
f 37/37/37 40/142/40 42/143/160 38/38/161
f 41/144/162 13/13/137 12/12/163 42/143/164
f 5/145/5 39/39/165 38/38/38 6/125/6
f 3/3/166 43/146/167 44/147/168 1/1/123
f 43/148/167 45/149/169 46/150/170 44/151/168
f 45/149/171 48/44/172 47/43/173 46/150/174
f 48/44/175 50/152/176 51/153/177 49/45/45
f 50/152/178 53/47/47 52/46/179 51/153/180
f 106/154/181 56/50/50 55/49/182 105/155/183
f 56/50/184 58/156/185 59/157/186 57/51/51
f 58/156/187 61/53/188 60/52/52 59/157/189
f 61/53/188 63/158/190 64/159/191 62/54/192
f 63/158/193 66/160/194 65/161/195 64/159/196
f 118/162/197 67/163/198 68/164/199 117/165/200
f 67/163/201 69/166/202 70/167/203 68/164/204
f 69/166/205 71/168/206 72/169/207 70/167/208
f 71/168/206 73/170/209 74/171/210 72/169/211
f 73/170/209 76/130/140 75/131/212 74/171/210
f 130/172/213 77/173/214 78/174/215 129/175/216
f 77/173/217 79/176/218 80/177/219 78/174/220
f 79/176/221 81/178/222 82/179/223 80/177/224
f 81/178/225 83/180/226 84/181/227 82/179/223
f 83/180/226 86/134/146 85/135/228 84/181/229
f 49/182/230 60/183/52 62/184/231 47/185/232
f 54/186/233 55/187/182 57/188/234 52/189/235
f 53/47/236 87/190/237 88/191/238 54/48/239
f 87/192/240 89/193/241 90/194/242 88/195/243
f 89/193/241 91/196/244 92/197/245 90/194/246
f 91/196/247 93/198/248 94/199/249 92/197/250
f 93/198/251 96/121/125 95/124/252 94/199/253
f 14/14/14 97/200/254 98/201/255 11/11/256
f 97/200/257 99/202/258 100/203/259 98/201/255
f 99/202/258 101/204/260 102/205/261 100/203/259
f 101/204/262 103/206/263 104/207/264 102/205/265
f 103/206/266 106/208/181 105/209/183 104/207/264
f 29/29/29 107/55/267 109/57/268 30/30/269
f 108/56/270 110/58/58 112/60/271 109/57/272
f 111/59/273 113/210/274 114/211/275 112/60/60
f 113/210/276 115/212/277 116/213/278 114/211/279
f 115/212/277 118/214/280 117/215/200 116/213/278
f 22/137/153 120/62/281 119/61/282 18/216/283
f 120/62/62 123/65/284 122/64/64 121/63/285
f 123/65/65 125/217/286 126/218/287 124/66/66
f 125/217/288 127/219/289 128/220/290 126/218/291
f 127/219/292 130/221/213 129/222/216 128/220/290
f 110/223/58 122/224/64 124/225/66 111/226/273
f 107/227/293 119/228/294 121/229/63 108/230/56
f 140/231/295 131/67/296 133/69/297 138/232/298
f 224/233/299 135/71/300 134/70/70 223/234/301
f 135/71/300 141/77/77 144/80/80 136/72/72
f 194/235/302 140/231/303 139/236/75 193/237/304
f 155/238/305 139/75/75 138/74/74 153/239/306
f 142/240/307 157/93/308 156/92/309 143/241/79
f 204/242/310 155/91/311 154/90/312 203/243/313
f 147/244/314 154/90/315 153/89/306 145/245/316
f 158/246/317 148/84/84 152/88/88 159/247/318
f 214/248/319 147/244/320 146/249/82 213/250/321
f 132/251/68 146/82/322 145/81/316 133/252/297
f 149/253/85 134/254/70 137/255/323 150/256/324
f 166/102/325 162/98/326 161/97/327 164/100/328
f 162/98/329 152/257/88 151/258/330 163/99/331
f 159/259/95 166/102/332 165/101/333 160/260/334
f 169/105/335 171/107/107 170/106/336 167/103/337
f 171/107/338 144/261/339 143/262/79 172/108/108
f 136/263/340 169/105/105 168/104/341 137/264/73
f 131/67/296 173/265/342 174/266/343 132/68/68
f 173/265/342 175/267/344 176/268/345 174/266/346
f 175/267/347 177/109/109 179/111/348 176/268/349
f 178/110/350 180/269/351 181/270/352 179/111/353
f 180/269/354 182/271/355 183/272/356 181/270/357
f 234/273/358 184/274/359 185/275/360 233/276/361
f 184/274/362 186/277/363 187/278/364 185/275/365
f 186/277/366 188/112/367 190/114/368 187/278/369
f 189/113/370 191/279/371 192/280/372 190/114/368
f 191/279/371 194/235/373 193/237/374 192/280/372
f 245/281/375 195/282/376 196/283/377 244/284/378
f 195/282/379 197/285/380 198/286/381 196/283/377
f 197/285/380 199/287/382 200/288/383 198/286/384
f 199/287/385 201/289/386 202/290/387 200/288/388
f 201/289/386 204/242/310 203/243/389 202/290/390
f 256/291/391 205/292/392 206/293/393 255/294/394
f 205/292/395 207/295/396 208/296/397 206/293/393
f 207/295/398 209/297/399 210/298/400 208/296/397
f 209/297/401 211/299/402 212/300/403 210/298/400
f 211/299/404 214/248/405 213/250/321 212/300/406
f 177/109/407 189/113/408 188/112/112 178/110/110
f 182/271/409 215/301/410 216/302/411 183/272/412
f 215/301/413 217/303/414 218/304/415 216/302/411
f 217/303/414 219/305/416 220/306/417 218/304/415
f 219/305/416 221/307/418 222/308/419 220/306/417
f 221/307/418 224/233/420 223/234/421 222/308/419
f 141/77/422 225/309/423 226/310/424 142/78/307
f 225/309/423 227/311/425 228/312/426 226/310/424
f 227/311/427 229/313/428 230/314/429 228/312/426
f 229/313/430 231/315/431 232/316/432 230/314/433
f 231/315/431 234/273/358 233/276/434 232/316/432
f 157/317/435 235/318/436 236/319/437 158/246/94
f 235/318/438 237/115/115 239/117/117 236/319/439
f 237/115/115 240/320/440 241/321/441 238/116/116
f 240/320/442 242/322/443 243/323/444 241/321/445
f 242/322/443 245/281/446 244/284/378 243/323/447
f 148/84/84 246/324/448 247/325/449 149/85/450
f 246/324/451 248/118/452 250/120/453 247/325/454
f 249/119/119 251/326/455 252/327/456 250/120/120
f 251/326/457 253/328/458 254/329/459 252/327/456
f 253/328/460 256/291/461 255/294/462 254/329/459
f 238/116/463 249/119/464 248/118/118 239/117/465
f 20/330/466 151/331/330 150/256/324 21/136/151
f 26/26/467 156/332/309 160/333/468 27/27/469
f 31/31/470 161/97/471 163/99/99 32/32/472
f 36/334/36 165/101/333 164/100/473 34/335/34
f 39/336/474 168/104/104 167/103/475 37/337/37
f 40/40/476 170/106/106 172/108/477 41/41/478
f 1/1/1 44/147/168 65/127/195 9/9/124
f 8/8/121 23/23/479 15/15/150 2/2/122
f 17/17/17 86/338/480 43/148/481 3/3/3
f 120/62/62 22/137/153 4/4/126 96/339/482
f 95/124/128 7/123/7 11/11/483 98/201/255
f 5/5/484 21/136/485 150/256/486 137/255/73
f 12/12/130 6/125/129 38/38/161 42/143/42
f 39/340/474 5/341/5 137/264/73 168/104/104
f 10/10/135 66/160/487 75/342/488 24/24/489
f 97/343/490 14/129/491 30/30/139 109/57/57
f 13/344/492 41/345/478 172/108/493 143/262/79
f 26/26/26 13/128/494 143/346/495 156/332/496
f 25/25/141 76/130/497 85/135/498 16/16/499
f 19/19/500 28/132/501 35/35/157 33/139/502
f 20/347/20 32/348/472 163/99/99 151/258/87
f 107/227/267 29/133/145 18/18/18 119/228/282
f 36/349/36 27/350/27 160/260/468 165/101/333
f 31/31/155 34/335/34 164/100/503 161/97/327
f 40/40/40 37/337/37 167/103/337 170/106/336
f 44/147/504 46/351/174 64/352/196 65/127/133
f 86/338/505 83/353/226 45/149/171 43/148/481
f 46/351/174 47/185/43 62/184/54 64/352/196
f 83/353/226 81/354/225 48/44/175 45/149/171
f 49/182/45 51/355/506 59/356/189 60/183/507
f 81/354/222 79/357/221 50/152/176 48/44/508
f 51/355/177 52/189/179 57/188/51 59/356/186
f 79/357/221 77/358/217 53/47/236 50/152/176
f 54/186/509 88/195/238 105/209/510 55/187/511
f 77/358/512 130/221/213 87/190/240 53/47/47
f 56/50/184 106/154/181 117/215/200 68/359/513
f 58/156/514 56/50/50 68/359/199 70/360/515
f 61/53/188 58/156/514 70/360/515 72/361/211
f 63/158/516 61/53/517 72/361/211 74/362/210
f 66/160/518 63/158/519 74/362/210 75/342/212
f 67/163/198 118/162/197 129/175/520 78/174/215
f 69/166/205 67/163/521 78/174/522 80/177/224
f 71/168/206 69/166/523 80/177/524 82/179/223
f 73/170/209 71/168/525 82/179/526 84/181/229
f 76/130/497 73/170/209 84/181/229 85/135/149
f 88/195/527 90/194/242 104/207/528 105/209/529
f 130/221/213 127/219/292 89/363/530 87/190/240
f 90/194/531 92/197/245 102/205/265 104/207/532
f 127/219/533 125/217/288 91/364/534 89/363/530
f 92/197/245 94/199/535 100/203/536 102/205/265
f 125/217/537 123/65/65 93/365/248 91/364/244
f 94/199/538 95/124/128 98/201/255 100/203/539
f 123/65/65 120/62/62 96/339/482 93/365/248
f 99/366/258 97/343/490 109/57/57 112/60/60
f 101/367/540 99/366/258 112/60/60 114/211/279
f 103/368/263 101/367/540 114/211/541 116/213/278
f 106/154/181 103/368/263 116/213/542 117/215/200
f 110/223/58 108/230/270 121/229/543 122/224/64
f 113/369/544 111/226/59 124/225/545 126/370/546
f 115/371/277 113/369/274 126/370/547 128/372/290
f 118/162/548 115/371/277 128/372/290 129/175/549
f 131/67/550 140/231/551 194/235/302 173/265/342
f 138/373/552 133/374/553 145/375/316 153/376/306
f 146/82/554 132/251/68 174/377/346 213/378/321
f 247/379/555 223/380/301 134/381/556 149/382/450
f 224/233/299 225/309/423 141/77/77 135/71/71
f 144/261/80 171/107/107 169/105/335 136/263/72
f 139/75/75 155/238/91 204/383/310 193/384/374
f 226/385/424 235/386/557 157/93/435 142/240/307
f 154/90/558 147/244/320 214/248/319 203/243/559
f 152/257/88 162/98/329 166/102/332 159/259/318
f 236/319/439 246/324/560 148/84/84 158/246/94
f 213/378/321 174/377/346 176/387/561 212/388/406
f 173/265/562 194/235/373 191/279/371 175/267/344
f 212/388/406 176/387/561 179/389/353 210/390/563
f 175/267/344 191/279/371 189/113/564 177/109/565
f 210/390/400 179/389/353 181/391/352 208/392/566
f 178/110/567 188/112/112 186/277/366 180/269/568
f 208/392/566 181/391/352 183/393/569 206/394/393
f 180/269/351 186/277/363 184/274/570 182/271/409
f 182/271/355 184/274/362 234/273/571 215/301/413
f 206/394/393 183/393/569 216/395/572 255/396/573
f 187/397/364 197/398/574 195/399/379 185/400/360
f 185/400/360 195/399/379 245/401/446 233/402/575
f 190/403/368 199/404/385 197/398/576 187/397/364
f 192/405/577 201/406/578 199/404/382 190/403/368
f 193/384/374 204/383/310 201/406/578 192/405/577
f 198/286/384 207/295/398 205/292/579 196/283/580
f 196/283/377 205/292/395 256/291/461 244/284/378
f 200/288/581 209/297/401 207/295/396 198/286/381
f 202/290/390 211/299/404 209/297/399 200/288/582
f 203/243/559 214/248/319 211/299/402 202/290/387
f 255/396/583 216/395/411 218/407/584 254/408/585
f 215/301/586 234/273/587 231/315/588 217/303/414
f 254/408/585 218/407/589 220/409/590 252/410/591
f 217/303/414 231/315/431 229/313/428 219/305/416
f 252/410/591 220/409/590 222/411/592 250/412/120
f 219/305/416 229/313/428 227/311/593 221/307/594
f 250/412/120 222/411/419 223/380/421 247/379/449
f 221/307/595 227/311/596 225/309/597 224/233/598
f 228/413/426 237/414/115 235/386/557 226/385/599
f 230/415/600 240/416/601 237/414/115 228/413/602
f 232/417/603 242/418/604 240/416/601 230/415/600
f 233/402/605 245/401/606 242/418/604 232/417/607
f 239/117/117 248/118/118 246/324/448 236/319/608
f 241/321/445 251/326/457 249/119/609 238/116/610
f 243/323/444 253/328/458 251/326/457 241/321/611
f 244/284/378 256/291/461 253/328/460 243/323/612
