# Blender 5.0.1
# www.blender.org
mtllib krabice_zavrena.mtl
o krabice_zavrena
v -0.212758 0.001588 0.209770
v -0.212758 0.013588 0.221770
v -0.224758 0.013588 0.209770
v -0.212758 0.433128 0.221770
v -0.212758 0.445128 0.209770
v -0.224758 0.433128 0.209770
v -0.212758 0.001588 -0.209770
v -0.224758 0.013588 -0.209770
v -0.212758 0.013588 -0.221770
v -0.212758 0.445128 -0.209770
v -0.212758 0.433128 -0.221770
v -0.224758 0.433128 -0.209770
v 0.206782 0.001588 0.209770
v 0.218782 0.013588 0.209770
v 0.206782 0.013588 0.221770
v 0.206782 0.445128 0.209770
v 0.206782 0.433128 0.221770
v 0.218782 0.433128 0.209770
v 0.206782 0.001588 -0.209770
v 0.206782 0.013588 -0.221770
v 0.218782 0.013588 -0.209770
v 0.206782 0.445128 -0.209770
v 0.218782 0.433128 -0.209770
v 0.206782 0.433128 -0.221770
vn -0.0273 -0.9993 0.0274
vn -0.0274 -0.0273 0.9992
vn -0.9992 -0.0274 0.0273
vn -0.0273 0.0274 0.9992
vn -0.0274 0.9993 0.0273
vn -0.9992 0.0273 0.0274
vn -0.0274 -0.9993 -0.0273
vn -0.9992 -0.0273 -0.0274
vn -0.0273 -0.0274 -0.9992
vn -0.0273 0.9993 -0.0274
vn -0.0274 0.0273 -0.9992
vn -0.9992 0.0274 -0.0273
vn 0.0274 -0.9992 0.0273
vn 0.9992 -0.0273 0.0274
vn 0.0273 -0.0274 0.9992
vn 0.0273 0.9993 0.0274
vn 0.0274 0.0273 0.9992
vn 0.9992 0.0274 0.0273
vn 0.0273 -0.9993 -0.0274
vn 0.0274 -0.0273 -0.9993
vn 0.9992 -0.0274 -0.0273
vn 0.0274 0.9993 -0.0273
vn 0.9992 0.0273 -0.0274
vn 0.0273 0.0274 -0.9992
vn -0.0273 -0.9993 -0.0274
vn -0.9993 -0.0273 0.0274
vn -0.9993 -0.0273 -0.0274
vn -0.0273 -0.0274 0.9993
vn -0.0273 0.0274 0.9993
vn -0.9993 0.0274 0.0273
vn -0.9993 -0.0274 0.0273
vn -0.0273 0.9993 0.0274
vn -0.9993 0.0273 -0.0274
vn -0.9993 0.0273 0.0274
vn -0.0273 0.0274 -0.9993
vn -0.0273 -0.0274 -0.9993
vn -0.9993 -0.0274 -0.0273
vn -0.9993 0.0274 -0.0273
vn 0.0274 -0.9993 -0.0273
vn -0.0274 -0.0273 -0.9993
vn -0.0274 0.9993 -0.0273
vn 0.0274 0.0273 -0.9993
vn -0.0274 0.0273 -0.9993
vn 0.9993 0.0274 -0.0273
vn 0.9993 -0.0274 -0.0273
vn 0.0273 -0.0274 -0.9993
vn 0.0273 0.0274 -0.9993
vn 0.0273 -0.9993 0.0274
vn 0.9993 -0.0273 -0.0274
vn 0.9993 -0.0273 0.0274
vn 0.0273 0.9993 -0.0274
vn 0.9993 0.0273 0.0274
vn 0.9993 0.0273 -0.0274
vn 0.0273 0.0274 0.9993
vn 0.0273 -0.0274 0.9993
vn 0.9993 -0.0274 0.0273
vn 0.9993 0.0274 0.0273
vn -0.0274 -0.9993 0.0273
vn 0.0274 -0.9993 0.0273
vn 0.0274 -0.0273 0.9993
vn -0.0274 -0.0273 0.9993
vn 0.0274 0.9993 0.0273
vn -0.0274 0.0273 0.9993
vn 0.0274 0.0273 0.9993
vn -0.0274 -0.9992 -0.0274
vn 0.0274 -0.9992 -0.0274
vn 0.0274 -0.9992 0.0274
vn -0.0274 -0.9992 0.0274
vn -0.9992 -0.0274 0.0274
vn -0.9992 0.0274 0.0274
vn -0.9992 0.0274 -0.0274
vn -0.9992 -0.0274 -0.0274
vn 0.0274 -0.0274 0.9992
vn 0.0274 0.0274 0.9992
vn -0.0274 0.0274 0.9992
vn -0.0274 -0.0274 0.9992
vn 0.0274 0.9992 -0.0274
vn -0.0274 0.9992 -0.0274
vn -0.0274 0.9992 0.0274
vn 0.0274 0.9992 0.0274
vn -0.0274 -0.0274 -0.9992
vn -0.0274 0.0274 -0.9992
vn 0.0274 0.0274 -0.9992
vn 0.0274 -0.0274 -0.9992
vn 0.9992 -0.0274 -0.0274
vn 0.9992 0.0274 -0.0274
vn 0.9992 0.0274 0.0274
vn 0.9992 -0.0274 0.0274
vt 0.009018 0.675685
vt 0.000000 0.675685
vt 0.009018 0.666667
vt 0.333333 0.990982
vt 0.342352 0.990982
vt 0.342352 1.000000
vt 0.324315 0.675685
vt 0.324315 0.666667
vt 0.328824 0.666667
vt 0.657648 0.990982
vt 0.666667 0.990982
vt 0.657648 1.000000
vt 0.009018 0.990982
vt 0.009018 1.000000
vt 0.000000 0.990982
vt 0.342352 0.675685
vt 0.336339 0.669673
vt 0.342352 0.666667
vt 0.324315 0.990982
vt 0.333333 0.990982
vt 0.324315 1.000000
vt 0.657648 0.675685
vt 0.657648 0.666667
vt 0.666667 0.675685
vt 0.657648 0.342352
vt 0.342352 0.342352
vt 0.342352 0.333333
vt 0.657648 0.333333
vt 0.009018 0.657648
vt 0.009018 0.666667
vt 0.342352 0.324315
vt 0.657648 0.324315
vt 0.657648 0.333333
vt 0.342352 0.333333
vt 0.342352 -0.000000
vt 0.657648 0.000000
vt 0.657648 0.009018
vt 0.342352 0.009018
vt 0.324315 0.324315
vt 0.009018 0.324315
vt 0.009018 0.009018
vt 0.324315 0.009018
vt 0.657648 0.657648
vt 0.009018 0.342352
vt 0.324315 0.342352
s 0
f 1/1/1 2/2/2 3/3/3
f 4/4/4 5/5/5 6/6/6
f 7/7/7 8/8/8 9/9/9
f 10/10/10 11/11/11 12/12/12
f 13/13/13 14/14/14 15/15/15
f 16/16/16 17/17/17 18/18/18
f 19/19/19 20/20/20 21/21/21
f 22/22/22 23/23/23 24/24/24
f 7/7/25 1/1/1 3/3/26 8/8/27
f 2/25/28 4/26/29 6/27/30 3/28/31
f 5/5/32 10/10/10 12/12/33 6/6/34
f 11/29/35 9/9/36 8/8/37 12/30/38
f 19/19/39 7/7/7 9/9/40 20/20/20
f 10/10/41 22/22/22 24/24/42 11/11/43
f 23/31/44 21/32/45 20/33/46 24/34/47
f 13/13/48 19/19/19 21/21/49 14/14/50
f 22/22/51 16/16/16 18/18/52 23/23/53
f 17/35/54 15/36/55 14/37/56 18/38/57
f 1/1/58 13/13/59 15/15/60 2/2/61
f 16/16/62 5/5/5 4/4/63 17/17/64
f 7/7/65 19/19/66 13/13/67 1/1/68
f 3/39/69 6/40/70 12/41/71 8/42/72
f 15/43/73 17/17/74 4/26/75 2/25/76
f 22/22/77 10/10/78 5/5/79 16/16/80
f 9/9/81 11/29/82 24/44/83 20/45/84
f 21/32/85 23/31/86 18/38/87 14/37/88
