# Blender 5.0.1
# www.blender.org
mtllib tlacitko.mtl
o Cube.033
v 0.018131 0.938576 -0.001249
v 0.018131 -0.018320 -0.001249
v -0.360540 0.795761 -0.001249
v -0.277319 0.795761 -0.279695
v 0.018131 0.795761 -0.390622
v 0.283463 0.795761 -0.301580
v 0.356012 0.795761 -0.001249
v 0.278324 0.795761 0.296172
v 0.018131 0.795761 0.345008
v -0.263525 0.795761 0.292143
v 0.019005 0.870213 0.260433
v -0.248739 0.795761 -0.003055
v -0.177122 0.795761 -0.196920
v 0.010712 0.795761 -0.254247
v 0.193935 0.795761 -0.183879
v 0.246889 0.795761 -0.002623
v 0.192081 0.795761 0.190440
v 0.017057 0.795761 0.236636
v -0.179604 0.795761 0.195972
v -0.404531 -0.018320 0.421414
v -0.404531 -0.000909 0.438825
v -0.421944 -0.000909 0.421414
v -0.176481 0.813173 0.194507
v -0.170870 0.795761 0.186186
v -0.421944 -0.000909 -0.423912
v -0.404531 -0.000909 -0.441324
v -0.404531 -0.018320 -0.423912
v -0.174946 0.813173 -0.196379
v -0.167747 0.795761 -0.187851
v 0.458206 -0.000909 0.421414
v 0.440794 -0.000909 0.438825
v 0.440794 -0.018320 0.421414
v 0.185789 0.813173 0.187493
v 0.181040 0.795761 0.178176
v 0.440794 -0.000909 -0.441324
v 0.458206 -0.000909 -0.423912
v 0.440794 -0.018320 -0.423912
v 0.192413 0.813173 -0.182042
v 0.184507 0.795761 -0.173689
v -0.421944 0.778350 0.421414
v -0.404531 0.778350 0.438825
v -0.405479 0.795761 0.423580
v -0.406395 0.795761 -0.423945
v -0.404531 0.778350 -0.441324
v -0.421944 0.778350 -0.423912
v 0.437847 0.795761 -0.425043
v 0.458206 0.778350 -0.423912
v 0.440794 0.778350 -0.441324
v 0.438393 0.795761 0.423112
v 0.440794 0.778350 0.438825
v 0.458206 0.778350 0.421414
v -0.421944 -0.000909 -0.001249
v -0.404531 -0.018320 -0.001249
v -0.421944 0.778350 -0.001249
v -0.405882 0.795761 -0.001249
v 0.458206 -0.000909 -0.001249
v 0.440794 -0.018320 -0.001249
v 0.458206 0.778350 -0.001249
v 0.438223 0.795761 -0.001249
v -0.248842 0.813173 -0.005918
v -0.236712 0.795761 -0.003353
v 0.246609 0.813173 -0.002463
v 0.234756 0.795761 -0.002946
v 0.018131 -0.000909 -0.441324
v 0.018131 -0.018320 -0.423912
v 0.018131 0.778350 -0.441324
v 0.018131 0.795761 -0.424472
v 0.018131 -0.000909 0.438825
v 0.018131 -0.018320 0.421414
v 0.018131 0.778350 0.438825
v 0.018131 0.795761 0.423271
v 0.011749 0.813173 -0.254718
v 0.010059 0.795761 -0.241267
v 0.016464 0.795761 0.225283
v 0.018131 0.813173 0.241620
v 0.265108 0.870213 -0.002481
v -0.268564 0.870213 -0.006201
v 0.012131 0.870213 -0.274196
v -0.188967 0.870213 -0.211356
v 0.206732 0.870213 -0.195912
v 0.199596 0.870213 0.202130
v -0.190620 0.870213 0.209684
v 0.246609 0.921164 -0.002463
v 0.233168 0.938576 -0.002142
v -0.248842 0.921164 -0.005918
v -0.235767 0.938576 -0.002686
v 0.011749 0.921164 -0.254718
v 0.012129 0.938576 -0.242076
v 0.018131 0.921164 0.241620
v 0.018131 0.938576 0.223710
v -0.174946 0.921164 -0.196379
v -0.166672 0.938576 -0.188135
v 0.192413 0.921164 -0.182042
v 0.181955 0.938576 -0.176210
v 0.185789 0.921164 0.187493
v 0.180256 0.938576 0.177082
v -0.176481 0.921164 0.194507
v -0.170523 0.938576 0.184555
vn -0.0000 1.0000 -0.0000
vn -0.0388 -0.9985 0.0388
vn -0.0391 -0.0214 0.9990
vn -0.9990 -0.0214 0.0391
vn -0.9990 -0.0214 -0.0391
vn -0.0391 -0.0214 -0.9990
vn -0.0387 -0.9985 -0.0388
vn 0.9990 -0.0214 0.0391
vn 0.0391 -0.0214 0.9990
vn 0.0387 -0.9985 0.0388
vn 0.0391 -0.0214 -0.9990
vn 0.9990 -0.0214 -0.0391
vn 0.0388 -0.9985 -0.0387
vn -0.9990 0.0200 0.0392
vn -0.0391 0.0189 0.9991
vn -0.0838 0.9930 0.0837
vn -0.0895 0.9919 -0.0897
vn -0.0391 0.0210 -0.9990
vn -0.9990 0.0195 -0.0391
vn 0.0820 0.9933 -0.0816
vn 0.9989 0.0248 -0.0392
vn 0.0391 0.0204 -0.9990
vn 0.0762 0.9942 0.0758
vn 0.0392 0.0192 0.9990
vn 0.9989 0.0245 0.0391
vn -0.0396 -0.9992 -0.0000
vn -0.9998 -0.0219 -0.0000
vn -0.1729 0.9849 0.0001
vn -0.9998 0.0202 -0.0001
vn -0.0000 -0.9992 -0.0396
vn -0.0000 -0.0219 -0.9998
vn -0.0001 0.9836 -0.1804
vn -0.0000 0.0212 -0.9998
vn 0.0396 -0.9992 -0.0000
vn 0.9998 -0.0219 -0.0000
vn 0.1350 0.9908 -0.0000
vn 0.9997 0.0252 0.0001
vn -0.0000 -0.9992 0.0395
vn 0.0001 -0.0219 0.9998
vn 0.0001 0.9866 0.1634
vn 0.0001 0.0195 0.9998
vn -0.9261 -0.3772 -0.0041
vn -0.6328 -0.4015 -0.6621
vn -0.6918 0.0367 -0.7211
vn -0.9966 0.0828 -0.0060
vn 0.0360 -0.3897 -0.9203
vn 0.6715 -0.3964 -0.6261
vn 0.7284 0.0619 -0.6824
vn 0.0395 0.0395 -0.9984
vn 0.9330 -0.3596 0.0159
vn 0.6686 -0.3992 0.6273
vn 0.7214 0.1178 0.6824
vn 0.9897 0.1425 0.0138
vn 0.0181 -0.3926 0.9195
vn -0.6212 -0.4033 0.6719
vn -0.6750 0.0293 0.7372
vn 0.0209 -0.0425 0.9989
vn -0.0700 0.9975 -0.0005
vn -0.0846 0.9925 -0.0882
vn -0.6216 0.4370 -0.6501
vn -0.9094 0.4159 -0.0043
vn 0.0026 0.9975 -0.0703
vn 0.0982 0.9910 -0.0910
vn 0.6621 0.4272 -0.6157
vn 0.0350 0.4102 -0.9113
vn 0.0777 0.9970 0.0009
vn 0.0966 0.9911 0.0911
vn 0.6543 0.4419 0.6137
vn 0.9147 0.4039 0.0150
vn 0.0014 0.9975 0.0706
vn -0.0822 0.9925 0.0903
vn -0.6064 0.4478 0.6571
vn 0.0176 0.4377 0.8989
vn -0.0000 -1.0000 -0.0000
vn 0.0194 -0.0000 0.9998
vn -0.6799 -0.0000 0.7333
vn -1.0000 -0.0000 -0.0039
vn -0.6905 -0.0000 -0.7233
vn 0.0390 -0.0000 -0.9992
vn 0.9998 -0.0000 0.0179
vn 0.7301 -0.0000 0.6834
vn 0.7319 -0.0000 -0.6814
vt 0.832604 0.624639
vt 0.814494 0.564044
vt 0.833921 0.545909
vt 0.857559 0.625000
vt 0.749553 0.539662
vt 0.694685 0.558075
vt 0.674634 0.539693
vt 0.750000 0.514401
vt 0.678573 0.624773
vt 0.696643 0.685119
vt 0.676094 0.709480
vt 0.654027 0.625000
vt 0.750000 0.699130
vt 0.811809 0.687529
vt 0.830003 0.708336
vt 0.750000 0.723352
vt 0.129946 0.745054
vt 0.129946 0.750000
vt 0.125000 0.745054
vt 0.125000 0.504946
vt 0.129946 0.500000
vt 0.129946 0.504946
vt 0.379010 0.745054
vt 0.375201 0.752473
vt 0.370054 0.745054
vt 0.375201 0.497527
vt 0.379010 0.504946
vt 0.370054 0.504946
vt 0.619653 0.004946
vt 0.619653 0.000000
vt 0.625000 0.004330
vt 0.625000 0.248182
vt 0.619653 0.253709
vt 0.619653 0.245054
vt 0.628470 0.500462
vt 0.619653 0.503709
vt 0.619653 0.495054
vt 0.628377 0.749573
vt 0.619653 0.754946
vt 0.619653 0.746291
vt 0.129946 0.625000
vt 0.125000 0.625000
vt 0.380347 0.000000
vt 0.380347 0.004946
vt 0.625000 0.125000
vt 0.619653 0.125000
vt 0.380347 0.254946
vt 0.380347 0.245054
vt 0.250000 0.504946
vt 0.250000 0.500000
vt 0.625000 0.375000
vt 0.619653 0.375000
vt 0.370054 0.625000
vt 0.380347 0.625000
vt 0.630676 0.625000
vt 0.619653 0.625000
vt 0.250000 0.745054
vt 0.250000 0.750000
vt 0.625000 0.875000
vt 0.625000 0.995323
vt 0.619653 0.995054
vt 0.619653 0.875000
vt 0.825832 0.623674
vt 0.808632 0.569259
vt 0.814411 0.564122
vt 0.832546 0.624638
vt 0.749602 0.546687
vt 0.700180 0.564171
vt 0.694848 0.558224
vt 0.749550 0.539817
vt 0.685103 0.624655
vt 0.703326 0.678927
vt 0.697429 0.684187
vt 0.678828 0.624771
vt 0.750000 0.693985
vt 0.805910 0.681550
vt 0.811804 0.687523
vt 0.750000 0.699183
vt 0.700180 0.564171
vt 0.749601 0.546687
vt 0.822118 0.624592
vt 0.806282 0.571601
vt 0.808632 0.569259
vt 0.749494 0.550278
vt 0.703151 0.565828
vt 0.700180 0.564171
vt 0.749601 0.546686
vt 0.688920 0.624746
vt 0.704897 0.675970
vt 0.703325 0.678927
vt 0.685103 0.624655
vt 0.750000 0.688898
vt 0.804218 0.678724
vt 0.805910 0.681551
vt 0.700180 0.564171
vt 0.749601 0.546686
vt 0.703325 0.678927
vt 0.250000 0.625000
vt 0.380347 0.125000
vt 0.380347 0.875000
vt 0.380347 0.995054
vt 0.805910 0.681550
vt 0.825832 0.623674
vt 0.380347 0.375000
vt 0.749601 0.546687
vt 0.685103 0.624655
vt 0.703326 0.678927
vt 0.700180 0.564171
vt 0.870323 0.745670
vt 0.750000 0.745582
vt 0.870438 0.625000
vt 0.870583 0.504936
vt 0.750000 0.504786
vt 0.750000 0.625000
s 1
usemtl Tlacitko
f 60/63/42 28/64/43 29/65/44 61/66/45
f 72/67/46 38/68/47 39/69/48 73/70/49
f 62/71/50 33/72/51 34/73/52 63/74/53
f 75/75/54 23/76/55 24/77/56 74/78/57
f 23/76/55 60/63/42 61/66/45 24/77/56
f 38/79/47 62/71/50 63/74/53 39/69/48
f 28/64/43 72/80/46 73/70/49 29/65/44
f 33/72/51 75/75/54 74/78/57 34/73/52
f 86/81/58 92/82/59 91/83/60 85/63/61
f 88/84/62 94/85/63 93/86/64 87/87/65
f 84/88/66 96/89/67 95/90/68 83/91/69
f 90/92/70 98/93/71 97/94/72 89/75/73
f 98/93/71 86/81/58 85/63/61 97/94/72
f 94/85/63 84/88/66 83/91/69 93/95/64
f 92/82/59 88/84/62 87/96/65 91/83/60
f 96/89/67 90/92/70 89/75/73 95/97/68
f 23/76/55 75/75/54 11/75/75 82/102/76
f 60/63/42 23/76/55 82/102/76 77/103/77
f 28/64/43 60/63/42 77/103/77 79/83/78
f 72/80/46 28/64/43 79/83/78 78/105/79
f 33/72/51 62/71/50 76/106/80 81/107/81
f 75/75/54 33/72/51 81/107/81 11/75/75
f 62/71/50 38/79/47 80/108/82 76/106/80
f 38/68/47 72/67/46 78/105/79 80/108/82
f 81/107/81 76/106/80 83/91/69 95/90/68
f 76/106/80 80/108/82 93/95/64 83/91/69
f 79/83/78 77/103/77 85/63/61 91/83/60
f 77/103/77 82/102/76 97/94/72 85/63/61
f 78/105/79 79/83/78 91/83/60 87/96/65
f 80/108/82 78/105/79 87/87/65 93/86/64
f 11/75/75 81/107/81 95/97/68 89/75/73
f 82/102/76 11/75/75 89/75/73 97/94/72
f 94/85/63 88/84/62 1/114/1 84/88/66
f 84/88/66 1/114/1 90/92/70 96/89/67
f 88/84/62 92/82/59 86/81/58 1/114/1
f 1/114/1 86/81/58 98/93/71 90/92/70
usemtl BaseTlacitko
f 12/1/1 13/2/1 4/3/1 3/4/1
f 14/5/1 15/6/1 6/7/1 5/8/1
f 16/9/1 17/10/1 8/11/1 7/12/1
f 18/13/1 19/14/1 10/15/1 9/16/1
f 19/14/1 12/1/1 3/4/1 10/15/1
f 15/6/1 16/9/1 7/12/1 6/7/1
f 13/2/1 14/5/1 5/8/1 4/3/1
f 17/10/1 18/13/1 9/16/1 8/11/1
f 20/17/2 21/18/3 22/19/4
f 25/20/5 26/21/6 27/22/7
f 30/23/8 31/24/9 32/25/10
f 35/26/11 36/27/12 37/28/13
f 40/29/14 41/30/15 42/31/16
f 43/32/17 44/33/18 45/34/19
f 46/35/20 47/36/21 48/37/22
f 49/38/23 50/39/24 51/40/25
f 53/41/26 20/17/2 22/19/4 52/42/27
f 21/43/3 41/30/15 40/29/14 22/44/4
f 55/45/28 43/32/17 45/34/19 54/46/29
f 44/33/18 26/47/6 25/48/5 45/34/19
f 65/49/30 27/22/7 26/21/6 64/50/31
f 67/51/32 46/35/20 48/37/22 66/52/33
f 47/36/21 36/27/12 35/26/11 48/37/22
f 57/53/34 37/28/13 36/27/12 56/54/35
f 59/55/36 49/38/23 51/40/25 58/56/37
f 50/39/24 31/24/9 30/23/8 51/40/25
f 69/57/38 32/25/10 31/24/9 68/58/39
f 71/59/40 42/60/16 41/61/15 70/62/41
f 27/22/7 53/41/26 52/42/27 25/20/5
f 42/31/16 55/45/28 54/46/29 40/29/14
f 32/25/10 57/53/34 56/54/35 30/23/8
f 46/35/20 59/55/36 58/56/37 47/36/21
f 37/28/13 65/49/30 64/50/31 35/26/11
f 43/32/17 67/51/32 66/52/33 44/33/18
f 20/17/2 69/57/38 68/58/39 21/18/3
f 49/38/23 71/59/40 70/62/41 50/39/24
f 53/41/26 2/98/74 69/57/38 20/17/2
f 22/44/4 40/29/14 54/46/29 52/99/27
f 68/100/39 70/62/41 41/61/15 21/101/3
f 24/77/56 61/66/45 12/1/1 19/14/1
f 74/78/57 24/77/56 19/14/1 18/13/1
f 26/47/6 44/33/18 66/52/33 64/104/31
f 27/22/7 65/49/30 2/98/74 53/41/26
f 52/99/27 54/46/29 45/34/19 25/48/5
f 61/66/45 29/65/44 13/2/1 12/1/1
f 29/65/44 73/70/49 14/5/1 13/2/1
f 31/24/9 50/39/24 70/62/41 68/100/39
f 2/98/74 57/53/34 32/25/10 69/57/38
f 56/54/35 58/56/37 51/40/25 30/23/8
f 63/74/53 34/73/52 17/10/1 16/9/1
f 34/73/52 74/78/57 18/13/1 17/10/1
f 36/27/12 47/36/21 58/56/37 56/54/35
f 65/49/30 37/28/13 57/53/34 2/98/74
f 64/104/31 66/52/33 48/37/22 35/26/11
f 39/69/48 63/74/53 16/9/1 15/6/1
f 73/70/49 39/69/48 15/6/1 14/5/1
f 9/16/1 10/15/1 42/109/16 71/110/40
f 10/15/1 3/4/1 55/111/28 42/109/16
f 3/4/1 4/3/1 43/112/17 55/111/28
f 4/3/1 5/8/1 67/113/32 43/112/17
f 5/8/1 6/7/1 46/35/20 67/113/32
f 6/7/1 7/12/1 59/55/36 46/35/20
f 7/12/1 8/11/1 49/38/23 59/55/36
f 8/11/1 9/16/1 71/110/40 49/38/23
