# Blender 5.0.1
# www.blender.org
mtllib SloupGradient.mtl
o SloupGradient
v -0.230667 0.022136 0.342701
v -0.250668 0.022136 0.322701
v -0.228243 0.002136 0.322701
v -0.250668 0.022136 -0.337297
v -0.230667 0.022136 -0.357298
v -0.228243 0.002136 -0.337297
v 0.249332 0.022136 0.322701
v 0.229332 0.022136 0.342701
v 0.226908 0.002136 0.322701
v 0.229332 0.022136 -0.357298
v 0.249332 0.022136 -0.337297
v 0.226908 0.002136 -0.337297
v -0.250668 0.022136 0.274740
v -0.234823 0.022136 0.242535
v -0.228146 0.002136 0.254740
v -0.250668 0.022136 -0.289335
v -0.228146 0.002136 -0.269335
v -0.234823 0.022136 -0.257130
v 0.249332 0.022136 -0.289335
v 0.233488 0.022136 -0.257130
v 0.226810 0.002136 -0.269335
v 0.249332 0.022136 0.274740
v 0.226810 0.002136 0.254740
v 0.233488 0.022136 0.242535
v -0.155967 0.022136 0.181787
v -0.140122 0.022136 0.149582
v -0.117479 0.002136 0.169582
v -0.155967 0.022136 -0.196383
v -0.117479 0.002136 -0.184177
v -0.140122 0.022136 -0.164177
v 0.154632 0.022136 -0.196383
v 0.138787 0.022136 -0.164177
v 0.116144 0.002136 -0.184177
v 0.154632 0.022136 0.181787
v 0.116144 0.002136 0.169582
v 0.138787 0.022136 0.149582
v -0.250668 1.337919 -0.289335
v -0.234823 1.337919 -0.257130
v -0.228146 1.357919 -0.269335
v -0.250668 1.337919 -0.337297
v -0.228243 1.357919 -0.337297
v -0.230667 1.337919 -0.357298
v 0.229332 1.337919 -0.357298
v 0.226908 1.357919 -0.337297
v 0.249332 1.337919 -0.337297
v 0.249332 1.337919 0.274740
v 0.233488 1.337919 0.242535
v 0.226810 1.357919 0.254740
v 0.249332 1.337919 0.322701
v 0.226908 1.357919 0.322701
v 0.229332 1.337919 0.342701
v -0.230667 1.337919 0.342701
v -0.228243 1.357919 0.322701
v -0.250668 1.337919 0.322701
v -0.250668 1.337919 0.274740
v -0.228146 1.357919 0.254740
v -0.234823 1.337919 0.242535
v -0.155967 1.337919 -0.196383
v -0.140122 1.337919 -0.164177
v -0.117479 1.357919 -0.184177
v 0.249332 1.337919 -0.289335
v 0.226810 1.357919 -0.269335
v 0.233488 1.337919 -0.257130
v 0.154632 1.337919 0.181787
v 0.138787 1.337919 0.149582
v 0.116144 1.357919 0.169582
v -0.155967 1.337919 0.181787
v -0.117479 1.357919 0.169582
v -0.140122 1.337919 0.149582
v 0.154632 1.337919 -0.196383
v 0.116144 1.357919 -0.184177
v 0.138787 1.337919 -0.164177
vn -0.0414 -0.0146 0.9990
vn -0.9598 -0.0161 0.2803
vn -0.0318 -0.9752 0.2191
vn -0.9598 -0.0161 -0.2803
vn -0.0413 -0.0146 -0.9990
vn -0.0318 -0.9752 -0.2191
vn 0.9598 -0.0161 0.2804
vn 0.0413 -0.0146 0.9990
vn 0.0318 -0.9752 0.2192
vn 0.0414 -0.0146 -0.9990
vn 0.9598 -0.0161 -0.2803
vn 0.0318 -0.9752 -0.2191
vn -0.9812 -0.0138 -0.1927
vn -0.6998 -0.0104 -0.7143
vn -0.0463 -0.9984 -0.0323
vn -0.9812 -0.0138 0.1927
vn -0.0463 -0.9984 0.0324
vn -0.6998 -0.0104 0.7143
vn 0.9812 -0.0138 0.1927
vn 0.6998 -0.0104 0.7143
vn 0.0464 -0.9984 0.0323
vn 0.9812 -0.0138 -0.1927
vn 0.0463 -0.9984 -0.0324
vn 0.6998 -0.0104 -0.7143
vn -0.6998 -0.0123 -0.7143
vn -0.9988 -0.0175 -0.0454
vn -0.0693 -0.9975 -0.0168
vn -0.6998 -0.0122 0.7143
vn -0.0693 -0.9975 0.0168
vn -0.9988 -0.0175 0.0454
vn 0.6997 -0.0122 0.7143
vn 0.9988 -0.0175 0.0454
vn 0.0693 -0.9975 0.0168
vn 0.6998 -0.0123 -0.7143
vn 0.0693 -0.9975 -0.0168
vn 0.9988 -0.0175 -0.0454
vn -0.9812 0.0138 0.1927
vn -0.6998 0.0104 0.7143
vn -0.0464 0.9984 0.0323
vn -0.9598 0.0161 -0.2803
vn -0.0318 0.9752 -0.2192
vn -0.0414 0.0146 -0.9990
vn 0.0413 0.0146 -0.9990
vn 0.0318 0.9752 -0.2192
vn 0.9598 0.0161 -0.2803
vn 0.9812 0.0138 -0.1927
vn 0.6998 0.0104 -0.7143
vn 0.0463 0.9984 -0.0323
vn 0.9598 0.0161 0.2804
vn 0.0318 0.9752 0.2191
vn 0.0414 0.0146 0.9990
vn -0.0413 0.0146 0.9990
vn -0.0318 0.9752 0.2192
vn -0.9598 0.0161 0.2803
vn -0.9812 0.0138 -0.1927
vn -0.0463 0.9984 -0.0324
vn -0.6998 0.0104 -0.7143
vn -0.6998 0.0123 0.7143
vn -0.9988 0.0175 0.0454
vn -0.0693 0.9975 0.0168
vn 0.9812 0.0138 0.1927
vn 0.0463 0.9984 0.0324
vn 0.6998 0.0104 0.7143
vn 0.6998 0.0122 -0.7143
vn 0.9988 0.0175 -0.0454
vn 0.0693 0.9975 -0.0168
vn -0.6998 0.0122 -0.7143
vn -0.0693 0.9975 -0.0168
vn -0.9988 0.0175 -0.0454
vn 0.6998 0.0122 0.7143
vn 0.0693 0.9975 0.0168
vn 0.9988 0.0175 0.0454
vn -0.0318 -0.9752 -0.2192
vn -0.0414 -0.0145 -0.9990
vn 0.0414 -0.0145 -0.9990
vn -0.0319 -0.9752 -0.2192
vn 0.9598 -0.0161 0.2803
vn 0.0414 -0.0145 0.9990
vn -0.0414 -0.0145 0.9990
vn 0.0319 -0.9752 0.2192
vn -0.9597 -0.0161 0.2804
vn -0.0463 -0.9984 -0.0324
vn -0.6997 -0.0104 0.7143
vn -0.0462 -0.9984 0.0324
vn 0.0463 -0.9984 0.0324
vn 0.6998 -0.0122 -0.7143
vn 0.0462 -0.9984 -0.0324
vn -0.6997 -0.0122 -0.7143
vn -0.9988 -0.0174 -0.0453
vn -0.9988 -0.0174 0.0454
vn -0.0693 -0.9975 -0.0169
vn 0.9988 -0.0174 0.0453
vn 0.9988 -0.0174 -0.0454
vn 0.0693 -0.9975 0.0169
vn -0.0463 0.9984 0.0324
vn -0.0318 0.9752 -0.2191
vn -0.9597 0.0161 -0.2804
vn 0.0319 0.9752 -0.2192
vn 0.0414 0.0145 -0.9990
vn -0.0414 0.0145 -0.9990
vn 0.0462 0.9984 -0.0324
vn 0.9597 0.0161 0.2804
vn -0.0319 0.9752 0.2192
vn -0.0414 0.0145 0.9990
vn 0.0414 0.0145 0.9990
vn -0.0462 0.9984 -0.0324
vn -0.6997 0.0122 0.7143
vn 0.0463 0.9984 -0.0324
vn 0.6997 0.0122 -0.7143
vn -0.6997 0.0104 -0.7143
vn -0.0693 0.9975 0.0169
vn -0.9988 0.0174 0.0453
vn -0.9988 0.0174 -0.0454
vn 0.6997 0.0104 0.7143
vn 0.0693 0.9975 -0.0169
vn 0.9988 0.0174 -0.0453
vn 0.9988 0.0174 0.0454
vn -0.0413 -0.0146 0.9990
vn -0.9598 0.0162 0.2803
vn -0.9598 -0.0162 0.2803
vn -0.6998 0.0104 -0.7142
vn -0.6998 -0.0104 -0.7142
vn -0.6998 -0.0122 -0.7142
vn -0.6998 0.0122 -0.7142
vn -0.9988 -0.0174 -0.0454
vn -0.6998 0.0122 0.7142
vn -0.6998 -0.0122 0.7142
vn -0.9988 0.0174 0.0454
vn -0.9598 -0.0162 -0.2803
vn -0.9598 0.0162 -0.2803
vn -0.0413 0.0146 -0.9990
vn 0.9598 0.0162 -0.2803
vn 0.9598 -0.0162 -0.2803
vn 0.0413 -0.0146 -0.9990
vn -0.6998 -0.0104 0.7142
vn -0.6998 0.0104 0.7142
vn 0.9811 -0.0138 0.1928
vn 0.9811 0.0138 0.1928
vn 0.9988 -0.0174 0.0454
vn 0.6998 -0.0122 0.7142
vn 0.6998 0.0122 0.7142
vn 0.9811 0.0138 -0.1928
vn 0.9811 -0.0138 -0.1928
vn 0.0413 0.0146 0.9990
vn 0.9598 -0.0162 0.2803
vn 0.9598 0.0162 0.2803
vn 0.6998 0.0122 -0.7142
vn 0.6998 -0.0122 -0.7142
vn 0.9988 0.0174 -0.0454
vn 0.0318 -0.9752 0.2191
vn 0.9598 0.0161 0.2803
vn 0.9812 -0.0138 0.1926
vn 0.9812 0.0138 0.1926
vn -0.6997 0.0122 -0.7143
vn -0.6997 -0.0122 0.7143
vn 0.6997 0.0122 0.7143
vn 0.6997 -0.0122 -0.7143
vn 0.0318 0.9752 -0.2191
vn -0.0318 0.9752 0.2191
vt 0.670421 0.982420
vt 0.684982 0.982420
vt 0.668655 0.996981
vt 0.320946 0.982420
vt 0.335509 0.982420
vt 0.337273 0.996981
vt 0.673447 0.982420
vt 0.668585 0.996981
vt 0.332482 0.982420
vt 0.337344 0.996981
vt 0.616034 0.982420
vt 0.604498 0.982420
vt 0.588012 0.996981
vt 0.389896 0.982420
vt 0.401432 0.982420
vt 0.417917 0.996981
vt 0.684982 0.024435
vt 0.673447 0.024435
vt 0.668585 0.009874
vt 0.668656 0.009874
vt 0.670421 0.024435
vt 0.335509 0.024435
vt 0.337273 0.009874
vt 0.320946 0.024435
vt 0.332482 0.024435
vt 0.337345 0.009874
vt 0.616034 0.024435
vt 0.604498 0.024435
vt 0.588012 0.009874
vt 0.389896 0.024435
vt 0.401432 0.024435
vt 0.417917 0.009874
s 0
usemtl Material
f 1/1/1 2/2/2 3/3/3
f 4/2/4 5/1/5 6/3/6
f 7/4/7 8/5/8 9/6/9
f 10/5/10 11/4/11 12/6/12
f 13/2/13 14/7/14 15/8/15
f 16/2/16 17/8/17 18/7/18
f 19/4/19 20/9/20 21/10/21
f 22/4/22 23/10/23 24/9/24
f 25/11/25 26/12/26 27/13/27
f 28/11/28 29/13/29 30/12/30
f 31/14/31 32/15/32 33/16/33
f 34/14/34 35/16/35 36/15/36
f 37/17/37 38/18/38 39/19/39
f 40/17/40 41/20/41 42/21/42
f 43/22/43 44/23/44 45/24/45
f 46/24/46 47/25/47 48/26/48
f 49/24/49 50/23/50 51/22/51
f 52/21/52 53/20/53 54/17/54
f 55/17/55 56/19/56 57/18/57
f 58/27/58 59/28/59 60/29/60
f 61/24/61 62/26/62 63/25/63
f 64/30/64 65/31/65 66/32/66
f 67/27/67 68/29/68 69/28/69
f 70/30/70 71/32/71 72/31/72
f 16/2/16 4/2/4 6/3/73 17/8/17
f 5/1/74 10/5/75 12/6/12 6/3/76
f 22/4/22 7/4/77 9/6/9 23/10/23
f 8/5/78 1/1/79 3/3/3 9/6/80
f 2/2/81 13/2/13 15/8/82 3/3/3
f 28/11/28 18/7/83 17/8/84 29/13/29
f 11/4/11 19/4/19 21/10/85 12/6/12
f 34/14/86 24/9/24 23/10/87 35/16/35
f 14/7/14 25/11/88 27/13/27 15/8/82
f 26/12/89 30/12/90 29/13/29 27/13/91
f 20/9/20 31/14/31 33/16/33 21/10/85
f 32/15/92 36/15/93 35/16/35 33/16/94
f 39/19/95 41/20/96 40/17/97 37/17/37
f 41/20/96 44/23/98 43/22/99 42/21/100
f 48/26/101 50/23/50 49/24/102 46/24/46
f 50/23/50 53/20/103 52/21/104 51/22/105
f 53/20/53 56/19/106 55/17/55 54/17/54
f 60/29/60 39/19/95 38/18/38 58/27/107
f 44/23/44 62/26/62 61/24/61 45/24/45
f 66/32/66 48/26/108 47/25/47 64/30/109
f 56/19/106 68/29/68 67/27/67 57/18/110
f 68/29/68 60/29/111 59/28/112 69/28/113
f 62/26/62 71/32/71 70/30/70 63/25/114
f 71/32/71 66/32/115 65/31/116 72/31/117
f 1/1/118 52/21/52 54/17/119 2/2/120
f 57/18/121 14/7/122 13/2/13 55/17/55
f 25/11/123 67/27/124 69/28/113 26/12/125
f 58/27/126 28/11/127 30/12/90 59/28/128
f 4/2/129 40/17/130 42/21/131 5/1/5
f 45/24/132 11/4/133 10/5/134 43/22/43
f 37/17/37 16/2/16 18/7/135 38/18/136
f 19/4/137 61/24/138 63/25/63 20/9/20
f 72/31/117 32/15/139 31/14/140 70/30/141
f 24/9/24 47/25/47 46/24/142 22/4/143
f 51/22/144 8/5/8 7/4/145 49/24/146
f 64/30/147 34/14/148 36/15/93 65/31/149
f 1/1/118 8/5/8 51/22/144 52/21/52
f 23/10/23 9/6/150 3/3/3 15/8/82
f 13/2/13 2/2/2 54/17/54 55/17/55
f 4/2/4 16/2/16 37/17/37 40/17/40
f 12/6/12 21/10/85 17/8/17 6/3/6
f 10/5/134 5/1/5 42/21/131 43/22/43
f 7/4/77 22/4/22 46/24/46 49/24/151
f 19/4/152 11/4/11 45/24/45 61/24/153
f 35/16/35 23/10/23 15/8/82 27/13/27
f 25/11/88 14/7/14 57/18/57 67/27/154
f 18/7/18 28/11/155 58/27/107 38/18/38
f 21/10/85 33/16/33 29/13/29 17/8/17
f 31/14/31 20/9/20 63/25/63 70/30/156
f 24/9/24 34/14/157 64/30/109 47/25/47
f 33/16/33 35/16/35 27/13/27 29/13/29
f 30/12/30 26/12/26 69/28/69 59/28/59
f 36/15/36 32/15/32 72/31/72 65/31/65
f 62/26/62 39/19/95 60/29/60 71/32/71
f 44/23/158 41/20/96 39/19/95 62/26/62
f 66/32/66 68/29/68 56/19/56 48/26/108
f 48/26/108 56/19/56 53/20/159 50/23/50
f 71/32/71 60/29/60 68/29/68 66/32/66
