# Blender 5.0.1
# www.blender.org
mtllib sloup.mtl
o Sloupy
v -0.227942 0.100000 0.329578
v -0.230367 0.120000 0.349578
v -0.250367 0.120000 0.329578
v -0.250367 6.380000 0.329578
v -0.230367 6.380000 0.349578
v -0.227942 6.400000 0.329578
v -0.250367 0.120000 -0.330422
v -0.230367 0.120000 -0.350422
v -0.227942 0.100000 -0.330422
v -0.227942 6.400000 -0.330422
v -0.230367 6.380000 -0.350422
v -0.250367 6.380000 -0.330422
v 0.249633 0.120000 0.329578
v 0.229633 0.120000 0.349578
v 0.227208 0.100000 0.329578
v 0.227208 6.400000 0.329578
v 0.229633 6.380000 0.349578
v 0.249633 6.380000 0.329578
v 0.227208 0.100000 -0.330422
v 0.229633 0.120000 -0.350422
v 0.249633 0.120000 -0.330422
v 0.227208 6.400000 -0.330422
v 0.249633 6.380000 -0.330422
v 0.229633 6.380000 -0.350422
v -0.250367 0.120000 -0.282459
v -0.227845 0.100000 -0.262459
v -0.234523 0.120000 -0.250254
v -0.250367 0.120000 0.281615
v -0.234523 0.120000 0.249410
v -0.227845 0.100000 0.261615
v -0.250367 6.380000 0.281615
v -0.227845 6.400000 0.261615
v -0.234523 6.380000 0.249410
v -0.250367 6.380000 -0.282459
v -0.234523 6.380000 -0.250254
v -0.227845 6.400000 -0.262459
v 0.249633 0.120000 0.281615
v 0.227111 0.100000 0.261615
v 0.233789 0.120000 0.249410
v 0.249633 0.120000 -0.282459
v 0.233789 0.120000 -0.250254
v 0.227111 0.100000 -0.262459
v 0.249633 6.380000 -0.282459
v 0.227111 6.400000 -0.262459
v 0.233789 6.380000 -0.250254
v 0.249633 6.380000 0.281615
v 0.233789 6.380000 0.249410
v 0.227111 6.400000 0.261615
v -0.117179 0.100000 -0.177302
v -0.139822 0.120000 -0.157302
v -0.155666 0.120000 -0.189507
v -0.155666 0.120000 0.188663
v -0.139822 0.120000 0.156457
v -0.117179 0.100000 0.176457
v -0.117179 6.400000 0.176457
v -0.139822 6.380000 0.156457
v -0.155666 6.380000 0.188663
v -0.155666 6.380000 -0.189507
v -0.139822 6.380000 -0.157302
v -0.117179 6.400000 -0.177302
v 0.116445 0.100000 0.176457
v 0.139088 0.120000 0.156457
v 0.154932 0.120000 0.188663
v 0.154932 0.120000 -0.189507
v 0.139088 0.120000 -0.157302
v 0.116445 0.100000 -0.177302
v 0.116445 6.400000 -0.177302
v 0.139088 6.380000 -0.157302
v 0.154932 6.380000 -0.189507
v 0.154932 6.380000 0.188663
v 0.139088 6.380000 0.156457
v 0.116445 6.400000 0.176457
v -0.260614 0.099168 0.391806
v -0.262584 0.079168 0.411806
v -0.393359 0.099168 0.259061
v -0.413359 0.079168 0.261030
v -0.312479 0.099168 0.381489
v -0.320283 0.079168 0.400329
v -0.354779 0.099168 0.353226
v -0.369198 0.079168 0.367645
v -0.383043 0.099168 0.310926
v -0.401882 0.079168 0.318730
v -0.393359 -0.001716 0.259061
v -0.413359 0.018284 0.261030
v -0.260614 -0.001716 0.391806
v -0.262584 0.018284 0.411806
v -0.383043 -0.001716 0.310926
v -0.401882 0.018284 0.318730
v -0.354779 -0.001716 0.353226
v -0.369198 0.018284 0.367645
v -0.312479 -0.001716 0.381489
v -0.320283 0.018284 0.400329
v -0.393359 0.099168 -0.261433
v -0.413359 0.079168 -0.263403
v -0.260614 0.099168 -0.394178
v -0.262584 0.079168 -0.414178
v -0.383043 0.099168 -0.313298
v -0.401882 0.079168 -0.321102
v -0.354779 0.099168 -0.355598
v -0.369198 0.079168 -0.370017
v -0.312479 0.099168 -0.383862
v -0.320283 0.079168 -0.402701
v -0.260614 -0.001716 -0.394178
v -0.262584 0.018284 -0.414178
v -0.393359 -0.001716 -0.261433
v -0.413359 0.018284 -0.263403
v -0.312479 -0.001716 -0.383862
v -0.320283 0.018284 -0.402701
v -0.354779 -0.001716 -0.355598
v -0.369198 0.018284 -0.370017
v -0.383043 -0.001716 -0.313298
v -0.401882 0.018284 -0.321102
v 0.392625 0.099168 0.259061
v 0.412625 0.079168 0.261030
v 0.259880 0.099168 0.391806
v 0.261849 0.079168 0.411806
v 0.382308 0.099168 0.310926
v 0.401148 0.079168 0.318730
v 0.354045 0.099168 0.353226
v 0.368464 0.079168 0.367645
v 0.311745 0.099168 0.381489
v 0.319549 0.079168 0.400329
v 0.259880 -0.001716 0.391806
v 0.261849 0.018284 0.411806
v 0.392625 -0.001716 0.259061
v 0.412625 0.018284 0.261030
v 0.311745 -0.001716 0.381489
v 0.319549 0.018284 0.400329
v 0.354045 -0.001716 0.353226
v 0.368464 0.018284 0.367645
v 0.382308 -0.001716 0.310926
v 0.401148 0.018284 0.318730
v 0.259880 0.099168 -0.394178
v 0.261849 0.079168 -0.414178
v 0.392625 0.099168 -0.261433
v 0.412625 0.079168 -0.263403
v 0.311745 0.099168 -0.383862
v 0.319549 0.079168 -0.402701
v 0.354045 0.099168 -0.355598
v 0.368464 0.079168 -0.370017
v 0.382308 0.099168 -0.313298
v 0.401148 0.079168 -0.321102
v 0.392625 -0.001716 -0.261433
v 0.412625 0.018284 -0.263403
v 0.259880 -0.001716 -0.394178
v 0.261849 0.018284 -0.414178
v 0.382308 -0.001716 -0.313298
v 0.401148 0.018284 -0.321102
v 0.354045 -0.001716 -0.355598
v 0.368464 0.018284 -0.370017
v 0.311745 -0.001716 -0.383862
v 0.319549 0.018284 -0.402701
vn -0.0318 -0.9752 0.2192
vn -0.0415 -0.0031 0.9991
vn -0.9594 -0.0034 0.2819
vn -0.9594 0.0034 0.2819
vn -0.0416 0.0031 0.9991
vn -0.0318 0.9752 0.2192
vn -0.9594 -0.0034 -0.2819
vn -0.0416 -0.0031 -0.9991
vn -0.0318 -0.9752 -0.2192
vn -0.0318 0.9752 -0.2191
vn -0.0415 0.0031 -0.9991
vn -0.9594 0.0034 -0.2819
vn 0.9594 -0.0034 0.2819
vn 0.0416 -0.0031 0.9991
vn 0.0318 -0.9752 0.2192
vn 0.0318 0.9752 0.2191
vn 0.0415 0.0031 0.9991
vn 0.9594 0.0034 0.2819
vn 0.0318 -0.9752 -0.2192
vn 0.0415 -0.0031 -0.9991
vn 0.9594 -0.0034 -0.2819
vn 0.0318 0.9752 -0.2191
vn 0.9594 0.0034 -0.2819
vn 0.0416 0.0031 -0.9991
vn -0.9811 -0.0029 0.1936
vn -0.0463 -0.9984 0.0324
vn -0.7004 -0.0022 0.7138
vn -0.9811 -0.0029 -0.1936
vn -0.7004 -0.0022 -0.7138
vn -0.0463 -0.9984 -0.0323
vn -0.9811 0.0029 -0.1936
vn -0.0463 0.9984 -0.0324
vn -0.7004 0.0022 -0.7138
vn -0.9811 0.0029 0.1936
vn -0.7004 0.0022 0.7138
vn -0.0464 0.9984 0.0323
vn 0.9811 -0.0029 -0.1936
vn 0.0463 -0.9984 -0.0324
vn 0.7004 -0.0022 -0.7138
vn 0.9811 -0.0029 0.1936
vn 0.7004 -0.0022 0.7138
vn 0.0463 -0.9984 0.0323
vn 0.9811 0.0029 0.1936
vn 0.0463 0.9984 0.0324
vn 0.7004 0.0022 0.7138
vn 0.9811 0.0030 -0.1936
vn 0.7004 0.0022 -0.7138
vn 0.0463 0.9984 -0.0324
vn -0.0693 -0.9975 0.0168
vn -0.9989 -0.0037 0.0457
vn -0.7004 -0.0026 0.7138
vn -0.7003 -0.0026 -0.7138
vn -0.9990 -0.0037 -0.0456
vn -0.0693 -0.9975 -0.0168
vn -0.0693 0.9975 -0.0168
vn -0.9989 0.0037 -0.0457
vn -0.7004 0.0026 -0.7138
vn -0.7004 0.0026 0.7138
vn -0.9990 0.0038 0.0456
vn -0.0693 0.9975 0.0168
vn 0.0693 -0.9975 -0.0168
vn 0.9989 -0.0037 -0.0457
vn 0.7004 -0.0026 -0.7138
vn 0.7003 -0.0026 0.7138
vn 0.9990 -0.0037 0.0456
vn 0.0693 -0.9975 0.0168
vn 0.0693 0.9975 0.0168
vn 0.9989 0.0037 0.0457
vn 0.7004 0.0026 0.7138
vn 0.7004 0.0026 -0.7138
vn 0.9990 0.0038 -0.0456
vn 0.0693 0.9975 -0.0168
vn -0.0463 -0.9984 -0.0324
vn -0.0318 -0.9752 0.2191
vn -0.0415 0.0031 0.9991
vn -0.0463 0.9984 0.0324
vn -0.0415 -0.0031 -0.9991
vn 0.0318 -0.9752 -0.2191
vn -0.0319 -0.9752 -0.2191
vn -0.0415 -0.0030 -0.9991
vn 0.0416 -0.0030 -0.9991
vn 0.0319 0.9752 -0.2191
vn 0.0415 0.0030 -0.9991
vn -0.0416 0.0030 -0.9991
vn 0.0415 0.0031 -0.9991
vn 0.0463 -0.9984 0.0324
vn 0.9811 0.0029 -0.1936
vn 0.0415 -0.0031 0.9991
vn 0.0319 -0.9752 0.2191
vn 0.0415 -0.0030 0.9991
vn -0.0416 -0.0030 0.9991
vn -0.0319 0.9752 0.2191
vn -0.0415 0.0030 0.9991
vn 0.0416 0.0030 0.9991
vn -0.7003 -0.0022 -0.7138
vn -0.0692 0.9975 0.0169
vn -0.0463 0.9984 0.0323
vn -0.7003 0.0022 0.7138
vn -0.7003 0.0026 0.7138
vn 0.7003 -0.0022 0.7138
vn 0.0318 0.9752 -0.2192
vn 0.0462 0.9984 -0.0323
vn 0.7003 0.0022 -0.7138
vn 0.7003 0.0026 -0.7138
vn 0.9811 -0.0029 0.1937
vn 0.9811 0.0029 0.1937
vn 0.9811 0.0029 -0.1937
vn 0.9811 -0.0029 -0.1937
vn -0.9811 -0.0029 -0.1937
vn -0.9811 0.0029 -0.1937
vn -0.9811 0.0029 0.1937
vn -0.9811 -0.0029 0.1937
vn -0.0462 -0.9984 0.0324
vn -0.7003 -0.0026 0.7138
vn -0.7003 -0.0022 0.7138
vn -0.0693 -0.9975 -0.0169
vn -0.0462 0.9984 -0.0324
vn -0.7003 0.0026 -0.7138
vn -0.7003 0.0022 -0.7138
vn -0.0693 0.9975 0.0169
vn -0.9990 0.0037 0.0456
vn 0.0462 -0.9984 -0.0324
vn 0.7003 -0.0026 -0.7138
vn 0.7003 -0.0022 -0.7138
vn 0.0693 -0.9975 0.0169
vn 0.0462 0.9984 0.0324
vn 0.7003 0.0026 0.7138
vn 0.7003 0.0022 0.7138
vn 0.0693 0.9975 -0.0169
vn 0.9990 0.0037 -0.0456
vn -0.9990 -0.0000 -0.0457
vn -0.7004 -0.0026 -0.7138
vn -0.7004 -0.0000 -0.7138
vn -0.7004 -0.0000 0.7138
vn -0.9990 -0.0000 0.0457
vn 0.9990 -0.0000 0.0457
vn 0.7004 -0.0026 0.7138
vn 0.7004 -0.0000 0.7138
vn 0.7004 -0.0000 -0.7138
vn 0.9990 -0.0000 -0.0457
vn -0.3717 0.2340 0.8984
vn -0.0190 0.2390 0.9708
vn -0.0003 0.9998 0.0188
vn -0.0013 1.0000 0.0033
vn -0.0189 -0.2390 0.9708
vn -0.3716 -0.2340 0.8984
vn -0.0014 -1.0000 0.0033
vn -0.0003 -0.9998 0.0188
vn -0.6877 0.2325 0.6877
vn -0.0014 1.0000 0.0033
vn -0.0025 1.0000 0.0025
vn -0.6877 -0.2325 0.6878
vn -0.0025 -1.0000 0.0025
vn -0.8984 0.2340 0.3716
vn -0.6878 0.2325 0.6877
vn -0.0033 1.0000 0.0014
vn -0.6877 -0.2325 0.6877
vn -0.8984 -0.2340 0.3717
vn -0.0033 -1.0000 0.0014
vn -0.9708 0.2390 0.0189
vn -0.0188 0.9998 0.0003
vn -0.9708 -0.2390 0.0190
vn -0.0188 -0.9998 0.0003
vn -0.0033 -1.0000 0.0013
vn -0.3717 -0.2340 -0.8984
vn -0.0190 -0.2390 -0.9708
vn -0.0003 -0.9998 -0.0188
vn -0.0013 -1.0000 -0.0033
vn -0.0189 0.2390 -0.9708
vn -0.3716 0.2340 -0.8984
vn -0.0013 1.0000 -0.0033
vn -0.0003 0.9998 -0.0188
vn -0.6877 -0.2325 -0.6877
vn -0.0014 -1.0000 -0.0033
vn -0.0025 -1.0000 -0.0025
vn -0.6877 0.2325 -0.6878
vn -0.0025 1.0000 -0.0025
vn -0.0014 1.0000 -0.0033
vn -0.8984 -0.2340 -0.3716
vn -0.6878 -0.2325 -0.6877
vn -0.0033 -1.0000 -0.0014
vn -0.6877 0.2325 -0.6877
vn -0.8984 0.2340 -0.3717
vn -0.0033 1.0000 -0.0014
vn -0.9708 -0.2390 -0.0189
vn -0.0188 -0.9998 -0.0003
vn -0.9708 0.2390 -0.0190
vn -0.0188 0.9998 -0.0003
vn -0.0033 1.0000 -0.0013
vn 0.8984 -0.2340 -0.3717
vn 0.9708 -0.2390 -0.0190
vn 0.0188 -0.9998 -0.0003
vn 0.0033 -1.0000 -0.0013
vn 0.9708 0.2390 -0.0189
vn 0.8984 0.2340 -0.3716
vn 0.0033 1.0000 -0.0014
vn 0.0188 0.9998 -0.0003
vn 0.6877 -0.2325 -0.6877
vn 0.0033 -1.0000 -0.0014
vn 0.0025 -1.0000 -0.0025
vn 0.6878 0.2325 -0.6877
vn 0.0025 1.0000 -0.0025
vn 0.3716 -0.2340 -0.8984
vn 0.6877 -0.2325 -0.6878
vn 0.0014 -1.0000 -0.0033
vn 0.6877 0.2325 -0.6877
vn 0.3717 0.2340 -0.8984
vn 0.0014 1.0000 -0.0033
vn 0.0189 -0.2390 -0.9708
vn 0.0013 -1.0000 -0.0033
vn 0.0003 -0.9998 -0.0188
vn 0.0190 0.2390 -0.9708
vn 0.0003 0.9998 -0.0188
vn 0.0013 1.0000 -0.0033
vn 0.3717 -0.2340 0.8984
vn 0.0190 -0.2390 0.9708
vn 0.0003 -0.9998 0.0188
vn 0.0013 -1.0000 0.0033
vn 0.0189 0.2390 0.9708
vn 0.3716 0.2340 0.8984
vn 0.0014 1.0000 0.0033
vn 0.0003 0.9998 0.0188
vn 0.6877 -0.2325 0.6877
vn 0.0014 -1.0000 0.0033
vn 0.0025 -1.0000 0.0025
vn 0.6877 0.2325 0.6878
vn 0.0025 1.0000 0.0025
vn 0.8984 -0.2340 0.3716
vn 0.6878 -0.2325 0.6877
vn 0.0033 -1.0000 0.0014
vn 0.6877 0.2325 0.6877
vn 0.8984 0.2340 0.3717
vn 0.0033 1.0000 0.0014
vn 0.9708 -0.2390 0.0189
vn 0.0188 -0.9998 0.0003
vn 0.9708 0.2390 0.0190
vn 0.0188 0.9998 0.0003
vn 0.0033 1.0000 0.0013
vn -0.0188 0.9998 -0.0004
vn -0.9708 0.2390 -0.0189
vn 0.0004 0.9998 -0.0188
vn 0.0189 0.2390 -0.9708
vn 0.0188 0.9998 0.0004
vn 0.9708 0.2390 0.0189
vn -0.0004 0.9998 0.0188
vn -0.0189 0.2390 0.9708
vn -0.9708 -0.2390 0.0189
vn -0.0188 -0.9998 0.0004
vn 0.0189 -0.2390 0.9708
vn 0.0004 -0.9998 0.0188
vn 0.0188 -0.9998 -0.0004
vn 0.9708 -0.2390 -0.0189
vn -0.0004 -0.9998 -0.0188
vn -0.0189 -0.2390 -0.9708
vn 0.0416 0.0031 0.9991
vn -0.0416 -0.0031 0.9991
vn 0.0318 -0.9752 0.2191
vn -0.0318 0.9752 0.2191
vn -0.0416 0.0031 -0.9991
vn 0.0416 -0.0031 -0.9991
vn -0.0318 -0.9752 -0.2191
vn -0.9990 -0.0037 -0.0457
vn -0.9990 0.0037 -0.0457
vn -0.9990 0.0037 0.0457
vn -0.9990 -0.0037 0.0457
vn 0.9990 -0.0037 0.0457
vn 0.9990 0.0037 0.0457
vn 0.9990 0.0037 -0.0457
vn 0.9990 -0.0037 -0.0457
vn -0.0188 0.9998 0.0004
vn 0.0004 0.9998 0.0188
vn 0.0188 0.9998 -0.0004
vn -0.0004 0.9998 -0.0188
vn -0.0189 -0.2389 0.9708
vn 0.0189 0.2389 0.9709
vn -0.0189 0.2389 0.9709
vn -0.0189 -0.2389 0.9709
vn 0.0189 -0.2389 0.9709
vn -0.9708 0.2389 0.0189
vn -0.9709 0.2389 0.0189
vn -0.9709 0.2389 -0.0189
vn -0.9709 -0.2389 -0.0189
vn -0.9709 -0.2389 0.0189
vn -0.6877 0.2325 0.6878
vn -0.3717 -0.2340 0.8984
vn -0.8984 0.2340 0.3717
vn -0.6878 -0.2325 0.6877
vn 0.0188 -0.9998 0.0004
vn -0.0004 -0.9998 0.0188
vn -0.0188 -0.9998 -0.0004
vn 0.0004 -0.9998 -0.0188
vn -0.9708 -0.2389 -0.0189
vn -0.0189 0.2389 -0.9709
vn 0.0189 0.2389 -0.9709
vn 0.0189 -0.2389 -0.9709
vn -0.0189 -0.2389 -0.9709
vn -0.0189 0.2389 -0.9708
vn -0.8984 -0.2340 -0.3717
vn -0.6878 0.2325 -0.6877
vn -0.6877 -0.2325 -0.6878
vn -0.3717 0.2340 -0.8984
vn 0.9708 -0.2389 0.0189
vn 0.9709 0.2389 -0.0189
vn 0.9709 0.2389 0.0189
vn 0.9709 -0.2389 0.0189
vn 0.9709 -0.2389 -0.0189
vn 0.0189 0.2389 0.9708
vn 0.8984 -0.2340 0.3717
vn 0.6878 0.2325 0.6877
vn 0.6877 -0.2325 0.6878
vn 0.3717 0.2340 0.8984
vn 0.0189 -0.2389 -0.9708
vn 0.9708 0.2389 -0.0189
vn 0.3717 -0.2340 -0.8984
vn 0.6877 0.2325 -0.6878
vn 0.6878 -0.2325 -0.6877
vn 0.8984 0.2340 -0.3717
vt 0.411067 0.562557
vt 0.409973 0.567192
vt 0.406207 0.563604
vt 0.566188 0.562052
vt 0.564075 0.566334
vt 0.561140 0.562546
vt 0.405979 0.454003
vt 0.409522 0.450520
vt 0.410686 0.454856
vt 0.560489 0.454565
vt 0.561618 0.449941
vt 0.565355 0.453558
vt 0.484833 0.563130
vt 0.481289 0.566613
vt 0.480126 0.562277
vt 0.490833 0.561646
vt 0.489703 0.566026
vt 0.486127 0.562570
vt 0.479745 0.454576
vt 0.480838 0.449941
vt 0.484605 0.453529
vt 0.491453 0.454284
vt 0.486755 0.453394
vt 0.490325 0.449941
vt 0.405401 0.462403
vt 0.410487 0.465340
vt 0.407906 0.468003
vt 0.405401 0.555071
vt 0.407772 0.549271
vt 0.410509 0.551949
vt 0.565401 0.553994
vt 0.560341 0.551603
vt 0.562749 0.548888
vt 0.566092 0.462094
vt 0.563674 0.467871
vt 0.560961 0.465173
vt 0.485411 0.554730
vt 0.480324 0.551793
vt 0.482906 0.549130
vt 0.485411 0.462062
vt 0.483040 0.467862
vt 0.480302 0.465185
vt 0.486110 0.461784
vt 0.491169 0.464760
vt 0.488569 0.467400
vt 0.485411 0.554230
vt 0.487791 0.548531
vt 0.490473 0.551209
vt 0.426377 0.479234
vt 0.421677 0.482870
vt 0.419150 0.477963
vt 0.419166 0.538554
vt 0.421699 0.533379
vt 0.426618 0.537050
vt 0.544535 0.537725
vt 0.549255 0.534130
vt 0.551739 0.539044
vt 0.552197 0.478490
vt 0.549624 0.483642
vt 0.544735 0.479934
vt 0.464435 0.537899
vt 0.469134 0.534263
vt 0.471662 0.539170
vt 0.471646 0.478579
vt 0.469113 0.483754
vt 0.464194 0.480083
vt 0.506937 0.478776
vt 0.502209 0.482370
vt 0.499724 0.477446
vt 0.499217 0.537983
vt 0.501789 0.532842
vt 0.506669 0.536550
vt 0.292370 0.000000
vt 0.292370 1.000000
vt 0.287852 1.000000
vt 0.287852 0.000000
vt 0.163152 1.000000
vt 0.163152 0.000000
vt 0.167670 0.000000
vt 0.167670 1.000000
vt 0.085151 1.000000
vt 0.085151 0.000000
vt 0.089670 0.000000
vt 0.089670 1.000000
vt 0.365852 1.000000
vt 0.365852 -0.000000
vt 0.370371 -0.000000
vt 0.370371 1.000000
vt 0.561461 0.566963
vt 0.071756 1.000000
vt 0.071756 0.000000
vt 0.077490 0.000000
vt 0.077490 1.000000
vt 0.378032 1.000000
vt 0.378032 -0.000000
vt 0.383766 -0.000000
vt 0.383766 1.000000
vt 0.274456 1.000000
vt 0.274456 0.000000
vt 0.280190 0.000000
vt 0.280190 1.000000
vt 0.175332 1.000000
vt 0.175332 0.000000
vt 0.181066 0.000000
vt 0.181066 1.000000
vt 0.252822 1.000000
vt 0.252822 0.000000
vt 0.258555 0.000000
vt 0.258555 1.000000
vt 0.196967 1.000000
vt 0.196967 0.000000
vt 0.202700 0.000000
vt 0.202700 1.000000
vt 0.050121 1.000000
vt 0.050121 0.000000
vt 0.055855 0.000000
vt 0.055855 1.000000
vt 0.399667 1.000000
vt 0.399667 -0.000000
vt 0.405401 -0.000000
vt 0.405401 1.000000
vt 0.465167 0.119694
vt 0.468982 0.128379
vt 0.464600 0.130303
vt 0.460791 0.121722
vt 0.478358 0.123848
vt 0.473770 0.115217
vt 0.478340 0.112861
vt 0.482757 0.121581
vt 0.461073 0.111292
vt 0.456662 0.113502
vt 0.469546 0.106760
vt 0.473960 0.104545
vt 0.456851 0.102841
vt 0.452290 0.105193
vt 0.465440 0.098360
vt 0.469823 0.096320
vt 0.452260 0.094232
vt 0.447884 0.096495
vt 0.461573 0.089676
vt 0.465992 0.087717
vt 0.625770 0.427348
vt 0.622005 0.418882
vt 0.626292 0.416920
vt 0.630167 0.425286
vt 0.613085 0.423373
vt 0.617514 0.431630
vt 0.613185 0.433806
vt 0.608948 0.425553
vt 0.629862 0.435531
vt 0.633975 0.433291
vt 0.621364 0.439885
vt 0.617123 0.441692
vt 0.634706 0.444199
vt 0.638754 0.440957
vt 0.624989 0.448811
vt 0.620081 0.449941
vt 0.423381 0.010500
vt 0.419284 0.001342
vt 0.424136 -0.000000
vt 0.427723 0.008492
vt 0.409541 0.005970
vt 0.414133 0.015030
vt 0.409825 0.017168
vt 0.405401 0.008944
vt 0.571819 0.318590
vt 0.568194 0.310539
vt 0.572250 0.308708
vt 0.575884 0.316653
vt 0.559524 0.314833
vt 0.563828 0.322822
vt 0.559618 0.325004
vt 0.555463 0.316970
vt 0.575706 0.326419
vt 0.579841 0.324298
vt 0.567680 0.330698
vt 0.563655 0.332660
vt 0.579764 0.334396
vt 0.584081 0.332122
vt 0.571595 0.338665
vt 0.567223 0.340666
vt 0.584244 0.342598
vt 0.588382 0.340399
vt 0.575327 0.347084
vt 0.571043 0.349030
vt 0.520204 0.212380
vt 0.516492 0.203596
vt 0.520908 0.201659
vt 0.524784 0.210361
vt 0.507153 0.208097
vt 0.511703 0.216695
vt 0.507197 0.219022
vt 0.502771 0.210365
vt 0.524085 0.220746
vt 0.528407 0.218758
vt 0.515818 0.224992
vt 0.511559 0.227154
vt 0.527910 0.228786
vt 0.532030 0.226752
vt 0.519745 0.232996
vt 0.515621 0.234961
vt 0.532077 0.236801
vt 0.536116 0.234686
vt 0.523382 0.241104
vt 0.519312 0.242950
vt 0.292370 1.000000
vt 0.292370 -0.000000
vt -0.000000 1.000000
vt -0.000000 0.000000
vt 0.443687 0.371561
vt 0.407536 0.297541
vt 0.405401 0.289449
vt 0.406482 0.281470
vt 0.410534 0.274513
vt 0.417194 0.269443
vt 0.491214 0.233292
vt 0.499306 0.231157
vt 0.507285 0.232238
vt 0.514242 0.236291
vt 0.557598 0.325063
vt 0.556517 0.333041
vt 0.552465 0.339999
vt 0.545805 0.345068
vt 0.471785 0.381219
vt 0.463693 0.383355
vt 0.455714 0.382273
vt 0.448757 0.378221
vt 0.533982 0.226594
vt 0.535065 0.218617
vt 0.539119 0.211660
vt 0.545778 0.206593
vt 0.619800 0.170458
vt 0.627892 0.168325
vt 0.635870 0.169408
vt 0.642826 0.173461
vt 0.647894 0.180121
vt 0.684028 0.254142
vt 0.686161 0.262235
vt 0.685078 0.270212
vt 0.681025 0.277168
vt 0.674365 0.282236
vt 0.600344 0.318370
vt 0.592252 0.320504
vt 0.584274 0.319421
vt 0.577318 0.315368
s 0
usemtl Material.005
f 1/1/1 2/2/2 3/3/3
f 4/4/4 5/5/5 6/6/6
f 7/7/7 8/8/8 9/9/9
f 10/10/10 11/11/11 12/12/12
f 13/13/13 14/14/14 15/15/15
f 16/16/16 17/17/17 18/18/18
f 19/19/19 20/20/20 21/21/21
f 22/22/22 23/23/23 24/24/24
f 25/25/25 26/26/26 27/27/27
f 28/28/28 29/29/29 30/30/30
f 31/31/31 32/32/32 33/33/33
f 34/34/34 35/35/35 36/36/36
f 37/37/37 38/38/38 39/39/39
f 40/40/40 41/41/41 42/42/42
f 43/43/43 44/44/44 45/45/45
f 46/46/46 47/47/47 48/48/48
f 49/49/49 50/50/50 51/51/51
f 52/52/52 53/53/53 54/54/54
f 55/55/55 56/56/56 57/57/57
f 58/58/58 59/59/59 60/60/60
f 61/61/61 62/62/62 63/63/63
f 64/64/64 65/65/65 66/66/66
f 67/67/67 68/68/68 69/69/69
f 70/70/70 71/71/71 72/72/72
f 30/30/73 1/1/74 3/3/3 28/28/28
f 2/73/2 5/74/75 4/75/4 3/76/3
f 36/36/76 10/10/10 12/12/12 34/34/34
f 11/77/11 8/78/77 7/79/7 12/80/12
f 19/19/78 9/9/79 8/8/80 20/20/81
f 10/10/10 22/22/82 24/24/83 11/11/84
f 23/81/23 21/82/21 20/83/20 24/84/85
f 42/42/86 19/19/78 21/21/21 40/40/40
f 48/48/48 16/16/16 18/18/18 46/46/87
f 17/85/17 14/86/88 13/87/13 18/88/18
f 1/1/74 15/15/89 14/14/90 2/2/91
f 16/16/16 6/6/92 5/89/93 17/17/94
f 9/9/9 26/26/26 25/25/25 7/7/7
f 54/54/54 30/30/30 29/29/95 52/52/52
f 6/6/6 32/32/32 31/31/31 4/4/4
f 60/60/96 36/36/97 35/35/98 58/58/99
f 15/15/15 38/38/38 37/37/37 13/13/13
f 66/66/66 42/42/42 41/41/100 64/64/64
f 22/22/101 44/44/44 43/43/43 23/23/23
f 72/72/72 48/48/102 47/47/103 70/70/104
f 45/90/45 41/91/41 40/92/105 43/93/106
f 46/94/107 37/95/108 39/96/39 47/97/47
f 33/98/33 29/99/29 28/100/109 31/101/110
f 34/102/111 25/103/112 27/104/27 35/105/35
f 26/26/113 49/49/49 51/51/114 27/27/115
f 49/49/49 54/54/116 53/53/53 50/50/50
f 32/32/117 55/55/55 57/57/118 33/33/119
f 55/55/55 60/60/120 59/59/121 56/56/56
f 38/38/122 61/61/61 63/63/123 39/39/124
f 61/61/61 66/66/125 65/65/65 62/62/62
f 44/44/126 67/67/67 69/69/127 45/45/128
f 67/67/67 72/72/129 71/71/130 68/68/68
f 56/106/56 53/107/131 52/108/132 57/109/133
f 58/110/58 51/111/134 50/112/50 59/113/135
f 68/114/68 65/115/136 64/116/137 69/117/138
f 70/118/70 63/119/139 62/120/62 71/121/140
f 78/122/141 74/123/142 73/124/143 77/125/144
f 86/126/145 92/127/146 91/128/147 85/129/148
f 80/130/149 78/122/141 77/125/150 79/131/151
f 92/127/146 90/132/152 89/133/153 91/128/147
f 82/134/154 80/130/155 79/131/151 81/135/156
f 90/132/157 88/136/158 87/137/159 89/133/153
f 76/138/160 82/134/154 81/135/156 75/139/161
f 88/136/158 84/140/162 83/141/163 87/137/164
f 108/142/165 104/143/166 103/144/167 107/145/168
f 96/146/169 102/147/170 101/148/171 95/149/172
f 110/150/173 108/142/165 107/145/174 109/151/175
f 102/147/170 100/152/176 99/153/177 101/148/178
f 112/154/179 110/150/180 109/151/175 111/155/181
f 100/152/182 98/156/183 97/157/184 99/153/177
f 106/158/185 112/159/179 111/160/181 105/161/186
f 98/162/183 94/163/187 93/164/188 97/165/189
f 148/166/190 144/167/191 143/168/192 147/169/193
f 136/170/194 142/171/195 141/172/196 135/173/197
f 150/174/198 148/166/190 147/169/199 149/175/200
f 142/171/195 140/176/201 139/177/202 141/172/196
f 152/178/203 150/174/204 149/175/200 151/179/205
f 140/176/206 138/180/207 137/181/208 139/177/202
f 146/182/209 152/178/203 151/179/210 145/183/211
f 138/180/207 134/184/212 133/185/213 137/181/214
f 128/186/215 124/187/216 123/188/217 127/189/218
f 116/190/219 122/191/220 121/192/221 115/193/222
f 130/194/223 128/186/215 127/189/224 129/195/225
f 122/191/220 120/196/226 119/197/227 121/192/221
f 132/198/228 130/194/229 129/195/225 131/199/230
f 120/196/231 118/200/232 117/201/233 119/197/227
f 126/202/234 132/198/228 131/199/230 125/203/235
f 118/200/232 114/204/236 113/205/237 117/201/238
f 75/139/161 93/164/239 94/163/240 76/138/160
f 95/149/172 133/185/241 134/184/242 96/146/169
f 135/173/197 113/205/243 114/204/244 136/170/194
f 115/193/222 73/124/245 74/123/246 116/190/219
f 84/140/247 106/158/185 105/161/186 83/141/248
f 124/187/249 86/126/145 85/129/148 123/188/250
f 125/203/235 143/168/251 144/167/252 126/202/234
f 145/183/211 103/144/253 104/143/254 146/182/209
f 3/76/3 4/75/4 31/101/31 28/100/28
f 14/86/14 17/85/255 5/206/5 2/207/256
f 30/30/73 38/38/38 15/15/257 1/1/74
f 48/48/48 32/32/32 6/6/258 16/16/16
f 8/78/8 11/77/259 24/84/24 20/83/260
f 9/9/261 19/19/78 42/42/86 26/26/26
f 25/103/25 34/102/34 12/80/12 7/79/7
f 22/22/22 10/10/10 36/36/76 44/44/44
f 37/95/37 46/94/87 18/88/18 13/87/13
f 21/82/21 23/81/23 43/93/43 40/92/40
f 26/26/26 42/42/86 66/66/66 49/49/49
f 51/111/114 58/110/99 35/105/98 27/104/115
f 54/54/54 61/61/61 38/38/38 30/30/73
f 29/99/95 33/98/119 57/109/118 52/108/52
f 72/72/72 55/55/55 32/32/32 48/48/48
f 44/44/44 36/36/76 60/60/60 67/67/67
f 63/119/123 70/118/104 47/97/103 39/96/124
f 41/91/100 45/90/128 69/117/127 64/116/64
f 53/107/262 56/106/263 59/113/264 50/112/265
f 49/49/49 66/66/66 61/61/61 54/54/54
f 67/67/67 60/60/60 55/55/55 72/72/72
f 65/115/266 68/114/267 71/208/268 62/209/269
f 93/210/239 75/211/270 81/212/156 79/213/151 77/214/150 73/215/245 115/216/271 121/217/221 119/218/227 117/219/233 113/205/243 135/173/272 141/220/196 139/221/202 137/222/208 133/223/241 95/224/273 101/225/178 99/226/177 97/227/184
f 74/123/142 78/122/141 92/127/146 86/126/274
f 116/190/275 74/123/276 86/126/277 124/187/278
f 82/134/154 76/138/279 84/140/162 88/136/158
f 76/138/280 94/163/281 106/158/282 84/140/283
f 78/122/141 80/130/284 90/132/152 92/127/285
f 80/130/155 82/134/286 88/136/158 90/132/287
f 143/168/251 125/203/288 131/228/230 129/229/225 127/230/224 123/231/250 85/232/289 91/233/147 89/234/153 87/235/159 83/236/248 105/237/290 111/238/181 109/239/175 107/240/174 103/241/253 145/242/291 151/243/205 149/244/200 147/245/199
f 112/159/179 106/158/292 94/163/187 98/162/183
f 96/146/293 134/184/294 146/182/295 104/143/296
f 104/143/166 108/142/165 102/147/170 96/146/297
f 110/150/180 112/154/298 98/156/183 100/152/299
f 108/142/165 110/150/300 100/152/176 102/147/301
f 132/198/228 126/202/302 114/204/236 118/200/232
f 136/170/303 114/204/304 126/202/305 144/167/306
f 124/187/216 128/186/215 122/191/220 116/190/307
f 130/194/229 132/198/308 118/200/232 120/196/309
f 128/186/215 130/194/310 120/196/226 122/191/311
f 152/178/203 146/182/312 134/184/212 138/180/207
f 144/167/191 148/166/190 142/171/195 136/170/313
f 150/174/204 152/178/314 138/180/207 140/176/315
f 148/166/190 150/174/316 140/176/201 142/171/317
