# Blender 5.0.1
# www.blender.org
mtllib skrinka.mtl
o na_kodA
v -0.236817 0.111410 0.084977
v -0.236817 0.216073 0.084977
v -0.236817 0.369161 0.084977
v -0.236817 0.471020 0.084977
v -0.223091 0.120510 -0.086740
v -0.223091 0.219106 -0.086740
v -0.223091 0.366209 -0.086740
v -0.223091 0.462165 -0.086740
v -0.202461 0.120510 -0.096511
v 0.191208 0.120510 -0.096511
v -0.202461 0.219106 -0.096511
v 0.191208 0.219106 -0.096511
v -0.202461 0.366209 -0.096511
v 0.191208 0.366209 -0.096511
v -0.202461 0.462165 -0.096511
v 0.191208 0.462165 -0.096511
v 0.202972 0.111410 0.098233
v -0.214917 0.111410 0.098233
v 0.202972 0.216073 0.098233
v -0.214917 0.216073 0.098233
v 0.202972 0.369161 0.098233
v -0.214917 0.369161 0.098233
v 0.202972 0.471020 0.098233
v -0.214917 0.471020 0.098233
v -0.214917 0.573899 0.084977
v 0.202972 0.573899 0.084977
v 0.202972 -0.000290 0.084977
v -0.214917 -0.000290 0.084977
v 0.191208 0.016350 -0.086740
v -0.202461 0.016350 -0.086740
v -0.202461 0.557260 -0.086740
v 0.191208 0.557260 -0.086740
v -0.177857 0.120510 -0.096511
v -0.177857 0.219106 -0.096511
v -0.177857 0.366209 -0.096511
v -0.177857 0.462165 -0.096511
v -0.188799 0.573899 0.084977
v -0.188799 -0.000290 0.084977
v -0.177857 0.016350 -0.086740
v -0.177857 0.557260 -0.086740
v -0.138086 0.120510 -0.096511
v -0.138086 0.219106 -0.096511
v -0.138086 0.366209 -0.096511
v -0.138086 0.462165 -0.096511
v -0.146581 0.573899 0.084977
v -0.138086 0.557260 -0.086740
v -0.146581 -0.000290 0.084977
v -0.138086 0.016350 -0.086740
v -0.146581 0.111410 0.098233
v -0.188799 0.111410 0.098233
v -0.146581 0.216073 0.098233
v -0.188799 0.216073 0.098233
v -0.146581 0.369161 0.098233
v -0.188799 0.369161 0.098233
v -0.146581 0.471020 0.098233
v -0.188799 0.471020 0.098233
v -0.235382 -0.000290 0.096798
v -0.235382 0.001145 0.098233
v -0.236817 0.001145 0.096798
v -0.236817 0.572465 0.096798
v -0.235382 0.572465 0.098233
v -0.235382 0.573899 0.096798
v 0.236817 0.001145 0.096798
v 0.235382 0.001145 0.098233
v 0.235382 -0.000290 0.096798
v 0.235382 0.573899 0.096798
v 0.235382 0.572465 0.098233
v 0.236817 0.572465 0.096798
v -0.235382 -0.000290 -0.037384
v -0.236817 0.001145 -0.037384
v -0.235529 0.001271 -0.038980
v -0.235382 0.573899 -0.037384
v -0.235528 0.572337 -0.038980
v -0.236817 0.572465 -0.037384
v 0.235382 -0.000290 -0.037384
v 0.235509 0.001296 -0.038983
v 0.236817 0.001145 -0.037384
v 0.235382 0.573899 -0.037384
v 0.236817 0.572465 -0.037384
v 0.235505 0.572309 -0.038983
v -0.223091 0.555825 -0.041975
v -0.224380 0.558822 -0.040379
v -0.221656 0.557260 -0.041975
v -0.221656 0.557260 -0.095076
v -0.221656 0.555825 -0.096511
v -0.223091 0.555825 -0.095076
v -0.223091 0.017785 -0.095076
v -0.221656 0.017785 -0.096511
v -0.221656 0.016350 -0.095076
v 0.221656 0.017785 -0.096511
v 0.223091 0.017785 -0.095076
v 0.221656 0.016350 -0.095076
v 0.221656 0.557260 -0.095076
v 0.223091 0.555825 -0.095076
v 0.221656 0.555825 -0.096511
v 0.223091 0.017785 -0.041975
v 0.224399 0.014764 -0.040376
v 0.221656 0.016350 -0.041975
v -0.223091 0.017785 -0.041975
v -0.221656 0.016350 -0.041975
v -0.224379 0.014789 -0.040379
v 0.223091 0.555825 -0.041975
v 0.221656 0.557260 -0.041975
v 0.224402 0.558849 -0.040376
v -0.235382 0.111410 0.098233
v -0.236817 0.111410 0.096798
v -0.235382 0.216073 0.098233
v -0.236817 0.216073 0.096798
v -0.235382 0.369161 0.098233
v -0.236817 0.369161 0.096798
v -0.236817 0.471020 0.096798
v -0.235382 0.471020 0.098233
v 0.235382 0.471020 0.098233
v 0.236817 0.471020 0.096798
v 0.235382 0.369161 0.098233
v 0.236817 0.369161 0.096798
v 0.235382 0.216073 0.098233
v 0.236817 0.216073 0.096798
v 0.236817 0.111410 0.096798
v 0.235382 0.111410 0.098233
v 0.236817 0.472455 -0.037384
v 0.238245 0.471160 -0.037451
v 0.235471 0.470152 -0.038987
v 0.236817 0.367726 -0.037384
v 0.235393 0.367388 -0.038997
v 0.236984 0.368374 -0.040016
v 0.238245 0.369301 -0.037451
v 0.236817 0.217508 -0.037384
v 0.238250 0.216147 -0.037406
v 0.236958 0.217356 -0.039482
v 0.235393 0.217857 -0.038997
v 0.236817 0.109976 -0.037384
v 0.235476 0.112299 -0.038987
v 0.238250 0.111484 -0.037406
v -0.235510 0.470177 -0.038983
v -0.236817 0.471020 -0.037384
v -0.235502 0.368878 -0.038984
v -0.236817 0.369161 -0.037384
v -0.235502 0.216364 -0.038984
v -0.236817 0.216073 -0.037384
v -0.236817 0.111410 -0.037384
v -0.235511 0.112276 -0.038982
v -0.221656 0.462165 -0.096511
v -0.223091 0.462165 -0.095076
v -0.221656 0.366209 -0.096511
v -0.223091 0.366209 -0.095076
v -0.221656 0.219106 -0.096511
v -0.223091 0.219106 -0.095076
v -0.223091 0.120510 -0.095076
v -0.221656 0.120510 -0.096511
v 0.223091 0.462165 -0.095076
v 0.221656 0.462165 -0.096511
v 0.223091 0.366209 -0.095076
v 0.221656 0.366209 -0.096511
v 0.223091 0.219106 -0.095076
v 0.221656 0.219106 -0.096511
v 0.221656 0.120510 -0.096511
v 0.223091 0.120510 -0.095076
v 0.224437 0.463033 -0.040372
v 0.224519 0.462305 -0.042045
v 0.223091 0.463599 -0.041975
v 0.224515 0.365048 -0.040362
v 0.223091 0.364775 -0.041975
v 0.224519 0.366349 -0.042045
v 0.236984 0.368374 -0.040016
v 0.224515 0.220260 -0.040362
v 0.232598 0.218320 -0.040029
v 0.224524 0.219180 -0.041998
v 0.223091 0.220541 -0.041975
v 0.223091 0.119075 -0.041975
v 0.224524 0.120583 -0.041998
v 0.224432 0.119621 -0.040372
v -0.223091 0.462165 -0.041975
v -0.224398 0.463008 -0.040377
v -0.223091 0.366209 -0.041975
v -0.224406 0.366492 -0.040375
v -0.223091 0.219106 -0.041975
v -0.224406 0.218816 -0.040375
v -0.224397 0.119644 -0.040377
v -0.223091 0.120510 -0.041975
v -0.236817 0.001145 0.084977
v -0.235382 -0.000290 0.084977
v 0.236817 0.572465 0.084977
v 0.235382 0.573899 0.084977
v -0.236817 0.572465 0.084977
v -0.235382 0.573899 0.084977
v 0.236817 0.001145 0.084977
v 0.235382 -0.000290 0.084977
v 0.238251 0.112921 0.084955
v 0.236817 0.109976 0.086412
v 0.238250 0.111484 0.083520
v 0.238251 0.214710 0.084955
v 0.238250 0.216147 0.083520
v 0.236817 0.217508 0.086412
v 0.238250 0.370743 0.084909
v 0.236817 0.367726 0.086412
v 0.238245 0.369301 0.083473
v 0.238250 0.469719 0.084909
v 0.238245 0.471160 0.083473
v 0.236817 0.472455 0.086412
v -0.223091 0.555825 -0.086740
v -0.221656 0.557260 -0.086740
v 0.223091 0.017785 -0.086740
v 0.221656 0.016350 -0.086740
v -0.223091 0.017785 -0.086740
v -0.221656 0.016350 -0.086740
v 0.223091 0.555825 -0.086740
v 0.221656 0.557260 -0.086740
v 0.224524 0.120583 -0.085328
v 0.223091 0.119075 -0.088175
v 0.224526 0.122020 -0.086763
v 0.224524 0.219180 -0.085328
v 0.224526 0.217743 -0.086763
v 0.223091 0.220541 -0.088175
v 0.224519 0.366349 -0.085372
v 0.223091 0.364775 -0.088175
v 0.224524 0.367791 -0.086808
v 0.224519 0.462305 -0.085372
v 0.224524 0.460864 -0.086808
v 0.223091 0.463599 -0.088175
v 0.265703 0.472416 -0.038765
v 0.264307 0.472950 -0.040374
v 0.264275 0.473711 -0.038695
v 0.265703 0.373427 -0.038765
v 0.264275 0.371852 -0.038695
v 0.251810 0.369827 -0.040724
v 0.264305 0.373158 -0.040375
v 0.251978 0.463561 -0.043356
v 0.250550 0.464855 -0.043289
v 0.253375 0.465896 -0.041746
v 0.253376 0.370808 -0.041746
v 0.251810 0.369827 -0.040724
v 0.250550 0.368900 -0.043289
v 0.251978 0.370475 -0.043356
v 0.250550 0.368900 -0.086616
v 0.250545 0.370341 -0.088052
v 0.251978 0.370475 -0.086686
v 0.250550 0.464855 -0.086616
v 0.251978 0.463561 -0.086686
v 0.250545 0.463413 -0.088052
v 0.264270 0.373293 0.083665
v 0.264275 0.371852 0.082229
v 0.265703 0.373427 0.082162
v 0.264270 0.472269 0.083665
v 0.265703 0.472416 0.082162
v 0.264275 0.473711 0.082229
v 0.267637 0.216224 -0.037870
v 0.266262 0.216493 -0.039478
v 0.258130 0.218445 -0.039816
v 0.266204 0.217585 -0.037848
v 0.267637 0.114430 -0.037870
v 0.266204 0.112922 -0.037848
v 0.266264 0.113906 -0.039477
v 0.255286 0.218919 -0.040855
v 0.253911 0.219257 -0.042462
v 0.252478 0.220618 -0.042439
v 0.253769 0.219409 -0.040363
v 0.255284 0.121185 -0.040855
v 0.252478 0.122021 -0.042439
v 0.253911 0.123529 -0.042462
v 0.252478 0.122021 -0.085769
v 0.252477 0.123458 -0.087204
v 0.253911 0.123529 -0.085792
v 0.252478 0.220618 -0.085769
v 0.253911 0.219257 -0.085792
v 0.252477 0.219181 -0.087204
v 0.266202 0.114358 0.084513
v 0.266204 0.112922 0.083078
v 0.267637 0.114430 0.083056
v 0.266202 0.216148 0.084513
v 0.267637 0.216224 0.083056
v 0.266204 0.217585 0.083078
v -0.214917 -0.000290 0.096798
v -0.214917 0.001145 0.098233
v 0.202972 0.001145 0.098233
v 0.202972 -0.000290 0.096798
v 0.202972 0.573899 0.096798
v 0.202972 0.572465 0.098233
v -0.214917 0.572465 0.098233
v -0.214917 0.573899 0.096798
v -0.214917 0.573899 -0.037384
v -0.213758 0.572351 -0.038979
v 0.201866 0.572335 -0.038980
v 0.202972 0.573899 -0.037384
v 0.202972 -0.000290 -0.037384
v 0.201868 0.001271 -0.038980
v -0.213759 0.001257 -0.038979
v -0.214917 -0.000290 -0.037384
v 0.191208 0.016350 -0.095076
v 0.191208 0.017785 -0.096511
v -0.202461 0.017785 -0.096511
v -0.202461 0.016350 -0.095076
v -0.202461 0.557260 -0.095076
v -0.202461 0.555825 -0.096511
v 0.191208 0.555825 -0.096511
v 0.191208 0.557260 -0.095076
v -0.203620 0.558808 -0.040380
v -0.202461 0.557260 -0.041975
v 0.191208 0.557260 -0.041975
v 0.192314 0.558824 -0.040379
v 0.192311 0.014789 -0.040379
v 0.191208 0.016350 -0.041975
v -0.202461 0.016350 -0.041975
v -0.203619 0.014803 -0.040380
v -0.188799 -0.000290 0.096798
v -0.188799 0.001145 0.098233
v -0.188799 0.572465 0.098233
v -0.188799 0.573899 0.096798
v -0.188799 0.573899 -0.037384
v -0.187784 0.572355 -0.038978
v -0.187785 0.001252 -0.038978
v -0.188799 -0.000290 -0.037384
v -0.177857 0.017785 -0.096511
v -0.177857 0.016350 -0.095076
v -0.177857 0.557260 -0.095076
v -0.177857 0.555825 -0.096511
v -0.178872 0.558804 -0.040381
v -0.177857 0.557260 -0.041975
v -0.177857 0.016350 -0.041975
v -0.178871 0.014808 -0.040381
v -0.179089 0.147269 0.099668
v -0.180524 0.148704 0.099668
v -0.180911 0.145593 0.098233
v -0.179089 0.180214 0.099668
v -0.180911 0.181891 0.098233
v -0.180524 0.178779 0.099668
v -0.179089 0.404250 0.099668
v -0.180524 0.405685 0.099668
v -0.180920 0.402571 0.098233
v -0.179089 0.435931 0.099668
v -0.180920 0.437611 0.098233
v -0.180524 0.434496 0.099668
v -0.146581 0.001145 0.098233
v -0.146581 -0.000290 0.096798
v -0.145790 0.572350 -0.038979
v -0.146581 0.573899 -0.037384
v -0.138086 0.555825 -0.096511
v -0.138086 0.557260 -0.095076
v -0.138086 0.557260 -0.041975
v -0.138876 0.558809 -0.040380
v -0.146581 0.572465 0.098233
v -0.146581 0.573899 0.096798
v -0.145791 0.001257 -0.038979
v -0.146581 -0.000290 -0.037384
v -0.138086 0.017785 -0.096511
v -0.138086 0.016350 -0.095076
v -0.138086 0.016350 -0.041975
v -0.138875 0.014803 -0.040380
v -0.156291 0.147269 0.099668
v -0.154470 0.145593 0.098233
v -0.154857 0.148704 0.099668
v -0.156291 0.180214 0.099668
v -0.154857 0.178779 0.099668
v -0.154470 0.181891 0.098233
v -0.156291 0.404250 0.099668
v -0.154461 0.402571 0.098233
v -0.154857 0.405685 0.099668
v -0.156291 0.435931 0.099668
v -0.154857 0.434496 0.099668
v -0.154461 0.437611 0.098233
v -0.156291 0.147269 0.153840
v -0.154857 0.148704 0.153840
v -0.156291 0.148704 0.155274
v -0.179089 0.147269 0.153840
v -0.179089 0.148704 0.155274
v -0.180524 0.148704 0.153840
v -0.154857 0.180214 0.153840
v -0.156291 0.180214 0.155274
v -0.179089 0.180214 0.155274
v -0.180524 0.180214 0.153840
v -0.156291 0.404250 0.155274
v -0.154857 0.404250 0.153840
v -0.180524 0.404250 0.153840
v -0.179089 0.404250 0.155274
v -0.156291 0.435931 0.153840
v -0.156291 0.434496 0.155274
v -0.154857 0.434496 0.153840
v -0.179089 0.435931 0.153840
v -0.180524 0.434496 0.153840
v -0.179089 0.434496 0.155274
v -0.179089 0.180214 0.125319
v -0.180524 0.178779 0.128180
v -0.179089 0.181649 0.126762
v -0.156291 0.180214 0.125319
v -0.156291 0.181649 0.126762
v -0.154857 0.178779 0.128180
v -0.180524 0.148704 0.126754
v -0.179089 0.147269 0.126754
v -0.156291 0.147269 0.126754
v -0.154857 0.148704 0.126754
v -0.154857 0.434496 0.128036
v -0.156291 0.435931 0.128036
v -0.154857 0.405685 0.129478
v -0.156291 0.402816 0.128027
v -0.156291 0.404250 0.126601
v -0.179089 0.404250 0.126601
v -0.179089 0.402816 0.128027
v -0.180524 0.405685 0.129478
v -0.180524 0.434496 0.128036
v -0.179089 0.435931 0.128036
vn -0.0000 -0.0000 1.0000
vn -0.0000 -0.0000 -1.0000
vn -0.0617 -0.9926 0.1043
vn -0.0650 -0.0123 0.9978
vn -0.9942 -0.0121 0.1069
vn -0.9942 0.0130 0.1070
vn -0.0649 0.0135 0.9978
vn -0.0617 0.9926 0.1043
vn 0.9934 -0.0128 0.1136
vn 0.0421 -0.0126 0.9990
vn 0.0399 -0.9936 0.1055
vn 0.0399 0.9936 0.1055
vn 0.0420 0.0137 0.9990
vn 0.9934 0.0139 0.1136
vn -0.0649 -0.9978 -0.0124
vn -0.9999 -0.0127 -0.0105
vn -0.1933 -0.0379 -0.9804
vn -0.0649 0.9978 -0.0124
vn -0.1904 0.0407 -0.9809
vn -0.9999 0.0138 -0.0105
vn 0.0421 -0.9990 -0.0126
vn 0.1750 -0.0534 -0.9831
vn 0.9999 -0.0128 -0.0107
vn 0.0421 0.9990 -0.0127
vn 0.9998 0.0139 -0.0107
vn 0.1712 0.0568 -0.9836
vn -0.9995 0.0148 -0.0286
vn -0.1846 0.0399 -0.9820
vn -0.0682 0.9970 -0.0356
vn -0.0639 0.9880 -0.1408
vn -0.0688 0.0146 -0.9975
vn -0.9894 0.0138 -0.1444
vn -0.9894 -0.0126 -0.1444
vn -0.0690 -0.0132 -0.9975
vn -0.0640 -0.9880 -0.1407
vn 0.0446 -0.0134 -0.9989
vn 0.9876 -0.0137 -0.1564
vn 0.0413 -0.9890 -0.1424
vn 0.0413 0.9889 -0.1424
vn 0.9876 0.0150 -0.1564
vn 0.0446 0.0147 -0.9989
vn 0.9995 -0.0136 -0.0289
vn 0.1702 -0.0523 -0.9840
vn 0.0442 -0.9984 -0.0353
vn -0.9995 -0.0135 -0.0285
vn -0.0682 -0.9970 -0.0356
vn -0.1881 -0.0372 -0.9815
vn 0.9995 0.0149 -0.0291
vn 0.0441 0.9984 -0.0354
vn 0.1659 0.0557 -0.9846
vn 0.9998 0.0140 -0.0108
vn -0.0457 0.9989 -0.0069
vn 0.1929 0.0700 -0.9787
vn 0.9999 -0.0093 -0.0113
vn 0.2389 -0.0057 -0.9710
vn 0.1650 -0.9691 0.1835
vn 0.1492 -0.9888 0.0045
vn 0.9999 0.0094 -0.0112
vn -0.0021 1.0000 0.0087
vn 0.0085 0.7968 0.6041
vn 0.2385 0.0043 -0.9711
vn 0.9999 -0.0129 -0.0108
vn 0.1986 -0.0587 -0.9783
vn 0.0998 -0.9950 -0.0086
vn 0.1869 0.0707 -0.9798
vn -0.0460 0.9988 -0.0170
vn 0.9995 0.0148 -0.0285
vn 0.2351 -0.0098 -0.9719
vn 0.9995 -0.0109 -0.0308
vn 0.1505 -0.9886 0.0058
vn 0.1671 -0.9845 0.0531
vn 0.2349 0.0069 -0.9720
vn 0.0188 0.8393 0.5433
vn -0.0005 0.9998 0.0197
vn 0.9995 0.0104 -0.0303
vn 0.9995 -0.0135 -0.0283
vn 0.0999 -0.9948 -0.0218
vn 0.1935 -0.0592 -0.9793
vn 0.0668 -0.0136 0.9977
vn 0.9999 -0.0110 0.0094
vn 0.1008 -0.9948 0.0115
vn 0.0654 0.0136 0.9978
vn -0.0015 0.9999 0.0115
vn 0.9999 0.0082 0.0070
vn 0.1027 -0.0139 0.9946
vn 0.9999 -0.0082 0.0068
vn 0.1500 -0.9886 0.0114
vn 0.1000 0.0139 0.9949
vn -0.0442 0.9990 0.0116
vn 0.9999 0.0119 0.0099
vn 0.1015 -0.9943 -0.0312
vn 0.9997 -0.0104 -0.0227
vn 0.0355 -0.0145 -0.9993
vn -0.0008 0.9995 -0.0314
vn 0.0340 0.0144 -0.9993
vn 0.9998 0.0076 -0.0166
vn 0.1495 -0.9883 -0.0310
vn 0.9998 -0.0076 -0.0162
vn 0.0079 -0.0148 -0.9999
vn -0.0447 0.9985 -0.0313
vn 0.0050 0.0148 -0.9999
vn 0.9996 0.0113 -0.0240
vn 0.9998 0.0141 -0.0114
vn 0.1928 0.0715 -0.9786
vn -0.0464 0.9989 -0.0063
vn 0.9998 -0.0150 -0.0120
vn 0.1488 -0.9889 0.0022
vn 0.1671 -0.9845 0.0530
vn 0.2393 -0.0146 -0.9708
vn 0.9994 0.0149 -0.0316
vn -0.0475 0.9987 -0.0187
vn 0.1876 0.0719 -0.9796
vn 0.2347 -0.0086 -0.9720
vn 0.1650 -0.9691 0.1834
vn 0.1489 -0.9888 0.0124
vn 0.9994 -0.0154 -0.0311
vn 0.1463 -0.9888 -0.0310
vn 0.0056 -0.0148 -0.9999
vn 0.9994 -0.0148 -0.0318
vn -0.0480 0.9984 -0.0314
vn 0.9994 0.0149 -0.0318
vn 0.0026 0.0148 -0.9999
vn 0.1005 -0.0139 0.9948
vn 0.1488 -0.9888 0.0113
vn 0.9998 -0.0141 0.0115
vn 0.0978 0.0139 0.9951
vn 0.9998 0.0141 0.0116
vn -0.0455 0.9989 0.0115
vn 0.9998 0.0144 -0.0115
vn 0.2387 0.0101 -0.9710
vn 0.0189 0.8395 0.5430
vn -0.0024 1.0000 0.0073
vn 0.9998 -0.0137 -0.0111
vn 0.0993 -0.9950 -0.0081
vn 0.1969 -0.0627 -0.9784
vn 0.2338 0.0065 -0.9723
vn 0.9994 0.0149 -0.0305
vn -0.0027 0.9997 0.0235
vn 0.0085 0.7968 0.6042
vn 0.1920 -0.0631 -0.9794
vn 0.0985 -0.9949 -0.0235
vn 0.9994 -0.0144 -0.0311
vn 0.0985 -0.9947 -0.0311
vn 0.0334 -0.0144 -0.9993
vn 0.9994 -0.0145 -0.0318
vn -0.0039 0.9995 -0.0313
vn 0.9994 0.0146 -0.0318
vn 0.0319 0.0144 -0.9994
vn 0.0649 -0.0135 0.9978
vn 0.0997 -0.9950 0.0114
vn 0.9998 -0.0137 0.0116
vn 0.0634 0.0135 0.9979
vn 0.9998 0.0138 0.0117
vn -0.0027 0.9999 0.0114
vn -0.0574 -0.9964 0.0630
vn -0.9989 -0.0431 0.0167
vn -0.0272 -0.0203 0.9994
vn -0.0602 0.9960 0.0661
vn -0.0272 0.0203 0.9994
vn -0.9989 0.0431 0.0167
vn -0.0602 -0.9962 0.0633
vn -0.9988 -0.0451 0.0164
vn -0.0269 -0.0209 0.9994
vn -0.0574 0.9965 0.0605
vn -0.0268 0.0209 0.9994
vn -0.9988 0.0451 0.0164
vn 0.0574 -0.9964 0.0630
vn 0.0272 -0.0203 0.9994
vn 0.9989 -0.0433 0.0166
vn 0.0603 0.9960 0.0661
vn 0.9989 0.0431 0.0167
vn 0.0272 0.0203 0.9994
vn 0.0601 -0.9962 0.0634
vn 0.0269 -0.0209 0.9994
vn 0.9988 -0.0451 0.0164
vn 0.0575 0.9965 0.0604
vn 0.9988 0.0451 0.0164
vn 0.0268 0.0208 0.9994
vn 0.0577 -0.9971 0.0487
vn 0.9977 -0.0444 0.0514
vn 0.0578 -0.0422 0.9974
vn -0.0577 -0.9971 0.0487
vn -0.0578 -0.0422 0.9974
vn -0.9977 -0.0443 0.0515
vn 0.0576 0.9970 0.0510
vn 0.0578 0.0439 0.9974
vn 0.9975 0.0461 0.0539
vn -0.0575 0.9970 0.0510
vn -0.9975 0.0462 0.0539
vn -0.0578 0.0439 0.9974
vn -0.0636 0.9967 -0.0511
vn -0.9991 0.0055 -0.0422
vn -0.0601 0.0120 -0.9981
vn 0.0636 0.9967 -0.0512
vn 0.0600 0.0120 -0.9981
vn 0.9991 0.0055 -0.0421
vn 0.9991 -0.0053 -0.0425
vn 0.0601 -0.0006 -0.9982
vn 0.0634 -0.9968 -0.0489
vn -0.0634 -0.9968 -0.0489
vn -0.0600 -0.0006 -0.9982
vn -0.9991 -0.0053 -0.0425
vn -0.0653 -0.9979 -0.0000
vn -0.9942 -0.0120 0.1070
vn -0.9999 -0.0128 -0.0000
vn -0.0653 -0.0000 0.9979
vn -0.0649 0.0134 0.9978
vn -0.9942 0.0131 0.1069
vn -0.9942 -0.0000 0.1076
vn 0.0423 0.9991 -0.0000
vn 0.9999 0.0141 -0.0000
vn 0.0423 -0.0000 0.9991
vn 0.0420 -0.0125 0.9990
vn 0.9934 -0.0129 0.1136
vn 0.9932 -0.0000 0.1166
vn -0.0000 -0.9942 0.1076
vn 0.0421 -0.0125 0.9990
vn -0.0000 -0.0128 0.9999
vn -0.0000 0.9942 0.1076
vn -0.0617 0.9926 0.1042
vn -0.0000 0.0139 0.9999
vn -0.0653 0.9979 -0.0000
vn -0.9999 0.0138 -0.0104
vn -0.9999 0.0139 -0.0000
vn 0.0423 -0.9991 -0.0000
vn 0.0420 -0.9990 -0.0126
vn 0.9999 -0.0128 -0.0106
vn 0.9999 -0.0130 -0.0000
vn -0.0000 0.9999 -0.0125
vn 0.0421 0.9990 -0.0126
vn -0.0000 0.1968 -0.9804
vn -0.0000 -0.9999 -0.0126
vn -0.0650 -0.9978 -0.0124
vn -0.1934 -0.0380 -0.9804
vn -0.0000 -0.1957 -0.9807
vn -0.2367 -0.0000 -0.9716
vn -0.1933 -0.0380 -0.9804
vn -0.9999 -0.0128 -0.0104
vn -0.9999 -0.0000 -0.0105
vn -0.0693 0.9976 -0.0000
vn -0.0640 0.9880 -0.1407
vn -0.9999 0.0150 -0.0000
vn -0.0693 -0.0000 -0.9976
vn -0.0689 -0.0133 -0.9975
vn -0.9894 -0.0002 -0.1452
vn -0.0000 -0.9894 -0.1452
vn -0.0689 -0.0132 -0.9975
vn -0.0000 -0.0137 -0.9999
vn -0.0000 0.9894 -0.1452
vn 0.0414 0.9889 -0.1424
vn -0.0000 0.0150 -0.9999
vn 0.9867 -0.0000 -0.1623
vn 0.0446 -0.0135 -0.9989
vn 0.0449 -0.0000 -0.9990
vn 0.0449 -0.9990 -0.0000
vn 0.9876 -0.0136 -0.1564
vn 0.9999 -0.0139 -0.0000
vn -0.0693 -0.9976 -0.0000
vn -0.0681 -0.9970 -0.0356
vn -0.9995 -0.0135 -0.0284
vn -0.9999 -0.0137 -0.0000
vn 0.0449 0.9990 -0.0000
vn 0.9995 0.0148 -0.0290
vn 0.9999 0.0153 -0.0000
vn -0.0000 0.1924 -0.9813
vn 0.1659 0.0556 -0.9846
vn -0.0000 0.9994 -0.0337
vn -0.0000 -0.1913 -0.9815
vn -0.1881 -0.0371 -0.9815
vn -0.0681 -0.9970 -0.0355
vn -0.0000 -0.9994 -0.0340
vn 0.1701 -0.0522 -0.9840
vn 0.9995 -0.0135 -0.0288
vn -0.9996 -0.0000 -0.0283
vn -0.1880 -0.0372 -0.9815
vn -0.2311 -0.0000 -0.9729
vn -0.0649 -0.0124 0.9978
vn -0.9942 -0.0121 0.1070
vn 0.0420 0.0136 0.9990
vn 0.9932 -0.0000 0.1167
vn 0.9927 -0.0000 0.1204
vn 0.9927 -0.0002 0.1204
vn 0.9998 0.0139 -0.0108
vn 0.1928 0.0700 -0.9787
vn -0.0455 0.9989 0.0114
vn -0.0442 0.9990 0.0114
vn 0.1000 0.0138 0.9949
vn 0.0979 0.0138 0.9951
vn 0.9999 -0.0093 -0.0112
vn 0.9999 0.0093 -0.0112
vn 0.2384 0.0044 -0.9711
vn -0.0016 0.9999 0.0114
vn 0.0654 0.0135 0.9978
vn 0.0635 0.0135 0.9979
vn -0.2368 -0.0001 -0.9716
vn -0.9998 0.0139 -0.0104
vn -0.2368 -0.0000 -0.9716
vn -0.2363 -0.0001 -0.9717
vn -0.2363 -0.0000 -0.9717
vn -0.9999 0.0001 -0.0105
vn -0.0688 0.0145 -0.9975
vn -0.9894 -0.0000 -0.1452
vn -0.9894 0.0138 -0.1443
vn 0.9867 -0.0000 -0.1625
vn 0.9855 -0.0000 -0.1696
vn 0.1658 0.0557 -0.9846
vn 0.1868 0.0707 -0.9799
vn 0.9995 0.0148 -0.0284
vn 0.1500 -0.9886 0.0113
vn 0.1005 -0.0138 0.9948
vn 0.1027 -0.0138 0.9946
vn 0.2351 -0.0097 -0.9719
vn 0.2349 0.0070 -0.9720
vn 0.9995 0.0103 -0.0303
vn 0.9995 -0.0108 -0.0307
vn 0.1007 -0.9948 0.0113
vn 0.0648 -0.0135 0.9978
vn 0.0668 -0.0135 0.9977
vn -0.9995 0.0148 -0.0285
vn -0.2309 -0.0000 -0.9730
vn -0.1845 0.0399 -0.9820
vn -0.9996 0.0001 -0.0283
vn -0.2322 -0.0000 -0.9727
vn -0.9996 -0.0000 -0.0284
vn 0.1015 -0.9944 -0.0311
vn 0.0999 -0.9948 -0.0219
vn 0.9995 -0.0134 -0.0283
vn 0.9997 -0.0103 -0.0227
vn -0.0005 0.9998 0.0196
vn -0.0008 0.9995 -0.0312
vn 0.1494 -0.9883 -0.0310
vn 0.1504 -0.9886 0.0058
vn 0.9995 -0.0108 -0.0308
vn 0.9997 0.0112 -0.0240
vn 0.9995 0.0147 -0.0265
vn -0.0447 0.9985 -0.0312
vn 0.2389 -0.0056 -0.9710
vn 0.2352 -0.0098 -0.9719
vn 0.1670 -0.9845 0.0531
vn 0.1651 -0.9691 0.1836
vn 0.0086 0.7969 0.6041
vn 0.0188 0.8393 0.5434
vn 0.2385 0.0045 -0.9711
vn -0.9999 -0.0127 -0.0104
vn 0.0420 0.9990 -0.0126
vn -0.9942 0.0131 0.1070
vn 0.9934 -0.0128 0.1137
vn 0.1007 -0.9948 0.0114
vn 0.9999 -0.0128 -0.0073
vn 0.9999 0.0081 0.0070
vn -0.0021 1.0000 0.0078
vn 0.1492 -0.9888 0.0046
vn 0.1499 -0.9886 0.0113
vn 0.9999 -0.0081 0.0068
vn 0.9999 -0.0094 -0.0112
vn 0.9999 0.0118 0.0099
vn -0.0443 0.9990 0.0115
vn -0.0458 0.9989 -0.0069
vn 0.1026 -0.0138 0.9946
vn 0.9999 0.0082 0.0069
vn 0.9999 -0.0109 0.0094
vn -0.0681 0.9970 -0.0356
vn 0.0441 -0.9984 -0.0353
vn -0.0640 -0.9880 -0.1408
vn 0.0413 0.9889 -0.1425
vn 0.0049 0.0148 -0.9999
vn 0.0078 -0.0148 -0.9999
vn 0.9996 0.0112 -0.0240
vn 0.0340 0.0143 -0.9993
vn 0.0355 -0.0144 -0.9993
vn 0.9997 -0.0104 -0.0226
vn 0.9998 0.0141 -0.0113
vn 0.2392 -0.0147 -0.9709
vn 0.1928 0.0714 -0.9786
vn 0.1876 0.0718 -0.9796
vn 0.2347 -0.0085 -0.9720
vn 0.9994 -0.0154 -0.0310
vn 0.9994 0.0148 -0.0315
vn 0.9994 -0.0148 -0.0317
vn -0.0480 0.9984 -0.0313
vn -0.0477 0.9987 -0.0187
vn 0.9994 0.0149 -0.0319
vn 0.2393 -0.0147 -0.9708
vn 0.9998 -0.0149 -0.0120
vn 0.9998 -0.0141 0.0116
vn 0.1487 -0.9889 0.0022
vn 0.9998 0.0142 0.0116
vn 0.0055 -0.0148 -0.9999
vn -0.0476 0.9987 -0.0188
vn 0.1869 0.0708 -0.9798
vn 0.1875 0.0719 -0.9796
vn 0.0049 0.0147 -0.9999
vn -0.0479 0.9984 -0.0313
vn 0.1494 -0.9883 -0.0309
vn 0.0078 -0.0147 -0.9999
vn 0.1505 -0.9886 0.0059
vn 0.1489 -0.9888 0.0125
vn 0.9998 0.0143 -0.0115
vn 0.1968 -0.0627 -0.9784
vn 0.2387 0.0102 -0.9710
vn 0.2337 0.0065 -0.9723
vn 0.1919 -0.0631 -0.9794
vn 0.9994 -0.0145 -0.0310
vn 0.9994 0.0149 -0.0304
vn 0.9994 -0.0144 -0.0310
vn 0.0984 -0.9949 -0.0234
vn 0.0985 -0.9947 -0.0312
vn -0.0039 0.9995 -0.0312
vn -0.0028 0.9997 0.0235
vn 0.9994 0.0145 -0.0318
vn 0.0189 0.8395 0.5431
vn 0.9998 -0.0138 -0.0112
vn 0.9998 -0.0138 0.0116
vn 0.0996 -0.9950 0.0113
vn -0.0024 1.0000 0.0072
vn 0.9998 0.0137 0.0116
vn 0.0648 -0.0136 0.9978
vn 0.9998 0.0139 0.0116
vn 0.9994 -0.0145 -0.0317
vn 0.0355 -0.0143 -0.9993
vn 0.1919 -0.0630 -0.9794
vn 0.1934 -0.0592 -0.9793
vn 0.0984 -0.9949 -0.0235
vn -0.0021 1.0000 0.0086
vn -0.0023 1.0000 0.0072
vn 0.0086 0.7969 0.6040
vn 0.0319 0.0143 -0.9994
vn -0.0617 -0.9926 0.1042
vn -0.0650 -0.0124 0.9978
vn 0.0421 0.0136 0.9990
vn -0.0000 0.9999 -0.0126
vn -0.0000 0.1957 -0.9807
vn -0.0000 0.1969 -0.9804
vn -0.0000 -0.9999 -0.0125
vn -0.0000 -0.1968 -0.9805
vn 0.1750 -0.0533 -0.9831
vn -0.0000 -0.9999 -0.0124
vn -0.0001 -0.9999 -0.0126
vn -0.0000 -0.1956 -0.9807
vn 0.0001 -0.1969 -0.9804
vn 0.0414 -0.9890 -0.1424
vn -0.0689 0.0145 -0.9975
vn -0.1847 0.0398 -0.9820
vn -0.0000 0.1913 -0.9815
vn -0.0000 0.9994 -0.0340
vn -0.0681 0.9970 -0.0355
vn -0.0000 0.1926 -0.9813
vn -0.0000 0.9994 -0.0336
vn 0.1702 -0.0522 -0.9840
vn -0.0000 -0.1924 -0.9813
vn -0.0000 -0.9994 -0.0336
vn 0.0441 -0.9984 -0.0352
vn -0.0000 -0.1925 -0.9813
vn -0.0000 -0.9994 -0.0333
vn -0.0002 -0.9942 0.1076
vn 0.0003 -0.0128 0.9999
vn -0.0001 0.9999 -0.0124
vn -0.0000 -0.1969 -0.9804
vn -0.0000 0.1925 -0.9813
vn -0.0000 0.9994 -0.0334
vn -0.0000 -0.1926 -0.9813
vn -0.0001 -0.9994 -0.0335
vn -0.0000 0.9999 -0.0124
vn -0.0001 -0.9999 -0.0124
vn -0.0000 -0.1968 -0.9804
vn -0.0000 -0.9994 -0.0335
vn -0.0000 -0.9994 -0.0337
vn 0.0574 -0.9964 0.0629
vn -0.0574 -0.9964 0.0629
vn -0.0602 0.9960 0.0660
vn 0.0602 0.9960 0.0660
vn 0.0602 -0.9962 0.0632
vn -0.0601 -0.9962 0.0632
vn -0.0269 -0.0208 0.9994
vn 0.0269 -0.0208 0.9994
vn 0.0269 0.0208 0.9994
vn -0.0269 0.0208 0.9994
vn -0.0574 0.9965 0.0604
vn -0.9989 -0.0431 0.0166
vn -0.9989 0.0431 0.0166
vn -0.9989 -0.0450 0.0164
vn -0.9989 0.0450 0.0164
vn 0.9989 0.0450 0.0164
vn 0.9989 -0.0450 0.0164
vn 0.9989 0.0431 0.0166
vn 0.9989 -0.0431 0.0166
vn -0.0576 -0.9972 0.0487
vn 0.0576 -0.9972 0.0487
vn 0.0575 0.9970 0.0510
vn -0.0578 0.0438 0.9974
vn 0.0578 0.0438 0.9974
vn -0.9986 -0.0000 0.0536
vn -0.9977 -0.0444 0.0514
vn -0.0591 -0.0002 0.9983
vn -0.9985 0.0003 0.0540
vn -0.0591 -0.0000 0.9983
vn -0.0577 0.0439 0.9974
vn 0.0590 -0.0000 0.9983
vn 0.9985 -0.0000 0.0540
vn 0.9975 0.0462 0.0539
vn 0.9986 -0.0000 0.0536
vn 0.9991 0.0054 -0.0420
vn 0.0601 0.9960 0.0660
vn 0.0635 0.9967 -0.0511
vn 0.0590 0.9983 -0.0000
vn 0.9989 0.0468 -0.0000
vn 0.0634 -0.9968 -0.0488
vn 0.0601 -0.9962 0.0632
vn 0.9989 -0.0450 0.0163
vn 0.9991 -0.0052 -0.0425
vn -0.0590 -0.9983 -0.0000
vn -0.0576 -0.9971 0.0488
vn -0.9990 -0.0450 -0.0000
vn -0.9991 -0.0052 -0.0425
vn -0.9989 -0.0450 0.0163
vn 0.9990 -0.0450 -0.0000
vn 0.0590 -0.9983 -0.0000
vn -0.0591 0.9983 -0.0000
vn -0.9989 0.0450 0.0163
vn -0.9989 0.0468 -0.0000
vn -0.9991 0.0054 -0.0421
vn -0.0635 0.9967 -0.0511
vn -0.0601 0.9960 0.0661
vn -0.0573 -0.9964 0.0630
vn 0.9990 -0.0450 -0.0002
vn 0.0573 -0.9964 0.0630
vn -0.0600 0.0119 -0.9981
vn 0.0600 0.0119 -0.9981
vn 0.0574 0.9965 0.0604
vn 0.0591 0.9983 -0.0000
vn 0.9989 0.0450 0.0163
vn -0.0590 0.9983 -0.0000
vn -0.9975 0.0462 0.0540
vn 0.0600 -0.0005 -0.9982
vn -0.0600 -0.0005 -0.9982
vn -0.0634 -0.9968 -0.0488
vn -0.9991 0.0055 -0.0421
vn -0.9991 -0.0053 -0.0424
vn -0.9985 -0.0000 0.0540
vn -0.9986 0.0002 0.0536
vn 0.9991 -0.0053 -0.0424
vn 0.9991 0.0054 -0.0421
vn -0.0000 -1.0000 -0.0000
vn -1.0000 -0.0000 -0.0000
vn -0.0000 1.0000 -0.0000
vn 0.0424 -0.0000 0.9991
vn 0.0424 -0.9991 -0.0000
vn 0.0424 0.9991 -0.0000
vn -0.0000 -0.9999 -0.0127
vn -0.1904 0.0408 -0.9809
vn -0.2369 -0.0000 -0.9715
vn -0.0000 0.9999 -0.0127
vn 0.9999 -0.0128 -0.0108
vn 0.1868 0.0707 -0.9798
vn 0.9998 0.0140 -0.0107
vn -0.9999 0.0151 -0.0000
vn -0.0694 0.9976 -0.0000
vn -0.9894 -0.0000 -0.1453
vn -0.0694 -0.0000 -0.9976
vn -0.0000 0.0151 -0.9999
vn -0.0000 -0.0138 -0.9999
vn -0.0694 -0.9976 -0.0000
vn -0.9999 -0.0138 -0.0000
vn 0.0414 -0.9889 -0.1424
vn 0.0450 -0.9990 -0.0000
vn 0.0450 -0.0000 -0.9990
vn 0.0450 0.9990 -0.0000
vn 0.9876 0.0150 -0.1563
vn 0.9995 -0.0135 -0.0289
vn 0.9927 -0.0000 0.1205
vn -0.0443 0.9990 0.0114
vn -0.0454 0.9989 0.0115
vn 0.1671 -0.9845 0.0528
vn -0.0027 0.9999 0.0115
vn 0.0085 0.7969 0.6041
vn 0.1968 -0.0628 -0.9784
vn 0.9855 -0.0000 -0.1695
vn 0.9998 0.0076 -0.0167
vn -0.0476 0.9987 -0.0187
vn -0.0008 0.9995 -0.0313
vn 0.2392 -0.0146 -0.9708
vn 0.9994 -0.0149 -0.0317
vn 0.2386 0.0102 -0.9711
vn -0.0000 0.9894 -0.1453
vn -0.0000 -0.9994 -0.0334
vn 0.0591 -0.9983 -0.0000
vn -0.0591 -0.9983 -0.0000
vn -0.0601 -0.9962 0.0633
vn -0.0268 -0.0208 0.9994
vn -0.0268 0.0208 0.9994
vn 0.0268 -0.0208 0.9994
vn -0.9989 0.0469 -0.0000
vn 0.9989 0.0469 -0.0000
vn 0.0576 -0.9971 0.0487
vn -0.0576 -0.9971 0.0487
vn 0.0591 -0.0000 0.9983
vn 0.9986 -0.0000 0.0537
vn -0.9986 -0.0000 0.0537
vt 0.404111 0.402226
vt 0.475179 0.402226
vt 0.475179 0.420449
vt 0.404111 0.420449
vt 0.297301 0.402226
vt 0.297301 0.420449
vt 0.224278 0.402226
vt 0.224278 0.420449
vt 0.283150 0.600310
vt 0.350098 0.600310
vt 0.350098 0.830059
vt 0.283150 0.830059
vt 0.180515 0.600310
vt 0.180515 0.830059
vt 0.111724 0.600310
vt 0.111724 0.830059
vt 0.111724 0.555395
vt 0.180515 0.555395
vt 0.180515 0.572561
vt 0.111724 0.572561
vt 0.283150 0.555395
vt 0.283150 0.572561
vt 0.350098 0.555395
vt 0.350098 0.572561
vt 0.297301 0.372771
vt 0.404111 0.372771
vt 0.404111 0.128887
vt 0.475179 0.128886
vt 0.475179 0.372771
vt 0.297301 0.128887
vt 0.224278 0.128887
vt 0.224278 0.372771
vt 0.145343 0.434727
vt 0.147095 0.434727
vt 0.146344 0.436229
vt 0.545957 0.436729
vt 0.545957 0.434977
vt 0.547458 0.435728
vt 0.146845 0.104772
vt 0.147345 0.106274
vt 0.145593 0.106274
vt 0.547458 0.105773
vt 0.545957 0.106274
vt 0.545957 0.104522
vt 0.051724 0.434727
vt 0.051724 0.435728
vt 0.049993 0.434830
vt 0.641912 0.434727
vt 0.643675 0.434829
vt 0.643113 0.435291
vt 0.051724 0.106274
vt 0.049981 0.106186
vt 0.051724 0.105273
vt 0.546958 0.010652
vt 0.545957 0.010652
vt 0.545848 0.009037
vt 0.534347 0.541001
vt 0.536438 0.540095
vt 0.535348 0.541001
vt 0.001001 0.689698
vt 0.000000 0.689031
vt 0.001001 0.687947
vt 0.001001 0.312304
vt 0.000000 0.311637
vt 0.001001 0.310552
vt 0.040053 0.851303
vt 0.040053 0.852971
vt 0.039052 0.851303
vt 0.001001 0.998999
vt 0.001001 1.000000
vt 0.000000 0.998999
vt 0.158955 0.000000
vt 0.156847 0.000920
vt 0.157954 0.000000
vt 0.038050 0.311970
vt 0.038050 0.310302
vt 0.039051 0.311303
vt 0.038050 1.000000
vt 0.038050 0.998999
vt 0.039051 1.000000
vt 0.476180 0.010652
vt 0.475227 0.010606
vt 0.474775 0.009021
vt 0.403110 0.010402
vt 0.402874 0.008650
vt 0.403826 0.009601
vt 0.404111 0.010129
vt 0.298302 0.010653
vt 0.297327 0.010637
vt 0.297765 0.009577
vt 0.298546 0.008901
vt 0.223277 0.010653
vt 0.224691 0.009023
vt 0.224278 0.010637
vt 0.784870 0.123640
vt 0.784833 0.123100
vt 0.785490 0.123339
vt 0.401242 0.001001
vt 0.401051 0.000000
vt 0.402149 0.000858
vt 0.404090 0.009551
vt 0.300223 0.001001
vt 0.298437 0.006531
vt 0.299469 0.000865
vt 0.300418 0.000000
vt 0.229625 0.000000
vt 0.230244 0.000581
vt 0.230006 0.000943
vt 0.225332 0.096024
vt 0.223444 0.097025
vt 0.224303 0.095516
vt 0.756075 0.116529
vt 0.757078 0.116515
vt 0.757028 0.117495
vt 0.405215 0.096024
vt 0.403277 0.097025
vt 0.404160 0.095499
vt 0.752434 0.232731
vt 0.753442 0.232687
vt 0.753347 0.233682
vt 0.111724 0.860107
vt 0.110723 0.858287
vt 0.112251 0.859121
vt 0.743518 0.234716
vt 0.742517 0.234733
vt 0.743471 0.233799
vt 0.283150 0.860076
vt 0.282149 0.858287
vt 0.283701 0.859121
vt 0.739568 0.288761
vt 0.738567 0.288812
vt 0.739489 0.287955
vt 0.754316 0.127932
vt 0.755359 0.126389
vt 0.755963 0.127806
vt 0.685000 0.128183
vt 0.683248 0.128231
vt 0.674459 0.126896
vt 0.684240 0.126670
vt 0.748137 0.117530
vt 0.749040 0.117530
vt 0.749767 0.118512
vt 0.675663 0.126098
vt 0.674447 0.126646
vt 0.673548 0.125686
vt 0.674588 0.125655
vt 0.673501 0.309038
vt 0.674502 0.307510
vt 0.675252 0.308989
vt 0.741901 0.308514
vt 0.740449 0.308989
vt 0.740346 0.307249
vt 0.684250 0.214076
vt 0.683248 0.212600
vt 0.685000 0.212553
vt 0.754213 0.214555
vt 0.754316 0.212804
vt 0.755769 0.213552
vt 0.757131 0.010652
vt 0.757319 0.008926
vt 0.761787 0.007594
vt 0.758870 0.010668
vt 0.685860 0.010652
vt 0.684108 0.010668
vt 0.684805 0.008996
vt 0.759012 0.000967
vt 0.759247 -0.000000
vt 0.760197 -0.000000
vt 0.759785 0.000074
vt 0.676715 0.003516
vt 0.674797 0.002850
vt 0.675782 0.002834
vt 0.674782 0.256255
vt 0.675783 0.254745
vt 0.676533 0.256239
vt 0.745048 0.255746
vt 0.743573 0.256239
vt 0.743520 0.254491
vt 0.685109 0.096532
vt 0.684108 0.095039
vt 0.685860 0.095023
vt 0.757078 0.097025
vt 0.757131 0.095273
vt 0.758607 0.096024
vt 0.051677 0.926190
vt 0.051630 0.926266
vt 0.051680 0.926153
vt 0.272282 0.395452
vt 0.273452 0.396723
vt 0.271782 0.396453
vt 0.297647 0.958232
vt 0.297756 0.956948
vt 0.298983 0.958399
vt 0.450697 0.395452
vt 0.451869 0.396729
vt 0.450196 0.396453
vt 0.249297 0.379546
vt 0.248127 0.378275
vt 0.249797 0.378545
vt 0.051481 0.925437
vt 0.051557 0.925405
vt 0.052101 0.925913
vt 0.428593 0.379546
vt 0.427421 0.378268
vt 0.429094 0.378545
vt 0.292370 0.910571
vt 0.291543 0.909100
vt 0.292984 0.909485
vt 0.052798 0.926864
vt 0.053076 0.926323
vt 0.053292 0.926521
vt 0.052263 0.927373
vt 0.052784 0.927561
vt 0.052617 0.927775
vt 0.266771 0.924220
vt 0.265548 0.924329
vt 0.266005 0.923426
vt 0.267802 0.930113
vt 0.267202 0.931070
vt 0.266458 0.930395
vt 0.045867 0.936418
vt 0.046145 0.937572
vt 0.045606 0.937192
vt 0.040013 0.915138
vt 0.039428 0.914759
vt 0.039557 0.913651
vt 0.251616 0.896210
vt 0.249643 0.894976
vt 0.250830 0.894999
vt 0.195362 0.962741
vt 0.194364 0.962741
vt 0.195365 0.961740
vt 0.137096 0.434727
vt 0.137096 0.435728
vt 0.475179 0.434727
vt 0.475179 0.436729
vt 0.546958 0.096024
vt 0.545957 0.096024
vt 0.224278 0.106274
vt 0.224278 0.104272
vt 0.145343 0.128887
vt 0.147345 0.128887
vt 0.547959 0.420449
vt 0.545957 0.420449
vt 0.546958 0.444977
vt 0.546958 0.530349
vt 0.545957 0.530349
vt 0.545957 0.444977
vt 0.137096 0.106274
vt 0.137096 0.105273
vt 0.641578 0.128886
vt 0.641578 0.106274
vt 0.643694 0.106188
vt 0.643676 0.129658
vt 0.051724 0.420449
vt 0.049638 0.419641
vt 0.147345 0.010653
vt 0.147451 0.008732
vt 0.224882 0.532268
vt 0.147434 0.532255
vt 0.147345 0.530349
vt 0.224278 0.530349
vt 0.006818 0.689698
vt 0.006818 0.687696
vt 0.000000 0.383975
vt 0.001001 0.383975
vt 0.001001 0.296909
vt 0.000000 0.296909
vt 0.001001 0.977755
vt 0.000000 0.977755
vt 0.111724 0.853305
vt 0.111724 0.851303
vt 0.006817 0.001001
vt 0.001001 0.001001
vt 0.001001 0.000000
vt 0.006817 0.000000
vt 0.006818 0.310302
vt 0.006818 0.312304
vt 0.006818 0.998999
vt 0.006818 1.000000
vt 0.653154 0.136323
vt 0.653135 0.113934
vt 0.654251 0.115850
vt 0.654251 0.137094
vt 0.040137 0.412566
vt 0.040147 0.427051
vt 0.039052 0.425151
vt 0.039052 0.411758
vt 0.230626 0.541001
vt 0.158955 0.541001
vt 0.156865 0.540096
vt 0.230022 0.540083
vt 0.224278 0.434727
vt 0.224278 0.436729
vt 0.297301 0.434727
vt 0.297301 0.436729
vt 0.404111 0.434727
vt 0.404111 0.436729
vt 0.475179 0.106274
vt 0.475179 0.104272
vt 0.404111 0.106274
vt 0.404111 0.104272
vt 0.297301 0.106274
vt 0.297301 0.104272
vt 0.545868 0.532256
vt 0.474591 0.532268
vt 0.475179 0.530349
vt 0.403914 0.532274
vt 0.404111 0.530349
vt 0.297504 0.532274
vt 0.297301 0.530349
vt 0.000000 0.622349
vt 0.001001 0.622349
vt 0.000000 0.555401
vt 0.001001 0.555401
vt 0.000000 0.452767
vt 0.001001 0.452767
vt 0.415445 0.853305
vt 0.350098 0.853305
vt 0.350098 0.851303
vt 0.415445 0.851303
vt 0.283150 0.853305
vt 0.283150 0.851303
vt 0.180515 0.853305
vt 0.180515 0.851303
vt 0.536457 0.000922
vt 0.469606 0.000946
vt 0.470001 0.000000
vt 0.534347 0.000000
vt 0.664999 0.213468
vt 0.665101 0.214465
vt 0.664578 0.095347
vt 0.664631 0.096347
vt 0.469000 0.541001
vt 0.469588 0.540082
vt 0.402052 0.541001
vt 0.402249 0.540076
vt 0.299418 0.541001
vt 0.299215 0.540077
vt 0.111724 0.890338
vt 0.110723 0.890354
vt 0.181516 0.858120
vt 0.181516 0.890354
vt 0.180515 0.890338
vt 0.180515 0.860107
vt 0.283150 0.890305
vt 0.282149 0.890354
vt 0.351099 0.858120
vt 0.351099 0.890354
vt 0.350098 0.890305
vt 0.350098 0.860076
vt 0.298302 0.097025
vt 0.297301 0.095007
vt 0.476180 0.097025
vt 0.475179 0.094975
vt 0.474271 0.096024
vt 0.296350 0.096024
vt 0.038050 0.689698
vt 0.038050 0.687696
vt 0.038050 0.001001
vt 0.038050 0.000000
vt 0.349190 0.859121
vt 0.179564 0.859121
vt 0.683423 0.118513
vt 0.683191 0.117530
vt 0.675503 0.339220
vt 0.673501 0.339267
vt 0.742451 0.339267
vt 0.740449 0.339221
vt 0.664053 0.127140
vt 0.664999 0.129099
vt 0.774566 0.129099
vt 0.776579 0.127655
vt 0.766584 0.122232
vt 0.764581 0.122695
vt 0.655252 0.309906
vt 0.655353 0.308899
vt 0.655299 0.126554
vt 0.664053 0.127140
vt 0.690822 0.000965
vt 0.692458 0.000000
vt 0.676784 0.286470
vt 0.674781 0.286486
vt 0.745575 0.286486
vt 0.743573 0.286470
vt 0.655304 0.255561
vt 0.655252 0.256563
vt 0.655162 0.003840
vt 0.655268 0.003158
vt 0.662666 0.009325
vt 0.664578 0.010976
vt 0.778663 0.010976
vt 0.779528 0.008988
vt 0.768597 0.006882
vt 0.788127 0.007190
vt 0.782540 0.008103
vt 0.767748 0.007869
vt 0.145343 0.420449
vt 0.147345 0.420449
vt 0.145343 0.372771
vt 0.147345 0.372771
vt 0.547959 0.128886
vt 0.545957 0.128886
vt 0.547959 0.402226
vt 0.545957 0.402226
vt 0.641578 0.420449
vt 0.643665 0.419640
vt 0.641578 0.372771
vt 0.643666 0.372219
vt 0.051724 0.128887
vt 0.049628 0.129657
vt 0.051724 0.402227
vt 0.049641 0.401519
vt 0.001001 0.022245
vt 0.000000 0.022245
vt 0.000000 0.001001
vt 0.001001 0.279743
vt 0.000000 0.279743
vt 0.001001 0.703091
vt 0.000000 0.703091
vt 0.001001 0.748006
vt 0.000000 0.748006
vt 0.653155 0.427051
vt 0.653165 0.412567
vt 0.654251 0.411758
vt 0.654251 0.425151
vt 0.653164 0.367395
vt 0.654251 0.366843
vt 0.040164 0.113937
vt 0.040146 0.136324
vt 0.039051 0.137094
vt 0.039051 0.115850
vt 0.040133 0.395300
vt 0.039052 0.394592
vt 0.145343 0.402226
vt 0.147345 0.402226
vt 0.547959 0.372771
vt 0.545957 0.372771
vt 0.641578 0.402226
vt 0.643662 0.401518
vt 0.051724 0.372771
vt 0.049638 0.372220
vt 0.001001 0.251994
vt 0.000000 0.251994
vt 0.001001 0.720258
vt 0.000000 0.720258
vt 0.653168 0.395300
vt 0.654251 0.394592
vt 0.040136 0.367394
vt 0.039052 0.366843
vt 0.249297 0.395452
vt 0.248127 0.396723
vt 0.273452 0.378275
vt 0.272282 0.379546
vt 0.428593 0.395452
vt 0.427421 0.396729
vt 0.451869 0.378268
vt 0.450697 0.379546
vt 0.250298 0.396453
vt 0.429594 0.396453
vt 0.449696 0.378545
vt 0.271281 0.378545
vt 0.063340 0.936737
vt 0.063820 0.934921
vt 0.250725 0.940094
vt 0.250199 0.937883
vt 0.250504 0.918860
vt 0.250857 0.916696
vt 0.064098 0.916260
vt 0.063493 0.914446
vt 0.275377 0.918561
vt 0.274614 0.917170
vt 0.263708 0.903033
vt 0.279121 0.891946
vt 0.279705 0.892732
vt 0.262675 0.904833
vt 0.051624 0.926882
vt 0.051370 0.927361
vt 0.270432 0.953589
vt 0.272572 0.955098
vt 0.051820 0.925842
vt 0.052402 0.926409
vt 0.278663 0.930440
vt 0.298733 0.928019
vt 0.298990 0.930330
vt 0.278524 0.932263
vt 0.051539 0.926091
vt 0.051438 0.925936
vt 0.051862 0.926014
vt 0.051975 0.926136
vt 0.194364 0.978647
vt 0.195365 0.978647
vt 0.062248 0.958616
vt 0.251030 0.960559
vt 0.248623 0.961728
vt 0.064616 0.959834
vt 0.065637 0.891378
vt 0.063234 0.892525
vt 0.137096 0.420449
vt 0.224278 0.444977
vt 0.147345 0.444977
vt 0.475179 0.444977
vt 0.556206 0.420449
vt 0.556206 0.434727
vt 0.137096 0.128887
vt 0.147345 0.096024
vt 0.556206 0.106274
vt 0.556206 0.128886
vt 0.038050 0.622349
vt 0.006818 0.622349
vt 0.006818 0.703091
vt 0.038050 0.703091
vt 0.350098 0.542002
vt 0.415445 0.542002
vt 0.415445 0.555395
vt 0.040052 0.542002
vt 0.111724 0.542002
vt 0.040052 0.555395
vt 0.006818 0.296909
vt 0.006818 0.383975
vt 0.040052 0.859121
vt 0.006817 0.022245
vt 0.040053 0.830059
vt 0.006818 0.977755
vt 0.415445 0.830059
vt 0.415445 0.859121
vt 0.040052 0.890354
vt 0.038050 0.022245
vt 0.038050 0.296909
vt 0.038050 0.383975
vt 0.038050 0.977755
vt 0.415445 0.890354
vt 0.297301 0.444977
vt 0.404111 0.444977
vt 0.774566 0.213468
vt 0.778663 0.095347
vt 0.006818 0.555401
vt 0.283150 0.542002
vt 0.006818 0.452767
vt 0.180515 0.542002
vt 0.760700 0.309906
vt 0.760700 0.340135
vt 0.655252 0.340135
vt 0.765104 0.256563
vt 0.765104 0.286794
vt 0.655252 0.286794
vt 0.038050 0.555401
vt 0.038050 0.452767
vt 0.685057 0.116529
vt 0.683378 0.232731
vt 0.675730 0.234733
vt 0.673630 0.288812
vt 0.137096 0.402227
vt 0.137096 0.372771
vt 0.556206 0.372771
vt 0.556206 0.402226
vt 0.006818 0.251994
vt 0.040052 0.600310
vt 0.006818 0.279743
vt 0.040052 0.572561
vt 0.415445 0.572561
vt 0.006818 0.720258
vt 0.415445 0.600310
vt 0.006818 0.748006
vt 0.038050 0.720258
vt 0.038050 0.748006
vt 0.038050 0.251994
vt 0.038050 0.279743
vt 0.040052 0.996555
vt 0.040052 0.980649
vt 0.058950 0.980649
vt 0.058950 0.996555
vt 0.079850 0.996555
vt 0.079850 0.980649
vt 0.098642 0.980649
vt 0.098642 0.996555
vt 0.077848 0.980649
vt 0.077848 0.996555
vt 0.040052 0.962741
vt 0.040052 0.978647
s 0
usemtl Material.001
f 54/1/1 56/2/1 24/3/1 22/4/1
f 52/5/1 54/1/1 22/4/1 20/6/1
f 50/7/1 52/5/1 20/6/1 18/8/1
f 43/9/2 44/10/2 16/11/2 14/12/2
f 42/13/2 43/9/2 14/12/2 12/14/2
f 41/15/2 42/13/2 12/14/2 10/16/2
f 9/17/2 11/18/2 34/19/2 33/20/2
f 11/18/2 13/21/2 35/22/2 34/19/2
f 13/21/2 15/23/2 36/24/2 35/22/2
f 51/25/1 53/26/1 54/1/1 52/5/1
f 21/27/1 23/28/1 55/29/1 53/26/1
f 19/30/1 21/27/1 53/26/1 51/25/1
f 17/31/1 19/30/1 51/25/1 49/32/1
f 33/20/2 34/19/2 42/13/2 41/15/2
f 34/19/2 35/22/2 43/9/2 42/13/2
f 35/22/2 36/24/2 44/10/2 43/9/2
f 57/33/3 58/34/4 59/35/5
f 60/36/6 61/37/7 62/38/8
f 63/39/9 64/40/10 65/41/11
f 66/42/12 67/43/13 68/44/14
f 69/45/15 70/46/16 71/47/17
f 72/48/18 73/49/19 74/50/20
f 75/51/21 76/52/22 77/53/23
f 78/54/24 79/55/25 80/56/26
f 81/57/27 82/58/28 83/59/29
f 84/60/30 85/61/31 86/62/32
f 87/63/33 88/64/34 89/65/35
f 90/66/36 91/67/37 92/68/38
f 93/69/39 94/70/40 95/71/41
f 96/72/42 97/73/43 98/74/44
f 99/75/45 100/76/46 101/77/47
f 102/78/48 103/79/49 104/80/50
f 121/81/51 122/82/52 123/83/53
f 124/84/54 125/85/55 126/86/56 127/87/57
f 128/88/58 129/89/59 130/90/60 131/91/61
f 132/92/62 133/93/63 134/94/64
f 159/95/65 160/96/66 161/97/67
f 162/98/68 163/99/69 164/100/70 165/101/71
f 166/102/72 167/103/73 168/104/74 169/105/75
f 170/106/76 171/107/77 172/108/78
f 189/109/79 190/110/80 191/111/81
f 192/112/82 193/113/83 194/114/84
f 195/115/85 196/116/86 197/117/87
f 198/118/88 199/119/89 200/120/90
f 209/121/91 210/122/92 211/123/93
f 212/124/94 213/125/95 214/126/96
f 215/127/97 216/128/98 217/129/99
f 218/130/100 219/131/101 220/132/102
f 221/133/103 222/134/104 223/135/105
f 224/136/106 225/137/107 226/138/108 227/139/109
f 228/140/110 229/141/111 230/142/112
f 231/143/113 232/144/114 233/145/115 234/146/116
f 235/147/117 236/148/118 237/149/119
f 238/150/120 239/151/121 240/152/122
f 241/153/123 242/154/124 243/155/125
f 244/156/126 245/157/127 246/158/128
f 247/159/129 248/160/130 249/161/131 250/162/132
f 251/163/133 252/164/134 253/165/135
f 254/166/136 255/167/137 256/168/138 257/169/139
f 258/170/140 259/171/141 260/172/142
f 261/173/143 262/174/144 263/175/145
f 264/176/146 265/177/147 266/178/148
f 267/179/149 268/180/150 269/181/151
f 270/182/152 271/183/153 272/184/154
f 321/185/155 322/186/156 323/187/157
f 324/188/158 325/189/159 326/190/160
f 327/191/161 328/192/162 329/193/163
f 330/194/164 331/195/165 332/196/166
f 349/197/167 350/198/168 351/199/169
f 352/200/170 353/201/171 354/202/172
f 355/203/173 356/204/174 357/205/175
f 358/206/176 359/207/177 360/208/178
f 361/209/179 362/210/180 363/211/181
f 364/212/182 365/213/183 366/214/184
f 375/215/185 376/216/186 377/217/187
f 378/218/188 379/219/189 380/220/190
f 381/221/191 382/222/192 383/223/193
f 384/224/194 385/225/195 386/226/196
f 393/227/197 394/228/198 395/229/199
f 396/230/200 397/231/201 398/232/202
f 182/233/203 57/33/3 59/35/204 181/234/205
f 112/235/206 61/37/207 60/36/208 111/236/209
f 184/237/210 66/42/12 68/44/14 183/238/211
f 120/239/212 64/40/213 63/39/214 119/240/215
f 276/241/216 65/41/11 64/40/217 275/242/218
f 280/243/219 62/38/220 61/37/207 279/244/221
f 186/245/222 72/246/18 74/247/223 185/248/224
f 188/249/225 75/51/226 77/53/227 187/250/228
f 284/251/229 78/252/230 80/253/26 283/254/231
f 288/255/232 69/45/233 71/47/234 287/256/235
f 132/92/23 77/257/227 76/258/22 133/93/63
f 142/259/236 71/260/237 70/261/238 141/262/239
f 202/263/240 84/60/241 86/62/32 201/264/242
f 150/265/243 88/64/244 87/63/33 149/266/245
f 292/267/246 89/65/35 88/64/247 291/268/248
f 296/269/249 93/69/250 95/71/41 295/270/251
f 158/271/252 91/67/37 90/66/253 157/272/254
f 204/273/255 92/274/38 91/275/256 203/276/257
f 206/277/258 100/76/259 99/75/260 205/278/261
f 208/279/262 103/79/49 102/78/263 207/280/264
f 300/281/265 104/282/266 103/283/49 299/284/267
f 304/285/268 101/286/269 100/287/270 303/288/271
f 172/108/78 97/73/272 96/72/273 170/106/76
f 180/289/274 99/290/45 101/291/275 179/292/276
f 58/34/277 105/293/206 106/294/209 59/35/278
f 105/293/206 107/295/206 108/296/209 106/294/209
f 107/295/206 109/297/206 110/298/209 108/296/209
f 109/297/206 112/235/206 111/236/209 110/298/209
f 67/43/279 113/299/212 114/300/280 68/44/14
f 113/299/212 115/301/212 116/302/281 114/300/280
f 115/301/212 117/303/212 118/304/281 116/302/281
f 117/303/212 120/239/212 119/240/215 118/304/282
f 79/55/25 121/81/283 123/83/284 80/56/26
f 246/158/285 199/119/286 198/118/287 244/156/288
f 124/84/289 128/88/290 131/91/291 125/85/55
f 272/184/154 193/113/292 192/112/293 270/182/294
f 73/305/19 135/306/295 136/307/239 74/247/296
f 135/306/297 137/308/298 138/309/239 136/307/239
f 137/308/299 139/310/299 140/311/239 138/309/300
f 139/310/299 142/259/236 141/262/239 140/311/239
f 85/61/301 143/312/243 144/313/302 86/62/303
f 143/312/243 145/314/243 146/315/302 144/313/302
f 145/314/243 147/316/243 148/317/302 146/315/302
f 147/316/243 150/265/243 149/266/302 148/317/302
f 94/318/40 151/319/304 152/320/254 95/321/41
f 151/319/304 153/322/305 154/323/254 152/320/254
f 153/322/305 155/324/305 156/325/254 154/323/254
f 155/324/305 158/271/252 157/272/254 156/325/254
f 104/326/306 159/327/307 161/328/308 102/329/263
f 197/330/309 242/154/124 241/153/310 195/331/311
f 162/98/312 166/102/313 169/105/314 163/99/315
f 191/332/316 268/180/150 267/179/317 189/333/318
f 81/57/319 173/334/274 174/335/320 82/58/321
f 173/334/274 175/336/322 176/337/323 174/335/320
f 175/336/274 177/338/274 178/339/323 176/337/323
f 177/338/324 180/289/274 179/292/276 178/339/323
f 209/121/325 171/340/326 170/341/327 210/122/328
f 214/342/96 169/343/314 168/344/329 212/345/330
f 215/127/331 164/346/332 163/347/333 216/128/98
f 220/348/334 161/349/335 160/350/66 218/351/336
f 125/85/337 162/98/338 165/101/339 126/86/340
f 130/90/341 167/103/342 166/102/313 131/91/343
f 69/45/15 182/233/203 181/234/205 70/46/344
f 78/54/345 184/237/210 183/238/211 79/55/25
f 62/38/8 186/245/222 185/248/224 60/36/346
f 65/41/11 188/249/225 187/250/228 63/39/347
f 134/94/64 191/111/348 190/110/80 132/92/349
f 128/88/290 194/352/350 193/353/292 129/89/351
f 127/87/352 197/117/353 196/116/354 124/84/355
f 121/81/283 200/354/356 199/355/357 122/82/358
f 200/354/356 196/116/86 195/115/359 198/356/287
f 194/352/360 190/110/361 189/109/318 192/357/293
f 83/358/362 202/263/240 201/264/242 81/359/27
f 98/360/363 204/273/255 203/276/257 96/361/273
f 89/65/364 206/277/258 205/278/261 87/63/33
f 93/69/365 208/279/262 207/280/264 94/70/40
f 219/362/366 217/129/367 216/128/98 220/348/368
f 213/363/369 211/123/370 210/122/371 214/342/96
f 221/133/372 224/136/106 227/139/373 222/134/374
f 230/142/375 231/364/376 234/365/377 228/140/378
f 237/149/379 234/366/377 233/367/115 235/147/117
f 238/150/380 229/368/381 228/369/378 239/151/382
f 226/138/108 232/144/56 231/143/376 227/139/383
f 224/136/384 243/155/385 242/154/124 225/137/386
f 223/135/105 246/158/128 245/157/127 221/133/103
f 244/156/126 241/153/123 243/155/125 245/157/387
f 239/151/121 237/149/379 236/148/388 240/152/122
f 126/370/56 226/138/108 225/137/386 127/371/352
f 122/372/358 223/135/105 222/134/104 123/373/284
f 229/374/389 160/96/66 159/95/390 230/375/391
f 240/152/122 219/131/392 218/130/336 238/150/393
f 235/147/117 215/376/394 217/377/395 236/148/388
f 164/378/396 233/145/397 232/144/114 165/379/339
f 247/159/398 251/163/133 253/165/399 248/160/400
f 254/166/401 258/380/402 260/381/403 255/167/404
f 263/175/145 260/382/405 259/383/406 261/173/407
f 264/176/408 256/384/409 255/385/404 265/177/410
f 248/160/400 254/166/136 257/169/139 249/161/411
f 251/163/412 269/181/413 268/180/414 252/164/134
f 250/162/415 272/184/154 271/183/416 247/159/398
f 270/182/152 267/179/417 269/181/151 271/183/418
f 265/177/410 263/175/419 262/174/144 266/178/148
f 211/386/420 262/174/144 261/173/143 209/387/325
f 258/170/421 172/388/422 171/389/326 259/171/423
f 133/390/63 253/165/399 252/164/134 134/391/64
f 129/392/424 250/162/425 249/161/411 130/393/426
f 256/394/138 168/395/74 167/396/73 257/397/60
f 266/178/427 213/125/95 212/124/330 264/176/146
f 57/33/428 273/398/216 274/399/218 58/34/429
f 334/400/216 276/241/216 275/242/218 333/401/218
f 66/42/12 277/402/219 278/403/221 67/43/430
f 308/404/219 280/243/219 279/244/221 307/405/221
f 72/48/18 281/406/431 282/407/432 73/49/19
f 336/408/229 284/251/229 283/254/231 335/409/433
f 75/51/226 285/410/434 286/411/435 76/52/436
f 312/412/437 288/255/438 287/256/439 311/413/440
f 92/274/441 289/414/246 290/415/248 90/416/36
f 314/417/246 292/267/246 291/268/248 313/418/248
f 84/60/241 293/419/249 294/420/251 85/61/442
f 338/421/249 296/269/249 295/270/251 337/422/251
f 82/423/443 297/424/444 298/425/445 83/426/446
f 340/427/447 300/281/265 299/284/267 339/428/448
f 97/429/449 301/430/450 302/431/451 98/432/452
f 320/433/453 304/285/268 303/288/271 319/434/454
f 273/398/216 305/435/455 306/436/218 274/399/456
f 342/437/219 308/404/219 307/405/221 341/438/221
f 281/406/431 309/439/457 310/440/433 282/407/432
f 344/441/437 312/412/437 311/413/458 343/442/458
f 346/443/246 314/417/246 313/418/248 345/444/248
f 293/419/249 315/445/249 316/446/251 294/420/251
f 297/424/444 317/447/459 318/448/460 298/425/445
f 348/449/461 320/433/453 319/434/454 347/450/462
f 305/435/216 334/400/455 333/401/218 306/436/218
f 309/439/463 336/408/229 335/409/433 310/440/433
f 315/445/249 338/421/249 337/422/251 316/446/251
f 317/447/459 340/427/447 339/428/448 318/448/460
f 277/402/219 342/437/219 341/438/221 278/403/221
f 285/410/434 344/441/464 343/442/458 286/411/465
f 289/414/246 346/443/246 345/444/248 290/415/248
f 301/430/450 348/449/461 347/450/466 302/431/467
f 349/197/468 321/451/469 323/452/157 350/198/168
f 354/453/172 325/189/159 324/188/470 352/454/471
f 355/203/472 327/455/473 329/456/474 356/204/475
f 360/457/476 331/195/477 330/194/478 358/458/176
f 325/189/159 323/452/157 322/459/479 326/190/480
f 331/195/477 329/456/474 328/460/481 332/196/482
f 359/461/483 357/205/484 356/204/475 360/457/476
f 353/462/485 351/199/486 350/198/168 354/453/172
f 363/211/181 365/213/183 364/212/487 361/209/488
f 375/215/489 378/218/188 380/220/490 376/216/491
f 370/463/492 366/214/493 365/213/183 369/464/494
f 379/219/189 373/465/495 374/466/496 380/220/497
f 376/216/186 371/467/498 372/468/499 377/217/500
f 368/469/498 363/211/181 362/210/180 367/470/501
f 386/226/502 353/201/485 352/200/503 384/224/504
f 392/471/505 375/215/489 377/217/500 391/472/506
f 395/473/507 355/474/508 357/475/509 393/476/510
f 388/477/511 364/212/512 366/214/493 387/478/513
f 398/479/514 328/192/515 327/191/473 396/480/200
f 390/481/516 362/210/180 361/209/488 389/482/517
f 400/483/518 330/484/164 332/485/519 399/486/520
f 326/487/480 382/222/521 381/221/522 324/488/523
f 321/185/524 388/477/511 387/478/513 322/186/479
f 351/489/486 390/481/525 389/482/517 349/490/526
f 383/223/527 385/225/528 384/224/504 381/221/522
f 358/206/529 392/471/530 391/472/506 359/207/531
f 378/218/188 400/483/532 399/486/520 379/219/533
f 394/491/534 397/231/535 396/230/536 395/492/507
f 382/493/537 398/494/538 397/495/201 383/496/527
f 369/464/496 374/466/496 373/465/539 370/463/540
f 385/497/528 394/228/534 393/227/541 386/498/542
f 367/470/501 372/468/499 371/467/498 368/469/498
f 182/233/203 28/499/543 273/398/216 57/33/3
f 59/35/278 106/294/209 1/500/544 181/501/205
f 274/399/218 18/8/1 105/293/206 58/34/429
f 111/236/209 60/36/208 185/248/224 4/502/544
f 24/3/1 279/244/221 61/37/7 112/235/206
f 25/503/545 186/504/222 62/38/8 280/243/219
f 64/40/10 120/239/546 17/31/1 275/242/218
f 27/505/543 188/249/547 65/41/11 276/241/216
f 187/506/228 190/110/80 119/240/215 63/39/9
f 184/507/548 26/508/545 277/402/219 66/42/12
f 200/354/90 183/238/211 68/44/14 114/300/280
f 113/299/546 67/43/430 278/403/221 23/28/1
f 71/260/237 142/259/236 179/292/276 101/291/275
f 181/501/205 1/500/544 141/262/239 70/261/238
f 287/256/235 71/47/237 101/286/275 304/285/268
f 69/45/15 288/255/549 28/499/543 182/233/203
f 73/49/550 282/407/432 297/424/444 82/423/321
f 135/306/551 73/305/19 82/58/28 174/335/320
f 281/406/552 72/48/18 186/504/222 25/503/545
f 4/502/544 185/248/224 74/247/296 136/307/239
f 76/52/22 286/411/465 301/430/450 97/429/272
f 133/93/63 76/258/22 97/73/449 172/108/78
f 285/410/232 75/51/21 188/249/547 27/505/543
f 77/257/23 132/92/553 190/110/80 187/506/228
f 80/56/26 123/83/284 159/327/554 104/326/266
f 121/81/283 79/55/555 183/238/211 200/354/90
f 283/254/231 80/253/26 104/282/306 300/281/459
f 78/252/24 284/251/431 26/508/545 184/507/548
f 173/509/274 81/359/319 201/264/556 8/510/544
f 31/511/545 202/263/557 83/358/362 298/512/445
f 293/419/249 84/60/241 202/263/557 31/511/545
f 8/510/544 201/264/556 86/62/303 144/313/558
f 143/513/559 85/514/301 294/515/560 15/23/2
f 88/516/244 150/517/559 9/17/2 291/518/561
f 89/65/35 292/267/246 30/519/543 206/277/562
f 205/278/563 5/520/544 149/266/558 87/63/33
f 91/67/37 158/271/252 210/122/92 203/521/257
f 289/414/246 92/274/564 204/273/565 29/522/543
f 290/523/561 10/16/2 157/272/566 90/66/36
f 93/69/250 296/269/249 32/524/545 208/279/567
f 16/11/2 295/525/560 95/321/41 152/320/566
f 151/319/304 94/318/568 207/526/264 220/348/102
f 203/521/257 210/122/92 170/341/76 96/527/569
f 29/522/543 204/273/565 98/360/363 302/528/467
f 206/277/562 30/519/543 303/529/271 100/76/270
f 99/75/45 180/530/274 5/520/544 205/278/563
f 208/279/567 32/524/545 299/531/267 103/79/49
f 220/348/102 207/526/264 102/532/263 161/349/67
f 106/294/209 108/296/209 2/533/544 1/500/544
f 18/8/1 20/6/1 107/295/206 105/293/206
f 108/296/209 110/298/209 3/534/544 2/533/544
f 20/6/1 22/4/1 109/297/206 107/295/206
f 110/298/209 111/236/209 4/502/544 3/534/544
f 22/4/1 24/3/1 112/235/206 109/297/206
f 196/116/354 200/354/90 114/300/280 116/302/570
f 115/301/546 113/299/546 23/28/1 21/27/1
f 194/352/84 196/116/354 116/302/570 118/304/570
f 117/303/546 115/301/546 21/27/1 19/30/1
f 190/110/80 194/352/84 118/304/570 119/240/215
f 120/239/546 117/303/546 19/30/1 17/31/1
f 122/372/358 199/535/571 246/158/572 223/135/105
f 159/95/390 123/373/284 222/134/374 230/375/112
f 128/88/58 124/84/355 196/116/354 194/352/84
f 197/330/309 127/371/352 225/137/386 242/154/124
f 125/85/337 131/91/291 166/102/313 162/98/68
f 126/370/56 165/379/71 232/144/114 226/138/573
f 129/392/59 193/536/292 272/184/574 250/162/415
f 167/396/342 130/393/575 249/161/411 257/397/60
f 191/332/348 134/391/64 252/164/134 268/180/150
f 133/390/63 172/388/78 258/170/402 253/165/576
f 137/308/299 135/306/551 174/335/320 176/337/323
f 3/534/544 4/502/544 136/307/239 138/309/239
f 2/533/544 3/534/544 138/309/239 140/311/239
f 139/310/299 137/308/299 176/337/323 178/339/323
f 1/500/544 2/533/544 140/311/239 141/262/239
f 142/259/236 139/310/299 178/339/323 179/292/276
f 7/537/544 8/510/544 144/313/558 146/315/558
f 145/538/559 143/513/559 15/23/2 13/21/2
f 6/539/544 7/537/544 146/315/558 148/317/302
f 147/540/559 145/538/559 13/21/2 11/18/2
f 5/520/544 6/539/544 148/317/302 149/266/558
f 150/517/559 147/540/559 11/18/2 9/17/2
f 14/12/2 16/11/2 152/320/566 154/323/566
f 153/322/577 151/319/304 220/348/102 216/128/98
f 12/14/2 14/12/2 154/323/566 156/325/566
f 155/324/305 153/322/305 216/128/98 214/342/96
f 10/16/2 12/14/2 156/325/566 157/272/566
f 158/271/252 155/324/577 214/342/578 210/122/92
f 218/541/100 160/542/66 229/368/579 238/150/380
f 214/342/578 216/128/98 163/347/333 169/343/314
f 164/543/70 215/376/331 235/147/117 233/367/115
f 212/544/580 168/545/329 256/384/138 264/176/146
f 171/546/326 209/387/325 261/173/143 259/383/423
f 175/547/324 173/509/274 8/510/544 7/537/544
f 177/548/324 175/547/324 7/537/544 6/539/544
f 180/530/274 177/548/324 6/539/544 5/520/544
f 192/112/293 189/549/318 267/179/317 270/182/152
f 198/118/287 195/550/311 241/153/123 244/156/126
f 211/551/370 213/125/95 266/178/148 262/174/144
f 217/552/367 219/131/366 240/152/122 236/148/388
f 224/136/106 221/133/372 245/157/127 243/155/385
f 222/134/374 227/139/581 231/364/376 230/142/375
f 237/149/582 239/151/382 228/369/110 234/366/377
f 251/163/412 247/159/398 271/183/153 269/181/413
f 248/160/583 253/165/399 258/380/421 254/166/401
f 263/175/145 265/177/410 255/385/404 260/382/403
f 28/499/543 38/553/543 305/435/216 273/398/216
f 306/436/218 50/7/1 18/8/1 274/399/218
f 47/554/543 27/505/543 276/241/216 334/400/216
f 275/242/218 17/31/1 49/32/1 333/401/218
f 23/28/1 278/403/221 341/438/221 55/29/1
f 26/508/545 45/555/545 342/437/219 277/402/219
f 56/2/1 307/405/221 279/244/221 24/3/1
f 37/556/545 25/503/545 280/243/219 308/404/219
f 282/407/432 310/440/433 317/447/459 297/424/444
f 309/439/229 281/406/552 25/503/545 37/556/545
f 335/409/433 283/254/231 300/281/459 340/427/447
f 284/251/431 336/408/229 45/555/545 26/508/545
f 286/411/465 343/442/458 348/449/453 301/430/450
f 344/441/434 285/410/232 27/505/543 47/554/543
f 311/413/458 287/256/235 304/285/268 320/433/453
f 288/255/549 312/412/437 38/553/543 28/499/543
f 346/443/246 289/414/246 29/522/543 48/557/543
f 345/558/561 41/15/2 10/16/2 290/523/561
f 292/267/246 314/417/246 39/559/543 30/519/543
f 291/518/561 9/17/2 33/20/2 313/560/561
f 15/23/2 294/515/560 316/561/560 36/24/2
f 315/445/584 293/419/249 31/511/545 40/562/545
f 44/10/2 337/563/560 295/525/560 16/11/2
f 296/269/249 338/421/249 46/564/545 32/524/545
f 40/562/545 31/511/545 298/512/445 318/565/460
f 32/524/545 46/564/545 339/566/448 299/531/267
f 48/557/543 29/522/543 302/528/467 347/567/451
f 30/519/543 39/559/543 319/568/585 303/529/271
f 38/553/543 47/554/543 334/400/216 305/435/216
f 333/401/218 49/32/1 50/7/1 306/436/218
f 45/555/545 37/556/545 308/404/219 342/437/219
f 55/29/1 341/438/221 307/405/221 56/2/1
f 336/408/229 309/439/229 37/556/545 45/555/545
f 310/440/433 335/409/433 340/427/447 317/447/459
f 312/412/437 344/441/434 47/554/543 38/553/543
f 343/442/458 311/413/458 320/433/453 348/449/453
f 314/417/246 346/443/246 48/557/543 39/559/543
f 313/560/561 33/20/2 41/15/2 345/558/561
f 338/421/249 315/445/584 40/562/545 46/564/545
f 36/24/2 316/561/560 337/563/560 44/10/2
f 46/564/545 40/562/545 318/565/460 339/566/448
f 39/559/543 48/557/543 347/567/451 319/568/585
f 321/569/155 349/570/167 389/571/586 388/572/587
f 323/452/157 325/189/159 52/5/1 50/7/1
f 350/198/168 323/452/157 50/7/1 49/32/1
f 326/487/480 322/186/479 387/478/513 382/222/521
f 352/200/471 324/488/470 381/221/522 384/224/504
f 325/189/159 354/453/172 51/25/1 52/5/1
f 327/573/588 355/574/472 395/575/199 396/576/200
f 329/456/589 331/195/590 56/2/1 54/1/1
f 356/204/591 329/456/589 54/1/1 53/26/1
f 332/485/482 328/192/481 398/479/202 399/486/592
f 358/206/529 330/484/478 400/483/518 392/471/530
f 331/195/590 360/457/178 55/29/1 56/2/1
f 351/489/486 353/201/485 386/226/542 390/481/516
f 354/453/172 350/198/168 49/32/1 51/25/1
f 357/475/484 359/207/483 391/472/593 393/476/197
f 360/457/178 356/204/591 53/26/1 55/29/1
f 388/572/587 389/571/586 361/577/594 364/578/595
f 363/211/181 368/469/596 369/464/496 365/213/183
f 390/481/516 386/226/542 367/470/597 362/210/180
f 382/222/537 387/478/513 366/214/493 370/463/598
f 369/464/496 368/469/596 371/467/596 374/466/496
f 386/498/542 393/227/197 372/468/499 367/470/597
f 382/493/537 370/463/598 373/465/539 398/494/202
f 371/467/596 376/216/186 380/220/190 374/466/496
f 393/476/197 391/472/593 377/217/500 372/468/499
f 399/486/592 398/479/514 373/465/539 379/219/189
f 392/471/530 400/483/518 378/218/188 375/215/185
f 383/579/527 397/231/535 394/491/534 385/580/528
