# Blender 5.0.1
# www.blender.org
mtllib bricks.mtl
o Bricks
v 11.994589 6.635197 2.933363
v 11.994589 6.978176 2.933363
v 11.774107 6.635197 2.933363
v 11.774107 6.978176 2.933363
v 11.994589 6.635197 2.188890
v 11.994589 6.978176 2.188890
v 11.774107 6.635197 2.188890
v 11.774107 6.978176 2.188890
v 11.994589 6.635197 2.159111
v 11.994589 6.978176 2.159111
v 11.774107 6.635197 2.159111
v 11.774107 6.978176 2.159111
v 11.994589 6.635197 1.414639
v 11.994589 6.978176 1.414639
v 11.774107 6.635197 1.414639
v 11.774107 6.978176 1.414639
v -3.001208 6.274823 -6.936749
v -3.001208 6.617801 -6.936749
v -3.001208 6.274823 -7.157230
v -3.001208 6.617801 -7.157230
v -2.256735 6.274823 -6.936749
v -2.256735 6.617801 -6.936749
v -2.256735 6.274823 -7.157230
v -2.256735 6.617801 -7.157230
v -2.226956 6.274823 -6.936749
v -2.226956 6.617801 -6.936749
v -2.226956 6.274823 -7.157230
v -2.226956 6.617801 -7.157230
v -1.482483 6.274823 -6.936749
v -1.482483 6.617801 -6.936749
v -1.482483 6.274823 -7.157230
v -1.482483 6.617801 -7.157230
v -1.452703 6.274823 -6.936749
v -1.452703 6.617801 -6.936749
v -1.452703 6.274823 -7.157230
v -1.452703 6.617801 -7.157230
v -0.708232 6.274823 -6.936749
v -0.708232 6.617801 -6.936749
v -0.708232 6.274823 -7.157231
v -0.708232 6.617801 -7.157231
v -0.678453 6.274823 -6.936749
v -0.678453 6.617801 -6.936749
v -0.678453 6.274823 -7.157231
v -0.678453 6.617801 -7.157231
v 0.066020 6.274823 -6.936749
v 0.066020 6.617801 -6.936749
v 0.066020 6.274823 -7.157231
v 0.066020 6.617801 -7.157231
v 0.095798 6.274823 -6.936749
v 0.095798 6.617801 -6.936749
v 0.095798 6.274823 -7.157231
v 0.095798 6.617801 -7.157231
v 0.840272 6.274823 -6.936749
v 0.840272 6.617801 -6.936749
v 0.840272 6.274823 -7.157231
v 0.840272 6.617801 -7.157231
v 0.870051 6.274823 -6.936749
v 0.870051 6.617801 -6.936749
v 0.870051 6.274823 -7.157231
v 0.870051 6.617801 -7.157231
v 1.614523 6.274823 -6.936749
v 1.614523 6.617801 -6.936749
v 1.614523 6.274823 -7.157231
v 1.614523 6.617801 -7.157231
v 1.644303 6.274823 -6.936749
v 1.644303 6.617801 -6.936749
v 1.644303 6.274823 -7.157231
v 1.644303 6.617801 -7.157231
v 2.388775 6.274823 -6.936749
v 2.388775 6.617801 -6.936749
v 2.388775 6.274823 -7.157231
v 2.388775 6.617801 -7.157231
v 2.418554 6.274823 -6.936749
v 2.418554 6.617801 -6.936749
v 2.418554 6.274823 -7.157231
v 2.418554 6.617801 -7.157231
v 3.163027 6.274823 -6.936749
v 3.163027 6.617801 -6.936749
v 3.163027 6.274823 -7.157231
v 3.163027 6.617801 -7.157231
v 3.192806 6.274823 -6.936749
v 3.192806 6.617801 -6.936749
v 3.192806 6.274823 -7.157231
v 3.192806 6.617801 -7.157231
v 3.937278 6.274823 -6.936749
v 3.937278 6.617801 -6.936749
v 3.937278 6.274823 -7.157231
v 3.937278 6.617801 -7.157231
v 3.967058 6.274823 -6.936749
v 3.967058 6.617801 -6.936749
v 3.967058 6.274823 -7.157231
v 3.967058 6.617801 -7.157231
v 4.711530 6.274823 -6.936749
v 4.711530 6.617801 -6.936749
v 4.711530 6.274823 -7.157231
v 4.711530 6.617801 -7.157231
v 4.741309 6.274823 -6.936749
v 4.741309 6.617801 -6.936749
v 4.741309 6.274823 -7.157231
v 4.741309 6.617801 -7.157231
v 5.485782 6.274823 -6.936750
v 5.485782 6.617801 -6.936750
v 5.485782 6.274823 -7.157231
v 5.485782 6.617801 -7.157231
v 5.515561 6.274823 -6.936750
v 5.515561 6.617801 -6.936750
v 5.515561 6.274823 -7.157231
v 5.515561 6.617801 -7.157231
v 6.260034 6.274823 -6.936749
v 6.260034 6.617801 -6.936749
v 6.260034 6.274823 -7.157230
v 6.260034 6.617801 -7.157230
v -2.560177 6.646568 -6.936749
v -2.560177 6.989546 -6.936749
v -2.560177 6.646568 -7.157230
v -2.560177 6.989546 -7.157230
v -1.815704 6.646568 -6.936749
v -1.815704 6.989546 -6.936749
v -1.815704 6.646568 -7.157230
v -1.815704 6.989546 -7.157230
v -1.785925 6.646568 -6.936749
v -1.785925 6.989546 -6.936749
v -1.785925 6.646568 -7.157230
v -1.785925 6.989546 -7.157230
v -1.041451 6.646568 -6.936749
v -1.041451 6.989546 -6.936749
v -1.041451 6.646568 -7.157230
v -1.041451 6.989546 -7.157230
v -1.011673 6.646568 -6.936749
v -1.011673 6.989546 -6.936749
v -1.011673 6.646568 -7.157230
v -1.011673 6.989546 -7.157230
v -0.267201 6.646568 -6.936749
v -0.267201 6.989546 -6.936749
v -0.267201 6.646568 -7.157231
v -0.267201 6.989546 -7.157231
v -0.237422 6.646568 -6.936749
v -0.237422 6.989546 -6.936749
v -0.237422 6.646568 -7.157231
v -0.237422 6.989546 -7.157231
v 0.507051 6.646568 -6.936749
v 0.507051 6.989546 -6.936749
v 0.507051 6.646568 -7.157231
v 0.507051 6.989546 -7.157231
v 0.536830 6.646568 -6.936749
v 0.536830 6.989546 -6.936749
v 0.536830 6.646568 -7.157231
v 0.536830 6.989546 -7.157231
v 1.281303 6.646568 -6.936749
v 1.281303 6.989546 -6.936749
v 1.281303 6.646568 -7.157231
v 1.281303 6.989546 -7.157231
v 3.540793 6.636780 -6.936749
v 3.540793 6.979759 -6.936749
v 3.540793 6.636780 -7.157230
v 3.540793 6.979759 -7.157230
v 4.285266 6.636780 -6.936749
v 4.285266 6.979759 -6.936749
v 4.285266 6.636780 -7.157230
v 4.285266 6.979759 -7.157230
v 4.315045 6.636780 -6.936749
v 4.315045 6.979759 -6.936749
v 4.315045 6.636780 -7.157230
v 4.315045 6.979759 -7.157230
v 5.059517 6.636780 -6.936749
v 5.059517 6.979759 -6.936749
v 5.059517 6.636780 -7.157230
v 5.059517 6.979759 -7.157230
v -1.506344 7.013494 -6.936749
v -1.506344 7.356472 -6.936749
v -1.506344 7.013494 -7.157230
v -1.506344 7.356472 -7.157230
v -0.761871 7.013494 -6.936749
v -0.761871 7.356472 -6.936749
v -0.761871 7.013494 -7.157230
v -0.761871 7.356472 -7.157230
v -0.732092 7.013494 -6.936749
v -0.732092 7.356472 -6.936749
v -0.732092 7.013494 -7.157230
v -0.732092 7.356472 -7.157230
v 0.012382 7.013494 -6.936749
v 0.012382 7.356472 -6.936749
v 0.012382 7.013494 -7.157230
v 0.012382 7.356472 -7.157230
v 8.165331 6.274823 -6.936749
v 8.165331 6.617801 -6.936749
v 8.165331 6.274823 -7.157230
v 8.165331 6.617801 -7.157230
v 8.909803 6.274823 -6.936749
v 8.909803 6.617801 -6.936749
v 8.909803 6.274823 -7.157230
v 8.909803 6.617801 -7.157230
v 8.939583 6.274823 -6.936749
v 8.939583 6.617801 -6.936749
v 8.939583 6.274823 -7.157230
v 8.939583 6.617801 -7.157230
v 9.684055 6.274823 -6.936749
v 9.684055 6.617801 -6.936749
v 9.684055 6.274823 -7.157230
v 9.684055 6.617801 -7.157230
v 9.713835 6.274823 -6.936749
v 9.713835 6.617801 -6.936749
v 9.713835 6.274823 -7.157230
v 9.713835 6.617801 -7.157230
v 10.458307 6.274823 -6.936749
v 10.458307 6.617801 -6.936749
v 10.458307 6.274823 -7.157231
v 10.458307 6.617801 -7.157231
v 10.488087 6.274823 -6.936749
v 10.488087 6.617801 -6.936749
v 10.488087 6.274823 -7.157231
v 10.488087 6.617801 -7.157231
v 11.232559 6.274823 -6.936749
v 11.232559 6.617801 -6.936749
v 11.232559 6.274823 -7.157231
v 11.232559 6.617801 -7.157231
v 11.262338 6.274823 -6.936749
v 11.262338 6.617801 -6.936749
v 11.262338 6.274823 -7.157231
v 11.262338 6.617801 -7.157231
v 12.006811 6.274823 -6.936749
v 12.006811 6.617801 -6.936749
v 12.006811 6.274823 -7.157231
v 12.006811 6.617801 -7.157231
v 9.444530 6.636627 -6.936749
v 9.444530 6.979606 -6.936749
v 9.444530 6.636627 -7.157230
v 9.444530 6.979606 -7.157230
v 10.189004 6.636627 -6.936749
v 10.189004 6.979606 -6.936749
v 10.189004 6.636627 -7.157230
v 10.189004 6.979606 -7.157230
v 10.218782 6.636627 -6.936749
v 10.218782 6.979606 -6.936749
v 10.218782 6.636627 -7.157230
v 10.218782 6.979606 -7.157230
v 10.963256 6.636627 -6.936749
v 10.963256 6.979606 -6.936749
v 10.963256 6.636627 -7.157230
v 10.963256 6.979606 -7.157230
v 10.993034 6.636627 -6.936749
v 10.993034 6.979606 -6.936749
v 10.993034 6.636627 -7.157230
v 10.993034 6.979606 -7.157230
v 11.737507 6.636627 -6.936749
v 11.737507 6.979606 -6.936749
v 11.737507 6.636627 -7.157231
v 11.737507 6.979606 -7.157231
v 10.529797 6.997623 -6.936749
v 10.529797 7.340602 -6.936749
v 10.529797 6.997623 -7.157230
v 10.529797 7.340602 -7.157230
v 11.274269 6.997623 -6.936749
v 11.274269 7.340602 -6.936749
v 11.274269 6.997623 -7.157230
v 11.274269 7.340602 -7.157230
v 11.304049 6.997623 -6.936749
v 11.304049 7.340602 -6.936749
v 11.304049 6.997623 -7.157230
v 11.304049 7.340602 -7.157230
v 12.048521 6.997623 -6.936749
v 12.048521 7.340602 -6.936749
v 12.048521 6.997623 -7.157230
v 12.048521 7.340602 -7.157230
v 11.799154 6.274823 -6.942303
v 11.799154 6.617801 -6.942303
v 12.019637 6.274823 -6.942303
v 12.019637 6.617801 -6.942303
v 11.799155 6.274823 -6.197829
v 11.799155 6.617801 -6.197829
v 12.019637 6.274823 -6.197829
v 12.019637 6.617801 -6.197829
v 11.799154 6.274823 -6.168051
v 11.799154 6.617801 -6.168051
v 12.019637 6.274823 -6.168051
v 12.019637 6.617801 -6.168051
v 11.799155 6.274823 -5.423578
v 11.799155 6.617801 -5.423578
v 12.019637 6.274823 -5.423578
v 12.019637 6.617801 -5.423578
v 11.799155 6.274823 -5.393799
v 11.799155 6.617801 -5.393799
v 12.019637 6.274823 -5.393799
v 12.019637 6.617801 -5.393799
v 11.799155 6.274823 -4.649326
v 11.799155 6.617801 -4.649326
v 12.019637 6.274823 -4.649326
v 12.019637 6.617801 -4.649326
v 11.776168 6.637848 -7.266989
v 11.776168 6.980827 -7.266989
v 11.996650 6.637848 -7.266989
v 11.996650 6.980827 -7.266989
v 11.776168 6.637848 -6.522515
v 11.776168 6.980827 -6.522515
v 11.996650 6.637848 -6.522515
v 11.996650 6.980827 -6.522515
v 11.776168 6.637848 -6.492737
v 11.776168 6.980827 -6.492737
v 11.996650 6.637848 -6.492737
v 11.996650 6.980827 -6.492737
v 11.776168 6.637848 -5.748263
v 11.776168 6.980827 -5.748263
v 11.996650 6.637848 -5.748263
v 11.996650 6.980827 -5.748263
v 11.776168 6.637848 -5.718485
v 11.776168 6.980827 -5.718485
v 11.996650 6.637848 -5.718485
v 11.996650 6.980827 -5.718485
v 11.776168 6.637848 -4.974012
v 11.776168 6.980827 -4.974012
v 11.996650 6.637848 -4.974012
v 11.996650 6.980827 -4.974012
v 11.994589 6.274823 4.068555
v 11.994589 6.617801 4.068555
v 11.774107 6.274823 4.068555
v 11.774107 6.617801 4.068555
v 11.994589 6.274823 3.324082
v 11.994589 6.617801 3.324082
v 11.774107 6.274823 3.324082
v 11.774107 6.617801 3.324082
v 11.994589 6.274823 3.294303
v 11.994589 6.617801 3.294303
v 11.774107 6.274823 3.294303
v 11.774107 6.617801 3.294303
v 11.994589 6.274823 2.549830
v 11.994589 6.617801 2.549830
v 11.774107 6.274823 2.549830
v 11.774107 6.617801 2.549830
v 11.994589 6.274823 2.520051
v 11.994589 6.617801 2.520051
v 11.774107 6.274823 2.520051
v 11.774107 6.617801 2.520051
v 11.994589 6.274823 1.775579
v 11.994589 6.617801 1.775579
v 11.774107 6.274823 1.775579
v 11.774107 6.617801 1.775579
v 11.994589 6.274823 1.745800
v 11.994589 6.617801 1.745800
v 11.774107 6.274823 1.745800
v 11.774107 6.617801 1.745800
v 11.994589 6.274823 1.001327
v 11.994589 6.617801 1.001327
v 11.774107 6.274823 1.001327
v 11.774107 6.617801 1.001327
v 11.994589 6.274823 0.971548
v 11.994589 6.617801 0.971548
v 11.774107 6.274823 0.971548
v 11.774107 6.617801 0.971548
v 11.994589 6.274823 0.227075
v 11.994589 6.617801 0.227075
v 11.774107 6.274823 0.227075
v 11.774107 6.617801 0.227075
vn -0.0000 -0.0000 1.0000
vn -1.0000 -0.0000 -0.0000
vn -0.0000 -0.0000 -1.0000
vn 1.0000 -0.0000 -0.0000
vn -0.0000 -1.0000 -0.0000
vn -0.0000 1.0000 -0.0000
vt 0.837879 0.195235
vt 0.837879 0.221632
vt 0.780581 0.221632
vt 0.780581 0.195235
vt 0.778289 0.195235
vt 0.778289 0.221632
vt 0.720991 0.221632
vt 0.720991 0.195235
vt 0.375000 0.000000
vt 0.625000 0.000000
vt 0.625000 0.250000
vt 0.375000 0.250000
vt 0.625000 0.500000
vt 0.375000 0.500000
vt 0.625000 0.750000
vt 0.375000 0.750000
vt 0.537740 0.457694
vt 0.537740 0.472997
vt 0.504523 0.472997
vt 0.504523 0.457694
vt 0.125000 0.500000
vt 0.125000 0.750000
vt 0.875000 0.500000
vt 0.875000 0.750000
vt 0.572285 0.457694
vt 0.572285 0.472997
vt 0.539069 0.472997
vt 0.539069 0.457694
vt 0.399105 0.200362
vt 0.399105 0.215665
vt 0.365888 0.215665
vt 0.365888 0.200362
vt 0.433650 0.200362
vt 0.433650 0.215665
vt 0.400433 0.215665
vt 0.400433 0.200362
vt 0.468196 0.200362
vt 0.468196 0.215665
vt 0.434979 0.215665
vt 0.434979 0.200362
vt 0.502741 0.200362
vt 0.502741 0.215665
vt 0.469524 0.215665
vt 0.469524 0.200362
vt 0.537287 0.200362
vt 0.537287 0.215665
vt 0.504070 0.215665
vt 0.504070 0.200362
vt 0.571832 0.200362
vt 0.571832 0.215665
vt 0.538615 0.215665
vt 0.538615 0.200362
vt 0.606378 0.200362
vt 0.606378 0.215665
vt 0.573161 0.215665
vt 0.573161 0.200362
vt 0.640923 0.200362
vt 0.640923 0.215665
vt 0.607706 0.215665
vt 0.607706 0.200362
vt 0.675469 0.200362
vt 0.675469 0.215665
vt 0.642252 0.215665
vt 0.642252 0.200362
vt 0.710014 0.200362
vt 0.710014 0.215665
vt 0.676798 0.215665
vt 0.676798 0.200362
vt 0.557418 0.474281
vt 0.557418 0.489584
vt 0.524201 0.489584
vt 0.524201 0.474281
vt 0.591963 0.474281
vt 0.591963 0.489584
vt 0.558746 0.489584
vt 0.558746 0.474281
vt 0.418782 0.216948
vt 0.418782 0.232251
vt 0.385566 0.232251
vt 0.385566 0.216948
vt 0.453328 0.216948
vt 0.453328 0.232251
vt 0.420111 0.232251
vt 0.420111 0.216948
vt 0.487874 0.216948
vt 0.487874 0.232251
vt 0.454657 0.232251
vt 0.454657 0.216948
vt 0.621904 0.216512
vt 0.621904 0.231815
vt 0.588687 0.231815
vt 0.588687 0.216512
vt 0.656450 0.216512
vt 0.656450 0.231815
vt 0.623233 0.231815
vt 0.623233 0.216512
vt 0.604438 0.490652
vt 0.604438 0.505955
vt 0.571221 0.505955
vt 0.571221 0.490652
vt 0.431257 0.233320
vt 0.431257 0.248623
vt 0.398040 0.248623
vt 0.398040 0.233320
vt 1.112504 0.200362
vt 1.112504 0.215665
vt 1.079287 0.215665
vt 1.079287 0.200362
vt 1.147049 0.200362
vt 1.147049 0.215665
vt 1.113832 0.215665
vt 1.113832 0.200362
vt 1.181594 0.200362
vt 1.181594 0.215665
vt 1.148378 0.215665
vt 1.148378 0.200362
vt 1.216140 0.200362
vt 1.216140 0.215665
vt 1.182923 0.215665
vt 1.182923 0.200362
vt 1.250686 0.200362
vt 1.250686 0.215665
vt 1.217469 0.215665
vt 1.217469 0.200362
vt 1.169579 0.216505
vt 1.169579 0.231808
vt 1.136362 0.231808
vt 1.136362 0.216505
vt 1.204124 0.216505
vt 1.204124 0.231808
vt 1.170907 0.231808
vt 1.170907 0.216505
vt 1.238670 0.216505
vt 1.238670 0.231808
vt 1.205453 0.231808
vt 1.205453 0.216505
vt 1.218001 0.232612
vt 1.218001 0.247915
vt 1.184784 0.247915
vt 1.184784 0.232612
vt 1.252547 0.232612
vt 1.252547 0.247915
vt 1.219330 0.247915
vt 1.219330 0.232612
vt 0.077800 0.167498
vt 0.077800 0.193896
vt 0.135098 0.193896
vt 0.135098 0.167498
vt 0.137390 0.167498
vt 0.137390 0.193896
vt 0.194688 0.193896
vt 0.194688 0.167498
vt 0.196980 0.167498
vt 0.196980 0.193896
vt 0.254278 0.193896
vt 0.254278 0.167498
vt 0.052810 0.195439
vt 0.052810 0.221836
vt 0.110109 0.221836
vt 0.110109 0.195439
vt 0.112400 0.195439
vt 0.112400 0.221836
vt 0.169699 0.221836
vt 0.169699 0.195439
vt 0.171991 0.195439
vt 0.171991 0.221836
vt 0.229289 0.221836
vt 0.229289 0.195439
vt 0.925249 0.167498
vt 0.925249 0.193896
vt 0.867951 0.193896
vt 0.867951 0.167498
vt 0.865659 0.167498
vt 0.865659 0.193896
vt 0.808361 0.193896
vt 0.808361 0.167498
vt 0.806069 0.167498
vt 0.806069 0.193896
vt 0.748771 0.193896
vt 0.748771 0.167498
vt 0.746479 0.167498
vt 0.746479 0.193896
vt 0.689180 0.193896
vt 0.689180 0.167498
vt 0.686888 0.167498
vt 0.686888 0.193896
vt 0.629590 0.193896
vt 0.629590 0.167498
s 0
f 1/1/1 2/2/1 4/2/1 3/1/1
f 3/1/2 4/2/2 8/3/2 7/4/2
f 7/4/3 8/3/3 6/3/3 5/4/3
f 5/4/4 6/3/4 2/2/4 1/1/4
f 3/1/5 7/4/5 5/4/5 1/1/5
f 8/3/6 4/2/6 2/2/6 6/3/6
f 9/5/1 10/6/1 12/6/1 11/5/1
f 11/5/2 12/6/2 16/7/2 15/8/2
f 15/8/3 16/7/3 14/7/3 13/8/3
f 13/8/4 14/7/4 10/6/4 9/5/4
f 11/5/5 15/8/5 13/8/5 9/5/5
f 16/7/6 12/6/6 10/6/6 14/7/6
f 17/9/2 18/10/2 20/11/2 19/12/2
f 19/12/3 20/11/3 24/13/3 23/14/3
f 23/14/4 24/13/4 22/15/4 21/16/4
f 21/17/1 22/18/1 18/19/1 17/20/1
f 19/21/5 23/14/5 21/16/5 17/22/5
f 24/13/6 20/23/6 18/24/6 22/15/6
f 25/9/2 26/10/2 28/11/2 27/12/2
f 27/12/3 28/11/3 32/13/3 31/14/3
f 31/14/4 32/13/4 30/15/4 29/16/4
f 29/25/1 30/26/1 26/27/1 25/28/1
f 27/21/5 31/14/5 29/16/5 25/22/5
f 32/13/6 28/23/6 26/24/6 30/15/6
f 33/9/2 34/10/2 36/11/2 35/12/2
f 35/12/3 36/11/3 40/13/3 39/14/3
f 39/14/4 40/13/4 38/15/4 37/16/4
f 37/29/1 38/30/1 34/31/1 33/32/1
f 35/21/5 39/14/5 37/16/5 33/22/5
f 40/13/6 36/23/6 34/24/6 38/15/6
f 41/9/2 42/10/2 44/11/2 43/12/2
f 43/12/3 44/11/3 48/13/3 47/14/3
f 47/14/4 48/13/4 46/15/4 45/16/4
f 45/33/1 46/34/1 42/35/1 41/36/1
f 43/21/5 47/14/5 45/16/5 41/22/5
f 48/13/6 44/23/6 42/24/6 46/15/6
f 49/9/2 50/10/2 52/11/2 51/12/2
f 51/12/3 52/11/3 56/13/3 55/14/3
f 55/14/4 56/13/4 54/15/4 53/16/4
f 53/37/1 54/38/1 50/39/1 49/40/1
f 51/21/5 55/14/5 53/16/5 49/22/5
f 56/13/6 52/23/6 50/24/6 54/15/6
f 57/9/2 58/10/2 60/11/2 59/12/2
f 59/12/3 60/11/3 64/13/3 63/14/3
f 63/14/4 64/13/4 62/15/4 61/16/4
f 61/41/1 62/42/1 58/43/1 57/44/1
f 59/21/5 63/14/5 61/16/5 57/22/5
f 64/13/6 60/23/6 58/24/6 62/15/6
f 65/9/2 66/10/2 68/11/2 67/12/2
f 67/12/3 68/11/3 72/13/3 71/14/3
f 71/14/4 72/13/4 70/15/4 69/16/4
f 69/45/1 70/46/1 66/47/1 65/48/1
f 67/21/5 71/14/5 69/16/5 65/22/5
f 72/13/6 68/23/6 66/24/6 70/15/6
f 73/9/2 74/10/2 76/11/2 75/12/2
f 75/12/3 76/11/3 80/13/3 79/14/3
f 79/14/4 80/13/4 78/15/4 77/16/4
f 77/49/1 78/50/1 74/51/1 73/52/1
f 75/21/5 79/14/5 77/16/5 73/22/5
f 80/13/6 76/23/6 74/24/6 78/15/6
f 81/9/2 82/10/2 84/11/2 83/12/2
f 83/12/3 84/11/3 88/13/3 87/14/3
f 87/14/4 88/13/4 86/15/4 85/16/4
f 85/53/1 86/54/1 82/55/1 81/56/1
f 83/21/5 87/14/5 85/16/5 81/22/5
f 88/13/6 84/23/6 82/24/6 86/15/6
f 89/9/2 90/10/2 92/11/2 91/12/2
f 91/12/3 92/11/3 96/13/3 95/14/3
f 95/14/4 96/13/4 94/15/4 93/16/4
f 93/57/1 94/58/1 90/59/1 89/60/1
f 91/21/5 95/14/5 93/16/5 89/22/5
f 96/13/6 92/23/6 90/24/6 94/15/6
f 97/9/2 98/10/2 100/11/2 99/12/2
f 99/12/3 100/11/3 104/13/3 103/14/3
f 103/14/4 104/13/4 102/15/4 101/16/4
f 101/61/1 102/62/1 98/63/1 97/64/1
f 99/21/5 103/14/5 101/16/5 97/22/5
f 104/13/6 100/23/6 98/24/6 102/15/6
f 105/9/2 106/10/2 108/11/2 107/12/2
f 107/12/3 108/11/3 112/13/3 111/14/3
f 111/14/4 112/13/4 110/15/4 109/16/4
f 109/65/1 110/66/1 106/67/1 105/68/1
f 107/21/5 111/14/5 109/16/5 105/22/5
f 112/13/6 108/23/6 106/24/6 110/15/6
f 113/9/2 114/10/2 116/11/2 115/12/2
f 115/12/3 116/11/3 120/13/3 119/14/3
f 119/14/4 120/13/4 118/15/4 117/16/4
f 117/69/1 118/70/1 114/71/1 113/72/1
f 115/21/5 119/14/5 117/16/5 113/22/5
f 120/13/6 116/23/6 114/24/6 118/15/6
f 121/9/2 122/10/2 124/11/2 123/12/2
f 123/12/3 124/11/3 128/13/3 127/14/3
f 127/14/4 128/13/4 126/15/4 125/16/4
f 125/73/1 126/74/1 122/75/1 121/76/1
f 123/21/5 127/14/5 125/16/5 121/22/5
f 128/13/6 124/23/6 122/24/6 126/15/6
f 129/9/2 130/10/2 132/11/2 131/12/2
f 131/12/3 132/11/3 136/13/3 135/14/3
f 135/14/4 136/13/4 134/15/4 133/16/4
f 133/77/1 134/78/1 130/79/1 129/80/1
f 131/21/5 135/14/5 133/16/5 129/22/5
f 136/13/6 132/23/6 130/24/6 134/15/6
f 137/9/2 138/10/2 140/11/2 139/12/2
f 139/12/3 140/11/3 144/13/3 143/14/3
f 143/14/4 144/13/4 142/15/4 141/16/4
f 141/81/1 142/82/1 138/83/1 137/84/1
f 139/21/5 143/14/5 141/16/5 137/22/5
f 144/13/6 140/23/6 138/24/6 142/15/6
f 145/9/2 146/10/2 148/11/2 147/12/2
f 147/12/3 148/11/3 152/13/3 151/14/3
f 151/14/4 152/13/4 150/15/4 149/16/4
f 149/85/1 150/86/1 146/87/1 145/88/1
f 147/21/5 151/14/5 149/16/5 145/22/5
f 152/13/6 148/23/6 146/24/6 150/15/6
f 153/9/2 154/10/2 156/11/2 155/12/2
f 155/12/3 156/11/3 160/13/3 159/14/3
f 159/14/4 160/13/4 158/15/4 157/16/4
f 157/89/1 158/90/1 154/91/1 153/92/1
f 155/21/5 159/14/5 157/16/5 153/22/5
f 160/13/6 156/23/6 154/24/6 158/15/6
f 161/9/2 162/10/2 164/11/2 163/12/2
f 163/12/3 164/11/3 168/13/3 167/14/3
f 167/14/4 168/13/4 166/15/4 165/16/4
f 165/93/1 166/94/1 162/95/1 161/96/1
f 163/21/5 167/14/5 165/16/5 161/22/5
f 168/13/6 164/23/6 162/24/6 166/15/6
f 169/9/2 170/10/2 172/11/2 171/12/2
f 171/12/3 172/11/3 176/13/3 175/14/3
f 175/14/4 176/13/4 174/15/4 173/16/4
f 173/97/1 174/98/1 170/99/1 169/100/1
f 171/21/5 175/14/5 173/16/5 169/22/5
f 176/13/6 172/23/6 170/24/6 174/15/6
f 177/9/2 178/10/2 180/11/2 179/12/2
f 179/12/3 180/11/3 184/13/3 183/14/3
f 183/14/4 184/13/4 182/15/4 181/16/4
f 181/101/1 182/102/1 178/103/1 177/104/1
f 179/21/5 183/14/5 181/16/5 177/22/5
f 184/13/6 180/23/6 178/24/6 182/15/6
f 185/9/2 186/10/2 188/11/2 187/12/2
f 187/12/3 188/11/3 192/13/3 191/14/3
f 191/14/4 192/13/4 190/15/4 189/16/4
f 189/105/1 190/106/1 186/107/1 185/108/1
f 187/21/5 191/14/5 189/16/5 185/22/5
f 192/13/6 188/23/6 186/24/6 190/15/6
f 193/9/2 194/10/2 196/11/2 195/12/2
f 195/12/3 196/11/3 200/13/3 199/14/3
f 199/14/4 200/13/4 198/15/4 197/16/4
f 197/109/1 198/110/1 194/111/1 193/112/1
f 195/21/5 199/14/5 197/16/5 193/22/5
f 200/13/6 196/23/6 194/24/6 198/15/6
f 201/9/2 202/10/2 204/11/2 203/12/2
f 203/12/3 204/11/3 208/13/3 207/14/3
f 207/14/4 208/13/4 206/15/4 205/16/4
f 205/113/1 206/114/1 202/115/1 201/116/1
f 203/21/5 207/14/5 205/16/5 201/22/5
f 208/13/6 204/23/6 202/24/6 206/15/6
f 209/9/2 210/10/2 212/11/2 211/12/2
f 211/12/3 212/11/3 216/13/3 215/14/3
f 215/14/4 216/13/4 214/15/4 213/16/4
f 213/117/1 214/118/1 210/119/1 209/120/1
f 211/21/5 215/14/5 213/16/5 209/22/5
f 216/13/6 212/23/6 210/24/6 214/15/6
f 217/9/2 218/10/2 220/11/2 219/12/2
f 219/12/3 220/11/3 224/13/3 223/14/3
f 223/14/4 224/13/4 222/15/4 221/16/4
f 221/121/1 222/122/1 218/123/1 217/124/1
f 219/21/5 223/14/5 221/16/5 217/22/5
f 224/13/6 220/23/6 218/24/6 222/15/6
f 225/9/2 226/10/2 228/11/2 227/12/2
f 227/12/3 228/11/3 232/13/3 231/14/3
f 231/14/4 232/13/4 230/15/4 229/16/4
f 229/125/1 230/126/1 226/127/1 225/128/1
f 227/21/5 231/14/5 229/16/5 225/22/5
f 232/13/6 228/23/6 226/24/6 230/15/6
f 233/9/2 234/10/2 236/11/2 235/12/2
f 235/12/3 236/11/3 240/13/3 239/14/3
f 239/14/4 240/13/4 238/15/4 237/16/4
f 237/129/1 238/130/1 234/131/1 233/132/1
f 235/21/5 239/14/5 237/16/5 233/22/5
f 240/13/6 236/23/6 234/24/6 238/15/6
f 241/9/2 242/10/2 244/11/2 243/12/2
f 243/12/3 244/11/3 248/13/3 247/14/3
f 247/14/4 248/13/4 246/15/4 245/16/4
f 245/133/1 246/134/1 242/135/1 241/136/1
f 243/21/5 247/14/5 245/16/5 241/22/5
f 248/13/6 244/23/6 242/24/6 246/15/6
f 249/9/2 250/10/2 252/11/2 251/12/2
f 251/12/3 252/11/3 256/13/3 255/14/3
f 255/14/4 256/13/4 254/15/4 253/16/4
f 253/137/1 254/138/1 250/139/1 249/140/1
f 251/21/5 255/14/5 253/16/5 249/22/5
f 256/13/6 252/23/6 250/24/6 254/15/6
f 257/9/2 258/10/2 260/11/2 259/12/2
f 259/12/3 260/11/3 264/13/3 263/14/3
f 263/14/4 264/13/4 262/15/4 261/16/4
f 261/141/1 262/142/1 258/143/1 257/144/1
f 259/21/5 263/14/5 261/16/5 257/22/5
f 264/13/6 260/23/6 258/24/6 262/15/6
f 265/9/3 266/10/3 268/11/3 267/12/3
f 267/145/4 268/146/4 272/147/4 271/148/4
f 271/148/1 272/147/1 270/147/1 269/148/1
f 269/148/2 270/147/2 266/146/2 265/145/2
f 267/145/5 271/148/5 269/148/5 265/145/5
f 272/147/6 268/146/6 266/146/6 270/147/6
f 273/149/3 274/150/3 276/150/3 275/149/3
f 275/149/4 276/150/4 280/151/4 279/152/4
f 279/152/1 280/151/1 278/151/1 277/152/1
f 277/152/2 278/151/2 274/150/2 273/149/2
f 275/149/5 279/152/5 277/152/5 273/149/5
f 280/151/6 276/150/6 274/150/6 278/151/6
f 281/153/3 282/154/3 284/154/3 283/153/3
f 283/153/4 284/154/4 288/155/4 287/156/4
f 287/156/1 288/155/1 286/155/1 285/156/1
f 285/156/2 286/155/2 282/154/2 281/153/2
f 283/153/5 287/156/5 285/156/5 281/153/5
f 288/155/6 284/154/6 282/154/6 286/155/6
f 289/9/3 290/10/3 292/11/3 291/12/3
f 291/157/4 292/158/4 296/159/4 295/160/4
f 295/160/1 296/159/1 294/159/1 293/160/1
f 293/160/2 294/159/2 290/158/2 289/157/2
f 291/21/5 295/14/5 293/16/5 289/22/5
f 296/13/6 292/23/6 290/24/6 294/15/6
f 297/161/3 298/162/3 300/162/3 299/161/3
f 299/161/4 300/162/4 304/163/4 303/164/4
f 303/164/1 304/163/1 302/163/1 301/164/1
f 301/164/2 302/163/2 298/162/2 297/161/2
f 299/161/5 303/164/5 301/164/5 297/161/5
f 304/163/6 300/162/6 298/162/6 302/163/6
f 305/165/3 306/166/3 308/166/3 307/165/3
f 307/165/4 308/166/4 312/167/4 311/168/4
f 311/168/1 312/167/1 310/167/1 309/168/1
f 309/168/2 310/167/2 306/166/2 305/165/2
f 307/165/5 311/168/5 309/168/5 305/165/5
f 312/167/6 308/166/6 306/166/6 310/167/6
f 313/169/1 314/170/1 316/170/1 315/169/1
f 315/169/2 316/170/2 320/171/2 319/172/2
f 319/172/3 320/171/3 318/171/3 317/172/3
f 317/172/4 318/171/4 314/170/4 313/169/4
f 315/169/5 319/172/5 317/172/5 313/169/5
f 320/171/6 316/170/6 314/170/6 318/171/6
f 321/173/1 322/174/1 324/174/1 323/173/1
f 323/173/2 324/174/2 328/175/2 327/176/2
f 327/176/3 328/175/3 326/175/3 325/176/3
f 325/176/4 326/175/4 322/174/4 321/173/4
f 323/173/5 327/176/5 325/176/5 321/173/5
f 328/175/6 324/174/6 322/174/6 326/175/6
f 329/177/1 330/178/1 332/178/1 331/177/1
f 331/177/2 332/178/2 336/179/2 335/180/2
f 335/180/3 336/179/3 334/179/3 333/180/3
f 333/180/4 334/179/4 330/178/4 329/177/4
f 331/177/5 335/180/5 333/180/5 329/177/5
f 336/179/6 332/178/6 330/178/6 334/179/6
f 337/181/1 338/182/1 340/182/1 339/181/1
f 339/181/2 340/182/2 344/183/2 343/184/2
f 343/184/3 344/183/3 342/183/3 341/184/3
f 341/184/4 342/183/4 338/182/4 337/181/4
f 339/181/5 343/184/5 341/184/5 337/181/5
f 344/183/6 340/182/6 338/182/6 342/183/6
f 345/185/1 346/186/1 348/186/1 347/185/1
f 347/185/2 348/186/2 352/187/2 351/188/2
f 351/188/3 352/187/3 350/187/3 349/188/3
f 349/188/4 350/187/4 346/186/4 345/185/4
f 347/185/5 351/188/5 349/188/5 345/185/5
f 352/187/6 348/186/6 346/186/6 350/187/6
