# Blender 5.0.1
# www.blender.org
mtllib Doors.mtl
o Doors_03
v -0.302957 -0.000000 -1.451871
v -0.302957 3.152350 -1.451871
v 0.297044 -0.000000 -1.451871
v 0.297044 3.152350 -1.451871
v -0.302957 0.000000 1.174895
v -0.302957 3.152350 1.174895
v 0.297044 0.000000 1.174895
v 0.297044 3.152350 1.174895
v 0.297044 0.000000 0.841561
v 0.297044 -0.000000 -1.118538
v 0.297044 3.152350 -1.118538
v 0.297044 3.152350 0.841561
v -0.302957 -0.000000 -1.118537
v -0.302957 0.000000 0.841562
v -0.302957 3.152350 0.841562
v -0.302957 3.152350 -1.118537
v -0.302957 2.852350 -1.451871
v 0.297044 2.852350 -1.451871
v 0.297044 2.852350 1.174895
v -0.302957 2.852350 1.174895
v -0.302957 2.852350 0.841562
v -0.302957 2.852350 -1.118537
v 0.297044 2.852350 -1.118538
v 0.297044 2.852350 0.841561
vn -0.0000 -0.0000 -1.0000
vn 1.0000 -0.0000 -0.0000
vn -0.0000 -0.0000 1.0000
vn -1.0000 -0.0000 -0.0000
vn -0.0000 -1.0000 -0.0000
vn -0.0000 1.0000 -0.0000
vt 0.095167 0.952416
vt 0.095167 1.000000
vt 0.000000 1.000000
vt 0.000000 0.952416
vt 0.052871 0.452416
vt 0.052871 0.500000
vt 0.000000 0.500000
vt 0.000000 0.452416
vt 0.190334 0.952416
vt 0.190334 1.000000
vt 0.780402 0.047584
vt 0.780402 0.000000
vt 0.833272 0.000000
vt 0.833272 0.047584
vt 0.676744 0.595167
vt 0.623874 0.595167
vt 0.623874 0.500000
vt 0.676744 0.500000
vt 0.475836 0.863766
vt 0.475836 0.916636
vt 0.380669 0.916636
vt 0.380669 0.863765
vt 0.475836 0.500000
vt 0.475836 0.552871
vt 0.380669 0.552871
vt 0.380669 0.500000
vt 0.571003 0.500000
vt 0.623874 0.500000
vt 0.623874 0.595167
vt 0.571003 0.595167
vt 0.285501 0.952416
vt 0.190334 0.500000
vt 0.285501 0.500000
vt 0.416636 0.047584
vt 0.416636 -0.000000
vt 0.469507 -0.000000
vt 0.469507 0.047584
vt 0.416636 0.452416
vt 0.416636 0.500000
vt 0.363766 0.500000
vt 0.363766 0.452416
vt 0.380669 0.952416
vt 0.416636 0.000000
vt 0.363766 0.000000
vt 0.475836 0.810895
vt 0.475836 0.500000
vt 0.571003 0.500000
vt 0.571003 0.810895
vt 0.416636 0.500000
vt 0.469507 0.500000
vt 0.780402 0.500000
vt 0.833272 0.500000
vt 0.190334 0.500000
vt 0.095167 0.500000
vt 0.052871 -0.000000
vt 0.000000 -0.000000
vt 0.000000 0.500000
s 1
usemtl ram
f 17/1/1 2/2/1 4/3/1 18/4/1
f 24/5/2 12/6/2 8/7/2 19/8/2
f 19/9/3 8/10/3 6/2/3 20/1/3
f 22/11/4 16/12/4 2/13/4 17/14/4
f 9/15/5 7/16/5 5/17/5 14/18/5
f 11/19/6 4/20/6 2/21/6 16/22/6
f 8/23/6 12/24/6 15/25/6 6/26/6
f 12/24/6 11/19/6 16/22/6 15/25/6
f 3/27/5 10/28/5 13/29/5 1/30/5
f 21/31/1 24/9/1 9/32/1 14/33/1
f 20/34/4 6/35/4 15/36/4 21/37/4
f 21/37/4 15/36/4 16/12/4 22/11/4
f 18/38/2 4/39/2 11/40/2 23/41/2
f 23/41/2 11/40/2 12/6/2 24/5/2
f 22/31/3 13/33/3 10/26/3 23/42/3
f 3/43/2 18/38/2 23/41/2 10/44/2
f 23/45/5 24/46/5 21/47/5 22/48/5
f 5/49/4 20/34/4 21/37/4 14/50/4
f 13/51/4 22/11/4 17/14/4 1/52/4
f 7/53/3 19/9/3 20/1/3 5/54/3
f 9/55/2 24/5/2 19/8/2 7/56/2
f 1/54/1 17/1/1 18/4/1 3/57/1
