# Blender 5.0.1
# www.blender.org
mtllib Level2Room.mtl
o Level_02
v -11.823870 0.000001 6.454552
v -11.823870 6.282874 6.454552
v -11.823870 -0.000001 -6.945449
v -11.823870 6.282873 -6.945449
v 11.797043 0.000001 6.454552
v 11.797043 6.282874 6.454552
v 11.797043 -0.000001 -6.945449
v 11.797043 6.282873 -6.945449
v -8.781082 -0.000001 -6.945449
v -8.781084 6.282873 -6.945449
v -8.781084 0.000001 6.454552
v -8.781082 6.282874 6.454552
v -11.122507 -0.000001 -6.945449
v -11.122507 6.282874 6.454552
v -11.122507 6.282873 -6.945449
v -11.122507 0.000001 6.454552
v -11.823870 2.974221 6.454552
v -11.823870 2.974221 -6.945449
v 11.797043 2.974221 -6.945449
v 11.797043 2.974221 6.454552
v -8.781084 2.974221 6.454552
v -8.781084 2.974221 -6.945449
v -11.122507 2.974221 -6.945449
v -11.122507 2.974221 6.454552
v -8.781084 0.000001 6.758289
v -11.122507 0.000001 6.758289
v 11.797043 6.282874 0.936107
v 11.797043 6.282874 -1.427004
v -11.823870 0.000000 0.936107
v -11.823870 -0.000000 -1.427004
v -11.823870 6.282874 -1.427004
v -11.823870 6.282874 0.936107
v 11.797043 -0.000000 -1.427004
v 11.797043 0.000000 0.936107
v -8.781084 0.000000 0.936107
v -8.781082 -0.000000 -1.427004
v -11.122507 0.000000 0.936107
v -11.122507 -0.000000 -1.427004
v 11.797043 2.974221 0.936107
v 11.797043 2.974221 -1.427004
v -11.823870 2.974221 -1.427004
v -11.823870 2.974221 0.936107
v 12.097314 -0.000000 -1.427004
v 12.097314 0.000000 0.936107
v -12.023870 -0.233332 6.637885
v -12.023870 6.282874 6.637885
v -12.023870 -0.233334 -7.145449
v -12.023870 6.282873 -7.145450
v 11.980376 -0.233332 6.637885
v 11.980376 6.282874 6.637885
v 11.980376 -0.233334 -7.145449
v 11.980376 6.282873 -7.145450
v -8.781082 -0.233334 -7.145449
v -8.781084 6.282873 -7.145450
v -8.781084 -0.233332 6.637885
v -8.781082 6.282874 6.637885
v -11.122507 -0.233334 -7.145449
v -11.122507 6.282874 6.637885
v -11.122507 6.282873 -7.145450
v -11.122507 -0.233332 6.637885
v -12.023870 2.974221 6.637885
v -12.023870 2.974221 -7.145449
v 11.980376 2.974221 -7.145449
v 11.980376 2.974221 6.637885
v -8.781084 2.974221 6.637885
v -8.781084 2.974221 -7.145449
v -11.122507 2.974221 -7.145449
v -11.122507 2.974221 6.637885
v -8.781084 -0.233022 6.758289
v -11.122507 -0.233022 6.758289
v 11.980375 6.282874 0.936107
v 11.980375 6.282874 -1.427004
v -12.023870 -0.233333 0.936107
v -12.023870 -0.233333 -1.427004
v -12.023870 6.282874 -1.427004
v -12.023870 6.282874 0.936107
v 11.980375 -0.233333 -1.427004
v 11.980375 -0.233333 0.936107
v -8.781084 -0.233333 0.936107
v -8.781082 -0.233333 -1.427004
v -11.122507 -0.233333 0.936107
v -11.122507 -0.233333 -1.427004
v 11.980375 2.974221 0.936107
v 11.980375 2.974221 -1.427004
v -12.023870 2.974221 -1.427004
v -12.023870 2.974221 0.936107
v 12.097314 -0.233333 -1.427004
v 12.097314 -0.233333 0.936107
vn 1.0000 -0.0000 -0.0000
vn -0.0000 -0.0000 -1.0000
vn -0.0000 -0.0000 1.0000
vn -1.0000 -0.0000 -0.0000
vn -0.0000 1.0000 -0.0000
vn -0.0000 -1.0000 -0.0000
vn -0.0000 -1.0000 0.0009
vn -0.0000 -1.0000 0.0026
vt 0.264648 0.339220
vt 0.264648 0.369531
vt 0.248311 0.369531
vt 0.248311 0.339220
vt 0.248311 0.382511
vt 0.248311 0.412822
vt 0.230138 0.412822
vt 0.230138 0.382511
vt 0.161977 0.536117
vt 0.161977 0.532844
vt 0.177418 0.532844
vt 0.177418 0.536117
vt 0.134591 0.137104
vt 0.989492 0.137104
vt 0.989492 0.274559
vt 0.134591 0.274559
vt 0.760233 0.415737
vt 0.989492 0.415737
vt 0.989492 0.553192
vt 0.760233 0.553192
vt 0.134591 0.013542
vt 0.989492 0.013542
vt 0.037318 0.137104
vt 0.037318 0.274559
vt 0.008181 0.137104
vt 0.008181 0.274559
vt 0.341977 0.962543
vt 0.116494 0.962543
vt 0.116494 0.866873
vt 0.341977 0.866873
vt 0.161977 0.547043
vt 0.177418 0.547043
vt 0.104083 0.962543
vt 0.104083 0.866873
vt 0.008181 0.013542
vt 0.037318 0.013542
vt 0.341977 0.991201
vt 0.116494 0.991201
vt 0.148097 0.536117
vt 0.148097 0.532844
vt 0.341977 0.026055
vt 0.116494 0.026055
vt 0.148097 0.643076
vt 0.148097 0.547043
vt 0.161977 0.643076
vt 0.760233 0.292175
vt 0.989492 0.292175
vt 0.177418 0.643076
vt 0.438533 0.991201
vt 0.438533 0.962543
vt 0.664015 0.991201
vt 0.664015 0.962543
vt 0.438533 0.026055
vt 0.438533 0.866873
vt 0.664016 0.026055
vt 0.664016 0.866873
vt 0.341977 0.013786
vt 0.438533 0.013786
vt 0.432800 0.292175
vt 0.662059 0.292175
vt 0.662059 0.415737
vt 0.432800 0.415737
vt 0.264648 0.382511
vt 0.264648 0.412822
vt 0.662059 0.553192
vt 0.432800 0.553192
vt 0.230138 0.369531
vt 0.230138 0.339220
vt 0.295336 0.457802
vt 0.294158 0.480610
vt 0.253614 0.478514
vt 0.254793 0.455707
vt 0.236811 0.477646
vt 0.235595 0.501173
vt 0.194934 0.499071
vt 0.196150 0.475545
vt 0.133408 0.498576
vt 0.156576 0.498576
vt 0.156576 0.504887
vt 0.133408 0.504887
vt 0.132657 0.547977
vt 0.148097 0.547977
vt 0.148097 0.644864
vt 0.132657 0.644864
vt 0.291887 0.369264
vt 0.272838 0.369264
vt 0.272838 0.336436
vt 0.291887 0.336436
vt 0.117688 0.644864
vt 0.117688 0.547977
vt 0.132657 0.537050
vt 0.148097 0.537050
vt 0.132657 0.532844
vt 0.148097 0.532844
vt 0.188145 0.340057
vt 0.188145 0.349888
vt 0.164205 0.349888
vt 0.164205 0.340057
vt 0.133408 0.482181
vt 0.156576 0.482181
vt 0.163699 0.349888
vt 0.163699 0.340057
vt 0.117688 0.532844
vt 0.117688 0.537050
vt 0.188145 0.336272
vt 0.164205 0.336272
vt 0.110948 0.498576
vt 0.110948 0.504887
vt 0.188145 0.437059
vt 0.164205 0.437059
vt 0.110948 0.336807
vt 0.133408 0.336807
vt 0.110948 0.482181
vt 0.310354 0.369264
vt 0.310354 0.336436
vt 0.156576 0.336807
vt 0.198067 0.336272
vt 0.198067 0.340057
vt 0.222077 0.336272
vt 0.222077 0.340057
vt 0.198067 0.437059
vt 0.198067 0.349888
vt 0.222077 0.437059
vt 0.222077 0.349888
vt 0.198067 0.437550
vt 0.188145 0.437550
vt 0.310354 0.415792
vt 0.291887 0.415792
vt 0.291887 0.382869
vt 0.310354 0.382869
vt 0.237990 0.454838
vt 0.197328 0.452737
vt 0.272838 0.415792
vt 0.272838 0.382869
vt 0.292942 0.504136
vt 0.252399 0.502041
vt 0.023259 0.978283
vt 0.181333 0.978283
vt 0.181333 0.983534
vt 0.017530 0.983534
vt 0.249024 0.978283
vt 0.249024 0.983534
vt 0.407099 0.321757
vt 0.407099 0.301667
vt 0.412350 0.295938
vt 0.412350 0.321757
vt 0.023259 0.321757
vt 0.023259 0.388826
vt 0.017530 0.388826
vt 0.017530 0.321757
vt 0.249024 0.301667
vt 0.181333 0.301667
vt 0.181333 0.295938
vt 0.249024 0.295938
vt 0.407099 0.388827
vt 0.412350 0.388827
vt 0.023259 0.301667
vt 0.017530 0.295938
vt 0.311365 0.439347
vt 0.311364 0.501406
vt 0.307539 0.506275
vt 0.307539 0.439347
vt 0.307539 0.444216
vt 0.307539 0.506275
vt 0.303714 0.506275
vt 0.303714 0.439347
vt 0.181804 0.447158
vt 0.181804 0.496014
vt 0.177979 0.496014
vt 0.177979 0.447158
vt 0.174154 0.447158
vt 0.174154 0.496014
vt 0.169291 0.496014
vt 0.169291 0.447158
vt 0.177979 0.502352
vt 0.177979 0.496014
vt 0.182841 0.496014
vt 0.182848 0.498526
vt 0.169291 0.496466
vt 0.169291 0.502804
vt 0.164423 0.498979
vt 0.164429 0.496466
vt 0.407099 0.978283
vt 0.412350 0.983534
vt 0.177979 0.447158
vt 0.177979 0.496466
vt 0.174154 0.496466
vt 0.174154 0.447158
vt 0.311364 0.506275
vt 0.311364 0.444216
vt 0.315190 0.439347
vt 0.315190 0.506275
vt 0.164423 0.452027
vt 0.164423 0.514086
vt 0.160597 0.514086
vt 0.160597 0.447158
vt 0.164423 0.496466
vt 0.164423 0.447158
vt 0.174160 0.496466
vt 0.174160 0.502732
vt 0.169291 0.502732
vt 0.169291 0.500292
vt 0.182848 0.502352
vt 0.182848 0.508617
vt 0.177979 0.504791
s 1
usemtl stena2
f 1/1/1 29/2/1 42/3/1 17/4/1
f 41/5/1 18/6/1 4/7/1 31/8/1
f 24/9/2 17/10/2 2/11/2 14/12/2
f 22/13/3 19/14/3 8/15/3 10/16/3
f 39/17/4 20/18/4 6/19/4 27/20/4
f 19/14/3 22/13/3 9/21/3 7/22/3
f 23/23/3 22/13/3 10/16/3 15/24/3
f 18/25/3 23/23/3 15/24/3 4/26/3
f 21/31/2 24/9/2 14/12/2 12/32/2
f 3/35/3 13/36/3 23/23/3 18/25/3
f 13/36/3 9/21/3 22/13/3 23/23/3
f 16/39/2 1/40/2 17/10/2 24/9/2
f 5/43/2 11/44/2 21/31/2 20/45/2
f 34/46/4 5/47/4 20/18/4 39/17/4
f 20/45/2 21/31/2 12/32/2 6/48/2
f 7/59/4 33/60/4 40/61/4 19/62/4
f 29/2/1 30/63/1 41/5/1 42/3/1
f 30/63/1 3/64/1 18/6/1 41/5/1
f 19/62/4 40/61/4 28/65/4 8/66/4
f 40/61/4 39/17/4 27/20/4 28/65/4
f 17/4/1 42/3/1 32/67/1 2/68/1
f 42/3/1 41/5/1 31/8/1 32/67/1
f 45/69/4 61/70/4 86/71/4 73/72/4
f 85/73/4 75/74/4 48/75/4 62/76/4
f 68/77/3 58/78/3 46/79/3 61/80/3
f 66/81/2 54/82/2 52/83/2 63/84/2
f 83/85/1 71/86/1 50/87/1 64/88/1
f 63/84/2 51/89/2 53/90/2 66/81/2
f 67/91/2 59/92/2 54/82/2 66/81/2
f 62/93/2 48/94/2 59/92/2 67/91/2
f 81/95/6 79/96/6 55/97/7 60/98/7
f 65/99/3 56/100/3 58/78/3 68/77/3
f 55/97/7 69/101/8 70/102/8 60/98/7
f 47/103/2 62/93/2 67/91/2 57/104/2
f 57/104/2 67/91/2 66/81/2 53/90/2
f 73/105/6 81/95/6 60/98/7 45/106/6
f 60/107/3 68/77/3 61/80/3 45/108/3
f 78/109/6 49/110/6 55/97/7 79/96/6
f 49/111/3 64/112/3 65/99/3 55/113/3
f 78/114/1 83/85/1 64/88/1 49/115/1
f 64/112/3 50/116/3 56/100/3 65/99/3
f 74/117/6 82/118/6 81/95/6 73/105/6
f 47/119/6 57/120/6 82/118/6 74/117/6
f 77/121/6 78/109/6 79/96/6 80/122/6
f 51/123/6 77/121/6 80/122/6 53/124/6
f 77/121/6 87/125/6 88/126/6 78/109/6
f 51/127/1 63/128/1 84/129/1 77/130/1
f 73/72/4 86/71/4 85/73/4 74/131/4
f 74/131/4 85/73/4 62/76/4 47/132/4
f 57/120/6 53/124/6 80/122/6 82/118/6
f 82/118/6 80/122/6 79/96/6 81/95/6
f 63/128/1 52/133/1 72/134/1 84/129/1
f 84/129/1 72/134/1 71/86/1 83/85/1
f 61/70/4 46/135/4 76/136/4 86/71/4
f 86/71/4 76/136/4 75/74/4 85/73/4
f 8/137/5 28/138/5 72/139/5 52/140/5
f 28/138/5 27/141/5 71/142/5 72/139/5
f 14/143/5 2/144/5 46/145/5 58/146/5
f 15/147/5 10/148/5 54/149/5 59/150/5
f 32/151/5 31/152/5 75/153/5 76/154/5
f 12/155/5 14/143/5 58/146/5 56/156/5
f 4/157/5 15/147/5 59/150/5 48/158/5
f 2/144/5 32/151/5 76/154/5 46/145/5
f 21/159/4 11/160/4 55/161/4 65/162/4
f 16/163/1 24/164/1 68/165/1 60/166/1
f 24/167/6 21/168/6 65/169/6 68/170/6
f 25/171/3 26/172/3 70/173/3 69/174/3
f 11/175/1 25/176/1 69/177/1 55/178/1
f 26/179/4 16/180/4 60/181/4 70/182/4
f 10/148/5 8/137/5 52/140/5 54/149/5
f 31/152/5 4/157/5 48/158/5 75/153/5
f 6/183/5 12/155/5 56/156/5 50/184/5
f 27/141/5 6/183/5 50/184/5 71/142/5
f 39/185/6 40/186/6 84/187/6 83/188/6
f 40/189/3 33/190/3 77/191/3 84/192/3
f 34/193/2 39/194/2 83/195/2 78/196/2
f 43/197/1 44/198/1 88/174/1 87/179/1
f 33/199/2 43/200/2 87/201/2 77/202/2
f 44/203/3 34/204/3 78/205/3 88/175/3
usemtl podlaha2
f 37/27/5 16/28/5 11/29/5 35/30/5
f 11/29/5 16/28/5 26/33/5 25/34/5
f 29/37/5 1/38/5 16/28/5 37/27/5
f 34/41/5 35/30/5 11/29/5 5/42/5
f 30/49/5 29/37/5 37/27/5 38/50/5
f 3/51/5 30/49/5 38/50/5 13/52/5
f 33/53/5 36/54/5 35/30/5 34/41/5
f 7/55/5 9/56/5 36/54/5 33/53/5
f 33/53/5 34/41/5 44/57/5 43/58/5
f 13/52/5 38/50/5 36/54/5 9/56/5
f 38/50/5 37/27/5 35/30/5 36/54/5
