# Blender 4.2.1 LTS
# www.blender.org
mtllib Level_03.mtl
o Level_03
v -6.625385 0.000000 -13.254223
v -6.625385 4.000000 -13.254223
v 6.774615 0.000000 -13.254225
v 6.774616 4.000000 -13.254225
v -6.625381 0.000000 13.366690
v -6.625381 4.000000 13.366690
v 6.774620 0.000000 13.366688
v 6.774620 4.000000 13.366688
v 6.774616 0.000000 -7.211438
v 6.774616 4.000000 -7.211440
v -6.625385 0.000000 -7.211437
v -6.625385 4.000000 -7.211435
v 6.774615 0.000000 -9.552862
v -6.625385 4.000000 -9.552860
v 6.774616 4.000000 -9.552862
v -6.625385 0.000000 -9.552860
v -6.625385 2.974221 -13.254223
v 6.774616 2.974221 -13.254225
v 6.774620 2.974221 13.366688
v -6.625381 2.974221 13.366690
v -6.625385 2.974221 -7.211437
v 6.774616 2.974221 -7.211440
v 6.774616 2.974221 -9.552862
v -6.625385 2.974221 -9.552860
v -6.902282 0.000000 -7.211437
v -6.902283 0.000000 -9.552860
v -6.808718 -0.225000 -13.454224
v -6.808718 4.000000 -13.454224
v 6.974617 -0.225000 -13.454224
v 6.974617 4.000000 -13.454224
v -6.808718 -0.225000 13.566689
v -6.808718 4.000000 13.566689
v 6.974617 -0.225000 13.566689
v 6.974617 4.000000 13.566689
v 6.974617 -0.225000 -7.211438
v 6.974617 4.000000 -7.211440
v -6.808718 -0.225000 -7.211437
v -6.808718 4.000000 -7.211435
v 6.974617 -0.225000 -9.552862
v -6.808718 4.000000 -9.552860
v 6.974617 4.000000 -9.552862
v -6.808718 -0.225000 -9.552860
v -6.808718 2.974221 -13.454224
v 6.974617 2.974221 -13.454224
v 6.974617 2.974221 13.566689
v -6.808718 2.974221 13.566689
v -6.808718 2.974221 -7.211437
v 6.974617 2.974221 -7.211440
v 6.974617 2.974221 -9.552862
v -6.808718 2.974221 -9.552860
v -6.902282 -0.223512 -7.211437
v -6.902283 -0.223512 -9.552860
vn 1.0000 -0.0000 -0.0000
vn -1.0000 -0.0000 -0.0000
vn -0.0000 -0.0000 1.0000
vn -0.0000 1.0000 -0.0000
vn -0.0000 -0.0000 -1.0000
vn -0.0159 -0.9999 -0.0000
vn -0.0000 -1.0000 -0.0000
vt 0.560889 0.992577
vt 0.560889 1.000000
vt 0.625000 1.000000
vt 0.625000 0.992577
vt 0.560889 0.282204
vt 0.560889 0.500000
vt 0.625000 0.500000
vt 0.625000 0.282204
vt 0.560889 0.000000
vt 0.560889 0.250000
vt 0.625000 0.250000
vt 0.625000 0.000000
vt 0.375000 0.282204
vt 0.375000 0.500000
vt 0.560889 0.257423
vt 0.625000 0.257423
vt 0.560889 0.967796
vt 0.625000 0.967796
vt 0.157204 0.750000
vt 0.132423 0.750000
vt 0.375000 0.250000
vt 0.375000 0.257423
vt 0.375000 0.992577
vt 0.375000 1.000000
vt 0.375000 0.750000
vt 0.375000 0.967796
vt 0.560889 0.750000
vt 0.625000 0.750000
vt 0.132423 0.500000
vt 0.157204 0.500000
vt 0.125000 0.500000
vt 0.125000 0.750000
vt 0.375000 0.000000
s 0
f 24/1/1 17/2/1 2/3/1 14/4/1
f 22/5/2 19/6/2 8/7/2 10/8/2
f 17/9/3 18/10/3 4/11/3 2/12/3
f 19/6/2 22/5/2 9/13/2 7/14/2
f 23/15/2 22/5/2 10/8/2 15/16/2
f 18/10/2 23/15/2 15/16/2 4/11/2
f 21/17/1 24/1/1 14/4/1 12/18/1
f 11/19/4 16/20/4 26/20/4 25/19/4
f 3/21/2 13/22/2 23/15/2 18/10/2
f 13/22/2 9/13/2 22/5/2 23/15/2
f 16/23/1 1/24/1 17/2/1 24/1/1
f 5/25/1 11/26/1 21/17/1 20/27/1
f 19/6/5 20/27/5 6/28/5 8/7/5
f 20/27/1 21/17/1 12/18/1 6/28/1
f 13/29/4 16/20/4 11/19/4 9/30/4
f 3/31/4 1/32/4 16/20/4 13/29/4
f 9/13/4 11/19/4 5/25/4 7/14/4
f 7/14/5 5/25/5 20/27/5 19/6/5
f 1/33/3 3/21/3 18/10/3 17/9/3
f 50/1/2 40/4/2 28/3/2 43/2/2
f 48/5/1 36/8/1 34/7/1 45/6/1
f 43/9/5 28/12/5 30/11/5 44/10/5
f 45/6/1 33/14/1 35/13/1 48/5/1
f 49/15/1 41/16/1 36/8/1 48/5/1
f 44/10/1 30/11/1 41/16/1 49/15/1
f 47/17/2 38/18/2 40/4/2 50/1/2
f 37/19/6 51/19/6 52/20/6 42/20/6
f 29/21/1 44/10/1 49/15/1 39/22/1
f 39/22/1 49/15/1 48/5/1 35/13/1
f 42/23/2 50/1/2 43/2/2 27/24/2
f 31/25/2 46/27/2 47/17/2 37/26/2
f 45/6/3 34/7/3 32/28/3 46/27/3
f 46/27/2 32/28/2 38/18/2 47/17/2
f 39/29/7 35/30/7 37/19/7 42/20/7
f 29/31/7 39/29/7 42/20/7 27/32/7
f 35/13/7 33/14/7 31/25/7 37/19/7
f 33/14/3 45/6/3 46/27/3 31/25/3
f 27/33/5 43/9/5 44/10/5 29/21/5
f 14/4/4 2/3/4 28/3/4 40/4/4
f 15/16/4 10/8/4 36/8/4 41/16/4
f 12/18/4 14/4/4 40/4/4 38/18/4
f 4/11/4 15/16/4 41/16/4 30/11/4
f 21/17/5 11/26/5 37/26/5 47/17/5
f 16/23/3 24/1/3 50/1/3 42/23/3
f 24/1/7 21/17/7 47/17/7 50/1/7
f 25/19/2 26/20/2 52/20/2 51/19/2
f 11/19/3 25/19/3 51/19/3 37/19/3
f 26/20/5 16/20/5 42/20/5 52/20/5
f 10/8/4 8/7/4 34/7/4 36/8/4
f 6/28/4 12/18/4 38/18/4 32/28/4
f 2/12/4 4/11/4 30/11/4 28/12/4
f 8/7/4 6/28/4 32/28/4 34/7/4
o Doors_05
v 6.497043 0.000000 7.390377
v 6.497043 3.152350 7.390377
v 7.097043 0.000000 7.390377
v 7.097043 3.152350 7.390377
v 6.497044 0.000000 10.017143
v 6.497044 3.152350 10.017143
v 7.097044 0.000000 10.017143
v 7.097044 3.152350 10.017143
v 7.097044 0.000000 9.683809
v 7.097044 0.000000 7.723711
v 7.097044 3.152350 7.723711
v 7.097044 3.152350 9.683809
v 6.497043 0.000000 7.723711
v 6.497043 0.000000 9.683810
v 6.497043 3.152350 9.683810
v 6.497043 3.152350 7.723711
v 6.497043 2.852350 7.390377
v 7.097043 2.852350 7.390377
v 7.097044 2.852350 10.017143
v 6.497044 2.852350 10.017143
v 6.497043 2.852350 9.683810
v 6.497043 2.852350 7.723711
v 7.097044 2.852350 7.723711
v 7.097044 2.852350 9.683809
v 6.897043 0.000000 7.390377
v 6.697043 0.000000 7.390377
v 6.697043 3.152350 7.390377
v 6.897043 3.152350 7.390377
v 6.697043 0.000000 10.017143
v 6.897044 0.000000 10.017143
v 6.897044 3.152350 10.017143
v 6.697043 3.152350 10.017143
v 6.697043 2.852350 7.723711
v 6.897043 2.852350 7.723711
v 6.697043 2.852350 9.683809
v 6.897044 2.852350 9.683809
v 6.897044 3.152350 9.683809
v 6.697043 3.152350 9.683809
v 6.897043 3.152350 7.723711
v 6.697043 3.152350 7.723711
v 6.897043 0.000000 7.723711
v 6.697043 0.000000 7.723711
v 6.897044 0.000000 9.683809
v 6.697043 0.000000 9.683809
v 6.897044 2.852350 10.017143
v 6.697043 2.852350 10.017143
v 6.697043 2.852350 7.390377
v 6.897043 2.852350 7.390377
vn -0.0000 -0.0000 -1.0000
vn 1.0000 -0.0000 -0.0000
vn -0.0000 -0.0000 1.0000
vn -1.0000 -0.0000 -0.0000
vn -0.0000 -1.0000 -0.0000
vn -0.0000 1.0000 -0.0000
vt 0.600000 0.166667
vt 0.625000 0.166667
vt 0.625000 0.250000
vt 0.600000 0.250000
vt 0.600000 0.416667
vt 0.625000 0.416667
vt 0.625000 0.500000
vt 0.600000 0.500000
vt 0.600000 0.666667
vt 0.625000 0.666667
vt 0.625000 0.750000
vt 0.600000 0.750000
vt 0.600000 0.916667
vt 0.625000 0.916667
vt 0.625000 1.000000
vt 0.600000 1.000000
vt 0.291667 0.666667
vt 0.375000 0.666667
vt 0.375000 0.750000
vt 0.291667 0.750000
vt 0.791667 0.666667
vt 0.875000 0.666667
vt 0.875000 0.750000
vt 0.791667 0.750000
vt 0.708333 0.666667
vt 0.708333 0.750000
vt 0.125000 0.666667
vt 0.208333 0.666667
vt 0.208333 0.750000
vt 0.125000 0.750000
vt 0.600000 0.555556
vt 0.291667 0.500000
vt 0.319444 0.611111
vt 0.625000 0.833333
vt 0.600000 0.833333
vt 0.625000 0.333333
vt 0.600000 0.333333
vt 0.600000 0.527778
vt 0.263889 0.638889
vt 0.208333 0.500000
vt 0.375000 0.250000
vt 0.375000 0.333333
vt 0.600000 0.722222
vt 0.600000 0.694444
vt 0.375000 0.833333
vt 0.375000 0.916667
vt 0.375000 1.000000
vt 0.375000 0.416667
vt 0.375000 0.500000
vt 0.375000 0.166667
vt 0.375000 0.000000
vt 0.600000 0.000000
vt 0.600000 0.083333
vt 0.375000 0.083333
vt 0.600000 0.583333
vt 0.375000 0.583333
vt 0.291667 0.583333
vt 0.319444 0.777778
vt 0.347222 0.722222
vt 0.125000 0.500000
vt 0.208333 0.583333
vt 0.125000 0.583333
vt 0.708333 0.500000
vt 0.791667 0.500000
vt 0.791667 0.583333
vt 0.708333 0.583333
vt 0.625000 0.583333
vt 0.875000 0.500000
vt 0.875000 0.583333
vt 0.625000 0.000000
vt 0.625000 0.083333
s 0
f 100/34/8 80/35/8 56/36/8 70/37/8
f 76/38/9 64/39/9 60/40/9 71/41/9
f 98/42/10 84/43/10 58/44/10 72/45/10
f 74/46/11 68/47/11 54/48/11 69/49/11
f 96/50/12 81/51/12 57/52/12 66/53/12
f 92/54/13 79/55/13 54/56/13 68/57/13
f 84/43/13 90/58/13 67/59/13 58/44/13
f 90/58/13 92/54/13 68/57/13 67/59/13
f 78/60/12 94/61/12 65/62/12 53/63/12
f 88/64/8 76/38/8 61/65/8 95/66/8
f 72/45/11 58/44/11 67/67/11 73/68/11
f 73/68/11 67/67/11 68/47/11 74/46/11
f 70/37/9 56/36/9 63/69/9 75/70/9
f 75/70/9 63/69/9 64/39/9 76/38/9
f 86/71/10 93/72/10 62/73/10 75/70/10
f 55/74/9 70/37/9 75/70/9 62/75/9
f 85/76/12 87/77/12 73/68/12 74/46/12
f 57/52/11 72/45/11 73/68/11 66/78/11
f 65/79/11 74/46/11 69/49/11 53/80/11
f 81/51/10 98/42/10 72/45/10 57/52/10
f 61/81/9 76/38/9 71/41/9 59/82/9
f 77/83/8 100/34/8 70/37/8 55/74/8
f 53/84/8 69/85/8 99/86/8 78/87/8
f 78/87/8 99/86/8 100/34/8 77/83/8
f 59/82/10 71/41/10 97/88/10 82/89/10
f 82/89/10 97/88/10 98/42/10 81/51/10
f 75/70/12 76/38/12 88/64/12 86/71/12
f 96/50/12 94/61/12 93/72/12 95/90/12
f 74/46/10 65/79/10 94/91/10 85/76/10
f 94/91/11 96/92/11 87/77/11 85/76/11
f 73/68/8 87/77/8 96/92/8 66/78/8
f 93/72/9 86/71/9 88/64/9 95/66/9
f 55/93/12 62/73/12 93/94/12 77/95/12
f 77/95/12 93/94/12 94/61/12 78/60/12
f 64/96/13 63/97/13 91/98/13 89/99/13
f 89/99/13 91/98/13 92/54/13 90/58/13
f 60/40/13 64/96/13 89/99/13 83/100/13
f 83/100/13 89/99/13 90/58/13 84/43/13
f 63/97/13 56/101/13 80/102/13 91/98/13
f 91/98/13 80/102/13 79/55/13 92/54/13
f 61/65/12 59/82/12 82/89/12 95/90/12
f 95/90/12 82/89/12 81/51/12 96/50/12
f 71/41/10 60/40/10 83/100/10 97/88/10
f 97/88/10 83/100/10 84/43/10 98/42/10
f 69/85/8 54/103/8 79/104/8 99/86/8
f 99/86/8 79/104/8 80/35/8 100/34/8
o Doors_04
v -6.902957 0.000000 -9.609623
v -6.902957 3.152350 -9.609623
v -6.302957 0.000000 -9.609623
v -6.302957 3.152350 -9.609623
v -6.902956 0.000000 -6.982857
v -6.902956 3.152350 -6.982857
v -6.302956 0.000000 -6.982857
v -6.302956 3.152350 -6.982857
v -6.302956 0.000000 -7.316190
v -6.302956 0.000000 -9.276290
v -6.302956 3.152350 -9.276290
v -6.302956 3.152350 -7.316190
v -6.902956 0.000000 -9.276289
v -6.902956 0.000000 -7.316190
v -6.902956 3.152350 -7.316190
v -6.902956 3.152350 -9.276289
v -6.902957 2.852350 -9.609623
v -6.302957 2.852350 -9.609623
v -6.302956 2.852350 -6.982857
v -6.902956 2.852350 -6.982857
v -6.902956 2.852350 -7.316190
v -6.902956 2.852350 -9.276289
v -6.302956 2.852350 -9.276290
v -6.302956 2.852350 -7.316190
vn -0.0000 -0.0000 -1.0000
vn 1.0000 -0.0000 -0.0000
vn -0.0000 -0.0000 1.0000
vn -1.0000 -0.0000 -0.0000
vn -0.0000 -1.0000 -0.0000
vn -0.0000 1.0000 -0.0000
vt 0.600000 0.000000
vt 0.625000 0.000000
vt 0.625000 0.250000
vt 0.600000 0.250000
vt 0.600000 0.416667
vt 0.625000 0.416667
vt 0.625000 0.500000
vt 0.600000 0.500000
vt 0.625000 0.750000
vt 0.600000 0.750000
vt 0.600000 0.916667
vt 0.625000 0.916667
vt 0.625000 1.000000
vt 0.600000 1.000000
vt 0.291667 0.500000
vt 0.375000 0.500000
vt 0.375000 0.750000
vt 0.291667 0.750000
vt 0.791667 0.500000
vt 0.875000 0.500000
vt 0.875000 0.750000
vt 0.791667 0.750000
vt 0.708333 0.500000
vt 0.708333 0.750000
vt 0.125000 0.500000
vt 0.208333 0.500000
vt 0.208333 0.750000
vt 0.125000 0.750000
vt 0.600000 0.833333
vt 0.375000 0.833333
vt 0.625000 0.833333
vt 0.625000 0.333333
vt 0.600000 0.333333
vt 0.375000 0.916667
vt 0.375000 0.250000
vt 0.375000 0.333333
vt 0.375000 1.000000
vt 0.375000 0.416667
vt 0.375000 0.000000
s 0
f 117/105/14 102/106/14 104/107/14 118/108/14
f 124/109/15 112/110/15 108/111/15 119/112/15
f 119/112/16 108/111/16 106/113/16 120/114/16
f 122/115/17 116/116/17 102/117/17 117/118/17
f 109/119/18 107/120/18 105/121/18 114/122/18
f 111/123/19 104/124/19 102/125/19 116/126/19
f 108/111/19 112/127/19 115/128/19 106/113/19
f 112/127/19 111/123/19 116/126/19 115/128/19
f 103/129/18 110/130/18 113/131/18 101/132/18
f 121/133/14 124/109/14 109/119/14 114/134/14
f 120/114/17 106/113/17 115/135/17 121/133/17
f 121/133/17 115/135/17 116/116/17 122/115/17
f 118/108/15 104/107/15 111/136/15 123/137/15
f 123/137/15 111/136/15 112/110/15 124/109/15
f 122/115/16 113/138/16 110/130/16 123/137/16
f 103/139/15 118/108/15 123/137/15 110/140/15
f 123/137/18 124/109/18 121/133/18 122/115/18
f 105/121/17 120/114/17 121/133/17 114/134/17
f 113/138/17 122/115/17 117/118/17 101/141/17
f 107/120/16 119/112/16 120/114/16 105/121/16
f 109/142/15 124/109/15 119/112/15 107/120/15
f 101/143/14 117/105/14 118/108/14 103/139/14
