# Blender 4.2.1 LTS
# www.blender.org
mtllib Level_01.mtl
o Level_01
v -3.844519 0.000000 5.000000
v -3.844519 4.000000 5.000000
v -3.844519 0.000000 -5.000000
v -3.844519 4.000000 -5.000000
v 5.000000 0.000000 5.000000
v 5.000000 4.000000 5.000000
v 5.000000 0.000000 -5.000000
v 5.000000 4.000000 -5.000000
v -4.648332 0.000000 -2.500000
v -5.000000 0.000000 0.000000
v -4.648332 0.000000 2.500000
v -4.648332 4.000000 2.500000
v -5.000000 4.000000 0.000000
v -4.648332 4.000000 -2.500000
v 5.000000 0.000000 2.500000
v 5.000000 0.000000 0.000000
v 5.000000 0.000000 -2.500000
v 5.000000 4.000000 -2.500000
v 5.000000 4.000000 0.000000
v 5.000000 4.000000 2.500000
v 1.898700 0.000000 -5.000000
v 1.898700 4.000000 -5.000000
v 1.898700 0.000000 5.000000
v 1.898700 4.000000 5.000000
v 1.898700 0.000000 -2.500000
v 1.898700 0.000000 0.000000
v 1.898700 0.000000 2.500000
v 4.122266 4.000000 -5.000000
v 4.122266 0.000000 5.000000
v 4.122266 0.000000 -2.500000
v 4.122266 0.000000 0.000000
v 4.122266 0.000000 2.500000
v 4.122266 0.000000 -5.000000
v 4.122266 4.000000 5.000000
v -3.844519 2.960632 5.000000
v -3.844519 2.960632 -5.000000
v 5.000000 2.960632 -5.000000
v 5.000000 2.960632 5.000000
v 5.000000 2.960632 -2.500000
v 5.000000 2.960632 0.000000
v 5.000000 2.960632 2.500000
v -4.648332 2.960632 2.500000
v -5.000000 2.960632 0.000000
v -4.648332 2.960632 -2.500000
v 1.898700 2.960632 5.000000
v 1.898700 2.960632 -5.000000
v 4.122266 2.960632 5.000000
v 4.122266 2.960632 -5.000000
v 4.122266 0.000000 -5.301299
v 1.898700 0.000000 -5.301299
v -3.994059 -0.207288 5.200431
v -3.990297 4.000000 5.200431
v -3.994059 -0.207288 -5.183764
v -3.990297 4.000000 -5.183764
v 5.200000 -0.207288 5.200431
v 5.200000 4.000000 5.200431
v 5.200000 -0.207288 -5.183764
v 5.200000 4.000000 -5.183764
v -4.849007 -0.207288 -2.546018
v -5.210006 -0.207288 0.000000
v -4.849007 -0.207288 2.546018
v -4.843989 4.000000 2.544867
v -5.201969 4.000000 0.000000
v -4.843989 4.000000 -2.544867
v 5.200000 -0.207288 2.500000
v 5.200000 -0.207288 0.000000
v 5.200000 -0.207288 -2.500000
v 5.200000 4.000000 -2.500000
v 5.200000 4.000000 0.000000
v 5.200000 4.000000 2.500000
v 1.898700 -0.207288 -5.183764
v 1.898700 4.000000 -5.183764
v 1.898700 -0.207288 5.200431
v 1.898700 4.000000 5.200431
v 1.898700 -0.207288 -2.500000
v 1.898700 -0.207288 0.000000
v 1.898700 -0.207288 2.500000
v 4.122266 4.000000 -5.183764
v 4.122266 -0.207288 5.200431
v 4.122266 -0.207288 -2.500000
v 4.122266 -0.207288 0.000000
v 4.122266 -0.207288 2.500000
v 4.122266 -0.207288 -5.183764
v 4.122266 4.000000 5.200431
v -3.990297 2.960632 5.200431
v -3.990297 2.960632 -5.183764
v 5.200000 2.960632 -5.183764
v 5.200000 2.960632 5.200431
v 5.200000 2.960632 -2.500000
v 5.200000 2.960632 0.000000
v 5.200000 2.960632 2.500000
v -4.843989 2.960632 2.544867
v -5.201969 2.960632 0.000000
v -4.843989 2.960632 -2.544867
v 1.898700 2.960632 5.200431
v 1.898700 2.960632 -5.183764
v 4.122266 2.960632 5.200431
v 4.122266 2.960632 -5.183764
v 4.122266 -0.207288 -5.301299
v 1.898700 -0.207288 -5.301299
vn 0.9520 -0.0000 0.3061
vn -0.0000 -0.0000 1.0000
vn -1.0000 -0.0000 -0.0000
vn -0.0000 -0.0000 -1.0000
vn -0.0000 1.0000 -0.0000
vn 0.9520 -0.0000 -0.3061
vn 0.9903 -0.0000 -0.1393
vn 0.9903 -0.0000 0.1393
vn -0.9515 -0.0000 -0.3078
vn 1.0000 -0.0000 -0.0000
vn -0.0000 -1.0000 -0.0000
vn -0.9520 -0.0000 0.3060
vn -0.9903 -0.0000 0.1393
vn -0.9903 -0.0000 -0.1393
vn -0.9902 0.0021 -0.1398
vn -0.9902 0.0021 0.1398
vn -0.9519 0.0014 0.3063
vn -0.9514 0.0014 -0.3081
vt 0.547539 0.187500
vt 0.547539 0.250000
vt 0.625000 0.250000
vt 0.625000 0.187500
vt 0.547539 0.500000
vt 0.625000 0.500000
vt 0.547539 0.687500
vt 0.547539 0.750000
vt 0.625000 0.750000
vt 0.625000 0.687500
vt 0.547539 0.750000
vt 0.547539 1.000000
vt 0.625000 1.000000
vt 0.375000 0.687500
vt 0.375000 0.750000
vt 0.375000 0.500000
vt 0.375000 0.562500
vt 0.375000 0.625000
vt 0.547539 0.562500
vt 0.625000 0.562500
vt 0.547539 0.625000
vt 0.625000 0.625000
vt 0.547539 0.000000
vt 0.547539 0.062500
vt 0.625000 0.062500
vt 0.625000 0.000000
vt 0.547539 0.125000
vt 0.625000 0.125000
vt 0.125000 0.625000
vt 0.125000 0.687500
vt 0.125000 0.562500
vt 0.125000 0.500000
vt 0.125000 0.750000
vt 0.375000 0.250000
vt 0.375000 0.125000
vt 0.375000 0.187500
vt 0.375000 0.062500
vt 0.375000 0.000000
vt 0.375000 1.000000
s 0
f 44/1/1 36/2/1 4/3/1 14/4/1
f 48/5/2 37/5/2 8/6/2 28/6/2
f 41/7/3 38/8/3 6/9/3 20/10/3
f 45/11/4 35/12/4 2/13/4 24/9/4
f 32/14/5 29/15/5 5/15/5 15/14/5
f 33/16/5 30/17/5 17/17/5 7/16/5
f 30/17/5 31/18/5 16/18/5 17/17/5
f 31/18/5 32/14/5 15/14/5 16/18/5
f 37/5/3 39/19/3 18/20/3 8/6/3
f 39/19/3 40/21/3 19/22/3 18/20/3
f 40/21/3 41/7/3 20/10/3 19/22/3
f 35/23/6 42/24/6 12/25/6 2/26/6
f 42/24/7 43/27/7 13/28/7 12/25/7
f 43/27/8 44/1/8 14/4/8 13/28/8
f 10/29/5 11/30/5 27/14/5 26/18/5
f 9/31/5 10/29/5 26/18/5 25/17/5
f 3/32/5 9/31/5 25/17/5 21/16/5
f 11/30/5 1/33/5 23/15/5 27/14/5
f 47/11/4 45/11/4 24/9/4 34/9/4
f 36/2/2 46/5/2 22/6/2 4/3/2
f 38/8/4 47/11/4 34/9/4 6/9/4
f 26/18/5 27/14/5 32/14/5 31/18/5
f 25/17/5 26/18/5 31/18/5 30/17/5
f 21/16/5 25/17/5 30/17/5 33/16/5
f 27/14/5 23/15/5 29/15/5 32/14/5
f 46/5/2 48/5/2 28/6/2 22/6/2
f 5/15/4 29/15/4 47/11/4 38/8/4
f 3/34/2 21/16/2 46/5/2 36/2/2
f 29/15/4 23/15/4 45/11/4 47/11/4
f 10/35/8 9/36/8 44/1/8 43/27/8
f 11/37/7 10/35/7 43/27/7 42/24/7
f 1/38/6 11/37/6 42/24/6 35/23/6
f 16/18/3 15/14/3 41/7/3 40/21/3
f 17/17/3 16/18/3 40/21/3 39/19/3
f 7/16/3 17/17/3 39/19/3 37/5/3
f 23/15/4 1/39/4 35/12/4 45/11/4
f 15/14/3 5/15/3 38/8/3 41/7/3
f 33/16/2 7/16/2 37/5/2 48/5/2
f 9/36/1 3/34/1 36/2/1 44/1/1
f 21/16/5 33/16/5 49/16/5 50/16/5
f 94/1/9 64/4/9 54/3/9 86/2/9
f 98/5/4 78/6/4 58/6/4 87/5/4
f 91/7/10 70/10/10 56/9/10 88/8/10
f 95/11/2 74/9/2 52/13/2 85/12/2
f 82/14/11 65/14/11 55/15/11 79/15/11
f 83/16/11 57/16/11 67/17/11 80/17/11
f 80/17/11 67/17/11 66/18/11 81/18/11
f 81/18/11 66/18/11 65/14/11 82/14/11
f 87/5/10 58/6/10 68/20/10 89/19/10
f 89/19/10 68/20/10 69/22/10 90/21/10
f 90/21/10 69/22/10 70/10/10 91/7/10
f 85/23/12 52/26/12 62/25/12 92/24/12
f 92/24/13 62/25/13 63/28/13 93/27/13
f 93/27/14 63/28/14 64/4/14 94/1/14
f 60/29/11 76/18/11 77/14/11 61/30/11
f 59/31/11 75/17/11 76/18/11 60/29/11
f 53/32/11 71/16/11 75/17/11 59/31/11
f 61/30/11 77/14/11 73/15/11 51/33/11
f 97/11/2 84/9/2 74/9/2 95/11/2
f 86/2/4 54/3/4 72/6/4 96/5/4
f 88/8/2 56/9/2 84/9/2 97/11/2
f 76/18/11 81/18/11 82/14/11 77/14/11
f 75/17/11 80/17/11 81/18/11 76/18/11
f 71/16/11 83/16/11 80/17/11 75/17/11
f 77/14/11 82/14/11 79/15/11 73/15/11
f 96/5/4 72/6/4 78/6/4 98/5/4
f 55/15/2 88/8/2 97/11/2 79/15/2
f 53/34/4 86/2/4 96/5/4 71/16/4
f 79/15/2 97/11/2 95/11/2 73/15/2
f 60/35/15 93/27/15 94/1/15 59/36/15
f 61/37/16 92/24/16 93/27/16 60/35/16
f 51/38/17 85/23/17 92/24/17 61/37/17
f 66/18/10 90/21/10 91/7/10 65/14/10
f 67/17/10 89/19/10 90/21/10 66/18/10
f 57/16/10 87/5/10 89/19/10 67/17/10
f 73/15/2 95/11/2 85/12/2 51/39/2
f 65/14/10 91/7/10 88/8/10 55/15/10
f 83/16/4 98/5/4 87/5/4 57/16/4
f 59/36/18 94/1/18 86/2/18 53/34/18
f 71/16/11 100/16/11 99/16/11 83/16/11
f 14/4/5 4/3/5 54/3/5 64/4/5
f 28/6/5 8/6/5 58/6/5 78/6/5
f 20/10/5 6/9/5 56/9/5 70/10/5
f 24/9/5 2/13/5 52/13/5 74/9/5
f 2/26/5 12/25/5 62/25/5 52/26/5
f 12/25/5 13/28/5 63/28/5 62/25/5
f 13/28/5 14/4/5 64/4/5 63/28/5
f 8/6/5 18/20/5 68/20/5 58/6/5
f 18/20/5 19/22/5 69/22/5 68/20/5
f 19/22/5 20/10/5 70/10/5 69/22/5
f 4/3/5 22/6/5 72/6/5 54/3/5
f 34/9/5 24/9/5 74/9/5 84/9/5
f 22/6/5 28/6/5 78/6/5 72/6/5
f 6/9/5 34/9/5 84/9/5 56/9/5
f 46/5/10 21/16/10 71/16/10 96/5/10
f 33/16/3 48/5/3 98/5/3 83/16/3
f 48/5/11 46/5/11 96/5/11 98/5/11
f 49/16/10 33/16/10 83/16/10 99/16/10
f 21/16/3 50/16/3 100/16/3 71/16/3
f 50/16/4 49/16/4 99/16/4 100/16/4
o Doors_01
v 1.711381 0.000000 -4.700000
v 1.711381 3.152350 -4.700000
v 1.711381 0.000000 -5.300000
v 1.711381 3.152350 -5.300000
v 4.338147 0.000000 -4.700000
v 4.338147 3.152350 -4.700000
v 4.338147 0.000000 -5.300000
v 4.338147 3.152350 -5.300000
v 4.004813 0.000000 -5.300000
v 2.044714 0.000000 -5.300000
v 2.044714 3.152350 -5.300000
v 4.004813 3.152350 -5.300000
v 2.044714 0.000000 -4.700000
v 4.004813 0.000000 -4.700000
v 4.004813 3.152350 -4.700000
v 2.044714 3.152350 -4.700000
v 1.711381 2.852350 -4.700000
v 1.711381 2.852350 -5.300000
v 4.338147 2.852350 -5.300000
v 4.338147 2.852350 -4.700000
v 4.004813 2.852350 -4.700000
v 2.044714 2.852350 -4.700000
v 2.044714 2.852350 -5.300000
v 4.004813 2.852350 -5.300000
vn -1.0000 -0.0000 -0.0000
vn -0.0000 -0.0000 -1.0000
vn 1.0000 -0.0000 -0.0000
vn -0.0000 -0.0000 1.0000
vn -0.0000 -1.0000 -0.0000
vn -0.0000 1.0000 -0.0000
vt 0.600000 0.000000
vt 0.625000 0.000000
vt 0.625000 0.250000
vt 0.600000 0.250000
vt 0.600000 0.416667
vt 0.625000 0.416667
vt 0.625000 0.500000
vt 0.600000 0.500000
vt 0.625000 0.750000
vt 0.600000 0.750000
vt 0.600000 0.916667
vt 0.625000 0.916667
vt 0.625000 1.000000
vt 0.600000 1.000000
vt 0.291667 0.500000
vt 0.375000 0.500000
vt 0.375000 0.750000
vt 0.291667 0.750000
vt 0.791667 0.500000
vt 0.875000 0.500000
vt 0.875000 0.750000
vt 0.791667 0.750000
vt 0.708333 0.500000
vt 0.708333 0.750000
vt 0.125000 0.500000
vt 0.208333 0.500000
vt 0.208333 0.750000
vt 0.125000 0.750000
vt 0.600000 0.833333
vt 0.375000 0.833333
vt 0.625000 0.833333
vt 0.625000 0.333333
vt 0.600000 0.333333
vt 0.375000 0.916667
vt 0.375000 0.250000
vt 0.375000 0.333333
vt 0.375000 1.000000
vt 0.375000 0.416667
vt 0.375000 0.000000
s 0
f 117/40/19 102/41/19 104/42/19 118/43/19
f 124/44/20 112/45/20 108/46/20 119/47/20
f 119/47/21 108/46/21 106/48/21 120/49/21
f 122/50/22 116/51/22 102/52/22 117/53/22
f 109/54/23 107/55/23 105/56/23 114/57/23
f 111/58/24 104/59/24 102/60/24 116/61/24
f 108/46/24 112/62/24 115/63/24 106/48/24
f 112/62/24 111/58/24 116/61/24 115/63/24
f 103/64/23 110/65/23 113/66/23 101/67/23
f 121/68/19 124/44/19 109/54/19 114/69/19
f 120/49/22 106/48/22 115/70/22 121/68/22
f 121/68/22 115/70/22 116/51/22 122/50/22
f 118/43/20 104/42/20 111/71/20 123/72/20
f 123/72/20 111/71/20 112/45/20 124/44/20
f 122/50/21 113/73/21 110/65/21 123/72/21
f 103/74/20 118/43/20 123/72/20 110/75/20
f 123/72/23 124/44/23 121/68/23 122/50/23
f 105/56/22 120/49/22 121/68/22 114/69/22
f 113/73/22 122/50/22 117/53/22 101/76/22
f 107/55/21 119/47/21 120/49/21 105/56/21
f 109/77/20 124/44/20 119/47/20 107/55/20
f 101/78/19 117/40/19 118/43/19 103/74/19
