# Blender 5.0.1
# www.blender.org
mtllib pipe_triple.mtl
o tube_4
v 1.395874 1.859572 -0.128385
v 1.473163 1.859572 -0.237962
v 1.685751 1.859572 -0.328827
v 1.396154 1.419654 -0.128770
v 1.473251 1.419654 -0.238083
v 1.685751 1.419654 -0.328827
v 1.280798 1.859572 -0.171512
v 1.396802 1.859572 -0.332906
v 1.685751 1.859572 -0.458654
v 1.365135 1.859572 -0.000000
v 1.365135 1.419654 -0.000000
v 1.236327 1.859572 -0.000000
v 1.573719 1.859572 -0.305845
v 1.573726 1.419654 -0.305855
v 1.530031 1.859572 -0.424757
v 1.395874 2.068026 -0.128385
v 1.473163 2.068026 -0.237962
v 1.685751 2.068026 -0.328827
v 1.280798 2.068026 -0.171512
v 1.396802 2.068026 -0.332906
v 1.685751 2.068026 -0.458654
v 1.365135 2.068026 -0.000000
v 1.236327 2.068026 -0.000000
v 1.573719 2.068026 -0.305845
v 1.530031 2.068026 -0.424757
v 1.975628 1.859572 -0.128385
v 1.898339 1.859572 -0.237961
v 1.975348 1.419654 -0.128770
v 1.898251 1.419654 -0.238082
v 2.090703 1.859572 -0.171512
v 1.974700 1.859572 -0.332906
v 2.006367 1.859572 0.000000
v 2.006367 1.419654 0.000000
v 2.135175 1.859572 0.000000
v 1.797783 1.859572 -0.305845
v 1.797776 1.419654 -0.305855
v 1.841471 1.859572 -0.424757
v 1.975628 2.068026 -0.128385
v 1.898339 2.068026 -0.237961
v 2.090703 2.068026 -0.171512
v 1.974700 2.068026 -0.332906
v 2.006367 2.068026 0.000000
v 2.135175 2.068026 0.000000
v 1.797783 2.068026 -0.305845
v 1.841471 2.068026 -0.424757
v 1.766299 2.068026 -0.219893
v 1.916264 2.068026 0.000000
v 1.838595 2.068026 -0.171087
v 1.894164 2.068026 -0.092305
v 1.605203 2.068026 -0.219893
v 1.455238 2.068026 -0.000000
v 1.685751 2.068026 -0.236417
v 1.532907 2.068026 -0.171087
v 1.477338 2.068026 -0.092305
v 1.280798 2.059019 -0.171512
v 1.236327 2.059019 -0.000000
v 1.685751 2.059019 -0.458654
v 1.530031 2.059019 -0.424757
v 1.396802 2.059019 -0.332906
v 2.090703 2.059019 -0.171512
v 2.135175 2.059019 0.000000
v 1.841471 2.059019 -0.424757
v 1.974700 2.059019 -0.332906
v 1.280798 1.871968 -0.171512
v 1.685751 1.871968 -0.458654
v 1.396802 1.871968 -0.332906
v 2.090703 1.871968 -0.171512
v 1.974700 1.871968 -0.332906
v 1.236327 1.871968 -0.000000
v 1.530031 1.871968 -0.424757
v 2.135175 1.871968 0.000000
v 1.841471 1.871968 -0.424757
v 1.464459 1.859572 -0.250982
v 1.380214 1.859572 -0.132608
v 1.685751 1.859572 -0.346345
v 1.347285 1.859572 -0.000000
v 1.567939 1.859572 -0.321501
v 1.907043 1.859572 -0.250982
v 1.991288 1.859572 -0.132608
v 2.024217 1.859572 0.000000
v 1.803563 1.859572 -0.321501
v 1.395880 1.850822 -0.128393
v 1.473165 1.850822 -0.237964
v 1.685751 1.850822 -0.328827
v 1.365135 1.850822 -0.000000
v 1.573719 1.850822 -0.305845
v 1.975623 1.850822 -0.128393
v 1.898337 1.850822 -0.237964
v 2.006367 1.850822 0.000000
v 1.797783 1.850822 -0.305845
v 2.494718 1.340482 -0.128385
v 2.494718 1.263193 -0.237961
v 2.494718 1.050605 -0.328827
v 2.051325 1.340200 -0.128773
v 2.051325 1.263104 -0.238083
v 2.051325 1.050605 -0.328827
v 2.494718 1.455558 -0.171512
v 2.494718 1.339554 -0.332905
v 2.494718 1.050605 -0.458653
v 2.494718 1.371221 0.000000
v 2.051325 1.371221 0.000000
v 2.494718 1.500029 0.000000
v 2.494718 1.162637 -0.305844
v 2.051325 1.162630 -0.305855
v 2.494718 1.206325 -0.424757
v 2.703172 1.340482 -0.128385
v 2.703172 1.263193 -0.237961
v 2.703172 1.050605 -0.328826
v 2.703172 1.455558 -0.171512
v 2.703172 1.339554 -0.332905
v 2.703172 1.050605 -0.458653
v 2.703172 1.371221 0.000000
v 2.703172 1.500029 0.000000
v 2.703172 1.162637 -0.305844
v 2.703172 1.206325 -0.424757
v 2.703172 1.131153 -0.219893
v 2.703172 1.281118 0.000000
v 2.703172 1.050605 -0.236416
v 2.703172 1.203449 -0.171087
v 2.703172 1.259018 -0.092305
v 2.694165 1.455558 -0.171512
v 2.694165 1.500029 0.000000
v 2.694165 1.050605 -0.458653
v 2.694165 1.206325 -0.424757
v 2.694165 1.339554 -0.332905
v 2.507114 1.455558 -0.171512
v 2.507115 1.050605 -0.458653
v 2.507115 1.339554 -0.332905
v 2.507114 1.500029 0.000000
v 2.507115 1.206325 -0.424757
v 2.494718 1.271897 -0.250982
v 2.494718 1.356142 -0.132607
v 2.494718 1.050605 -0.346344
v 2.494718 1.389071 0.000000
v 2.494718 1.168417 -0.321501
v 2.485968 1.340477 -0.128392
v 2.485968 1.263191 -0.237964
v 2.485968 1.050605 -0.328827
v 2.485968 1.371221 0.000000
v 2.485968 1.162637 -0.305845
v 1.365135 1.050605 -0.000000
v 1.396165 1.050605 -0.128786
v 1.473255 1.050605 -0.238088
v 1.573726 1.050605 -0.305855
v 1.685751 1.050605 -0.328827
v 1.938808 1.357096 -0.246732
v 1.991603 1.388434 -0.128771
v 1.831849 1.050605 -0.328827
v 2.012067 1.399059 0.000000
v 1.836915 1.302359 -0.317981
v 1.365135 1.263518 -0.000000
v 1.473253 1.263518 -0.238085
v 1.396159 1.263518 -0.128777
v 1.573726 1.263518 -0.305855
v 1.685751 1.263518 -0.328827
v 1.995067 1.310100 -0.242408
v 2.028008 1.381886 0.000000
v 2.017776 1.361063 -0.128772
v 1.941587 1.050605 -0.328827
v 1.942293 1.197936 -0.316011
v 1.395874 1.859572 0.128385
v 1.473163 1.859572 0.237961
v 1.685751 1.859572 0.328827
v 1.396154 1.419654 0.128770
v 1.473251 1.419654 0.238082
v 1.685751 1.419654 0.328827
v 1.280798 1.859572 0.171512
v 1.396802 1.859572 0.332906
v 1.685751 1.859572 0.458654
v 1.573719 1.859572 0.305845
v 1.573726 1.419654 0.305855
v 1.530030 1.859572 0.424757
v 1.395874 2.068026 0.128385
v 1.473163 2.068026 0.237961
v 1.685751 2.068026 0.328827
v 1.280798 2.068026 0.171512
v 1.396802 2.068026 0.332906
v 1.685751 2.068026 0.458654
v 1.573719 2.068026 0.305845
v 1.530030 2.068026 0.424757
v 1.975628 1.859572 0.128385
v 1.898339 1.859572 0.237962
v 1.975348 1.419654 0.128770
v 1.898251 1.419654 0.238083
v 2.090703 1.859572 0.171512
v 1.974699 1.859572 0.332906
v 1.797783 1.859572 0.305845
v 1.797776 1.419654 0.305855
v 1.841471 1.859572 0.424757
v 1.975628 2.068026 0.128385
v 1.898339 2.068026 0.237962
v 2.090703 2.068026 0.171512
v 1.974699 2.068026 0.332906
v 1.797783 2.068026 0.305845
v 1.841471 2.068026 0.424757
v 1.766299 2.068026 0.219893
v 1.838595 2.068026 0.171087
v 1.894164 2.068026 0.092305
v 1.605203 2.068026 0.219893
v 1.685751 2.068026 0.236417
v 1.532907 2.068026 0.171087
v 1.477338 2.068026 0.092305
v 1.280798 2.059019 0.171512
v 1.685751 2.059019 0.458654
v 1.530030 2.059019 0.424757
v 1.396802 2.059019 0.332906
v 2.090703 2.059019 0.171512
v 1.841471 2.059019 0.424757
v 1.974699 2.059019 0.332906
v 1.280798 1.871968 0.171512
v 1.685751 1.871968 0.458654
v 1.396802 1.871968 0.332906
v 2.090703 1.871968 0.171512
v 1.974699 1.871968 0.332906
v 1.530030 1.871968 0.424757
v 1.841471 1.871968 0.424757
v 1.464459 1.859572 0.250982
v 1.380214 1.859572 0.132608
v 1.685751 1.859572 0.346345
v 1.567939 1.859572 0.321501
v 1.907043 1.859572 0.250982
v 1.991288 1.859572 0.132608
v 1.803563 1.859572 0.321501
v 1.395879 1.850822 0.128393
v 1.473165 1.850822 0.237964
v 1.685751 1.850822 0.328827
v 1.573719 1.850822 0.305845
v 1.975622 1.850822 0.128393
v 1.898337 1.850822 0.237964
v 1.797783 1.850822 0.305845
v 2.494718 1.340482 0.128385
v 2.494718 1.263193 0.237962
v 2.494718 1.050605 0.328827
v 2.051325 1.340200 0.128773
v 2.051325 1.263104 0.238084
v 2.051325 1.050605 0.328827
v 2.494718 1.455558 0.171512
v 2.494718 1.339554 0.332906
v 2.494718 1.050605 0.458654
v 2.494718 1.162637 0.305845
v 2.051325 1.162630 0.305855
v 2.494718 1.206325 0.424757
v 2.703172 1.340482 0.128385
v 2.703172 1.263193 0.237962
v 2.703172 1.050605 0.328827
v 2.703172 1.455558 0.171512
v 2.703172 1.339554 0.332906
v 2.703172 1.050605 0.458654
v 2.703172 1.162637 0.305845
v 2.703172 1.206325 0.424757
v 2.703172 1.131153 0.219893
v 2.703172 1.050605 0.236417
v 2.703172 1.203449 0.171087
v 2.703172 1.259018 0.092305
v 2.694165 1.455558 0.171512
v 2.694165 1.050605 0.458654
v 2.694165 1.206325 0.424757
v 2.694165 1.339554 0.332906
v 2.507114 1.455558 0.171512
v 2.507114 1.050605 0.458654
v 2.507114 1.339554 0.332906
v 2.507114 1.206325 0.424757
v 2.494718 1.271897 0.250982
v 2.494718 1.356142 0.132608
v 2.494718 1.050605 0.346345
v 2.494718 1.168417 0.321501
v 2.485968 1.340477 0.128393
v 2.485968 1.263191 0.237964
v 2.485968 1.050605 0.328827
v 2.485968 1.162637 0.305845
v 1.396165 1.050605 0.128786
v 1.473255 1.050605 0.238087
v 1.573726 1.050605 0.305855
v 1.685751 1.050605 0.328827
v 1.938808 1.357096 0.246732
v 1.991603 1.388434 0.128771
v 1.831849 1.050605 0.328827
v 1.836915 1.302359 0.317981
v 1.473252 1.263518 0.238085
v 1.396159 1.263518 0.128777
v 1.573726 1.263518 0.305855
v 1.685751 1.263518 0.328827
v 1.995067 1.310100 0.242408
v 2.017776 1.361063 0.128772
v 1.941587 1.050605 0.328827
v 1.942293 1.197936 0.316011
v 1.395874 0.241638 -0.128385
v 1.473163 0.241638 -0.237962
v 1.685751 0.241638 -0.328827
v 1.396154 0.681555 -0.128770
v 1.473251 0.681555 -0.238083
v 1.685751 0.681555 -0.328827
v 1.280798 0.241638 -0.171512
v 1.396802 0.241638 -0.332906
v 1.685751 0.241638 -0.458654
v 1.365135 0.241638 -0.000000
v 1.365135 0.681555 -0.000000
v 1.236327 0.241638 -0.000000
v 1.573719 0.241638 -0.305845
v 1.573726 0.681555 -0.305855
v 1.530031 0.241638 -0.424757
v 1.395874 0.033184 -0.128385
v 1.473163 0.033184 -0.237962
v 1.685751 0.033184 -0.328827
v 1.280798 0.033184 -0.171512
v 1.396802 0.033184 -0.332906
v 1.685751 0.033184 -0.458654
v 1.365135 0.033184 -0.000000
v 1.236327 0.033184 -0.000000
v 1.573719 0.033184 -0.305845
v 1.530031 0.033184 -0.424757
v 1.975628 0.241638 -0.128385
v 1.898339 0.241638 -0.237961
v 1.975348 0.681555 -0.128770
v 1.898251 0.681555 -0.238082
v 2.090703 0.241638 -0.171512
v 1.974700 0.241638 -0.332906
v 2.006367 0.241638 0.000000
v 2.006367 0.681555 0.000000
v 2.135175 0.241638 0.000000
v 1.797783 0.241638 -0.305845
v 1.797776 0.681555 -0.305855
v 1.841471 0.241638 -0.424757
v 1.975628 0.033184 -0.128385
v 1.898339 0.033184 -0.237961
v 2.090703 0.033184 -0.171512
v 1.974700 0.033184 -0.332906
v 2.006367 0.033184 0.000000
v 2.135175 0.033184 0.000000
v 1.797783 0.033184 -0.305845
v 1.841471 0.033184 -0.424757
v 1.766299 0.033184 -0.219893
v 1.916264 0.033184 0.000000
v 1.838595 0.033184 -0.171087
v 1.894164 0.033184 -0.092305
v 1.605203 0.033184 -0.219893
v 1.455238 0.033184 -0.000000
v 1.685751 0.033184 -0.236417
v 1.532907 0.033184 -0.171087
v 1.477338 0.033184 -0.092305
v 1.280798 0.042191 -0.171512
v 1.236327 0.042191 -0.000000
v 1.685751 0.042191 -0.458654
v 1.530031 0.042191 -0.424757
v 1.396802 0.042191 -0.332906
v 2.090703 0.042191 -0.171512
v 2.135175 0.042191 0.000000
v 1.841471 0.042191 -0.424757
v 1.974700 0.042191 -0.332906
v 1.280798 0.229241 -0.171512
v 1.685751 0.229241 -0.458654
v 1.396802 0.229241 -0.332906
v 2.090703 0.229241 -0.171512
v 1.974700 0.229241 -0.332906
v 1.236327 0.229241 -0.000000
v 1.530031 0.229241 -0.424757
v 2.135175 0.229241 0.000000
v 1.841471 0.229241 -0.424757
v 1.464459 0.241638 -0.250982
v 1.380214 0.241638 -0.132608
v 1.685751 0.241638 -0.346345
v 1.347285 0.241638 -0.000000
v 1.567939 0.241638 -0.321501
v 1.907043 0.241638 -0.250982
v 1.991288 0.241638 -0.132608
v 2.024217 0.241638 0.000000
v 1.803563 0.241638 -0.321501
v 1.395880 0.250388 -0.128393
v 1.473165 0.250388 -0.237964
v 1.685751 0.250388 -0.328827
v 1.365135 0.250388 -0.000000
v 1.573719 0.250388 -0.305845
v 1.975623 0.250388 -0.128393
v 1.898337 0.250388 -0.237964
v 2.006367 0.250388 0.000000
v 1.797783 0.250388 -0.305845
v 2.494718 0.760728 -0.128385
v 2.494718 0.838017 -0.237961
v 2.051325 0.761010 -0.128773
v 2.051325 0.838105 -0.238083
v 2.494718 0.645652 -0.171512
v 2.494718 0.761656 -0.332905
v 2.494718 0.729989 0.000000
v 2.051325 0.729989 0.000000
v 2.494718 0.601180 0.000000
v 2.494718 0.938573 -0.305844
v 2.051325 0.938580 -0.305855
v 2.494718 0.894884 -0.424757
v 2.703172 0.760728 -0.128385
v 2.703172 0.838017 -0.237961
v 2.703172 0.645652 -0.171512
v 2.703172 0.761656 -0.332905
v 2.703172 0.729989 0.000000
v 2.703172 0.601180 0.000000
v 2.703172 0.938573 -0.305844
v 2.703172 0.894884 -0.424757
v 2.703172 0.970057 -0.219893
v 2.703172 0.820091 0.000000
v 2.703172 0.897760 -0.171087
v 2.703172 0.842192 -0.092305
v 2.694165 0.645652 -0.171512
v 2.694165 0.601180 0.000000
v 2.694165 0.894884 -0.424757
v 2.694165 0.761656 -0.332905
v 2.507114 0.645652 -0.171512
v 2.507115 0.761656 -0.332905
v 2.507114 0.601180 0.000000
v 2.507115 0.894884 -0.424757
v 2.494718 0.829312 -0.250982
v 2.494718 0.745068 -0.132607
v 2.494718 0.712139 0.000000
v 2.494718 0.932793 -0.321501
v 2.485968 0.760733 -0.128392
v 2.485968 0.838019 -0.237964
v 2.485968 0.729989 0.000000
v 2.485968 0.938573 -0.305845
v 1.938808 0.744114 -0.246732
v 1.991603 0.712775 -0.128771
v 2.012067 0.702150 0.000000
v 1.836915 0.798851 -0.317981
v 1.365135 0.837692 -0.000000
v 1.473253 0.837692 -0.238085
v 1.396159 0.837692 -0.128777
v 1.573726 0.837692 -0.305855
v 1.685751 0.837692 -0.328827
v 1.995067 0.791110 -0.242408
v 2.028008 0.719323 0.000000
v 2.017776 0.740146 -0.128772
v 1.942293 0.903274 -0.316011
v 1.395874 0.241638 0.128385
v 1.473163 0.241638 0.237961
v 1.685751 0.241638 0.328827
v 1.396154 0.681555 0.128770
v 1.473251 0.681555 0.238082
v 1.685751 0.681555 0.328827
v 1.280798 0.241638 0.171512
v 1.396802 0.241638 0.332906
v 1.685751 0.241638 0.458654
v 1.573719 0.241638 0.305845
v 1.573726 0.681555 0.305855
v 1.530030 0.241638 0.424757
v 1.395874 0.033184 0.128385
v 1.473163 0.033184 0.237961
v 1.685751 0.033184 0.328827
v 1.280798 0.033184 0.171512
v 1.396802 0.033184 0.332906
v 1.685751 0.033184 0.458654
v 1.573719 0.033184 0.305845
v 1.530030 0.033184 0.424757
v 1.975628 0.241638 0.128385
v 1.898339 0.241638 0.237962
v 1.975348 0.681555 0.128770
v 1.898251 0.681555 0.238083
v 2.090703 0.241638 0.171512
v 1.974699 0.241638 0.332906
v 1.797783 0.241638 0.305845
v 1.797776 0.681555 0.305855
v 1.841471 0.241638 0.424757
v 1.975628 0.033184 0.128385
v 1.898339 0.033184 0.237962
v 2.090703 0.033184 0.171512
v 1.974699 0.033184 0.332906
v 1.797783 0.033184 0.305845
v 1.841471 0.033184 0.424757
v 1.766299 0.033184 0.219893
v 1.838595 0.033184 0.171087
v 1.894164 0.033184 0.092305
v 1.605203 0.033184 0.219893
v 1.685751 0.033184 0.236417
v 1.532907 0.033184 0.171087
v 1.477338 0.033184 0.092305
v 1.280798 0.042191 0.171512
v 1.685751 0.042191 0.458654
v 1.530030 0.042191 0.424757
v 1.396802 0.042191 0.332906
v 2.090703 0.042191 0.171512
v 1.841471 0.042191 0.424757
v 1.974699 0.042191 0.332906
v 1.280798 0.229241 0.171512
v 1.685751 0.229241 0.458654
v 1.396802 0.229241 0.332906
v 2.090703 0.229241 0.171512
v 1.974699 0.229241 0.332906
v 1.530030 0.229241 0.424757
v 1.841471 0.229241 0.424757
v 1.464459 0.241638 0.250982
v 1.380214 0.241638 0.132608
v 1.685751 0.241638 0.346345
v 1.567939 0.241638 0.321501
v 1.907043 0.241638 0.250982
v 1.991288 0.241638 0.132608
v 1.803563 0.241638 0.321501
v 1.395879 0.250388 0.128393
v 1.473165 0.250388 0.237964
v 1.685751 0.250388 0.328827
v 1.573719 0.250388 0.305845
v 1.975622 0.250388 0.128393
v 1.898337 0.250388 0.237964
v 1.797783 0.250388 0.305845
v 2.494718 0.760728 0.128385
v 2.494718 0.838017 0.237962
v 2.051325 0.761010 0.128773
v 2.051325 0.838105 0.238084
v 2.494718 0.645652 0.171512
v 2.494718 0.761656 0.332906
v 2.494718 0.938573 0.305845
v 2.051325 0.938580 0.305855
v 2.494718 0.894884 0.424757
v 2.703172 0.760728 0.128385
v 2.703172 0.838017 0.237962
v 2.703172 0.645652 0.171512
v 2.703172 0.761656 0.332906
v 2.703172 0.938573 0.305845
v 2.703172 0.894884 0.424757
v 2.703172 0.970057 0.219893
v 2.703172 0.897760 0.171087
v 2.703172 0.842192 0.092305
v 2.694165 0.645652 0.171512
v 2.694165 0.894884 0.424757
v 2.694165 0.761656 0.332906
v 2.507114 0.645652 0.171512
v 2.507114 0.761656 0.332906
v 2.507114 0.894884 0.424757
v 2.494718 0.829312 0.250982
v 2.494718 0.745068 0.132608
v 2.494718 0.932793 0.321501
v 2.485968 0.760733 0.128393
v 2.485968 0.838019 0.237964
v 2.485968 0.938573 0.305845
v 1.938808 0.744114 0.246732
v 1.991603 0.712775 0.128771
v 1.836915 0.798851 0.317981
v 1.473252 0.837692 0.238085
v 1.396159 0.837692 0.128777
v 1.573726 0.837692 0.305855
v 1.685751 0.837692 0.328827
v 1.995067 0.791110 0.242408
v 2.017776 0.740146 0.128772
v 1.942293 0.903274 0.316011
vn -0.6005 -0.7521 -0.2714
vn -0.4629 -0.7500 -0.4724
vn -0.0000 -0.7553 -0.6554
vn -0.9109 -0.0001 -0.4125
vn -0.6997 -0.0000 -0.7144
vn -0.0210 0.0155 -0.9997
vn -0.6738 -0.6680 -0.3159
vn -0.5194 -0.6705 -0.5297
vn -0.0000 -0.6622 -0.7493
vn -0.6458 -0.7635 -0.0000
vn -1.0000 -0.0001 -0.0000
vn -0.7559 -0.6547 -0.0000
vn -0.2548 -0.7536 -0.6059
vn -0.3875 -0.0000 -0.9219
vn -0.2966 -0.6661 -0.6844
vn -0.0000 1.0000 -0.0000
vn -0.6738 0.6680 -0.3159
vn -0.5194 0.6705 -0.5297
vn -0.0000 0.6622 -0.7493
vn -0.7559 0.6547 -0.0000
vn -0.2966 0.6661 -0.6844
vn 0.6005 -0.7521 -0.2714
vn 0.4629 -0.7500 -0.4724
vn 0.8871 0.2356 -0.3970
vn 0.6607 0.2037 -0.7225
vn 0.6738 -0.6680 -0.3159
vn 0.5194 -0.6705 -0.5297
vn 0.6458 -0.7635 -0.0000
vn 0.9790 0.2037 -0.0000
vn 0.7559 -0.6547 -0.0000
vn 0.2548 -0.7536 -0.6059
vn 0.3345 0.0862 -0.9384
vn 0.2966 -0.6661 -0.6844
vn 0.6738 0.6680 -0.3159
vn 0.5194 0.6705 -0.5297
vn 0.7559 0.6547 -0.0000
vn 0.2966 0.6661 -0.6844
vn -0.9054 -0.0000 -0.4245
vn -1.0000 -0.0000 -0.0000
vn -0.0000 -0.0000 -1.0000
vn -0.3977 -0.0000 -0.9175
vn -0.7001 -0.0000 -0.7140
vn 0.9054 -0.0000 -0.4245
vn 1.0000 -0.0000 -0.0000
vn 0.3977 -0.0000 -0.9175
vn 0.7001 -0.0000 -0.7140
vn -0.0000 -1.0000 -0.0000
vn -0.9111 -0.0001 -0.4122
vn -0.6998 -0.0000 -0.7143
vn -1.0000 -0.0002 -0.0000
vn -0.3876 -0.0000 -0.9218
vn 0.9111 -0.0001 -0.4122
vn 0.6998 -0.0000 -0.7143
vn 1.0000 -0.0002 -0.0000
vn 0.3876 -0.0000 -0.9218
vn -0.7521 0.6005 -0.2714
vn -0.7500 0.4629 -0.4724
vn -0.7553 -0.0000 -0.6554
vn 0.2810 0.8755 -0.3931
vn 0.2148 0.6504 -0.7286
vn 0.0345 -0.0000 -0.9994
vn -0.6680 0.6738 -0.3159
vn -0.6705 0.5194 -0.5297
vn -0.6622 -0.0000 -0.7493
vn -0.7635 0.6458 -0.0000
vn 0.2590 0.9659 -0.0000
vn -0.6547 0.7559 -0.0000
vn -0.7536 0.2548 -0.6059
vn 0.0882 0.3378 -0.9371
vn -0.6661 0.2966 -0.6844
vn 0.6680 0.6738 -0.3159
vn 0.6705 0.5194 -0.5297
vn 0.6622 -0.0000 -0.7493
vn 0.6547 0.7559 -0.0000
vn 0.6661 0.2966 -0.6844
vn -0.0000 0.9054 -0.4245
vn -0.0000 0.3977 -0.9175
vn -0.0000 0.7001 -0.7140
vn -0.0001 0.9111 -0.4122
vn -0.0000 0.6998 -0.7143
vn -0.0002 1.0000 -0.0000
vn -0.0000 0.3876 -0.9218
vn -0.9109 -0.0000 -0.4126
vn -0.3874 -0.0000 -0.9219
vn -0.0843 -0.0000 -0.9964
vn 0.5582 0.4615 -0.6895
vn 0.7561 0.5641 -0.3317
vn 0.0355 -0.0000 -0.9994
vn 0.8364 0.5481 -0.0000
vn 0.2323 0.1778 -0.9563
vn -0.0665 0.0196 -0.9976
vn 0.4836 0.5691 -0.6650
vn 0.6155 0.7882 -0.0000
vn 0.5986 0.7340 -0.3209
vn 0.0530 -0.0000 -0.9986
vn 0.1803 0.2387 -0.9542
vn -0.6005 -0.7521 0.2714
vn -0.4629 -0.7500 0.4724
vn -0.0000 -0.7553 0.6554
vn -0.9109 -0.0001 0.4125
vn -0.6997 -0.0000 0.7144
vn -0.0210 0.0155 0.9997
vn -0.6738 -0.6680 0.3159
vn -0.5194 -0.6705 0.5297
vn -0.0000 -0.6622 0.7493
vn -0.2548 -0.7536 0.6059
vn -0.3875 -0.0000 0.9219
vn -0.2966 -0.6661 0.6844
vn -0.6738 0.6680 0.3159
vn -0.5194 0.6705 0.5297
vn -0.0000 0.6622 0.7493
vn -0.2966 0.6661 0.6844
vn 0.6005 -0.7521 0.2714
vn 0.4629 -0.7500 0.4724
vn 0.8871 0.2356 0.3970
vn 0.6607 0.2037 0.7225
vn 0.6738 -0.6680 0.3159
vn 0.5194 -0.6705 0.5297
vn 0.2548 -0.7536 0.6059
vn 0.3345 0.0862 0.9384
vn 0.2966 -0.6661 0.6844
vn 0.6738 0.6680 0.3159
vn 0.5194 0.6705 0.5297
vn 0.2966 0.6661 0.6844
vn -0.9054 -0.0000 0.4245
vn -0.0000 -0.0000 1.0000
vn -0.3977 -0.0000 0.9175
vn -0.7001 -0.0000 0.7140
vn 0.9054 -0.0000 0.4245
vn 0.3977 -0.0000 0.9175
vn 0.7001 -0.0000 0.7140
vn -0.9111 -0.0001 0.4122
vn -0.6998 -0.0000 0.7143
vn -0.3876 -0.0000 0.9218
vn 0.9111 -0.0001 0.4122
vn 0.6998 -0.0000 0.7143
vn 0.3876 -0.0000 0.9218
vn -0.7521 0.6005 0.2714
vn -0.7500 0.4629 0.4724
vn -0.7553 -0.0000 0.6554
vn 0.2810 0.8755 0.3931
vn 0.2148 0.6504 0.7286
vn 0.0345 -0.0000 0.9994
vn -0.6680 0.6738 0.3159
vn -0.6705 0.5194 0.5297
vn -0.6622 -0.0000 0.7493
vn -0.7536 0.2548 0.6059
vn 0.0882 0.3378 0.9371
vn -0.6661 0.2966 0.6844
vn 0.6680 0.6738 0.3159
vn 0.6705 0.5194 0.5297
vn 0.6622 -0.0000 0.7493
vn 0.6661 0.2966 0.6844
vn -0.0000 0.9054 0.4245
vn -0.0000 0.3977 0.9175
vn -0.0000 0.7001 0.7140
vn -0.0001 0.9111 0.4122
vn -0.0000 0.6998 0.7143
vn -0.0000 0.3876 0.9218
vn -0.9109 -0.0000 0.4126
vn -0.3874 -0.0000 0.9219
vn -0.0843 -0.0000 0.9964
vn 0.5582 0.4615 0.6895
vn 0.7561 0.5641 0.3317
vn 0.0355 -0.0000 0.9994
vn 0.2323 0.1778 0.9563
vn -0.0665 0.0196 0.9976
vn 0.4836 0.5691 0.6650
vn 0.5986 0.7340 0.3209
vn 0.0530 -0.0000 0.9986
vn 0.1803 0.2387 0.9542
vn -0.6005 0.7521 -0.2714
vn -0.4629 0.7500 -0.4724
vn -0.0000 0.7553 -0.6554
vn -0.9109 0.0001 -0.4125
vn -0.0210 -0.0155 -0.9997
vn -0.6458 0.7635 -0.0000
vn -1.0000 0.0001 -0.0000
vn -0.2548 0.7536 -0.6059
vn 0.6005 0.7521 -0.2714
vn 0.4629 0.7500 -0.4724
vn 0.8871 -0.2356 -0.3970
vn 0.6607 -0.2037 -0.7225
vn 0.6458 0.7635 -0.0000
vn 0.9790 -0.2037 -0.0000
vn 0.2548 0.7536 -0.6059
vn 0.3345 -0.0862 -0.9384
vn -0.9111 0.0001 -0.4122
vn -1.0000 0.0002 -0.0000
vn 0.9111 0.0001 -0.4122
vn 1.0000 0.0002 -0.0000
vn -0.7521 -0.6005 -0.2714
vn -0.7500 -0.4629 -0.4724
vn 0.2810 -0.8755 -0.3931
vn 0.2148 -0.6504 -0.7286
vn -0.6680 -0.6738 -0.3159
vn -0.6705 -0.5194 -0.5297
vn -0.7635 -0.6458 -0.0000
vn 0.2590 -0.9659 -0.0000
vn -0.6547 -0.7559 -0.0000
vn -0.7536 -0.2548 -0.6059
vn 0.0882 -0.3378 -0.9371
vn -0.6661 -0.2966 -0.6844
vn 0.6680 -0.6738 -0.3159
vn 0.6705 -0.5194 -0.5297
vn 0.6547 -0.7559 -0.0000
vn 0.6661 -0.2966 -0.6844
vn -0.0000 -0.9054 -0.4245
vn -0.0000 -0.3977 -0.9175
vn -0.0000 -0.7001 -0.7140
vn -0.0001 -0.9111 -0.4122
vn -0.0000 -0.6998 -0.7143
vn -0.0002 -1.0000 -0.0000
vn -0.0000 -0.3876 -0.9218
vn 0.5582 -0.4615 -0.6895
vn 0.7561 -0.5641 -0.3317
vn 0.8364 -0.5481 -0.0000
vn 0.2323 -0.1778 -0.9563
vn -0.0665 -0.0196 -0.9976
vn 0.4836 -0.5691 -0.6650
vn 0.6155 -0.7882 -0.0000
vn 0.5986 -0.7340 -0.3209
vn 0.1803 -0.2387 -0.9542
vn -0.6005 0.7521 0.2714
vn -0.4629 0.7500 0.4724
vn -0.0000 0.7553 0.6554
vn -0.9109 0.0001 0.4125
vn -0.0210 -0.0155 0.9997
vn -0.2548 0.7536 0.6059
vn 0.6005 0.7521 0.2714
vn 0.4629 0.7500 0.4724
vn 0.8871 -0.2356 0.3970
vn 0.6607 -0.2037 0.7225
vn 0.2548 0.7536 0.6059
vn 0.3345 -0.0862 0.9384
vn -0.9111 0.0001 0.4122
vn 0.9111 0.0001 0.4122
vn -0.7521 -0.6005 0.2714
vn -0.7500 -0.4629 0.4724
vn 0.2810 -0.8755 0.3931
vn 0.2148 -0.6504 0.7286
vn -0.6680 -0.6738 0.3159
vn -0.6705 -0.5194 0.5297
vn -0.7536 -0.2548 0.6059
vn 0.0882 -0.3378 0.9371
vn -0.6661 -0.2966 0.6844
vn 0.6680 -0.6738 0.3159
vn 0.6705 -0.5194 0.5297
vn 0.6661 -0.2966 0.6844
vn -0.0000 -0.9054 0.4245
vn -0.0000 -0.3977 0.9175
vn -0.0000 -0.7001 0.7140
vn -0.0001 -0.9111 0.4122
vn -0.0000 -0.6998 0.7143
vn -0.0000 -0.3876 0.9218
vn 0.5582 -0.4615 0.6895
vn 0.7561 -0.5641 0.3317
vn 0.2323 -0.1778 0.9563
vn -0.0665 -0.0196 0.9976
vn 0.4836 -0.5691 0.6650
vn 0.5986 -0.7340 0.3209
vn 0.1803 -0.2387 0.9542
vt 0.477968 0.641839
vt 0.477943 0.643906
vt 0.445226 0.644298
vt 0.445224 0.642186
vt 0.412175 0.644021
vt 0.412158 0.641912
vt 0.381835 0.642672
vt 0.381906 0.644822
vt 0.352662 0.646093
vt 0.352490 0.643861
vt 0.411516 0.647590
vt 0.445880 0.647863
vt 0.446822 0.669579
vt 0.411002 0.670088
vt 0.381906 0.648753
vt 0.382536 0.672000
vt 0.477885 0.648160
vt 0.477344 0.671251
vt 0.352996 0.650380
vt 0.354946 0.674497
vt 0.446244 0.704769
vt 0.475970 0.704520
vt 0.475889 0.706133
vt 0.446268 0.706344
vt 0.357684 0.707418
vt 0.384336 0.706039
vt 0.384398 0.707614
vt 0.357811 0.708915
vt 0.412016 0.705409
vt 0.412052 0.707006
vt 0.474517 0.731509
vt 0.444836 0.730289
vt 0.414742 0.731894
vt 0.386702 0.733438
vt 0.360114 0.736013
vt 0.226206 0.662759
vt 0.259426 0.657133
vt 0.259798 0.659267
vt 0.226623 0.664846
vt 0.292733 0.651230
vt 0.293063 0.653352
vt 0.323204 0.647180
vt 0.323470 0.649334
vt 0.294315 0.656828
vt 0.298579 0.679310
vt 0.262673 0.685011
vt 0.259764 0.662981
vt 0.324088 0.653249
vt 0.327224 0.676493
vt 0.232409 0.692291
vt 0.227489 0.669134
vt 0.269580 0.720024
vt 0.269840 0.721591
vt 0.240419 0.726824
vt 0.240037 0.725240
vt 0.331346 0.712094
vt 0.331140 0.710526
vt 0.303634 0.714626
vt 0.303876 0.716214
vt 0.246503 0.751632
vt 0.275559 0.745022
vt 0.305540 0.741280
vt 0.333465 0.737980
vt 0.389478 0.759290
vt 0.362460 0.763460
vt 0.335139 0.763917
vt 0.307768 0.765468
vt 0.473045 0.755587
vt 0.444936 0.753305
vt 0.279583 0.767692
vt 0.416753 0.756108
vt 0.252411 0.775001
vt 0.327414 0.678726
vt 0.298870 0.681594
vt 0.263125 0.687286
vt 0.355132 0.676774
vt 0.232877 0.694429
vt 0.382713 0.674220
vt 0.411097 0.672362
vt 0.446778 0.671861
vt 0.477281 0.673399
vt 0.280854 0.535052
vt 0.314964 0.533320
vt 0.346199 0.532863
vt 0.242914 0.539550
vt 0.205901 0.545219
vt 0.408030 0.531860
vt 0.376463 0.532321
vt 0.442554 0.531507
vt 0.476588 0.531241
vt 0.831952 0.516318
vt 0.829774 0.516094
vt 0.832456 0.481309
vt 0.834694 0.481443
vt 0.835692 0.446323
vt 0.837923 0.446472
vt 0.839630 0.414580
vt 0.837364 0.414472
vt 0.838425 0.383784
vt 0.840774 0.383791
vt 0.831978 0.445336
vt 0.828618 0.481728
vt 0.805522 0.480743
vt 0.808309 0.442880
vt 0.833237 0.414143
vt 0.808791 0.412864
vt 0.825275 0.515621
vt 0.800861 0.512699
vt 0.833914 0.383773
vt 0.808546 0.383714
vt 0.768667 0.476943
vt 0.766074 0.508104
vt 0.764392 0.507860
vt 0.767013 0.476845
vt 0.773766 0.383663
vt 0.772823 0.411760
vt 0.771672 0.411732
vt 0.771672 0.383640
vt 0.771036 0.440934
vt 0.769351 0.440867
vt 0.737925 0.503990
vt 0.741989 0.473084
vt 0.742994 0.441350
vt 0.743733 0.411732
vt 0.743733 0.383640
vt 0.716477 0.412383
vt 0.714530 0.383580
vt 0.712943 0.500215
vt 0.717875 0.471102
vt 0.717422 0.441337
vt 0.806445 0.412899
vt 0.805904 0.442811
vt 0.803124 0.480483
vt 0.806140 0.383705
vt 0.798611 0.512413
vt 0.958551 0.450233
vt 0.958490 0.415906
vt 0.958189 0.384184
vt 0.956787 0.488242
vt 0.954302 0.525862
vt 0.442218 0.491299
vt 0.407658 0.491482
vt 0.407593 0.436473
vt 0.442072 0.436473
vt 0.306318 0.500903
vt 0.346298 0.491640
vt 0.376171 0.491631
vt 0.346839 0.436473
vt 0.376297 0.436473
vt 0.476286 0.491126
vt 0.476104 0.436473
vt 0.239833 0.530333
vt 0.273161 0.515798
vt 0.204895 0.539380
vt 0.967236 0.491073
vt 0.961487 0.526395
vt 0.976708 0.458699
vt 0.987250 0.384297
vt 0.988604 0.422699
vt 0.281760 0.472372
vt 0.261030 0.501038
vt 0.309997 0.436473
vt 0.282704 0.436473
vt 0.235764 0.520918
vt 0.203839 0.533241
vt 0.511273 0.642921
vt 0.511232 0.645108
vt 0.546107 0.643052
vt 0.546113 0.645306
vt 0.578837 0.642666
vt 0.609332 0.639447
vt 0.609585 0.641767
vt 0.578976 0.645031
vt 0.546848 0.649126
vt 0.547377 0.673591
vt 0.508677 0.671312
vt 0.510476 0.648794
vt 0.579383 0.649402
vt 0.581060 0.676000
vt 0.611027 0.646187
vt 0.618888 0.676391
vt 0.506193 0.707732
vt 0.505987 0.709368
vt 0.612867 0.729063
vt 0.612281 0.731205
vt 0.574992 0.720816
vt 0.575453 0.718891
vt 0.542894 0.712784
vt 0.542593 0.714562
vt 0.504332 0.733900
vt 0.534884 0.740157
vt 0.563872 0.748947
vt 0.592117 0.764303
vt 0.193243 0.672622
vt 0.192757 0.670428
vt 0.158288 0.680086
vt 0.157812 0.677833
vt 0.125196 0.684610
vt 0.125580 0.686982
vt 0.094688 0.690612
vt 0.094418 0.688273
vt 0.158367 0.684057
vt 0.194752 0.676177
vt 0.201079 0.698416
vt 0.163008 0.708560
vt 0.126141 0.691396
vt 0.130205 0.718036
vt 0.094257 0.695276
vt 0.093098 0.726519
vt 0.210689 0.734184
vt 0.211211 0.735763
vt 0.110045 0.776747
vt 0.144622 0.759070
vt 0.145469 0.760867
vt 0.111060 0.778725
vt 0.175423 0.746439
vt 0.176077 0.748133
vt 0.217588 0.759656
vt 0.188759 0.771774
vt 0.162078 0.786195
vt 0.137550 0.806942
vt 0.573153 0.785280
vt 0.552253 0.771994
vt 0.200079 0.792977
vt 0.178071 0.806416
vt 0.501145 0.756650
vt 0.225088 0.781382
vt 0.160316 0.823612
vt 0.527965 0.763182
vt 0.130929 0.720783
vt 0.163720 0.711069
vt 0.201637 0.700791
vt 0.093828 0.729629
vt 0.580932 0.678813
vt 0.547194 0.676158
vt 0.508594 0.673709
vt 0.618837 0.679568
vt 0.131955 0.560707
vt 0.099582 0.570003
vt 0.070777 0.578778
vt 0.169114 0.552282
vt 0.544844 0.530585
vt 0.575872 0.530027
vt 0.604990 0.529291
vt 0.510565 0.530979
vt 0.827371 0.551748
vt 0.825065 0.551404
vt 0.823370 0.588667
vt 0.820982 0.588405
vt 0.819921 0.623163
vt 0.819519 0.655572
vt 0.817058 0.655585
vt 0.817405 0.623027
vt 0.816854 0.588736
vt 0.790969 0.586402
vt 0.797618 0.545811
vt 0.821241 0.550149
vt 0.812751 0.622936
vt 0.784619 0.621445
vt 0.812242 0.656581
vt 0.779596 0.661126
vt 0.759695 0.539500
vt 0.758011 0.539079
vt 0.725302 0.648293
vt 0.723108 0.647486
vt 0.738368 0.609643
vt 0.740332 0.610357
vt 0.750368 0.577267
vt 0.748550 0.576721
vt 0.732522 0.534874
vt 0.722802 0.566006
vt 0.710519 0.595033
vt 0.691421 0.622486
vt 0.671998 0.600554
vt 0.688029 0.580500
vt 0.709155 0.529312
vt 0.699708 0.556408
vt 0.781677 0.620993
vt 0.788364 0.585936
vt 0.795035 0.545458
vt 0.776265 0.660668
vt 0.947508 0.601586
vt 0.942786 0.635809
vt 0.938154 0.667009
vt 0.951179 0.563496
vt 0.510236 0.490934
vt 0.510043 0.436473
vt 0.544163 0.436473
vt 0.544403 0.490673
vt 0.058035 0.542696
vt 0.096886 0.537541
vt 0.575239 0.490346
vt 0.574934 0.436473
vt 0.603807 0.436473
vt 0.604157 0.489956
vt 0.132652 0.540101
vt 0.168917 0.542554
vt 0.961964 0.562197
vt 0.966816 0.595691
vt 0.966735 0.671727
vt 0.973768 0.633342
vt 0.109073 0.502448
vt 0.138904 0.522049
vt 0.037100 0.495375
vt 0.069571 0.481010
vt 0.093837 0.469819
vt 0.169587 0.532292
vt 0.477968 0.231108
vt 0.445224 0.230760
vt 0.445226 0.228649
vt 0.477943 0.229041
vt 0.412158 0.231035
vt 0.412175 0.228926
vt 0.381835 0.230274
vt 0.352490 0.229085
vt 0.352662 0.226854
vt 0.381906 0.228124
vt 0.411516 0.225356
vt 0.411002 0.202858
vt 0.446823 0.203368
vt 0.445880 0.225083
vt 0.381907 0.224193
vt 0.382536 0.200947
vt 0.477344 0.201695
vt 0.477886 0.224786
vt 0.352996 0.222566
vt 0.354946 0.198450
vt 0.446244 0.168177
vt 0.446268 0.166602
vt 0.475889 0.166814
vt 0.475971 0.168426
vt 0.357684 0.165529
vt 0.357811 0.164031
vt 0.384398 0.165332
vt 0.384336 0.166908
vt 0.412017 0.167537
vt 0.412052 0.165940
vt 0.474517 0.141437
vt 0.444836 0.142657
vt 0.414742 0.141052
vt 0.386702 0.139508
vt 0.360114 0.136933
vt 0.226206 0.210187
vt 0.226623 0.208101
vt 0.259798 0.213680
vt 0.259427 0.215813
vt 0.293063 0.219595
vt 0.292733 0.221716
vt 0.323205 0.225766
vt 0.323471 0.223613
vt 0.294315 0.216119
vt 0.259765 0.209965
vt 0.262673 0.187935
vt 0.298579 0.193637
vt 0.324088 0.219698
vt 0.327225 0.196453
vt 0.227489 0.203812
vt 0.232410 0.180655
vt 0.269581 0.152922
vt 0.240037 0.147706
vt 0.240419 0.146122
vt 0.269840 0.151356
vt 0.331140 0.162420
vt 0.331346 0.160852
vt 0.303634 0.158320
vt 0.303876 0.156732
vt 0.246503 0.121314
vt 0.275559 0.127924
vt 0.305540 0.131666
vt 0.333465 0.134966
vt 0.362460 0.109487
vt 0.389478 0.113656
vt 0.307768 0.107479
vt 0.335139 0.109029
vt 0.444936 0.119642
vt 0.473045 0.117360
vt 0.279583 0.105254
vt 0.416753 0.116838
vt 0.252411 0.097946
vt 0.327414 0.194220
vt 0.298870 0.191353
vt 0.263126 0.185660
vt 0.355132 0.196172
vt 0.232877 0.178518
vt 0.382713 0.198726
vt 0.411097 0.200585
vt 0.446778 0.201086
vt 0.477281 0.199547
vt 0.280854 0.337894
vt 0.314964 0.339626
vt 0.346199 0.340083
vt 0.242914 0.333396
vt 0.205901 0.327727
vt 0.408030 0.341086
vt 0.376463 0.340625
vt 0.442554 0.341440
vt 0.476588 0.341705
vt 0.832607 0.251034
vt 0.835176 0.286061
vt 0.832930 0.286186
vt 0.830420 0.251248
vt 0.838211 0.321114
vt 0.835978 0.321256
vt 0.839766 0.353000
vt 0.837501 0.353096
vt 0.832257 0.322229
vt 0.808529 0.324614
vt 0.805973 0.286647
vt 0.829086 0.285749
vt 0.833375 0.353403
vt 0.808916 0.354539
vt 0.801384 0.254437
vt 0.825903 0.251697
vt 0.768982 0.290291
vt 0.767325 0.290385
vt 0.764782 0.259256
vt 0.766470 0.259013
vt 0.771255 0.355627
vt 0.772917 0.355565
vt 0.771232 0.326385
vt 0.769544 0.326448
vt 0.738214 0.263087
vt 0.742234 0.294098
vt 0.743164 0.325886
vt 0.743967 0.355473
vt 0.716562 0.354792
vt 0.718065 0.296057
vt 0.713144 0.266851
vt 0.717572 0.325847
vt 0.806573 0.354494
vt 0.806193 0.324688
vt 0.803501 0.286906
vt 0.799125 0.254719
vt 0.959051 0.318101
vt 0.958729 0.352457
vt 0.957583 0.280015
vt 0.955396 0.242276
vt 0.442218 0.381648
vt 0.407658 0.381464
vt 0.346298 0.381306
vt 0.306318 0.372043
vt 0.376171 0.381316
vt 0.476286 0.381821
vt 0.273161 0.357148
vt 0.239833 0.342613
vt 0.204896 0.333566
vt 0.968078 0.277263
vt 0.962607 0.241801
vt 0.977299 0.309770
vt 0.988913 0.345896
vt 0.281760 0.400574
vt 0.261030 0.371908
vt 0.235764 0.352029
vt 0.203839 0.339705
vt 0.511232 0.227838
vt 0.511273 0.230025
vt 0.546114 0.227640
vt 0.546107 0.229894
vt 0.578837 0.230281
vt 0.578976 0.227915
vt 0.609586 0.231180
vt 0.609332 0.233499
vt 0.546849 0.223820
vt 0.510476 0.224152
vt 0.508677 0.201635
vt 0.547377 0.199355
vt 0.579383 0.223544
vt 0.581060 0.196947
vt 0.611027 0.226760
vt 0.618889 0.196555
vt 0.506193 0.165215
vt 0.505987 0.163579
vt 0.612867 0.143884
vt 0.575453 0.154055
vt 0.574993 0.152131
vt 0.612281 0.141742
vt 0.542894 0.160163
vt 0.542593 0.158384
vt 0.504333 0.139047
vt 0.534884 0.132790
vt 0.563872 0.124000
vt 0.592118 0.108644
vt 0.192757 0.202518
vt 0.193243 0.200324
vt 0.157812 0.195113
vt 0.158288 0.192860
vt 0.125196 0.188336
vt 0.094418 0.184673
vt 0.094688 0.182334
vt 0.125581 0.185964
vt 0.158367 0.188889
vt 0.163008 0.164386
vt 0.201079 0.174531
vt 0.194752 0.196769
vt 0.126141 0.181550
vt 0.130205 0.154910
vt 0.094257 0.177670
vt 0.093098 0.146428
vt 0.210689 0.138762
vt 0.211212 0.137184
vt 0.110045 0.096200
vt 0.111060 0.094221
vt 0.145469 0.112080
vt 0.144623 0.113876
vt 0.175424 0.126507
vt 0.176077 0.124814
vt 0.217588 0.113290
vt 0.188759 0.101172
vt 0.162078 0.086752
vt 0.137550 0.066004
vt 0.552253 0.100953
vt 0.573153 0.087667
vt 0.178071 0.066530
vt 0.200080 0.079969
vt 0.501145 0.116296
vt 0.225088 0.091565
vt 0.160316 0.049335
vt 0.527965 0.109764
vt 0.130929 0.152163
vt 0.163720 0.161877
vt 0.201637 0.172155
vt 0.093828 0.143318
vt 0.580932 0.194134
vt 0.547194 0.196789
vt 0.508594 0.199238
vt 0.618837 0.193379
vt 0.131955 0.312239
vt 0.099582 0.302943
vt 0.070777 0.294168
vt 0.169114 0.320664
vt 0.544844 0.342361
vt 0.575872 0.342920
vt 0.604990 0.343655
vt 0.510565 0.341967
vt 0.825880 0.215822
vt 0.828199 0.215486
vt 0.822004 0.178610
vt 0.824411 0.178356
vt 0.821147 0.143585
vt 0.818608 0.143704
vt 0.818485 0.110896
vt 0.820953 0.110948
vt 0.817851 0.178258
vt 0.822032 0.217066
vt 0.798253 0.221343
vt 0.791822 0.180503
vt 0.813915 0.143762
vt 0.785542 0.145060
vt 0.813646 0.109834
vt 0.780690 0.105031
vt 0.760158 0.227485
vt 0.758464 0.227905
vt 0.725827 0.117818
vt 0.740880 0.156122
vt 0.738897 0.156835
vt 0.723611 0.118616
vt 0.750891 0.189493
vt 0.749061 0.190038
vt 0.732842 0.232080
vt 0.723126 0.200759
vt 0.710812 0.171496
vt 0.691610 0.143783
vt 0.688129 0.186106
vt 0.671998 0.165866
vt 0.709362 0.237651
vt 0.699871 0.210390
vt 0.782570 0.145504
vt 0.789119 0.180989
vt 0.795727 0.221687
vt 0.777326 0.105449
vt 0.949192 0.166214
vt 0.944719 0.131789
vt 0.940313 0.100391
vt 0.952570 0.204492
vt 0.510236 0.382012
vt 0.544403 0.382274
vt 0.096886 0.335405
vt 0.058035 0.330250
vt 0.575239 0.382600
vt 0.604157 0.382991
vt 0.168917 0.330392
vt 0.132652 0.332845
vt 0.963385 0.205885
vt 0.968537 0.172293
vt 0.969078 0.095880
vt 0.975834 0.134519
vt 0.109073 0.370498
vt 0.138904 0.350897
vt 0.069571 0.391936
vt 0.037100 0.377571
vt 0.093837 0.403127
vt 0.169587 0.340654
s 1
usemtl pipe_triple
f 85/1/50 10/2/10 1/3/1 82/4/48
f 82/4/48 1/3/1 2/5/2 83/6/49
f 86/7/51 13/8/13 3/9/3 84/10/40
f 73/11/47 74/12/47 7/13/7 8/14/8
f 77/15/47 73/11/47 8/14/8 15/16/15
f 74/12/47 76/17/47 12/18/12 7/13/7
f 75/19/47 77/15/47 15/16/15 9/20/9
f 83/6/49 2/5/2 13/8/13 86/7/51
f 55/21/38 56/22/39 23/23/20 19/24/17
f 57/25/40 58/26/41 25/27/21 21/28/19
f 59/29/42 55/21/38 19/24/17 20/30/18
f 22/31/16 16/32/16 19/24/17 23/23/20
f 16/32/16 17/33/16 20/30/18 19/24/17
f 17/33/16 24/34/16 25/27/21 20/30/18
f 24/34/16 18/35/16 21/28/19 25/27/21
f 89/36/54 87/37/52 26/38/22 32/39/28
f 87/37/52 88/40/53 27/41/23 26/38/22
f 90/42/55 84/10/40 3/9/3 35/43/31
f 78/44/47 31/45/27 30/46/26 79/47/47
f 81/48/47 37/49/33 31/45/27 78/44/47
f 79/47/47 30/46/26 34/50/30 80/51/47
f 75/19/47 9/20/9 37/49/33 81/48/47
f 88/40/53 90/42/55 35/43/31 27/41/23
f 58/26/41 59/29/42 20/30/18 25/27/21
f 60/52/43 40/53/34 43/54/36 61/55/44
f 57/25/40 21/28/19 45/56/37 62/57/45
f 63/58/46 41/59/35 40/53/34 60/52/43
f 42/60/16 43/54/36 40/53/34 38/61/16
f 38/61/16 40/53/34 41/59/35 39/62/16
f 39/62/16 41/59/35 45/56/37 44/63/16
f 44/63/16 45/56/37 21/28/19 18/35/16
f 62/57/45 45/56/37 41/59/35 63/58/46
f 18/35/16 24/34/16 50/64/16 52/65/16
f 39/62/16 44/63/16 46/66/16 48/67/16
f 16/32/16 22/31/16 51/68/16 54/69/16
f 38/61/16 39/62/16 48/67/16 49/70/16
f 44/63/16 18/35/16 52/65/16 46/66/16
f 24/34/16 17/33/16 53/71/16 50/64/16
f 42/60/16 38/61/16 49/70/16 47/72/16
f 17/33/16 16/32/16 54/69/16 53/71/16
f 72/73/45 62/57/45 63/58/46 68/74/46
f 68/74/46 63/58/46 60/52/43 67/75/43
f 65/76/40 57/25/40 62/57/45 72/73/45
f 67/75/43 60/52/43 61/55/44 71/77/44
f 70/78/41 66/79/42 59/29/42 58/26/41
f 66/79/42 64/80/38 55/21/38 59/29/42
f 65/76/40 70/78/41 58/26/41 57/25/40
f 64/80/38 69/81/39 56/22/39 55/21/38
f 7/13/7 12/18/12 69/81/39 64/80/38
f 9/20/9 15/16/15 70/78/41 65/76/40
f 8/14/8 7/13/7 64/80/38 66/79/42
f 15/16/15 8/14/8 66/79/42 70/78/41
f 30/46/26 67/75/43 71/77/44 34/50/30
f 9/20/9 65/76/40 72/73/45 37/49/33
f 31/45/27 68/74/46 67/75/43 30/46/26
f 37/49/33 72/73/45 68/74/46 31/45/27
f 3/9/3 75/19/47 81/48/47 35/43/31
f 26/38/22 79/47/47 80/51/47 32/39/28
f 35/43/31 81/48/47 78/44/47 27/41/23
f 27/41/23 78/44/47 79/47/47 26/38/22
f 3/9/3 13/8/13 77/15/47 75/19/47
f 1/3/1 10/2/10 76/17/47 74/12/47
f 13/8/13 2/5/2 73/11/47 77/15/47
f 2/5/2 1/3/1 74/12/47 73/11/47
f 29/82/25 36/83/32 90/42/55 88/40/53
f 36/83/32 6/84/6 84/10/40 90/42/55
f 28/85/24 29/82/25 88/40/53 87/37/52
f 33/86/29 28/85/24 87/37/52 89/36/54
f 5/87/5 83/6/49 86/7/51 14/88/14
f 14/88/14 86/7/51 84/10/40 6/84/6
f 4/89/4 82/4/48 83/6/49 5/87/5
f 11/90/11 85/1/50 82/4/48 4/89/4
f 139/91/81 100/92/65 91/93/56 136/94/79
f 136/94/79 91/93/56 92/95/57 137/96/80
f 140/97/82 103/98/68 93/99/58 138/100/40
f 131/101/39 132/102/39 97/103/62 98/104/63
f 135/105/39 131/101/39 98/104/63 105/106/70
f 132/102/39 134/107/39 102/108/67 97/103/62
f 133/109/39 135/105/39 105/106/70 99/110/64
f 137/96/80 92/95/57 103/98/68 140/97/82
f 121/111/76 122/112/16 113/113/74 109/114/71
f 123/115/40 124/116/77 115/117/75 111/118/73
f 125/119/78 121/111/76 109/114/71 110/120/72
f 112/121/44 106/122/44 109/114/71 113/113/74
f 106/122/44 107/123/44 110/120/72 109/114/71
f 107/123/44 114/124/44 115/117/75 110/120/72
f 114/124/44 108/125/44 111/118/73 115/117/75
f 124/116/77 125/119/78 110/120/72 115/117/75
f 108/125/44 114/124/44 116/126/44 118/127/44
f 106/122/44 112/121/44 117/128/44 120/129/44
f 114/124/44 107/123/44 119/130/44 116/126/44
f 107/123/44 106/122/44 120/129/44 119/130/44
f 130/131/77 128/132/78 125/119/78 124/116/77
f 128/132/78 126/133/76 121/111/76 125/119/78
f 127/134/40 130/131/77 124/116/77 123/115/40
f 126/133/76 129/135/16 122/112/16 121/111/76
f 97/103/62 102/108/67 129/135/16 126/133/76
f 99/110/64 105/106/70 130/131/77 127/134/40
f 98/104/63 97/103/62 126/133/76 128/132/78
f 105/106/70 98/104/63 128/132/78 130/131/77
f 93/99/58 103/98/68 135/105/39 133/109/39
f 91/93/56 100/92/65 134/107/39 132/102/39
f 103/98/68 92/95/57 131/101/39 135/105/39
f 92/95/57 91/93/56 132/102/39 131/101/39
f 95/136/60 137/96/80 140/97/82 104/137/69
f 104/137/69 140/97/82 138/100/40 96/138/61
f 94/139/59 136/94/79 137/96/80 95/136/60
f 101/140/66 139/91/81 136/94/79 94/139/59
f 153/141/83 152/142/5 143/143/5 142/144/83
f 6/84/6 36/83/32 150/145/90 155/146/91
f 154/147/84 155/146/91 145/148/85 144/149/84
f 152/142/5 154/147/84 144/149/84 143/143/5
f 151/150/39 153/141/83 142/144/83 141/151/39
f 29/82/25 28/85/24 147/152/87 146/153/86
f 28/85/24 33/86/29 149/154/89 147/152/87
f 11/90/11 4/89/4 153/141/83 151/150/39
f 158/155/94 157/156/93 101/140/66 94/139/59
f 156/157/92 158/155/94 94/139/59 95/136/60
f 159/158/95 160/159/96 104/137/69 96/138/61
f 150/145/90 36/83/32 29/82/25 146/153/86
f 160/160/96 150/145/90 146/153/86 156/161/92
f 5/87/5 14/88/14 154/147/84 152/142/5
f 14/88/14 6/84/6 155/146/91 154/147/84
f 4/89/4 5/87/5 152/142/5 153/141/83
f 155/146/91 150/145/90 148/162/88 145/148/85
f 104/137/69 160/159/96 156/157/92 95/136/60
f 148/162/88 150/145/90 160/160/96 159/163/95
f 146/153/86 147/152/87 158/164/94 156/161/92
f 147/152/87 149/154/89 157/165/93 158/164/94
f 85/1/50 224/166/132 161/167/97 10/2/10
f 224/166/132 225/168/133 162/169/98 161/167/97
f 227/170/134 226/171/126 163/172/99 170/173/106
f 217/174/47 168/175/104 167/176/103 218/177/47
f 220/178/47 172/179/108 168/175/104 217/174/47
f 218/177/47 167/176/103 12/18/12 76/17/47
f 219/180/47 169/181/105 172/179/108 220/178/47
f 225/168/133 227/170/134 170/173/106 162/169/98
f 203/182/125 176/183/109 23/23/20 56/22/39
f 204/184/126 178/185/111 180/186/112 205/187/127
f 206/188/128 177/189/110 176/183/109 203/182/125
f 22/31/16 23/23/20 176/183/109 173/190/16
f 173/190/16 176/183/109 177/189/110 174/191/16
f 174/191/16 177/189/110 180/186/112 179/192/16
f 179/192/16 180/186/112 178/185/111 175/193/16
f 89/36/54 32/39/28 181/194/113 228/195/135
f 228/195/135 181/194/113 182/196/114 229/197/136
f 230/198/137 187/199/119 163/200/99 226/201/126
f 221/202/47 222/203/47 185/204/117 186/205/118
f 223/206/47 221/202/47 186/205/118 189/207/121
f 222/203/47 80/51/47 34/50/30 185/204/117
f 219/208/47 223/206/47 189/207/121 169/209/105
f 229/197/136 182/196/114 187/199/119 230/198/137
f 205/187/127 180/186/112 177/189/110 206/188/128
f 207/210/129 61/55/44 43/54/36 192/211/122
f 204/212/126 208/213/130 195/214/124 178/215/111
f 209/216/131 207/210/129 192/211/122 193/217/123
f 42/60/16 190/218/16 192/211/122 43/54/36
f 190/218/16 191/219/16 193/217/123 192/211/122
f 191/219/16 194/220/16 195/214/124 193/217/123
f 194/220/16 175/221/16 178/215/111 195/214/124
f 208/213/130 209/216/131 193/217/123 195/214/124
f 175/193/16 200/222/16 199/223/16 179/192/16
f 191/219/16 197/224/16 196/225/16 194/220/16
f 173/190/16 202/226/16 51/68/16 22/31/16
f 190/218/16 198/227/16 197/224/16 191/219/16
f 194/220/16 196/225/16 200/228/16 175/221/16
f 179/192/16 199/223/16 201/229/16 174/191/16
f 42/60/16 47/72/16 198/227/16 190/218/16
f 174/191/16 201/229/16 202/226/16 173/190/16
f 216/230/130 214/231/131 209/216/131 208/213/130
f 214/231/131 213/232/129 207/210/129 209/216/131
f 211/233/126 216/230/130 208/213/130 204/212/126
f 213/232/129 71/77/44 61/55/44 207/210/129
f 215/234/127 205/187/127 206/188/128 212/235/128
f 212/235/128 206/188/128 203/182/125 210/236/125
f 211/237/126 204/184/126 205/187/127 215/234/127
f 210/236/125 203/182/125 56/22/39 69/81/39
f 167/176/103 210/236/125 69/81/39 12/18/12
f 169/181/105 211/237/126 215/234/127 172/179/108
f 168/175/104 212/235/128 210/236/125 167/176/103
f 172/179/108 215/234/127 212/235/128 168/175/104
f 185/204/117 34/50/30 71/77/44 213/232/129
f 169/209/105 189/207/121 216/230/130 211/233/126
f 186/205/118 185/204/117 213/232/129 214/231/131
f 189/207/121 186/205/118 214/231/131 216/230/130
f 163/200/99 187/199/119 223/206/47 219/208/47
f 181/194/113 32/39/28 80/51/47 222/203/47
f 187/199/119 182/196/114 221/202/47 223/206/47
f 182/196/114 181/194/113 222/203/47 221/202/47
f 163/172/99 219/180/47 220/178/47 170/173/106
f 161/167/97 218/177/47 76/17/47 10/2/10
f 170/173/106 220/178/47 217/174/47 162/169/98
f 162/169/98 217/174/47 218/177/47 161/167/97
f 184/238/116 229/197/136 230/198/137 188/239/120
f 188/239/120 230/198/137 226/201/126 166/240/102
f 183/241/115 228/195/135 229/197/136 184/238/116
f 33/86/29 89/36/54 228/195/135 183/241/115
f 165/242/101 171/243/107 227/170/134 225/168/133
f 171/243/107 166/244/102 226/171/126 227/170/134
f 164/245/100 165/242/101 225/168/133 224/166/132
f 11/90/11 164/245/100 224/166/132 85/1/50
f 139/91/81 267/246/157 231/247/138 100/92/65
f 267/246/157 268/248/158 232/249/139 231/247/138
f 270/250/159 269/251/126 233/252/140 240/253/147
f 263/254/39 238/255/145 237/256/144 264/257/39
f 266/258/39 242/259/149 238/255/145 263/254/39
f 264/257/39 237/256/144 102/108/67 134/107/39
f 265/260/39 239/261/146 242/259/149 266/258/39
f 268/248/158 270/250/159 240/253/147 232/249/139
f 255/262/154 246/263/150 113/113/74 122/112/16
f 256/264/126 248/265/152 250/266/153 257/267/155
f 258/268/156 247/269/151 246/263/150 255/262/154
f 112/121/44 113/113/74 246/263/150 243/270/44
f 243/270/44 246/263/150 247/269/151 244/271/44
f 244/271/44 247/269/151 250/266/153 249/272/44
f 249/272/44 250/266/153 248/265/152 245/273/44
f 257/267/155 250/266/153 247/269/151 258/268/156
f 245/273/44 252/274/44 251/275/44 249/272/44
f 243/270/44 254/276/44 117/128/44 112/121/44
f 249/272/44 251/275/44 253/277/44 244/271/44
f 244/271/44 253/277/44 254/276/44 243/270/44
f 262/278/155 257/267/155 258/268/156 261/279/156
f 261/279/156 258/268/156 255/262/154 259/280/154
f 260/281/126 256/264/126 257/267/155 262/278/155
f 259/280/154 255/262/154 122/112/16 129/135/16
f 237/256/144 259/280/154 129/135/16 102/108/67
f 239/261/146 260/281/126 262/278/155 242/259/149
f 238/255/145 261/279/156 259/280/154 237/256/144
f 242/259/149 262/278/155 261/279/156 238/255/145
f 233/252/140 265/260/39 266/258/39 240/253/147
f 231/247/138 264/257/39 134/107/39 100/92/65
f 240/253/147 266/258/39 263/254/39 232/249/139
f 232/249/139 263/254/39 264/257/39 231/247/138
f 235/282/142 241/283/148 270/250/159 268/248/158
f 241/283/148 236/284/143 269/251/126 270/250/159
f 234/285/141 235/282/142 268/248/158 267/246/157
f 101/140/66 234/285/141 267/246/157 139/91/81
f 280/286/160 271/287/160 272/288/101 279/289/101
f 166/240/102 282/290/167 278/291/166 188/239/120
f 281/292/161 273/293/161 274/294/162 282/295/167
f 279/289/101 272/288/101 273/293/161 281/292/161
f 151/150/39 141/151/39 271/287/160 280/286/160
f 184/238/116 275/296/163 276/297/164 183/241/115
f 183/241/115 276/297/164 149/154/89 33/86/29
f 11/90/11 151/150/39 280/286/160 164/245/100
f 284/298/169 234/285/141 101/140/66 157/156/93
f 283/299/168 235/282/142 234/285/141 284/298/169
f 285/300/170 236/284/143 241/283/148 286/301/171
f 278/291/166 275/296/163 184/238/116 188/239/120
f 286/302/171 283/303/168 275/296/163 278/291/166
f 165/242/101 279/289/101 281/292/161 171/243/107
f 171/243/107 281/292/161 282/295/167 166/244/102
f 164/245/100 280/286/160 279/289/101 165/242/101
f 282/290/167 274/304/162 277/305/165 278/291/166
f 241/283/148 235/282/142 283/299/168 286/301/171
f 277/305/165 285/306/170 286/302/171 278/291/166
f 275/296/163 283/303/168 284/307/169 276/297/164
f 276/297/164 284/307/169 157/165/93 149/154/89
f 371/308/189 368/309/188 287/310/172 296/311/177
f 368/309/188 369/312/49 288/313/173 287/310/172
f 372/314/51 370/315/40 289/316/174 299/317/179
f 359/318/16 294/319/18 293/320/17 360/321/16
f 363/322/16 301/323/21 294/319/18 359/318/16
f 360/321/16 293/320/17 298/324/20 362/325/16
f 361/326/16 295/327/19 301/323/21 363/322/16
f 369/312/49 372/314/51 299/317/179 288/313/173
f 341/328/38 305/329/7 309/330/12 342/331/39
f 343/332/40 307/333/9 311/334/15 344/335/41
f 345/336/42 306/337/8 305/329/7 341/328/38
f 308/338/47 309/330/12 305/329/7 302/339/47
f 302/339/47 305/329/7 306/337/8 303/340/47
f 303/340/47 306/337/8 311/334/15 310/341/47
f 310/341/47 311/334/15 307/333/9 304/342/47
f 375/343/191 318/344/184 312/345/180 373/346/190
f 373/346/190 312/345/180 313/347/181 374/348/53
f 376/349/55 321/350/186 289/316/174 370/315/40
f 364/351/16 365/352/16 316/353/34 317/354/35
f 367/355/16 364/351/16 317/354/35 323/356/37
f 365/352/16 366/357/16 320/358/36 316/353/34
f 361/326/16 367/355/16 323/356/37 295/327/19
f 374/348/53 313/347/181 321/350/186 376/349/55
f 344/335/41 311/334/15 306/337/8 345/336/42
f 346/359/43 347/360/44 329/361/30 326/362/26
f 343/332/40 348/363/45 331/364/33 307/333/9
f 349/365/46 346/359/43 326/362/26 327/366/27
f 328/367/47 324/368/47 326/362/26 329/361/30
f 324/368/47 325/369/47 327/366/27 326/362/26
f 325/369/47 330/370/47 331/364/33 327/366/27
f 330/370/47 304/342/47 307/333/9 331/364/33
f 348/363/45 349/365/46 327/366/27 331/364/33
f 304/342/47 338/371/47 336/372/47 310/341/47
f 325/369/47 334/373/47 332/374/47 330/370/47
f 302/339/47 340/375/47 337/376/47 308/338/47
f 324/368/47 335/377/47 334/373/47 325/369/47
f 330/370/47 332/374/47 338/371/47 304/342/47
f 310/341/47 336/372/47 339/378/47 303/340/47
f 328/367/47 333/379/47 335/377/47 324/368/47
f 303/340/47 339/378/47 340/375/47 302/339/47
f 358/380/45 354/381/46 349/365/46 348/363/45
f 354/381/46 353/382/43 346/359/43 349/365/46
f 351/383/40 358/380/45 348/363/45 343/332/40
f 353/382/43 357/384/44 347/360/44 346/359/43
f 356/385/41 344/335/41 345/336/42 352/386/42
f 352/386/42 345/336/42 341/328/38 350/387/38
f 351/383/40 343/332/40 344/335/41 356/385/41
f 350/387/38 341/328/38 342/331/39 355/388/39
f 293/320/17 350/387/38 355/388/39 298/324/20
f 295/327/19 351/383/40 356/385/41 301/323/21
f 294/319/18 352/386/42 350/387/38 293/320/17
f 301/323/21 356/385/41 352/386/42 294/319/18
f 316/353/34 320/358/36 357/384/44 353/382/43
f 295/327/19 323/356/37 358/380/45 351/383/40
f 317/354/35 316/353/34 353/382/43 354/381/46
f 323/356/37 317/354/35 354/381/46 358/380/45
f 289/316/174 321/350/186 367/355/16 361/326/16
f 312/345/180 318/344/184 366/357/16 365/352/16
f 321/350/186 313/347/181 364/351/16 367/355/16
f 313/347/181 312/345/180 365/352/16 364/351/16
f 289/316/174 361/326/16 363/322/16 299/317/179
f 287/310/172 360/321/16 362/325/16 296/311/177
f 299/317/179 363/322/16 359/318/16 288/313/173
f 288/313/173 359/318/16 360/321/16 287/310/172
f 315/389/183 374/348/53 376/349/55 322/390/187
f 322/390/187 376/349/55 370/315/40 292/391/176
f 314/392/182 373/346/190 374/348/53 315/389/183
f 319/393/185 375/343/191 373/346/190 314/392/182
f 291/394/5 300/395/14 372/314/51 369/312/49
f 300/395/14 292/391/176 370/315/40 372/314/51
f 290/396/175 291/394/5 369/312/49 368/309/188
f 297/397/178 290/396/175 368/309/188 371/308/189
f 415/398/213 413/399/211 377/400/192 383/401/198
f 413/399/211 414/402/212 378/403/193 377/400/192
f 416/404/214 138/100/40 93/99/58 386/405/201
f 409/406/39 382/407/197 381/408/196 410/409/39
f 412/410/39 388/411/203 382/407/197 409/406/39
f 410/409/39 381/408/196 385/412/200 411/413/39
f 133/109/39 99/110/64 388/411/203 412/410/39
f 414/402/212 416/404/214 386/405/201 378/403/193
f 401/414/208 391/415/204 394/416/206 402/417/47
f 123/115/40 111/118/73 396/418/207 403/419/209
f 404/420/210 392/421/205 391/415/204 401/414/208
f 393/422/44 394/416/206 391/415/204 389/423/44
f 389/423/44 391/415/204 392/421/205 390/424/44
f 390/424/44 392/421/205 396/418/207 395/425/44
f 395/425/44 396/418/207 111/118/73 108/125/44
f 403/419/209 396/418/207 392/421/205 404/420/210
f 108/125/44 118/127/44 397/426/44 395/425/44
f 389/423/44 400/427/44 398/428/44 393/422/44
f 395/425/44 397/426/44 399/429/44 390/424/44
f 390/424/44 399/429/44 400/427/44 389/423/44
f 408/430/209 403/419/209 404/420/210 406/431/210
f 406/431/210 404/420/210 401/414/208 405/432/208
f 127/134/40 123/115/40 403/419/209 408/430/209
f 405/432/208 401/414/208 402/417/47 407/433/47
f 381/408/196 405/432/208 407/433/47 385/412/200
f 99/110/64 127/134/40 408/430/209 388/411/203
f 382/407/197 406/431/210 405/432/208 381/408/196
f 388/411/203 408/430/209 406/431/210 382/407/197
f 93/99/58 133/109/39 412/410/39 386/405/201
f 377/400/192 410/409/39 411/413/39 383/401/198
f 386/405/201 412/410/39 409/406/39 378/403/193
f 378/403/193 409/406/39 410/409/39 377/400/192
f 380/434/195 387/435/202 416/404/214 414/402/212
f 387/435/202 96/138/61 138/100/40 416/404/214
f 379/436/194 380/434/195 414/402/212 413/399/211
f 384/437/199 379/436/194 413/399/211 415/398/213
f 423/438/83 142/144/83 143/143/5 422/439/5
f 292/391/176 425/440/219 420/441/218 322/390/187
f 424/442/84 144/149/84 145/148/85 425/440/219
f 422/439/5 143/143/5 144/149/84 424/442/84
f 421/443/39 141/151/39 142/144/83 423/438/83
f 315/389/183 417/444/215 418/445/216 314/392/182
f 314/392/182 418/445/216 419/446/217 319/393/185
f 297/397/178 421/443/39 423/438/83 290/396/175
f 428/447/222 379/436/194 384/437/199 427/448/221
f 426/449/220 380/434/195 379/436/194 428/447/222
f 159/158/95 96/138/61 387/435/202 429/450/223
f 420/441/218 417/444/215 315/389/183 322/390/187
f 429/451/223 426/452/220 417/444/215 420/441/218
f 291/394/5 422/439/5 424/442/84 300/395/14
f 300/395/14 424/442/84 425/440/219 292/391/176
f 290/396/175 423/438/83 422/439/5 291/394/5
f 425/440/219 145/148/85 148/162/88 420/441/218
f 387/435/202 380/434/195 426/449/220 429/450/223
f 148/162/88 159/163/95 429/451/223 420/441/218
f 417/444/215 426/452/220 428/453/222 418/445/216
f 418/445/216 428/453/222 427/454/221 419/446/217
f 371/308/189 296/311/177 430/455/224 493/456/236
f 493/456/236 430/455/224 431/457/225 494/458/133
f 496/459/134 439/460/229 432/461/226 495/462/126
f 486/463/16 487/464/16 436/465/109 437/466/110
f 489/467/16 486/463/16 437/466/110 441/468/112
f 487/464/16 362/325/16 298/324/20 436/465/109
f 488/469/16 489/467/16 441/468/112 438/470/111
f 494/458/133 431/457/225 439/460/229 496/459/134
f 472/471/125 342/331/39 309/330/12 445/472/103
f 473/473/126 474/474/127 449/475/108 447/476/105
f 475/477/128 472/471/125 445/472/103 446/478/104
f 308/338/47 442/479/47 445/472/103 309/330/12
f 442/479/47 443/480/47 446/478/104 445/472/103
f 443/480/47 448/481/47 449/475/108 446/478/104
f 448/481/47 444/482/47 447/476/105 449/475/108
f 375/343/191 497/483/237 450/484/230 318/344/184
f 497/483/237 498/485/136 451/486/231 450/484/230
f 499/487/137 495/488/126 432/489/226 456/490/234
f 490/491/16 455/492/123 454/493/122 491/494/16
f 492/495/16 458/496/124 455/492/123 490/491/16
f 491/494/16 454/493/122 320/358/36 366/357/16
f 488/497/16 438/498/111 458/496/124 492/495/16
f 498/485/136 499/487/137 456/490/234 451/486/231
f 474/474/127 475/477/128 446/478/104 449/475/108
f 476/499/129 461/500/117 329/361/30 347/360/44
f 473/501/126 447/502/105 464/503/121 477/504/130
f 478/505/131 462/506/118 461/500/117 476/499/129
f 328/367/47 329/361/30 461/500/117 459/507/47
f 459/507/47 461/500/117 462/506/118 460/508/47
f 460/508/47 462/506/118 464/503/121 463/509/47
f 463/509/47 464/503/121 447/502/105 444/510/47
f 477/504/130 464/503/121 462/506/118 478/505/131
f 444/482/47 448/481/47 468/511/47 469/512/47
f 460/508/47 463/509/47 465/513/47 466/514/47
f 442/479/47 308/338/47 337/376/47 471/515/47
f 459/507/47 460/508/47 466/514/47 467/516/47
f 463/509/47 444/510/47 469/517/47 465/513/47
f 448/481/47 443/480/47 470/518/47 468/511/47
f 328/367/47 459/507/47 467/516/47 333/379/47
f 443/480/47 442/479/47 471/515/47 470/518/47
f 485/519/130 477/504/130 478/505/131 483/520/131
f 483/520/131 478/505/131 476/499/129 482/521/129
f 480/522/126 473/501/126 477/504/130 485/519/130
f 482/521/129 476/499/129 347/360/44 357/384/44
f 484/523/127 481/524/128 475/477/128 474/474/127
f 481/524/128 479/525/125 472/471/125 475/477/128
f 480/526/126 484/523/127 474/474/127 473/473/126
f 479/525/125 355/388/39 342/331/39 472/471/125
f 436/465/109 298/324/20 355/388/39 479/525/125
f 438/470/111 441/468/112 484/523/127 480/526/126
f 437/466/110 436/465/109 479/525/125 481/524/128
f 441/468/112 437/466/110 481/524/128 484/523/127
f 454/493/122 482/521/129 357/384/44 320/358/36
f 438/498/111 480/522/126 485/519/130 458/496/124
f 455/492/123 483/520/131 482/521/129 454/493/122
f 458/496/124 485/519/130 483/520/131 455/492/123
f 432/489/226 488/497/16 492/495/16 456/490/234
f 450/484/230 491/494/16 366/357/16 318/344/184
f 456/490/234 492/495/16 490/491/16 451/486/231
f 451/486/231 490/491/16 491/494/16 450/484/230
f 432/461/226 439/460/229 489/467/16 488/469/16
f 430/455/224 296/311/177 362/325/16 487/464/16
f 439/460/229 431/457/225 486/463/16 489/467/16
f 431/457/225 430/455/224 487/464/16 486/463/16
f 453/527/233 457/528/235 499/487/137 498/485/136
f 457/528/235 435/529/228 495/488/126 499/487/137
f 452/530/232 453/527/233 498/485/136 497/483/237
f 319/393/185 452/530/232 497/483/237 375/343/191
f 434/531/101 494/458/133 496/459/134 440/532/107
f 440/532/107 496/459/134 495/462/126 435/533/228
f 433/534/227 493/456/236 494/458/133 434/531/101
f 297/397/178 371/308/189 493/456/236 433/534/227
f 415/398/213 383/401/198 500/535/238 527/536/253
f 527/536/253 500/535/238 501/537/239 528/538/254
f 529/539/255 506/540/244 233/541/140 269/542/126
f 524/543/39 525/544/39 504/545/242 505/546/243
f 526/547/39 524/543/39 505/546/243 508/548/246
f 525/544/39 411/413/39 385/412/200 504/545/242
f 265/549/39 526/547/39 508/548/246 239/550/146
f 528/538/254 501/537/239 506/540/244 529/539/255
f 518/551/250 402/417/47 394/416/206 511/552/247
f 256/553/126 519/554/251 514/555/249 248/556/152
f 520/557/252 518/551/250 511/552/247 512/558/248
f 393/422/44 509/559/44 511/552/247 394/416/206
f 509/559/44 510/560/44 512/558/248 511/552/247
f 510/560/44 513/561/44 514/555/249 512/558/248
f 513/561/44 245/562/44 248/556/152 514/555/249
f 519/554/251 520/557/252 512/558/248 514/555/249
f 245/562/44 513/561/44 515/563/44 252/564/44
f 509/559/44 393/422/44 398/428/44 517/565/44
f 513/561/44 510/560/44 516/566/44 515/563/44
f 510/560/44 509/559/44 517/565/44 516/566/44
f 523/567/251 522/568/252 520/557/252 519/554/251
f 522/568/252 521/569/250 518/551/250 520/557/252
f 260/570/126 523/567/251 519/554/251 256/553/126
f 521/569/250 407/433/47 402/417/47 518/551/250
f 504/545/242 385/412/200 407/433/47 521/569/250
f 239/550/146 508/548/246 523/567/251 260/570/126
f 505/546/243 504/545/242 521/569/250 522/568/252
f 508/548/246 505/546/243 522/568/252 523/567/251
f 233/541/140 506/540/244 526/547/39 265/549/39
f 500/535/238 383/401/198 411/413/39 525/544/39
f 506/540/244 501/537/239 524/543/39 526/547/39
f 501/537/239 500/535/238 525/544/39 524/543/39
f 503/571/241 528/538/254 529/539/255 507/572/245
f 507/572/245 529/539/255 269/542/126 236/573/143
f 502/574/240 527/536/253 528/538/254 503/571/241
f 384/437/199 415/398/213 527/536/253 502/574/240
f 534/575/160 533/576/101 272/288/101 271/287/160
f 435/529/228 457/528/235 532/577/258 536/578/259
f 535/579/161 536/580/259 274/294/162 273/293/161
f 533/576/101 535/579/161 273/293/161 272/288/101
f 421/443/39 534/575/160 271/287/160 141/151/39
f 453/527/233 452/530/232 531/581/257 530/582/256
f 452/530/232 319/393/185 419/446/217 531/581/257
f 297/397/178 433/534/227 534/575/160 421/443/39
f 538/583/261 427/448/221 384/437/199 502/574/240
f 537/584/260 538/583/261 502/574/240 503/571/241
f 285/585/170 539/586/262 507/572/245 236/573/143
f 532/577/258 457/528/235 453/527/233 530/582/256
f 539/587/262 532/577/258 530/582/256 537/588/260
f 434/531/101 440/532/107 535/579/161 533/576/101
f 440/532/107 435/533/228 536/580/259 535/579/161
f 433/534/227 434/531/101 533/576/101 534/575/160
f 536/578/259 532/577/258 277/589/165 274/590/162
f 507/572/245 539/586/262 537/584/260 503/571/241
f 277/589/165 532/577/258 539/587/262 285/591/170
f 530/582/256 531/581/257 538/592/261 537/588/260
f 531/581/257 419/446/217 427/454/221 538/592/261
