# Blender 5.0.1
# www.blender.org
mtllib pipe_clasic.mtl
o tube_2
v -1.545151 1.859572 0.128385
v -1.622440 1.859572 0.237962
v -1.835028 1.859572 0.328827
v -1.545665 1.050605 0.129093
v -1.622602 1.050605 0.238184
v -1.835028 1.050605 0.328827
v -1.430075 1.859572 0.171512
v -1.546079 1.859572 0.332906
v -1.835028 1.859572 0.458654
v -1.514412 1.859572 -0.000000
v -1.514412 1.050605 -0.000000
v -1.385603 1.859572 -0.000000
v -1.722996 1.859572 0.305845
v -1.723009 1.050605 0.305863
v -1.679307 1.859572 0.424757
v -1.545151 2.068026 0.128385
v -1.622440 2.068026 0.237962
v -1.835028 2.068026 0.328827
v -1.430075 2.068026 0.171512
v -1.546079 2.068026 0.332906
v -1.835028 2.068026 0.458654
v -1.514412 2.068026 -0.000000
v -1.385603 2.068026 -0.000000
v -1.722996 2.068026 0.305845
v -1.679307 2.068026 0.424757
v -2.124905 1.859572 0.128385
v -2.047616 1.859572 0.237962
v -2.124390 1.050605 0.129093
v -2.047454 1.050605 0.238184
v -2.239980 1.859572 0.171512
v -2.123976 1.859572 0.332906
v -2.155644 1.859572 -0.000000
v -2.155644 1.050605 -0.000000
v -2.284452 1.859572 -0.000000
v -1.947060 1.859572 0.305845
v -1.947047 1.050605 0.305863
v -1.990748 1.859572 0.424757
v -2.124905 2.068026 0.128385
v -2.047616 2.068026 0.237962
v -2.239980 2.068026 0.171512
v -2.123976 2.068026 0.332906
v -2.155644 2.068026 -0.000000
v -2.284452 2.068026 -0.000000
v -1.947060 2.068026 0.305845
v -1.990748 2.068026 0.424757
v -1.545151 1.859572 -0.128385
v -1.622440 1.859572 -0.237962
v -1.835028 1.859572 -0.328827
v -1.545665 1.050605 -0.129093
v -1.622602 1.050605 -0.238184
v -1.835028 1.050605 -0.328827
v -1.430075 1.859572 -0.171512
v -1.546079 1.859572 -0.332906
v -1.835028 1.859572 -0.458654
v -1.722996 1.859572 -0.305845
v -1.723009 1.050605 -0.305863
v -1.679307 1.859572 -0.424757
v -1.545151 2.068026 -0.128385
v -1.622440 2.068026 -0.237962
v -1.835028 2.068026 -0.328827
v -1.430075 2.068026 -0.171512
v -1.546079 2.068026 -0.332906
v -1.835028 2.068026 -0.458654
v -1.722996 2.068026 -0.305845
v -1.679307 2.068026 -0.424757
v -2.124905 1.859572 -0.128385
v -2.047616 1.859572 -0.237962
v -2.124390 1.050605 -0.129093
v -2.047454 1.050605 -0.238184
v -2.239980 1.859572 -0.171512
v -2.123976 1.859572 -0.332906
v -1.947060 1.859572 -0.305845
v -1.947047 1.050605 -0.305863
v -1.990748 1.859572 -0.424757
v -2.124905 2.068026 -0.128385
v -2.047616 2.068026 -0.237962
v -2.239980 2.068026 -0.171512
v -2.123976 2.068026 -0.332906
v -1.947060 2.068026 -0.305845
v -1.990748 2.068026 -0.424757
v -1.915575 2.068026 -0.219893
v -1.987872 2.068026 -0.171087
v -2.043441 2.068026 -0.092305
v -1.754480 2.068026 -0.219893
v -1.835028 2.068026 -0.236417
v -1.682184 2.068026 -0.171087
v -1.626615 2.068026 -0.092305
v -1.915575 2.068026 0.219893
v -2.065541 2.068026 0.000000
v -1.987872 2.068026 0.171087
v -2.043441 2.068026 0.092305
v -1.754480 2.068026 0.219893
v -1.604514 2.068026 0.000000
v -1.835028 2.068026 0.236417
v -1.682184 2.068026 0.171087
v -1.626615 2.068026 0.092305
v -1.430075 2.059018 0.171512
v -1.385603 2.059018 -0.000000
v -1.835028 2.059018 0.458654
v -1.679307 2.059018 0.424757
v -1.546079 2.059018 0.332906
v -2.239980 2.059018 0.171512
v -2.284452 2.059018 -0.000000
v -1.990748 2.059018 0.424757
v -2.123976 2.059018 0.332906
v -1.430075 2.059018 -0.171512
v -1.835028 2.059018 -0.458654
v -1.679307 2.059018 -0.424757
v -1.546079 2.059018 -0.332906
v -2.239980 2.059018 -0.171512
v -1.990748 2.059018 -0.424757
v -2.123976 2.059018 -0.332906
v -1.430075 1.871968 0.171512
v -1.835028 1.871968 0.458654
v -1.546079 1.871968 0.332906
v -2.239980 1.871968 0.171512
v -2.123976 1.871968 0.332906
v -1.430075 1.871968 -0.171512
v -1.835028 1.871968 -0.458654
v -1.546079 1.871968 -0.332906
v -2.239980 1.871968 -0.171512
v -2.123976 1.871968 -0.332906
v -1.385603 1.871968 -0.000000
v -1.679307 1.871968 0.424757
v -2.284452 1.871968 -0.000000
v -1.990748 1.871968 0.424757
v -1.679307 1.871968 -0.424757
v -1.990748 1.871968 -0.424757
v -1.613735 1.859572 0.250982
v -1.529491 1.859572 0.132608
v -1.835028 1.859572 0.346345
v -1.496562 1.859572 0.000000
v -1.717216 1.859572 0.321501
v -2.056320 1.859572 0.250982
v -2.140564 1.859572 0.132608
v -2.173493 1.859572 0.000000
v -1.952840 1.859572 0.321501
v -1.613735 1.859572 -0.250982
v -1.529491 1.859572 -0.132608
v -1.835028 1.859572 -0.346345
v -1.717216 1.859572 -0.321501
v -2.056320 1.859572 -0.250982
v -2.140564 1.859572 -0.132608
v -1.952840 1.859572 -0.321501
v -1.545156 1.850822 0.128393
v -1.622442 1.850822 0.237964
v -1.835028 1.850822 0.328827
v -1.514412 1.850822 -0.000000
v -1.722996 1.850822 0.305845
v -2.124899 1.850822 0.128393
v -2.047614 1.850822 0.237964
v -2.155644 1.850822 -0.000000
v -1.947060 1.850822 0.305845
v -1.545156 1.850822 -0.128393
v -1.622442 1.850822 -0.237964
v -1.835028 1.850822 -0.328827
v -1.722996 1.850822 -0.305845
v -2.124899 1.850822 -0.128393
v -2.047614 1.850822 -0.237964
v -1.947060 1.850822 -0.305845
v -1.545151 0.241638 0.128385
v -1.622440 0.241638 0.237962
v -1.835028 0.241638 0.328827
v -1.430075 0.241638 0.171512
v -1.546079 0.241638 0.332906
v -1.835028 0.241638 0.458654
v -1.514412 0.241638 -0.000000
v -1.385603 0.241638 -0.000000
v -1.722996 0.241638 0.305845
v -1.679307 0.241638 0.424757
v -1.545151 0.033184 0.128385
v -1.622440 0.033184 0.237962
v -1.835028 0.033184 0.328827
v -1.430075 0.033184 0.171512
v -1.546079 0.033184 0.332906
v -1.835028 0.033184 0.458654
v -1.514412 0.033184 -0.000000
v -1.385603 0.033184 -0.000000
v -1.722996 0.033184 0.305845
v -1.679307 0.033184 0.424757
v -2.124905 0.241638 0.128385
v -2.047616 0.241638 0.237962
v -2.239980 0.241638 0.171512
v -2.123976 0.241638 0.332906
v -2.155644 0.241638 -0.000000
v -2.284452 0.241638 -0.000000
v -1.947060 0.241638 0.305845
v -1.990748 0.241638 0.424757
v -2.124905 0.033184 0.128385
v -2.047616 0.033184 0.237962
v -2.239980 0.033184 0.171512
v -2.123976 0.033184 0.332906
v -2.155644 0.033184 -0.000000
v -2.284452 0.033184 -0.000000
v -1.947060 0.033184 0.305845
v -1.990748 0.033184 0.424757
v -1.545151 0.241638 -0.128385
v -1.622440 0.241638 -0.237962
v -1.835028 0.241638 -0.328827
v -1.430075 0.241638 -0.171512
v -1.546079 0.241638 -0.332906
v -1.835028 0.241638 -0.458654
v -1.722996 0.241638 -0.305845
v -1.679307 0.241638 -0.424757
v -1.545151 0.033184 -0.128385
v -1.622440 0.033184 -0.237962
v -1.835028 0.033184 -0.328827
v -1.430075 0.033184 -0.171512
v -1.546079 0.033184 -0.332906
v -1.835028 0.033184 -0.458654
v -1.722996 0.033184 -0.305845
v -1.679307 0.033184 -0.424757
v -2.124905 0.241638 -0.128385
v -2.047616 0.241638 -0.237962
v -2.239980 0.241638 -0.171512
v -2.123976 0.241638 -0.332906
v -1.947060 0.241638 -0.305845
v -1.990748 0.241638 -0.424757
v -2.124905 0.033184 -0.128385
v -2.047616 0.033184 -0.237962
v -2.239980 0.033184 -0.171512
v -2.123976 0.033184 -0.332906
v -1.947060 0.033184 -0.305845
v -1.990748 0.033184 -0.424757
v -1.915575 0.033184 -0.219893
v -1.987872 0.033184 -0.171087
v -2.043441 0.033184 -0.092305
v -1.754480 0.033184 -0.219893
v -1.835028 0.033184 -0.236417
v -1.682184 0.033184 -0.171087
v -1.626615 0.033184 -0.092305
v -1.915575 0.033184 0.219893
v -2.065541 0.033184 0.000000
v -1.987872 0.033184 0.171087
v -2.043441 0.033184 0.092305
v -1.754480 0.033184 0.219893
v -1.604514 0.033184 0.000000
v -1.835028 0.033184 0.236417
v -1.682184 0.033184 0.171087
v -1.626615 0.033184 0.092305
v -1.430075 0.042191 0.171512
v -1.385603 0.042191 -0.000000
v -1.835028 0.042191 0.458654
v -1.679307 0.042191 0.424757
v -1.546079 0.042191 0.332906
v -2.239980 0.042191 0.171512
v -2.284452 0.042191 -0.000000
v -1.990748 0.042191 0.424757
v -2.123976 0.042191 0.332906
v -1.430075 0.042191 -0.171512
v -1.835028 0.042191 -0.458654
v -1.679307 0.042191 -0.424757
v -1.546079 0.042191 -0.332906
v -2.239980 0.042191 -0.171512
v -1.990748 0.042191 -0.424757
v -2.123976 0.042191 -0.332906
v -1.430075 0.229241 0.171512
v -1.835028 0.229241 0.458654
v -1.546079 0.229241 0.332906
v -2.239980 0.229241 0.171512
v -2.123976 0.229241 0.332906
v -1.430075 0.229241 -0.171512
v -1.835028 0.229241 -0.458654
v -1.546079 0.229241 -0.332906
v -2.239980 0.229241 -0.171512
v -2.123976 0.229241 -0.332906
v -1.385603 0.229241 -0.000000
v -1.679307 0.229241 0.424757
v -2.284452 0.229241 -0.000000
v -1.990748 0.229241 0.424757
v -1.679307 0.229241 -0.424757
v -1.990748 0.229241 -0.424757
v -1.613735 0.241638 0.250982
v -1.529491 0.241638 0.132608
v -1.835028 0.241638 0.346345
v -1.496562 0.241638 0.000000
v -1.717216 0.241638 0.321501
v -2.056320 0.241638 0.250982
v -2.140564 0.241638 0.132608
v -2.173493 0.241638 0.000000
v -1.952840 0.241638 0.321501
v -1.613735 0.241638 -0.250982
v -1.529491 0.241638 -0.132608
v -1.835028 0.241638 -0.346345
v -1.717216 0.241638 -0.321501
v -2.056320 0.241638 -0.250982
v -2.140564 0.241638 -0.132608
v -1.952840 0.241638 -0.321501
v -1.545156 0.250388 0.128393
v -1.622442 0.250388 0.237964
v -1.835028 0.250388 0.328827
v -1.514412 0.250388 -0.000000
v -1.722996 0.250388 0.305845
v -2.124899 0.250388 0.128393
v -2.047614 0.250388 0.237964
v -2.155644 0.250388 -0.000000
v -1.947060 0.250388 0.305845
v -1.545156 0.250388 -0.128393
v -1.622442 0.250388 -0.237964
v -1.835028 0.250388 -0.328827
v -1.722996 0.250388 -0.305845
v -2.124899 0.250388 -0.128393
v -2.047614 0.250388 -0.237964
v -1.947060 0.250388 -0.305845
vn 0.6005 -0.7521 0.2714
vn 0.4629 -0.7500 0.4724
vn -0.0000 -0.7553 0.6554
vn 0.9109 -0.0000 0.4127
vn 0.6997 -0.0000 0.7145
vn -0.0000 -0.0000 1.0000
vn 0.6738 -0.6680 0.3159
vn 0.5194 -0.6705 0.5297
vn -0.0000 -0.6622 0.7493
vn 0.6458 -0.7635 -0.0000
vn 1.0000 -0.0000 -0.0000
vn 0.7559 -0.6547 -0.0000
vn 0.2548 -0.7536 0.6059
vn 0.3874 -0.0000 0.9219
vn 0.2966 -0.6661 0.6844
vn -0.0000 1.0000 -0.0000
vn 0.6738 0.6680 0.3159
vn 0.5194 0.6705 0.5297
vn -0.0000 0.6622 0.7493
vn 0.7559 0.6547 -0.0000
vn 0.2966 0.6661 0.6844
vn -0.6005 -0.7521 0.2714
vn -0.4629 -0.7500 0.4724
vn -0.9109 -0.0000 0.4127
vn -0.6997 -0.0000 0.7145
vn -0.6738 -0.6680 0.3159
vn -0.5194 -0.6705 0.5297
vn -0.6458 -0.7635 -0.0000
vn -1.0000 -0.0000 -0.0000
vn -0.7559 -0.6547 -0.0000
vn -0.2548 -0.7536 0.6059
vn -0.3874 -0.0000 0.9219
vn -0.2966 -0.6661 0.6844
vn -0.6738 0.6680 0.3159
vn -0.5194 0.6705 0.5297
vn -0.7559 0.6547 -0.0000
vn -0.2966 0.6661 0.6844
vn 0.6005 -0.7521 -0.2714
vn 0.4629 -0.7500 -0.4724
vn -0.0000 -0.7553 -0.6554
vn 0.9109 -0.0000 -0.4127
vn 0.6997 -0.0000 -0.7145
vn -0.0000 -0.0000 -1.0000
vn 0.6738 -0.6680 -0.3159
vn 0.5194 -0.6705 -0.5297
vn -0.0000 -0.6622 -0.7493
vn 0.2548 -0.7536 -0.6059
vn 0.3874 -0.0000 -0.9219
vn 0.2966 -0.6661 -0.6844
vn 0.6738 0.6680 -0.3159
vn 0.5194 0.6705 -0.5297
vn -0.0000 0.6622 -0.7493
vn 0.2966 0.6661 -0.6844
vn -0.6005 -0.7521 -0.2714
vn -0.4629 -0.7500 -0.4724
vn -0.9109 -0.0000 -0.4127
vn -0.6997 -0.0000 -0.7145
vn -0.6738 -0.6680 -0.3159
vn -0.5194 -0.6705 -0.5297
vn -0.2548 -0.7536 -0.6059
vn -0.3874 -0.0000 -0.9219
vn -0.2966 -0.6661 -0.6844
vn -0.6738 0.6680 -0.3159
vn -0.5194 0.6705 -0.5297
vn -0.2966 0.6661 -0.6844
vn 0.9054 -0.0000 0.4245
vn 0.3977 -0.0000 0.9175
vn 0.7001 -0.0000 0.7140
vn -0.9054 -0.0000 0.4245
vn -0.3977 -0.0000 0.9175
vn -0.7001 -0.0000 0.7140
vn 0.9054 -0.0000 -0.4245
vn 0.3977 -0.0000 -0.9175
vn 0.7001 -0.0000 -0.7140
vn -0.9054 -0.0000 -0.4245
vn -0.3977 -0.0000 -0.9175
vn -0.7001 -0.0000 -0.7140
vn -0.0000 -1.0000 -0.0000
vn 0.9111 -0.0001 0.4123
vn 0.6998 -0.0000 0.7144
vn 1.0000 -0.0002 -0.0000
vn 0.3875 -0.0000 0.9219
vn -0.9111 -0.0001 0.4123
vn -0.6998 -0.0000 0.7144
vn -1.0000 -0.0002 -0.0000
vn -0.3875 -0.0000 0.9219
vn 0.9111 -0.0001 -0.4123
vn 0.6998 -0.0000 -0.7144
vn 0.3875 -0.0000 -0.9219
vn -0.9111 -0.0001 -0.4123
vn -0.6998 -0.0000 -0.7144
vn -0.3875 -0.0000 -0.9219
vn 0.6005 0.7521 0.2714
vn 0.4629 0.7500 0.4724
vn -0.0000 0.7553 0.6554
vn 0.6458 0.7635 -0.0000
vn 0.2548 0.7536 0.6059
vn -0.6005 0.7521 0.2714
vn -0.4629 0.7500 0.4724
vn -0.6458 0.7635 -0.0000
vn -0.2548 0.7536 0.6059
vn 0.6005 0.7521 -0.2714
vn 0.4629 0.7500 -0.4724
vn -0.0000 0.7553 -0.6554
vn 0.2548 0.7536 -0.6059
vn -0.6005 0.7521 -0.2714
vn -0.4629 0.7500 -0.4724
vn -0.2548 0.7536 -0.6059
vn 0.9111 0.0001 0.4123
vn 1.0000 0.0002 -0.0000
vn -0.9111 0.0001 0.4123
vn -1.0000 0.0002 -0.0000
vn 0.9111 0.0001 -0.4123
vn -0.9111 0.0001 -0.4123
vt 0.349907 0.758265
vt 0.349907 0.760947
vt 0.304813 0.760947
vt 0.304813 0.758265
vt 0.256407 0.760947
vt 0.256407 0.758265
vt 0.215123 0.758265
vt 0.215123 0.760947
vt 0.175249 0.760947
vt 0.175249 0.758265
vt 0.256407 0.766025
vt 0.304813 0.766025
vt 0.304813 0.799338
vt 0.256407 0.799338
vt 0.215123 0.766025
vt 0.215123 0.799338
vt 0.349907 0.766025
vt 0.349907 0.799338
vt 0.175249 0.766025
vt 0.175249 0.799338
vt 0.304813 0.860484
vt 0.349907 0.860484
vt 0.349907 0.863246
vt 0.304813 0.863246
vt 0.175249 0.860484
vt 0.215123 0.860484
vt 0.215123 0.863246
vt 0.175249 0.863246
vt 0.256407 0.860484
vt 0.256407 0.863246
vt 0.349907 0.901625
vt 0.304813 0.901625
vt 0.256407 0.901625
vt 0.215123 0.901625
vt 0.175249 0.901625
vt 0.699222 0.758265
vt 0.744316 0.758265
vt 0.744316 0.760947
vt 0.699222 0.760947
vt 0.792721 0.758265
vt 0.792721 0.760947
vt 0.135375 0.758265
vt 0.135375 0.760947
vt 0.792721 0.766025
vt 0.792721 0.799338
vt 0.744316 0.799338
vt 0.744316 0.766025
vt 0.834006 0.766025
vt 0.834006 0.799338
vt 0.699222 0.799338
vt 0.699222 0.766025
vt 0.135375 0.799338
vt 0.135375 0.766025
vt 0.834006 0.758265
vt 0.834006 0.760947
vt 0.744316 0.860484
vt 0.744316 0.863246
vt 0.699222 0.863246
vt 0.699222 0.860484
vt 0.135375 0.863246
vt 0.135375 0.860484
vt 0.792721 0.860484
vt 0.792721 0.863246
vt 0.699222 0.901625
vt 0.744316 0.901625
vt 0.792721 0.901625
vt 0.834006 0.863246
vt 0.834006 0.901625
vt 0.135375 0.901625
vt 0.395001 0.758265
vt 0.395001 0.760947
vt 0.443406 0.758265
vt 0.443406 0.760947
vt 0.484690 0.758265
vt 0.524564 0.758265
vt 0.524564 0.760947
vt 0.484690 0.760947
vt 0.443406 0.766025
vt 0.443406 0.799338
vt 0.395001 0.799338
vt 0.395001 0.766025
vt 0.484690 0.766025
vt 0.484690 0.799338
vt 0.524564 0.766025
vt 0.524564 0.799338
vt 0.834006 0.860484
vt 0.395001 0.860484
vt 0.395001 0.863246
vt 0.524564 0.860484
vt 0.524564 0.863246
vt 0.484690 0.863246
vt 0.484690 0.860484
vt 0.443406 0.860484
vt 0.443406 0.863246
vt 0.395001 0.901625
vt 0.443406 0.901625
vt 0.484690 0.901625
vt 0.524564 0.901625
vt 0.654128 0.760947
vt 0.654128 0.758265
vt 0.605723 0.760947
vt 0.605723 0.758265
vt 0.564438 0.758265
vt 0.564438 0.760947
vt 0.605723 0.766025
vt 0.654128 0.766025
vt 0.654128 0.799338
vt 0.605723 0.799338
vt 0.564438 0.766025
vt 0.564438 0.799338
vt 0.654128 0.860484
vt 0.654128 0.863246
vt 0.564438 0.860484
vt 0.564438 0.863246
vt 0.605723 0.860484
vt 0.605723 0.863246
vt 0.654128 0.901625
vt 0.605723 0.901625
vt 0.564438 0.901625
vt 0.215123 0.929337
vt 0.175249 0.929337
vt 0.443406 0.929337
vt 0.395001 0.929337
vt 0.564438 0.929337
vt 0.524564 0.929337
vt 0.484690 0.929337
vt 0.834006 0.929337
vt 0.792721 0.929337
vt 0.349907 0.929337
vt 0.304813 0.929337
vt 0.744316 0.929337
vt 0.699222 0.929337
vt 0.654128 0.929337
vt 0.135375 0.929337
vt 0.256407 0.929337
vt 0.605723 0.929337
vt 0.564438 0.803139
vt 0.605723 0.803139
vt 0.654128 0.803139
vt 0.524564 0.803139
vt 0.699222 0.803139
vt 0.484690 0.803139
vt 0.443406 0.803139
vt 0.395001 0.803139
vt 0.349907 0.803139
vt 0.834006 0.803139
vt 0.792721 0.803139
vt 0.744316 0.803139
vt 0.175249 0.803139
vt 0.135375 0.803139
vt 0.215123 0.803139
vt 0.256407 0.803139
vt 0.304813 0.803139
vt 0.605723 0.512932
vt 0.564438 0.512932
vt 0.524564 0.512932
vt 0.654128 0.512932
vt 0.699222 0.512932
vt 0.443406 0.512932
vt 0.484690 0.512932
vt 0.395001 0.512932
vt 0.349907 0.512932
vt 0.792721 0.512932
vt 0.834006 0.512932
vt 0.135375 0.512932
vt 0.175249 0.512932
vt 0.744316 0.512932
vt 0.256407 0.512932
vt 0.215123 0.512932
vt 0.304813 0.512932
vt 0.349907 0.267599
vt 0.304813 0.267599
vt 0.304813 0.264916
vt 0.349907 0.264916
vt 0.256407 0.267599
vt 0.256407 0.264916
vt 0.215123 0.267599
vt 0.175249 0.267599
vt 0.175249 0.264916
vt 0.215123 0.264916
vt 0.256407 0.259838
vt 0.256407 0.226525
vt 0.304813 0.226525
vt 0.304813 0.259838
vt 0.215123 0.259838
vt 0.215123 0.226525
vt 0.349907 0.226525
vt 0.349907 0.259838
vt 0.175249 0.259838
vt 0.175249 0.226525
vt 0.304813 0.165378
vt 0.304813 0.162617
vt 0.349907 0.162617
vt 0.349907 0.165378
vt 0.175249 0.165378
vt 0.175249 0.162617
vt 0.215123 0.162617
vt 0.215123 0.165378
vt 0.256407 0.165378
vt 0.256407 0.162617
vt 0.349907 0.124238
vt 0.304813 0.124238
vt 0.256407 0.124238
vt 0.215123 0.124238
vt 0.175249 0.124238
vt 0.699222 0.267599
vt 0.699222 0.264916
vt 0.744316 0.264916
vt 0.744316 0.267599
vt 0.792721 0.264916
vt 0.792721 0.267599
vt 0.135375 0.267599
vt 0.135375 0.264916
vt 0.792721 0.259838
vt 0.744316 0.259838
vt 0.744316 0.226525
vt 0.792721 0.226525
vt 0.834006 0.259838
vt 0.834006 0.226525
vt 0.699222 0.259838
vt 0.699222 0.226525
vt 0.135375 0.259838
vt 0.135375 0.226525
vt 0.834006 0.264916
vt 0.834006 0.267599
vt 0.744316 0.165378
vt 0.699222 0.165378
vt 0.699222 0.162617
vt 0.744316 0.162617
vt 0.135375 0.165378
vt 0.135375 0.162617
vt 0.792721 0.165378
vt 0.792721 0.162617
vt 0.699222 0.124238
vt 0.744316 0.124238
vt 0.792721 0.124238
vt 0.834006 0.124238
vt 0.834006 0.162617
vt 0.135375 0.124238
vt 0.395001 0.264916
vt 0.395001 0.267599
vt 0.443406 0.264916
vt 0.443406 0.267599
vt 0.484690 0.267599
vt 0.484690 0.264916
vt 0.524564 0.264916
vt 0.524564 0.267599
vt 0.443406 0.259838
vt 0.395001 0.259838
vt 0.395001 0.226525
vt 0.443406 0.226525
vt 0.484690 0.259838
vt 0.484690 0.226525
vt 0.524564 0.259838
vt 0.524564 0.226525
vt 0.834006 0.165378
vt 0.395001 0.165378
vt 0.395001 0.162617
vt 0.524564 0.165378
vt 0.484690 0.165378
vt 0.484690 0.162617
vt 0.524564 0.162617
vt 0.443406 0.165378
vt 0.443406 0.162617
vt 0.395001 0.124238
vt 0.443406 0.124238
vt 0.484690 0.124238
vt 0.524564 0.124238
vt 0.654128 0.267599
vt 0.654128 0.264916
vt 0.605723 0.267599
vt 0.605723 0.264916
vt 0.564438 0.267599
vt 0.564438 0.264916
vt 0.605723 0.259838
vt 0.605723 0.226525
vt 0.654128 0.226525
vt 0.654128 0.259838
vt 0.564438 0.259838
vt 0.564438 0.226525
vt 0.654128 0.165378
vt 0.654128 0.162617
vt 0.564438 0.162617
vt 0.564438 0.165378
vt 0.605723 0.165378
vt 0.605723 0.162617
vt 0.654128 0.124238
vt 0.605723 0.124238
vt 0.564438 0.124238
vt 0.175249 0.096525
vt 0.215123 0.096525
vt 0.395001 0.096525
vt 0.443406 0.096525
vt 0.524564 0.096525
vt 0.564438 0.096525
vt 0.484690 0.096525
vt 0.792721 0.096525
vt 0.834006 0.096525
vt 0.304813 0.096525
vt 0.349907 0.096525
vt 0.744316 0.096525
vt 0.654128 0.096525
vt 0.699222 0.096525
vt 0.135375 0.096525
vt 0.256407 0.096525
vt 0.605723 0.096525
vt 0.564438 0.222725
vt 0.605723 0.222725
vt 0.654128 0.222725
vt 0.524564 0.222725
vt 0.699222 0.222725
vt 0.484690 0.222725
vt 0.443406 0.222725
vt 0.395001 0.222725
vt 0.349907 0.222725
vt 0.834006 0.222725
vt 0.792721 0.222725
vt 0.744316 0.222725
vt 0.175249 0.222725
vt 0.135375 0.222725
vt 0.215123 0.222725
vt 0.256407 0.222725
vt 0.304813 0.222725
s 1
usemtl pipe_clasic
f 148/1/81 10/2/10 1/3/1 145/4/79
f 145/4/79 1/3/1 2/5/2 146/6/80
f 149/7/82 13/8/13 3/9/3 147/10/6
f 129/11/78 130/12/78 7/13/7 8/14/8
f 133/15/78 129/11/78 8/14/8 15/16/15
f 130/12/78 132/17/78 12/18/12 7/13/7
f 131/19/78 133/15/78 15/16/15 9/20/9
f 146/6/80 2/5/2 13/8/13 149/7/82
f 97/21/66 98/22/11 23/23/20 19/24/17
f 99/25/6 100/26/67 25/27/21 21/28/19
f 101/29/68 97/21/66 19/24/17 20/30/18
f 22/31/16 16/32/16 19/24/17 23/23/20
f 16/32/16 17/33/16 20/30/18 19/24/17
f 17/33/16 24/34/16 25/27/21 20/30/18
f 24/34/16 18/35/16 21/28/19 25/27/21
f 152/36/85 150/37/83 26/38/22 32/39/28
f 150/37/83 151/40/84 27/41/23 26/38/22
f 153/42/86 147/10/6 3/9/3 35/43/31
f 134/44/78 31/45/27 30/46/26 135/47/78
f 137/48/78 37/49/33 31/45/27 134/44/78
f 135/47/78 30/46/26 34/50/30 136/51/78
f 131/19/78 9/20/9 37/52/33 137/53/78
f 151/40/84 153/54/86 35/55/31 27/41/23
f 100/26/67 101/29/68 20/30/18 25/27/21
f 102/56/69 40/57/34 43/58/36 103/59/29
f 99/25/6 21/28/19 45/60/37 104/61/70
f 105/62/71 41/63/35 40/57/34 102/56/69
f 42/64/16 43/58/36 40/57/34 38/65/16
f 38/65/16 40/57/34 41/63/35 39/66/16
f 39/66/16 41/63/35 45/67/37 44/68/16
f 44/69/16 45/60/37 21/28/19 18/35/16
f 148/1/81 154/70/87 46/71/38 10/2/10
f 154/70/87 155/72/88 47/73/39 46/71/38
f 157/74/89 156/75/43 48/76/40 55/77/47
f 138/78/78 53/79/45 52/80/44 139/81/78
f 141/82/78 57/83/49 53/79/45 138/78/78
f 139/81/78 52/80/44 12/18/12 132/17/78
f 140/84/78 54/85/46 57/83/49 141/82/78
f 155/72/88 157/74/89 55/77/47 47/73/39
f 104/86/70 45/67/37 41/63/35 105/62/71
f 106/87/72 61/88/50 23/23/20 98/22/11
f 107/89/43 63/90/52 65/91/53 108/92/73
f 109/93/74 62/94/51 61/88/50 106/87/72
f 22/31/16 23/23/20 61/88/50 58/95/16
f 58/95/16 61/88/50 62/94/51 59/96/16
f 59/96/16 62/94/51 65/91/53 64/97/16
f 64/97/16 65/91/53 63/90/52 60/98/16
f 152/36/85 32/39/28 66/99/54 158/100/90
f 158/100/90 66/99/54 67/101/55 159/102/91
f 160/103/92 72/104/60 48/76/40 156/75/43
f 142/105/78 143/106/78 70/107/58 71/108/59
f 144/109/78 142/105/78 71/108/59 74/110/62
f 143/106/78 136/51/78 34/50/30 70/107/58
f 140/84/78 144/109/78 74/110/62 54/85/46
f 159/102/91 67/101/55 72/104/60 160/103/92
f 108/92/73 65/91/53 62/94/51 109/93/74
f 110/111/75 103/59/29 43/58/36 77/112/63
f 107/89/43 111/113/76 80/114/65 63/90/52
f 112/115/77 110/111/75 77/112/63 78/116/64
f 42/64/16 75/117/16 77/112/63 43/58/36
f 75/117/16 76/118/16 78/116/64 77/112/63
f 76/118/16 79/119/16 80/114/65 78/116/64
f 79/119/16 60/98/16 63/90/52 80/114/65
f 18/35/16 24/34/16 92/120/16 94/121/16
f 58/95/16 59/96/16 86/122/16 87/123/16
f 60/98/16 79/119/16 81/124/16 85/125/16
f 64/97/16 60/98/16 85/125/16 84/126/16
f 39/66/16 44/68/16 88/127/16 90/128/16
f 16/32/16 22/31/16 93/129/16 96/130/16
f 38/65/16 39/66/16 90/128/16 91/131/16
f 75/117/16 42/64/16 89/132/16 83/133/16
f 22/31/16 58/95/16 87/123/16 93/129/16
f 44/69/16 18/35/16 94/121/16 88/134/16
f 24/34/16 17/33/16 95/135/16 92/120/16
f 42/64/16 38/65/16 91/131/16 89/132/16
f 17/33/16 16/32/16 96/130/16 95/135/16
f 79/119/16 76/118/16 82/136/16 81/124/16
f 59/96/16 64/97/16 84/126/16 86/122/16
f 76/118/16 75/117/16 83/133/16 82/136/16
f 111/113/76 112/115/77 78/116/64 80/114/65
f 128/137/76 122/138/77 112/115/77 111/113/76
f 122/138/77 121/139/75 110/111/75 112/115/77
f 119/140/43 128/137/76 111/113/76 107/89/43
f 121/139/75 125/141/29 103/59/29 110/111/75
f 127/142/73 108/92/73 109/93/74 120/143/74
f 120/143/74 109/93/74 106/87/72 118/144/72
f 119/140/43 107/89/43 108/92/73 127/142/73
f 118/144/72 106/87/72 98/22/11 123/145/11
f 126/146/70 104/86/70 105/62/71 117/147/71
f 117/147/71 105/62/71 102/56/69 116/148/69
f 114/149/6 99/25/6 104/61/70 126/150/70
f 116/148/69 102/56/69 103/59/29 125/141/29
f 124/151/67 115/152/68 101/29/68 100/26/67
f 115/152/68 113/153/66 97/21/66 101/29/68
f 114/149/6 124/151/67 100/26/67 99/25/6
f 113/153/66 123/145/11 98/22/11 97/21/66
f 7/13/7 12/18/12 123/145/11 113/153/66
f 9/20/9 15/16/15 124/151/67 114/149/6
f 8/14/8 7/13/7 113/153/66 115/152/68
f 15/16/15 8/14/8 115/152/68 124/151/67
f 30/46/26 116/148/69 125/141/29 34/50/30
f 9/20/9 114/149/6 126/150/70 37/52/33
f 31/45/27 117/147/71 116/148/69 30/46/26
f 37/49/33 126/146/70 117/147/71 31/45/27
f 52/80/44 118/144/72 123/145/11 12/18/12
f 54/85/46 119/140/43 127/142/73 57/83/49
f 53/79/45 120/143/74 118/144/72 52/80/44
f 57/83/49 127/142/73 120/143/74 53/79/45
f 70/107/58 34/50/30 125/141/29 121/139/75
f 54/85/46 74/110/62 128/137/76 119/140/43
f 71/108/59 70/107/58 121/139/75 122/138/77
f 74/110/62 71/108/59 122/138/77 128/137/76
f 48/76/40 72/104/60 144/109/78 140/84/78
f 66/99/54 32/39/28 136/51/78 143/106/78
f 72/104/60 67/101/55 142/105/78 144/109/78
f 67/101/55 66/99/54 143/106/78 142/105/78
f 48/76/40 140/84/78 141/82/78 55/77/47
f 46/71/38 139/81/78 132/17/78 10/2/10
f 55/77/47 141/82/78 138/78/78 47/73/39
f 47/73/39 138/78/78 139/81/78 46/71/38
f 3/9/3 131/19/78 137/53/78 35/43/31
f 26/38/22 135/47/78 136/51/78 32/39/28
f 35/55/31 137/48/78 134/44/78 27/41/23
f 27/41/23 134/44/78 135/47/78 26/38/22
f 3/9/3 13/8/13 133/15/78 131/19/78
f 1/3/1 10/2/10 132/17/78 130/12/78
f 13/8/13 2/5/2 129/11/78 133/15/78
f 2/5/2 1/3/1 130/12/78 129/11/78
f 69/154/57 159/102/91 160/103/92 73/155/61
f 73/155/61 160/103/92 156/75/43 51/156/43
f 68/157/56 158/100/90 159/102/91 69/154/57
f 33/158/29 152/36/85 158/100/90 68/157/56
f 50/159/42 56/160/48 157/74/89 155/72/88
f 56/160/48 51/156/43 156/75/43 157/74/89
f 49/161/41 50/159/42 155/72/88 154/70/87
f 11/162/11 49/161/41 154/70/87 148/1/81
f 29/163/25 36/164/32 153/54/86 151/40/84
f 36/165/32 6/166/6 147/10/6 153/42/86
f 28/167/24 29/163/25 151/40/84 150/37/83
f 33/158/29 28/167/24 150/37/83 152/36/85
f 5/168/5 146/6/80 149/7/82 14/169/14
f 14/169/14 149/7/82 147/10/6 6/166/6
f 4/170/4 145/4/79 146/6/80 5/168/5
f 11/162/11 148/1/81 145/4/79 4/170/4
f 292/171/110 289/172/109 161/173/93 167/174/96
f 289/172/109 290/175/80 162/176/94 161/173/93
f 293/177/82 291/178/6 163/179/95 169/180/97
f 273/181/16 165/182/18 164/183/17 274/184/16
f 277/185/16 170/186/21 165/182/18 273/181/16
f 274/184/16 164/183/17 168/187/20 276/188/16
f 275/189/16 166/190/19 170/186/21 277/185/16
f 290/175/80 293/177/82 169/180/97 162/176/94
f 241/191/66 174/192/7 178/193/12 242/194/11
f 243/195/6 176/196/9 180/197/15 244/198/67
f 245/199/68 175/200/8 174/192/7 241/191/66
f 177/201/78 178/193/12 174/192/7 171/202/78
f 171/202/78 174/192/7 175/200/8 172/203/78
f 172/203/78 175/200/8 180/197/15 179/204/78
f 179/204/78 180/197/15 176/196/9 173/205/78
f 296/206/112 185/207/100 181/208/98 294/209/111
f 294/209/111 181/208/98 182/210/99 295/211/84
f 297/212/86 187/213/101 163/179/95 291/178/6
f 278/214/16 279/215/16 183/216/34 184/217/35
f 281/218/16 278/214/16 184/217/35 188/219/37
f 279/215/16 280/220/16 186/221/36 183/216/34
f 275/189/16 281/222/16 188/223/37 166/190/19
f 295/211/84 182/210/99 187/224/101 297/225/86
f 244/198/67 180/197/15 175/200/8 245/199/68
f 246/226/69 247/227/29 194/228/30 191/229/26
f 243/195/6 248/230/70 196/231/33 176/196/9
f 249/232/71 246/226/69 191/229/26 192/233/27
f 193/234/78 189/235/78 191/229/26 194/228/30
f 189/235/78 190/236/78 192/233/27 191/229/26
f 190/236/78 195/237/78 196/238/33 192/233/27
f 195/239/78 173/205/78 176/196/9 196/231/33
f 292/171/110 167/174/96 197/240/102 298/241/113
f 298/241/113 197/240/102 198/242/103 299/243/88
f 301/244/89 203/245/105 199/246/104 300/247/43
f 282/248/16 283/249/16 200/250/50 201/251/51
f 285/252/16 282/248/16 201/251/51 204/253/53
f 283/249/16 276/188/16 168/187/20 200/250/50
f 284/254/16 285/252/16 204/253/53 202/255/52
f 299/243/88 198/242/103 203/245/105 301/244/89
f 248/256/70 249/232/71 192/233/27 196/238/33
f 250/257/72 242/194/11 178/193/12 208/258/44
f 251/259/43 252/260/73 212/261/49 210/262/46
f 253/263/74 250/257/72 208/258/44 209/264/45
f 177/201/78 205/265/78 208/258/44 178/193/12
f 205/265/78 206/266/78 209/264/45 208/258/44
f 206/266/78 211/267/78 212/261/49 209/264/45
f 211/267/78 207/268/78 210/262/46 212/261/49
f 296/206/112 302/269/114 213/270/106 185/207/100
f 302/269/114 303/271/91 214/272/107 213/270/106
f 304/273/92 300/247/43 199/246/104 217/274/108
f 286/275/16 216/276/64 215/277/63 287/278/16
f 288/279/16 218/280/65 216/276/64 286/275/16
f 287/278/16 215/277/63 186/221/36 280/220/16
f 284/254/16 202/255/52 218/280/65 288/279/16
f 303/271/91 304/273/92 217/274/108 214/272/107
f 252/260/73 253/263/74 209/264/45 212/261/49
f 254/281/75 221/282/58 194/228/30 247/227/29
f 251/259/43 210/262/46 224/283/62 255/284/76
f 256/285/77 222/286/59 221/282/58 254/281/75
f 193/234/78 194/228/30 221/282/58 219/287/78
f 219/287/78 221/282/58 222/286/59 220/288/78
f 220/288/78 222/286/59 224/283/62 223/289/78
f 223/289/78 224/283/62 210/262/46 207/268/78
f 173/205/78 238/290/78 236/291/78 179/204/78
f 205/265/78 231/292/78 230/293/78 206/266/78
f 207/268/78 229/294/78 225/295/78 223/289/78
f 211/267/78 228/296/78 229/294/78 207/268/78
f 190/236/78 234/297/78 232/298/78 195/237/78
f 171/202/78 240/299/78 237/300/78 177/201/78
f 189/235/78 235/301/78 234/297/78 190/236/78
f 219/287/78 227/302/78 233/303/78 193/234/78
f 177/201/78 237/300/78 231/292/78 205/265/78
f 195/239/78 232/304/78 238/290/78 173/205/78
f 179/204/78 236/291/78 239/305/78 172/203/78
f 193/234/78 233/303/78 235/301/78 189/235/78
f 172/203/78 239/305/78 240/299/78 171/202/78
f 223/289/78 225/295/78 226/306/78 220/288/78
f 206/266/78 230/293/78 228/296/78 211/267/78
f 220/288/78 226/306/78 227/302/78 219/287/78
f 255/284/76 224/283/62 222/286/59 256/285/77
f 272/307/76 255/284/76 256/285/77 266/308/77
f 266/308/77 256/285/77 254/281/75 265/309/75
f 263/310/43 251/259/43 255/284/76 272/307/76
f 265/309/75 254/281/75 247/227/29 269/311/29
f 271/312/73 264/313/74 253/263/74 252/260/73
f 264/313/74 262/314/72 250/257/72 253/263/74
f 263/310/43 271/312/73 252/260/73 251/259/43
f 262/314/72 267/315/11 242/194/11 250/257/72
f 270/316/70 261/317/71 249/232/71 248/256/70
f 261/317/71 260/318/69 246/226/69 249/232/71
f 258/319/6 270/320/70 248/230/70 243/195/6
f 260/318/69 269/311/29 247/227/29 246/226/69
f 268/321/67 244/198/67 245/199/68 259/322/68
f 259/322/68 245/199/68 241/191/66 257/323/66
f 258/319/6 243/195/6 244/198/67 268/321/67
f 257/323/66 241/191/66 242/194/11 267/315/11
f 164/183/17 257/323/66 267/315/11 168/187/20
f 166/190/19 258/319/6 268/321/67 170/186/21
f 165/182/18 259/322/68 257/323/66 164/183/17
f 170/186/21 268/321/67 259/322/68 165/182/18
f 183/216/34 186/221/36 269/311/29 260/318/69
f 166/190/19 188/223/37 270/320/70 258/319/6
f 184/217/35 183/216/34 260/318/69 261/317/71
f 188/219/37 184/217/35 261/317/71 270/316/70
f 200/250/50 168/187/20 267/315/11 262/314/72
f 202/255/52 204/253/53 271/312/73 263/310/43
f 201/251/51 200/250/50 262/314/72 264/313/74
f 204/253/53 201/251/51 264/313/74 271/312/73
f 215/277/63 265/309/75 269/311/29 186/221/36
f 202/255/52 263/310/43 272/307/76 218/280/65
f 216/276/64 266/308/77 265/309/75 215/277/63
f 218/280/65 272/307/76 266/308/77 216/276/64
f 199/246/104 284/254/16 288/279/16 217/274/108
f 213/270/106 287/278/16 280/220/16 185/207/100
f 217/274/108 288/279/16 286/275/16 214/272/107
f 214/272/107 286/275/16 287/278/16 213/270/106
f 199/246/104 203/245/105 285/252/16 284/254/16
f 197/240/102 167/174/96 276/188/16 283/249/16
f 203/245/105 198/242/103 282/248/16 285/252/16
f 198/242/103 197/240/102 283/249/16 282/248/16
f 163/179/95 187/213/101 281/222/16 275/189/16
f 181/208/98 185/207/100 280/220/16 279/215/16
f 187/224/101 182/210/99 278/214/16 281/218/16
f 182/210/99 181/208/98 279/215/16 278/214/16
f 163/179/95 275/189/16 277/185/16 169/180/97
f 161/173/93 274/184/16 276/188/16 167/174/96
f 169/180/97 277/185/16 273/181/16 162/176/94
f 162/176/94 273/181/16 274/184/16 161/173/93
f 69/154/57 73/155/61 304/273/92 303/271/91
f 73/155/61 51/156/43 300/247/43 304/273/92
f 68/157/56 69/154/57 303/271/91 302/269/114
f 33/158/29 68/157/56 302/269/114 296/206/112
f 50/159/42 299/243/88 301/244/89 56/160/48
f 56/160/48 301/244/89 300/247/43 51/156/43
f 49/161/41 298/241/113 299/243/88 50/159/42
f 11/162/11 292/171/110 298/241/113 49/161/41
f 29/163/25 295/211/84 297/225/86 36/164/32
f 36/165/32 297/212/86 291/178/6 6/166/6
f 28/167/24 294/209/111 295/211/84 29/163/25
f 33/158/29 296/206/112 294/209/111 28/167/24
f 5/168/5 14/169/14 293/177/82 290/175/80
f 14/169/14 6/166/6 291/178/6 293/177/82
f 4/170/4 5/168/5 290/175/80 289/172/109
f 11/162/11 4/170/4 289/172/109 292/171/110
