# Blender 5.0.1
# www.blender.org
mtllib pipe_quatro.mtl
o tube_3
v -0.026899 1.859572 0.328827
v -0.026899 1.419654 0.328827
v -0.026899 1.859572 0.458654
v -0.026899 2.068026 0.328827
v -0.026899 2.068026 0.458654
v -0.316776 1.859572 0.128385
v -0.239487 1.859572 0.237962
v -0.316497 1.419654 0.128770
v -0.239399 1.419654 0.238083
v -0.431852 1.859572 0.171512
v -0.315848 1.859572 0.332906
v -0.347515 1.859572 -0.000000
v -0.347515 1.419654 -0.000000
v -0.476324 1.859572 -0.000000
v -0.138931 1.859572 0.305845
v -0.138924 1.419654 0.305855
v -0.182620 1.859572 0.424757
v -0.316776 2.068026 0.128385
v -0.239487 2.068026 0.237962
v -0.431852 2.068026 0.171512
v -0.315848 2.068026 0.332906
v -0.347515 2.068026 -0.000000
v -0.476324 2.068026 -0.000000
v -0.138931 2.068026 0.305845
v -0.182620 2.068026 0.424757
v -0.107447 2.068026 0.219893
v -0.257413 2.068026 -0.000000
v -0.179744 2.068026 0.171087
v -0.235312 2.068026 0.092305
v -0.026899 2.068026 0.236417
v -0.026899 2.059019 0.458654
v -0.431852 2.059019 0.171512
v -0.476324 2.059019 -0.000000
v -0.182620 2.059019 0.424757
v -0.315848 2.059019 0.332906
v -0.026899 1.871968 0.458654
v -0.431852 1.871968 0.171512
v -0.315848 1.871968 0.332906
v -0.476324 1.871968 -0.000000
v -0.182620 1.871968 0.424757
v -0.026899 1.859572 0.346345
v -0.248192 1.859572 0.250982
v -0.332436 1.859572 0.132608
v -0.365365 1.859572 -0.000000
v -0.144711 1.859572 0.321501
v -0.026899 1.850822 0.328827
v -0.316771 1.850822 0.128393
v -0.239485 1.850822 0.237964
v -0.347515 1.850822 -0.000000
v -0.138931 1.850822 0.305845
v -0.835867 1.340482 0.128385
v -0.835867 1.263193 0.237961
v -0.835867 1.050605 0.328827
v -0.392473 1.340200 0.128773
v -0.392474 1.263104 0.238083
v -0.392474 1.050605 0.328827
v -0.835866 1.455558 0.171512
v -0.835867 1.339554 0.332906
v -0.835867 1.050605 0.458654
v -0.835867 1.371221 -0.000000
v -0.392473 1.371221 -0.000000
v -0.835866 1.500029 -0.000000
v -0.835867 1.162637 0.305845
v -0.392474 1.162630 0.305855
v -0.835867 1.206325 0.424757
v -1.044320 1.340482 0.128385
v -1.044320 1.263193 0.237961
v -1.044320 1.050605 0.328827
v -1.044320 1.455558 0.171512
v -1.044320 1.339554 0.332906
v -1.044320 1.050605 0.458654
v -1.044320 1.371221 -0.000000
v -1.044320 1.500029 -0.000000
v -1.044320 1.162637 0.305845
v -1.044320 1.206325 0.424757
v -1.044320 1.131153 0.219893
v -1.044320 1.281118 -0.000000
v -1.044320 1.050605 0.236417
v -1.044320 1.203449 0.171087
v -1.044320 1.259018 0.092305
v -1.035313 1.455558 0.171512
v -1.035313 1.500029 -0.000000
v -1.035313 1.050605 0.458654
v -1.035313 1.206325 0.424757
v -1.035313 1.339554 0.332906
v -0.848263 1.455558 0.171512
v -0.848263 1.050605 0.458654
v -0.848263 1.339554 0.332906
v -0.848263 1.500029 -0.000000
v -0.848263 1.206325 0.424757
v -0.835867 1.271897 0.250982
v -0.835866 1.356142 0.132608
v -0.835867 1.050605 0.346344
v -0.835866 1.389071 -0.000000
v -0.835867 1.168417 0.321501
v -0.827116 1.340477 0.128393
v -0.827116 1.263191 0.237964
v -0.827117 1.050605 0.328827
v -0.827116 1.371221 -0.000000
v -0.827116 1.162637 0.305845
v -0.026899 1.050605 0.328827
v -0.279956 1.357096 0.246732
v -0.332751 1.388434 0.128771
v -0.172997 1.050605 0.328827
v -0.353216 1.399059 -0.000000
v -0.178063 1.302359 0.317981
v -0.026899 1.263518 0.328827
v -0.336215 1.310100 0.242408
v -0.369157 1.381886 -0.000000
v -0.358925 1.361063 0.128772
v -0.282735 1.050605 0.328827
v -0.283441 1.197936 0.316011
v 0.262978 1.859572 0.128385
v 0.185689 1.859572 0.237962
v 0.262698 1.419654 0.128770
v 0.185601 1.419654 0.238083
v 0.378053 1.859572 0.171512
v 0.262049 1.859572 0.332906
v 0.293717 1.859572 -0.000000
v 0.293717 1.419654 -0.000000
v 0.422525 1.859572 -0.000000
v 0.085133 1.859572 0.305845
v 0.085126 1.419654 0.305855
v 0.128821 1.859572 0.424757
v 0.262978 2.068026 0.128385
v 0.185689 2.068026 0.237962
v 0.378053 2.068026 0.171512
v 0.262049 2.068026 0.332906
v 0.293717 2.068026 -0.000000
v 0.422525 2.068026 -0.000000
v 0.085133 2.068026 0.305845
v 0.128821 2.068026 0.424757
v 0.053648 2.068026 0.219893
v 0.203614 2.068026 -0.000000
v 0.125945 2.068026 0.171087
v 0.181513 2.068026 0.092305
v 0.378053 2.059019 0.171512
v 0.422525 2.059019 -0.000000
v 0.128821 2.059019 0.424757
v 0.262049 2.059019 0.332906
v 0.378053 1.871968 0.171512
v 0.262049 1.871968 0.332906
v 0.422525 1.871968 -0.000000
v 0.128821 1.871968 0.424757
v 0.194393 1.859572 0.250982
v 0.278637 1.859572 0.132608
v 0.311566 1.859572 -0.000000
v 0.090913 1.859572 0.321501
v 0.262972 1.850822 0.128393
v 0.185687 1.850822 0.237964
v 0.293717 1.850822 -0.000000
v 0.085133 1.850822 0.305845
v 0.782068 1.340482 0.128385
v 0.782068 1.263193 0.237961
v 0.782068 1.050605 0.328827
v 0.338675 1.340200 0.128773
v 0.338675 1.263104 0.238083
v 0.338675 1.050605 0.328827
v 0.782068 1.455558 0.171512
v 0.782068 1.339554 0.332906
v 0.782068 1.050605 0.458654
v 0.782068 1.371221 -0.000000
v 0.338675 1.371221 -0.000000
v 0.782068 1.500029 -0.000000
v 0.782068 1.162637 0.305845
v 0.338675 1.162630 0.305855
v 0.782068 1.206325 0.424757
v 0.990522 1.340482 0.128385
v 0.990522 1.263193 0.237961
v 0.990522 1.050605 0.328827
v 0.990521 1.455558 0.171512
v 0.990522 1.339554 0.332906
v 0.990522 1.050605 0.458654
v 0.990522 1.371221 -0.000000
v 0.990521 1.500029 -0.000000
v 0.990522 1.162637 0.305845
v 0.990522 1.206325 0.424757
v 0.990522 1.131153 0.219893
v 0.990522 1.281118 -0.000000
v 0.990522 1.050605 0.236417
v 0.990522 1.203449 0.171087
v 0.990522 1.259018 0.092305
v 0.981514 1.455558 0.171512
v 0.981514 1.500029 -0.000000
v 0.981514 1.050605 0.458654
v 0.981514 1.206325 0.424757
v 0.981514 1.339554 0.332906
v 0.794464 1.455558 0.171512
v 0.794464 1.050605 0.458654
v 0.794464 1.339554 0.332906
v 0.794464 1.500029 -0.000000
v 0.794464 1.206325 0.424757
v 0.782068 1.271897 0.250982
v 0.782068 1.356142 0.132608
v 0.782068 1.050605 0.346344
v 0.782068 1.389071 -0.000000
v 0.782068 1.168417 0.321501
v 0.773318 1.340477 0.128393
v 0.773318 1.263191 0.237964
v 0.773318 1.050605 0.328827
v 0.773318 1.371221 -0.000000
v 0.773318 1.162637 0.305845
v 0.226158 1.357096 0.246732
v 0.278953 1.388434 0.128771
v 0.119198 1.050605 0.328827
v 0.299417 1.399059 -0.000000
v 0.124264 1.302359 0.317981
v 0.282416 1.310100 0.242408
v 0.315358 1.381886 -0.000000
v 0.305126 1.361063 0.128772
v 0.228937 1.050605 0.328827
v 0.229643 1.197936 0.316011
v -0.026899 1.859572 -0.328827
v -0.026899 1.419654 -0.328827
v -0.026899 1.859572 -0.458654
v -0.026899 2.068026 -0.328827
v -0.026899 2.068026 -0.458654
v -0.316776 1.859572 -0.128385
v -0.239487 1.859572 -0.237962
v -0.316497 1.419654 -0.128770
v -0.239399 1.419654 -0.238083
v -0.431852 1.859572 -0.171512
v -0.315848 1.859572 -0.332906
v -0.138931 1.859572 -0.305845
v -0.138924 1.419654 -0.305855
v -0.182620 1.859572 -0.424757
v -0.316776 2.068026 -0.128385
v -0.239487 2.068026 -0.237962
v -0.431852 2.068026 -0.171512
v -0.315848 2.068026 -0.332906
v -0.138931 2.068026 -0.305845
v -0.182620 2.068026 -0.424757
v -0.107447 2.068026 -0.219893
v -0.179744 2.068026 -0.171087
v -0.235312 2.068026 -0.092305
v -0.026899 2.068026 -0.236417
v -0.026899 2.059019 -0.458654
v -0.431852 2.059019 -0.171512
v -0.182620 2.059019 -0.424757
v -0.315848 2.059019 -0.332906
v -0.026899 1.871968 -0.458654
v -0.431852 1.871968 -0.171512
v -0.315848 1.871968 -0.332906
v -0.182620 1.871968 -0.424757
v -0.026899 1.859572 -0.346345
v -0.248192 1.859572 -0.250982
v -0.332436 1.859572 -0.132608
v -0.144711 1.859572 -0.321501
v -0.026899 1.850822 -0.328827
v -0.316771 1.850822 -0.128393
v -0.239485 1.850822 -0.237964
v -0.138931 1.850822 -0.305845
v -0.835867 1.340482 -0.128385
v -0.835867 1.263193 -0.237961
v -0.835867 1.050605 -0.328827
v -0.392473 1.340200 -0.128773
v -0.392474 1.263104 -0.238083
v -0.392474 1.050605 -0.328827
v -0.835866 1.455558 -0.171512
v -0.835867 1.339554 -0.332906
v -0.835867 1.050605 -0.458654
v -0.835867 1.162637 -0.305845
v -0.392474 1.162630 -0.305855
v -0.835867 1.206325 -0.424757
v -1.044320 1.340482 -0.128385
v -1.044320 1.263193 -0.237961
v -1.044320 1.050605 -0.328827
v -1.044320 1.455558 -0.171512
v -1.044320 1.339554 -0.332906
v -1.044320 1.050605 -0.458654
v -1.044320 1.162637 -0.305845
v -1.044320 1.206325 -0.424757
v -1.044320 1.131153 -0.219893
v -1.044320 1.050605 -0.236417
v -1.044320 1.203449 -0.171087
v -1.044320 1.259018 -0.092305
v -1.035313 1.455558 -0.171512
v -1.035313 1.050605 -0.458654
v -1.035313 1.206325 -0.424757
v -1.035313 1.339554 -0.332906
v -0.848263 1.455558 -0.171512
v -0.848263 1.050605 -0.458654
v -0.848263 1.339554 -0.332906
v -0.848263 1.206325 -0.424757
v -0.835867 1.271897 -0.250982
v -0.835866 1.356142 -0.132608
v -0.835867 1.050605 -0.346344
v -0.835867 1.168417 -0.321501
v -0.827116 1.340477 -0.128393
v -0.827116 1.263191 -0.237964
v -0.827117 1.050605 -0.328827
v -0.827116 1.162637 -0.305845
v -0.026899 1.050605 -0.328827
v -0.279956 1.357096 -0.246732
v -0.332751 1.388434 -0.128771
v -0.172997 1.050605 -0.328827
v -0.178063 1.302359 -0.317981
v -0.026899 1.263518 -0.328827
v -0.336215 1.310100 -0.242408
v -0.358925 1.361063 -0.128772
v -0.282735 1.050605 -0.328827
v -0.283441 1.197936 -0.316011
v 0.262978 1.859572 -0.128385
v 0.185689 1.859572 -0.237962
v 0.262698 1.419654 -0.128770
v 0.185601 1.419654 -0.238083
v 0.378053 1.859572 -0.171512
v 0.262049 1.859572 -0.332906
v 0.085133 1.859572 -0.305845
v 0.085126 1.419654 -0.305855
v 0.128821 1.859572 -0.424757
v 0.262978 2.068026 -0.128385
v 0.185689 2.068026 -0.237962
v 0.378053 2.068026 -0.171512
v 0.262049 2.068026 -0.332906
v 0.085133 2.068026 -0.305845
v 0.128821 2.068026 -0.424757
v 0.053648 2.068026 -0.219893
v 0.125945 2.068026 -0.171087
v 0.181513 2.068026 -0.092305
v 0.378053 2.059019 -0.171512
v 0.128821 2.059019 -0.424757
v 0.262049 2.059019 -0.332906
v 0.378053 1.871968 -0.171512
v 0.262049 1.871968 -0.332906
v 0.128821 1.871968 -0.424757
v 0.194393 1.859572 -0.250982
v 0.278637 1.859572 -0.132608
v 0.090913 1.859572 -0.321501
v 0.262972 1.850822 -0.128393
v 0.185687 1.850822 -0.237964
v 0.085133 1.850822 -0.305845
v 0.782068 1.340482 -0.128385
v 0.782068 1.263193 -0.237961
v 0.782068 1.050605 -0.328827
v 0.338675 1.340200 -0.128773
v 0.338675 1.263104 -0.238083
v 0.338675 1.050605 -0.328827
v 0.782068 1.455558 -0.171512
v 0.782068 1.339554 -0.332906
v 0.782068 1.050605 -0.458654
v 0.782068 1.162637 -0.305845
v 0.338675 1.162630 -0.305855
v 0.782068 1.206325 -0.424757
v 0.990522 1.340482 -0.128385
v 0.990522 1.263193 -0.237961
v 0.990522 1.050605 -0.328827
v 0.990521 1.455558 -0.171512
v 0.990522 1.339554 -0.332906
v 0.990522 1.050605 -0.458654
v 0.990522 1.162637 -0.305845
v 0.990522 1.206325 -0.424757
v 0.990522 1.131153 -0.219893
v 0.990522 1.050605 -0.236417
v 0.990522 1.203449 -0.171087
v 0.990522 1.259018 -0.092305
v 0.981514 1.455558 -0.171512
v 0.981514 1.050605 -0.458654
v 0.981514 1.206325 -0.424757
v 0.981514 1.339554 -0.332906
v 0.794464 1.455558 -0.171512
v 0.794464 1.050605 -0.458654
v 0.794464 1.339554 -0.332906
v 0.794464 1.206325 -0.424757
v 0.782068 1.271897 -0.250982
v 0.782068 1.356142 -0.132608
v 0.782068 1.050605 -0.346344
v 0.782068 1.168417 -0.321501
v 0.773318 1.340477 -0.128393
v 0.773318 1.263191 -0.237964
v 0.773318 1.050605 -0.328827
v 0.773318 1.162637 -0.305845
v 0.226158 1.357096 -0.246732
v 0.278953 1.388434 -0.128771
v 0.119198 1.050605 -0.328827
v 0.124264 1.302359 -0.317981
v 0.282416 1.310100 -0.242408
v 0.305126 1.361063 -0.128772
v 0.228937 1.050605 -0.328827
v 0.229643 1.197936 -0.316011
v -0.026899 0.241638 0.328827
v -0.026899 0.681555 0.328827
v -0.026899 0.241638 0.458654
v -0.026899 0.033184 0.328827
v -0.026899 0.033184 0.458654
v -0.316776 0.241638 0.128385
v -0.239487 0.241638 0.237962
v -0.316497 0.681555 0.128770
v -0.239399 0.681555 0.238083
v -0.431852 0.241638 0.171512
v -0.315848 0.241638 0.332906
v -0.347515 0.241638 -0.000000
v -0.347515 0.681555 -0.000000
v -0.476324 0.241638 -0.000000
v -0.138931 0.241638 0.305845
v -0.138924 0.681555 0.305855
v -0.182620 0.241638 0.424757
v -0.316776 0.033184 0.128385
v -0.239487 0.033184 0.237962
v -0.431852 0.033184 0.171512
v -0.315848 0.033184 0.332906
v -0.347515 0.033184 -0.000000
v -0.476324 0.033184 -0.000000
v -0.138931 0.033184 0.305845
v -0.182620 0.033184 0.424757
v -0.107447 0.033184 0.219893
v -0.257413 0.033184 -0.000000
v -0.179744 0.033184 0.171087
v -0.235312 0.033184 0.092305
v -0.026899 0.033184 0.236417
v -0.026899 0.042191 0.458654
v -0.431852 0.042191 0.171512
v -0.476324 0.042191 -0.000000
v -0.182620 0.042191 0.424757
v -0.315848 0.042191 0.332906
v -0.026899 0.229241 0.458654
v -0.431852 0.229241 0.171512
v -0.315848 0.229241 0.332906
v -0.476324 0.229241 -0.000000
v -0.182620 0.229241 0.424757
v -0.026899 0.241638 0.346345
v -0.248192 0.241638 0.250982
v -0.332436 0.241638 0.132608
v -0.365365 0.241638 -0.000000
v -0.144711 0.241638 0.321501
v -0.026899 0.250388 0.328827
v -0.316771 0.250388 0.128393
v -0.239485 0.250388 0.237964
v -0.347515 0.250388 -0.000000
v -0.138931 0.250388 0.305845
v -0.835867 0.760728 0.128385
v -0.835867 0.838017 0.237961
v -0.392473 0.761010 0.128773
v -0.392474 0.838105 0.238083
v -0.835866 0.645652 0.171512
v -0.835867 0.761656 0.332906
v -0.835867 0.729989 -0.000000
v -0.392473 0.729989 -0.000000
v -0.835866 0.601180 -0.000000
v -0.835867 0.938573 0.305845
v -0.392474 0.938580 0.305855
v -0.835867 0.894884 0.424757
v -1.044320 0.760728 0.128385
v -1.044320 0.838017 0.237961
v -1.044320 0.645652 0.171512
v -1.044320 0.761656 0.332906
v -1.044320 0.729989 -0.000000
v -1.044320 0.601180 -0.000000
v -1.044320 0.938573 0.305845
v -1.044320 0.894884 0.424757
v -1.044320 0.970057 0.219893
v -1.044320 0.820091 -0.000000
v -1.044320 0.897760 0.171087
v -1.044320 0.842192 0.092305
v -1.035313 0.645652 0.171512
v -1.035313 0.601180 -0.000000
v -1.035313 0.894884 0.424757
v -1.035313 0.761656 0.332906
v -0.848263 0.645652 0.171512
v -0.848263 0.761656 0.332906
v -0.848263 0.601180 -0.000000
v -0.848263 0.894884 0.424757
v -0.835867 0.829312 0.250982
v -0.835866 0.745068 0.132608
v -0.835866 0.712139 -0.000000
v -0.835867 0.932793 0.321501
v -0.827116 0.760733 0.128393
v -0.827116 0.838019 0.237964
v -0.827116 0.729989 -0.000000
v -0.827116 0.938573 0.305845
v -0.279956 0.744114 0.246732
v -0.332751 0.712775 0.128771
v -0.353216 0.702150 -0.000000
v -0.178063 0.798851 0.317981
v -0.026899 0.837692 0.328827
v -0.336215 0.791110 0.242408
v -0.369157 0.719323 -0.000000
v -0.358925 0.740146 0.128772
v -0.283441 0.903274 0.316011
v 0.262978 0.241638 0.128385
v 0.185689 0.241638 0.237962
v 0.262698 0.681555 0.128770
v 0.185601 0.681555 0.238083
v 0.378053 0.241638 0.171512
v 0.262049 0.241638 0.332906
v 0.293717 0.241638 -0.000000
v 0.293717 0.681555 -0.000000
v 0.422525 0.241638 -0.000000
v 0.085133 0.241638 0.305845
v 0.085126 0.681555 0.305855
v 0.128821 0.241638 0.424757
v 0.262978 0.033184 0.128385
v 0.185689 0.033184 0.237962
v 0.378053 0.033184 0.171512
v 0.262049 0.033184 0.332906
v 0.293717 0.033184 -0.000000
v 0.422525 0.033184 -0.000000
v 0.085133 0.033184 0.305845
v 0.128821 0.033184 0.424757
v 0.053648 0.033184 0.219893
v 0.203614 0.033184 -0.000000
v 0.125945 0.033184 0.171087
v 0.181513 0.033184 0.092305
v 0.378053 0.042191 0.171512
v 0.422525 0.042191 -0.000000
v 0.128821 0.042191 0.424757
v 0.262049 0.042191 0.332906
v 0.378053 0.229241 0.171512
v 0.262049 0.229241 0.332906
v 0.422525 0.229241 -0.000000
v 0.128821 0.229241 0.424757
v 0.194393 0.241638 0.250982
v 0.278637 0.241638 0.132608
v 0.311566 0.241638 -0.000000
v 0.090913 0.241638 0.321501
v 0.262972 0.250388 0.128393
v 0.185687 0.250388 0.237964
v 0.293717 0.250388 -0.000000
v 0.085133 0.250388 0.305845
v 0.782068 0.760728 0.128385
v 0.782068 0.838017 0.237961
v 0.338675 0.761010 0.128773
v 0.338675 0.838105 0.238083
v 0.782068 0.645652 0.171512
v 0.782068 0.761656 0.332906
v 0.782068 0.729989 -0.000000
v 0.338675 0.729989 -0.000000
v 0.782068 0.601180 -0.000000
v 0.782068 0.938573 0.305845
v 0.338675 0.938580 0.305855
v 0.782068 0.894884 0.424757
v 0.990522 0.760728 0.128385
v 0.990522 0.838017 0.237961
v 0.990521 0.645652 0.171512
v 0.990522 0.761656 0.332906
v 0.990522 0.729989 -0.000000
v 0.990521 0.601180 -0.000000
v 0.990522 0.938573 0.305845
v 0.990522 0.894884 0.424757
v 0.990522 0.970057 0.219893
v 0.990522 0.820091 -0.000000
v 0.990522 0.897760 0.171087
v 0.990522 0.842192 0.092305
v 0.981514 0.645652 0.171512
v 0.981514 0.601180 -0.000000
v 0.981514 0.894884 0.424757
v 0.981514 0.761656 0.332906
v 0.794464 0.645652 0.171512
v 0.794464 0.761656 0.332906
v 0.794464 0.601180 -0.000000
v 0.794464 0.894884 0.424757
v 0.782068 0.829312 0.250982
v 0.782068 0.745068 0.132608
v 0.782068 0.712139 -0.000000
v 0.782068 0.932793 0.321501
v 0.773318 0.760733 0.128393
v 0.773318 0.838019 0.237964
v 0.773318 0.729989 -0.000000
v 0.773318 0.938573 0.305845
v 0.226158 0.744114 0.246732
v 0.278953 0.712775 0.128771
v 0.299417 0.702150 -0.000000
v 0.124264 0.798851 0.317981
v 0.282416 0.791110 0.242408
v 0.315358 0.719323 -0.000000
v 0.305126 0.740146 0.128772
v 0.229643 0.903274 0.316011
v -0.026899 0.241638 -0.328827
v -0.026899 0.681555 -0.328827
v -0.026899 0.241638 -0.458654
v -0.026899 0.033184 -0.328827
v -0.026899 0.033184 -0.458654
v -0.316776 0.241638 -0.128385
v -0.239487 0.241638 -0.237962
v -0.316497 0.681555 -0.128770
v -0.239399 0.681555 -0.238083
v -0.431852 0.241638 -0.171512
v -0.315848 0.241638 -0.332906
v -0.138931 0.241638 -0.305845
v -0.138924 0.681555 -0.305855
v -0.182620 0.241638 -0.424757
v -0.316776 0.033184 -0.128385
v -0.239487 0.033184 -0.237962
v -0.431852 0.033184 -0.171512
v -0.315848 0.033184 -0.332906
v -0.138931 0.033184 -0.305845
v -0.182620 0.033184 -0.424757
v -0.107447 0.033184 -0.219893
v -0.179744 0.033184 -0.171087
v -0.235312 0.033184 -0.092305
v -0.026899 0.033184 -0.236417
v -0.026899 0.042191 -0.458654
v -0.431852 0.042191 -0.171512
v -0.182620 0.042191 -0.424757
v -0.315848 0.042191 -0.332906
v -0.026899 0.229241 -0.458654
v -0.431852 0.229241 -0.171512
v -0.315848 0.229241 -0.332906
v -0.182620 0.229241 -0.424757
v -0.026899 0.241638 -0.346345
v -0.248192 0.241638 -0.250982
v -0.332436 0.241638 -0.132608
v -0.144711 0.241638 -0.321501
v -0.026899 0.250388 -0.328827
v -0.316771 0.250388 -0.128393
v -0.239485 0.250388 -0.237964
v -0.138931 0.250388 -0.305845
v -0.835867 0.760728 -0.128385
v -0.835867 0.838017 -0.237961
v -0.392473 0.761010 -0.128773
v -0.392474 0.838105 -0.238083
v -0.835866 0.645652 -0.171512
v -0.835867 0.761656 -0.332906
v -0.835867 0.938573 -0.305845
v -0.392474 0.938580 -0.305855
v -0.835867 0.894884 -0.424757
v -1.044320 0.760728 -0.128385
v -1.044320 0.838017 -0.237961
v -1.044320 0.645652 -0.171512
v -1.044320 0.761656 -0.332906
v -1.044320 0.938573 -0.305845
v -1.044320 0.894884 -0.424757
v -1.044320 0.970057 -0.219893
v -1.044320 0.897760 -0.171087
v -1.044320 0.842192 -0.092305
v -1.035313 0.645652 -0.171512
v -1.035313 0.894884 -0.424757
v -1.035313 0.761656 -0.332906
v -0.848263 0.645652 -0.171512
v -0.848263 0.761656 -0.332906
v -0.848263 0.894884 -0.424757
v -0.835867 0.829312 -0.250982
v -0.835866 0.745068 -0.132608
v -0.835867 0.932793 -0.321501
v -0.827116 0.760733 -0.128393
v -0.827116 0.838019 -0.237964
v -0.827116 0.938573 -0.305845
v -0.279956 0.744114 -0.246732
v -0.332751 0.712775 -0.128771
v -0.178063 0.798851 -0.317981
v -0.026899 0.837692 -0.328827
v -0.336215 0.791110 -0.242408
v -0.358925 0.740146 -0.128772
v -0.283441 0.903274 -0.316011
v 0.262978 0.241638 -0.128385
v 0.185689 0.241638 -0.237962
v 0.262698 0.681555 -0.128770
v 0.185601 0.681555 -0.238083
v 0.378053 0.241638 -0.171512
v 0.262049 0.241638 -0.332906
v 0.085133 0.241638 -0.305845
v 0.085126 0.681555 -0.305855
v 0.128821 0.241638 -0.424757
v 0.262978 0.033184 -0.128385
v 0.185689 0.033184 -0.237962
v 0.378053 0.033184 -0.171512
v 0.262049 0.033184 -0.332906
v 0.085133 0.033184 -0.305845
v 0.128821 0.033184 -0.424757
v 0.053648 0.033184 -0.219893
v 0.125945 0.033184 -0.171087
v 0.181513 0.033184 -0.092305
v 0.378053 0.042191 -0.171512
v 0.128821 0.042191 -0.424757
v 0.262049 0.042191 -0.332906
v 0.378053 0.229241 -0.171512
v 0.262049 0.229241 -0.332906
v 0.128821 0.229241 -0.424757
v 0.194393 0.241638 -0.250982
v 0.278637 0.241638 -0.132608
v 0.090913 0.241638 -0.321501
v 0.262972 0.250388 -0.128393
v 0.185687 0.250388 -0.237964
v 0.085133 0.250388 -0.305845
v 0.782068 0.760728 -0.128385
v 0.782068 0.838017 -0.237961
v 0.338675 0.761010 -0.128773
v 0.338675 0.838105 -0.238083
v 0.782068 0.645652 -0.171512
v 0.782068 0.761656 -0.332906
v 0.782068 0.938573 -0.305845
v 0.338675 0.938580 -0.305855
v 0.782068 0.894884 -0.424757
v 0.990522 0.760728 -0.128385
v 0.990522 0.838017 -0.237961
v 0.990521 0.645652 -0.171512
v 0.990522 0.761656 -0.332906
v 0.990522 0.938573 -0.305845
v 0.990522 0.894884 -0.424757
v 0.990522 0.970057 -0.219893
v 0.990522 0.897760 -0.171087
v 0.990522 0.842192 -0.092305
v 0.981514 0.645652 -0.171512
v 0.981514 0.894884 -0.424757
v 0.981514 0.761656 -0.332906
v 0.794464 0.645652 -0.171512
v 0.794464 0.761656 -0.332906
v 0.794464 0.894884 -0.424757
v 0.782068 0.829312 -0.250982
v 0.782068 0.745068 -0.132608
v 0.782068 0.932793 -0.321501
v 0.773318 0.760733 -0.128393
v 0.773318 0.838019 -0.237964
v 0.773318 0.938573 -0.305845
v 0.226158 0.744114 -0.246732
v 0.278953 0.712775 -0.128771
v 0.124264 0.798851 -0.317981
v 0.282416 0.791110 -0.242408
v 0.305126 0.740146 -0.128772
v 0.229643 0.903274 -0.316011
vn -0.0000 -0.7553 0.6554
vn -0.0000 0.0309 0.9995
vn -0.0000 -0.6622 0.7493
vn -0.0000 1.0000 -0.0000
vn -0.0000 0.6622 0.7493
vn -0.6005 -0.7521 0.2714
vn -0.4629 -0.7500 0.4724
vn -0.8871 0.2356 0.3970
vn -0.6607 0.2037 0.7225
vn -0.6738 -0.6680 0.3159
vn -0.5194 -0.6705 0.5297
vn -0.6458 -0.7635 -0.0000
vn -0.9790 0.2037 -0.0000
vn -0.7559 -0.6547 -0.0000
vn -0.2548 -0.7536 0.6059
vn -0.3345 0.0862 0.9384
vn -0.2966 -0.6661 0.6844
vn -0.6738 0.6680 0.3159
vn -0.5194 0.6705 0.5297
vn -0.7559 0.6547 -0.0000
vn -0.2966 0.6661 0.6844
vn -0.0000 -0.0000 1.0000
vn -0.9054 -0.0000 0.4245
vn -1.0000 -0.0000 -0.0000
vn -0.3977 -0.0000 0.9175
vn -0.7001 -0.0000 0.7140
vn -0.0000 -1.0000 -0.0000
vn -0.9111 -0.0001 0.4122
vn -0.6998 -0.0000 0.7143
vn -1.0000 -0.0002 -0.0000
vn -0.3876 -0.0000 0.9218
vn 0.7521 0.6005 0.2714
vn 0.7500 0.4629 0.4724
vn 0.7553 -0.0000 0.6554
vn -0.2810 0.8755 0.3931
vn -0.2148 0.6504 0.7286
vn -0.0345 -0.0000 0.9994
vn 0.6680 0.6738 0.3159
vn 0.6705 0.5194 0.5297
vn 0.6622 -0.0000 0.7493
vn 0.7635 0.6458 -0.0000
vn -0.2590 0.9659 -0.0000
vn 0.6547 0.7559 -0.0000
vn 0.7536 0.2548 0.6059
vn -0.0882 0.3378 0.9371
vn 0.6661 0.2966 0.6844
vn -0.6680 0.6738 0.3159
vn -0.6705 0.5194 0.5297
vn -0.6622 -0.0000 0.7493
vn -0.6547 0.7559 -0.0000
vn -0.6661 0.2966 0.6844
vn -0.0000 0.9054 0.4245
vn -0.0000 0.3977 0.9175
vn -0.0000 0.7001 0.7140
vn 1.0000 -0.0000 -0.0000
vn 0.0001 0.9111 0.4122
vn -0.0000 0.6998 0.7143
vn 0.0002 1.0000 -0.0000
vn -0.0000 0.3876 0.9218
vn -0.5582 0.4615 0.6895
vn -0.7561 0.5641 0.3317
vn -0.0355 -0.0000 0.9994
vn -0.8364 0.5481 -0.0000
vn -0.2323 0.1778 0.9563
vn -0.0000 0.0390 0.9992
vn -0.4836 0.5691 0.6650
vn -0.6155 0.7882 -0.0000
vn -0.5986 0.7340 0.3209
vn -0.0530 -0.0000 0.9986
vn -0.1803 0.2387 0.9542
vn 0.6005 -0.7521 0.2714
vn 0.4629 -0.7500 0.4724
vn 0.8871 0.2356 0.3970
vn 0.6607 0.2037 0.7225
vn 0.6738 -0.6680 0.3159
vn 0.5194 -0.6705 0.5297
vn 0.6458 -0.7635 -0.0000
vn 0.9790 0.2037 -0.0000
vn 0.7559 -0.6547 -0.0000
vn 0.2548 -0.7536 0.6059
vn 0.3345 0.0862 0.9384
vn 0.2966 -0.6661 0.6844
vn 0.6738 0.6680 0.3159
vn 0.5194 0.6705 0.5297
vn 0.7559 0.6547 -0.0000
vn 0.2966 0.6661 0.6844
vn 0.9054 -0.0000 0.4245
vn 0.3977 -0.0000 0.9175
vn 0.7001 -0.0000 0.7140
vn 0.9111 -0.0001 0.4122
vn 0.6998 -0.0000 0.7143
vn 1.0000 -0.0002 -0.0000
vn 0.3876 -0.0000 0.9218
vn -0.7521 0.6005 0.2714
vn -0.7500 0.4629 0.4724
vn -0.7553 -0.0000 0.6554
vn 0.2810 0.8755 0.3931
vn 0.2148 0.6504 0.7286
vn 0.0345 -0.0000 0.9994
vn -0.7635 0.6458 -0.0000
vn 0.2590 0.9659 -0.0000
vn -0.7536 0.2548 0.6059
vn 0.0882 0.3378 0.9371
vn -0.0001 0.9111 0.4122
vn -0.0002 1.0000 -0.0000
vn 0.5582 0.4615 0.6895
vn 0.7561 0.5641 0.3317
vn 0.0355 -0.0000 0.9994
vn 0.8364 0.5481 -0.0000
vn 0.2323 0.1778 0.9563
vn 0.4836 0.5691 0.6650
vn 0.6155 0.7882 -0.0000
vn 0.5986 0.7340 0.3209
vn 0.0530 -0.0000 0.9986
vn 0.1803 0.2387 0.9542
vn -0.0000 -0.7553 -0.6554
vn -0.0000 0.0309 -0.9995
vn -0.0000 -0.6622 -0.7493
vn -0.0000 0.6622 -0.7493
vn -0.6005 -0.7521 -0.2714
vn -0.4629 -0.7500 -0.4724
vn -0.8871 0.2356 -0.3970
vn -0.6607 0.2037 -0.7225
vn -0.6738 -0.6680 -0.3159
vn -0.5194 -0.6705 -0.5297
vn -0.2548 -0.7536 -0.6059
vn -0.3345 0.0862 -0.9384
vn -0.2966 -0.6661 -0.6844
vn -0.6738 0.6680 -0.3159
vn -0.5194 0.6705 -0.5297
vn -0.2966 0.6661 -0.6844
vn -0.0000 -0.0000 -1.0000
vn -0.9054 -0.0000 -0.4245
vn -0.3977 -0.0000 -0.9175
vn -0.7001 -0.0000 -0.7140
vn -0.9111 -0.0001 -0.4122
vn -0.6998 -0.0000 -0.7143
vn -0.3876 -0.0000 -0.9218
vn 0.7521 0.6005 -0.2714
vn 0.7500 0.4629 -0.4724
vn 0.7553 -0.0000 -0.6554
vn -0.2810 0.8755 -0.3931
vn -0.2148 0.6504 -0.7286
vn -0.0345 -0.0000 -0.9994
vn 0.6680 0.6738 -0.3159
vn 0.6705 0.5194 -0.5297
vn 0.6622 -0.0000 -0.7493
vn 0.7536 0.2548 -0.6059
vn -0.0882 0.3378 -0.9371
vn 0.6661 0.2966 -0.6844
vn -0.6680 0.6738 -0.3159
vn -0.6705 0.5194 -0.5297
vn -0.6622 -0.0000 -0.7493
vn -0.6661 0.2966 -0.6844
vn -0.0000 0.9054 -0.4245
vn -0.0000 0.3977 -0.9175
vn -0.0000 0.7001 -0.7140
vn 0.0001 0.9111 -0.4122
vn -0.0000 0.6998 -0.7143
vn -0.0000 0.3876 -0.9218
vn -0.5582 0.4615 -0.6895
vn -0.7561 0.5641 -0.3317
vn -0.0355 -0.0000 -0.9994
vn -0.2323 0.1778 -0.9563
vn -0.0000 0.0390 -0.9992
vn -0.4836 0.5691 -0.6650
vn -0.5986 0.7340 -0.3209
vn -0.0530 -0.0000 -0.9986
vn -0.1803 0.2387 -0.9542
vn 0.6005 -0.7521 -0.2714
vn 0.4629 -0.7500 -0.4724
vn 0.8871 0.2356 -0.3970
vn 0.6607 0.2037 -0.7225
vn 0.6738 -0.6680 -0.3159
vn 0.5194 -0.6705 -0.5297
vn 0.2548 -0.7536 -0.6059
vn 0.3345 0.0862 -0.9384
vn 0.2966 -0.6661 -0.6844
vn 0.6738 0.6680 -0.3159
vn 0.5194 0.6705 -0.5297
vn 0.2966 0.6661 -0.6844
vn 0.9054 -0.0000 -0.4245
vn 0.3977 -0.0000 -0.9175
vn 0.7001 -0.0000 -0.7140
vn 0.9111 -0.0001 -0.4122
vn 0.6998 -0.0000 -0.7143
vn 0.3876 -0.0000 -0.9218
vn -0.7521 0.6005 -0.2714
vn -0.7500 0.4629 -0.4724
vn -0.7553 -0.0000 -0.6554
vn 0.2810 0.8755 -0.3931
vn 0.2148 0.6504 -0.7286
vn 0.0345 -0.0000 -0.9994
vn -0.7536 0.2548 -0.6059
vn 0.0882 0.3378 -0.9371
vn -0.0001 0.9111 -0.4122
vn 0.5582 0.4615 -0.6895
vn 0.7561 0.5641 -0.3317
vn 0.0355 -0.0000 -0.9994
vn 0.2323 0.1778 -0.9563
vn 0.4836 0.5691 -0.6650
vn 0.5986 0.7340 -0.3209
vn 0.0530 -0.0000 -0.9986
vn 0.1803 0.2387 -0.9542
vn -0.0000 0.7553 0.6554
vn -0.0000 -0.0309 0.9995
vn -0.6005 0.7521 0.2714
vn -0.4629 0.7500 0.4724
vn -0.8871 -0.2356 0.3970
vn -0.6607 -0.2037 0.7225
vn -0.6458 0.7635 -0.0000
vn -0.9790 -0.2037 -0.0000
vn -0.2548 0.7536 0.6059
vn -0.3345 -0.0862 0.9384
vn -0.9111 0.0001 0.4122
vn -1.0000 0.0002 -0.0000
vn 0.7521 -0.6005 0.2714
vn 0.7500 -0.4629 0.4724
vn -0.2810 -0.8755 0.3931
vn -0.2148 -0.6504 0.7286
vn 0.6680 -0.6738 0.3159
vn 0.6705 -0.5194 0.5297
vn 0.7635 -0.6458 -0.0000
vn -0.2590 -0.9659 -0.0000
vn 0.6547 -0.7559 -0.0000
vn 0.7536 -0.2548 0.6059
vn -0.0882 -0.3378 0.9371
vn 0.6661 -0.2966 0.6844
vn -0.6680 -0.6738 0.3159
vn -0.6705 -0.5194 0.5297
vn -0.6547 -0.7559 -0.0000
vn -0.6661 -0.2966 0.6844
vn -0.0000 -0.9054 0.4245
vn -0.0000 -0.3977 0.9175
vn -0.0000 -0.7001 0.7140
vn 0.0001 -0.9111 0.4122
vn -0.0000 -0.6998 0.7143
vn 0.0002 -1.0000 -0.0000
vn -0.0000 -0.3876 0.9218
vn -0.5582 -0.4615 0.6895
vn -0.7561 -0.5641 0.3317
vn -0.8364 -0.5481 -0.0000
vn -0.2323 -0.1778 0.9563
vn -0.0000 -0.0390 0.9992
vn -0.4836 -0.5691 0.6650
vn -0.6155 -0.7882 -0.0000
vn -0.5986 -0.7340 0.3209
vn -0.1803 -0.2387 0.9542
vn 0.6005 0.7521 0.2714
vn 0.4629 0.7500 0.4724
vn 0.8871 -0.2356 0.3970
vn 0.6607 -0.2037 0.7225
vn 0.6458 0.7635 -0.0000
vn 0.9790 -0.2037 -0.0000
vn 0.2548 0.7536 0.6059
vn 0.3345 -0.0862 0.9384
vn 0.9111 0.0001 0.4122
vn 1.0000 0.0002 -0.0000
vn -0.7521 -0.6005 0.2714
vn -0.7500 -0.4629 0.4724
vn 0.2810 -0.8755 0.3931
vn 0.2148 -0.6504 0.7286
vn -0.7635 -0.6458 -0.0000
vn 0.2590 -0.9659 -0.0000
vn -0.7536 -0.2548 0.6059
vn 0.0882 -0.3378 0.9371
vn -0.0001 -0.9111 0.4122
vn -0.0002 -1.0000 -0.0000
vn 0.5582 -0.4615 0.6895
vn 0.7561 -0.5641 0.3317
vn 0.8364 -0.5481 -0.0000
vn 0.2323 -0.1778 0.9563
vn 0.4836 -0.5691 0.6650
vn 0.6155 -0.7882 -0.0000
vn 0.5986 -0.7340 0.3209
vn 0.1803 -0.2387 0.9542
vn -0.0000 0.7553 -0.6554
vn -0.0000 -0.0309 -0.9995
vn -0.6005 0.7521 -0.2714
vn -0.4629 0.7500 -0.4724
vn -0.8871 -0.2356 -0.3970
vn -0.6607 -0.2037 -0.7225
vn -0.2548 0.7536 -0.6059
vn -0.3345 -0.0862 -0.9384
vn -0.9111 0.0001 -0.4122
vn 0.7521 -0.6005 -0.2714
vn 0.7500 -0.4629 -0.4724
vn -0.2810 -0.8755 -0.3931
vn -0.2148 -0.6504 -0.7286
vn 0.6680 -0.6738 -0.3159
vn 0.6705 -0.5194 -0.5297
vn 0.7536 -0.2548 -0.6059
vn -0.0882 -0.3378 -0.9371
vn 0.6661 -0.2966 -0.6844
vn -0.6680 -0.6738 -0.3159
vn -0.6705 -0.5194 -0.5297
vn -0.6661 -0.2966 -0.6844
vn -0.0000 -0.9054 -0.4245
vn -0.0000 -0.3977 -0.9175
vn -0.0000 -0.7001 -0.7140
vn 0.0001 -0.9111 -0.4122
vn -0.0000 -0.6998 -0.7143
vn -0.0000 -0.3876 -0.9218
vn -0.5582 -0.4615 -0.6895
vn -0.7561 -0.5641 -0.3317
vn -0.2323 -0.1778 -0.9563
vn -0.0000 -0.0390 -0.9992
vn -0.4836 -0.5691 -0.6650
vn -0.5986 -0.7340 -0.3209
vn -0.1803 -0.2387 -0.9542
vn 0.6005 0.7521 -0.2714
vn 0.4629 0.7500 -0.4724
vn 0.8871 -0.2356 -0.3970
vn 0.6607 -0.2037 -0.7225
vn 0.2548 0.7536 -0.6059
vn 0.3345 -0.0862 -0.9384
vn 0.9111 0.0001 -0.4122
vn -0.7521 -0.6005 -0.2714
vn -0.7500 -0.4629 -0.4724
vn 0.2810 -0.8755 -0.3931
vn 0.2148 -0.6504 -0.7286
vn -0.7536 -0.2548 -0.6059
vn 0.0882 -0.3378 -0.9371
vn -0.0001 -0.9111 -0.4122
vn 0.5582 -0.4615 -0.6895
vn 0.7561 -0.5641 -0.3317
vn 0.2323 -0.1778 -0.9563
vn 0.4836 -0.5691 -0.6650
vn 0.5986 -0.7340 -0.3209
vn 0.1803 -0.2387 -0.9542
vt 0.414163 0.145000
vt 0.414163 0.119467
vt 0.415869 0.119467
vt 0.415869 0.145000
vt 0.414163 0.092292
vt 0.415869 0.092292
vt 0.414163 0.068591
vt 0.414163 0.045277
vt 0.415869 0.045277
vt 0.415869 0.068591
vt 0.419097 0.092292
vt 0.440278 0.092292
vt 0.440278 0.119467
vt 0.419097 0.119467
vt 0.419097 0.068591
vt 0.440278 0.068591
vt 0.440278 0.145000
vt 0.419097 0.145000
vt 0.419097 0.045277
vt 0.440278 0.045277
vt 0.479155 0.119467
vt 0.480911 0.119467
vt 0.480911 0.145000
vt 0.479155 0.145000
vt 0.479155 0.045277
vt 0.480911 0.045277
vt 0.480911 0.068591
vt 0.479155 0.068591
vt 0.479155 0.092292
vt 0.480911 0.092292
vt 0.505312 0.145000
vt 0.505312 0.119467
vt 0.505312 0.092292
vt 0.505312 0.068591
vt 0.505312 0.045277
vt 0.522932 0.068591
vt 0.522932 0.092292
vt 0.522932 0.119467
vt 0.522932 0.045277
vt 0.522932 0.145000
vt 0.442694 0.068591
vt 0.442694 0.092292
vt 0.442694 0.119467
vt 0.442694 0.045277
vt 0.442694 0.145000
vt 0.330117 0.092292
vt 0.330117 0.068591
vt 0.330117 0.045277
vt 0.330117 0.119467
vt 0.330117 0.145000
vt 0.152005 0.606819
vt 0.149644 0.606819
vt 0.149644 0.582203
vt 0.152005 0.582203
vt 0.149644 0.556003
vt 0.152005 0.556003
vt 0.152005 0.533151
vt 0.149644 0.533151
vt 0.149644 0.508722
vt 0.152005 0.508722
vt 0.145173 0.556003
vt 0.145173 0.582203
vt 0.115849 0.582203
vt 0.115849 0.556003
vt 0.145173 0.533151
vt 0.115849 0.533151
vt 0.145173 0.606819
vt 0.115849 0.606819
vt 0.145173 0.508722
vt 0.115849 0.508722
vt 0.062022 0.582203
vt 0.062022 0.606819
vt 0.059591 0.606819
vt 0.059591 0.582203
vt 0.062022 0.508722
vt 0.062022 0.533151
vt 0.059591 0.533151
vt 0.059591 0.508722
vt 0.062022 0.556003
vt 0.059591 0.556003
vt 0.025807 0.606819
vt 0.025807 0.582203
vt 0.025807 0.556003
vt 0.025807 0.533151
vt 0.025807 0.508722
vt 0.001412 0.533151
vt 0.001412 0.508722
vt 0.001412 0.606819
vt 0.001412 0.582203
vt 0.001412 0.556002
vt 0.112503 0.533151
vt 0.112503 0.556003
vt 0.112503 0.582203
vt 0.112503 0.508722
vt 0.112503 0.606819
vt 0.269306 0.556002
vt 0.269306 0.533151
vt 0.269306 0.508722
vt 0.269306 0.582203
vt 0.269306 0.606819
vt 0.553656 0.885880
vt 0.577094 0.883915
vt 0.587031 0.907636
vt 0.556338 0.917881
vt 0.601477 0.879086
vt 0.626564 0.867811
vt 0.631464 0.873242
vt 0.610537 0.891757
vt 0.648112 0.850913
vt 0.651323 0.853945
vt 0.637242 0.878611
vt 0.654905 0.857326
vt 0.658767 0.860972
vt 0.643669 0.883736
vt 0.622808 0.900774
vt 0.635000 0.909763
vt 0.611292 0.958597
vt 0.610141 0.928024
vt 0.633074 0.934491
vt 0.633777 0.957922
vt 0.588916 0.959672
vt 0.558991 0.961492
vt 0.414163 0.344445
vt 0.415869 0.344445
vt 0.415869 0.369977
vt 0.414163 0.369977
vt 0.415869 0.397152
vt 0.414163 0.397152
vt 0.414163 0.420854
vt 0.415869 0.420854
vt 0.415869 0.444168
vt 0.414163 0.444168
vt 0.419097 0.397152
vt 0.419097 0.369977
vt 0.440278 0.369977
vt 0.440278 0.397152
vt 0.419097 0.420854
vt 0.440278 0.420854
vt 0.419097 0.344445
vt 0.440278 0.344445
vt 0.419097 0.444168
vt 0.440278 0.444168
vt 0.479155 0.369977
vt 0.479155 0.344445
vt 0.480911 0.344445
vt 0.480911 0.369977
vt 0.479155 0.444168
vt 0.479155 0.420854
vt 0.480911 0.420854
vt 0.480911 0.444168
vt 0.479155 0.397152
vt 0.480911 0.397152
vt 0.505312 0.344445
vt 0.505312 0.369977
vt 0.505312 0.397152
vt 0.505312 0.420854
vt 0.505312 0.444168
vt 0.522932 0.397152
vt 0.522932 0.420853
vt 0.522932 0.369977
vt 0.522932 0.444168
vt 0.522932 0.344445
vt 0.442694 0.420854
vt 0.442694 0.397152
vt 0.442694 0.369977
vt 0.442694 0.444168
vt 0.442694 0.344445
vt 0.330117 0.397152
vt 0.330117 0.420853
vt 0.330117 0.444168
vt 0.330117 0.369977
vt 0.330117 0.344445
vt 0.129815 0.206803
vt 0.129815 0.182190
vt 0.132177 0.182190
vt 0.132177 0.206803
vt 0.129815 0.155994
vt 0.132177 0.155994
vt 0.129815 0.133146
vt 0.129815 0.108720
vt 0.132177 0.108720
vt 0.132177 0.133146
vt 0.136647 0.155994
vt 0.165977 0.155994
vt 0.165977 0.182190
vt 0.136647 0.182190
vt 0.136647 0.133146
vt 0.165977 0.133146
vt 0.165977 0.206803
vt 0.136647 0.206803
vt 0.136647 0.108720
vt 0.165977 0.108720
vt 0.219811 0.182190
vt 0.222243 0.182190
vt 0.222243 0.206803
vt 0.219811 0.206803
vt 0.219811 0.108720
vt 0.222243 0.108720
vt 0.222243 0.133146
vt 0.219811 0.133146
vt 0.219811 0.155994
vt 0.222243 0.155994
vt 0.256032 0.206803
vt 0.256032 0.182190
vt 0.256032 0.155994
vt 0.256032 0.133146
vt 0.256032 0.108720
vt 0.280430 0.108720
vt 0.280430 0.133146
vt 0.280430 0.182190
vt 0.280430 0.206803
vt 0.280430 0.155994
vt 0.169323 0.133146
vt 0.169323 0.155994
vt 0.169323 0.182190
vt 0.169323 0.108720
vt 0.169323 0.206803
vt 0.012496 0.155994
vt 0.012496 0.133146
vt 0.012496 0.108720
vt 0.012496 0.182190
vt 0.012496 0.206803
vt 0.553656 0.623423
vt 0.556339 0.591421
vt 0.587031 0.601666
vt 0.577094 0.625387
vt 0.601477 0.630217
vt 0.610537 0.617545
vt 0.631464 0.636061
vt 0.626564 0.641492
vt 0.651323 0.655358
vt 0.648112 0.658389
vt 0.637242 0.630691
vt 0.643669 0.625566
vt 0.658767 0.648330
vt 0.654905 0.651976
vt 0.622808 0.608528
vt 0.635000 0.599540
vt 0.611292 0.550705
vt 0.633777 0.551380
vt 0.633074 0.574811
vt 0.610141 0.581278
vt 0.558991 0.547811
vt 0.588916 0.549631
vt 0.415869 0.170532
vt 0.414163 0.170532
vt 0.415869 0.197707
vt 0.414163 0.197707
vt 0.414163 0.221408
vt 0.415869 0.221408
vt 0.415869 0.244722
vt 0.414163 0.244722
vt 0.419097 0.197707
vt 0.419097 0.170532
vt 0.440278 0.170532
vt 0.440278 0.197707
vt 0.419097 0.221408
vt 0.440278 0.221408
vt 0.419097 0.244722
vt 0.440278 0.244722
vt 0.479155 0.170532
vt 0.480911 0.170532
vt 0.479155 0.244722
vt 0.479155 0.221408
vt 0.480911 0.221408
vt 0.480911 0.244722
vt 0.479155 0.197707
vt 0.480911 0.197707
vt 0.505312 0.170532
vt 0.505312 0.197707
vt 0.505312 0.221408
vt 0.505312 0.244722
vt 0.522932 0.197707
vt 0.522932 0.221408
vt 0.522932 0.170532
vt 0.522932 0.244722
vt 0.442694 0.221408
vt 0.442694 0.197707
vt 0.442694 0.170532
vt 0.442694 0.244722
vt 0.330117 0.197707
vt 0.330117 0.221408
vt 0.330117 0.244722
vt 0.330117 0.170532
vt 0.152005 0.631436
vt 0.149644 0.631436
vt 0.152005 0.657637
vt 0.149644 0.657637
vt 0.152005 0.680488
vt 0.152005 0.704917
vt 0.149644 0.704917
vt 0.149644 0.680488
vt 0.145173 0.657637
vt 0.115849 0.657637
vt 0.115849 0.631436
vt 0.145173 0.631436
vt 0.145173 0.680488
vt 0.115849 0.680488
vt 0.145173 0.704917
vt 0.115849 0.704917
vt 0.062022 0.631436
vt 0.059591 0.631436
vt 0.062022 0.704917
vt 0.059591 0.704917
vt 0.059591 0.680488
vt 0.062022 0.680488
vt 0.062022 0.657637
vt 0.059591 0.657637
vt 0.025807 0.631436
vt 0.025807 0.657637
vt 0.025807 0.680488
vt 0.025807 0.704917
vt 0.001412 0.704917
vt 0.001412 0.680488
vt 0.001412 0.631436
vt 0.001412 0.657637
vt 0.112503 0.680488
vt 0.112503 0.657637
vt 0.112503 0.631436
vt 0.112503 0.704917
vt 0.269306 0.657637
vt 0.269306 0.680488
vt 0.269306 0.704917
vt 0.269306 0.631436
vt 0.676919 0.754651
vt 0.709428 0.754651
vt 0.701199 0.786476
vt 0.676777 0.778155
vt 0.673529 0.802742
vt 0.686729 0.811022
vt 0.669447 0.833008
vt 0.663742 0.828429
vt 0.675140 0.838468
vt 0.680625 0.844591
vt 0.696449 0.822781
vt 0.706108 0.834457
vt 0.754121 0.808257
vt 0.754121 0.831040
vt 0.730670 0.831239
vt 0.723067 0.808570
vt 0.754121 0.754651
vt 0.754121 0.785316
vt 0.414163 0.318913
vt 0.415869 0.318913
vt 0.414163 0.291738
vt 0.415869 0.291738
vt 0.414163 0.268036
vt 0.415869 0.268036
vt 0.419097 0.291738
vt 0.440278 0.291738
vt 0.440278 0.318913
vt 0.419097 0.318913
vt 0.419097 0.268036
vt 0.440278 0.268036
vt 0.479155 0.318913
vt 0.480911 0.318913
vt 0.480911 0.268036
vt 0.479155 0.268036
vt 0.479155 0.291738
vt 0.480911 0.291738
vt 0.505312 0.318913
vt 0.505312 0.291738
vt 0.505312 0.268036
vt 0.522932 0.268036
vt 0.522932 0.291738
vt 0.522932 0.318913
vt 0.442694 0.268036
vt 0.442694 0.291738
vt 0.442694 0.318913
vt 0.330117 0.291738
vt 0.330117 0.268036
vt 0.330117 0.318913
vt 0.132177 0.231416
vt 0.129815 0.231416
vt 0.132177 0.257613
vt 0.129815 0.257613
vt 0.129815 0.280460
vt 0.132177 0.280460
vt 0.132177 0.304886
vt 0.129815 0.304886
vt 0.136647 0.257613
vt 0.136647 0.231416
vt 0.165977 0.231416
vt 0.165977 0.257613
vt 0.136647 0.280460
vt 0.165977 0.280460
vt 0.136647 0.304886
vt 0.165977 0.304886
vt 0.219811 0.231416
vt 0.222243 0.231416
vt 0.219811 0.304886
vt 0.219811 0.280460
vt 0.222243 0.280460
vt 0.222243 0.304886
vt 0.219811 0.257613
vt 0.222243 0.257613
vt 0.256032 0.231416
vt 0.256032 0.257613
vt 0.256032 0.280460
vt 0.256032 0.304886
vt 0.280430 0.280460
vt 0.280430 0.304886
vt 0.280430 0.231416
vt 0.280430 0.257613
vt 0.169323 0.280460
vt 0.169323 0.257613
vt 0.169323 0.231416
vt 0.169323 0.304886
vt 0.012496 0.257613
vt 0.012496 0.280460
vt 0.012496 0.304886
vt 0.012496 0.231416
vt 0.676777 0.731147
vt 0.701199 0.722827
vt 0.673529 0.706561
vt 0.663742 0.680873
vt 0.669447 0.676295
vt 0.686729 0.698280
vt 0.675140 0.670834
vt 0.680625 0.664712
vt 0.696449 0.686521
vt 0.706108 0.674845
vt 0.754121 0.701046
vt 0.723067 0.700733
vt 0.730670 0.678063
vt 0.754121 0.678263
vt 0.754121 0.723986
vt 0.431539 0.595557
vt 0.429812 0.595557
vt 0.429812 0.569913
vt 0.431539 0.569913
vt 0.429812 0.542619
vt 0.431539 0.542619
vt 0.431539 0.518814
vt 0.429812 0.518814
vt 0.429812 0.495398
vt 0.431539 0.495398
vt 0.426542 0.542619
vt 0.426542 0.569913
vt 0.405092 0.569913
vt 0.405092 0.542619
vt 0.426542 0.518814
vt 0.405092 0.518814
vt 0.426542 0.595557
vt 0.405092 0.595557
vt 0.426542 0.495398
vt 0.405092 0.495398
vt 0.365721 0.569913
vt 0.365721 0.595557
vt 0.363943 0.595557
vt 0.363943 0.569913
vt 0.365721 0.495398
vt 0.365721 0.518814
vt 0.363943 0.518814
vt 0.363943 0.495398
vt 0.365721 0.542619
vt 0.363943 0.542619
vt 0.339231 0.595557
vt 0.339231 0.569913
vt 0.339231 0.542619
vt 0.339231 0.518814
vt 0.339231 0.495398
vt 0.321387 0.542619
vt 0.321387 0.518814
vt 0.321387 0.569913
vt 0.321387 0.495398
vt 0.321387 0.595557
vt 0.402645 0.518814
vt 0.402645 0.542619
vt 0.402645 0.569913
vt 0.402645 0.495398
vt 0.402645 0.595557
vt 0.516653 0.542619
vt 0.516653 0.518814
vt 0.516653 0.495398
vt 0.516653 0.569913
vt 0.516653 0.595557
vt 0.152005 0.803015
vt 0.152005 0.827631
vt 0.149644 0.827631
vt 0.149644 0.803015
vt 0.152005 0.853832
vt 0.149644 0.853832
vt 0.152005 0.876683
vt 0.152005 0.901112
vt 0.149644 0.901112
vt 0.149644 0.876683
vt 0.145173 0.853832
vt 0.115849 0.853832
vt 0.115849 0.827631
vt 0.145173 0.827631
vt 0.145173 0.876683
vt 0.115849 0.876683
vt 0.115849 0.803015
vt 0.145173 0.803015
vt 0.145173 0.901112
vt 0.115849 0.901112
vt 0.062022 0.827631
vt 0.059591 0.827631
vt 0.059591 0.803015
vt 0.062022 0.803015
vt 0.062022 0.901112
vt 0.059591 0.901112
vt 0.059591 0.876683
vt 0.062022 0.876683
vt 0.062022 0.853832
vt 0.059591 0.853832
vt 0.025807 0.803015
vt 0.025807 0.827631
vt 0.025807 0.853832
vt 0.025807 0.876683
vt 0.025807 0.901112
vt 0.001412 0.901112
vt 0.001412 0.876683
vt 0.001412 0.827631
vt 0.001412 0.803015
vt 0.001412 0.853832
vt 0.112503 0.876683
vt 0.112503 0.853832
vt 0.112503 0.827631
vt 0.112503 0.901112
vt 0.112503 0.803015
vt 0.269306 0.853832
vt 0.269306 0.876683
vt 0.269306 0.901112
vt 0.269306 0.827631
vt 0.269306 0.803015
vt 0.954585 0.885880
vt 0.951903 0.917882
vt 0.921210 0.907636
vt 0.931147 0.883916
vt 0.906765 0.879086
vt 0.897705 0.891758
vt 0.876777 0.873242
vt 0.881678 0.867811
vt 0.856918 0.853945
vt 0.860130 0.850914
vt 0.871000 0.878611
vt 0.864573 0.883737
vt 0.849475 0.860972
vt 0.853337 0.857327
vt 0.885434 0.900775
vt 0.873242 0.909763
vt 0.896950 0.958597
vt 0.874465 0.957923
vt 0.875168 0.934491
vt 0.898100 0.928025
vt 0.949251 0.961492
vt 0.919326 0.959672
vt 0.431539 0.795875
vt 0.431539 0.821519
vt 0.429812 0.821519
vt 0.429812 0.795875
vt 0.431539 0.848813
vt 0.429812 0.848813
vt 0.431539 0.872618
vt 0.431539 0.896034
vt 0.429812 0.896034
vt 0.429812 0.872618
vt 0.426542 0.848813
vt 0.405092 0.848813
vt 0.405092 0.821519
vt 0.426542 0.821519
vt 0.426542 0.872618
vt 0.405092 0.872618
vt 0.405092 0.795875
vt 0.426542 0.795875
vt 0.426542 0.896034
vt 0.405092 0.896034
vt 0.365721 0.821519
vt 0.363943 0.821519
vt 0.363943 0.795875
vt 0.365721 0.795875
vt 0.365721 0.896034
vt 0.363943 0.896034
vt 0.363943 0.872618
vt 0.365721 0.872618
vt 0.365721 0.848813
vt 0.363943 0.848813
vt 0.339231 0.795875
vt 0.339231 0.821519
vt 0.339231 0.848813
vt 0.339231 0.872618
vt 0.339231 0.896034
vt 0.321387 0.872618
vt 0.321387 0.848813
vt 0.321387 0.821519
vt 0.321387 0.896034
vt 0.321387 0.795875
vt 0.402645 0.872618
vt 0.402645 0.848813
vt 0.402645 0.821519
vt 0.402645 0.896034
vt 0.402645 0.795875
vt 0.516653 0.848813
vt 0.516653 0.872618
vt 0.516653 0.896034
vt 0.516653 0.821519
vt 0.516653 0.795875
vt 0.129815 0.402969
vt 0.132177 0.402969
vt 0.132177 0.427582
vt 0.129815 0.427582
vt 0.132177 0.453779
vt 0.129815 0.453779
vt 0.129815 0.476626
vt 0.132177 0.476626
vt 0.132177 0.501052
vt 0.129815 0.501052
vt 0.136647 0.453779
vt 0.136647 0.427582
vt 0.165977 0.427582
vt 0.165977 0.453779
vt 0.136647 0.476626
vt 0.165977 0.476626
vt 0.136647 0.402969
vt 0.165977 0.402969
vt 0.136647 0.501052
vt 0.165977 0.501052
vt 0.219811 0.427582
vt 0.219811 0.402969
vt 0.222243 0.402969
vt 0.222243 0.427582
vt 0.219811 0.501052
vt 0.219811 0.476626
vt 0.222243 0.476626
vt 0.222243 0.501052
vt 0.219811 0.453779
vt 0.222243 0.453779
vt 0.256032 0.402969
vt 0.256032 0.427582
vt 0.256032 0.453779
vt 0.256032 0.476626
vt 0.256032 0.501052
vt 0.280430 0.476626
vt 0.280430 0.501052
vt 0.280430 0.402969
vt 0.280430 0.427582
vt 0.280430 0.453779
vt 0.169323 0.476626
vt 0.169323 0.453779
vt 0.169323 0.427582
vt 0.169323 0.501052
vt 0.169323 0.402969
vt 0.012496 0.453779
vt 0.012496 0.476626
vt 0.012496 0.501052
vt 0.012496 0.427582
vt 0.012496 0.402969
vt 0.954588 0.623423
vt 0.931149 0.625387
vt 0.921212 0.601666
vt 0.951906 0.591420
vt 0.906766 0.630216
vt 0.881678 0.641492
vt 0.876778 0.636061
vt 0.897706 0.617544
vt 0.860130 0.658389
vt 0.856919 0.655358
vt 0.871001 0.630691
vt 0.853337 0.651976
vt 0.849475 0.648330
vt 0.864574 0.625566
vt 0.885435 0.608527
vt 0.873243 0.599539
vt 0.896951 0.550704
vt 0.898102 0.581277
vt 0.875169 0.574810
vt 0.874466 0.551378
vt 0.919328 0.549629
vt 0.949253 0.547809
vt 0.431539 0.621201
vt 0.429812 0.621201
vt 0.431539 0.648495
vt 0.429812 0.648495
vt 0.431539 0.672300
vt 0.431539 0.695716
vt 0.429812 0.695716
vt 0.429812 0.672300
vt 0.426542 0.648495
vt 0.405092 0.648495
vt 0.405092 0.621201
vt 0.426542 0.621201
vt 0.426542 0.672300
vt 0.405092 0.672300
vt 0.426542 0.695716
vt 0.405092 0.695716
vt 0.365721 0.621201
vt 0.363943 0.621201
vt 0.365721 0.695716
vt 0.363943 0.695716
vt 0.363943 0.672300
vt 0.365721 0.672300
vt 0.365721 0.648495
vt 0.363943 0.648495
vt 0.339231 0.621201
vt 0.339231 0.648495
vt 0.339231 0.672300
vt 0.339231 0.695716
vt 0.321387 0.672300
vt 0.321387 0.648495
vt 0.321387 0.621201
vt 0.321387 0.695716
vt 0.402645 0.672300
vt 0.402645 0.648495
vt 0.402645 0.621201
vt 0.402645 0.695716
vt 0.516653 0.648495
vt 0.516653 0.672300
vt 0.516653 0.695716
vt 0.516653 0.621201
vt 0.149644 0.778398
vt 0.152005 0.778398
vt 0.149644 0.752198
vt 0.152005 0.752198
vt 0.152005 0.729347
vt 0.149644 0.729347
vt 0.145173 0.752198
vt 0.145173 0.778398
vt 0.115849 0.778398
vt 0.115849 0.752198
vt 0.145173 0.729347
vt 0.115849 0.729347
vt 0.062022 0.778398
vt 0.059591 0.778398
vt 0.062022 0.729347
vt 0.059591 0.729347
vt 0.062022 0.752198
vt 0.059591 0.752198
vt 0.025807 0.778398
vt 0.025807 0.752198
vt 0.025807 0.729347
vt 0.001412 0.729347
vt 0.001412 0.778398
vt 0.001412 0.752198
vt 0.112503 0.729347
vt 0.112503 0.752198
vt 0.112503 0.778398
vt 0.269306 0.752198
vt 0.269306 0.729347
vt 0.269306 0.778398
vt 0.831323 0.754651
vt 0.831465 0.778155
vt 0.807043 0.786476
vt 0.798814 0.754651
vt 0.834713 0.802742
vt 0.844500 0.828429
vt 0.838795 0.833008
vt 0.821512 0.811022
vt 0.833102 0.838468
vt 0.827617 0.844591
vt 0.811792 0.822782
vt 0.802134 0.834457
vt 0.785175 0.808570
vt 0.777572 0.831239
vt 0.429812 0.770231
vt 0.431539 0.770231
vt 0.429812 0.742937
vt 0.431539 0.742937
vt 0.431539 0.719132
vt 0.429812 0.719132
vt 0.426542 0.742937
vt 0.426542 0.770231
vt 0.405092 0.770231
vt 0.405092 0.742937
vt 0.426542 0.719132
vt 0.405092 0.719132
vt 0.365721 0.770231
vt 0.363943 0.770231
vt 0.365721 0.719132
vt 0.363943 0.719132
vt 0.365721 0.742937
vt 0.363943 0.742937
vt 0.339231 0.770231
vt 0.339231 0.742937
vt 0.339231 0.719132
vt 0.321387 0.742937
vt 0.321387 0.719132
vt 0.321387 0.770231
vt 0.402645 0.719132
vt 0.402645 0.742937
vt 0.402645 0.770231
vt 0.516653 0.742937
vt 0.516653 0.719132
vt 0.516653 0.770231
vt 0.129815 0.378356
vt 0.132177 0.378356
vt 0.129815 0.352160
vt 0.132177 0.352160
vt 0.129815 0.329312
vt 0.132177 0.329312
vt 0.136647 0.352160
vt 0.165977 0.352160
vt 0.165977 0.378356
vt 0.136647 0.378356
vt 0.136647 0.329312
vt 0.165977 0.329312
vt 0.219811 0.378356
vt 0.222243 0.378356
vt 0.222243 0.329312
vt 0.219811 0.329312
vt 0.219811 0.352160
vt 0.222243 0.352160
vt 0.256032 0.378356
vt 0.256032 0.352160
vt 0.256032 0.329312
vt 0.280430 0.329312
vt 0.280430 0.378356
vt 0.280430 0.352160
vt 0.169323 0.329312
vt 0.169323 0.352160
vt 0.169323 0.378356
vt 0.012496 0.352160
vt 0.012496 0.329312
vt 0.012496 0.378356
vt 0.807043 0.722827
vt 0.831465 0.731148
vt 0.834713 0.706561
vt 0.821513 0.698280
vt 0.838795 0.676295
vt 0.844500 0.680873
vt 0.833102 0.670834
vt 0.827617 0.664712
vt 0.811793 0.686521
vt 0.802134 0.674845
vt 0.777572 0.678063
vt 0.785175 0.700733
s 1
usemtl pipe_quatro
f 49/1/30 47/2/28 6/3/6 12/4/12
f 47/2/28 48/5/29 7/6/7 6/3/6
f 50/7/31 46/8/22 1/9/1 15/10/15
f 42/11/27 11/12/11 10/13/10 43/14/27
f 45/15/27 17/16/17 11/12/11 42/11/27
f 43/14/27 10/13/10 14/17/14 44/18/27
f 41/19/27 3/20/3 17/16/17 45/15/27
f 48/5/29 50/7/31 15/10/15 7/6/7
f 32/21/23 20/22/18 23/23/20 33/24/24
f 31/25/22 5/26/5 25/27/21 34/28/25
f 35/29/26 21/30/19 20/22/18 32/21/23
f 22/31/4 23/23/20 20/22/18 18/32/4
f 18/32/4 20/22/18 21/30/19 19/33/4
f 19/33/4 21/30/19 25/27/21 24/34/4
f 24/34/4 25/27/21 5/26/5 4/35/4
f 34/28/25 25/27/21 21/30/19 35/29/26
f 19/33/4 24/34/4 26/36/4 28/37/4
f 18/32/4 19/33/4 28/37/4 29/38/4
f 24/34/4 4/35/4 30/39/4 26/36/4
f 22/31/4 18/32/4 29/38/4 27/40/4
f 40/41/25 34/28/25 35/29/26 38/42/26
f 38/42/26 35/29/26 32/21/23 37/43/23
f 36/44/22 31/25/22 34/28/25 40/41/25
f 37/43/23 32/21/23 33/24/24 39/45/24
f 10/13/10 37/43/23 39/45/24 14/17/14
f 3/20/3 36/44/22 40/41/25 17/16/17
f 11/12/11 38/42/26 37/43/23 10/13/10
f 17/16/17 40/41/25 38/42/26 11/12/11
f 1/9/1 41/19/27 45/15/27 15/10/15
f 6/3/6 43/14/27 44/18/27 12/4/12
f 15/10/15 45/15/27 42/11/27 7/6/7
f 7/6/7 42/11/27 43/14/27 6/3/6
f 9/46/9 16/47/16 50/7/31 48/5/29
f 16/47/16 2/48/2 46/8/22 50/7/31
f 8/49/8 9/46/9 48/5/29 47/2/28
f 13/50/13 8/49/8 47/2/28 49/1/30
f 99/51/58 60/52/41 51/53/32 96/54/56
f 96/54/56 51/53/32 52/55/33 97/56/57
f 100/57/59 63/58/44 53/59/34 98/60/22
f 91/61/55 92/62/55 57/63/38 58/64/39
f 95/65/55 91/61/55 58/64/39 65/66/46
f 92/62/55 94/67/55 62/68/43 57/63/38
f 93/69/55 95/65/55 65/66/46 59/70/40
f 97/56/57 52/55/33 63/58/44 100/57/59
f 81/71/52 82/72/4 73/73/50 69/74/47
f 83/75/22 84/76/53 75/77/51 71/78/49
f 85/79/54 81/71/52 69/74/47 70/80/48
f 72/81/24 66/82/24 69/74/47 73/73/50
f 66/82/24 67/83/24 70/80/48 69/74/47
f 67/83/24 74/84/24 75/77/51 70/80/48
f 74/84/24 68/85/24 71/78/49 75/77/51
f 84/76/53 85/79/54 70/80/48 75/77/51
f 68/85/24 74/84/24 76/86/24 78/87/24
f 66/82/24 72/81/24 77/88/24 80/89/24
f 74/84/24 67/83/24 79/90/24 76/86/24
f 67/83/24 66/82/24 80/89/24 79/90/24
f 90/91/53 88/92/54 85/79/54 84/76/53
f 88/92/54 86/93/52 81/71/52 85/79/54
f 87/94/22 90/91/53 84/76/53 83/75/22
f 86/93/52 89/95/4 82/72/4 81/71/52
f 57/63/38 62/68/43 89/95/4 86/93/52
f 59/70/40 65/66/46 90/91/53 87/94/22
f 58/64/39 57/63/38 86/93/52 88/92/54
f 65/66/46 58/64/39 88/92/54 90/91/53
f 53/59/34 63/58/44 95/65/55 93/69/55
f 51/53/32 60/52/41 94/67/55 92/62/55
f 63/58/44 52/55/33 91/61/55 95/65/55
f 52/55/33 51/53/32 92/62/55 91/61/55
f 55/96/36 97/56/57 100/57/59 64/97/45
f 64/97/45 100/57/59 98/60/22 56/98/37
f 54/99/35 96/54/56 97/56/57 55/96/36
f 61/100/42 99/51/58 96/54/56 54/99/35
f 2/101/2 16/102/16 106/103/64 107/104/65
f 9/105/9 8/106/8 103/107/61 102/108/60
f 8/106/8 13/109/13 105/110/63 103/107/61
f 110/111/68 109/112/67 61/113/42 54/114/35
f 108/115/66 110/111/68 54/114/35 55/116/36
f 111/117/69 112/118/70 64/119/45 56/120/37
f 106/103/64 16/102/16 9/105/9 102/108/60
f 112/118/70 106/103/64 102/108/60 108/115/66
f 107/104/65 106/103/64 104/121/62 101/122/22
f 64/119/45 112/118/70 108/115/66 55/116/36
f 104/121/62 106/103/64 112/118/70 111/117/69
f 102/108/60 103/107/61 110/111/68 108/115/66
f 103/107/61 105/110/63 109/112/67 110/111/68
f 151/123/92 119/124/77 113/125/71 149/126/90
f 149/126/90 113/125/71 114/127/72 150/128/91
f 152/129/93 122/130/80 1/131/1 46/132/22
f 145/133/27 146/134/27 117/135/75 118/136/76
f 148/137/27 145/133/27 118/136/76 124/138/82
f 146/134/27 147/139/27 121/140/79 117/135/75
f 41/141/27 148/137/27 124/138/82 3/142/3
f 150/128/91 114/127/72 122/130/80 152/129/93
f 137/143/87 138/144/55 130/145/85 127/146/83
f 31/147/22 139/148/88 132/149/86 5/150/5
f 140/151/89 137/143/87 127/146/83 128/152/84
f 129/153/4 125/154/4 127/146/83 130/145/85
f 125/154/4 126/155/4 128/152/84 127/146/83
f 126/155/4 131/156/4 132/149/86 128/152/84
f 131/156/4 4/157/4 5/150/5 132/149/86
f 139/148/88 140/151/89 128/152/84 132/149/86
f 126/155/4 135/158/4 133/159/4 131/156/4
f 125/154/4 136/160/4 135/158/4 126/155/4
f 131/156/4 133/159/4 30/161/4 4/157/4
f 129/153/4 134/162/4 136/160/4 125/154/4
f 144/163/88 142/164/89 140/151/89 139/148/88
f 142/164/89 141/165/87 137/143/87 140/151/89
f 36/166/22 144/163/88 139/148/88 31/147/22
f 141/165/87 143/167/55 138/144/55 137/143/87
f 117/135/75 121/140/79 143/167/55 141/165/87
f 3/142/3 124/138/82 144/163/88 36/166/22
f 118/136/76 117/135/75 141/165/87 142/164/89
f 124/138/82 118/136/76 142/164/89 144/163/88
f 1/131/1 122/130/80 148/137/27 41/141/27
f 113/125/71 119/124/77 147/139/27 146/134/27
f 122/130/80 114/127/72 145/133/27 148/137/27
f 114/127/72 113/125/71 146/134/27 145/133/27
f 116/168/74 150/128/91 152/129/93 123/169/81
f 123/169/81 152/129/93 46/132/22 2/170/2
f 115/171/73 149/126/90 150/128/91 116/168/74
f 120/172/78 151/123/92 149/126/90 115/171/73
f 201/173/105 198/174/104 153/175/94 162/176/100
f 198/174/104 199/177/57 154/178/95 153/175/94
f 202/179/59 200/180/22 155/181/96 165/182/102
f 193/183/24 160/184/48 159/185/47 194/186/24
f 197/187/24 167/188/51 160/184/48 193/183/24
f 194/186/24 159/185/47 164/189/50 196/190/24
f 195/191/24 161/192/49 167/188/51 197/187/24
f 199/177/57 202/179/59 165/182/102 154/178/95
f 183/193/52 171/194/38 175/195/43 184/196/4
f 185/197/22 173/198/40 177/199/46 186/200/53
f 187/201/54 172/202/39 171/194/38 183/193/52
f 174/203/55 175/195/43 171/194/38 168/204/55
f 168/204/55 171/194/38 172/202/39 169/205/55
f 169/205/55 172/202/39 177/199/46 176/206/55
f 176/206/55 177/199/46 173/198/40 170/207/55
f 186/200/53 177/199/46 172/202/39 187/201/54
f 170/207/55 180/208/55 178/209/55 176/206/55
f 168/204/55 182/210/55 179/211/55 174/203/55
f 176/206/55 178/209/55 181/212/55 169/205/55
f 169/205/55 181/212/55 182/210/55 168/204/55
f 192/213/53 186/200/53 187/201/54 190/214/54
f 190/214/54 187/201/54 183/193/52 188/215/52
f 189/216/22 185/197/22 186/200/53 192/213/53
f 188/215/52 183/193/52 184/196/4 191/217/4
f 159/185/47 188/215/52 191/217/4 164/189/50
f 161/192/49 189/216/22 192/213/53 167/188/51
f 160/184/48 190/214/54 188/215/52 159/185/47
f 167/188/51 192/213/53 190/214/54 160/184/48
f 155/181/96 195/191/24 197/187/24 165/182/102
f 153/175/94 194/186/24 196/190/24 162/176/100
f 165/182/102 197/187/24 193/183/24 154/178/95
f 154/178/95 193/183/24 194/186/24 153/175/94
f 157/218/98 166/219/103 202/179/59 199/177/57
f 166/219/103 158/220/99 200/180/22 202/179/59
f 156/221/97 157/218/98 199/177/57 198/174/104
f 163/222/101 156/221/97 198/174/104 201/173/105
f 2/223/2 107/224/65 207/225/110 123/226/81
f 116/227/74 203/228/106 204/229/107 115/230/73
f 115/230/73 204/229/107 206/231/109 120/232/78
f 210/233/113 156/234/97 163/235/101 209/236/112
f 208/237/111 157/238/98 156/234/97 210/233/113
f 211/239/114 158/240/99 166/241/103 212/242/115
f 207/225/110 203/228/106 116/227/74 123/226/81
f 212/242/115 208/237/111 203/228/106 207/225/110
f 107/224/65 101/243/22 205/244/108 207/225/110
f 166/241/103 157/238/98 208/237/111 212/242/115
f 205/244/108 211/239/114 212/242/115 207/225/110
f 203/228/106 208/237/111 210/233/113 204/229/107
f 204/229/107 210/233/113 209/236/112 206/231/109
f 49/1/30 12/4/12 218/245/120 250/246/136
f 250/246/136 218/245/120 219/247/121 251/248/137
f 252/249/138 224/250/126 213/251/116 249/252/132
f 246/253/27 247/254/27 222/255/124 223/256/125
f 248/257/27 246/253/27 223/256/125 226/258/128
f 247/254/27 44/18/27 14/17/14 222/255/124
f 245/259/27 248/257/27 226/258/128 215/260/118
f 251/248/137 219/247/121 224/250/126 252/249/138
f 238/261/133 33/24/24 23/23/20 229/262/129
f 237/263/132 239/264/134 232/265/131 217/266/119
f 240/267/135 238/261/133 229/262/129 230/268/130
f 22/31/4 227/269/4 229/262/129 23/23/20
f 227/269/4 228/270/4 230/268/130 229/262/129
f 228/270/4 231/271/4 232/265/131 230/268/130
f 231/271/4 216/272/4 217/266/119 232/265/131
f 239/264/134 240/267/135 230/268/130 232/265/131
f 228/270/4 234/273/4 233/274/4 231/271/4
f 227/269/4 235/275/4 234/273/4 228/270/4
f 231/271/4 233/274/4 236/276/4 216/272/4
f 22/31/4 27/40/4 235/275/4 227/269/4
f 244/277/134 243/278/135 240/267/135 239/264/134
f 243/278/135 242/279/133 238/261/133 240/267/135
f 241/280/132 244/277/134 239/264/134 237/263/132
f 242/279/133 39/45/24 33/24/24 238/261/133
f 222/255/124 14/17/14 39/45/24 242/279/133
f 215/260/118 226/258/128 244/277/134 241/280/132
f 223/256/125 222/255/124 242/279/133 243/278/135
f 226/258/128 223/256/125 243/278/135 244/277/134
f 213/251/116 224/250/126 248/257/27 245/259/27
f 218/245/120 12/4/12 44/18/27 247/254/27
f 224/250/126 219/247/121 246/253/27 248/257/27
f 219/247/121 218/245/120 247/254/27 246/253/27
f 221/281/123 251/248/137 252/249/138 225/282/127
f 225/282/127 252/249/138 249/252/132 214/283/117
f 220/284/122 250/246/136 251/248/137 221/281/123
f 13/50/13 49/1/30 250/246/136 220/284/122
f 99/51/58 289/285/158 253/286/139 60/52/41
f 289/285/158 290/287/159 254/288/140 253/286/139
f 292/289/160 291/290/132 255/291/141 262/292/148
f 285/293/55 260/294/146 259/295/145 286/296/55
f 288/297/55 264/298/150 260/294/146 285/293/55
f 286/296/55 259/295/145 62/68/43 94/67/55
f 287/299/55 261/300/147 264/298/150 288/297/55
f 290/287/159 292/289/160 262/292/148 254/288/140
f 277/301/155 268/302/151 73/73/50 82/72/4
f 278/303/132 270/304/153 272/305/154 279/306/156
f 280/307/157 269/308/152 268/302/151 277/301/155
f 72/81/24 73/73/50 268/302/151 265/309/24
f 265/309/24 268/302/151 269/308/152 266/310/24
f 266/310/24 269/308/152 272/305/154 271/311/24
f 271/311/24 272/305/154 270/304/153 267/312/24
f 279/306/156 272/305/154 269/308/152 280/307/157
f 267/312/24 274/313/24 273/314/24 271/311/24
f 265/309/24 276/315/24 77/88/24 72/81/24
f 271/311/24 273/314/24 275/316/24 266/310/24
f 266/310/24 275/316/24 276/315/24 265/309/24
f 284/317/156 279/306/156 280/307/157 283/318/157
f 283/318/157 280/307/157 277/301/155 281/319/155
f 282/320/132 278/303/132 279/306/156 284/317/156
f 281/319/155 277/301/155 82/72/4 89/95/4
f 259/295/145 281/319/155 89/95/4 62/68/43
f 261/300/147 282/320/132 284/317/156 264/298/150
f 260/294/146 283/318/157 281/319/155 259/295/145
f 264/298/150 284/317/156 283/318/157 260/294/146
f 255/291/141 287/299/55 288/297/55 262/292/148
f 253/286/139 286/296/55 94/67/55 60/52/41
f 262/292/148 288/297/55 285/293/55 254/288/140
f 254/288/140 285/293/55 286/296/55 253/286/139
f 257/321/143 263/322/149 292/289/160 290/287/159
f 263/322/149 258/323/144 291/290/132 292/289/160
f 256/324/142 257/321/143 290/287/159 289/285/158
f 61/100/42 256/324/142 289/285/158 99/51/58
f 214/325/117 298/326/165 297/327/164 225/328/127
f 221/329/123 294/330/161 295/331/162 220/332/122
f 220/332/122 295/331/162 105/110/63 13/109/13
f 300/333/167 256/334/142 61/113/42 109/112/67
f 299/335/166 257/336/143 256/334/142 300/333/167
f 301/337/168 258/338/144 263/339/149 302/340/169
f 297/327/164 294/330/161 221/329/123 225/328/127
f 302/340/169 299/335/166 294/330/161 297/327/164
f 298/326/165 293/341/132 296/342/163 297/327/164
f 263/339/149 257/336/143 299/335/166 302/340/169
f 296/342/163 301/337/168 302/340/169 297/327/164
f 294/330/161 299/335/166 300/333/167 295/331/162
f 295/331/162 300/333/167 109/112/67 105/110/63
f 151/123/92 330/343/185 303/344/170 119/124/77
f 330/343/185 331/345/186 304/346/171 303/344/170
f 332/347/187 249/252/132 213/251/116 309/348/176
f 327/349/27 308/350/175 307/351/174 328/352/27
f 329/353/27 311/354/178 308/350/175 327/349/27
f 328/352/27 307/351/174 121/140/79 147/139/27
f 245/259/27 215/260/118 311/354/178 329/353/27
f 331/345/186 332/347/187 309/348/176 304/346/171
f 321/355/182 314/356/179 130/145/85 138/144/55
f 237/263/132 217/266/119 317/357/181 322/358/183
f 323/359/184 315/360/180 314/356/179 321/355/182
f 129/153/4 130/145/85 314/356/179 312/361/4
f 312/361/4 314/356/179 315/360/180 313/362/4
f 313/362/4 315/360/180 317/357/181 316/363/4
f 316/363/4 317/357/181 217/266/119 216/272/4
f 322/358/183 317/357/181 315/360/180 323/359/184
f 313/362/4 316/363/4 318/364/4 319/365/4
f 312/361/4 313/362/4 319/365/4 320/366/4
f 316/363/4 216/272/4 236/276/4 318/364/4
f 129/153/4 312/361/4 320/366/4 134/162/4
f 326/367/183 322/358/183 323/359/184 325/368/184
f 325/368/184 323/359/184 321/355/182 324/369/182
f 241/280/132 237/263/132 322/358/183 326/367/183
f 324/369/182 321/355/182 138/144/55 143/167/55
f 307/351/174 324/369/182 143/167/55 121/140/79
f 215/260/118 241/280/132 326/367/183 311/354/178
f 308/350/175 325/368/184 324/369/182 307/351/174
f 311/354/178 326/367/183 325/368/184 308/350/175
f 213/251/116 245/259/27 329/353/27 309/348/176
f 303/344/170 328/352/27 147/139/27 119/124/77
f 309/348/176 329/353/27 327/349/27 304/346/171
f 304/346/171 327/349/27 328/352/27 303/344/170
f 306/370/173 310/371/177 332/347/187 331/345/186
f 310/371/177 214/283/117 249/252/132 332/347/187
f 305/372/172 306/370/173 331/345/186 330/343/185
f 120/172/78 305/372/172 330/343/185 151/123/92
f 201/173/105 162/176/100 333/373/188 369/374/196
f 369/374/196 333/373/188 334/375/189 370/376/159
f 372/377/160 342/378/194 335/379/190 371/380/132
f 365/381/24 366/382/24 339/383/151 340/384/152
f 368/385/24 365/381/24 340/384/152 344/386/154
f 366/382/24 196/190/24 164/189/50 339/383/151
f 367/387/24 368/385/24 344/386/154 341/388/153
f 370/376/159 334/375/189 342/378/194 372/377/160
f 357/389/155 184/196/4 175/195/43 348/390/145
f 358/391/132 359/392/156 352/393/150 350/394/147
f 360/395/157 357/389/155 348/390/145 349/396/146
f 174/203/55 345/397/55 348/390/145 175/195/43
f 345/397/55 346/398/55 349/396/146 348/390/145
f 346/398/55 351/399/55 352/393/150 349/396/146
f 351/399/55 347/400/55 350/394/147 352/393/150
f 359/392/156 360/395/157 349/396/146 352/393/150
f 347/400/55 351/399/55 353/401/55 354/402/55
f 345/397/55 174/203/55 179/211/55 356/403/55
f 351/399/55 346/398/55 355/404/55 353/401/55
f 346/398/55 345/397/55 356/403/55 355/404/55
f 364/405/156 363/406/157 360/395/157 359/392/156
f 363/406/157 361/407/155 357/389/155 360/395/157
f 362/408/132 364/405/156 359/392/156 358/391/132
f 361/407/155 191/217/4 184/196/4 357/389/155
f 339/383/151 164/189/50 191/217/4 361/407/155
f 341/388/153 344/386/154 364/405/156 362/408/132
f 340/384/152 339/383/151 361/407/155 363/406/157
f 344/386/154 340/384/152 363/406/157 364/405/156
f 335/379/190 342/378/194 368/385/24 367/387/24
f 333/373/188 162/176/100 196/190/24 366/382/24
f 342/378/194 334/375/189 365/381/24 368/385/24
f 334/375/189 333/373/188 366/382/24 365/381/24
f 337/409/192 370/376/159 372/377/160 343/410/195
f 343/410/195 372/377/160 371/380/132 338/411/193
f 336/412/191 369/374/196 370/376/159 337/409/192
f 163/222/101 201/173/105 369/374/196 336/412/191
f 214/325/117 310/413/177 376/414/200 298/326/165
f 306/415/173 305/416/172 374/417/198 373/418/197
f 305/416/172 120/232/78 206/231/109 374/417/198
f 378/419/202 209/236/112 163/235/101 336/420/191
f 377/421/201 378/419/202 336/420/191 337/422/192
f 379/423/203 380/424/204 343/425/195 338/426/193
f 376/414/200 310/413/177 306/415/173 373/418/197
f 380/424/204 376/414/200 373/418/197 377/421/201
f 298/326/165 376/414/200 375/427/199 293/341/132
f 343/425/195 380/424/204 377/421/201 337/422/192
f 375/427/199 376/414/200 380/424/204 379/423/203
f 373/418/197 374/417/198 378/419/202 377/421/201
f 374/417/198 206/231/109 209/236/112 378/419/202
f 429/428/216 392/429/211 386/430/207 427/431/215
f 427/431/215 386/430/207 387/432/208 428/433/29
f 430/434/31 395/435/213 381/436/205 426/437/22
f 422/438/4 423/439/4 390/440/18 391/441/19
f 425/442/4 422/438/4 391/441/19 397/443/21
f 423/439/4 424/444/4 394/445/20 390/440/18
f 421/446/4 425/442/4 397/443/21 383/447/5
f 428/433/29 387/432/208 395/435/213 430/434/31
f 412/448/23 413/449/24 403/450/14 400/451/10
f 411/452/22 414/453/25 405/454/17 385/455/3
f 415/456/26 412/448/23 400/451/10 401/457/11
f 402/458/27 398/459/27 400/451/10 403/450/14
f 398/459/27 399/460/27 401/457/11 400/451/10
f 399/460/27 404/461/27 405/454/17 401/457/11
f 404/461/27 384/462/27 385/455/3 405/454/17
f 414/453/25 415/456/26 401/457/11 405/454/17
f 399/460/27 408/463/27 406/464/27 404/461/27
f 398/459/27 409/465/27 408/463/27 399/460/27
f 404/461/27 406/464/27 410/466/27 384/462/27
f 402/458/27 407/467/27 409/465/27 398/459/27
f 420/468/25 418/469/26 415/456/26 414/453/25
f 418/469/26 417/470/23 412/448/23 415/456/26
f 416/471/22 420/468/25 414/453/25 411/452/22
f 417/470/23 419/472/24 413/449/24 412/448/23
f 390/440/18 394/445/20 419/472/24 417/470/23
f 383/447/5 397/443/21 420/468/25 416/471/22
f 391/441/19 390/440/18 417/470/23 418/469/26
f 397/443/21 391/441/19 418/469/26 420/468/25
f 381/436/205 395/435/213 425/442/4 421/446/4
f 386/430/207 392/429/211 424/444/4 423/439/4
f 395/435/213 387/432/208 422/438/4 425/442/4
f 387/432/208 386/430/207 423/439/4 422/438/4
f 389/473/210 428/433/29 430/434/31 396/474/214
f 396/474/214 430/434/31 426/437/22 382/475/206
f 388/476/209 427/431/215 428/433/29 389/473/210
f 393/477/212 429/428/216 427/431/215 388/476/209
f 469/478/238 467/479/236 431/480/217 437/481/223
f 467/479/236 468/482/237 432/483/218 431/480/217
f 470/484/239 98/485/22 53/486/34 440/487/226
f 463/488/55 436/489/222 435/490/221 464/491/55
f 466/492/55 442/493/228 436/489/222 463/488/55
f 464/491/55 435/490/221 439/494/225 465/495/55
f 93/496/55 59/497/40 442/493/228 466/492/55
f 468/482/237 470/484/239 440/487/226 432/483/218
f 455/498/233 445/499/229 448/500/231 456/501/27
f 83/502/22 71/503/49 450/504/232 457/505/234
f 458/506/235 446/507/230 445/499/229 455/498/233
f 447/508/24 448/500/231 445/499/229 443/509/24
f 443/509/24 445/499/229 446/507/230 444/510/24
f 444/510/24 446/507/230 450/504/232 449/511/24
f 449/511/24 450/504/232 71/503/49 68/512/24
f 457/505/234 450/504/232 446/507/230 458/506/235
f 68/512/24 78/513/24 451/514/24 449/511/24
f 443/509/24 454/515/24 452/516/24 447/508/24
f 449/511/24 451/514/24 453/517/24 444/510/24
f 444/510/24 453/517/24 454/515/24 443/509/24
f 462/518/234 457/505/234 458/506/235 460/519/235
f 460/519/235 458/506/235 455/498/233 459/520/233
f 87/521/22 83/502/22 457/505/234 462/518/234
f 459/520/233 455/498/233 456/501/27 461/522/27
f 435/490/221 459/520/233 461/522/27 439/494/225
f 59/497/40 87/521/22 462/518/234 442/493/228
f 436/489/222 460/519/235 459/520/233 435/490/221
f 442/493/228 462/518/234 460/519/235 436/489/222
f 53/486/34 93/496/55 466/492/55 440/487/226
f 431/480/217 464/491/55 465/495/55 437/481/223
f 440/487/226 466/492/55 463/488/55 432/483/218
f 432/483/218 463/488/55 464/491/55 431/480/217
f 434/523/220 441/524/227 470/484/239 468/482/237
f 441/524/227 56/525/37 98/485/22 470/484/239
f 433/526/219 434/523/220 468/482/237 467/479/236
f 438/527/224 433/526/219 467/479/236 469/478/238
f 382/528/206 475/529/244 474/530/243 396/531/214
f 389/532/210 471/533/240 472/534/241 388/535/209
f 388/535/209 472/534/241 473/536/242 393/537/212
f 478/538/247 433/539/219 438/540/224 477/541/246
f 476/542/245 434/543/220 433/539/219 478/538/247
f 111/544/69 56/545/37 441/546/227 479/547/248
f 474/530/243 471/533/240 389/532/210 396/531/214
f 479/547/248 476/542/245 471/533/240 474/530/243
f 475/529/244 101/548/22 104/549/62 474/530/243
f 441/546/227 434/543/220 476/542/245 479/547/248
f 104/549/62 111/544/69 479/547/248 474/530/243
f 471/533/240 476/542/245 478/538/247 472/534/241
f 472/534/241 478/538/247 477/541/246 473/536/242
f 518/550/258 516/551/257 480/552/249 486/553/253
f 516/551/257 517/554/91 481/555/250 480/552/249
f 519/556/93 426/557/22 381/558/205 489/559/255
f 512/560/4 485/561/84 484/562/83 513/563/4
f 515/564/4 491/565/86 485/561/84 512/560/4
f 513/563/4 484/562/83 488/566/85 514/567/4
f 421/568/4 383/569/5 491/565/86 515/564/4
f 517/554/91 519/556/93 489/559/255 481/555/250
f 504/570/87 494/571/75 497/572/79 505/573/55
f 411/574/22 385/575/3 499/576/82 506/577/88
f 507/578/89 495/579/76 494/571/75 504/570/87
f 496/580/27 497/572/79 494/571/75 492/581/27
f 492/581/27 494/571/75 495/579/76 493/582/27
f 493/582/27 495/579/76 499/576/82 498/583/27
f 498/583/27 499/576/82 385/575/3 384/584/27
f 506/577/88 499/576/82 495/579/76 507/578/89
f 493/582/27 498/583/27 500/585/27 502/586/27
f 492/581/27 493/582/27 502/586/27 503/587/27
f 498/583/27 384/584/27 410/588/27 500/585/27
f 496/580/27 492/581/27 503/587/27 501/589/27
f 511/590/88 506/577/88 507/578/89 509/591/89
f 509/591/89 507/578/89 504/570/87 508/592/87
f 416/593/22 411/574/22 506/577/88 511/590/88
f 508/592/87 504/570/87 505/573/55 510/594/55
f 484/562/83 508/592/87 510/594/55 488/566/85
f 383/569/5 416/593/22 511/590/88 491/565/86
f 485/561/84 509/591/89 508/592/87 484/562/83
f 491/565/86 511/590/88 509/591/89 485/561/84
f 381/558/205 421/568/4 515/564/4 489/559/255
f 480/552/249 513/563/4 514/567/4 486/553/253
f 489/559/255 515/564/4 512/560/4 481/555/250
f 481/555/250 512/560/4 513/563/4 480/552/249
f 483/595/252 490/596/256 519/556/93 517/554/91
f 490/596/256 382/597/206 426/557/22 519/556/93
f 482/598/251 483/595/252 517/554/91 516/551/257
f 487/599/254 482/598/251 516/551/257 518/550/258
f 558/600/268 526/601/263 520/602/259 556/603/267
f 556/603/267 520/602/259 521/604/260 557/605/237
f 559/606/239 529/607/265 155/608/96 200/609/22
f 552/610/24 553/611/24 524/612/229 525/613/230
f 555/614/24 552/610/24 525/613/230 531/615/232
f 553/611/24 554/616/24 528/617/231 524/612/229
f 195/618/24 555/614/24 531/615/232 161/619/49
f 557/605/237 521/604/260 529/607/265 559/606/239
f 544/620/233 545/621/27 537/622/225 534/623/221
f 185/624/22 546/625/234 539/626/228 173/627/40
f 547/628/235 544/620/233 534/623/221 535/629/222
f 536/630/55 532/631/55 534/623/221 537/622/225
f 532/631/55 533/632/55 535/629/222 534/623/221
f 533/632/55 538/633/55 539/626/228 535/629/222
f 538/633/55 170/634/55 173/627/40 539/626/228
f 546/625/234 547/628/235 535/629/222 539/626/228
f 170/634/55 538/633/55 540/635/55 180/636/55
f 532/631/55 536/630/55 541/637/55 543/638/55
f 538/633/55 533/632/55 542/639/55 540/635/55
f 533/632/55 532/631/55 543/638/55 542/639/55
f 551/640/234 549/641/235 547/628/235 546/625/234
f 549/641/235 548/642/233 544/620/233 547/628/235
f 189/643/22 551/640/234 546/625/234 185/624/22
f 548/642/233 550/644/27 545/621/27 544/620/233
f 524/612/229 528/617/231 550/644/27 548/642/233
f 161/619/49 531/615/232 551/640/234 189/643/22
f 525/613/230 524/612/229 548/642/233 549/641/235
f 531/615/232 525/613/230 549/641/235 551/640/234
f 155/608/96 529/607/265 555/614/24 195/618/24
f 520/602/259 526/601/263 554/616/24 553/611/24
f 529/607/265 521/604/260 552/610/24 555/614/24
f 521/604/260 520/602/259 553/611/24 552/610/24
f 523/645/262 557/605/237 559/606/239 530/646/266
f 530/646/266 559/606/239 200/609/22 158/647/99
f 522/648/261 556/603/267 557/605/237 523/645/262
f 527/649/264 558/600/268 556/603/267 522/648/261
f 382/650/206 490/651/256 563/652/272 475/653/244
f 483/654/252 482/655/251 561/656/270 560/657/269
f 482/655/251 487/658/254 562/659/271 561/656/270
f 566/660/275 565/661/274 527/662/264 522/663/261
f 564/664/273 566/660/275 522/663/261 523/665/262
f 211/666/114 567/667/276 530/668/266 158/669/99
f 563/652/272 490/651/256 483/654/252 560/657/269
f 567/667/276 563/652/272 560/657/269 564/664/273
f 475/653/244 563/652/272 205/670/108 101/671/22
f 530/668/266 567/667/276 564/664/273 523/665/262
f 205/670/108 563/652/272 567/667/276 211/666/114
f 560/657/269 561/656/270 566/660/275 564/664/273
f 561/656/270 562/659/271 565/661/274 566/660/275
f 429/428/216 605/672/285 573/673/279 392/429/211
f 605/672/285 606/674/137 574/675/280 573/673/279
f 607/676/138 604/677/132 568/678/277 579/679/283
f 601/680/4 578/681/130 577/682/129 602/683/4
f 603/684/4 581/685/131 578/681/130 601/680/4
f 602/683/4 577/682/129 394/445/20 424/444/4
f 600/686/4 570/687/119 581/685/131 603/684/4
f 606/674/137 607/676/138 579/679/283 574/675/280
f 593/688/133 584/689/124 403/450/14 413/449/24
f 592/690/132 572/691/118 587/692/128 594/693/134
f 595/694/135 585/695/125 584/689/124 593/688/133
f 402/458/27 403/450/14 584/689/124 582/696/27
f 582/696/27 584/689/124 585/695/125 583/697/27
f 583/697/27 585/695/125 587/692/128 586/698/27
f 586/698/27 587/692/128 572/691/118 571/699/27
f 594/693/134 587/692/128 585/695/125 595/694/135
f 583/697/27 586/698/27 588/700/27 589/701/27
f 582/696/27 583/697/27 589/701/27 590/702/27
f 586/698/27 571/699/27 591/703/27 588/700/27
f 402/458/27 582/696/27 590/702/27 407/467/27
f 599/704/134 594/693/134 595/694/135 598/705/135
f 598/705/135 595/694/135 593/688/133 597/706/133
f 596/707/132 592/690/132 594/693/134 599/704/134
f 597/706/133 593/688/133 413/449/24 419/472/24
f 577/682/129 597/706/133 419/472/24 394/445/20
f 570/687/119 596/707/132 599/704/134 581/685/131
f 578/681/130 598/705/135 597/706/133 577/682/129
f 581/685/131 599/704/134 598/705/135 578/681/130
f 568/678/277 600/686/4 603/684/4 579/679/283
f 573/673/279 602/683/4 424/444/4 392/429/211
f 579/679/283 603/684/4 601/680/4 574/675/280
f 574/675/280 601/680/4 602/683/4 573/673/279
f 576/708/282 580/709/284 607/676/138 606/674/137
f 580/709/284 569/710/278 604/677/132 607/676/138
f 575/711/281 576/708/282 606/674/137 605/672/285
f 393/477/212 575/711/281 605/672/285 429/428/216
f 469/478/238 437/481/223 608/712/286 635/713/301
f 635/713/301 608/712/286 609/714/287 636/715/302
f 637/716/303 614/717/292 255/291/141 291/290/132
f 632/718/55 633/719/55 612/720/290 613/721/291
f 634/722/55 632/718/55 613/721/291 616/723/294
f 633/719/55 465/495/55 439/494/225 612/720/290
f 287/299/55 634/722/55 616/723/294 261/300/147
f 636/715/302 609/714/287 614/717/292 637/716/303
f 626/724/298 456/501/27 448/500/231 619/725/295
f 278/303/132 627/726/299 622/727/297 270/304/153
f 628/728/300 626/724/298 619/725/295 620/729/296
f 447/508/24 617/730/24 619/725/295 448/500/231
f 617/730/24 618/731/24 620/729/296 619/725/295
f 618/731/24 621/732/24 622/727/297 620/729/296
f 621/732/24 267/312/24 270/304/153 622/727/297
f 627/726/299 628/728/300 620/729/296 622/727/297
f 267/312/24 621/732/24 623/733/24 274/313/24
f 617/730/24 447/508/24 452/516/24 625/734/24
f 621/732/24 618/731/24 624/735/24 623/733/24
f 618/731/24 617/730/24 625/734/24 624/735/24
f 631/736/299 630/737/300 628/728/300 627/726/299
f 630/737/300 629/738/298 626/724/298 628/728/300
f 282/320/132 631/736/299 627/726/299 278/303/132
f 629/738/298 461/522/27 456/501/27 626/724/298
f 612/720/290 439/494/225 461/522/27 629/738/298
f 261/300/147 616/723/294 631/736/299 282/320/132
f 613/721/291 612/720/290 629/738/298 630/737/300
f 616/723/294 613/721/291 630/737/300 631/736/299
f 255/291/141 614/717/292 634/722/55 287/299/55
f 608/712/286 437/481/223 465/495/55 633/719/55
f 614/717/292 609/714/287 632/718/55 634/722/55
f 609/714/287 608/712/286 633/719/55 632/718/55
f 611/739/289 636/715/302 637/716/303 615/740/293
f 615/740/293 637/716/303 291/290/132 258/323/144
f 610/741/288 635/713/301 636/715/302 611/739/289
f 438/527/224 469/478/238 635/713/301 610/741/288
f 569/742/278 580/743/284 640/744/306 641/745/307
f 576/746/282 575/747/281 639/748/305 638/749/304
f 575/747/281 393/537/212 473/536/242 639/748/305
f 643/750/309 477/541/246 438/540/224 610/751/288
f 642/752/308 643/750/309 610/751/288 611/753/289
f 301/337/168 644/754/310 615/755/293 258/338/144
f 640/744/306 580/743/284 576/746/282 638/749/304
f 644/754/310 640/744/306 638/749/304 642/752/308
f 641/745/307 640/744/306 296/342/163 293/341/132
f 615/755/293 644/754/310 642/752/308 611/753/289
f 296/342/163 640/744/306 644/754/310 301/337/168
f 638/749/304 639/748/305 643/750/309 642/752/308
f 639/748/305 473/536/242 477/541/246 643/750/309
f 518/550/258 486/553/253 645/756/311 672/757/317
f 672/757/317 645/756/311 646/758/312 673/759/186
f 674/760/187 651/761/315 568/678/277 604/677/132
f 669/762/4 670/763/4 649/764/179 650/765/180
f 671/766/4 669/762/4 650/765/180 653/767/181
f 670/763/4 514/567/4 488/566/85 649/764/179
f 600/686/4 671/766/4 653/767/181 570/687/119
f 673/759/186 646/758/312 651/761/315 674/760/187
f 663/768/182 505/573/55 497/572/79 656/769/174
f 592/690/132 664/770/183 659/771/178 572/691/118
f 665/772/184 663/768/182 656/769/174 657/773/175
f 496/580/27 654/774/27 656/769/174 497/572/79
f 654/774/27 655/775/27 657/773/175 656/769/174
f 655/775/27 658/776/27 659/771/178 657/773/175
f 658/776/27 571/699/27 572/691/118 659/771/178
f 664/770/183 665/772/184 657/773/175 659/771/178
f 655/775/27 661/777/27 660/778/27 658/776/27
f 654/774/27 662/779/27 661/777/27 655/775/27
f 658/776/27 660/778/27 591/703/27 571/699/27
f 496/580/27 501/589/27 662/779/27 654/774/27
f 668/780/183 667/781/184 665/772/184 664/770/183
f 667/781/184 666/782/182 663/768/182 665/772/184
f 596/707/132 668/780/183 664/770/183 592/690/132
f 666/782/182 510/594/55 505/573/55 663/768/182
f 649/764/179 488/566/85 510/594/55 666/782/182
f 570/687/119 653/767/181 668/780/183 596/707/132
f 650/765/180 649/764/179 666/782/182 667/781/184
f 653/767/181 650/765/180 667/781/184 668/780/183
f 568/678/277 651/761/315 671/766/4 600/686/4
f 645/756/311 486/553/253 514/567/4 670/763/4
f 651/761/315 646/758/312 669/762/4 671/766/4
f 646/758/312 645/756/311 670/763/4 669/762/4
f 648/783/314 673/759/186 674/760/187 652/784/316
f 652/784/316 674/760/187 604/677/132 569/710/278
f 647/785/313 672/757/317 673/759/186 648/783/314
f 487/599/254 518/550/258 672/757/317 647/785/313
f 558/600/268 702/786/324 675/787/318 526/601/263
f 702/786/324 703/788/302 676/789/319 675/787/318
f 704/790/303 371/380/132 335/379/190 681/791/322
f 699/792/24 680/793/296 679/794/295 700/795/24
f 701/796/24 683/797/297 680/793/296 699/792/24
f 700/795/24 679/794/295 528/617/231 554/616/24
f 367/387/24 341/388/153 683/797/297 701/796/24
f 703/788/302 704/790/303 681/791/322 676/789/319
f 693/798/298 686/799/290 537/622/225 545/621/27
f 358/391/132 350/394/147 689/800/294 694/801/299
f 695/802/300 687/803/291 686/799/290 693/798/298
f 536/630/55 537/622/225 686/799/290 684/804/55
f 684/804/55 686/799/290 687/803/291 685/805/55
f 685/805/55 687/803/291 689/800/294 688/806/55
f 688/806/55 689/800/294 350/394/147 347/400/55
f 694/801/299 689/800/294 687/803/291 695/802/300
f 347/400/55 354/402/55 690/807/55 688/806/55
f 684/804/55 692/808/55 541/637/55 536/630/55
f 688/806/55 690/807/55 691/809/55 685/805/55
f 685/805/55 691/809/55 692/808/55 684/804/55
f 698/810/299 694/801/299 695/802/300 697/811/300
f 697/811/300 695/802/300 693/798/298 696/812/298
f 362/408/132 358/391/132 694/801/299 698/810/299
f 696/812/298 693/798/298 545/621/27 550/644/27
f 679/794/295 696/812/298 550/644/27 528/617/231
f 341/388/153 362/408/132 698/810/299 683/797/297
f 680/793/296 697/811/300 696/812/298 679/794/295
f 683/797/297 698/810/299 697/811/300 680/793/296
f 335/379/190 367/387/24 701/796/24 681/791/322
f 675/787/318 700/795/24 554/616/24 526/601/263
f 681/791/322 701/796/24 699/792/24 676/789/319
f 676/789/319 699/792/24 700/795/24 675/787/318
f 678/813/321 682/814/323 704/790/303 703/788/302
f 682/814/323 338/411/193 371/380/132 704/790/303
f 677/815/320 678/813/321 703/788/302 702/786/324
f 527/649/264 677/815/320 702/786/324 558/600/268
f 569/742/278 641/745/307 707/816/327 652/817/316
f 648/818/314 705/819/325 706/820/326 647/821/313
f 647/821/313 706/820/326 562/659/271 487/658/254
f 709/822/329 677/823/320 527/662/264 565/661/274
f 708/824/328 678/825/321 677/823/320 709/822/329
f 379/423/203 338/426/193 682/826/323 710/827/330
f 707/816/327 705/819/325 648/818/314 652/817/316
f 710/827/330 708/824/328 705/819/325 707/816/327
f 641/745/307 293/341/132 375/427/199 707/816/327
f 682/826/323 678/825/321 708/824/328 710/827/330
f 375/427/199 379/423/203 710/827/330 707/816/327
f 705/819/325 708/824/328 709/822/329 706/820/326
f 706/820/326 709/822/329 565/661/274 562/659/271
