# Blender 5.0.1
# www.blender.org
mtllib pipe_bend.mtl
o tube_1
v -3.718172 1.402882 0.124011
v -3.718172 1.325734 0.229854
v -3.718172 1.113534 0.317623
v -3.718172 1.517747 0.165668
v -3.718172 1.401955 0.321563
v -3.718172 1.113534 0.443027
v -3.718172 1.433564 -0.000000
v -3.718172 1.562137 -0.000000
v -3.718172 1.225362 0.295424
v -3.718172 1.268970 0.410285
v -3.919524 1.402882 0.124011
v -3.919524 1.325734 0.229854
v -3.919524 1.113534 0.317623
v -3.919524 1.517747 0.165668
v -3.919524 1.401955 0.321563
v -3.919524 1.113534 0.443027
v -3.919524 1.433564 -0.000000
v -3.919524 1.562137 -0.000000
v -3.919524 1.225362 0.295424
v -3.919524 1.268970 0.410285
v -3.718172 0.824187 0.124011
v -3.718172 0.901335 0.229854
v -3.718172 0.709321 0.165668
v -3.718172 0.825113 0.321563
v -3.718172 0.793504 -0.000000
v -3.718172 0.664931 -0.000000
v -3.718172 1.001707 0.295424
v -3.718172 0.958098 0.410285
v -3.919524 0.824187 0.124011
v -3.919524 0.901335 0.229854
v -3.919524 0.709321 0.165668
v -3.919524 0.825113 0.321563
v -3.919524 0.793504 -0.000000
v -3.919524 0.664931 -0.000000
v -3.919524 1.001707 0.295424
v -3.919524 0.958098 0.410285
v -3.919524 1.033134 0.212401
v -3.919524 0.883442 -0.000000
v -3.919524 0.960969 0.165258
v -3.919524 0.905502 0.089160
v -3.919524 1.193935 0.212401
v -3.919524 1.343626 -0.000000
v -3.919524 1.113534 0.228362
v -3.919524 1.266099 0.165258
v -3.919524 1.321566 0.089160
v -3.910823 1.517747 0.165668
v -3.910823 1.562137 -0.000000
v -3.910823 1.113534 0.443027
v -3.910823 1.268970 0.410285
v -3.910823 1.401955 0.321563
v -3.910823 0.709321 0.165668
v -3.910823 0.664931 -0.000000
v -3.910823 0.958098 0.410285
v -3.910823 0.825113 0.321563
v -3.730146 1.517747 0.165668
v -3.730146 1.113534 0.443027
v -3.730146 1.401955 0.321563
v -3.730146 0.709321 0.165668
v -3.730146 0.825113 0.321563
v -3.730146 1.562137 -0.000000
v -3.730146 1.268970 0.410285
v -3.730146 0.664931 -0.000000
v -3.730146 0.958098 0.410285
v -3.718172 1.334422 0.242431
v -3.718172 1.418513 0.128089
v -3.718172 1.113534 0.334544
v -3.718172 1.451381 -0.000000
v -3.718172 1.231131 0.310547
v -3.718172 0.892646 0.242431
v -3.718172 0.808556 0.128089
v -3.718172 0.775687 -0.000000
v -3.718172 0.995937 0.310547
v -2.639092 1.846944 0.124011
v -2.716240 1.846944 0.229854
v -2.928439 1.846944 0.317623
v -2.524227 1.846944 0.165669
v -2.640019 1.846944 0.321563
v -2.928439 1.846944 0.443027
v -2.608409 1.846944 0.000000
v -2.479836 1.846944 0.000000
v -2.816612 1.846944 0.295424
v -2.773004 1.846944 0.410285
v -2.639092 2.048295 0.124011
v -2.716240 2.048295 0.229854
v -2.928439 2.048295 0.317623
v -2.524227 2.048295 0.165669
v -2.640018 2.048295 0.321563
v -2.928439 2.048295 0.443027
v -2.608409 2.048295 0.000000
v -2.479836 2.048295 0.000000
v -2.816612 2.048295 0.295424
v -2.773004 2.048295 0.410285
v -3.217787 1.846944 0.124011
v -3.140639 1.846944 0.229854
v -3.332652 1.846944 0.165668
v -3.216860 1.846944 0.321563
v -3.248470 1.846944 -0.000000
v -3.377043 1.846944 -0.000000
v -3.040267 1.846944 0.295424
v -3.083875 1.846944 0.410285
v -3.217787 2.048295 0.124011
v -3.140639 2.048295 0.229854
v -3.332652 2.048295 0.165668
v -3.216860 2.048295 0.321563
v -3.248470 2.048295 -0.000000
v -3.377043 2.048295 -0.000000
v -3.040267 2.048295 0.295424
v -3.083875 2.048295 0.410285
v -3.008840 2.048295 0.212401
v -3.158531 2.048295 -0.000000
v -3.081004 2.048295 0.165258
v -3.136471 2.048295 0.089160
v -2.848039 2.048295 0.212401
v -2.698347 2.048295 0.000000
v -2.928439 2.048295 0.228362
v -2.775874 2.048295 0.165258
v -2.720407 2.048295 0.089160
v -2.524227 2.039595 0.165669
v -2.479836 2.039595 0.000000
v -2.928439 2.039595 0.443027
v -2.773004 2.039595 0.410285
v -2.640018 2.039595 0.321563
v -3.332652 2.039595 0.165668
v -3.377043 2.039595 -0.000000
v -3.083875 2.039595 0.410285
v -3.216860 2.039595 0.321563
v -2.524227 1.858918 0.165669
v -2.928439 1.858918 0.443027
v -2.640019 1.858918 0.321563
v -3.332652 1.858918 0.165668
v -3.216860 1.858918 0.321563
v -2.479836 1.858918 0.000000
v -2.773004 1.858918 0.410285
v -3.377043 1.858918 -0.000000
v -3.083875 1.858918 0.410285
v -2.707551 1.846944 0.242431
v -2.623461 1.846944 0.128090
v -2.928439 1.846944 0.334544
v -2.590592 1.846944 0.000000
v -2.810843 1.846944 0.310547
v -3.149328 1.846944 0.242431
v -3.233418 1.846944 0.128089
v -3.266287 1.846944 -0.000000
v -3.046036 1.846944 0.310547
v -3.648151 1.402882 0.124011
v -3.648151 1.325734 0.229854
v -3.648151 1.113534 0.317623
v -3.648151 1.433564 -0.000000
v -3.648151 1.225362 0.295424
v -3.648151 0.824187 0.124011
v -3.648151 0.901335 0.229854
v -3.648151 0.793504 -0.000000
v -3.648151 1.001707 0.295424
v -2.824956 1.733193 0.290436
v -3.554246 1.435302 -0.000000
v -2.867932 1.489176 0.290436
v -3.540565 1.228597 0.289010
v -3.533182 1.117061 0.318962
v -3.519674 0.912974 0.230502
v -3.514312 0.831952 0.123947
v -3.512119 0.798819 -0.000000
v -3.464272 1.447472 -0.000000
v -3.000021 1.256577 0.290436
v -3.416015 1.246014 0.289010
v -3.389977 1.137309 0.318962
v -3.342331 0.938402 0.230502
v -3.323416 0.859437 0.123947
v -3.315680 0.827145 -0.000000
v -3.388115 1.475026 -0.000000
v -3.183975 1.101812 0.290436
v -3.288704 1.293280 0.289010
v -3.235063 1.195212 0.318961
v -3.136910 1.015768 0.230502
v -3.097944 0.944529 0.123947
v -3.082010 0.915397 -0.000000
v -3.323026 1.530478 -0.000000
v -3.365177 1.033779 0.290436
v -3.165731 1.397094 0.289010
v -3.080856 1.325122 0.318962
v -2.925553 1.193429 0.230502
v -2.863898 1.141147 0.123948
v -2.838685 1.119767 0.000000
v -3.265179 1.637835 -0.000000
v -3.526152 1.010835 0.290436
v -3.071729 1.565441 0.289010
v -2.967346 1.526379 0.318962
v -2.776347 1.454902 0.230502
v -2.700521 1.426526 0.123948
v -2.669512 1.414922 0.000000
v -3.248272 1.775204 -0.000000
v -3.042127 1.754745 0.289010
v -2.930894 1.743706 0.318961
v -2.727360 1.723507 0.230502
v -2.646558 1.715488 0.123948
v -2.613515 1.712209 0.000000
v -3.552035 1.401904 0.124938
v -3.456475 1.414922 0.124938
v -3.372053 1.445661 0.124938
v -3.297612 1.508927 0.124938
v -3.233923 1.626138 0.124938
v -3.214965 1.771899 0.124938
v -3.547184 1.328612 0.223685
v -3.439365 1.343491 0.223685
v -3.336805 1.381219 0.223685
v -3.241839 1.461633 0.223685
v -3.165331 1.600469 0.223686
v -3.141872 1.764644 0.223686
v -3.217364 1.835707 0.124150
v -3.248440 1.836201 -0.000000
v -3.140824 1.834620 0.228930
v -3.040545 1.833138 0.294464
v -2.928807 1.831485 0.317824
v -2.817861 1.829911 0.294677
v -2.717905 1.828460 0.229951
v -2.640210 1.827260 0.124001
v -2.609174 1.826769 0.000000
v -3.718172 1.402882 -0.124011
v -3.718172 1.325734 -0.229854
v -3.718172 1.113534 -0.317624
v -3.718172 1.517747 -0.165669
v -3.718172 1.401955 -0.321563
v -3.718172 1.113534 -0.443027
v -3.718172 1.225362 -0.295424
v -3.718172 1.268970 -0.410285
v -3.919524 1.402882 -0.124011
v -3.919524 1.325734 -0.229854
v -3.919524 1.113534 -0.317624
v -3.919524 1.517747 -0.165669
v -3.919524 1.401955 -0.321563
v -3.919524 1.113534 -0.443027
v -3.919524 1.225362 -0.295424
v -3.919524 1.268970 -0.410285
v -3.718172 0.824187 -0.124011
v -3.718172 0.901335 -0.229854
v -3.718172 0.709321 -0.165669
v -3.718172 0.825113 -0.321563
v -3.718172 1.001707 -0.295424
v -3.718172 0.958098 -0.410285
v -3.919524 0.824187 -0.124011
v -3.919524 0.901335 -0.229854
v -3.919524 0.709321 -0.165669
v -3.919524 0.825113 -0.321563
v -3.919524 1.001707 -0.295424
v -3.919524 0.958098 -0.410285
v -3.919524 1.033134 -0.212401
v -3.919524 0.960969 -0.165258
v -3.919524 0.905502 -0.089160
v -3.919524 1.193935 -0.212401
v -3.919524 1.113534 -0.228362
v -3.919524 1.266099 -0.165258
v -3.919524 1.321566 -0.089160
v -3.910823 1.517747 -0.165669
v -3.910823 1.113534 -0.443027
v -3.910823 1.268970 -0.410285
v -3.910823 1.401955 -0.321563
v -3.910823 0.709321 -0.165669
v -3.910823 0.958098 -0.410285
v -3.910823 0.825113 -0.321563
v -3.730146 1.517747 -0.165669
v -3.730146 1.113534 -0.443027
v -3.730146 1.401955 -0.321563
v -3.730146 0.709321 -0.165669
v -3.730146 0.825113 -0.321563
v -3.730146 1.268970 -0.410285
v -3.730146 0.958098 -0.410285
v -3.718172 1.334422 -0.242431
v -3.718172 1.418513 -0.128090
v -3.718172 1.113534 -0.334544
v -3.718172 1.231131 -0.310547
v -3.718172 0.892646 -0.242431
v -3.718172 0.808556 -0.128090
v -3.718172 0.995937 -0.310547
v -2.639092 1.846944 -0.124011
v -2.716240 1.846944 -0.229854
v -2.928439 1.846944 -0.317623
v -2.524227 1.846944 -0.165668
v -2.640018 1.846944 -0.321563
v -2.928439 1.846944 -0.443027
v -2.816612 1.846944 -0.295424
v -2.773003 1.846944 -0.410285
v -2.639092 2.048295 -0.124011
v -2.716240 2.048295 -0.229854
v -2.928439 2.048295 -0.317623
v -2.524227 2.048295 -0.165668
v -2.640018 2.048295 -0.321563
v -2.928439 2.048295 -0.443027
v -2.816612 2.048295 -0.295424
v -2.773003 2.048295 -0.410285
v -3.217787 1.846944 -0.124011
v -3.140639 1.846944 -0.229854
v -3.332652 1.846944 -0.165669
v -3.216860 1.846944 -0.321563
v -3.040267 1.846944 -0.295424
v -3.083875 1.846944 -0.410285
v -3.217787 2.048295 -0.124011
v -3.140639 2.048295 -0.229854
v -3.332652 2.048295 -0.165669
v -3.216860 2.048295 -0.321563
v -3.040267 2.048295 -0.295424
v -3.083875 2.048295 -0.410285
v -3.008840 2.048295 -0.212401
v -3.081004 2.048295 -0.165258
v -3.136471 2.048295 -0.089160
v -2.848039 2.048295 -0.212401
v -2.928439 2.048295 -0.228362
v -2.775874 2.048295 -0.165258
v -2.720407 2.048295 -0.089160
v -2.524227 2.039595 -0.165668
v -2.928439 2.039595 -0.443027
v -2.773003 2.039595 -0.410285
v -2.640018 2.039595 -0.321563
v -3.332652 2.039595 -0.165669
v -3.083875 2.039595 -0.410285
v -3.216860 2.039595 -0.321563
v -2.524227 1.858918 -0.165668
v -2.928439 1.858918 -0.443027
v -2.640018 1.858918 -0.321563
v -3.332652 1.858918 -0.165669
v -3.216860 1.858918 -0.321563
v -2.773003 1.858918 -0.410285
v -3.083875 1.858918 -0.410285
v -2.707551 1.846944 -0.242431
v -2.623461 1.846944 -0.128089
v -2.928439 1.846944 -0.334544
v -2.810842 1.846944 -0.310547
v -3.149327 1.846944 -0.242431
v -3.233418 1.846944 -0.128090
v -3.046036 1.846944 -0.310547
v -3.648151 1.402882 -0.124011
v -3.648151 1.325734 -0.229854
v -3.648151 1.113534 -0.317624
v -3.648151 1.225362 -0.295424
v -3.648151 0.824187 -0.124011
v -3.648151 0.901335 -0.229854
v -3.648151 1.001707 -0.295424
v -2.824956 1.733193 -0.290436
v -2.867932 1.489176 -0.290436
v -3.540565 1.228597 -0.289010
v -3.533182 1.117061 -0.318962
v -3.519674 0.912974 -0.230502
v -3.514312 0.831952 -0.123948
v -3.000021 1.256577 -0.290436
v -3.416015 1.246014 -0.289010
v -3.389976 1.137309 -0.318962
v -3.342331 0.938402 -0.230502
v -3.323415 0.859437 -0.123948
v -3.183975 1.101812 -0.290436
v -3.288704 1.293280 -0.289010
v -3.235063 1.195212 -0.318961
v -3.136910 1.015768 -0.230502
v -3.097944 0.944529 -0.123948
v -3.365177 1.033779 -0.290436
v -3.165731 1.397094 -0.289010
v -3.080856 1.325122 -0.318962
v -2.925553 1.193429 -0.230502
v -2.863898 1.141147 -0.123948
v -3.526151 1.010835 -0.290436
v -3.071729 1.565441 -0.289010
v -2.967346 1.526379 -0.318962
v -2.776347 1.454902 -0.230502
v -2.700521 1.426526 -0.123947
v -3.042127 1.754745 -0.289010
v -2.930894 1.743706 -0.318961
v -2.727360 1.723507 -0.230502
v -2.646558 1.715488 -0.123947
v -3.552035 1.401904 -0.124939
v -3.456475 1.414922 -0.124939
v -3.372053 1.445661 -0.124938
v -3.297612 1.508927 -0.124938
v -3.233923 1.626138 -0.124938
v -3.214965 1.771899 -0.124938
v -3.547184 1.328612 -0.223686
v -3.439365 1.343491 -0.223686
v -3.336805 1.381219 -0.223686
v -3.241839 1.461633 -0.223686
v -3.165331 1.600469 -0.223686
v -3.141872 1.764644 -0.223686
v -3.217364 1.835707 -0.124150
v -3.140823 1.834620 -0.228930
v -3.040545 1.833138 -0.294464
v -2.928807 1.831485 -0.317824
v -2.817861 1.829911 -0.294677
v -2.717905 1.828460 -0.229951
v -2.640210 1.827260 -0.124001
vn 0.7531 0.5963 0.2780
vn 0.7500 0.4556 0.4795
vn 0.7537 -0.0000 0.6573
vn 0.6673 0.6706 0.3242
vn 0.6706 0.5111 0.5376
vn 0.6635 -0.0000 0.7482
vn 0.7654 0.6436 -0.0000
vn 0.6532 0.7572 -0.0000
vn 0.7525 0.2487 0.6098
vn 0.6669 0.2888 0.6869
vn -1.0000 -0.0000 -0.0000
vn -0.6673 0.6706 0.3242
vn -0.6706 0.5111 0.5376
vn -0.6635 -0.0000 0.7482
vn -0.6532 0.7572 -0.0000
vn -0.6669 0.2888 0.6869
vn 0.7531 -0.5963 0.2780
vn 0.7500 -0.4556 0.4795
vn 0.6673 -0.6706 0.3242
vn 0.6706 -0.5111 0.5376
vn 0.7654 -0.6436 -0.0000
vn 0.6532 -0.7572 -0.0000
vn 0.7525 -0.2487 0.6098
vn 0.6669 -0.2888 0.6869
vn -0.6673 -0.6706 0.3242
vn -0.6706 -0.5111 0.5376
vn -0.6532 -0.7572 -0.0000
vn -0.6669 -0.2888 0.6869
vn -0.0000 0.9003 0.4353
vn -0.0000 1.0000 -0.0000
vn -0.0000 -0.0000 1.0000
vn -0.0000 0.3876 0.9218
vn -0.0000 0.6890 0.7247
vn -0.0000 -0.9003 0.4353
vn -0.0000 -1.0000 -0.0000
vn -0.0000 -0.3876 0.9218
vn -0.0000 -0.6890 0.7247
vn 1.0000 -0.0000 -0.0000
vn 0.5789 -0.7698 0.2689
vn 0.4430 -0.7691 0.4608
vn 0.0018 -0.7603 0.6495
vn 0.6706 -0.6673 0.3242
vn 0.5111 -0.6706 0.5376
vn -0.0000 -0.6635 0.7482
vn 0.6262 -0.7797 -0.0000
vn 0.7572 -0.6532 -0.0000
vn 0.2464 -0.7675 0.5918
vn 0.2888 -0.6669 0.6869
vn 0.6706 0.6673 0.3242
vn 0.5111 0.6706 0.5376
vn -0.0000 0.6635 0.7482
vn 0.7572 0.6532 -0.0000
vn 0.2888 0.6669 0.6869
vn -0.5889 -0.7608 0.2727
vn -0.4418 -0.7631 0.4717
vn -0.6706 -0.6673 0.3242
vn -0.5111 -0.6706 0.5376
vn -0.6373 -0.7707 -0.0000
vn -0.7572 -0.6532 -0.0000
vn -0.2418 -0.7648 0.5972
vn -0.2888 -0.6669 0.6869
vn -0.6706 0.6673 0.3242
vn -0.5111 0.6706 0.5376
vn -0.7572 0.6532 -0.0000
vn -0.2888 0.6669 0.6869
vn 0.9003 -0.0000 0.4353
vn 0.3876 -0.0000 0.9218
vn 0.6890 -0.0000 0.7247
vn -0.9003 -0.0000 0.4353
vn -0.3876 -0.0000 0.9218
vn -0.6890 -0.0000 0.7247
vn 0.0007 0.9053 0.4248
vn 0.0110 0.6856 0.7279
vn 0.0109 -0.0017 0.9999
vn -0.0026 1.0000 -0.0000
vn 0.0124 0.3831 0.9236
vn 0.0266 -0.9044 0.4258
vn 0.0296 -0.6865 0.7266
vn 0.0241 -0.9997 -0.0000
vn 0.0220 -0.3839 0.9231
vn 0.3934 -0.0574 0.9176
vn -0.0701 0.9975 -0.0000
vn 0.3831 -0.1383 0.9133
vn -0.0152 0.3960 0.9181
vn 0.0119 -0.0080 0.9999
vn 0.0776 -0.6727 0.7359
vn 0.0907 -0.8965 0.4337
vn 0.0954 -0.9954 -0.0000
vn -0.2394 0.9709 -0.0000
vn 0.3142 -0.2614 0.9127
vn -0.0974 0.3864 0.9172
vn 0.0049 -0.0172 0.9998
vn 0.1685 -0.6556 0.7360
vn 0.2243 -0.8718 0.4355
vn 0.2491 -0.9685 -0.0000
vn -0.5033 0.8641 -0.0000
vn 0.2060 -0.3509 0.9135
vn -0.1978 0.3391 0.9197
vn 0.0150 -0.0239 0.9996
vn 0.3441 -0.5871 0.7328
vn 0.4553 -0.7780 0.4329
vn 0.5047 -0.8633 -0.0000
vn -0.7774 0.6290 -0.0000
vn 0.1000 -0.3900 0.9154
vn -0.3033 0.2501 0.9195
vn 0.0227 -0.0188 0.9996
vn 0.5238 -0.4370 0.7312
vn 0.6923 -0.5785 0.4314
vn 0.7672 -0.6414 -0.0000
vn -0.9525 0.3047 -0.0000
vn 0.0501 -0.3913 0.9189
vn -0.3710 0.1280 0.9198
vn 0.0269 -0.0099 0.9996
vn 0.6394 -0.2334 0.7325
vn 0.8462 -0.3110 0.4326
vn 0.9383 -0.3457 -0.0000
vn -0.9986 0.0530 -0.0000
vn -0.3979 0.0132 0.9173
vn 0.0100 -0.0140 0.9999
vn 0.6725 -0.0904 0.7346
vn 0.8951 -0.1087 0.4325
vn 0.9933 -0.1159 -0.0000
vn -0.0601 0.8979 0.4362
vn -0.2157 0.8715 0.4404
vn -0.4509 0.7740 0.4446
vn -0.6956 0.5651 0.4436
vn -0.8520 0.2767 0.4444
vn -0.8991 0.0466 0.4352
vn -0.0359 0.6833 0.7293
vn -0.1645 0.6583 0.7346
vn -0.3394 0.5820 0.7389
vn -0.5221 0.4273 0.7382
vn -0.6390 0.2139 0.7389
vn -0.6854 0.0282 0.7276
vn -0.9045 -0.0235 0.4258
vn -0.9998 -0.0190 -0.0000
vn -0.6883 -0.0398 0.7243
vn -0.3887 -0.0361 0.9207
vn -0.0009 -0.0244 0.9997
vn 0.3816 -0.0440 0.9233
vn 0.6812 -0.0593 0.7297
vn 0.9023 -0.0525 0.4280
vn 0.9989 -0.0472 -0.0000
vn 0.7531 0.5963 -0.2780
vn 0.7500 0.4556 -0.4795
vn 0.7537 -0.0000 -0.6573
vn 0.6673 0.6706 -0.3242
vn 0.6706 0.5111 -0.5376
vn 0.6635 -0.0000 -0.7482
vn 0.7525 0.2487 -0.6098
vn 0.6669 0.2888 -0.6869
vn -0.6673 0.6706 -0.3242
vn -0.6706 0.5111 -0.5376
vn -0.6635 -0.0000 -0.7482
vn -0.6669 0.2888 -0.6869
vn 0.7531 -0.5963 -0.2780
vn 0.7500 -0.4556 -0.4795
vn 0.6673 -0.6706 -0.3242
vn 0.6706 -0.5111 -0.5376
vn 0.7525 -0.2487 -0.6098
vn 0.6669 -0.2888 -0.6869
vn -0.6673 -0.6706 -0.3242
vn -0.6706 -0.5111 -0.5376
vn -0.6669 -0.2888 -0.6869
vn -0.0000 0.9003 -0.4353
vn -0.0000 -0.0000 -1.0000
vn -0.0000 0.3876 -0.9218
vn -0.0000 0.6890 -0.7247
vn -0.0000 -0.9003 -0.4353
vn -0.0000 -0.3876 -0.9218
vn -0.0000 -0.6890 -0.7247
vn 0.5789 -0.7698 -0.2689
vn 0.4430 -0.7691 -0.4608
vn 0.0018 -0.7603 -0.6495
vn 0.6706 -0.6673 -0.3242
vn 0.5111 -0.6706 -0.5376
vn -0.0000 -0.6635 -0.7482
vn 0.2464 -0.7675 -0.5918
vn 0.2888 -0.6669 -0.6869
vn 0.6706 0.6673 -0.3242
vn 0.5111 0.6706 -0.5376
vn -0.0000 0.6635 -0.7482
vn 0.2888 0.6669 -0.6869
vn -0.5889 -0.7608 -0.2727
vn -0.4418 -0.7631 -0.4717
vn -0.6706 -0.6673 -0.3242
vn -0.5111 -0.6706 -0.5376
vn -0.2418 -0.7648 -0.5972
vn -0.2888 -0.6669 -0.6869
vn -0.6706 0.6673 -0.3242
vn -0.5111 0.6706 -0.5376
vn -0.2888 0.6669 -0.6869
vn 0.9003 -0.0000 -0.4353
vn 0.3876 -0.0000 -0.9218
vn 0.6890 -0.0000 -0.7247
vn -0.9003 -0.0000 -0.4353
vn -0.3876 -0.0000 -0.9218
vn -0.6890 -0.0000 -0.7247
vn 0.0007 0.9053 -0.4248
vn 0.0110 0.6856 -0.7279
vn 0.0109 -0.0017 -0.9999
vn 0.0124 0.3831 -0.9236
vn 0.0266 -0.9044 -0.4258
vn 0.0296 -0.6865 -0.7266
vn 0.0220 -0.3839 -0.9231
vn 0.3934 -0.0574 -0.9176
vn 0.3831 -0.1383 -0.9133
vn -0.0152 0.3960 -0.9181
vn 0.0119 -0.0080 -0.9999
vn 0.0776 -0.6727 -0.7359
vn 0.0907 -0.8965 -0.4337
vn 0.3142 -0.2614 -0.9127
vn -0.0974 0.3864 -0.9172
vn 0.0049 -0.0172 -0.9998
vn 0.1685 -0.6556 -0.7360
vn 0.2243 -0.8718 -0.4355
vn 0.2060 -0.3509 -0.9135
vn -0.1978 0.3391 -0.9197
vn 0.0150 -0.0239 -0.9996
vn 0.3441 -0.5871 -0.7328
vn 0.4553 -0.7780 -0.4329
vn 0.1000 -0.3900 -0.9154
vn -0.3033 0.2501 -0.9195
vn 0.0227 -0.0188 -0.9996
vn 0.5238 -0.4370 -0.7312
vn 0.6923 -0.5785 -0.4314
vn 0.0501 -0.3913 -0.9189
vn -0.3710 0.1280 -0.9198
vn 0.0269 -0.0099 -0.9996
vn 0.6394 -0.2334 -0.7325
vn 0.8462 -0.3110 -0.4326
vn -0.3979 0.0132 -0.9173
vn 0.0100 -0.0140 -0.9999
vn 0.6725 -0.0904 -0.7346
vn 0.8951 -0.1087 -0.4325
vn -0.0601 0.8979 -0.4362
vn -0.2157 0.8715 -0.4404
vn -0.4509 0.7740 -0.4446
vn -0.6956 0.5651 -0.4436
vn -0.8520 0.2767 -0.4444
vn -0.8991 0.0466 -0.4352
vn -0.0359 0.6833 -0.7293
vn -0.1645 0.6583 -0.7346
vn -0.3394 0.5820 -0.7389
vn -0.5221 0.4273 -0.7382
vn -0.6390 0.2139 -0.7389
vn -0.6854 0.0282 -0.7276
vn -0.9045 -0.0235 -0.4258
vn -0.6883 -0.0398 -0.7243
vn -0.3887 -0.0361 -0.9207
vn -0.0009 -0.0244 -0.9997
vn 0.3816 -0.0440 -0.9233
vn 0.6812 -0.0593 -0.7297
vn 0.9023 -0.0525 -0.4280
vt 0.127827 0.705978
vt 0.194073 0.705978
vt 0.194073 0.742588
vt 0.127827 0.742588
vt 0.069295 0.705978
vt 0.069295 0.742588
vt 0.256857 0.705978
vt 0.256857 0.742588
vt 0.012307 0.705978
vt 0.012307 0.742588
vt 0.194073 0.808747
vt 0.256857 0.808747
vt 0.256857 0.811735
vt 0.194073 0.811735
vt 0.012307 0.808747
vt 0.069295 0.808747
vt 0.069295 0.811735
vt 0.012307 0.811735
vt 0.127827 0.808747
vt 0.127827 0.811735
vt 0.256857 0.853912
vt 0.194073 0.853912
vt 0.127827 0.853912
vt 0.069295 0.853912
vt 0.012307 0.853912
vt 0.876079 0.705978
vt 0.876079 0.742588
vt 0.808583 0.742588
vt 0.808583 0.705978
vt 0.934071 0.705978
vt 0.934071 0.742588
vt 0.745916 0.742588
vt 0.745916 0.705978
vt 0.990427 0.705978
vt 0.990427 0.742588
vt 0.808583 0.808747
vt 0.808583 0.811735
vt 0.745916 0.811735
vt 0.745916 0.808747
vt 0.990427 0.808747
vt 0.990427 0.811735
vt 0.934071 0.811735
vt 0.934071 0.808747
vt 0.876079 0.808747
vt 0.876079 0.811735
vt 0.745916 0.853912
vt 0.808583 0.853912
vt 0.876079 0.853912
vt 0.934071 0.853912
vt 0.990427 0.853912
vt 0.069295 0.884369
vt 0.012307 0.884369
vt 0.934071 0.884369
vt 0.876079 0.884369
vt 0.256857 0.884369
vt 0.194073 0.884369
vt 0.808583 0.884369
vt 0.990427 0.884369
vt 0.127827 0.884369
vt 0.745916 0.884369
vt 0.934071 0.746700
vt 0.876079 0.746700
vt 0.808583 0.746700
vt 0.990427 0.746700
vt 0.745916 0.746700
vt 0.069295 0.746700
vt 0.127827 0.746700
vt 0.194073 0.746700
vt 0.012307 0.746700
vt 0.256857 0.746700
vt 0.990427 0.700398
vt 0.934071 0.700398
vt 0.808583 0.700398
vt 0.745916 0.700398
vt 0.876079 0.700398
vt 0.012307 0.700398
vt 0.069295 0.700398
vt 0.194073 0.700398
vt 0.256857 0.700398
vt 0.127827 0.700398
vt 0.876079 0.265780
vt 0.808583 0.265780
vt 0.808583 0.229170
vt 0.876079 0.229170
vt 0.934071 0.265780
vt 0.934071 0.229170
vt 0.745916 0.265780
vt 0.745916 0.229170
vt 0.990427 0.265780
vt 0.990427 0.229170
vt 0.808583 0.163011
vt 0.745916 0.163011
vt 0.745916 0.160023
vt 0.808583 0.160023
vt 0.990427 0.163011
vt 0.934071 0.163011
vt 0.934071 0.160023
vt 0.990427 0.160023
vt 0.876079 0.163011
vt 0.876079 0.160023
vt 0.745916 0.117845
vt 0.808583 0.117845
vt 0.876079 0.117845
vt 0.934071 0.117845
vt 0.990427 0.117845
vt 0.127827 0.265780
vt 0.127827 0.229170
vt 0.194073 0.229170
vt 0.194073 0.265780
vt 0.069295 0.265780
vt 0.069295 0.229170
vt 0.256857 0.229170
vt 0.256857 0.265780
vt 0.012307 0.265780
vt 0.012307 0.229170
vt 0.194073 0.163011
vt 0.194073 0.160023
vt 0.256857 0.160023
vt 0.256857 0.163011
vt 0.012307 0.163011
vt 0.012307 0.160023
vt 0.069295 0.160023
vt 0.069295 0.163011
vt 0.127827 0.163011
vt 0.127827 0.160023
vt 0.256857 0.117845
vt 0.194073 0.117845
vt 0.127827 0.117845
vt 0.069295 0.117845
vt 0.012307 0.117845
vt 0.934071 0.087389
vt 0.990427 0.087389
vt 0.069295 0.087389
vt 0.127827 0.087389
vt 0.745916 0.087389
vt 0.808583 0.087389
vt 0.194073 0.087389
vt 0.012307 0.087389
vt 0.876079 0.087389
vt 0.256857 0.087389
vt 0.069295 0.225058
vt 0.127827 0.225058
vt 0.194073 0.225058
vt 0.012307 0.225058
vt 0.256857 0.225058
vt 0.934071 0.225058
vt 0.876079 0.225058
vt 0.808583 0.225058
vt 0.990427 0.225058
vt 0.745916 0.225058
vt 0.012307 0.271360
vt 0.069295 0.271360
vt 0.194073 0.271360
vt 0.256857 0.271360
vt 0.127827 0.271360
vt 0.990427 0.271360
vt 0.934071 0.271360
vt 0.808583 0.271360
vt 0.745916 0.271360
vt 0.876079 0.271360
vt 0.069295 0.676352
vt 0.127827 0.676352
vt 0.745916 0.676352
vt 0.808583 0.676352
vt 0.012307 0.676352
vt 0.876079 0.676352
vt 0.934071 0.676352
vt 0.990427 0.676352
vt 0.194073 0.676352
vt 0.256857 0.676352
vt 0.194073 0.636829
vt 0.256857 0.636829
vt 0.012307 0.636829
vt 0.069295 0.636829
vt 0.934071 0.636829
vt 0.990427 0.636829
vt 0.808583 0.636829
vt 0.876079 0.636829
vt 0.745916 0.636829
vt 0.194073 0.587252
vt 0.256857 0.587252
vt 0.012307 0.587252
vt 0.069295 0.587252
vt 0.934071 0.587252
vt 0.990427 0.587252
vt 0.808583 0.587252
vt 0.876079 0.587252
vt 0.745916 0.587252
vt 0.194073 0.530600
vt 0.256857 0.530600
vt 0.012307 0.530600
vt 0.069295 0.530600
vt 0.934071 0.530600
vt 0.990427 0.530600
vt 0.808583 0.530600
vt 0.876079 0.530600
vt 0.745916 0.530600
vt 0.194073 0.461553
vt 0.256857 0.461553
vt 0.012307 0.461553
vt 0.069295 0.461553
vt 0.934071 0.461553
vt 0.990427 0.461553
vt 0.808583 0.461553
vt 0.876079 0.461553
vt 0.745916 0.461553
vt 0.194073 0.382387
vt 0.256857 0.382387
vt 0.012307 0.382387
vt 0.069295 0.382387
vt 0.934071 0.382387
vt 0.990427 0.382387
vt 0.808583 0.382387
vt 0.876079 0.382387
vt 0.745916 0.382387
vt 0.194073 0.306835
vt 0.256857 0.306835
vt 0.012307 0.306835
vt 0.069295 0.306835
vt 0.934071 0.306835
vt 0.990427 0.306835
vt 0.808583 0.306835
vt 0.876079 0.306835
vt 0.745916 0.306835
vt 0.127827 0.382387
vt 0.127827 0.306835
vt 0.127827 0.461553
vt 0.127827 0.530600
vt 0.127827 0.587252
vt 0.127827 0.636829
vt 0.194073 0.276672
vt 0.256857 0.276672
vt 0.127827 0.276672
vt 0.069295 0.276672
vt 0.012307 0.276672
vt 0.934071 0.276672
vt 0.990427 0.276672
vt 0.876079 0.276672
vt 0.808583 0.276672
vt 0.745916 0.276672
vt 0.385887 0.705978
vt 0.385887 0.742588
vt 0.319641 0.742588
vt 0.319641 0.705978
vt 0.444419 0.705978
vt 0.444419 0.742588
vt 0.501406 0.705978
vt 0.501406 0.742588
vt 0.319641 0.808747
vt 0.319641 0.811735
vt 0.501406 0.808747
vt 0.501406 0.811735
vt 0.444419 0.811735
vt 0.444419 0.808747
vt 0.385887 0.808747
vt 0.385887 0.811735
vt 0.319641 0.853912
vt 0.385887 0.853912
vt 0.444419 0.853912
vt 0.501406 0.853912
vt 0.615754 0.705978
vt 0.683250 0.705978
vt 0.683250 0.742588
vt 0.615754 0.742588
vt 0.557762 0.705978
vt 0.557762 0.742588
vt 0.683250 0.808747
vt 0.683250 0.811735
vt 0.557762 0.808747
vt 0.557762 0.811735
vt 0.615754 0.808747
vt 0.615754 0.811735
vt 0.683250 0.853912
vt 0.615754 0.853912
vt 0.557762 0.853912
vt 0.501406 0.884369
vt 0.444419 0.884369
vt 0.615754 0.884369
vt 0.557762 0.884369
vt 0.319641 0.884369
vt 0.683250 0.884369
vt 0.385887 0.884369
vt 0.557762 0.746700
vt 0.615754 0.746700
vt 0.683250 0.746700
vt 0.501406 0.746700
vt 0.444419 0.746700
vt 0.385887 0.746700
vt 0.319641 0.746700
vt 0.501406 0.700398
vt 0.557762 0.700398
vt 0.683250 0.700398
vt 0.615754 0.700398
vt 0.444419 0.700398
vt 0.319641 0.700398
vt 0.385887 0.700398
vt 0.615754 0.265780
vt 0.615754 0.229170
vt 0.683250 0.229170
vt 0.683250 0.265780
vt 0.557762 0.265780
vt 0.557762 0.229170
vt 0.501406 0.265780
vt 0.501406 0.229170
vt 0.683250 0.163011
vt 0.683250 0.160023
vt 0.501406 0.163011
vt 0.501406 0.160023
vt 0.557762 0.160023
vt 0.557762 0.163011
vt 0.615754 0.163011
vt 0.615754 0.160023
vt 0.683250 0.117845
vt 0.615754 0.117845
vt 0.557762 0.117845
vt 0.501406 0.117845
vt 0.385887 0.265780
vt 0.319641 0.265780
vt 0.319641 0.229170
vt 0.385887 0.229170
vt 0.444419 0.265780
vt 0.444419 0.229170
vt 0.319641 0.163011
vt 0.319641 0.160023
vt 0.444419 0.163011
vt 0.444419 0.160023
vt 0.385887 0.163011
vt 0.385887 0.160023
vt 0.319641 0.117845
vt 0.385887 0.117845
vt 0.444419 0.117845
vt 0.501406 0.087389
vt 0.557762 0.087389
vt 0.385887 0.087389
vt 0.444419 0.087389
vt 0.683250 0.087389
vt 0.319641 0.087389
vt 0.615754 0.087389
vt 0.444419 0.225058
vt 0.385887 0.225058
vt 0.319641 0.225058
vt 0.501406 0.225058
vt 0.557762 0.225058
vt 0.615754 0.225058
vt 0.683250 0.225058
vt 0.501406 0.271360
vt 0.444419 0.271360
vt 0.319641 0.271360
vt 0.385887 0.271360
vt 0.557762 0.271360
vt 0.683250 0.271360
vt 0.615754 0.271360
vt 0.385887 0.676352
vt 0.444419 0.676352
vt 0.683250 0.676352
vt 0.501406 0.676352
vt 0.615754 0.676352
vt 0.557762 0.676352
vt 0.319641 0.676352
vt 0.319641 0.636829
vt 0.444419 0.636829
vt 0.501406 0.636829
vt 0.557762 0.636829
vt 0.615754 0.636829
vt 0.683250 0.636829
vt 0.319641 0.587252
vt 0.444419 0.587252
vt 0.501406 0.587252
vt 0.557762 0.587252
vt 0.615754 0.587252
vt 0.683250 0.587252
vt 0.319641 0.530600
vt 0.444419 0.530600
vt 0.501406 0.530600
vt 0.557762 0.530600
vt 0.615754 0.530600
vt 0.683250 0.530600
vt 0.319641 0.461553
vt 0.444419 0.461553
vt 0.501406 0.461553
vt 0.557762 0.461553
vt 0.615754 0.461553
vt 0.683250 0.461553
vt 0.319641 0.382387
vt 0.444419 0.382387
vt 0.501406 0.382387
vt 0.557762 0.382387
vt 0.615754 0.382387
vt 0.683250 0.382387
vt 0.319641 0.306835
vt 0.444419 0.306835
vt 0.501406 0.306835
vt 0.557762 0.306835
vt 0.615754 0.306835
vt 0.683250 0.306835
vt 0.385887 0.382387
vt 0.385887 0.306835
vt 0.385887 0.461553
vt 0.385887 0.530600
vt 0.385887 0.587252
vt 0.385887 0.636829
vt 0.319641 0.276672
vt 0.385887 0.276672
vt 0.444419 0.276672
vt 0.501406 0.276672
vt 0.557762 0.276672
vt 0.615754 0.276672
vt 0.683250 0.276672
s 1
usemtl pipe_bend
f 64/1/38 65/2/38 4/3/4 5/4/5
f 68/5/38 64/1/38 5/4/5 10/6/10
f 65/2/38 67/7/38 8/8/8 4/3/4
f 66/9/38 68/5/38 10/6/10 6/10/6
f 46/11/29 47/12/30 18/13/15 14/14/12
f 48/15/31 49/16/32 20/17/16 16/18/14
f 50/19/33 46/11/29 14/14/12 15/20/13
f 17/21/11 11/22/11 14/14/12 18/13/15
f 11/22/11 12/23/11 15/20/13 14/14/12
f 12/23/11 19/24/11 20/17/16 15/20/13
f 19/24/11 13/25/11 16/18/14 20/17/16
f 69/26/38 24/27/20 23/28/19 70/29/38
f 72/30/38 28/31/24 24/27/20 69/26/38
f 70/29/38 23/28/19 26/32/22 71/33/38
f 66/34/38 6/35/6 28/31/24 72/30/38
f 49/16/32 50/19/33 15/20/13 20/17/16
f 51/36/34 31/37/25 34/38/27 52/39/35
f 48/40/31 16/41/14 36/42/28 53/43/36
f 54/44/37 32/45/26 31/37/25 51/36/34
f 33/46/11 34/38/27 31/37/25 29/47/11
f 29/47/11 31/37/25 32/45/26 30/48/11
f 30/48/11 32/45/26 36/42/28 35/49/11
f 35/49/11 36/42/28 16/41/14 13/50/11
f 53/43/36 36/42/28 32/45/26 54/44/37
f 13/25/11 19/24/11 41/51/11 43/52/11
f 30/48/11 35/49/11 37/53/11 39/54/11
f 11/22/11 17/21/11 42/55/11 45/56/11
f 29/47/11 30/48/11 39/54/11 40/57/11
f 35/49/11 13/50/11 43/58/11 37/53/11
f 19/24/11 12/23/11 44/59/11 41/51/11
f 33/46/11 29/47/11 40/57/11 38/60/11
f 12/23/11 11/22/11 45/56/11 44/59/11
f 63/61/36 53/43/36 54/44/37 59/62/37
f 59/62/37 54/44/37 51/36/34 58/63/34
f 56/64/31 48/40/31 53/43/36 63/61/36
f 58/63/34 51/36/34 52/39/35 62/65/35
f 61/66/32 57/67/33 50/19/33 49/16/32
f 57/67/33 55/68/29 46/11/29 50/19/33
f 56/69/31 61/66/32 49/16/32 48/15/31
f 55/68/29 60/70/30 47/12/30 46/11/29
f 4/3/4 8/8/8 60/70/30 55/68/29
f 6/10/6 10/6/10 61/66/32 56/69/31
f 5/4/5 4/3/4 55/68/29 57/67/33
f 10/6/10 5/4/5 57/67/33 61/66/32
f 23/28/19 58/63/34 62/65/35 26/32/22
f 6/35/6 56/64/31 63/61/36 28/31/24
f 24/27/20 59/62/37 58/63/34 23/28/19
f 28/31/24 63/61/36 59/62/37 24/27/20
f 3/71/3 66/34/38 72/30/38 27/72/23
f 21/73/17 70/29/38 71/33/38 25/74/21
f 27/72/23 72/30/38 69/26/38 22/75/18
f 22/75/18 69/26/38 70/29/38 21/73/17
f 3/76/3 9/77/9 68/5/38 66/9/38
f 1/78/1 7/79/7 67/7/38 65/2/38
f 9/77/9 2/80/2 64/1/38 68/5/38
f 2/80/2 1/78/1 65/2/38 64/1/38
f 136/81/35 137/82/35 76/83/42 77/84/43
f 140/85/35 136/81/35 77/84/43 82/86/48
f 137/82/35 139/87/35 80/88/46 76/83/42
f 138/89/35 140/85/35 82/86/48 78/90/44
f 118/91/66 119/92/38 90/93/52 86/94/49
f 120/95/31 121/96/67 92/97/53 88/98/51
f 122/99/68 118/91/66 86/94/49 87/100/50
f 89/101/30 83/102/30 86/94/49 90/93/52
f 83/102/30 84/103/30 87/100/50 86/94/49
f 84/103/30 91/104/30 92/97/53 87/100/50
f 91/104/30 85/105/30 88/98/51 92/97/53
f 141/106/35 96/107/57 95/108/56 142/109/35
f 144/110/35 100/111/61 96/107/57 141/106/35
f 142/109/35 95/108/56 98/112/59 143/113/35
f 138/114/35 78/115/44 100/111/61 144/110/35
f 121/96/67 122/99/68 87/100/50 92/97/53
f 123/116/69 103/117/62 106/118/64 124/119/11
f 120/120/31 88/121/51 108/122/65 125/123/70
f 126/124/71 104/125/63 103/117/62 123/116/69
f 105/126/30 106/118/64 103/117/62 101/127/30
f 101/127/30 103/117/62 104/125/63 102/128/30
f 102/128/30 104/125/63 108/122/65 107/129/30
f 107/129/30 108/122/65 88/121/51 85/130/30
f 125/123/70 108/122/65 104/125/63 126/124/71
f 85/105/30 91/104/30 113/131/30 115/132/30
f 102/128/30 107/129/30 109/133/30 111/134/30
f 83/102/30 89/101/30 114/135/30 117/136/30
f 101/127/30 102/128/30 111/134/30 112/137/30
f 107/129/30 85/130/30 115/138/30 109/133/30
f 91/104/30 84/103/30 116/139/30 113/131/30
f 105/126/30 101/127/30 112/137/30 110/140/30
f 84/103/30 83/102/30 117/136/30 116/139/30
f 135/141/70 125/123/70 126/124/71 131/142/71
f 131/142/71 126/124/71 123/116/69 130/143/69
f 128/144/31 120/120/31 125/123/70 135/141/70
f 130/143/69 123/116/69 124/119/11 134/145/11
f 133/146/67 129/147/68 122/99/68 121/96/67
f 129/147/68 127/148/66 118/91/66 122/99/68
f 128/149/31 133/146/67 121/96/67 120/95/31
f 127/148/66 132/150/38 119/92/38 118/91/66
f 76/83/42 80/88/46 132/150/38 127/148/66
f 78/90/44 82/86/48 133/146/67 128/149/31
f 77/84/43 76/83/42 127/148/66 129/147/68
f 82/86/48 77/84/43 129/147/68 133/146/67
f 95/108/56 130/143/69 134/145/11 98/112/59
f 78/115/44 128/144/31 135/141/70 100/111/61
f 96/107/57 131/142/71 130/143/69 95/108/56
f 100/111/61 135/141/70 131/142/71 96/107/57
f 75/151/41 138/114/35 144/110/35 99/152/60
f 93/153/54 142/109/35 143/113/35 97/154/58
f 99/152/60 144/110/35 141/106/35 94/155/55
f 94/155/55 141/106/35 142/109/35 93/153/54
f 75/156/41 81/157/47 140/85/35 138/89/35
f 73/158/39 79/159/45 139/87/35 137/82/35
f 81/157/47 74/160/40 136/81/35 140/85/35
f 74/160/40 73/158/39 137/82/35 136/81/35
f 2/80/2 9/77/9 149/161/76 146/162/73
f 21/73/17 25/74/21 152/163/79 150/164/77
f 9/77/9 3/76/3 147/165/74 149/161/76
f 22/75/18 21/73/17 150/164/77 151/166/78
f 27/72/23 22/75/18 151/166/78 153/167/80
f 3/71/3 27/72/23 153/167/80 147/168/74
f 7/79/7 1/78/1 145/169/72 148/170/75
f 1/78/1 2/80/2 146/162/73 145/169/72
f 145/169/72 196/171/123 155/172/82 148/170/75
f 147/165/74 158/173/85 157/174/84 149/161/76
f 153/167/80 184/175/111 158/176/85 147/168/74
f 150/164/77 160/177/87 159/178/86 151/166/78
f 152/163/79 161/179/88 160/177/87 150/164/77
f 196/171/123 197/180/124 162/181/89 155/172/82
f 151/166/78 159/178/86 184/175/111 153/167/80
f 158/173/85 165/182/92 164/183/91 157/174/84
f 184/175/111 177/184/104 165/185/92 158/176/85
f 160/177/87 167/186/94 166/187/93 159/178/86
f 161/179/88 168/188/95 167/186/94 160/177/87
f 197/180/124 198/189/125 169/190/96 162/181/89
f 159/178/86 166/187/93 177/184/104 184/175/111
f 165/182/92 172/191/99 171/192/98 164/183/91
f 177/184/104 170/193/97 172/194/99 165/185/92
f 167/186/94 174/195/101 173/196/100 166/187/93
f 168/188/95 175/197/102 174/195/101 167/186/94
f 198/189/125 199/198/126 176/199/103 169/190/96
f 166/187/93 173/196/100 170/193/97 177/184/104
f 172/191/99 179/200/106 178/201/105 171/192/98
f 170/193/97 163/202/90 179/203/106 172/194/99
f 174/195/101 181/204/108 180/205/107 173/196/100
f 175/197/102 182/206/109 181/204/108 174/195/101
f 199/198/126 200/207/127 183/208/110 176/199/103
f 173/196/100 180/205/107 163/202/90 170/193/97
f 179/200/106 186/209/113 185/210/112 178/201/105
f 163/202/90 156/211/83 186/212/113 179/203/106
f 181/204/108 188/213/115 187/214/114 180/205/107
f 182/206/109 189/215/116 188/213/115 181/204/108
f 200/207/127 201/216/128 190/217/117 183/208/110
f 180/205/107 187/214/114 156/211/83 163/202/90
f 186/209/113 192/218/119 191/219/118 185/210/112
f 156/211/83 154/220/81 192/221/119 186/212/113
f 188/213/115 194/222/121 193/223/120 187/214/114
f 189/215/116 195/224/122 194/222/121 188/213/115
f 187/214/114 193/223/120 154/220/81 156/211/83
f 206/225/133 207/226/134 201/216/128 200/207/127
f 205/227/132 206/225/133 200/207/127 199/198/126
f 204/228/131 205/227/132 199/198/126 198/189/125
f 203/229/130 204/228/131 198/189/125 197/180/124
f 202/230/129 203/229/130 197/180/124 196/171/123
f 185/210/112 191/219/118 207/226/134 206/225/133
f 178/201/105 185/210/112 206/225/133 205/227/132
f 171/192/98 178/201/105 205/227/132 204/228/131
f 164/183/91 171/192/98 204/228/131 203/229/130
f 157/174/84 164/183/91 203/229/130 202/230/129
f 149/161/76 157/174/84 202/230/129 146/162/73
f 146/162/73 202/230/129 196/171/123 145/169/72
f 208/231/135 209/232/136 190/217/117 201/216/128
f 210/233/137 208/231/135 201/216/128 207/226/134
f 211/234/138 210/233/137 207/226/134 191/219/118
f 212/235/139 211/234/138 191/219/118 192/218/119
f 213/236/140 212/237/139 192/221/119 154/220/81
f 214/238/141 213/236/140 154/220/81 193/223/120
f 215/239/142 214/238/141 193/223/120 194/222/121
f 216/240/143 215/239/142 194/222/121 195/224/122
f 79/159/45 73/158/39 215/239/142 216/240/143
f 73/158/39 74/160/40 214/238/141 215/239/142
f 74/160/40 81/157/47 213/236/140 214/238/141
f 81/157/47 75/156/41 212/237/139 213/236/140
f 75/151/41 99/152/60 211/234/138 212/235/139
f 99/152/60 94/155/55 210/233/137 211/234/138
f 94/155/55 93/153/54 208/231/135 210/233/137
f 93/153/54 97/154/58 209/232/136 208/231/135
f 266/241/38 221/242/148 220/243/147 267/244/38
f 269/245/38 224/246/151 221/242/148 266/241/38
f 267/244/38 220/243/147 8/8/8 67/7/38
f 268/247/38 222/248/149 224/246/151 269/245/38
f 252/249/165 228/250/152 18/13/15 47/12/30
f 253/251/166 230/252/154 232/253/155 254/254/167
f 255/255/168 229/256/153 228/250/152 252/249/165
f 17/21/11 18/13/15 228/250/152 225/257/11
f 225/257/11 228/250/152 229/256/153 226/258/11
f 226/258/11 229/256/153 232/253/155 231/259/11
f 231/259/11 232/253/155 230/252/154 227/260/11
f 270/261/38 271/262/38 235/263/158 236/264/159
f 272/265/38 270/261/38 236/264/159 238/266/161
f 271/262/38 71/33/38 26/32/22 235/263/158
f 268/247/38 272/265/38 238/266/161 222/248/149
f 254/254/167 232/253/155 229/256/153 255/255/168
f 256/267/169 52/39/35 34/38/27 241/268/162
f 253/251/166 257/269/170 244/270/164 230/252/154
f 258/271/171 256/267/169 241/268/162 242/272/163
f 33/46/11 239/273/11 241/268/162 34/38/27
f 239/273/11 240/274/11 242/272/163 241/268/162
f 240/274/11 243/275/11 244/270/164 242/272/163
f 243/275/11 227/260/11 230/252/154 244/270/164
f 257/269/170 258/271/171 242/272/163 244/270/164
f 227/260/11 249/276/11 248/277/11 231/259/11
f 240/274/11 246/278/11 245/279/11 243/275/11
f 225/257/11 251/280/11 42/55/11 17/21/11
f 239/273/11 247/281/11 246/278/11 240/274/11
f 243/275/11 245/279/11 249/276/11 227/260/11
f 231/259/11 248/277/11 250/282/11 226/258/11
f 33/46/11 38/60/11 247/281/11 239/273/11
f 226/258/11 250/282/11 251/280/11 225/257/11
f 265/283/170 263/284/171 258/271/171 257/269/170
f 263/284/171 262/285/169 256/267/169 258/271/171
f 260/286/166 265/283/170 257/269/170 253/251/166
f 262/285/169 62/65/35 52/39/35 256/267/169
f 264/287/167 254/254/167 255/255/168 261/288/168
f 261/288/168 255/255/168 252/249/165 259/289/165
f 260/286/166 253/251/166 254/254/167 264/287/167
f 259/289/165 252/249/165 47/12/30 60/70/30
f 220/243/147 259/289/165 60/70/30 8/8/8
f 222/248/149 260/286/166 264/287/167 224/246/151
f 221/242/148 261/288/168 259/289/165 220/243/147
f 224/246/151 264/287/167 261/288/168 221/242/148
f 235/263/158 26/32/22 62/65/35 262/285/169
f 222/248/149 238/266/161 265/283/170 260/286/166
f 236/264/159 235/263/158 262/285/169 263/284/171
f 238/266/161 236/264/159 263/284/171 265/283/170
f 219/290/146 237/291/160 272/265/38 268/247/38
f 233/292/156 25/74/21 71/33/38 271/262/38
f 237/291/160 234/293/157 270/261/38 272/265/38
f 234/293/157 233/292/156 271/262/38 270/261/38
f 219/290/146 268/247/38 269/245/38 223/294/150
f 217/295/144 267/244/38 67/7/38 7/79/7
f 223/294/150 269/245/38 266/241/38 218/296/145
f 218/296/145 266/241/38 267/244/38 217/295/144
f 322/297/35 277/298/176 276/299/175 323/300/35
f 325/301/35 280/302/179 277/298/176 322/297/35
f 323/300/35 276/299/175 80/88/46 139/87/35
f 324/303/35 278/304/177 280/302/179 325/301/35
f 308/305/193 284/306/180 90/93/52 119/92/38
f 309/307/166 286/308/182 288/309/183 310/310/194
f 311/311/195 285/312/181 284/306/180 308/305/193
f 89/101/30 90/93/52 284/306/180 281/313/30
f 281/313/30 284/306/180 285/312/181 282/314/30
f 282/314/30 285/312/181 288/309/183 287/315/30
f 287/315/30 288/309/183 286/308/182 283/316/30
f 326/317/35 327/318/35 291/319/186 292/320/187
f 328/321/35 326/317/35 292/320/187 294/322/189
f 327/318/35 143/113/35 98/112/59 291/319/186
f 324/303/35 328/321/35 294/322/189 278/304/177
f 310/310/194 288/309/183 285/312/181 311/311/195
f 312/323/196 124/119/11 106/118/64 297/324/190
f 309/307/166 313/325/197 300/326/192 286/308/182
f 314/327/198 312/323/196 297/324/190 298/328/191
f 105/126/30 295/329/30 297/324/190 106/118/64
f 295/329/30 296/330/30 298/328/191 297/324/190
f 296/330/30 299/331/30 300/326/192 298/328/191
f 299/331/30 283/316/30 286/308/182 300/326/192
f 313/325/197 314/327/198 298/328/191 300/326/192
f 283/316/30 305/332/30 304/333/30 287/315/30
f 296/330/30 302/334/30 301/335/30 299/331/30
f 281/313/30 307/336/30 114/135/30 89/101/30
f 295/329/30 303/337/30 302/334/30 296/330/30
f 299/331/30 301/335/30 305/332/30 283/316/30
f 287/315/30 304/333/30 306/338/30 282/314/30
f 105/126/30 110/140/30 303/337/30 295/329/30
f 282/314/30 306/338/30 307/336/30 281/313/30
f 321/339/197 319/340/198 314/327/198 313/325/197
f 319/340/198 318/341/196 312/323/196 314/327/198
f 316/342/166 321/339/197 313/325/197 309/307/166
f 318/341/196 134/145/11 124/119/11 312/323/196
f 320/343/194 310/310/194 311/311/195 317/344/195
f 317/344/195 311/311/195 308/305/193 315/345/193
f 316/342/166 309/307/166 310/310/194 320/343/194
f 315/345/193 308/305/193 119/92/38 132/150/38
f 276/299/175 315/345/193 132/150/38 80/88/46
f 278/304/177 316/342/166 320/343/194 280/302/179
f 277/298/176 317/344/195 315/345/193 276/299/175
f 280/302/179 320/343/194 317/344/195 277/298/176
f 291/319/186 98/112/59 134/145/11 318/341/196
f 278/304/177 294/322/189 321/339/197 316/342/166
f 292/320/187 291/319/186 318/341/196 319/340/198
f 294/322/189 292/320/187 319/340/198 321/339/197
f 275/346/174 293/347/188 328/321/35 324/303/35
f 289/348/184 97/154/58 143/113/35 327/318/35
f 293/347/188 290/349/185 326/317/35 328/321/35
f 290/349/185 289/348/184 327/318/35 326/317/35
f 275/346/174 324/303/35 325/301/35 279/350/178
f 273/351/172 323/300/35 139/87/35 79/159/45
f 279/350/178 325/301/35 322/297/35 274/352/173
f 274/352/173 322/297/35 323/300/35 273/351/172
f 218/296/145 330/353/200 332/354/202 223/294/150
f 233/292/156 333/355/203 152/163/79 25/74/21
f 223/294/150 332/354/202 331/356/201 219/290/146
f 234/293/157 334/357/204 333/355/203 233/292/156
f 237/291/160 335/358/205 334/357/204 234/293/157
f 219/290/146 331/356/201 335/358/205 237/291/160
f 7/79/7 148/170/75 329/359/199 217/295/144
f 217/295/144 329/359/199 330/353/200 218/296/145
f 329/359/199 148/170/75 155/172/82 366/360/236
f 331/356/201 332/354/202 338/361/208 339/362/209
f 335/358/205 331/356/201 339/362/209 357/363/227
f 333/355/203 334/357/204 340/364/210 341/365/211
f 152/163/79 333/355/203 341/365/211 161/179/88
f 366/360/236 155/172/82 162/181/89 367/366/237
f 334/357/204 335/358/205 357/363/227 340/364/210
f 339/362/209 338/361/208 343/367/213 344/368/214
f 357/363/227 339/362/209 344/368/214 352/369/222
f 341/365/211 340/364/210 345/370/215 346/371/216
f 161/179/88 341/365/211 346/371/216 168/188/95
f 367/366/237 162/181/89 169/190/96 368/372/238
f 340/364/210 357/363/227 352/369/222 345/370/215
f 344/368/214 343/367/213 348/373/218 349/374/219
f 352/369/222 344/368/214 349/374/219 347/375/217
f 346/371/216 345/370/215 350/376/220 351/377/221
f 168/188/95 346/371/216 351/377/221 175/197/102
f 368/372/238 169/190/96 176/199/103 369/378/239
f 345/370/215 352/369/222 347/375/217 350/376/220
f 349/374/219 348/373/218 353/379/223 354/380/224
f 347/375/217 349/374/219 354/380/224 342/381/212
f 351/377/221 350/376/220 355/382/225 356/383/226
f 175/197/102 351/377/221 356/383/226 182/206/109
f 369/378/239 176/199/103 183/208/110 370/384/240
f 350/376/220 347/375/217 342/381/212 355/382/225
f 354/380/224 353/379/223 358/385/228 359/386/229
f 342/381/212 354/380/224 359/386/229 337/387/207
f 356/383/226 355/382/225 360/388/230 361/389/231
f 182/206/109 356/383/226 361/389/231 189/215/116
f 370/384/240 183/208/110 190/217/117 371/390/241
f 355/382/225 342/381/212 337/387/207 360/388/230
f 359/386/229 358/385/228 362/391/232 363/392/233
f 337/387/207 359/386/229 363/392/233 336/393/206
f 361/389/231 360/388/230 364/394/234 365/395/235
f 189/215/116 361/389/231 365/395/235 195/224/122
f 360/388/230 337/387/207 336/393/206 364/394/234
f 376/396/246 370/384/240 371/390/241 377/397/247
f 375/398/245 369/378/239 370/384/240 376/396/246
f 374/399/244 368/372/238 369/378/239 375/398/245
f 373/400/243 367/366/237 368/372/238 374/399/244
f 372/401/242 366/360/236 367/366/237 373/400/243
f 358/385/228 376/396/246 377/397/247 362/391/232
f 353/379/223 375/398/245 376/396/246 358/385/228
f 348/373/218 374/399/244 375/398/245 353/379/223
f 343/367/213 373/400/243 374/399/244 348/373/218
f 338/361/208 372/401/242 373/400/243 343/367/213
f 332/354/202 330/353/200 372/401/242 338/361/208
f 330/353/200 329/359/199 366/360/236 372/401/242
f 378/402/248 371/390/241 190/217/117 209/232/136
f 379/403/249 377/397/247 371/390/241 378/402/248
f 380/404/250 362/391/232 377/397/247 379/403/249
f 381/405/251 363/392/233 362/391/232 380/404/250
f 382/406/252 336/393/206 363/392/233 381/405/251
f 383/407/253 364/394/234 336/393/206 382/406/252
f 384/408/254 365/395/235 364/394/234 383/407/253
f 216/240/143 195/224/122 365/395/235 384/408/254
f 79/159/45 216/240/143 384/408/254 273/351/172
f 273/351/172 384/408/254 383/407/253 274/352/173
f 274/352/173 383/407/253 382/406/252 279/350/178
f 279/350/178 382/406/252 381/405/251 275/346/174
f 275/346/174 381/405/251 380/404/250 293/347/188
f 293/347/188 380/404/250 379/403/249 290/349/185
f 290/349/185 379/403/249 378/402/248 289/348/184
f 289/348/184 378/402/248 209/232/136 97/154/58
