# Blender 5.0.1
# www.blender.org
mtllib papir_stroj.mtl
o papirovac
v -0.747188 -0.747188 -1.000000
v -0.747188 0.247188 -1.000000
v 0.747188 0.247188 -1.000000
v 0.747188 -0.747188 -1.000000
v -0.646263 -0.700775 0.945488
v -0.700775 -0.646263 0.945488
v -0.755287 -0.755287 1.000000
v -0.724172 0.950979 0.780631
v -0.702274 1.000000 0.702274
v -0.780631 0.950979 0.724172
v -1.000000 -0.943798 -0.943798
v -0.943798 -0.943798 -1.000000
v -0.945488 -1.000000 -0.945488
v -0.780631 0.950979 -0.724172
v -0.702274 1.000000 -0.702274
v -0.724172 0.950979 -0.780631
v 0.700775 -0.646263 0.945488
v 0.646263 -0.700775 0.945488
v 0.755287 -0.755287 1.000000
v 0.780631 0.950979 0.723739
v 0.702274 1.000000 0.702274
v 0.724172 0.950979 0.780631
v 0.943798 -0.943798 -1.000000
v 1.000000 -0.945488 -0.943299
v 0.945488 -1.000000 -0.945488
v 0.724172 0.950979 -0.780631
v 0.702274 1.000000 -0.702274
v 0.780631 0.950979 -0.723739
v -0.700775 0.146263 0.945488
v -0.646263 0.200775 0.945488
v -0.755287 0.255287 1.000000
v -1.000000 0.500000 -0.943662
v -0.943662 0.500000 -1.000000
v 0.943662 0.500000 -1.000000
v 1.000000 0.500000 -0.943212
v 0.700775 0.146263 0.945488
v 0.755287 0.255287 1.000000
v 0.646263 0.200775 0.945488
v -1.054512 -0.692676 0.747188
v -1.054512 -0.747188 0.692676
v -1.000000 -0.801700 0.801700
v -1.054512 0.192676 0.747188
v -1.000000 0.301700 0.801700
v -1.054512 0.247188 0.692676
v -1.054512 0.247188 -0.692676
v -1.000000 0.301700 -0.801700
v -1.054512 0.192676 -0.747188
v -1.054512 -0.747188 -0.692676
v -1.054512 -0.692676 -0.747188
v -1.000000 -0.801700 -0.801700
v -1.319648 -0.516981 0.571494
v -1.319648 -0.571494 0.516981
v -1.374161 -0.626006 0.626006
v -1.319648 0.016981 0.571494
v -1.374161 0.126006 0.626006
v -1.319648 0.071494 0.516981
v -1.319648 -0.571494 -0.516981
v -1.319648 -0.516981 -0.571494
v -1.374161 -0.626006 -0.626006
v -1.319648 0.071494 -0.516981
v -1.374161 0.126006 -0.626006
v -1.319648 0.016981 -0.571494
v -1.374161 -0.692676 0.692676
v -1.319648 -0.747188 0.692676
v -1.319648 -0.692676 0.747188
v -1.319648 0.192676 0.747188
v -1.319648 0.247188 0.692676
v -1.374161 0.192676 0.692676
v -1.374161 -0.692676 -0.692676
v -1.319648 -0.692676 -0.747188
v -1.319648 -0.747188 -0.692676
v -1.319648 0.247188 -0.692676
v -1.319648 0.192676 -0.747188
v -1.374161 0.192676 -0.692676
v -1.319648 -0.516981 0.571494
v -1.265136 -0.516981 0.516981
v -1.319648 -0.571494 0.516981
v -1.319648 0.016981 0.571494
v -1.319648 0.071494 0.516981
v -1.265136 0.016981 0.516981
v -1.319648 -0.571494 -0.516981
v -1.265136 -0.516981 -0.516981
v -1.319648 -0.516981 -0.571494
v -1.319648 0.071494 -0.516981
v -1.319648 0.016981 -0.571494
v -1.265136 0.016981 -0.516981
v 1.000000 0.500000 0.943212
v 0.943662 0.500000 1.000000
v 0.945488 -1.000000 0.945488
v 1.000000 -0.945488 0.943299
v 0.943798 -0.943798 1.000000
v -0.945488 -1.000000 0.945488
v -0.943798 -0.943798 1.000000
v -1.000000 -0.943798 0.943798
v -1.000000 0.500000 0.943662
v -0.943662 0.500000 1.000000
v 0.700775 0.146263 0.883149
v 0.646263 0.200775 0.883149
v 0.646263 0.146263 0.828636
v 0.700775 -0.646263 0.883149
v 0.646263 -0.646263 0.828636
v 0.646263 -0.700775 0.883149
v -0.646263 -0.700775 0.883149
v -0.646263 -0.646263 0.828636
v -0.700775 -0.646263 0.883149
v -0.700775 0.146263 0.883149
v -0.646263 0.146263 0.828636
v -0.646263 0.200775 0.883149
vn -0.0000 -0.0000 -1.0000
vn 0.0269 0.8943 0.4467
vn 0.8871 0.0419 0.4597
vn 0.0736 0.1133 0.9908
vn -0.0271 0.5112 0.8590
vn -0.0323 0.9990 0.0324
vn -0.8590 0.5112 0.0271
vn -0.9775 -0.1653 -0.1310
vn -0.1072 -0.1352 -0.9850
vn -0.0285 -0.9992 -0.0284
vn -0.8590 0.5112 -0.0271
vn -0.0324 0.9990 -0.0323
vn -0.0271 0.5112 -0.8590
vn -0.8871 0.0418 0.4597
vn -0.0270 0.8943 0.4467
vn -0.0736 0.1133 0.9908
vn 0.8590 0.5112 0.0271
vn 0.0324 0.9990 0.0324
vn 0.0274 0.5113 0.8590
vn 0.1081 -0.1352 -0.9849
vn 0.9990 -0.0358 -0.0284
vn 0.0276 -0.9992 -0.0284
vn 0.0273 0.5113 -0.8590
vn 0.0323 0.9990 -0.0324
vn 0.8590 0.5112 -0.0271
vn 0.8871 -0.0418 0.4597
vn 0.0270 -0.8943 0.4467
vn 0.0648 -0.0995 0.9929
vn -0.8871 -0.0419 0.4597
vn -0.0647 -0.0996 0.9929
vn -0.0269 -0.8943 0.4467
vn -0.1887 -0.0513 0.9807
vn -0.1817 -0.9828 0.0338
vn -0.9849 -0.1436 0.0964
vn -0.1887 0.0513 0.9807
vn -0.9890 0.1230 0.0826
vn -0.1817 0.9828 0.0337
vn -0.1817 0.9828 -0.0338
vn -0.9890 0.1230 -0.0826
vn -0.1887 0.0513 -0.9807
vn -0.1817 -0.9828 -0.0337
vn -0.1887 -0.0513 -0.9807
vn -0.9849 -0.1436 -0.0964
vn -0.7339 0.0276 -0.6787
vn -0.7229 0.6907 -0.0161
vn -0.9576 0.2501 -0.1433
vn -0.7339 -0.0276 -0.6787
vn -0.9576 -0.2500 -0.1433
vn -0.7229 -0.6908 -0.0161
vn -0.7229 0.6908 0.0161
vn -0.7339 0.0276 0.6787
vn -0.9576 0.2500 0.1433
vn -0.7229 -0.6907 0.0161
vn -0.9576 -0.2501 0.1433
vn -0.7339 -0.0276 0.6787
vn -0.9461 -0.2720 0.1757
vn -0.1654 -0.9856 0.0342
vn -0.1640 -0.0525 0.9851
vn -0.1639 0.0525 0.9851
vn -0.1654 0.9856 0.0342
vn -0.9461 0.2721 0.1757
vn -0.9461 -0.2721 -0.1757
vn -0.1639 -0.0525 -0.9851
vn -0.1654 -0.9856 -0.0342
vn -0.1654 0.9856 -0.0342
vn -0.1640 0.0525 -0.9851
vn -0.9461 0.2720 -0.1757
vn -0.7067 0.0343 -0.7067
vn -0.9948 0.0900 -0.0476
vn -0.7070 0.7070 -0.0181
vn -0.7067 -0.0343 -0.7067
vn -0.7070 -0.7070 -0.0181
vn -0.9948 -0.0900 -0.0476
vn -0.7070 0.7070 0.0181
vn -0.9948 0.0900 0.0476
vn -0.7067 0.0343 0.7067
vn -0.7070 -0.7070 0.0181
vn -0.7067 -0.0343 0.7067
vn -0.9948 -0.0900 0.0476
vn 0.0276 -0.9992 0.0284
vn 0.9990 -0.0358 0.0284
vn 0.1109 -0.1388 0.9841
vn -0.0284 -0.9992 0.0285
vn -0.1100 -0.1388 0.9842
vn -0.9775 -0.1653 0.1310
vn -0.9081 -0.0455 0.4162
vn -0.0284 -0.9076 0.4188
vn -0.0391 -0.0629 0.9973
vn -0.9081 0.0455 0.4162
vn -0.0391 0.0629 0.9973
vn -0.0284 0.9076 0.4188
vn 0.0284 0.9076 0.4188
vn 0.0391 0.0629 0.9973
vn 0.9081 0.0455 0.4162
vn 0.9081 -0.0455 0.4162
vn 0.0391 -0.0629 0.9973
vn 0.0284 -0.9076 0.4188
vn -0.0284 -0.9992 -0.0285
vn -0.9775 -0.1652 0.1311
vn -0.9775 -0.1652 -0.1310
vn -0.0684 0.2505 0.9657
vn -0.9599 0.2706 0.0739
vn -0.0324 0.9990 0.0324
vn -0.0324 0.9990 -0.0324
vn -0.8590 0.5112 0.0272
vn -0.0675 0.2475 -0.9665
vn -0.9599 0.2706 -0.0739
vn -0.1071 -0.1352 -0.9850
vn 0.1081 -0.1351 -0.9849
vn 0.0324 0.9990 -0.0324
vn -0.0272 0.5112 -0.8590
vn 0.9937 0.1082 -0.0295
vn 0.0681 0.2475 -0.9665
vn 0.0276 -0.9992 -0.0285
vn 0.0324 0.9990 -0.0323
vn 0.0324 0.9990 0.0323
vn 0.8590 0.5112 -0.0272
vn 0.0690 0.2506 0.9656
vn 0.9937 0.1082 0.0295
vn -0.0285 -0.9992 0.0284
vn 0.1110 -0.1388 0.9841
vn -0.9775 -0.1652 0.1310
vn -0.0676 0.2474 -0.9666
vn 0.9937 0.1082 -0.0296
vn 0.0273 0.5113 0.8590
vn 0.0690 0.2505 0.9657
vn 0.9937 0.1082 0.0296
vn -0.9890 0.1230 0.0825
vn -0.1887 0.0512 0.9807
vn -0.9849 -0.1436 -0.0963
vn -0.9849 -0.1436 0.0963
vn -0.1817 -0.9828 0.0337
vn -0.9890 0.1229 0.0825
vn -0.9890 0.1229 -0.0826
vn -0.1817 0.9828 -0.0337
vn -0.9890 0.1230 -0.0825
vn -0.1887 -0.0512 -0.9807
vn -0.1639 -0.0525 0.9851
vn -0.9461 0.2721 0.1758
vn -0.9461 -0.2721 0.1758
vn -0.9461 -0.2721 -0.1758
vn -0.9461 0.2721 -0.1758
vn -0.1639 0.0525 -0.9851
vn -0.1817 0.9828 0.0336
vn -0.1640 0.0525 0.9851
vn -0.1817 -0.9828 0.0336
vn -0.1817 -0.9828 -0.0336
vn -0.1640 -0.0525 -0.9851
vn -0.1817 0.9828 -0.0336
vn -0.9576 0.2501 -0.1432
vn -0.9576 -0.2500 -0.1432
vn -0.9576 0.2501 0.1433
vn -0.9576 0.2500 -0.1432
vn -0.7229 0.6908 -0.0161
vn -0.9576 -0.2501 -0.1433
vn -0.9576 -0.2500 0.1432
vn -0.7229 -0.6908 0.0161
vn -0.9576 -0.2501 0.1432
vn -0.9576 0.2500 0.1432
vn -0.7070 0.7070 0.0182
vn -0.7070 0.7070 -0.0182
vn -0.7070 -0.7070 -0.0182
vn -0.7070 -0.7070 0.0182
vn -0.8871 -0.0419 0.4598
vn -0.8871 0.0419 0.4598
vn -0.0735 0.1133 0.9908
vn -0.0646 -0.0996 0.9929
vn 0.0736 0.1132 0.9908
vn -0.0736 0.1132 0.9908
vn -0.0270 0.8942 0.4468
vn 0.0270 0.8942 0.4468
vn 0.8871 0.0419 0.4598
vn 0.8871 -0.0419 0.4598
vn 0.0646 -0.0996 0.9929
vn 0.0735 0.1132 0.9908
vn -0.0646 -0.0995 0.9929
vn 0.0647 -0.0995 0.9929
vn 0.0270 -0.8942 0.4468
vn -0.0270 -0.8942 0.4468
vn -0.0391 0.0630 0.9973
vn -0.9081 0.0455 0.4163
vn -0.9081 -0.0455 0.4163
vn 0.0284 0.9076 0.4189
vn -0.0284 0.9076 0.4189
vn 0.0391 -0.0630 0.9973
vn 0.9081 -0.0455 0.4163
vn 0.9081 0.0455 0.4163
vn -0.0284 -0.9076 0.4189
vn 0.0284 -0.9076 0.4189
vn 0.0269 0.8942 0.4468
vn 0.8871 0.0418 0.4597
vn 0.0269 -0.8942 0.4468
vn -0.0269 -0.8942 0.4468
vn -0.8871 -0.0418 0.4597
vn -0.0269 0.8942 0.4468
vn 0.0270 0.8943 0.4467
vn -0.1101 -0.1388 0.9842
vn 0.8871 -0.0419 0.4597
vn -0.0684 0.2506 0.9657
vn -0.9849 -0.1435 0.0964
vn -0.9849 -0.1435 -0.0964
vn -0.0285 -0.9992 -0.0285
vn 0.0276 -0.9992 0.0285
vn -0.0285 -0.9992 0.0285
vn -0.9599 0.2705 -0.0738
vn -0.9890 0.1229 -0.0825
vn -0.0676 0.2475 -0.9665
vn 0.0682 0.2475 -0.9665
vn -0.8871 0.0419 0.4597
vn -0.0647 -0.0995 0.9929
vn 0.0682 0.2474 -0.9665
vn -0.0270 -0.8943 0.4467
vn 0.0681 0.2474 -0.9665
vn -0.9599 0.2705 0.0739
vn -0.9599 0.2705 -0.0739
vn -0.1816 -0.9828 -0.0337
vn -0.1816 -0.9828 0.0337
vn -0.1816 0.9828 0.0337
vn -0.1816 0.9828 -0.0337
vn -0.7067 -0.0343 -0.7066
vn -0.7067 0.0343 -0.7066
vn -0.9461 -0.2720 -0.1758
vn -0.9461 -0.2720 0.1758
vn -0.9461 0.2720 0.1758
vn -0.7230 0.6907 0.0160
vn -0.7230 0.6907 -0.0160
vn -0.7230 -0.6907 -0.0160
vn -0.7230 -0.6907 0.0160
vn -0.9461 0.2720 -0.1758
vn -0.7067 0.0343 0.7066
vn -0.7067 -0.0343 0.7066
vt 0.406601 0.281601
vt 0.530899 0.281601
vt 0.530899 0.468398
vt 0.406601 0.468398
vt 0.412403 0.955783
vt 0.419217 0.962597
vt 0.405589 0.969411
vt 0.621203 0.000000
vt 0.625000 0.009004
vt 0.618872 0.008297
vt 0.125000 0.507025
vt 0.132025 0.500000
vt 0.131814 0.506814
vt 0.618872 0.241703
vt 0.625000 0.246999
vt 0.619455 0.256223
vt 0.419217 0.787403
vt 0.412403 0.794217
vt 0.405589 0.780589
vt 0.619460 0.743727
vt 0.629502 0.750000
vt 0.618872 0.758297
vt 0.376405 0.495785
vt 0.380111 0.507088
vt 0.368186 0.506814
vt 0.618872 0.491703
vt 0.629502 0.500000
vt 0.619460 0.506273
vt 0.518283 0.962597
vt 0.525097 0.955783
vt 0.531911 0.969411
vt 0.518283 0.787403
vt 0.531911 0.780589
vt 0.525097 0.794217
vt 0.413416 0.031601
vt 0.406601 0.038416
vt 0.399787 0.024787
vt 0.524084 0.031601
vt 0.537713 0.024787
vt 0.530899 0.038416
vt 0.530899 0.211584
vt 0.537713 0.225213
vt 0.524084 0.218398
vt 0.406601 0.211584
vt 0.413416 0.218398
vt 0.399787 0.225213
vt 0.435377 0.053563
vt 0.428563 0.060377
vt 0.421749 0.046749
vt 0.502123 0.053563
vt 0.515751 0.046749
vt 0.508937 0.060377
vt 0.428563 0.189623
vt 0.435377 0.196437
vt 0.421749 0.203251
vt 0.508937 0.189623
vt 0.515751 0.203251
vt 0.502123 0.196437
vt 0.413416 0.038416
vt 0.406601 0.038416
vt 0.524084 0.031601
vt 0.524085 0.038416
vt 0.413416 0.211584
vt 0.406601 0.211584
vt 0.530899 0.211584
vt 0.524084 0.218398
vt 0.524085 0.211584
vt 0.435377 0.053563
vt 0.435377 0.060377
vt 0.428563 0.060377
vt 0.502123 0.053563
vt 0.502123 0.060377
vt 0.435377 0.189623
vt 0.435377 0.196437
vt 0.508937 0.189623
vt 0.502123 0.189623
vt 0.368186 0.743186
vt 0.380111 0.742912
vt 0.376405 0.754215
vt 0.131814 0.743186
vt 0.132025 0.750000
vt 0.125000 0.742975
vt 0.518283 0.787403
vt 0.525097 0.794217
vt 0.518283 0.794217
vt 0.419217 0.794217
vt 0.412403 0.794217
vt 0.412403 0.955783
vt 0.419217 0.955783
vt 0.419217 0.962597
vt 0.518283 0.955783
vt 0.563663 0.000000
vt 0.562500 0.007042
vt 0.562500 0.257042
vt 0.382025 0.257025
vt 0.382025 0.242975
vt 0.562500 0.242958
vt 0.562500 0.507098
vt 0.562500 0.492958
vt 0.562500 0.757042
vt 0.562500 0.742902
vt 0.625000 0.990996
vt 0.618872 0.991703
vt 0.382025 0.000000
vt 0.382025 0.007025
vt 0.562500 0.992958
vt 0.382025 0.992975
vt 0.865996 0.509004
vt 0.865996 0.740996
s 0
f 1/1/1 2/2/1 3/3/1 4/4/1
f 5/5/2 6/6/3 7/7/4
f 8/8/5 9/9/6 10/10/7
f 11/11/8 12/12/9 13/13/10
f 14/14/11 15/15/12 16/16/13
f 17/17/14 18/18/15 19/19/16
f 20/20/17 21/21/18 22/22/19
f 23/23/20 24/24/21 25/25/22
f 26/26/23 27/27/24 28/28/25
f 29/29/26 30/30/27 31/31/28
f 36/32/29 37/33/30 38/34/31
f 39/35/32 40/36/33 41/37/34
f 42/38/35 43/39/36 44/40/37
f 45/41/38 46/42/39 47/43/40
f 48/44/41 49/45/42 50/46/43
f 51/47/44 52/48/45 53/49/46
f 54/50/47 55/51/48 56/52/49
f 57/53/50 58/54/51 59/55/52
f 60/56/53 61/57/54 62/58/55
f 63/59/56 64/60/57 65/35/58
f 66/61/59 67/40/60 68/62/61
f 69/63/62 70/45/63 71/64/64
f 72/65/65 73/66/66 74/67/67
f 75/68/68 76/69/69 77/70/70
f 78/71/71 79/52/72 80/72/73
f 81/53/74 82/73/75 83/74/76
f 84/75/77 85/58/78 86/76/79
f 89/77/80 90/78/81 91/79/82
f 92/80/83 93/81/84 94/82/85
f 97/83/86 98/84/87 99/85/88
f 100/17/89 101/86/90 102/87/91
f 103/88/92 104/89/93 105/90/94
f 106/29/95 107/91/96 108/30/97
f 13/13/98 92/80/83 94/82/99 11/11/100
f 96/92/101 8/8/5 10/10/7 95/93/102
f 9/9/103 15/15/104 14/14/11 10/10/105
f 33/94/106 12/95/9 11/96/8 32/97/107
f 25/25/22 13/13/10 12/12/108 23/23/109
f 15/15/104 27/27/110 26/26/23 16/16/111
f 35/98/112 24/24/21 23/23/20 34/99/113
f 89/77/80 25/25/114 24/24/21 90/78/81
f 27/27/115 21/21/116 20/20/17 28/28/117
f 88/100/118 91/79/82 90/78/81 87/101/119
f 92/80/120 89/77/80 91/79/121 93/81/84
f 21/21/18 9/102/103 8/103/5 22/22/19
f 93/104/84 96/92/101 95/93/102 94/105/122
f 16/16/13 33/94/123 32/97/107 14/14/11
f 28/28/25 35/98/124 34/99/113 26/26/23
f 22/22/125 88/100/126 87/101/127 20/20/17
f 41/37/34 43/39/128 42/38/129 39/35/32
f 50/46/130 41/37/131 40/36/132 48/44/41
f 43/39/133 46/42/134 45/41/135 44/40/37
f 46/42/136 50/46/43 49/45/137 47/43/40
f 65/35/138 66/61/59 68/62/139 63/59/56
f 71/64/64 64/60/57 63/59/140 69/63/141
f 67/40/60 72/65/65 74/67/142 68/62/139
f 73/66/143 70/45/63 69/63/141 74/67/67
f 44/40/144 67/40/60 66/61/145 42/38/35
f 64/60/57 40/36/146 39/35/32 65/35/138
f 48/44/147 71/64/64 70/45/148 49/45/42
f 72/65/65 45/41/149 47/43/40 73/66/143
f 53/49/150 55/51/151 54/50/47 51/47/44
f 59/55/152 53/49/153 52/48/154 57/53/50
f 55/51/155 61/57/156 60/56/157 56/52/49
f 61/57/158 59/55/159 58/54/51 62/58/55
f 75/68/68 78/71/71 80/72/73 76/69/69
f 81/53/160 77/70/161 76/69/69 82/73/75
f 79/52/162 84/75/163 86/76/79 80/72/73
f 85/58/78 83/74/76 82/73/75 86/76/79
f 62/58/55 85/58/78 84/75/163 60/56/157
f 78/71/71 54/50/47 56/52/49 79/52/162
f 77/70/161 52/48/154 51/47/44 75/68/68
f 57/53/50 81/53/160 83/74/76 58/54/51
f 36/32/164 17/17/165 19/19/166 37/33/167
f 7/7/168 19/19/169 18/18/170 5/5/171
f 6/6/172 29/29/173 31/31/174 7/7/175
f 37/33/176 31/31/177 30/30/178 38/34/179
f 99/85/88 101/86/180 100/17/181 97/83/182
f 103/88/183 102/87/184 101/86/90 104/89/93
f 104/89/93 107/91/185 106/29/186 105/90/187
f 98/84/188 108/30/189 107/91/96 99/85/88
f 5/5/190 103/88/92 105/90/187 6/6/191
f 108/30/97 30/30/192 29/29/26 106/29/186
f 38/34/193 98/84/87 97/83/182 36/32/194
f 102/87/91 18/18/195 17/17/14 100/17/181
f 5/5/196 18/18/15 102/87/91 103/88/92
f 7/7/168 31/31/177 96/106/101 93/107/197
f 19/19/169 7/7/168 93/107/84 91/79/121
f 29/29/198 6/6/3 105/90/94 106/29/95
f 88/100/118 22/22/125 8/103/5 96/106/199
f 95/93/102 10/10/7 14/14/11 32/97/107
f 27/27/110 15/108/104 9/109/103 21/21/18
f 11/96/100 94/105/122 41/37/200 50/46/201
f 12/95/9 33/94/123 2/2/1 1/1/1
f 13/13/202 25/25/114 89/77/203 92/80/204
f 23/23/20 12/95/9 1/1/1 4/4/1
f 32/97/205 11/96/100 50/46/201 46/42/206
f 33/94/207 16/16/13 26/26/23 34/99/208
f 17/17/209 36/32/29 97/83/86 100/17/89
f 37/33/210 19/19/169 91/79/121 88/100/126
f 35/98/124 28/28/25 20/20/17 87/101/127
f 24/24/21 35/98/124 87/101/127 90/78/81
f 34/99/211 23/23/109 4/4/1 3/3/1
f 38/34/212 30/30/27 108/30/97 98/84/87
f 31/31/177 37/33/210 88/100/126 96/106/101
f 33/94/123 34/99/213 3/3/1 2/2/1
f 95/93/214 32/97/215 46/42/206 43/39/133
f 94/105/122 95/93/214 43/39/133 41/37/200
f 48/44/216 40/36/217 64/60/57 71/64/64
f 39/35/32 42/38/129 66/61/59 65/35/138
f 44/40/218 45/41/219 72/65/65 67/40/60
f 47/43/40 49/45/137 70/45/63 73/66/143
f 51/47/44 54/50/47 78/71/220 75/68/221
f 53/49/153 59/55/159 69/63/222 63/59/223
f 55/51/151 53/49/153 63/59/223 68/62/224
f 57/53/225 52/48/226 77/70/70 81/53/160
f 56/52/227 60/56/228 84/75/77 79/52/162
f 61/57/156 55/51/151 68/62/224 74/67/229
f 59/55/159 61/57/156 74/67/229 69/63/222
f 62/58/55 58/54/51 83/74/230 85/58/231
f 76/69/69 80/72/73 86/76/79 82/73/75
f 101/86/90 99/85/88 107/91/96 104/89/93
